<svg width="375" height="50" viewBox="0 0 375 50" fill="none" xmlns="http://www.w3.org/2000/svg">
<rect width="375" height="50" fill="#005794"/>
<path d="M53.9986 26.36C53.6186 26.36 53.3186 26.3033 53.0986 26.19C52.8853 26.07 52.7319 25.91 52.6386 25.71C52.5519 25.5033 52.5086 25.2733 52.5086 25.02C52.5086 24.5667 52.6286 24.23 52.8686 24.01C53.1153 23.7833 53.4719 23.67 53.9386 23.67C54.1919 23.67 54.4186 23.69 54.6186 23.73C54.8253 23.7633 54.9753 23.7967 55.0686 23.83V24L55.1786 24.74C55.0919 24.66 54.9419 24.58 54.7286 24.5C54.5219 24.4133 54.2719 24.37 53.9786 24.37C53.7919 24.37 53.6519 24.4233 53.5586 24.53C53.4719 24.63 53.4286 24.7933 53.4286 25.02C53.4286 25.2467 53.4786 25.4067 53.5786 25.5C53.6853 25.5933 53.8686 25.64 54.1286 25.64C54.3886 25.64 54.6019 25.6067 54.7686 25.54C54.9419 25.4667 55.0586 25.3967 55.1186 25.33V25.5L55.1786 26.09C55.1119 26.15 54.9753 26.21 54.7686 26.27C54.5686 26.33 54.3119 26.36 53.9986 26.36ZM53.9386 28.1C53.2586 28.1 52.6653 27.9833 52.1586 27.75C51.6519 27.5167 51.2586 27.17 50.9786 26.71C50.6986 26.25 50.5586 25.68 50.5586 25C50.5586 24.32 50.6986 23.75 50.9786 23.29C51.2586 22.83 51.6519 22.4833 52.1586 22.25C52.6653 22.0167 53.2586 21.9 53.9386 21.9C54.6253 21.9 55.2186 22.0167 55.7186 22.25C56.2253 22.4833 56.6186 22.83 56.8986 23.29C57.1786 23.75 57.3186 24.32 57.3186 25C57.3186 25.68 57.1786 26.25 56.8986 26.71C56.6186 27.17 56.2253 27.5167 55.7186 27.75C55.2186 27.9833 54.6253 28.1 53.9386 28.1ZM53.9386 27.38C54.4719 27.38 54.9286 27.2967 55.3086 27.13C55.6886 26.9567 55.9786 26.6967 56.1786 26.35C56.3853 25.9967 56.4886 25.5467 56.4886 25C56.4886 24.46 56.3853 24.0167 56.1786 23.67C55.9786 23.3167 55.6886 23.0533 55.3086 22.88C54.9286 22.7067 54.4719 22.62 53.9386 22.62C53.4119 22.62 52.9553 22.7067 52.5686 22.88C52.1886 23.0533 51.8953 23.3167 51.6886 23.67C51.4886 24.0167 51.3886 24.46 51.3886 25C51.3886 25.5467 51.4886 25.9967 51.6886 26.35C51.8953 26.6967 52.1886 26.9567 52.5686 27.13C52.9553 27.2967 53.4119 27.38 53.9386 27.38ZM60.5246 28V27.89C60.5246 27.75 60.6179 27.51 60.8046 27.17C60.9979 26.8233 61.3213 26.4167 61.7746 25.95C62.0146 25.6967 62.2513 25.4667 62.4846 25.26C62.7246 25.0533 62.9379 24.8567 63.1246 24.67C63.3179 24.4767 63.4713 24.2867 63.5846 24.1C63.7046 23.9133 63.7646 23.7167 63.7646 23.51C63.7646 23.3367 63.7113 23.21 63.6046 23.13C63.4979 23.0433 63.3213 23 63.0746 23C62.7879 23 62.5046 23.05 62.2246 23.15C61.9513 23.25 61.7013 23.3733 61.4746 23.52C61.2479 23.66 61.0646 23.7967 60.9246 23.93V23.63L60.7246 22.5C60.8646 22.3667 61.1346 22.2333 61.5346 22.1C61.9346 21.9667 62.4413 21.9 63.0546 21.9C63.5946 21.9 64.0179 21.97 64.3246 22.11C64.6379 22.25 64.8579 22.4333 64.9846 22.66C65.1179 22.88 65.1846 23.1133 65.1846 23.36C65.1846 23.7133 65.1246 24.0267 65.0046 24.3C64.8913 24.5733 64.7213 24.8367 64.4946 25.09C64.2679 25.3433 63.9879 25.6167 63.6546 25.91C63.3079 26.21 63.0079 26.4367 62.7546 26.59C62.5013 26.7367 62.3179 26.8267 62.2046 26.86V26.89H64.0846C64.4846 26.89 64.8113 26.8567 65.0646 26.79C65.3246 26.7233 65.4979 26.6567 65.5846 26.59L65.3846 27.69V28H60.5246ZM68.9387 28.1C68.052 28.1 67.3887 27.8367 66.9487 27.31C66.5087 26.7767 66.2887 25.9967 66.2887 24.97C66.2887 23.97 66.512 23.21 66.9587 22.69C67.4053 22.1633 68.0653 21.9 68.9387 21.9H69.0487C69.9087 21.9 70.5553 22.16 70.9887 22.68C71.4287 23.2 71.6487 23.9633 71.6487 24.97C71.6487 25.9967 71.4287 26.7767 70.9887 27.31C70.5553 27.8367 69.9087 28.1 69.0487 28.1H68.9387ZM68.9387 26.99H69.0487C69.2753 26.99 69.4687 26.9333 69.6287 26.82C69.7887 26.7 69.912 26.4933 69.9987 26.2C70.0853 25.9067 70.1287 25.4967 70.1287 24.97C70.1287 24.4567 70.0853 24.06 69.9987 23.78C69.912 23.4933 69.7887 23.2933 69.6287 23.18C69.4687 23.06 69.2753 23 69.0487 23H68.9387C68.712 23 68.512 23.0567 68.3387 23.17C68.172 23.2833 68.042 23.4833 67.9487 23.77C67.8553 24.05 67.8087 24.45 67.8087 24.97C67.8087 25.5033 67.8553 25.9167 67.9487 26.21C68.042 26.5033 68.172 26.7067 68.3387 26.82C68.512 26.9333 68.712 26.99 68.9387 26.99ZM72.3508 28V27.89C72.3508 27.75 72.4441 27.51 72.6308 27.17C72.8241 26.8233 73.1474 26.4167 73.6008 25.95C73.8408 25.6967 74.0774 25.4667 74.3108 25.26C74.5508 25.0533 74.7641 24.8567 74.9508 24.67C75.1441 24.4767 75.2974 24.2867 75.4108 24.1C75.5308 23.9133 75.5908 23.7167 75.5908 23.51C75.5908 23.3367 75.5374 23.21 75.4308 23.13C75.3241 23.0433 75.1474 23 74.9008 23C74.6141 23 74.3308 23.05 74.0508 23.15C73.7774 23.25 73.5274 23.3733 73.3008 23.52C73.0741 23.66 72.8908 23.7967 72.7508 23.93V23.63L72.5508 22.5C72.6908 22.3667 72.9608 22.2333 73.3608 22.1C73.7608 21.9667 74.2674 21.9 74.8808 21.9C75.4208 21.9 75.8441 21.97 76.1508 22.11C76.4641 22.25 76.6841 22.4333 76.8108 22.66C76.9441 22.88 77.0108 23.1133 77.0108 23.36C77.0108 23.7133 76.9508 24.0267 76.8308 24.3C76.7174 24.5733 76.5474 24.8367 76.3208 25.09C76.0941 25.3433 75.8141 25.6167 75.4808 25.91C75.1341 26.21 74.8341 26.4367 74.5808 26.59C74.3274 26.7367 74.1441 26.8267 74.0308 26.86V26.89H75.9108C76.3108 26.89 76.6374 26.8567 76.8908 26.79C77.1508 26.7233 77.3241 26.6567 77.4108 26.59L77.2108 27.69V28H72.3508ZM80.9548 28.1C80.2615 28.1 79.6648 28.0567 79.1648 27.97C78.6648 27.8767 78.3148 27.7867 78.1148 27.7L78.3148 26.53V26.23C78.4548 26.3367 78.6482 26.45 78.8948 26.57C79.1415 26.69 79.4248 26.7933 79.7448 26.88C80.0715 26.96 80.4148 27 80.7748 27C81.2482 27 81.5615 26.9133 81.7148 26.74C81.8748 26.5667 81.9548 26.3467 81.9548 26.08C81.9548 25.8067 81.8648 25.5967 81.6848 25.45C81.5115 25.2967 81.1715 25.22 80.6648 25.22C80.1382 25.22 79.6848 25.2433 79.3048 25.29C78.9315 25.33 78.6682 25.3733 78.5148 25.42V22H82.9348V22.3L83.1348 23.3C83.0615 23.2533 82.8615 23.21 82.5348 23.17C82.2082 23.1233 81.7482 23.1 81.1548 23.1H80.0348V23.85C80.0348 23.9967 80.0515 24.0833 80.0848 24.11C80.1182 24.1367 80.2348 24.15 80.4348 24.15H81.1548C81.9282 24.15 82.5082 24.31 82.8948 24.63C83.2815 24.95 83.4748 25.4433 83.4748 26.11C83.4748 26.7167 83.2715 27.2 82.8648 27.56C82.4648 27.92 81.8282 28.1 80.9548 28.1ZM86.7793 28C86.826 28 86.8726 27.9533 86.9193 27.86C86.966 27.7667 86.9893 27.6133 86.9893 27.4V22.6C86.9893 22.3867 86.966 22.2367 86.9193 22.15C86.8726 22.0567 86.826 22.0067 86.7793 22H89.1393C89.0993 22.0067 89.0793 22.06 89.0793 22.16C89.086 22.2533 89.1426 22.4067 89.2493 22.62C89.296 22.7067 89.3626 22.8433 89.4493 23.03C89.5426 23.2167 89.646 23.4333 89.7593 23.68C89.8793 23.9267 90.0026 24.19 90.1293 24.47C90.2626 24.75 90.396 25.03 90.5293 25.31C90.6626 25.59 90.786 25.8533 90.8993 26.1H90.9093C91.0293 25.8533 91.156 25.5933 91.2893 25.32C91.4293 25.04 91.566 24.76 91.6993 24.48C91.8326 24.2 91.9593 23.9367 92.0793 23.69C92.1993 23.4367 92.3026 23.2167 92.3893 23.03C92.476 22.8367 92.5393 22.6933 92.5793 22.6C92.6726 22.3867 92.7226 22.2333 92.7293 22.14C92.736 22.0467 92.7226 22 92.6893 22H95.0493C95.0026 22 94.956 22.0467 94.9093 22.14C94.8626 22.2333 94.8393 22.39 94.8393 22.61V27.4C94.8393 27.6133 94.8626 27.7667 94.9093 27.86C94.956 27.9533 95.0026 28 95.0493 28H93.1193C93.166 28 93.2093 27.9533 93.2493 27.86C93.296 27.7667 93.3193 27.6133 93.3193 27.4V24.16H93.2993C93.1926 24.36 93.0793 24.58 92.9593 24.82C92.8393 25.06 92.716 25.3033 92.5893 25.55C92.4693 25.7967 92.3526 26.0367 92.2393 26.27C92.126 26.5033 92.0226 26.7167 91.9293 26.91C91.836 27.1033 91.7593 27.2667 91.6993 27.4C91.606 27.6067 91.556 27.7567 91.5493 27.85C91.5493 27.9433 91.566 27.9933 91.5993 28H90.1993C90.2326 27.9933 90.246 27.9433 90.2393 27.85C90.2393 27.7567 90.1926 27.6067 90.0993 27.4C90.046 27.28 89.9726 27.1233 89.8793 26.93C89.7926 26.7367 89.6926 26.5267 89.5793 26.3C89.4726 26.0667 89.3593 25.8267 89.2393 25.58C89.1193 25.3267 88.9993 25.08 88.8793 24.84C88.766 24.5933 88.6593 24.3667 88.5593 24.16H88.5293V27.4C88.5293 27.6133 88.5526 27.7667 88.5993 27.86C88.646 27.9533 88.6926 28 88.7393 28H86.7793ZM96.0469 28C96.0935 28 96.1402 27.9533 96.1869 27.86C96.2335 27.7667 96.2569 27.6133 96.2569 27.4V22.6C96.2569 22.3867 96.2335 22.2367 96.1869 22.15C96.1402 22.0567 96.0935 22.0067 96.0469 22H101.887V22.3L102.087 23.46C101.92 23.3867 101.627 23.31 101.207 23.23C100.787 23.1433 100.28 23.1 99.6869 23.1H98.2069C98.0069 23.1 97.8869 23.1167 97.8469 23.15C97.8135 23.1767 97.7969 23.26 97.7969 23.4V24.14C97.7969 24.2867 97.8135 24.3733 97.8469 24.4C97.8869 24.4267 98.0035 24.44 98.1969 24.44H99.6369C100.024 24.44 100.334 24.42 100.567 24.38C100.807 24.3333 100.964 24.2867 101.037 24.24C101.01 24.3667 100.98 24.5133 100.947 24.68C100.914 24.8467 100.887 25.0067 100.867 25.16C100.847 25.3133 100.837 25.44 100.837 25.54H98.1969C98.0035 25.54 97.8869 25.5533 97.8469 25.58C97.8135 25.6 97.7969 25.6867 97.7969 25.84V26.58C97.7969 26.7333 97.8135 26.8233 97.8469 26.85C97.8802 26.8767 97.9969 26.89 98.1969 26.89H100.897C101.284 26.89 101.594 26.8467 101.827 26.76C102.067 26.6667 102.224 26.5767 102.297 26.49L102.097 27.69V28H96.0469ZM103 28C103.047 28 103.09 27.9567 103.13 27.87C103.177 27.7767 103.2 27.62 103.2 27.4V22.6C103.2 22.3867 103.177 22.2333 103.13 22.14C103.09 22.0467 103.047 22 103 22H104.93C104.883 22 104.837 22.0467 104.79 22.14C104.743 22.2267 104.72 22.3833 104.72 22.61V27.4C104.72 27.6133 104.743 27.7667 104.79 27.86C104.837 27.9533 104.883 28 104.93 28H103ZM107.99 28C108.036 27.9867 108.066 27.9367 108.08 27.85C108.093 27.7567 108.063 27.61 107.99 27.41C107.963 27.3367 107.903 27.1867 107.81 26.96C107.723 26.7333 107.613 26.46 107.48 26.14C107.353 25.8133 107.216 25.47 107.07 25.11C106.923 24.75 106.78 24.4 106.64 24.06C106.506 23.72 106.386 23.42 106.28 23.16C106.173 22.9 106.093 22.7133 106.04 22.6C105.953 22.3867 105.86 22.2367 105.76 22.15C105.66 22.0567 105.583 22.0067 105.53 22H107.76C107.713 22.0067 107.683 22.0567 107.67 22.15C107.663 22.2433 107.696 22.4 107.77 22.62C107.803 22.7067 107.853 22.8567 107.92 23.07C107.993 23.2767 108.076 23.5267 108.17 23.82C108.27 24.1067 108.373 24.4167 108.48 24.75C108.593 25.0833 108.703 25.42 108.81 25.76C108.923 26.1 109.03 26.42 109.13 26.72H109.15C109.23 26.4267 109.313 26.1167 109.4 25.79C109.486 25.4567 109.573 25.1267 109.66 24.8C109.753 24.4667 109.836 24.1533 109.91 23.86C109.99 23.5667 110.06 23.3133 110.12 23.1C110.18 22.88 110.223 22.72 110.25 22.62C110.31 22.4 110.333 22.2433 110.32 22.15C110.306 22.0567 110.283 22.0067 110.25 22H112.77C112.73 22 112.703 22.0467 112.69 22.14C112.676 22.2333 112.703 22.3967 112.77 22.63C112.796 22.7167 112.84 22.8667 112.9 23.08C112.96 23.2933 113.026 23.5467 113.1 23.84C113.18 24.1267 113.263 24.4367 113.35 24.77C113.443 25.0967 113.533 25.43 113.62 25.77C113.713 26.1033 113.8 26.42 113.88 26.72H113.9C114.006 26.42 114.116 26.1033 114.23 25.77C114.343 25.43 114.456 25.0933 114.57 24.76C114.683 24.4267 114.79 24.1167 114.89 23.83C114.99 23.5367 115.073 23.2833 115.14 23.07C115.213 22.8567 115.263 22.7067 115.29 22.62C115.363 22.3933 115.39 22.2333 115.37 22.14C115.356 22.0467 115.33 22 115.29 22H117.51C117.463 22.0067 117.396 22.06 117.31 22.16C117.223 22.2533 117.123 22.4067 117.01 22.62C116.956 22.72 116.876 22.8933 116.77 23.14C116.663 23.38 116.54 23.6633 116.4 23.99C116.26 24.3167 116.116 24.6567 115.97 25.01C115.823 25.3567 115.683 25.6933 115.55 26.02C115.423 26.34 115.313 26.6233 115.22 26.87C115.126 27.11 115.063 27.28 115.03 27.38C114.963 27.6 114.936 27.7567 114.95 27.85C114.963 27.9433 114.99 27.9933 115.03 28H112.72C112.76 27.9933 112.786 27.9433 112.8 27.85C112.813 27.7567 112.786 27.6 112.72 27.38C112.693 27.2933 112.646 27.14 112.58 26.92C112.52 26.6933 112.446 26.4267 112.36 26.12C112.28 25.8067 112.19 25.4733 112.09 25.12C111.99 24.76 111.89 24.4 111.79 24.04C111.69 23.6733 111.596 23.3267 111.51 23H111.49C111.403 23.3267 111.31 23.6733 111.21 24.04C111.11 24.4 111.013 24.76 110.92 25.12C110.826 25.48 110.736 25.8167 110.65 26.13C110.57 26.4367 110.5 26.7 110.44 26.92C110.38 27.14 110.336 27.2933 110.31 27.38C110.25 27.5933 110.226 27.75 110.24 27.85C110.253 27.9433 110.276 27.9933 110.31 28H107.99ZM116.542 28C116.576 28 116.626 27.9533 116.693 27.86C116.766 27.7667 116.849 27.61 116.943 27.39C116.989 27.29 117.063 27.12 117.163 26.88C117.269 26.6333 117.389 26.35 117.523 26.03C117.663 25.7033 117.806 25.3633 117.953 25.01C118.106 24.6567 118.249 24.3167 118.383 23.99C118.523 23.6633 118.643 23.3767 118.743 23.13C118.849 22.8833 118.923 22.7067 118.963 22.6C119.049 22.3867 119.096 22.2333 119.103 22.14C119.109 22.0467 119.096 22 119.062 22H121.243C121.216 22 121.206 22.0467 121.213 22.14C121.219 22.2267 121.266 22.38 121.353 22.6C121.393 22.7067 121.463 22.8833 121.562 23.13C121.663 23.37 121.779 23.6533 121.913 23.98C122.046 24.3 122.186 24.6367 122.333 24.99C122.479 25.3433 122.619 25.6833 122.753 26.01C122.886 26.33 123.006 26.6133 123.113 26.86C123.219 27.1067 123.296 27.2833 123.343 27.39C123.443 27.61 123.539 27.7667 123.633 27.86C123.726 27.9533 123.796 28 123.843 28H121.573C121.626 27.9933 121.669 27.9433 121.702 27.85C121.743 27.75 121.743 27.5967 121.702 27.39C121.696 27.3433 121.689 27.3067 121.683 27.28C121.676 27.2467 121.663 27.2 121.643 27.14C121.616 27.04 121.586 26.97 121.553 26.93C121.519 26.8833 121.463 26.8567 121.383 26.85C121.309 26.8433 121.186 26.84 121.013 26.84H119.293C119.113 26.84 118.979 26.8467 118.893 26.86C118.806 26.8667 118.746 26.89 118.713 26.93C118.679 26.97 118.653 27.0367 118.633 27.13C118.626 27.1633 118.616 27.2067 118.603 27.26C118.596 27.3133 118.589 27.3567 118.583 27.39C118.536 27.6033 118.523 27.7567 118.543 27.85C118.569 27.9433 118.603 27.9933 118.643 28H116.542ZM119.553 25.74H120.723C120.916 25.74 121.023 25.7233 121.043 25.69C121.063 25.6567 121.053 25.5833 121.013 25.47C120.926 25.2567 120.839 25.04 120.753 24.82C120.666 24.5933 120.583 24.3733 120.503 24.16C120.429 23.9467 120.363 23.75 120.303 23.57C120.249 23.3833 120.203 23.2267 120.163 23.1H120.143C120.049 23.3467 119.953 23.6067 119.853 23.88C119.753 24.1533 119.659 24.4067 119.573 24.64C119.486 24.8733 119.416 25.0667 119.363 25.22C119.309 25.3667 119.283 25.44 119.283 25.44C119.236 25.5467 119.219 25.6233 119.233 25.67C119.246 25.7167 119.353 25.74 119.553 25.74ZM126.77 28C126.816 28 126.86 27.9567 126.9 27.87C126.946 27.7767 126.97 27.62 126.97 27.4V22.6C126.97 22.3867 126.946 22.2333 126.9 22.14C126.86 22.0467 126.816 22 126.77 22H128.7C128.653 22 128.606 22.0467 128.56 22.14C128.513 22.2267 128.49 22.3833 128.49 22.61V27.4C128.49 27.6133 128.513 27.7667 128.56 27.86C128.606 27.9533 128.653 28 128.7 28H126.77ZM129.699 28C129.746 28 129.793 27.9533 129.839 27.86C129.886 27.7667 129.909 27.6133 129.909 27.4V22.6C129.909 22.3867 129.886 22.2367 129.839 22.15C129.793 22.0567 129.746 22.0067 129.699 22H131.659C131.613 22 131.599 22.0467 131.619 22.14C131.646 22.2333 131.756 22.3933 131.949 22.62C132.003 22.6733 132.089 22.7733 132.209 22.92C132.336 23.06 132.486 23.23 132.659 23.43C132.833 23.63 133.016 23.8467 133.209 24.08C133.409 24.3133 133.609 24.5467 133.809 24.78C134.016 25.0133 134.213 25.2367 134.399 25.45H134.409V22.6C134.409 22.3867 134.386 22.2367 134.339 22.15C134.293 22.0567 134.246 22.0067 134.199 22H136.159C136.113 22 136.066 22.0467 136.019 22.14C135.973 22.2333 135.949 22.39 135.949 22.61V27.4C135.949 27.6133 135.973 27.7667 136.019 27.86C136.066 27.9533 136.113 28 136.159 28H134.439C134.479 28 134.483 27.9533 134.449 27.86C134.423 27.7667 134.319 27.6067 134.139 27.38C134.046 27.26 133.923 27.1067 133.769 26.92C133.616 26.7267 133.443 26.5133 133.249 26.28C133.063 26.0467 132.866 25.8033 132.659 25.55C132.453 25.2967 132.246 25.05 132.039 24.81C131.839 24.5633 131.653 24.3367 131.479 24.13H131.449V27.4C131.449 27.6133 131.473 27.7667 131.519 27.86C131.566 27.9533 131.613 28 131.659 28H129.699ZM137.16 28C137.207 28 137.253 27.9533 137.3 27.86C137.347 27.7667 137.37 27.6133 137.37 27.4V22.6C137.37 22.3867 137.347 22.2367 137.3 22.15C137.253 22.0567 137.207 22.0067 137.16 22H140.3C140.887 22 141.38 22.0567 141.78 22.17C142.18 22.2833 142.5 22.44 142.74 22.64C142.987 22.84 143.173 23.07 143.3 23.33C143.427 23.5833 143.51 23.8533 143.55 24.14C143.597 24.4267 143.62 24.7167 143.62 25.01C143.62 25.2767 143.597 25.5533 143.55 25.84C143.51 26.12 143.423 26.39 143.29 26.65C143.163 26.9033 142.977 27.1333 142.73 27.34C142.49 27.54 142.17 27.7 141.77 27.82C141.377 27.94 140.887 28 140.3 28H137.16ZM139.31 26.89H139.72C140.293 26.89 140.753 26.8433 141.1 26.75C141.447 26.65 141.7 26.47 141.86 26.21C142.02 25.95 142.1 25.5733 142.1 25.08V24.9C142.1 24.38 142.027 23.9967 141.88 23.75C141.733 23.4967 141.487 23.33 141.14 23.25C140.793 23.17 140.32 23.13 139.72 23.13H139.31C139.117 23.13 139 23.1433 138.96 23.17C138.927 23.19 138.91 23.27 138.91 23.41V26.59C138.91 26.7367 138.927 26.8233 138.96 26.85C139 26.8767 139.117 26.89 139.31 26.89ZM147.653 28.1C146.98 28.1 146.427 27.9933 145.993 27.78C145.56 27.5667 145.24 27.26 145.033 26.86C144.827 26.4533 144.723 25.97 144.723 25.41V22.59C144.723 22.3767 144.7 22.2267 144.653 22.14C144.613 22.0467 144.57 22 144.523 22H146.443C146.397 22.0067 146.35 22.0533 146.303 22.14C146.263 22.2267 146.243 22.3767 146.243 22.59V25.39C146.243 25.8167 146.303 26.1467 146.423 26.38C146.543 26.6133 146.71 26.7733 146.923 26.86C147.137 26.9467 147.383 26.99 147.663 26.99H147.773C147.993 26.99 148.187 26.9667 148.353 26.92C148.527 26.8733 148.67 26.7933 148.783 26.68C148.903 26.5667 148.993 26.4067 149.053 26.2C149.12 25.9867 149.153 25.7167 149.153 25.39V22.59C149.153 22.3767 149.13 22.2267 149.083 22.14C149.043 22.0467 149 22 148.953 22H150.873C150.827 22.0067 150.78 22.0567 150.733 22.15C150.693 22.2367 150.673 22.3867 150.673 22.6V25.41C150.673 25.97 150.567 26.4533 150.353 26.86C150.147 27.26 149.827 27.5667 149.393 27.78C148.967 27.9933 148.42 28.1 147.753 28.1H147.653ZM155.117 28.1C154.39 28.1 153.747 28.0667 153.187 28C152.627 27.9333 152.224 27.8667 151.977 27.8V27.5L151.777 26.23C151.904 26.3367 152.114 26.45 152.407 26.57C152.7 26.69 153.077 26.7933 153.537 26.88C153.997 26.96 154.53 27 155.137 27C155.51 27 155.797 26.9767 155.997 26.93C156.197 26.8767 156.334 26.8033 156.407 26.71C156.48 26.6167 156.517 26.5067 156.517 26.38C156.517 26.22 156.464 26.0967 156.357 26.01C156.25 25.9167 156.057 25.84 155.777 25.78C155.504 25.72 155.114 25.6567 154.607 25.59C154 25.51 153.494 25.4 153.087 25.26C152.68 25.12 152.377 24.9233 152.177 24.67C151.977 24.41 151.877 24.0667 151.877 23.64C151.877 23.2933 151.967 22.99 152.147 22.73C152.327 22.47 152.617 22.2667 153.017 22.12C153.417 21.9733 153.947 21.9 154.607 21.9C155.3 21.9 155.894 21.9333 156.387 22C156.88 22.0667 157.22 22.1333 157.407 22.2V22.5L157.707 23.6C157.54 23.5133 157.3 23.4233 156.987 23.33C156.674 23.2367 156.31 23.16 155.897 23.1C155.484 23.0333 155.037 23 154.557 23C154.257 23 154.024 23.0267 153.857 23.08C153.69 23.1267 153.57 23.1967 153.497 23.29C153.43 23.3767 153.397 23.4867 153.397 23.62C153.397 23.78 153.457 23.91 153.577 24.01C153.704 24.1033 153.907 24.18 154.187 24.24C154.467 24.3 154.844 24.3567 155.317 24.41C156.044 24.49 156.604 24.61 156.997 24.77C157.39 24.93 157.66 25.1367 157.807 25.39C157.96 25.6367 158.037 25.9367 158.037 26.29C158.037 26.5967 157.98 26.8667 157.867 27.1C157.754 27.3267 157.577 27.5133 157.337 27.66C157.104 27.8067 156.8 27.9167 156.427 27.99C156.06 28.0633 155.624 28.1 155.117 28.1ZM160.858 28C160.904 28 160.951 27.9533 160.998 27.86C161.044 27.7667 161.068 27.6133 161.068 27.4V23.4C161.068 23.2533 161.051 23.1667 161.018 23.14C160.984 23.1133 160.868 23.1 160.668 23.1H159.938C159.551 23.1 159.238 23.1433 158.998 23.23C158.764 23.31 158.611 23.3867 158.538 23.46L158.738 22.3V22H164.938V22.3L165.138 23.46C165.064 23.3867 164.908 23.31 164.668 23.23C164.434 23.1433 164.124 23.1 163.738 23.1H163.018C162.811 23.1 162.691 23.1133 162.658 23.14C162.624 23.1667 162.608 23.2533 162.608 23.4V27.4C162.608 27.6133 162.631 27.7667 162.678 27.86C162.724 27.9533 162.771 28 162.818 28H160.858ZM165.744 28C165.791 28 165.834 27.9533 165.874 27.86C165.921 27.7667 165.944 27.6133 165.944 27.4V22.6C165.944 22.3867 165.921 22.2367 165.874 22.15C165.828 22.0567 165.781 22.0067 165.734 22H169.014C169.601 22 170.068 22.0733 170.414 22.22C170.768 22.3667 171.021 22.5833 171.174 22.87C171.334 23.15 171.414 23.5 171.414 23.92C171.414 24.22 171.358 24.4867 171.244 24.72C171.138 24.9533 170.988 25.1433 170.794 25.29C170.601 25.4367 170.384 25.5433 170.144 25.61V25.64C170.411 25.7467 170.691 25.9567 170.984 26.27C171.278 26.5767 171.541 26.92 171.774 27.3C171.928 27.5467 172.068 27.7233 172.194 27.83C172.321 27.9367 172.418 27.9933 172.484 28H169.964C170.044 27.9933 170.108 27.95 170.154 27.87C170.208 27.7833 170.191 27.6433 170.104 27.45C169.964 27.13 169.794 26.8533 169.594 26.62C169.394 26.3867 169.161 26.21 168.894 26.09C168.634 25.9633 168.334 25.9 167.994 25.9H167.884C167.678 25.9 167.558 25.9167 167.524 25.95C167.491 25.9833 167.474 26.0667 167.474 26.2V27.4C167.474 27.6133 167.498 27.7667 167.544 27.86C167.591 27.9533 167.638 28 167.684 28H165.744ZM167.884 24.89H168.704C169.124 24.89 169.428 24.8167 169.614 24.67C169.801 24.5167 169.894 24.2667 169.894 23.92C169.894 23.7667 169.861 23.63 169.794 23.51C169.728 23.39 169.614 23.2967 169.454 23.23C169.301 23.1633 169.084 23.13 168.804 23.13H167.884C167.678 23.13 167.558 23.14 167.524 23.16C167.491 23.18 167.474 23.2567 167.474 23.39V24.62C167.474 24.7533 167.491 24.8333 167.524 24.86C167.558 24.88 167.678 24.89 167.884 24.89ZM174.78 28C174.833 28 174.89 27.9567 174.95 27.87C175.01 27.7767 175.04 27.62 175.04 27.4L175.03 25.34C174.843 25.1067 174.64 24.8567 174.42 24.59C174.2 24.3233 173.983 24.06 173.77 23.8C173.557 23.54 173.363 23.3067 173.19 23.1C173.023 22.8867 172.893 22.7267 172.8 22.62C172.613 22.3933 172.457 22.2333 172.33 22.14C172.21 22.0467 172.127 22 172.08 22H174.44C174.393 22.0067 174.377 22.0567 174.39 22.15C174.403 22.2433 174.487 22.4 174.64 22.62C174.713 22.72 174.797 22.8433 174.89 22.99C174.99 23.13 175.093 23.2833 175.2 23.45C175.307 23.6167 175.41 23.78 175.51 23.94C175.617 24.1 175.713 24.2467 175.8 24.38H175.81C175.91 24.2333 176.01 24.0867 176.11 23.94C176.21 23.7867 176.31 23.6367 176.41 23.49C176.51 23.3433 176.61 23.1967 176.71 23.05C176.81 22.8967 176.91 22.7467 177.01 22.6C177.163 22.3733 177.247 22.2167 177.26 22.13C177.273 22.0433 177.257 22 177.21 22H179.51C179.47 22.0067 179.393 22.0533 179.28 22.14C179.167 22.2267 179.02 22.3767 178.84 22.59C178.74 22.7033 178.6 22.8667 178.42 23.08C178.247 23.2867 178.053 23.5233 177.84 23.79C177.627 24.05 177.407 24.3167 177.18 24.59C176.96 24.8567 176.757 25.1067 176.57 25.34V27.4C176.57 27.62 176.59 27.7767 176.63 27.87C176.677 27.9567 176.723 28 176.77 28H174.78ZM182.424 28C182.471 28 182.514 27.9533 182.554 27.86C182.601 27.7667 182.624 27.6133 182.624 27.4V22.6C182.624 22.3867 182.601 22.2367 182.554 22.15C182.507 22.0567 182.461 22.0067 182.414 22H185.694C186.281 22 186.747 22.0733 187.094 22.22C187.447 22.3667 187.701 22.5833 187.854 22.87C188.014 23.15 188.094 23.5 188.094 23.92C188.094 24.22 188.037 24.4867 187.924 24.72C187.817 24.9533 187.667 25.1433 187.474 25.29C187.281 25.4367 187.064 25.5433 186.824 25.61V25.64C187.091 25.7467 187.371 25.9567 187.664 26.27C187.957 26.5767 188.221 26.92 188.454 27.3C188.607 27.5467 188.747 27.7233 188.874 27.83C189.001 27.9367 189.097 27.9933 189.164 28H186.644C186.724 27.9933 186.787 27.95 186.834 27.87C186.887 27.7833 186.871 27.6433 186.784 27.45C186.644 27.13 186.474 26.8533 186.274 26.62C186.074 26.3867 185.841 26.21 185.574 26.09C185.314 25.9633 185.014 25.9 184.674 25.9H184.564C184.357 25.9 184.237 25.9167 184.204 25.95C184.171 25.9833 184.154 26.0667 184.154 26.2V27.4C184.154 27.6133 184.177 27.7667 184.224 27.86C184.271 27.9533 184.317 28 184.364 28H182.424ZM184.564 24.89H185.384C185.804 24.89 186.107 24.8167 186.294 24.67C186.481 24.5167 186.574 24.2667 186.574 23.92C186.574 23.7667 186.541 23.63 186.474 23.51C186.407 23.39 186.294 23.2967 186.134 23.23C185.981 23.1633 185.764 23.13 185.484 23.13H184.564C184.357 23.13 184.237 23.14 184.204 23.16C184.171 23.18 184.154 23.2567 184.154 23.39V24.62C184.154 24.7533 184.171 24.8333 184.204 24.86C184.237 24.88 184.357 24.89 184.564 24.89ZM189.66 28C189.707 28 189.753 27.9533 189.8 27.86C189.847 27.7667 189.87 27.6133 189.87 27.4V22.6C189.87 22.3867 189.847 22.2367 189.8 22.15C189.753 22.0567 189.707 22.0067 189.66 22H195.5V22.3L195.7 23.46C195.533 23.3867 195.24 23.31 194.82 23.23C194.4 23.1433 193.893 23.1 193.3 23.1H191.82C191.62 23.1 191.5 23.1167 191.46 23.15C191.427 23.1767 191.41 23.26 191.41 23.4V24.14C191.41 24.2867 191.427 24.3733 191.46 24.4C191.5 24.4267 191.617 24.44 191.81 24.44H193.25C193.637 24.44 193.947 24.42 194.18 24.38C194.42 24.3333 194.577 24.2867 194.65 24.24C194.623 24.3667 194.593 24.5133 194.56 24.68C194.527 24.8467 194.5 25.0067 194.48 25.16C194.46 25.3133 194.45 25.44 194.45 25.54H191.81C191.617 25.54 191.5 25.5533 191.46 25.58C191.427 25.6 191.41 25.6867 191.41 25.84V26.58C191.41 26.7333 191.427 26.8233 191.46 26.85C191.493 26.8767 191.61 26.89 191.81 26.89H194.51C194.897 26.89 195.207 26.8467 195.44 26.76C195.68 26.6667 195.837 26.5767 195.91 26.49L195.71 27.69V28H189.66ZM199.943 28.1C198.797 28.1 197.937 27.8533 197.363 27.36C196.797 26.86 196.513 26.0733 196.513 25C196.513 24.38 196.63 23.84 196.863 23.38C197.097 22.9133 197.467 22.55 197.973 22.29C198.48 22.03 199.137 21.9 199.943 21.9C200.577 21.9 201.103 21.9333 201.523 22C201.943 22.0667 202.227 22.1333 202.373 22.2V22.5L202.573 23.6C202.447 23.5133 202.257 23.4233 202.003 23.33C201.757 23.2367 201.46 23.16 201.113 23.1C200.767 23.0333 200.383 23 199.963 23C199.503 23 199.13 23.0733 198.843 23.22C198.563 23.3667 198.357 23.59 198.223 23.89C198.097 24.1833 198.033 24.5533 198.033 25C198.033 25.4467 198.097 25.8167 198.223 26.11C198.357 26.4033 198.583 26.6233 198.903 26.77C199.23 26.9167 199.68 26.99 200.253 26.99C200.827 26.99 201.303 26.91 201.683 26.75C202.07 26.59 202.333 26.4367 202.473 26.29V26.59L202.573 27.6C202.46 27.7067 202.183 27.8167 201.743 27.93C201.31 28.0433 200.71 28.1 199.943 28.1ZM203.479 28C203.525 28 203.569 27.9533 203.609 27.86C203.655 27.7667 203.679 27.6133 203.679 27.4V22.6C203.679 22.3867 203.655 22.2367 203.609 22.15C203.562 22.0567 203.515 22.0067 203.469 22H206.749C207.335 22 207.802 22.0733 208.149 22.22C208.502 22.3667 208.755 22.5833 208.909 22.87C209.069 23.15 209.149 23.5 209.149 23.92C209.149 24.22 209.092 24.4867 208.979 24.72C208.872 24.9533 208.722 25.1433 208.529 25.29C208.335 25.4367 208.119 25.5433 207.879 25.61V25.64C208.145 25.7467 208.425 25.9567 208.719 26.27C209.012 26.5767 209.275 26.92 209.509 27.3C209.662 27.5467 209.802 27.7233 209.929 27.83C210.055 27.9367 210.152 27.9933 210.219 28H207.699C207.779 27.9933 207.842 27.95 207.889 27.87C207.942 27.7833 207.925 27.6433 207.839 27.45C207.699 27.13 207.529 26.8533 207.329 26.62C207.129 26.3867 206.895 26.21 206.629 26.09C206.369 25.9633 206.069 25.9 205.729 25.9H205.619C205.412 25.9 205.292 25.9167 205.259 25.95C205.225 25.9833 205.209 26.0667 205.209 26.2V27.4C205.209 27.6133 205.232 27.7667 205.279 27.86C205.325 27.9533 205.372 28 205.419 28H203.479ZM205.619 24.89H206.439C206.859 24.89 207.162 24.8167 207.349 24.67C207.535 24.5167 207.629 24.2667 207.629 23.92C207.629 23.7667 207.595 23.63 207.529 23.51C207.462 23.39 207.349 23.2967 207.189 23.23C207.035 23.1633 206.819 23.13 206.539 23.13H205.619C205.412 23.13 205.292 23.14 205.259 23.16C205.225 23.18 205.209 23.2567 205.209 23.39V24.62C205.209 24.7533 205.225 24.8333 205.259 24.86C205.292 24.88 205.412 24.89 205.619 24.89ZM213.454 28.1C212.781 28.1 212.228 27.9933 211.794 27.78C211.361 27.5667 211.041 27.26 210.834 26.86C210.628 26.4533 210.524 25.97 210.524 25.41V22.59C210.524 22.3767 210.501 22.2267 210.454 22.14C210.414 22.0467 210.371 22 210.324 22H212.244C212.198 22.0067 212.151 22.0533 212.104 22.14C212.064 22.2267 212.044 22.3767 212.044 22.59V25.39C212.044 25.8167 212.104 26.1467 212.224 26.38C212.344 26.6133 212.511 26.7733 212.724 26.86C212.938 26.9467 213.184 26.99 213.464 26.99H213.574C213.794 26.99 213.988 26.9667 214.154 26.92C214.328 26.8733 214.471 26.7933 214.584 26.68C214.704 26.5667 214.794 26.4067 214.854 26.2C214.921 25.9867 214.954 25.7167 214.954 25.39V22.59C214.954 22.3767 214.931 22.2267 214.884 22.14C214.844 22.0467 214.801 22 214.754 22H216.674C216.628 22.0067 216.581 22.0567 216.534 22.15C216.494 22.2367 216.474 22.3867 216.474 22.6V25.41C216.474 25.97 216.368 26.4533 216.154 26.86C215.948 27.26 215.628 27.5667 215.194 27.78C214.768 27.9933 214.221 28.1 213.554 28.1H213.454ZM217.678 28C217.724 28 217.768 27.9567 217.808 27.87C217.854 27.7767 217.878 27.62 217.878 27.4V22.6C217.878 22.3867 217.854 22.2333 217.808 22.14C217.768 22.0467 217.724 22 217.678 22H219.608C219.561 22 219.514 22.0467 219.468 22.14C219.421 22.2267 219.398 22.3833 219.398 22.61V27.4C219.398 27.6133 219.421 27.7667 219.468 27.86C219.514 27.9533 219.561 28 219.608 28H217.678ZM222.527 28C222.574 28 222.621 27.9533 222.667 27.86C222.714 27.7667 222.737 27.6133 222.737 27.4V23.4C222.737 23.2533 222.721 23.1667 222.687 23.14C222.654 23.1133 222.537 23.1 222.337 23.1H221.607C221.221 23.1 220.907 23.1433 220.667 23.23C220.434 23.31 220.281 23.3867 220.207 23.46L220.407 22.3V22H226.607V22.3L226.807 23.46C226.734 23.3867 226.577 23.31 226.337 23.23C226.104 23.1433 225.794 23.1 225.407 23.1H224.687C224.481 23.1 224.361 23.1133 224.327 23.14C224.294 23.1667 224.277 23.2533 224.277 23.4V27.4C224.277 27.6133 224.301 27.7667 224.347 27.86C224.394 27.9533 224.441 28 224.487 28H222.527ZM227.511 28.1C227.265 28.1 227.068 28.05 226.921 27.95C226.775 27.85 226.701 27.6833 226.701 27.45C226.701 27.2167 226.771 27.05 226.911 26.95C227.058 26.85 227.258 26.8 227.511 26.8C227.765 26.8 227.961 26.85 228.101 26.95C228.248 27.05 228.321 27.2167 228.321 27.45C228.321 27.6833 228.248 27.85 228.101 27.95C227.961 28.05 227.765 28.1 227.511 28.1ZM231.201 28C231.234 28 231.284 27.9533 231.351 27.86C231.424 27.7667 231.507 27.61 231.601 27.39C231.647 27.29 231.721 27.12 231.821 26.88C231.927 26.6333 232.047 26.35 232.181 26.03C232.321 25.7033 232.464 25.3633 232.611 25.01C232.764 24.6567 232.907 24.3167 233.041 23.99C233.181 23.6633 233.301 23.3767 233.401 23.13C233.507 22.8833 233.581 22.7067 233.621 22.6C233.707 22.3867 233.754 22.2333 233.761 22.14C233.767 22.0467 233.754 22 233.721 22H235.901C235.874 22 235.864 22.0467 235.871 22.14C235.877 22.2267 235.924 22.38 236.011 22.6C236.051 22.7067 236.121 22.8833 236.221 23.13C236.321 23.37 236.437 23.6533 236.571 23.98C236.704 24.3 236.844 24.6367 236.991 24.99C237.137 25.3433 237.277 25.6833 237.411 26.01C237.544 26.33 237.664 26.6133 237.771 26.86C237.877 27.1067 237.954 27.2833 238.001 27.39C238.101 27.61 238.197 27.7667 238.291 27.86C238.384 27.9533 238.454 28 238.501 28H236.231C236.284 27.9933 236.327 27.9433 236.361 27.85C236.401 27.75 236.401 27.5967 236.361 27.39C236.354 27.3433 236.347 27.3067 236.341 27.28C236.334 27.2467 236.321 27.2 236.301 27.14C236.274 27.04 236.244 26.97 236.211 26.93C236.177 26.8833 236.121 26.8567 236.041 26.85C235.967 26.8433 235.844 26.84 235.671 26.84H233.951C233.771 26.84 233.637 26.8467 233.551 26.86C233.464 26.8667 233.404 26.89 233.371 26.93C233.337 26.97 233.311 27.0367 233.291 27.13C233.284 27.1633 233.274 27.2067 233.261 27.26C233.254 27.3133 233.247 27.3567 233.241 27.39C233.194 27.6033 233.181 27.7567 233.201 27.85C233.227 27.9433 233.261 27.9933 233.301 28H231.201ZM234.211 25.74H235.381C235.574 25.74 235.681 25.7233 235.701 25.69C235.721 25.6567 235.711 25.5833 235.671 25.47C235.584 25.2567 235.497 25.04 235.411 24.82C235.324 24.5933 235.241 24.3733 235.161 24.16C235.087 23.9467 235.021 23.75 234.961 23.57C234.907 23.3833 234.861 23.2267 234.821 23.1H234.801C234.707 23.3467 234.611 23.6067 234.511 23.88C234.411 24.1533 234.317 24.4067 234.231 24.64C234.144 24.8733 234.074 25.0667 234.021 25.22C233.967 25.3667 233.941 25.44 233.941 25.44C233.894 25.5467 233.877 25.6233 233.891 25.67C233.904 25.7167 234.011 25.74 234.211 25.74ZM239.025 28C239.072 28 239.119 27.9533 239.165 27.86C239.212 27.7667 239.235 27.6133 239.235 27.4V21.7C239.235 21.4867 239.212 21.3333 239.165 21.24C239.125 21.1467 239.082 21.1 239.035 21.1C239.475 21.1 239.832 21.08 240.105 21.04C240.385 20.9933 240.569 20.9467 240.655 20.9V27.4C240.655 27.6133 240.675 27.7667 240.715 27.86C240.762 27.9533 240.809 28 240.855 28H239.025ZM241.857 28C241.904 28 241.951 27.9533 241.997 27.86C242.044 27.7667 242.067 27.6133 242.067 27.4V21.7C242.067 21.4867 242.044 21.3333 241.997 21.24C241.957 21.1467 241.914 21.1 241.867 21.1C242.307 21.1 242.664 21.08 242.937 21.04C243.217 20.9933 243.401 20.9467 243.487 20.9V27.4C243.487 27.6133 243.507 27.7667 243.547 27.86C243.594 27.9533 243.641 28 243.687 28H241.857ZM247.032 28C247.078 28 247.122 27.9533 247.162 27.86C247.208 27.7667 247.232 27.6133 247.232 27.4V24.02C247.232 23.8067 247.208 23.6567 247.162 23.57C247.122 23.4767 247.078 23.4267 247.032 23.42C247.325 23.42 247.625 23.4 247.932 23.36C248.238 23.3133 248.478 23.2667 248.652 23.22V23.62L248.632 23.79L248.652 23.81C248.698 23.7367 248.772 23.6567 248.872 23.57C248.978 23.4767 249.112 23.3967 249.272 23.33C249.438 23.2567 249.632 23.22 249.852 23.22C250.178 23.22 250.468 23.2667 250.722 23.36C250.975 23.4467 251.155 23.5367 251.262 23.63L250.962 24.97V25.27C250.862 25.13 250.725 24.9867 250.552 24.84C250.385 24.6933 250.198 24.57 249.992 24.47C249.792 24.37 249.585 24.32 249.372 24.32C249.132 24.32 248.952 24.4067 248.832 24.58C248.712 24.7533 248.652 25.0267 248.652 25.4V27.4C248.652 27.6133 248.672 27.7667 248.712 27.86C248.758 27.9533 248.805 28 248.852 28H247.032ZM251.905 28C251.952 28 251.998 27.9533 252.045 27.86C252.092 27.7667 252.115 27.6133 252.115 27.4V23.92C252.115 23.7067 252.092 23.5533 252.045 23.46C252.005 23.3667 251.962 23.32 251.915 23.32H253.535V27.4C253.535 27.6133 253.555 27.7667 253.595 27.86C253.642 27.9533 253.688 28 253.735 28H251.905ZM252.715 22.56C252.468 22.56 252.272 22.4933 252.125 22.36C251.978 22.2267 251.905 22.0433 251.905 21.81C251.905 21.5767 251.975 21.3933 252.115 21.26C252.262 21.1267 252.462 21.06 252.715 21.06C252.968 21.06 253.165 21.1267 253.305 21.26C253.452 21.3933 253.525 21.5767 253.525 21.81C253.525 22.0433 253.452 22.2267 253.305 22.36C253.165 22.4933 252.968 22.56 252.715 22.56ZM257.049 30.44C256.663 30.44 256.306 30.4133 255.979 30.36C255.659 30.3067 255.379 30.24 255.139 30.16C254.906 30.0867 254.726 30.0133 254.599 29.94L254.799 28.44V28.15C254.893 28.33 255.039 28.52 255.239 28.72C255.439 28.92 255.689 29.09 255.989 29.23C256.289 29.37 256.629 29.44 257.009 29.44C257.256 29.44 257.463 29.3867 257.629 29.28C257.796 29.18 257.923 29.0233 258.009 28.81C258.096 28.5967 258.139 28.3333 258.139 28.02V27.86L258.159 27.68L258.139 27.66C258.046 27.76 257.919 27.8433 257.759 27.91C257.606 27.97 257.436 28.0167 257.249 28.05C257.069 28.0833 256.889 28.1 256.709 28.1C256.169 28.1 255.736 27.9933 255.409 27.78C255.089 27.5667 254.856 27.2767 254.709 26.91C254.569 26.5433 254.499 26.13 254.499 25.67C254.499 25.2033 254.569 24.7867 254.709 24.42C254.849 24.0533 255.079 23.7633 255.399 23.55C255.726 23.33 256.163 23.22 256.709 23.22C256.896 23.22 257.079 23.2333 257.259 23.26C257.439 23.2867 257.606 23.3267 257.759 23.38C257.913 23.4267 258.039 23.4933 258.139 23.58L258.159 23.57L258.139 23.38V23.32H259.759C259.713 23.3267 259.666 23.3767 259.619 23.47C259.579 23.5633 259.559 23.72 259.559 23.94V27.77C259.559 28.7367 259.353 29.4233 258.939 29.83C258.533 30.2367 257.903 30.44 257.049 30.44ZM256.979 27.09C257.213 27.09 257.416 27.05 257.589 26.97C257.763 26.89 257.896 26.7467 257.989 26.54C258.089 26.3333 258.139 26.0433 258.139 25.67C258.139 25.3033 258.089 25.0167 257.989 24.81C257.896 24.5967 257.763 24.4467 257.589 24.36C257.416 24.2667 257.213 24.22 256.979 24.22C256.759 24.22 256.569 24.2667 256.409 24.36C256.249 24.4533 256.126 24.6067 256.039 24.82C255.953 25.0333 255.909 25.32 255.909 25.68C255.909 26.0333 255.949 26.3133 256.029 26.52C256.116 26.7267 256.239 26.8733 256.399 26.96C256.559 27.0467 256.753 27.09 256.979 27.09ZM260.704 28C260.75 28 260.794 27.9533 260.834 27.86C260.88 27.7667 260.904 27.6133 260.904 27.4V21.7C260.904 21.4867 260.88 21.3367 260.834 21.25C260.794 21.1567 260.75 21.1067 260.704 21.1H262.324V23.83L262.304 23.96L262.324 23.98C262.344 23.9333 262.407 23.85 262.514 23.73C262.62 23.61 262.774 23.4967 262.974 23.39C263.174 23.2767 263.42 23.22 263.714 23.22C264.334 23.22 264.807 23.3967 265.134 23.75C265.467 24.1033 265.634 24.6567 265.634 25.41V27.4C265.634 27.6133 265.654 27.7667 265.694 27.86C265.74 27.9533 265.787 28 265.834 28H264.014C264.06 28 264.104 27.9533 264.144 27.86C264.19 27.7667 264.214 27.6133 264.214 27.4V25.44C264.214 25.1267 264.18 24.8833 264.114 24.71C264.047 24.53 263.954 24.4033 263.834 24.33C263.72 24.2567 263.587 24.22 263.434 24.22C263.247 24.22 263.067 24.2667 262.894 24.36C262.727 24.4467 262.59 24.5867 262.484 24.78C262.377 24.9667 262.324 25.2167 262.324 25.53V27.4C262.324 27.6133 262.344 27.7667 262.384 27.86C262.43 27.9533 262.477 28 262.524 28H260.704ZM268.621 28.1C268.161 28.1 267.828 28.0033 267.621 27.81C267.414 27.61 267.311 27.2867 267.311 26.84V24.32H266.411V23.32C266.718 23.32 266.958 23.2833 267.131 23.21C267.304 23.13 267.428 22.9933 267.501 22.8C267.574 22.6067 267.611 22.3367 267.611 21.99H268.731V23.32H270.441C270.394 23.4533 270.348 23.62 270.301 23.82C270.261 24.0133 270.241 24.18 270.241 24.32H268.731V26.29C268.731 26.5967 268.754 26.8067 268.801 26.92C268.848 27.0333 268.958 27.09 269.131 27.09C269.244 27.09 269.368 27.05 269.501 26.97C269.641 26.89 269.774 26.7933 269.901 26.68C270.034 26.56 270.144 26.4467 270.231 26.34V26.65L270.331 27.62C270.251 27.6867 270.131 27.76 269.971 27.84C269.811 27.9133 269.614 27.9733 269.381 28.02C269.154 28.0733 268.901 28.1 268.621 28.1ZM273.487 28.1C272.894 28.1 272.394 28.0667 271.987 28C271.58 27.9333 271.3 27.8667 271.147 27.8V27.5L270.937 26.52C271.11 26.6467 271.434 26.7733 271.907 26.9C272.38 27.0267 272.96 27.09 273.647 27.09C273.854 27.09 274.017 27.0767 274.137 27.05C274.264 27.0233 274.354 26.98 274.407 26.92C274.46 26.86 274.487 26.7833 274.487 26.69C274.487 26.5767 274.444 26.49 274.357 26.43C274.277 26.37 274.13 26.3233 273.917 26.29C273.704 26.25 273.394 26.2033 272.987 26.15C272.474 26.0833 272.067 25.99 271.767 25.87C271.467 25.7433 271.254 25.5833 271.127 25.39C271.007 25.19 270.947 24.9467 270.947 24.66C270.947 24.3933 271.01 24.1533 271.137 23.94C271.27 23.72 271.497 23.5467 271.817 23.42C272.144 23.2867 272.597 23.22 273.177 23.22C273.724 23.22 274.204 23.2533 274.617 23.32C275.03 23.3867 275.327 23.4533 275.507 23.52V23.82L275.707 24.7C275.554 24.6 275.254 24.4967 274.807 24.39C274.36 24.2833 273.794 24.23 273.107 24.23C272.84 24.23 272.65 24.2567 272.537 24.31C272.424 24.3633 272.367 24.4567 272.367 24.59C272.367 24.6567 272.384 24.7133 272.417 24.76C272.457 24.8067 272.53 24.85 272.637 24.89C272.744 24.93 272.897 24.97 273.097 25.01C273.297 25.0433 273.56 25.08 273.887 25.12C274.454 25.1933 274.88 25.2967 275.167 25.43C275.454 25.5567 275.647 25.7167 275.747 25.91C275.847 26.0967 275.897 26.3233 275.897 26.59C275.897 26.93 275.81 27.2133 275.637 27.44C275.47 27.66 275.207 27.8267 274.847 27.94C274.494 28.0467 274.04 28.1 273.487 28.1ZM279.024 28C279.071 28 279.114 27.9533 279.154 27.86C279.201 27.7667 279.224 27.6133 279.224 27.4V24.02C279.224 23.8067 279.201 23.6567 279.154 23.57C279.114 23.4767 279.071 23.4267 279.024 23.42C279.317 23.42 279.617 23.4 279.924 23.36C280.231 23.3133 280.471 23.2667 280.644 23.22V23.62L280.624 23.79L280.644 23.81C280.691 23.7367 280.764 23.6567 280.864 23.57C280.971 23.4767 281.104 23.3967 281.264 23.33C281.431 23.2567 281.624 23.22 281.844 23.22C282.171 23.22 282.461 23.2667 282.714 23.36C282.967 23.4467 283.147 23.5367 283.254 23.63L282.954 24.97V25.27C282.854 25.13 282.717 24.9867 282.544 24.84C282.377 24.6933 282.191 24.57 281.984 24.47C281.784 24.37 281.577 24.32 281.364 24.32C281.124 24.32 280.944 24.4067 280.824 24.58C280.704 24.7533 280.644 25.0267 280.644 25.4V27.4C280.644 27.6133 280.664 27.7667 280.704 27.86C280.751 27.9533 280.797 28 280.844 28H279.024ZM286.174 28.1C285.648 28.1 285.208 28.0467 284.854 27.94C284.508 27.8267 284.231 27.6667 284.024 27.46C283.818 27.2467 283.671 26.99 283.584 26.69C283.498 26.39 283.454 26.05 283.454 25.67C283.454 24.9167 283.664 24.32 284.084 23.88C284.504 23.44 285.148 23.22 286.014 23.22C286.521 23.22 286.931 23.29 287.244 23.43C287.564 23.57 287.808 23.7567 287.974 23.99C288.141 24.2233 288.254 24.4833 288.314 24.77C288.381 25.05 288.414 25.3333 288.414 25.62V26.09C288.414 26.07 288.321 26.05 288.134 26.03C287.954 26.0033 287.648 25.99 287.214 25.99H284.894C284.894 26.3567 285.004 26.6333 285.224 26.82C285.451 27 285.818 27.09 286.324 27.09C286.751 27.09 287.131 27.04 287.464 26.94C287.804 26.8333 288.051 26.7333 288.204 26.64V26.94L288.304 27.7C288.178 27.7867 287.934 27.8767 287.574 27.97C287.214 28.0567 286.748 28.1 286.174 28.1ZM285.264 25.13H286.994C286.994 24.9833 286.961 24.84 286.894 24.7C286.834 24.56 286.734 24.4467 286.594 24.36C286.454 24.2667 286.261 24.22 286.014 24.22C285.768 24.22 285.568 24.2567 285.414 24.33C285.268 24.4033 285.158 24.4933 285.084 24.6C285.018 24.7067 284.984 24.8167 284.984 24.93C284.984 24.9967 285.004 25.0467 285.044 25.08C285.084 25.1133 285.158 25.13 285.264 25.13ZM291.768 28.1C291.175 28.1 290.675 28.0667 290.268 28C289.862 27.9333 289.582 27.8667 289.428 27.8V27.5L289.218 26.52C289.392 26.6467 289.715 26.7733 290.188 26.9C290.662 27.0267 291.242 27.09 291.928 27.09C292.135 27.09 292.298 27.0767 292.418 27.05C292.545 27.0233 292.635 26.98 292.688 26.92C292.742 26.86 292.768 26.7833 292.768 26.69C292.768 26.5767 292.725 26.49 292.638 26.43C292.558 26.37 292.412 26.3233 292.198 26.29C291.985 26.25 291.675 26.2033 291.268 26.15C290.755 26.0833 290.348 25.99 290.048 25.87C289.748 25.7433 289.535 25.5833 289.408 25.39C289.288 25.19 289.228 24.9467 289.228 24.66C289.228 24.3933 289.292 24.1533 289.418 23.94C289.552 23.72 289.778 23.5467 290.098 23.42C290.425 23.2867 290.878 23.22 291.458 23.22C292.005 23.22 292.485 23.2533 292.898 23.32C293.312 23.3867 293.608 23.4533 293.788 23.52V23.82L293.988 24.7C293.835 24.6 293.535 24.4967 293.088 24.39C292.642 24.2833 292.075 24.23 291.388 24.23C291.122 24.23 290.932 24.2567 290.818 24.31C290.705 24.3633 290.648 24.4567 290.648 24.59C290.648 24.6567 290.665 24.7133 290.698 24.76C290.738 24.8067 290.812 24.85 290.918 24.89C291.025 24.93 291.178 24.97 291.378 25.01C291.578 25.0433 291.842 25.08 292.168 25.12C292.735 25.1933 293.162 25.2967 293.448 25.43C293.735 25.5567 293.928 25.7167 294.028 25.91C294.128 26.0967 294.178 26.3233 294.178 26.59C294.178 26.93 294.092 27.2133 293.918 27.44C293.752 27.66 293.488 27.8267 293.128 27.94C292.775 28.0467 292.322 28.1 291.768 28.1ZM297.483 28.1C296.956 28.1 296.516 28.0467 296.163 27.94C295.816 27.8267 295.54 27.6667 295.333 27.46C295.126 27.2467 294.98 26.99 294.893 26.69C294.806 26.39 294.763 26.05 294.763 25.67C294.763 24.9167 294.973 24.32 295.393 23.88C295.813 23.44 296.456 23.22 297.323 23.22C297.83 23.22 298.24 23.29 298.553 23.43C298.873 23.57 299.116 23.7567 299.283 23.99C299.45 24.2233 299.563 24.4833 299.623 24.77C299.69 25.05 299.723 25.3333 299.723 25.62V26.09C299.723 26.07 299.63 26.05 299.443 26.03C299.263 26.0033 298.956 25.99 298.523 25.99H296.203C296.203 26.3567 296.313 26.6333 296.533 26.82C296.76 27 297.126 27.09 297.633 27.09C298.06 27.09 298.44 27.04 298.773 26.94C299.113 26.8333 299.36 26.7333 299.513 26.64V26.94L299.613 27.7C299.486 27.7867 299.243 27.8767 298.883 27.97C298.523 28.0567 298.056 28.1 297.483 28.1ZM296.573 25.13H298.303C298.303 24.9833 298.27 24.84 298.203 24.7C298.143 24.56 298.043 24.4467 297.903 24.36C297.763 24.2667 297.57 24.22 297.323 24.22C297.076 24.22 296.876 24.2567 296.723 24.33C296.576 24.4033 296.466 24.4933 296.393 24.6C296.326 24.7067 296.293 24.8167 296.293 24.93C296.293 24.9967 296.313 25.0467 296.353 25.08C296.393 25.1133 296.466 25.13 296.573 25.13ZM300.567 28C300.614 28 300.657 27.9533 300.697 27.86C300.744 27.7667 300.767 27.6133 300.767 27.4V24.02C300.767 23.8067 300.744 23.6567 300.697 23.57C300.657 23.4767 300.614 23.4267 300.567 23.42C300.86 23.42 301.16 23.4 301.467 23.36C301.774 23.3133 302.014 23.2667 302.187 23.22V23.62L302.167 23.79L302.187 23.81C302.234 23.7367 302.307 23.6567 302.407 23.57C302.514 23.4767 302.647 23.3967 302.807 23.33C302.974 23.2567 303.167 23.22 303.387 23.22C303.714 23.22 304.004 23.2667 304.257 23.36C304.51 23.4467 304.69 23.5367 304.797 23.63L304.497 24.97V25.27C304.397 25.13 304.26 24.9867 304.087 24.84C303.92 24.6933 303.734 24.57 303.527 24.47C303.327 24.37 303.12 24.32 302.907 24.32C302.667 24.32 302.487 24.4067 302.367 24.58C302.247 24.7533 302.187 25.0267 302.187 25.4V27.4C302.187 27.6133 302.207 27.7667 302.247 27.86C302.294 27.9533 302.34 28 302.387 28H300.567ZM306.84 28C306.887 28 306.917 27.9567 306.93 27.87C306.95 27.7767 306.92 27.62 306.84 27.4C306.813 27.3133 306.753 27.16 306.66 26.94C306.573 26.72 306.47 26.4667 306.35 26.18C306.23 25.8933 306.107 25.6033 305.98 25.31C305.86 25.01 305.747 24.74 305.64 24.5C305.54 24.2533 305.463 24.0667 305.41 23.94C305.317 23.7133 305.22 23.5533 305.12 23.46C305.027 23.3667 304.953 23.32 304.9 23.32H306.93C306.883 23.32 306.853 23.3667 306.84 23.46C306.827 23.5533 306.857 23.7133 306.93 23.94C306.97 24.0533 307.027 24.2267 307.1 24.46C307.18 24.6933 307.27 24.96 307.37 25.26C307.47 25.5533 307.57 25.8533 307.67 26.16C307.777 26.4667 307.873 26.75 307.96 27.01H307.97C308.057 26.75 308.143 26.4933 308.23 26.24C308.317 25.98 308.403 25.7233 308.49 25.47C308.577 25.21 308.663 24.9533 308.75 24.7C308.837 24.44 308.923 24.18 309.01 23.92C309.083 23.7067 309.113 23.5533 309.1 23.46C309.087 23.3667 309.057 23.32 309.01 23.32H311C310.953 23.32 310.887 23.3667 310.8 23.46C310.713 23.5467 310.623 23.6967 310.53 23.91C310.483 24.03 310.41 24.21 310.31 24.45C310.21 24.6833 310.097 24.9467 309.97 25.24C309.85 25.5267 309.727 25.8133 309.6 26.1C309.48 26.3867 309.373 26.6467 309.28 26.88C309.187 27.1133 309.12 27.2867 309.08 27.4C309.007 27.6267 308.977 27.7833 308.99 27.87C309.003 27.9567 309.033 28 309.08 28H306.84ZM313.616 28.1C313.089 28.1 312.649 28.0467 312.296 27.94C311.949 27.8267 311.672 27.6667 311.466 27.46C311.259 27.2467 311.112 26.99 311.026 26.69C310.939 26.39 310.896 26.05 310.896 25.67C310.896 24.9167 311.106 24.32 311.526 23.88C311.946 23.44 312.589 23.22 313.456 23.22C313.962 23.22 314.372 23.29 314.686 23.43C315.006 23.57 315.249 23.7567 315.416 23.99C315.582 24.2233 315.696 24.4833 315.756 24.77C315.822 25.05 315.856 25.3333 315.856 25.62V26.09C315.856 26.07 315.762 26.05 315.576 26.03C315.396 26.0033 315.089 25.99 314.656 25.99H312.336C312.336 26.3567 312.446 26.6333 312.666 26.82C312.892 27 313.259 27.09 313.766 27.09C314.192 27.09 314.572 27.04 314.906 26.94C315.246 26.8333 315.492 26.7333 315.646 26.64V26.94L315.746 27.7C315.619 27.7867 315.376 27.8767 315.016 27.97C314.656 28.0567 314.189 28.1 313.616 28.1ZM312.706 25.13H314.436C314.436 24.9833 314.402 24.84 314.336 24.7C314.276 24.56 314.176 24.4467 314.036 24.36C313.896 24.2667 313.702 24.22 313.456 24.22C313.209 24.22 313.009 24.2567 312.856 24.33C312.709 24.4033 312.599 24.4933 312.526 24.6C312.459 24.7067 312.426 24.8167 312.426 24.93C312.426 24.9967 312.446 25.0467 312.486 25.08C312.526 25.1133 312.599 25.13 312.706 25.13ZM318.87 28.1C318.276 28.1 317.81 27.9933 317.47 27.78C317.136 27.5667 316.9 27.2767 316.76 26.91C316.626 26.5433 316.56 26.13 316.56 25.67C316.56 25.2033 316.626 24.7867 316.76 24.42C316.9 24.0533 317.136 23.7633 317.47 23.55C317.81 23.33 318.276 23.22 318.87 23.22C319.07 23.22 319.25 23.2367 319.41 23.27C319.576 23.3033 319.723 23.35 319.85 23.41C319.983 23.4633 320.1 23.5333 320.2 23.62L320.22 23.61L320.2 23.42V21.7C320.2 21.4867 320.176 21.3367 320.13 21.25C320.09 21.1567 320.046 21.1067 320 21.1H321.62V27.4C321.62 27.6133 321.64 27.7667 321.68 27.86C321.726 27.9533 321.773 28 321.82 28H320.2V27.87L320.23 27.68L320.2 27.67C320.1 27.7567 319.983 27.8333 319.85 27.9C319.716 27.96 319.566 28.0067 319.4 28.04C319.24 28.08 319.063 28.1 318.87 28.1ZM319.04 27.09C319.26 27.09 319.443 27.0567 319.59 26.99C319.743 26.9233 319.863 26.83 319.95 26.71C320.043 26.5833 320.106 26.4333 320.14 26.26C320.18 26.08 320.2 25.8833 320.2 25.67C320.2 25.4567 320.18 25.2633 320.14 25.09C320.1 24.91 320.036 24.7567 319.95 24.63C319.863 24.4967 319.743 24.3967 319.59 24.33C319.443 24.2567 319.26 24.22 319.04 24.22C318.72 24.22 318.46 24.33 318.26 24.55C318.066 24.77 317.97 25.1467 317.97 25.68C317.97 26.0333 318.013 26.3133 318.1 26.52C318.186 26.7267 318.31 26.8733 318.47 26.96C318.63 27.0467 318.82 27.09 319.04 27.09ZM323.634 28.1C323.388 28.1 323.191 28.05 323.044 27.95C322.898 27.85 322.824 27.6833 322.824 27.45C322.824 27.2167 322.894 27.05 323.034 26.95C323.181 26.85 323.381 26.8 323.634 26.8C323.888 26.8 324.084 26.85 324.224 26.95C324.371 27.05 324.444 27.2167 324.444 27.45C324.444 27.6833 324.371 27.85 324.224 27.95C324.084 28.05 323.888 28.1 323.634 28.1Z" fill="white"/>
</svg>
