<svg width="247" height="81" viewBox="0 0 247 81" fill="none" xmlns="http://www.w3.org/2000/svg">
<rect x="1.5" y="1.5" width="244" height="57" rx="28.5" fill="#005794"/>
<rect x="1.5" y="1.5" width="244" height="57" rx="28.5" stroke="url(#paint0_linear_499_187)" stroke-width="3"/>
<path d="M33.8202 16.4494C33.7839 16.7219 33.7475 17.0309 33.7112 17.3761C33.693 17.7032 33.6748 18.0394 33.6567 18.3846C33.6385 18.748 33.6203 19.2386 33.6021 19.8565C33.584 20.4561 33.5749 21.1194 33.5749 21.8462C33.5749 22.573 33.5749 23.2908 33.5749 23.9995C33.5749 24.7081 33.5749 25.3532 33.5749 25.9347C33.5749 26.6979 33.5931 27.5519 33.6294 28.4968C33.6657 29.4235 33.7112 30.3684 33.7657 31.3315C33.8384 32.2764 33.8929 33.1668 33.9292 34.0027C33.9837 34.8204 34.011 35.5018 34.011 36.0469C34.011 36.8101 33.8111 37.5097 33.4113 38.1457C33.0116 38.7635 32.4119 39.2541 31.6124 39.6175C30.831 39.9809 29.8407 40.1627 28.6414 40.1627C26.4609 40.1627 24.8073 39.7629 23.6807 38.9634C22.5541 38.1638 21.9908 37.0463 21.9908 35.6108C21.9908 34.6841 22.2543 33.8755 22.7813 33.185C23.3264 32.4763 24.0987 31.9221 25.0981 31.5223C26.1157 31.1225 27.324 30.9227 28.7232 30.9227C30.2132 30.9227 31.6033 31.0862 32.8935 31.4133C34.2018 31.7222 35.392 32.131 36.4641 32.6398C37.5362 33.1486 38.4902 33.6847 39.326 34.248C40.1619 34.8113 40.8706 35.3201 41.4521 35.7743L39.4896 38.8271C38.8354 38.2093 38.0995 37.6005 37.2818 37.0009C36.4823 36.4012 35.601 35.8561 34.6379 35.3655C33.693 34.8749 32.6845 34.4842 31.6124 34.1935C30.5585 33.8845 29.441 33.7301 28.2598 33.7301C27.3149 33.7301 26.579 33.8936 26.0521 34.2207C25.5433 34.5478 25.2889 34.9476 25.2889 35.42C25.2889 35.7653 25.3979 36.0651 25.6159 36.3195C25.834 36.5739 26.152 36.7647 26.5699 36.8919C26.9879 37.0191 27.5148 37.0827 28.1508 37.0827C28.6414 37.0827 29.0594 37.0281 29.4046 36.9191C29.768 36.8101 30.0497 36.6102 30.2496 36.3195C30.4495 36.0287 30.5494 35.6199 30.5494 35.0929C30.5494 34.6932 30.5312 34.1208 30.4949 33.3758C30.4767 32.6307 30.4495 31.813 30.4131 30.9227C30.3768 30.0141 30.3404 29.1237 30.3041 28.2515C30.2677 27.3793 30.2496 26.607 30.2496 25.9347C30.2496 25.2805 30.2496 24.5991 30.2496 23.8904C30.2677 23.1636 30.2768 22.4458 30.2768 21.7372C30.2768 21.0285 30.2768 20.3834 30.2768 19.8019C30.295 19.2023 30.3041 18.7117 30.3041 18.3301C30.3041 18.0757 30.2859 17.7668 30.2496 17.4034C30.2314 17.0218 30.1951 16.7038 30.1405 16.4494H33.8202ZM22.5087 19.0115C22.9993 19.0842 23.5444 19.1569 24.1441 19.2296C24.7437 19.3022 25.3525 19.3749 25.9703 19.4476C26.6063 19.5021 27.2059 19.5476 27.7692 19.5839C28.3325 19.6021 28.8231 19.6112 29.2411 19.6112C31.0945 19.6112 32.9389 19.5566 34.7742 19.4476C36.6276 19.3204 38.5447 19.0933 40.5253 18.7662L40.4981 21.9007C39.5713 22.0279 38.4992 22.146 37.2818 22.255C36.0643 22.3641 34.7651 22.4549 33.3841 22.5276C32.0213 22.5821 30.6493 22.6094 29.2683 22.6094C28.705 22.6094 28.0054 22.5912 27.1696 22.5549C26.3519 22.5004 25.5342 22.4368 24.7165 22.3641C23.8988 22.2732 23.1901 22.1914 22.5905 22.1188L22.5087 19.0115ZM22.3724 24.8989C22.8085 24.9716 23.3264 25.0443 23.926 25.117C24.5257 25.1897 25.1344 25.2442 25.7522 25.2805C26.3882 25.3169 26.9879 25.3532 27.5512 25.3896C28.1145 25.4077 28.5778 25.4168 28.9413 25.4168C30.6312 25.4168 32.1575 25.3805 33.5204 25.3078C34.9014 25.2351 36.1915 25.1442 37.3908 25.0352C38.5901 24.9262 39.744 24.799 40.8524 24.6536L40.8251 27.8699C39.8803 27.9789 38.9626 28.0698 38.0722 28.1425C37.2 28.2152 36.3005 28.2788 35.3738 28.3333C34.4653 28.3878 33.484 28.4241 32.4301 28.4423C31.3762 28.4605 30.1951 28.4696 28.8867 28.4696C28.3598 28.4696 27.7056 28.4605 26.9243 28.4423C26.1429 28.406 25.3434 28.3605 24.5257 28.306C23.7262 28.2515 23.0175 28.1879 22.3997 28.1152L22.3724 24.8989ZM61.8128 16.9127C61.7946 17.0581 61.7673 17.2943 61.731 17.6214C61.6946 17.9303 61.6674 18.2483 61.6492 18.5754C61.6492 18.8843 61.6401 19.1114 61.622 19.2568C61.6038 19.6202 61.5856 20.1109 61.5674 20.7287C61.5674 21.3465 61.5674 22.0279 61.5674 22.7729C61.5674 23.5179 61.5674 24.272 61.5674 25.0352C61.5856 25.7802 61.5947 26.4889 61.5947 27.1612C61.6129 27.8154 61.622 28.3605 61.622 28.7966L58.2421 27.6246C58.2421 27.2794 58.2421 26.8251 58.2421 26.2618C58.2421 25.6985 58.2421 25.0806 58.2421 24.4083C58.2421 23.7178 58.2331 23.0364 58.2149 22.3641C58.2149 21.6917 58.2058 21.083 58.1876 20.5379C58.1695 19.9927 58.1513 19.5748 58.1331 19.2841C58.0968 18.7389 58.0513 18.2483 57.9968 17.8122C57.9423 17.3761 57.906 17.0763 57.8878 16.9127H61.8128ZM46.4128 20.3198C47.2305 20.3017 48.139 20.2926 49.1384 20.2926C50.156 20.2744 51.219 20.2562 52.3274 20.2381C53.4359 20.2017 54.5261 20.1745 55.5982 20.1563C56.6885 20.1381 57.697 20.129 58.6237 20.129C59.5686 20.1109 60.3863 20.1018 61.0768 20.1018C61.7673 20.1018 62.5214 20.1018 63.3391 20.1018C64.1568 20.0836 64.9654 20.0745 65.765 20.0745C66.5645 20.0745 67.2913 20.0745 67.9455 20.0745C68.5997 20.0745 69.1175 20.0745 69.4991 20.0745L69.4719 23.3181C68.6178 23.2817 67.4821 23.2454 66.0648 23.209C64.6656 23.1727 62.9666 23.1545 60.9678 23.1545C59.7322 23.1545 58.4784 23.1727 57.2064 23.209C55.9344 23.2272 54.6715 23.2635 53.4177 23.3181C52.1639 23.3544 50.9555 23.3998 49.7926 23.4543C48.6296 23.4907 47.5303 23.5452 46.4945 23.6179L46.4128 20.3198ZM61.1586 28.3605C61.1586 29.8506 60.9769 31.0862 60.6135 32.0674C60.2682 33.0487 59.7413 33.7937 59.0326 34.3025C58.3239 34.7931 57.4426 35.0384 56.3887 35.0384C55.8617 35.0384 55.3166 34.9385 54.7533 34.7386C54.2082 34.5205 53.6994 34.2025 53.2269 33.7846C52.7726 33.3485 52.4001 32.8215 52.1094 32.2037C51.8187 31.5859 51.6733 30.8681 51.6733 30.0504C51.6733 29.0147 51.9186 28.1152 52.4092 27.352C52.918 26.5888 53.5903 25.9983 54.4262 25.5804C55.2621 25.1442 56.1706 24.9262 57.1519 24.9262C58.3512 24.9262 59.3506 25.1988 60.1501 25.7439C60.9678 26.289 61.5856 27.0159 62.0036 27.9244C62.4215 28.833 62.6305 29.8506 62.6305 30.9772C62.6305 31.8676 62.4851 32.7943 62.1943 33.7573C61.9036 34.7204 61.413 35.6653 60.7225 36.592C60.0502 37.5188 59.1507 38.3546 58.0241 39.0996C56.9156 39.8447 55.5256 40.4534 53.8538 40.9258L50.9646 38.0094C52.1276 37.7732 53.2087 37.4642 54.2082 37.0827C55.2076 36.7011 56.0798 36.2195 56.8248 35.6381C57.588 35.0566 58.1785 34.3388 58.5965 33.4848C59.0326 32.6307 59.2506 31.6132 59.2506 30.432C59.2506 29.5417 59.0417 28.8875 58.6237 28.4696C58.2058 28.0335 57.6788 27.8154 57.0428 27.8154C56.6976 27.8154 56.3614 27.8972 56.0343 28.0607C55.7254 28.2061 55.471 28.4423 55.2712 28.7694C55.0713 29.0965 54.9713 29.4962 54.9713 29.9687C54.9713 30.6047 55.1803 31.1135 55.5982 31.495C56.0343 31.8585 56.525 32.0402 57.0701 32.0402C57.5062 32.0402 57.8969 31.9039 58.2421 31.6313C58.5874 31.3406 58.8054 30.8772 58.8963 30.2412C59.0053 29.6053 58.9145 28.7512 58.6237 27.6791L61.1586 28.3605ZM65.3289 16.095C65.6741 16.5857 66.0194 17.1308 66.3646 17.7304C66.7099 18.3119 67.0006 18.8389 67.2368 19.3113L64.9473 20.2653C64.6747 19.7202 64.384 19.175 64.0751 18.6299C63.7661 18.0666 63.4391 17.5306 63.0938 17.0218L65.3289 16.095ZM68.9813 15.3319C69.3265 15.8225 69.6718 16.3585 70.017 16.94C70.3623 17.5033 70.6621 18.0303 70.9165 18.5209L68.6269 19.4749C68.3543 18.9297 68.0545 18.3846 67.7274 17.8395C67.4185 17.2762 67.0824 16.7492 66.719 16.2586L68.9813 15.3319ZM82.7186 21.7644C83.5 21.8371 84.2813 21.9007 85.0627 21.9552C85.8622 21.9916 86.6708 22.0097 87.4885 22.0097C89.1603 22.0097 90.8229 21.9371 92.4765 21.7917C94.13 21.6463 95.6564 21.4192 97.0556 21.1103V24.5173C95.6382 24.7172 94.1028 24.8808 92.4492 25.008C90.7956 25.117 89.1421 25.1715 87.4885 25.1715C86.689 25.1715 85.8895 25.1624 85.0899 25.1442C84.3086 25.1079 83.5181 25.0625 82.7186 25.008V21.7644ZM93.0761 17.1581C93.0398 17.4124 93.0034 17.6941 92.9671 18.003C92.9489 18.3119 92.9308 18.6208 92.9126 18.9297C92.8944 19.2205 92.8762 19.6112 92.8581 20.1018C92.8399 20.5924 92.8308 21.1466 92.8308 21.7644C92.8308 22.3641 92.8308 23.0001 92.8308 23.6724C92.8308 24.908 92.849 26.071 92.8853 27.1612C92.9217 28.2333 92.9671 29.2327 93.0216 30.1595C93.0761 31.068 93.1215 31.9039 93.1579 32.6671C93.2124 33.4303 93.2397 34.1389 93.2397 34.7931C93.2397 35.5018 93.1397 36.1559 92.9398 36.7556C92.7581 37.3552 92.4583 37.8822 92.0404 38.3365C91.6224 38.7907 91.0682 39.136 90.3777 39.3722C89.7054 39.6266 88.8786 39.7538 87.8974 39.7538C86.0076 39.7538 84.5175 39.3722 83.4273 38.609C82.337 37.8458 81.7919 36.7465 81.7919 35.311C81.7919 34.3842 82.0372 33.5756 82.5278 32.8851C83.0184 32.1765 83.718 31.6313 84.6266 31.2497C85.5351 30.85 86.6072 30.6501 87.8428 30.6501C89.133 30.6501 90.305 30.7864 91.359 31.0589C92.4129 31.3315 93.3759 31.6949 94.2482 32.1492C95.1204 32.6035 95.8926 33.1032 96.565 33.6483C97.2555 34.1753 97.8733 34.6841 98.4184 35.1747L96.5377 38.0366C95.502 37.0554 94.4935 36.2104 93.5122 35.5018C92.531 34.7931 91.5497 34.248 90.5685 33.8664C89.6054 33.4848 88.606 33.294 87.5703 33.294C86.8071 33.294 86.1802 33.4394 85.6896 33.7301C85.2171 34.0208 84.9809 34.4297 84.9809 34.9566C84.9809 35.5018 85.2262 35.9015 85.7168 36.1559C86.2074 36.4103 86.8071 36.5375 87.5158 36.5375C88.0791 36.5375 88.5243 36.4467 88.8513 36.265C89.1784 36.0651 89.4056 35.7834 89.5328 35.42C89.6781 35.0384 89.7508 34.5841 89.7508 34.0572C89.7508 33.5847 89.7326 32.9669 89.6963 32.2037C89.66 31.4405 89.6145 30.5865 89.56 29.6416C89.5237 28.6967 89.4873 27.7155 89.451 26.6979C89.4146 25.6621 89.3965 24.6536 89.3965 23.6724C89.3965 22.6366 89.3874 21.7008 89.3692 20.865C89.3692 20.0109 89.3692 19.3749 89.3692 18.957C89.3692 18.7571 89.351 18.4755 89.3147 18.112C89.2784 17.7486 89.2329 17.4306 89.1784 17.1581H93.0761ZM79.7749 17.4579C79.7204 17.6396 79.6386 17.894 79.5296 18.2211C79.4387 18.5481 79.3569 18.8661 79.2843 19.175C79.2297 19.484 79.1843 19.7202 79.148 19.8837C79.0571 20.2653 78.9572 20.7832 78.8482 21.4373C78.7391 22.0733 78.621 22.8002 78.4938 23.6179C78.3848 24.4174 78.2758 25.2442 78.1667 26.0982C78.0577 26.9341 77.9759 27.7336 77.9214 28.4968C77.8669 29.2418 77.8397 29.8869 77.8397 30.432C77.8397 30.7046 77.8397 31.0044 77.8397 31.3315C77.8578 31.6404 77.8942 31.9312 77.9487 32.2037C78.0759 31.8766 78.2031 31.5586 78.3303 31.2497C78.4756 30.9408 78.621 30.6319 78.7664 30.323C78.9118 30.0141 79.048 29.7052 79.1752 29.3963L80.8379 30.7591C80.5835 31.5041 80.32 32.2855 80.0474 33.1032C79.7931 33.9209 79.5568 34.6932 79.3388 35.42C79.1389 36.1468 78.9844 36.7556 78.8754 37.2462C78.8391 37.4279 78.8027 37.646 78.7664 37.9004C78.7482 38.1547 78.7391 38.3637 78.7391 38.5273C78.7391 38.6726 78.7391 38.8453 78.7391 39.0451C78.7573 39.2632 78.7755 39.4631 78.7936 39.6448L75.7136 39.8901C75.4229 38.927 75.1685 37.7005 74.9505 36.2104C74.7324 34.7022 74.6234 33.0214 74.6234 31.168C74.6234 30.1504 74.6688 29.0874 74.7597 27.9789C74.8505 26.8523 74.9505 25.7712 75.0595 24.7354C75.1867 23.6996 75.3139 22.7547 75.4411 21.9007C75.5683 21.0285 75.6682 20.3289 75.7409 19.8019C75.7954 19.4204 75.8499 18.9933 75.9044 18.5209C75.959 18.0303 75.9953 17.5669 76.0135 17.1308L79.7749 17.4579ZM112.183 29.9414H124.748V40.8441H121.505V32.8579H115.29V40.9531H112.183V29.9414ZM122.84 15.6317L125.13 18.3301C123.894 18.6935 122.541 19.0115 121.069 19.2841C119.597 19.5566 118.089 19.7838 116.544 19.9655C115.018 20.129 113.537 20.2653 112.101 20.3743C112.047 19.9746 111.929 19.5112 111.747 18.9842C111.565 18.4391 111.383 17.9848 111.202 17.6214C112.238 17.5306 113.282 17.4215 114.336 17.2943C115.408 17.1671 116.453 17.0218 117.471 16.8582C118.507 16.6765 119.479 16.4857 120.387 16.2858C121.296 16.0678 122.114 15.8497 122.84 15.6317ZM116.626 18.1938H120.006V31.4133H116.626V18.1938ZM110.766 23.2363H125.893V26.3435H110.766V23.2363ZM114.282 36.7011H123.058V39.6175H114.282V36.7011ZM101.444 23.8904H109.675V26.3708H101.444V23.8904ZM101.607 16.2041H109.675V18.6572H101.607V16.2041ZM101.444 27.7064H109.675V30.1867H101.444V27.7064ZM100.136 19.9655H110.548V22.5549H100.136V19.9655ZM103.079 31.5768H109.812V39.8628H103.079V37.2735H107.004V34.1662H103.079V31.5768ZM101.362 31.5768H104.115V40.9258H101.362V31.5768ZM139.821 16.6402C139.73 17.1308 139.585 17.7668 139.385 18.5481C139.185 19.3295 138.895 20.2108 138.513 21.192C138.222 21.8644 137.886 22.564 137.504 23.2908C137.141 23.9995 136.769 24.6355 136.387 25.1988C136.623 25.0897 136.923 24.9989 137.286 24.9262C137.65 24.8353 138.022 24.7717 138.404 24.7354C138.804 24.6809 139.158 24.6536 139.467 24.6536C140.612 24.6536 141.557 24.9807 142.302 25.6349C143.065 26.289 143.446 27.2612 143.446 28.5513C143.446 28.9147 143.446 29.3599 143.446 29.8869C143.465 30.4139 143.483 30.9681 143.501 31.5496C143.519 32.1129 143.537 32.6671 143.555 33.2122C143.574 33.7573 143.583 34.248 143.583 34.6841H140.312C140.348 34.3752 140.366 34.0117 140.366 33.5938C140.385 33.1577 140.394 32.7034 140.394 32.231C140.412 31.7585 140.421 31.3042 140.421 30.8681C140.439 30.4139 140.448 30.005 140.448 29.6416C140.448 28.7694 140.212 28.1697 139.739 27.8427C139.285 27.4974 138.776 27.3248 138.213 27.3248C137.45 27.3248 136.678 27.5156 135.896 27.8972C135.133 28.2606 134.488 28.6967 133.961 29.2055C133.561 29.6053 133.152 30.0504 132.735 30.5411C132.335 31.0317 131.899 31.5859 131.426 32.2037L128.51 30.0232C129.691 28.9329 130.708 27.879 131.562 26.8614C132.435 25.8438 133.171 24.8353 133.77 23.8359C134.37 22.8365 134.861 21.8371 135.242 20.8377C135.515 20.1109 135.733 19.3568 135.896 18.5754C136.078 17.7759 136.187 17.0309 136.223 16.3404L139.821 16.6402ZM129.573 19.1478C130.263 19.2568 131.063 19.3386 131.971 19.3931C132.88 19.4476 133.679 19.4749 134.37 19.4749C135.569 19.4749 136.878 19.4476 138.295 19.3931C139.73 19.3386 141.184 19.2477 142.656 19.1205C144.128 18.9752 145.527 18.7935 146.853 18.5754L146.826 21.7372C145.863 21.8644 144.818 21.9825 143.692 22.0915C142.583 22.1824 141.448 22.2641 140.285 22.3368C139.14 22.3913 138.04 22.4368 136.987 22.4731C135.933 22.4913 134.997 22.5004 134.179 22.5004C133.816 22.5004 133.361 22.5004 132.816 22.5004C132.289 22.4822 131.744 22.464 131.181 22.4458C130.618 22.4095 130.082 22.3732 129.573 22.3368V19.1478ZM151.16 26.8887C150.869 26.9795 150.524 27.0976 150.124 27.243C149.743 27.3702 149.352 27.5065 148.952 27.6519C148.571 27.7791 148.225 27.9063 147.916 28.0335C147.044 28.3787 146.009 28.7966 144.809 29.2873C143.628 29.7779 142.392 30.3503 141.102 31.0044C140.285 31.4405 139.594 31.8676 139.031 32.2855C138.468 32.7034 138.04 33.1304 137.75 33.5665C137.459 33.9845 137.314 34.4478 137.314 34.9566C137.314 35.3382 137.395 35.6562 137.559 35.9106C137.722 36.1468 137.968 36.3376 138.295 36.483C138.622 36.6284 139.031 36.7283 139.521 36.7828C140.012 36.8373 140.594 36.8646 141.266 36.8646C142.429 36.8646 143.71 36.801 145.109 36.6738C146.508 36.5284 147.807 36.3376 149.007 36.1014L148.898 39.6175C148.316 39.6902 147.58 39.7629 146.69 39.8356C145.8 39.9264 144.873 39.99 143.91 40.0264C142.965 40.0627 142.056 40.0809 141.184 40.0809C139.767 40.0809 138.495 39.9446 137.368 39.672C136.242 39.3995 135.351 38.9361 134.697 38.2819C134.061 37.6096 133.743 36.692 133.743 35.529C133.743 34.5841 133.952 33.7301 134.37 32.9669C134.806 32.2037 135.378 31.5132 136.087 30.8954C136.796 30.2776 137.568 29.7234 138.404 29.2327C139.258 28.724 140.094 28.2606 140.912 27.8427C141.747 27.4065 142.501 27.034 143.174 26.7251C143.846 26.4162 144.473 26.1437 145.055 25.9074C145.654 25.653 146.227 25.3986 146.772 25.1442C147.299 24.908 147.807 24.6809 148.298 24.4628C148.789 24.2266 149.288 23.9813 149.797 23.7269L151.16 26.8887ZM160.754 26.9704H174.083V29.2327H160.754V26.9704ZM164.379 30.323H170.594V32.1219H164.379V30.323ZM164.379 33.294H170.594V35.0929H164.379V33.294ZM169.504 28.1425H172.447V40.1899H169.504V28.1425ZM162.362 28.1697H165.224V37.4915H162.362V28.1697ZM160.455 36.8101C161.363 36.7556 162.399 36.7011 163.562 36.6465C164.743 36.5739 165.988 36.5012 167.296 36.4285C168.604 36.3376 169.913 36.2468 171.221 36.1559L171.248 38.4182C169.34 38.5818 167.45 38.7271 165.579 38.8543C163.707 38.9815 162.044 39.1087 160.591 39.2359L160.455 36.8101ZM157.62 20.02H164.461V22.1188H157.62V20.02ZM170.267 20.02H177.136V22.1188H170.267V20.02ZM175.855 16.3949H179.071V37.1644C179.071 37.964 178.98 38.609 178.798 39.0996C178.635 39.5903 178.317 39.9719 177.844 40.2444C177.354 40.517 176.754 40.6896 176.045 40.7623C175.355 40.835 174.51 40.8622 173.51 40.8441C173.474 40.5533 173.411 40.2081 173.32 39.8083C173.229 39.4267 173.111 39.036 172.965 38.6363C172.838 38.2365 172.702 37.9004 172.556 37.6278C173.12 37.646 173.674 37.6641 174.219 37.6823C174.782 37.6823 175.164 37.6732 175.364 37.655C175.546 37.655 175.673 37.6187 175.745 37.546C175.818 37.4552 175.855 37.3189 175.855 37.1372V16.3949ZM157.92 16.3949H166.533V25.8257H157.92V23.5361H163.48V18.6844H157.92V16.3949ZM177.544 16.3949V18.6844H171.412V23.5906H177.544V25.9074H168.304V16.3949H177.544ZM155.984 16.3949H159.173V40.9531H155.984V16.3949ZM201.094 18.848C200.658 19.1569 200.231 19.484 199.813 19.8292C199.395 20.1563 199.032 20.4561 198.723 20.7287C198.269 21.0739 197.723 21.5009 197.087 22.0097C196.47 22.5004 195.815 23.0182 195.125 23.5634C194.453 24.0903 193.798 24.6082 193.162 25.117C192.527 25.6258 191.981 26.0801 191.527 26.4798C191.055 26.8978 190.737 27.243 190.573 27.5156C190.41 27.77 190.41 28.0244 190.573 28.2788C190.755 28.5332 191.091 28.8784 191.582 29.3145C191.981 29.6598 192.49 30.0868 193.108 30.5956C193.744 31.1044 194.425 31.6677 195.152 32.2855C195.897 32.8851 196.651 33.512 197.415 34.1662C198.196 34.8022 198.941 35.4382 199.65 36.0742C200.376 36.692 201.021 37.2735 201.585 37.8186L198.396 40.735C197.633 39.881 196.842 39.036 196.024 38.2002C195.607 37.7822 195.061 37.2735 194.389 36.6738C193.735 36.056 193.017 35.4109 192.236 34.7386C191.473 34.0663 190.709 33.403 189.946 32.7488C189.183 32.0765 188.493 31.4769 187.875 30.9499C186.966 30.1867 186.376 29.4871 186.103 28.8512C185.849 28.2152 185.885 27.5883 186.212 26.9704C186.557 26.3345 187.184 25.644 188.093 24.8989C188.638 24.481 189.256 23.9904 189.946 23.4271C190.637 22.8456 191.345 22.255 192.072 21.6554C192.799 21.0376 193.49 20.447 194.144 19.8837C194.798 19.3022 195.352 18.7935 195.806 18.3573C196.206 17.9576 196.606 17.5487 197.006 17.1308C197.405 16.7129 197.705 16.3494 197.905 16.0405L201.094 18.848ZM220.583 31.495L219.847 22.1733L219.71 18.112H224.235L224.099 22.1733L223.363 31.495H220.583ZM221.973 38.7453C221.282 38.7453 220.71 38.5182 220.256 38.0639C219.801 37.6096 219.574 37.0372 219.574 36.3467C219.574 35.6381 219.801 35.0566 220.256 34.6023C220.71 34.148 221.282 33.9209 221.973 33.9209C222.663 33.9209 223.236 34.148 223.69 34.6023C224.144 35.0566 224.371 35.6381 224.371 36.3467C224.371 37.0372 224.144 37.6096 223.69 38.0639C223.236 38.5182 222.663 38.7453 221.973 38.7453Z" fill="white"/>
<g filter="url(#filter0_d_499_187)">
<path d="M177.229 47.5083L174.517 44.9707C173.624 44.1351 172.206 44.1985 171.351 45.1125C170.496 46.0265 170.526 47.445 171.42 48.2809L174.131 50.8185L177.229 47.5083Z" fill="#FFB2BE"/>
<path d="M174.427 51.0951L169.349 46.3432C168.456 45.5076 167.054 45.5539 166.218 46.4472C165.382 47.3402 165.429 48.7419 166.322 49.5778L171.4 54.3297L174.427 51.0951Z" fill="#FFB2BE"/>
<path d="M171.4 54.3292L164.881 48.2285C163.987 47.3926 162.586 47.4391 161.75 48.3324C160.914 49.2254 160.961 50.6272 161.854 51.4631L168.374 57.5641L171.401 54.3295L171.4 54.3292Z" fill="#FFB2BE"/>
<path d="M166.347 55.6669L154.726 44.7922C153.833 43.9566 152.431 44.0028 151.595 44.8961C150.759 45.7891 150.806 47.1909 151.699 48.0268L163.32 58.9015L166.347 55.6669Z" fill="#FFB2BE"/>
<path d="M160.971 56.2059L161.034 57.2529C161.188 59.833 163.184 62.3763 165.377 63.7437L165.791 64.0019C168.43 65.6738 173.143 65.8194 173.143 65.8194L182.955 55.2982L181.147 51.6627C180.847 51.0593 180.442 50.5145 179.949 50.0538L175.248 45.6544" fill="#FFB2BE"/>
<path d="M185.845 57.8514L182.907 55.1025L172.818 65.884L175.756 68.6328L185.845 57.8514Z" fill="#74FAC8"/>
<path d="M190.195 61.922L185.708 57.7231L175.619 68.5046L180.106 72.7035L190.195 61.922Z" fill="#005794"/>
<path d="M161.537 51.0494C161.537 51.0494 161.833 51.1409 162.204 51.3557C162.582 51.5625 163.032 51.8957 163.44 52.2753C163.846 52.6558 164.209 53.0829 164.44 53.4472C164.679 53.8029 164.789 54.0922 164.789 54.0922C164.789 54.0922 164.493 54.0015 164.122 53.7865C163.744 53.58 163.294 53.2462 162.887 52.866C162.481 52.4846 162.119 52.0574 161.887 51.6935C161.648 51.3386 161.537 51.0494 161.537 51.0494Z" fill="#FF858E"/>
<path d="M165.761 48.9047C165.761 48.9047 166.057 48.9963 166.427 49.211C166.806 49.4178 167.256 49.751 167.663 50.1306C168.069 50.5111 168.432 50.9383 168.663 51.3026C168.903 51.6582 169.013 51.9475 169.013 51.9475C169.013 51.9475 168.716 51.8568 168.346 51.6418C167.967 51.4353 167.518 51.1015 167.111 50.7213C166.705 50.34 166.342 49.9128 166.111 49.5488C165.872 49.194 165.761 48.9047 165.761 48.9047Z" fill="#FF858E"/>
<path d="M170.872 47.591C170.872 47.591 171.113 47.6306 171.4 47.7676C171.695 47.8964 172.035 48.1259 172.331 48.4016C172.626 48.6784 172.878 49.0016 173.026 49.2879C173.182 49.5656 173.236 49.8031 173.236 49.8031C173.236 49.8031 172.996 49.7645 172.708 49.6271C172.413 49.4986 172.074 49.2685 171.778 48.9923C171.484 48.7149 171.232 48.3914 171.084 48.1054C170.928 47.8283 170.872 47.591 170.872 47.591Z" fill="#FF858E"/>
</g>
<defs>
<filter id="filter0_d_499_187" x="146.997" y="44.1946" width="47.1976" height="36.5089" filterUnits="userSpaceOnUse" color-interpolation-filters="sRGB">
<feFlood flood-opacity="0" result="BackgroundImageFix"/>
<feColorMatrix in="SourceAlpha" type="matrix" values="0 0 0 0 0 0 0 0 0 0 0 0 0 0 0 0 0 0 127 0" result="hardAlpha"/>
<feOffset dy="4"/>
<feGaussianBlur stdDeviation="2"/>
<feComposite in2="hardAlpha" operator="out"/>
<feColorMatrix type="matrix" values="0 0 0 0 0 0 0 0 0 0 0 0 0 0 0 0 0 0 0.25 0"/>
<feBlend mode="normal" in2="BackgroundImageFix" result="effect1_dropShadow_499_187"/>
<feBlend mode="normal" in="SourceGraphic" in2="effect1_dropShadow_499_187" result="shape"/>
</filter>
<linearGradient id="paint0_linear_499_187" x1="123.5" y1="12.8017" x2="123.5" y2="95.8448" gradientUnits="userSpaceOnUse">
<stop stop-color="#74A3FA"/>
<stop offset="1" stop-color="#005794"/>
</linearGradient>
</defs>
</svg>
