<svg width="247" height="81" viewBox="0 0 247 81" fill="none" xmlns="http://www.w3.org/2000/svg">
<rect x="1.5" y="1.5" width="244" height="49.1173" rx="24.5586" fill="#005794"/>
<rect x="1.5" y="1.5" width="244" height="49.1173" rx="24.5586" stroke="url(#paint0_linear_509_230)" stroke-width="3"/>
<path d="M33.5937 16.1444C33.5633 16.372 33.533 16.63 33.5026 16.9183C33.4874 17.1914 33.4723 17.4722 33.4571 17.7605C33.4419 18.064 33.4267 18.4737 33.4116 18.9896C33.3964 19.4904 33.3888 20.0442 33.3888 20.6512C33.3888 21.2582 33.3888 21.8576 33.3888 22.4494C33.3888 23.0412 33.3888 23.5799 33.3888 24.0655C33.3888 24.7028 33.404 25.416 33.4343 26.2051C33.4647 26.979 33.5026 27.768 33.5481 28.5723C33.6088 29.3613 33.6544 30.1049 33.6847 30.8029C33.7302 31.4858 33.753 32.0548 33.753 32.51C33.753 33.1474 33.5861 33.7316 33.2522 34.2627C32.9184 34.7786 32.4176 35.1883 31.75 35.4918C31.0975 35.7953 30.2705 35.9471 29.2689 35.9471C27.448 35.9471 26.0671 35.6132 25.1263 34.9455C24.1855 34.2779 23.7151 33.3446 23.7151 32.1459C23.7151 31.372 23.9351 30.6967 24.3752 30.1201C24.8304 29.5283 25.4753 29.0654 26.3099 28.7316C27.1597 28.3978 28.1688 28.2308 29.3372 28.2308C30.5815 28.2308 31.7424 28.3674 32.8198 28.6406C33.9123 28.8985 34.9063 29.2399 35.8016 29.6648C36.6968 30.0897 37.4935 30.5374 38.1915 31.0078C38.8896 31.4782 39.4814 31.9031 39.9669 32.2824L38.3281 34.8317C37.7818 34.3158 37.1673 33.8075 36.4844 33.3067C35.8167 32.8059 35.0808 32.3507 34.2765 31.941C33.4874 31.5313 32.6453 31.205 31.75 30.9622C30.8699 30.7043 29.9366 30.5753 28.9503 30.5753C28.1612 30.5753 27.5466 30.7119 27.1066 30.985C26.6817 31.2581 26.4693 31.592 26.4693 31.9865C26.4693 32.2748 26.5603 32.5252 26.7424 32.7377C26.9245 32.9501 27.19 33.1094 27.5391 33.2157C27.8881 33.3219 28.3281 33.375 28.8592 33.375C29.2689 33.375 29.618 33.3295 29.9063 33.2384C30.2098 33.1474 30.445 32.9805 30.6119 32.7377C30.7788 32.4949 30.8623 32.1534 30.8623 31.7134C30.8623 31.3795 30.8471 30.9016 30.8167 30.2794C30.8016 29.6572 30.7788 28.9744 30.7485 28.2308C30.7181 27.4721 30.6878 26.7286 30.6574 26.0002C30.6271 25.2718 30.6119 24.6269 30.6119 24.0655C30.6119 23.5192 30.6119 22.9501 30.6119 22.3583C30.6271 21.7514 30.6346 21.152 30.6346 20.5602C30.6346 19.9684 30.6346 19.4297 30.6346 18.9441C30.6498 18.4433 30.6574 18.0336 30.6574 17.7149C30.6574 17.5025 30.6422 17.2445 30.6119 16.9411C30.5967 16.6224 30.5664 16.3568 30.5208 16.1444H33.5937ZM24.1476 18.284C24.5573 18.3447 25.0125 18.4054 25.5133 18.4661C26.014 18.5268 26.5224 18.5875 27.0383 18.6482C27.5694 18.6937 28.0702 18.7316 28.5406 18.762C29.011 18.7772 29.4207 18.7847 29.7697 18.7847C31.3175 18.7847 32.8577 18.7392 34.3903 18.6482C35.9381 18.542 37.539 18.3523 39.193 18.0791L39.1703 20.6967C38.3964 20.803 37.5011 20.9016 36.4844 20.9926C35.4677 21.0837 34.3827 21.1596 33.2295 21.2202C32.0914 21.2658 30.9457 21.2885 29.7925 21.2885C29.3221 21.2885 28.7378 21.2734 28.0398 21.243C27.357 21.1975 26.6741 21.1444 25.9913 21.0837C25.3084 21.0078 24.7166 20.9395 24.2159 20.8788L24.1476 18.284ZM24.0338 23.2005C24.3979 23.2612 24.8304 23.3219 25.3312 23.3826C25.8319 23.4433 26.3403 23.4888 26.8562 23.5192C27.3873 23.5495 27.8881 23.5799 28.3585 23.6102C28.8289 23.6254 29.2158 23.633 29.5193 23.633C30.9306 23.633 32.2052 23.6026 33.3433 23.5419C34.4965 23.4812 35.5739 23.4054 36.5754 23.3143C37.577 23.2233 38.5405 23.1171 39.4662 22.9957L39.4434 25.6815C38.6543 25.7726 37.888 25.8485 37.1445 25.9092C36.4161 25.9699 35.665 26.023 34.8911 26.0685C34.1324 26.114 33.3129 26.1444 32.4328 26.1595C31.5527 26.1747 30.5664 26.1823 29.4738 26.1823C29.0337 26.1823 28.4875 26.1747 27.835 26.1595C27.1825 26.1292 26.5148 26.0912 25.8319 26.0457C25.1643 26.0002 24.5725 25.9471 24.0565 25.8864L24.0338 23.2005ZM56.9699 16.5313C56.9547 16.6527 56.932 16.85 56.9016 17.1231C56.8713 17.3811 56.8485 17.6467 56.8333 17.9198C56.8333 18.1778 56.8258 18.3675 56.8106 18.4888C56.7954 18.7923 56.7802 19.202 56.7651 19.718C56.7651 20.2339 56.7651 20.803 56.7651 21.4251C56.7651 22.0473 56.7651 22.677 56.7651 23.3143C56.7802 23.9365 56.7878 24.5283 56.7878 25.0897C56.803 25.636 56.8106 26.0912 56.8106 26.4554L53.9881 25.4767C53.9881 25.1884 53.9881 24.809 53.9881 24.3386C53.9881 23.8682 53.9881 23.3523 53.9881 22.7908C53.9881 22.2142 53.9805 21.6451 53.9654 21.0837C53.9654 20.5222 53.9578 20.0139 53.9426 19.5586C53.9274 19.1034 53.9123 18.7544 53.8971 18.5116C53.8667 18.0564 53.8288 17.6467 53.7833 17.2825C53.7378 16.9183 53.7074 16.6679 53.6922 16.5313H56.9699ZM44.1096 19.3766C44.7924 19.3614 45.5511 19.3538 46.3857 19.3538C47.2355 19.3386 48.1232 19.3234 49.0488 19.3083C49.9745 19.2779 50.885 19.2552 51.7803 19.24C52.6907 19.2248 53.5329 19.2172 54.3068 19.2172C55.0959 19.202 55.7787 19.1945 56.3553 19.1945C56.932 19.1945 57.5617 19.1945 58.2446 19.1945C58.9274 19.1793 59.6027 19.1717 60.2704 19.1717C60.938 19.1717 61.545 19.1717 62.0913 19.1717C62.6376 19.1717 63.07 19.1717 63.3887 19.1717L63.3659 21.8803C62.6527 21.85 61.7043 21.8196 60.5207 21.7893C59.3523 21.7589 57.9335 21.7438 56.2643 21.7438C55.2324 21.7438 54.1854 21.7589 53.1232 21.7893C52.061 21.8045 51.0064 21.8348 49.9593 21.8803C48.9123 21.9107 47.9032 21.9486 46.932 21.9941C45.9608 22.0245 45.0428 22.07 44.1778 22.1307L44.1096 19.3766ZM56.4236 26.0912C56.4236 27.3356 56.2719 28.3674 55.9684 29.1868C55.6801 30.0063 55.24 30.6284 54.6482 31.0533C54.0564 31.463 53.3205 31.6679 52.4403 31.6679C52.0003 31.6679 51.545 31.5844 51.0746 31.4175C50.6194 31.2354 50.1945 30.9698 49.8 30.6208C49.4206 30.2566 49.1095 29.8166 48.8668 29.3006C48.624 28.7847 48.5026 28.1853 48.5026 27.5025C48.5026 26.6375 48.7074 25.8864 49.1171 25.2491C49.542 24.6117 50.1035 24.1186 50.8015 23.7696C51.4995 23.4054 52.2582 23.2233 53.0777 23.2233C54.0792 23.2233 54.9138 23.4509 55.5815 23.9061C56.2643 24.3614 56.7802 24.9683 57.1292 25.7271C57.4783 26.4858 57.6528 27.3356 57.6528 28.2764C57.6528 29.0199 57.5314 29.7938 57.2886 30.5981C57.0458 31.4023 56.6361 32.1914 56.0594 32.9653C55.498 33.7392 54.7469 34.4372 53.806 35.0594C52.8804 35.6815 51.7196 36.1898 50.3235 36.5844L47.9108 34.1489C48.8819 33.9516 49.7848 33.6936 50.6194 33.375C51.454 33.0563 52.1824 32.6542 52.8045 32.1686C53.4419 31.683 53.935 31.0836 54.284 30.3704C54.6482 29.6572 54.8303 28.8075 54.8303 27.8211C54.8303 27.0776 54.6558 26.5313 54.3068 26.1823C53.9578 25.8181 53.5177 25.636 52.9866 25.636C52.6983 25.636 52.4176 25.7043 52.1444 25.8409C51.8865 25.9623 51.674 26.1595 51.5071 26.4327C51.3402 26.7058 51.2567 27.0397 51.2567 27.4342C51.2567 27.9653 51.4312 28.3902 51.7803 28.7088C52.1444 29.0123 52.5541 29.1641 53.0094 29.1641C53.3736 29.1641 53.6998 29.0503 53.9881 28.8227C54.2764 28.5799 54.4585 28.1929 54.5344 27.6618C54.6255 27.1307 54.5496 26.4175 54.3068 25.5222L56.4236 26.0912ZM59.9062 15.8485C60.1945 16.2582 60.4828 16.7134 60.7711 17.2142C61.0594 17.6998 61.3022 18.1398 61.4995 18.5344L59.5875 19.331C59.3599 18.8758 59.1171 18.4206 58.8591 17.9653C58.6012 17.4949 58.328 17.0473 58.0397 16.6224L59.9062 15.8485ZM62.9562 15.2112C63.2446 15.6209 63.5329 16.0685 63.8212 16.5541C64.1095 17.0245 64.3599 17.4646 64.5723 17.8743L62.6603 18.6709C62.4327 18.2157 62.1823 17.7605 61.9092 17.3052C61.6512 16.8348 61.3705 16.3948 61.067 15.9851L62.9562 15.2112ZM74.4281 20.5829C75.0806 20.6436 75.7331 20.6967 76.3856 20.7423C77.0533 20.7726 77.7286 20.7878 78.4114 20.7878C79.8075 20.7878 81.1959 20.7271 82.5768 20.6057C83.9577 20.4843 85.2323 20.2946 86.4008 20.0366V22.8819C85.2172 23.0488 83.9349 23.1853 82.554 23.2916C81.1732 23.3826 79.7923 23.4281 78.4114 23.4281C77.7437 23.4281 77.0761 23.4205 76.4084 23.4054C75.7559 23.375 75.0958 23.3371 74.4281 23.2916V20.5829ZM83.0776 16.7362C83.0472 16.9486 83.0169 17.1838 82.9865 17.4418C82.9713 17.6998 82.9562 17.9577 82.941 18.2157C82.9258 18.4585 82.9106 18.7847 82.8955 19.1945C82.8803 19.6042 82.8727 20.067 82.8727 20.5829C82.8727 21.0837 82.8727 21.6148 82.8727 22.1762C82.8727 23.2081 82.8879 24.1793 82.9182 25.0897C82.9486 25.985 82.9865 26.8196 83.032 27.5935C83.0776 28.3522 83.1155 29.0503 83.1458 29.6876C83.1914 30.3249 83.2141 30.9167 83.2141 31.463C83.2141 32.0548 83.1307 32.6011 82.9638 33.1018C82.812 33.6026 82.5616 34.0427 82.2126 34.422C81.8636 34.8014 81.4008 35.0897 80.8242 35.287C80.2627 35.4994 79.5723 35.6056 78.7528 35.6056C77.1747 35.6056 75.9304 35.287 75.0199 34.6496C74.1095 34.0123 73.6542 33.0943 73.6542 31.8955C73.6542 31.1216 73.8591 30.4463 74.2688 29.8697C74.6785 29.2779 75.2627 28.8227 76.0214 28.504C76.7802 28.1701 77.6755 28.0032 78.7073 28.0032C79.7847 28.0032 80.7635 28.117 81.6436 28.3447C82.5237 28.5723 83.3279 28.8758 84.0563 29.2551C84.7847 29.6345 85.4296 30.0518 85.9911 30.507C86.5677 30.9471 87.0836 31.372 87.5389 31.7817L85.9683 34.1716C85.1034 33.3522 84.2612 32.6466 83.4417 32.0548C82.6223 31.463 81.8029 31.0078 80.9835 30.6891C80.1792 30.3704 79.3446 30.2111 78.4797 30.2111C77.8424 30.2111 77.3189 30.3325 76.9091 30.5753C76.5146 30.8181 76.3173 31.1595 76.3173 31.5996C76.3173 32.0548 76.5222 32.3886 76.9319 32.6011C77.3416 32.8135 77.8424 32.9198 78.4342 32.9198C78.9046 32.9198 79.2764 32.8439 79.5495 32.6921C79.8226 32.5252 80.0123 32.29 80.1185 31.9865C80.2399 31.6679 80.3006 31.2885 80.3006 30.8484C80.3006 30.4539 80.2855 29.938 80.2551 29.3006C80.2248 28.6633 80.1868 27.9501 80.1413 27.161C80.111 26.372 80.0806 25.5526 80.0503 24.7028C80.0199 23.8378 80.0047 22.9957 80.0047 22.1762C80.0047 21.3113 79.9971 20.5298 79.982 19.8318C79.982 19.1186 79.982 18.5875 79.982 18.2385C79.982 18.0715 79.9668 17.8363 79.9364 17.5329C79.9061 17.2294 79.8682 16.9638 79.8226 16.7362H83.0776ZM71.9699 16.9866C71.9243 17.1383 71.8561 17.3508 71.765 17.6239C71.6891 17.897 71.6208 18.1626 71.5602 18.4206C71.5146 18.6785 71.4767 18.8758 71.4463 19.0124C71.3705 19.331 71.287 19.7635 71.196 20.3098C71.1049 20.8409 71.0063 21.4479 70.9001 22.1307C70.809 22.7984 70.718 23.4888 70.6269 24.202C70.5359 24.9001 70.4676 25.5677 70.4221 26.2051C70.3765 26.8272 70.3538 27.3659 70.3538 27.8211C70.3538 28.0488 70.3538 28.2991 70.3538 28.5723C70.369 28.8302 70.3993 29.073 70.4448 29.3006C70.551 29.0275 70.6573 28.762 70.7635 28.504C70.8849 28.246 71.0063 27.9881 71.1277 27.7301C71.2491 27.4721 71.3629 27.2142 71.4691 26.9562L72.8576 28.0943C72.6451 28.7164 72.4251 29.3689 72.1975 30.0518C71.985 30.7346 71.7878 31.3795 71.6057 31.9865C71.4388 32.5935 71.3098 33.1018 71.2187 33.5116C71.1884 33.6633 71.158 33.8454 71.1277 34.0578C71.1125 34.2703 71.1049 34.4448 71.1049 34.5814C71.1049 34.7028 71.1049 34.8469 71.1049 35.0138C71.1201 35.1959 71.1353 35.3628 71.1504 35.5146L68.5784 35.7194C68.3356 34.9152 68.1231 33.8909 67.941 32.6466C67.7589 31.3871 67.6679 29.9835 67.6679 28.4357C67.6679 27.5859 67.7058 26.6982 67.7817 25.7726C67.8576 24.8318 67.941 23.9289 68.0321 23.0639C68.1383 22.199 68.2445 21.4099 68.3508 20.6967C68.457 19.9684 68.5404 19.3841 68.6011 18.9441C68.6467 18.6254 68.6922 18.2688 68.7377 17.8743C68.7832 17.4646 68.8136 17.0776 68.8287 16.7134L71.9699 16.9866ZM99.0335 27.4114H109.527V36.5161H106.818V29.8469H101.628V36.6071H99.0335V27.4114ZM107.933 15.4615L109.845 17.7149C108.813 18.0184 107.683 18.284 106.454 18.5116C105.225 18.7392 103.965 18.9289 102.675 19.0807C101.401 19.2172 100.164 19.331 98.9652 19.4221C98.9197 19.0882 98.8211 18.7013 98.6693 18.2612C98.5176 17.806 98.3658 17.4266 98.2141 17.1231C99.079 17.0473 99.9516 16.9562 100.832 16.85C101.727 16.7438 102.599 16.6224 103.449 16.4858C104.314 16.3341 105.126 16.1747 105.885 16.0078C106.643 15.8257 107.326 15.6436 107.933 15.4615ZM102.744 17.6011H105.566V28.6406H102.744V17.6011ZM97.8499 21.8121H110.483V24.4069H97.8499V21.8121ZM100.786 33.0563H108.115V35.4918H100.786V33.0563ZM90.0654 22.3583H96.9394V24.4296H90.0654V22.3583ZM90.202 15.9395H96.9394V17.9881H90.202V15.9395ZM90.0654 25.545H96.9394V27.6163H90.0654V25.545ZM88.9728 19.0807H97.6678V21.243H88.9728V19.0807ZM91.4311 28.7771H97.0532V35.6967H91.4311V33.5343H94.7088V30.9395H91.4311V28.7771ZM89.9971 28.7771H92.296V36.5844H89.9971V28.7771ZM122.114 16.3037C122.038 16.7134 121.917 17.2445 121.75 17.897C121.583 18.5495 121.34 19.2855 121.021 20.1049C120.778 20.6664 120.498 21.2506 120.179 21.8576C119.876 22.4494 119.565 22.9805 119.246 23.4509C119.443 23.3598 119.694 23.284 119.997 23.2233C120.3 23.1474 120.612 23.0943 120.93 23.0639C121.264 23.0184 121.56 22.9957 121.818 22.9957C122.774 22.9957 123.563 23.2688 124.185 23.8151C124.822 24.3614 125.141 25.1732 125.141 26.2506C125.141 26.5541 125.141 26.9258 125.141 27.3659C125.156 27.806 125.171 28.2688 125.187 28.7544C125.202 29.2248 125.217 29.6876 125.232 30.1428C125.247 30.5981 125.255 31.0078 125.255 31.372H122.524C122.554 31.114 122.569 30.8105 122.569 30.4615C122.584 30.0973 122.592 29.7179 122.592 29.3234C122.607 28.9289 122.615 28.5495 122.615 28.1853C122.63 27.806 122.637 27.4645 122.637 27.161C122.637 26.4327 122.44 25.9319 122.046 25.6588C121.666 25.3705 121.241 25.2263 120.771 25.2263C120.134 25.2263 119.489 25.3856 118.836 25.7043C118.199 26.0078 117.66 26.372 117.22 26.7969C116.886 27.1307 116.545 27.5025 116.196 27.9122C115.862 28.3219 115.498 28.7847 115.103 29.3006L112.668 27.4797C113.654 26.5692 114.504 25.6891 115.217 24.8394C115.945 23.9896 116.56 23.1474 117.061 22.3128C117.562 21.4782 117.971 20.6436 118.29 19.809C118.517 19.202 118.7 18.5723 118.836 17.9198C118.988 17.2521 119.079 16.63 119.109 16.0533L122.114 16.3037ZM113.555 18.3978C114.132 18.4888 114.8 18.5571 115.558 18.6027C116.317 18.6482 116.985 18.6709 117.562 18.6709C118.563 18.6709 119.656 18.6482 120.839 18.6027C122.038 18.5571 123.252 18.4813 124.481 18.375C125.71 18.2536 126.879 18.1019 127.986 17.9198L127.964 20.5602C127.159 20.6664 126.287 20.765 125.346 20.8561C124.42 20.9319 123.472 21.0002 122.501 21.0609C121.545 21.1064 120.627 21.1444 119.747 21.1747C118.867 21.1899 118.085 21.1975 117.402 21.1975C117.099 21.1975 116.719 21.1975 116.264 21.1975C115.824 21.1823 115.369 21.1671 114.898 21.152C114.428 21.1216 113.98 21.0913 113.555 21.0609V18.3978ZM131.583 24.8621C131.34 24.938 131.052 25.0366 130.718 25.158C130.399 25.2642 130.073 25.378 129.739 25.4994C129.42 25.6057 129.132 25.7119 128.874 25.8181C128.146 26.1064 127.281 26.4554 126.279 26.8651C125.293 27.2749 124.261 27.7529 123.184 28.2991C122.501 28.6633 121.924 29.0199 121.454 29.3689C120.983 29.7179 120.627 30.0745 120.384 30.4387C120.141 30.7877 120.02 31.1747 120.02 31.5996C120.02 31.9182 120.088 32.1838 120.225 32.3962C120.361 32.5935 120.566 32.7528 120.839 32.8742C121.112 32.9956 121.454 33.0791 121.863 33.1246C122.273 33.1701 122.759 33.1929 123.32 33.1929C124.291 33.1929 125.361 33.1398 126.53 33.0336C127.698 32.9122 128.783 32.7528 129.785 32.5556L129.693 35.4918C129.208 35.5525 128.593 35.6132 127.85 35.6739C127.106 35.7498 126.332 35.8029 125.528 35.8332C124.739 35.8636 123.98 35.8788 123.252 35.8788C122.068 35.8788 121.006 35.765 120.065 35.5373C119.124 35.3097 118.381 34.9228 117.835 34.3765C117.304 33.815 117.038 33.0487 117.038 32.0776C117.038 31.2885 117.212 30.5753 117.562 29.938C117.926 29.3006 118.404 28.724 118.995 28.2081C119.587 27.6922 120.232 27.2293 120.93 26.8196C121.643 26.3947 122.341 26.0078 123.024 25.6588C123.722 25.2946 124.352 24.9835 124.914 24.7255C125.475 24.4676 125.999 24.24 126.484 24.0427C126.985 23.8303 127.463 23.6178 127.918 23.4054C128.358 23.2081 128.783 23.0184 129.193 22.8363C129.602 22.6391 130.02 22.4342 130.445 22.2218L131.583 24.8621ZM139.595 24.9304H150.725V26.8196H139.595V24.9304ZM142.622 27.7301H147.812V29.2324H142.622V27.7301ZM142.622 30.2111H147.812V31.7134H142.622V30.2111ZM146.901 25.9092H149.36V35.9698H146.901V25.9092ZM140.938 25.9319H143.328V33.7164H140.938V25.9319ZM139.344 33.1474C140.103 33.1018 140.968 33.0563 141.939 33.0108C142.926 32.9501 143.965 32.8894 145.058 32.8287C146.15 32.7528 147.243 32.677 148.335 32.6011L148.358 34.4903C146.765 34.6269 145.187 34.7483 143.624 34.8545C142.061 34.9607 140.672 35.0669 139.458 35.1732L139.344 33.1474ZM136.977 19.1262H142.69V20.8788H136.977V19.1262ZM147.539 19.1262H153.275V20.8788H147.539V19.1262ZM152.205 16.0989H154.891V33.4433C154.891 34.1109 154.815 34.6496 154.663 35.0594C154.526 35.4691 154.261 35.7877 153.866 36.0153C153.457 36.243 152.956 36.3871 152.364 36.4478C151.787 36.5085 151.082 36.5313 150.247 36.5161C150.217 36.2733 150.164 35.985 150.088 35.6512C150.012 35.3325 149.913 35.0062 149.792 34.6724C149.686 34.3386 149.572 34.0578 149.451 33.8302C149.921 33.8454 150.384 33.8606 150.839 33.8757C151.309 33.8757 151.628 33.8682 151.795 33.853C151.947 33.853 152.053 33.8226 152.114 33.7619C152.174 33.6861 152.205 33.5723 152.205 33.4205V16.0989ZM137.228 16.0989H144.42V23.9744H137.228V22.0624H141.871V18.0109H137.228V16.0989ZM153.616 16.0989V18.0109H148.495V22.108H153.616V24.0427H145.9V16.0989H153.616ZM135.612 16.0989H138.275V36.6071H135.612V16.0989ZM173.282 18.1474C172.918 18.4054 172.561 18.6785 172.212 18.9668C171.863 19.24 171.56 19.4904 171.302 19.718C170.922 20.0063 170.467 20.3629 169.936 20.7878C169.42 21.1975 168.874 21.63 168.297 22.0852C167.736 22.5253 167.19 22.9577 166.658 23.3826C166.127 23.8075 165.672 24.1869 165.293 24.5207C164.898 24.8697 164.633 25.158 164.496 25.3856C164.36 25.5981 164.36 25.8105 164.496 26.023C164.648 26.2354 164.929 26.5237 165.338 26.8879C165.672 27.1762 166.097 27.5328 166.613 27.9577C167.144 28.3826 167.713 28.853 168.32 29.3689C168.942 29.8697 169.572 30.3932 170.209 30.9395C170.862 31.4706 171.484 32.0017 172.076 32.5328C172.683 33.0487 173.221 33.5343 173.692 33.9896L171.029 36.4251C170.391 35.7119 169.731 35.0062 169.048 34.3082C168.699 33.9592 168.244 33.5343 167.683 33.0336C167.136 32.5176 166.537 31.9789 165.885 31.4175C165.247 30.856 164.61 30.3022 163.973 29.7559C163.335 29.1944 162.759 28.6937 162.243 28.2536C161.484 27.6163 160.991 27.0321 160.763 26.501C160.551 25.9699 160.581 25.4463 160.854 24.9304C161.143 24.3993 161.666 23.8227 162.425 23.2005C162.88 22.8515 163.396 22.4418 163.973 21.9714C164.549 21.4858 165.141 20.9926 165.748 20.4919C166.355 19.9759 166.932 19.4828 167.478 19.0124C168.024 18.5268 168.487 18.1019 168.866 17.7377C169.2 17.4039 169.534 17.0624 169.868 16.7134C170.202 16.3644 170.452 16.0609 170.619 15.803L173.282 18.1474ZM189.557 28.7088L188.942 20.9243L188.828 17.5329H192.607L192.493 20.9243L191.878 28.7088H189.557ZM190.718 34.7634C190.141 34.7634 189.663 34.5738 189.284 34.1944C188.904 33.815 188.715 33.3371 188.715 32.7604C188.715 32.1686 188.904 31.683 189.284 31.3037C189.663 30.9243 190.141 30.7346 190.718 30.7346C191.294 30.7346 191.772 30.9243 192.152 31.3037C192.531 31.683 192.721 32.1686 192.721 32.7604C192.721 33.3371 192.531 33.815 192.152 34.1944C191.772 34.5738 191.294 34.7634 190.718 34.7634Z" fill="white"/>
<path d="M224.48 34.5125L205.102 32.3859C204.539 32.3242 204.131 31.7967 204.19 31.2081L205.445 18.7017C205.511 18.038 206.08 17.5565 206.715 17.6261L225.535 19.6915C226.292 19.7745 226.841 20.4831 226.761 21.274L225.521 33.631C225.467 34.1749 225.001 34.5696 224.48 34.5125Z" fill="#74FAC8"/>
<path d="M224.453 34.5095L214.753 33.445L205.052 32.3805C204.517 32.3217 204.128 31.8202 204.184 31.2602L205.423 18.9193C205.438 18.767 205.506 18.6255 205.613 18.5215C205.739 18.4 205.934 18.4049 206.054 18.5327L212.826 25.7652L214.227 27.2612C214.826 27.9007 215.777 27.9988 216.484 27.494L226.402 20.4091C226.915 21.039 226.729 21.5937 226.729 21.5937L225.524 33.6023C225.468 34.162 224.988 34.5683 224.453 34.5095Z" fill="url(#paint1_linear_509_230)"/>
<path d="M204.779 32.0751C204.731 32.0698 204.685 32.0459 204.655 32.0052C204.598 31.9299 204.615 31.8261 204.693 31.7733L212.912 26.2028C212.99 26.15 213.099 26.1682 213.156 26.2435C213.213 26.3188 213.196 26.4226 213.118 26.4754L204.899 32.0461C204.863 32.0704 204.82 32.0796 204.779 32.0751Z" fill="url(#paint2_linear_509_230)"/>
<path d="M224.736 34.265C224.695 34.2605 224.655 34.2422 224.625 34.2105L217.693 26.9872C217.626 26.9173 217.629 26.8091 217.7 26.745C217.771 26.681 217.882 26.6857 217.949 26.7555L224.881 33.9788C224.948 34.0487 224.945 34.1569 224.874 34.2209C224.836 34.256 224.785 34.2704 224.736 34.265Z" fill="url(#paint3_linear_509_230)"/>
<g filter="url(#filter0_d_509_230)">
<path d="M177.229 47.5083L174.517 44.9707C173.624 44.1351 172.206 44.1985 171.351 45.1125C170.496 46.0265 170.526 47.445 171.42 48.2809L174.131 50.8185L177.229 47.5083Z" fill="#FFB2BE"/>
<path d="M174.427 51.0951L169.349 46.3432C168.456 45.5076 167.054 45.5539 166.218 46.4472C165.382 47.3402 165.429 48.7419 166.322 49.5778L171.4 54.3297L174.427 51.0951Z" fill="#FFB2BE"/>
<path d="M171.4 54.3292L164.881 48.2285C163.987 47.3926 162.586 47.4391 161.75 48.3324C160.914 49.2254 160.961 50.6272 161.854 51.4631L168.374 57.5641L171.401 54.3295L171.4 54.3292Z" fill="#FFB2BE"/>
<path d="M166.347 55.6669L154.726 44.7922C153.833 43.9566 152.431 44.0028 151.595 44.8961C150.759 45.7891 150.806 47.1909 151.699 48.0268L163.32 58.9015L166.347 55.6669Z" fill="#FFB2BE"/>
<path d="M160.971 56.2059L161.034 57.2529C161.188 59.833 163.184 62.3763 165.377 63.7437L165.791 64.0019C168.43 65.6738 173.143 65.8194 173.143 65.8194L182.955 55.2982L181.147 51.6627C180.847 51.0593 180.442 50.5145 179.949 50.0538L175.248 45.6544" fill="#FFB2BE"/>
<path d="M185.845 57.8514L182.907 55.1025L172.818 65.884L175.756 68.6328L185.845 57.8514Z" fill="#74FAC8"/>
<path d="M190.195 61.922L185.708 57.7231L175.619 68.5046L180.106 72.7035L190.195 61.922Z" fill="#005794"/>
<path d="M161.537 51.0494C161.537 51.0494 161.833 51.1409 162.204 51.3557C162.582 51.5625 163.032 51.8957 163.44 52.2753C163.846 52.6558 164.209 53.0829 164.44 53.4472C164.679 53.8029 164.789 54.0922 164.789 54.0922C164.789 54.0922 164.493 54.0015 164.122 53.7865C163.744 53.58 163.294 53.2462 162.887 52.866C162.481 52.4846 162.119 52.0574 161.887 51.6935C161.648 51.3386 161.537 51.0494 161.537 51.0494Z" fill="#FF858E"/>
<path d="M165.761 48.9047C165.761 48.9047 166.057 48.9963 166.427 49.211C166.806 49.4178 167.256 49.751 167.663 50.1306C168.069 50.5111 168.432 50.9383 168.663 51.3026C168.903 51.6582 169.013 51.9475 169.013 51.9475C169.013 51.9475 168.716 51.8568 168.346 51.6418C167.967 51.4353 167.518 51.1015 167.111 50.7213C166.705 50.34 166.342 49.9128 166.111 49.5488C165.872 49.194 165.761 48.9047 165.761 48.9047Z" fill="#FF858E"/>
<path d="M170.872 47.591C170.872 47.591 171.113 47.6306 171.4 47.7676C171.695 47.8964 172.035 48.1259 172.331 48.4016C172.626 48.6784 172.878 49.0016 173.026 49.2879C173.182 49.5656 173.236 49.8031 173.236 49.8031C173.236 49.8031 172.996 49.7645 172.708 49.6271C172.413 49.4986 172.074 49.2685 171.778 48.9923C171.484 48.7149 171.232 48.3914 171.084 48.1054C170.928 47.8283 170.872 47.591 170.872 47.591Z" fill="#FF858E"/>
</g>
<defs>
<filter id="filter0_d_509_230" x="146.997" y="44.1946" width="47.1976" height="36.5089" filterUnits="userSpaceOnUse" color-interpolation-filters="sRGB">
<feFlood flood-opacity="0" result="BackgroundImageFix"/>
<feColorMatrix in="SourceAlpha" type="matrix" values="0 0 0 0 0 0 0 0 0 0 0 0 0 0 0 0 0 0 127 0" result="hardAlpha"/>
<feOffset dy="4"/>
<feGaussianBlur stdDeviation="2"/>
<feComposite in2="hardAlpha" operator="out"/>
<feColorMatrix type="matrix" values="0 0 0 0 0 0 0 0 0 0 0 0 0 0 0 0 0 0 0.25 0"/>
<feBlend mode="normal" in2="BackgroundImageFix" result="effect1_dropShadow_509_230"/>
<feBlend mode="normal" in="SourceGraphic" in2="effect1_dropShadow_509_230" result="shape"/>
</filter>
<linearGradient id="paint0_linear_509_230" x1="123.5" y1="11.2388" x2="123.5" y2="82.7976" gradientUnits="userSpaceOnUse">
<stop stop-color="#74A3FA"/>
<stop offset="1" stop-color="#005794"/>
</linearGradient>
<linearGradient id="paint1_linear_509_230" x1="216.18" y1="19.2873" x2="213.903" y2="42.2416" gradientUnits="userSpaceOnUse">
<stop offset="0.259345" stop-color="#56BF98"/>
<stop offset="1" stop-color="#A9F7EE"/>
</linearGradient>
<linearGradient id="paint2_linear_509_230" x1="209.243" y1="25.7579" x2="208.505" y2="32.4839" gradientUnits="userSpaceOnUse">
<stop stop-color="#A9F7EE"/>
<stop offset="1" stop-color="#79D7BD"/>
</linearGradient>
<linearGradient id="paint3_linear_509_230" x1="221.625" y1="27.1166" x2="220.887" y2="33.8426" gradientUnits="userSpaceOnUse">
<stop stop-color="#A9F7EE"/>
<stop offset="1" stop-color="#79D7BD"/>
</linearGradient>
</defs>
</svg>
