<svg width="247" height="81" viewBox="0 0 247 81" fill="none" xmlns="http://www.w3.org/2000/svg">
<rect x="1.5" y="1.5" width="244" height="57" rx="28.5" fill="#005794"/>
<rect x="1.5" y="1.5" width="244" height="57" rx="28.5" stroke="url(#paint0_linear_499_187)" stroke-width="3"/>
<path d="M54.2681 21.4101V22.5276H65.8795V21.4101H54.2681ZM54.2681 18.3301V19.4204H65.8795V18.3301H54.2681ZM51.1336 16.2041H69.1503V24.6536H51.1336V16.2041ZM47.9173 25.6349H72.2848V28.2242H47.9173V25.6349ZM60.4281 29.2327H69.3411V31.7404H60.4281V29.2327ZM52.1149 29.3145H58.3021V31.5768H52.1149V29.3145ZM52.1149 32.7488H58.3021V35.0112H52.1149V32.7488ZM63.7535 31.495C64.5166 33.1668 65.6796 34.6023 67.2423 35.8016C68.8232 37.0009 70.7039 37.8549 72.8844 38.3637C72.6845 38.5636 72.4574 38.8089 72.203 39.0996C71.9486 39.4086 71.7124 39.7265 71.4943 40.0536C71.2763 40.3807 71.0946 40.6714 70.9492 40.9258C68.6051 40.2172 66.6154 39.1269 64.98 37.655C63.3628 36.1832 62.0817 34.3752 61.1368 32.231L63.7535 31.495ZM68.3598 29.2327H68.9595L69.5046 29.151L71.5216 29.9142C70.9765 31.804 70.2042 33.4666 69.2048 34.9021C68.2054 36.3195 67.0242 37.5188 65.6614 38.5C64.3168 39.4994 62.8267 40.308 61.1913 40.9258C61.0096 40.5261 60.7461 40.0718 60.4009 39.563C60.0556 39.0724 59.7286 38.6726 59.4196 38.3637C60.4736 38.0366 61.473 37.6005 62.4179 37.0554C63.3809 36.5103 64.2532 35.8652 65.0345 35.1202C65.8159 34.3752 66.4882 33.5484 67.0515 32.6398C67.633 31.7313 68.0691 30.7591 68.3598 29.7234V29.2327ZM47.672 36.7011C48.5988 36.6465 49.6345 36.5829 50.7793 36.5103C51.9241 36.4194 53.1324 36.3286 54.4044 36.2377C55.6764 36.1287 56.9575 36.0196 58.2476 35.9106V38.5818C56.4123 38.7453 54.5861 38.9088 52.769 39.0724C50.9701 39.2541 49.3529 39.4086 47.9173 39.5358L47.672 36.7011ZM56.6395 26.4798H59.7467V40.9531H56.6395V26.4798ZM50.0706 26.5343H53.0416V37.6823H50.0706V26.5343ZM81.3067 25.9619V36.0196H78.1177V28.9874H74.9559V25.9619H81.3067ZM81.3067 34.6023C81.87 35.4927 82.6605 36.1468 83.6781 36.5648C84.6956 36.9827 85.9131 37.2189 87.3304 37.2735C88.13 37.3098 89.0749 37.3371 90.1651 37.3552C91.2736 37.3552 92.4365 37.3461 93.654 37.328C94.8714 37.3098 96.0617 37.2735 97.2246 37.2189C98.4057 37.1644 99.4506 37.1008 100.359 37.0281C100.25 37.2825 100.123 37.6096 99.9775 38.0094C99.8322 38.4091 99.6959 38.818 99.5687 39.2359C99.4596 39.6539 99.3779 40.0264 99.3234 40.3535C98.5057 40.408 97.5699 40.4443 96.5159 40.4625C95.462 40.4988 94.3808 40.517 93.2724 40.517C92.164 40.5352 91.0919 40.5352 90.0561 40.517C89.0204 40.4988 88.0936 40.4716 87.2759 40.4352C85.6042 40.3625 84.1778 40.0991 82.9966 39.6448C81.8155 39.2087 80.7707 38.4637 79.8621 37.4097C79.2625 37.9185 78.6447 38.4455 78.0087 38.9906C77.3909 39.5358 76.7094 40.0991 75.9644 40.6805L74.3563 37.2735C74.9923 36.8919 75.6555 36.4739 76.346 36.0196C77.0365 35.5654 77.6998 35.0929 78.3358 34.6023H81.3067ZM74.9832 17.9485L77.409 15.986C77.9723 16.3494 78.5447 16.7765 79.1262 17.2671C79.7077 17.7395 80.2528 18.2301 80.7616 18.7389C81.2704 19.2296 81.6792 19.6838 81.9881 20.1018L79.3988 22.2823C79.1262 21.8462 78.7446 21.3737 78.254 20.865C77.7815 20.3562 77.2546 19.8474 76.6731 19.3386C76.0916 18.8116 75.5283 18.3483 74.9832 17.9485ZM86.3765 24.4356V26.7796H95.4802V24.4356H86.3765ZM83.3782 21.928H98.6419V29.26H83.3782V21.928ZM82.506 17.7032H99.5687V20.4288H82.506V17.7032ZM89.2657 15.3591H92.4274V36.5648H89.2657V15.3591ZM88.3934 28.4423L90.7648 29.2873C90.256 30.214 89.6382 31.1135 88.9113 31.9857C88.1845 32.8397 87.385 33.6301 86.5127 34.357C85.6405 35.0657 84.7501 35.6471 83.8416 36.1014C83.6962 35.847 83.4963 35.5654 83.2419 35.2565C83.0057 34.9476 82.7513 34.6477 82.4788 34.357C82.2244 34.0663 81.9881 33.8209 81.7701 33.6211C82.6423 33.2758 83.4963 32.8306 84.3322 32.2855C85.1681 31.7404 85.9404 31.1407 86.649 30.4865C87.3577 29.8142 87.9392 29.1328 88.3934 28.4423ZM92.809 28.415C93.336 29.0692 93.9901 29.7234 94.7715 30.3775C95.5529 31.0135 96.3978 31.6041 97.3064 32.1492C98.2149 32.6943 99.1053 33.1395 99.9775 33.4848C99.7413 33.6847 99.4778 33.9391 99.1871 34.248C98.9145 34.5387 98.651 34.8476 98.3966 35.1747C98.1422 35.4836 97.9333 35.7743 97.7697 36.0469C96.8975 35.5745 96.0071 34.9839 95.0986 34.2752C94.2082 33.5484 93.3723 32.767 92.591 31.9312C91.8096 31.0771 91.1282 30.2231 90.5467 29.369L92.809 28.415ZM102.236 26.3463C102.59 26.3345 102.927 26.3226 103.246 26.3108C103.564 26.2872 103.807 26.2695 103.972 26.2577C104.338 26.2341 104.787 26.1986 105.318 26.1514C105.862 26.0923 106.464 26.0333 107.126 25.9742C107.799 25.9152 108.513 25.8561 109.269 25.797C110.025 25.738 110.811 25.673 111.626 25.6022C112.24 25.5431 112.848 25.4959 113.45 25.4604C114.065 25.4132 114.643 25.3777 115.187 25.3541C115.742 25.3187 116.226 25.2951 116.64 25.2833L116.657 27.551C116.338 27.551 115.972 27.5569 115.559 27.5687C115.145 27.5805 114.732 27.6042 114.319 27.6396C113.917 27.6632 113.557 27.7164 113.238 27.799C112.706 27.9408 112.21 28.1829 111.75 28.5254C111.289 28.8561 110.887 29.2518 110.545 29.7125C110.214 30.1613 109.954 30.6515 109.765 31.183C109.576 31.7026 109.482 32.2282 109.482 32.7598C109.482 33.3385 109.582 33.8523 109.783 34.3011C109.996 34.7381 110.279 35.1161 110.634 35.435C111 35.7421 111.425 36.0019 111.909 36.2145C112.393 36.4153 112.913 36.5689 113.468 36.6752C114.035 36.7815 114.62 36.8523 115.222 36.8878L114.389 39.315C113.645 39.2677 112.919 39.1496 112.21 38.9606C111.513 38.7717 110.858 38.5118 110.244 38.1811C109.63 37.8504 109.092 37.4488 108.632 36.9764C108.183 36.4921 107.822 35.9429 107.551 35.3287C107.291 34.7027 107.161 34.0058 107.161 33.2381C107.161 32.3877 107.297 31.6082 107.568 30.8995C107.84 30.179 108.177 29.553 108.578 29.0215C108.992 28.4782 109.399 28.0589 109.801 27.7636C109.47 27.8109 109.069 27.8581 108.596 27.9053C108.135 27.9526 107.633 28.0116 107.09 28.0825C106.559 28.1416 106.015 28.2065 105.46 28.2774C104.905 28.3483 104.368 28.4309 103.848 28.5254C103.34 28.6081 102.879 28.6908 102.466 28.7735L102.236 26.3463ZM114.124 29.2873C114.277 29.4999 114.437 29.7538 114.602 30.0491C114.779 30.3325 114.95 30.6219 115.116 30.9172C115.281 31.2007 115.423 31.4605 115.541 31.6967L114.195 32.2991C113.97 31.803 113.752 31.366 113.539 30.9881C113.338 30.6101 113.096 30.2262 112.813 29.8365L114.124 29.2873ZM116.108 28.4723C116.262 28.6849 116.427 28.9329 116.604 29.2164C116.793 29.488 116.976 29.7715 117.153 30.0668C117.33 30.3503 117.478 30.6042 117.596 30.8286L116.267 31.4664C116.031 30.994 115.801 30.5747 115.576 30.2085C115.364 29.8424 115.11 29.4644 114.815 29.0747L116.108 28.4723ZM132.958 23.2635H142.716V26.2345H132.958V23.2635ZM132.958 29.7234H142.716V32.6671H132.958V29.7234ZM132.958 36.1559H142.716V39.1269H132.958V36.1559ZM131.404 16.8037H144.242V40.5442H140.972V19.911H134.539V40.7078H131.404V16.8037ZM119.957 20.974H130.423V24.054H119.957V20.974ZM123.882 15.3319H127.016V40.9258H123.882V15.3319ZM123.718 23.0727L125.653 23.7542C125.435 24.8626 125.163 26.0074 124.836 27.1885C124.508 28.3514 124.136 29.4962 123.718 30.6228C123.3 31.7313 122.846 32.7761 122.355 33.7573C121.865 34.7204 121.347 35.5472 120.802 36.2377C120.656 35.7834 120.429 35.2655 120.12 34.6841C119.811 34.0844 119.521 33.5847 119.248 33.185C119.739 32.5853 120.211 31.8857 120.665 31.0862C121.12 30.2867 121.538 29.4417 121.919 28.5513C122.319 27.6428 122.673 26.7251 122.982 25.7984C123.291 24.8535 123.536 23.945 123.718 23.0727ZM126.798 25.4713C126.998 25.653 127.289 25.971 127.67 26.4253C128.052 26.8614 128.452 27.3429 128.87 27.8699C129.306 28.3969 129.705 28.8875 130.069 29.3418C130.45 29.7779 130.714 30.0868 130.859 30.2685L128.979 32.9124C128.779 32.5126 128.524 32.0402 128.215 31.495C127.906 30.9499 127.57 30.3957 127.207 29.8324C126.843 29.2691 126.489 28.733 126.144 28.2242C125.817 27.7155 125.535 27.2884 125.299 26.9432L126.798 25.4713ZM162.94 22.991L164.957 20.8377C165.739 21.2738 166.593 21.7735 167.519 22.3368C168.464 22.9001 169.364 23.4725 170.218 24.054C171.09 24.6173 171.799 25.1261 172.344 25.5804L170.163 28.0607C169.673 27.5701 169.009 27.025 168.174 26.4253C167.338 25.8257 166.456 25.226 165.53 24.6264C164.603 24.0267 163.74 23.4816 162.94 22.991ZM164.821 26.9159H166.456V31.0589C166.456 31.4224 166.511 31.8403 166.62 32.3127C166.729 32.7852 166.911 33.294 167.165 33.8391C167.438 34.3661 167.81 34.893 168.283 35.42C168.755 35.9288 169.346 36.4285 170.054 36.9191C170.763 37.3916 171.608 37.8186 172.589 38.2002C172.317 38.5818 171.99 39.0451 171.608 39.5903C171.226 40.1354 170.927 40.5988 170.708 40.9804C169.854 40.6533 169.082 40.2353 168.392 39.7265C167.719 39.2178 167.138 38.6817 166.647 38.1184C166.157 37.5369 165.757 36.9736 165.448 36.4285C165.139 35.8652 164.921 35.3746 164.794 34.9566C164.648 35.3746 164.403 35.8561 164.058 36.4012C163.731 36.9464 163.295 37.5097 162.75 38.0912C162.204 38.6545 161.559 39.1814 160.814 39.672C160.087 40.1808 159.252 40.6169 158.307 40.9804C158.18 40.726 158.007 40.4261 157.789 40.0809C157.589 39.7538 157.371 39.4267 157.135 39.0996C156.898 38.7907 156.68 38.5273 156.481 38.3092C157.534 37.9458 158.434 37.5188 159.179 37.0281C159.942 36.5375 160.578 36.0287 161.087 35.5018C161.596 34.9566 161.995 34.4206 162.286 33.8936C162.595 33.3485 162.804 32.8306 162.913 32.34C163.04 31.8494 163.104 31.4224 163.104 31.0589V26.9159H164.821ZM163.349 15.3319H166.565C166.493 16.9673 166.347 18.4573 166.129 19.8019C165.929 21.1466 165.566 22.355 165.039 23.4271C164.53 24.481 163.776 25.4077 162.777 26.2073C161.796 27.0068 160.478 27.6973 158.825 28.2788C158.679 27.879 158.425 27.4247 158.061 26.9159C157.698 26.389 157.344 25.9801 156.998 25.6894C158.434 25.2533 159.561 24.7263 160.378 24.1085C161.196 23.4725 161.805 22.7366 162.204 21.9007C162.622 21.0467 162.904 20.0836 163.049 19.0115C163.195 17.9212 163.295 16.6947 163.349 15.3319ZM159.342 16.9673L162.014 17.4851C161.886 18.4119 161.641 19.3386 161.278 20.2653C160.914 21.192 160.433 21.9643 159.833 22.5821L157.298 21.4646C157.789 20.974 158.216 20.3107 158.579 19.4749C158.943 18.639 159.197 17.8031 159.342 16.9673ZM159.015 28.7966L161.877 29.369C161.696 30.423 161.387 31.4587 160.951 32.4763C160.533 33.4757 159.988 34.3116 159.315 34.9839L156.644 33.6211C157.226 33.1123 157.716 32.4127 158.116 31.5223C158.534 30.6319 158.834 29.7234 159.015 28.7966ZM168.964 16.7765L172.099 17.7577C171.644 18.5754 171.181 19.384 170.708 20.1835C170.254 20.9649 169.836 21.6372 169.455 22.2005L167.002 21.2738C167.238 20.874 167.483 20.4107 167.738 19.8837C167.992 19.3568 168.228 18.8207 168.446 18.2756C168.664 17.7304 168.837 17.2307 168.964 16.7765ZM169.128 28.6058L172.344 29.6143C171.853 30.4502 171.354 31.2952 170.845 32.1492C170.354 33.0032 169.891 33.721 169.455 34.3025L166.92 33.3758C167.192 32.9396 167.465 32.449 167.738 31.9039C168.01 31.3406 168.264 30.7682 168.501 30.1867C168.755 29.6053 168.964 29.0783 169.128 28.6058ZM148.085 23.6996H156.317V26.18H148.085V23.6996ZM148.195 16.2041H156.262V18.6572H148.195V16.2041ZM148.085 27.4338H156.317V29.8869H148.085V27.4338ZM146.804 19.8565H157.216V22.4458H146.804V19.8565ZM149.503 31.1952H156.372V39.5085H149.503V36.9191H153.564V33.7846H149.503V31.1952ZM148.031 31.1952H150.784V40.5715H148.031V31.1952ZM185.482 31.495L184.746 22.1733L184.609 18.112H189.134L188.998 22.1733L188.262 31.495H185.482ZM186.872 38.7453C186.181 38.7453 185.609 38.5182 185.155 38.0639C184.7 37.6096 184.473 37.0372 184.473 36.3467C184.473 35.6381 184.7 35.0566 185.155 34.6023C185.609 34.148 186.181 33.9209 186.872 33.9209C187.562 33.9209 188.135 34.148 188.589 34.6023C189.043 35.0566 189.27 35.6381 189.27 36.3467C189.27 37.0372 189.043 37.6096 188.589 38.0639C188.135 38.5182 187.562 38.7453 186.872 38.7453Z" fill="white"/>
<g filter="url(#filter0_d_499_187)">
<path d="M177.229 47.5083L174.517 44.9707C173.624 44.1351 172.206 44.1985 171.351 45.1125C170.496 46.0265 170.526 47.445 171.42 48.2809L174.131 50.8185L177.229 47.5083Z" fill="#FFB2BE"/>
<path d="M174.427 51.0951L169.349 46.3432C168.456 45.5076 167.054 45.5539 166.218 46.4472C165.382 47.3402 165.429 48.7419 166.322 49.5778L171.4 54.3297L174.427 51.0951Z" fill="#FFB2BE"/>
<path d="M171.4 54.3292L164.881 48.2285C163.987 47.3926 162.586 47.4391 161.75 48.3324C160.914 49.2254 160.961 50.6272 161.854 51.4631L168.374 57.5641L171.401 54.3295L171.4 54.3292Z" fill="#FFB2BE"/>
<path d="M166.347 55.6669L154.726 44.7922C153.833 43.9566 152.431 44.0028 151.595 44.8961C150.759 45.7891 150.806 47.1909 151.699 48.0268L163.32 58.9015L166.347 55.6669Z" fill="#FFB2BE"/>
<path d="M160.971 56.2059L161.034 57.2529C161.188 59.833 163.184 62.3763 165.377 63.7437L165.791 64.0019C168.43 65.6738 173.143 65.8194 173.143 65.8194L182.955 55.2982L181.147 51.6627C180.847 51.0593 180.442 50.5145 179.949 50.0538L175.248 45.6544" fill="#FFB2BE"/>
<path d="M185.845 57.8514L182.907 55.1025L172.818 65.884L175.756 68.6328L185.845 57.8514Z" fill="#74FAC8"/>
<path d="M190.195 61.922L185.708 57.7231L175.619 68.5046L180.106 72.7035L190.195 61.922Z" fill="#005794"/>
<path d="M161.537 51.0494C161.537 51.0494 161.833 51.1409 162.204 51.3557C162.582 51.5625 163.032 51.8957 163.44 52.2753C163.846 52.6558 164.209 53.0829 164.44 53.4472C164.679 53.8029 164.789 54.0922 164.789 54.0922C164.789 54.0922 164.493 54.0015 164.122 53.7865C163.744 53.58 163.294 53.2462 162.887 52.866C162.481 52.4846 162.119 52.0574 161.887 51.6935C161.648 51.3386 161.537 51.0494 161.537 51.0494Z" fill="#FF858E"/>
<path d="M165.761 48.9047C165.761 48.9047 166.057 48.9963 166.427 49.211C166.806 49.4178 167.256 49.751 167.663 50.1306C168.069 50.5111 168.432 50.9383 168.663 51.3026C168.903 51.6582 169.013 51.9475 169.013 51.9475C169.013 51.9475 168.716 51.8568 168.346 51.6418C167.967 51.4353 167.518 51.1015 167.111 50.7213C166.705 50.34 166.342 49.9128 166.111 49.5488C165.872 49.194 165.761 48.9047 165.761 48.9047Z" fill="#FF858E"/>
<path d="M170.872 47.591C170.872 47.591 171.113 47.6306 171.4 47.7676C171.695 47.8964 172.035 48.1259 172.331 48.4016C172.626 48.6784 172.878 49.0016 173.026 49.2879C173.182 49.5656 173.236 49.8031 173.236 49.8031C173.236 49.8031 172.996 49.7645 172.708 49.6271C172.413 49.4986 172.074 49.2685 171.778 48.9923C171.484 48.7149 171.232 48.3914 171.084 48.1054C170.928 47.8283 170.872 47.591 170.872 47.591Z" fill="#FF858E"/>
</g>
<defs>
<filter id="filter0_d_499_187" x="146.997" y="44.1946" width="47.1976" height="36.5089" filterUnits="userSpaceOnUse" color-interpolation-filters="sRGB">
<feFlood flood-opacity="0" result="BackgroundImageFix"/>
<feColorMatrix in="SourceAlpha" type="matrix" values="0 0 0 0 0 0 0 0 0 0 0 0 0 0 0 0 0 0 127 0" result="hardAlpha"/>
<feOffset dy="4"/>
<feGaussianBlur stdDeviation="2"/>
<feComposite in2="hardAlpha" operator="out"/>
<feColorMatrix type="matrix" values="0 0 0 0 0 0 0 0 0 0 0 0 0 0 0 0 0 0 0.25 0"/>
<feBlend mode="normal" in2="BackgroundImageFix" result="effect1_dropShadow_499_187"/>
<feBlend mode="normal" in="SourceGraphic" in2="effect1_dropShadow_499_187" result="shape"/>
</filter>
<linearGradient id="paint0_linear_499_187" x1="123.5" y1="12.8017" x2="123.5" y2="95.8448" gradientUnits="userSpaceOnUse">
<stop stop-color="#74A3FA"/>
<stop offset="1" stop-color="#005794"/>
</linearGradient>
</defs>
</svg>
