<svg width="247" height="85" viewBox="0 0 247 85" fill="none" xmlns="http://www.w3.org/2000/svg">
<path d="M18.5107 6.04545V13.6349L21.4283 10.7081L22.1485 11.419L18.0029 15.5554L13.8665 11.419L14.5682 10.7081L17.4951 13.6349V6.04545H18.5107Z" fill="#005794"/>
<path d="M39.423 11.379L39.293 10.066C39.579 10.092 39.696 10.105 39.995 10.105C40.034 10.105 40.125 10.105 40.229 10.105C40.528 9.715 40.58 9.637 40.827 9.286C40.32 8.532 39.956 8.064 39.267 7.349L39.93 6.309C40.138 6.543 40.19 6.621 40.333 6.777C40.801 5.997 41.126 5.269 41.269 4.697L42.504 5.23C42.4 5.373 42.374 5.425 42.257 5.659C41.828 6.517 41.568 6.972 41.087 7.674C41.269 7.895 41.36 8.012 41.529 8.259C42.192 7.219 42.465 6.699 42.673 6.114L43.869 6.712C43.83 6.777 43.739 6.92 43.349 7.518C43.934 7.154 44.454 6.647 44.883 5.997C45.182 5.542 45.364 5.217 45.481 4.866L46.69 5.451C46.664 5.49 46.638 5.516 46.625 5.542C46.56 5.646 46.547 5.646 46.495 5.75C45.611 7.271 45.169 7.804 44.155 8.584C43.882 8.129 43.687 7.895 43.297 7.596C42.127 9.377 42.036 9.507 41.581 10.066C42.218 10.04 42.335 10.027 42.894 9.975C42.777 9.702 42.725 9.572 42.53 9.156L43.349 8.792C43.739 9.494 44.012 10.235 44.272 11.21L43.323 11.574C43.271 11.327 43.258 11.249 43.206 11.028C43.076 11.054 43.076 11.054 42.829 11.08C42.803 11.08 42.712 11.093 42.335 11.132V15.071C42.335 15.682 42.361 16.033 42.413 16.371L41.061 16.384C41.113 16.007 41.139 15.63 41.139 15.084V11.223C39.657 11.327 39.657 11.327 39.423 11.379ZM50.46 10.495L49.342 11.223C49.082 10.677 48.991 10.495 48.861 10.235C47.925 10.391 47.873 10.391 46.547 10.521C47.21 10.924 47.834 11.392 48.367 11.886L47.496 12.796C46.833 12.042 46.443 11.73 45.546 11.197L46.313 10.547C46.105 10.573 46.105 10.573 45.78 10.599C45.39 10.638 45.104 10.664 44.922 10.69C44.61 10.716 44.493 10.729 44.285 10.768L44.103 9.455C44.285 9.468 44.376 9.468 44.532 9.468C44.636 9.468 44.688 9.468 44.922 9.468C45.546 8.48 46.131 7.284 46.313 6.569L47.6 6.972L47.08 7.973C46.612 8.883 46.508 9.052 46.3 9.39C47.548 9.312 47.717 9.299 48.289 9.221C48.055 8.844 47.925 8.649 47.535 8.116L48.523 7.57C49.342 8.636 49.745 9.247 50.46 10.495ZM43.752 14.122L42.907 14.395C42.842 13.316 42.777 12.848 42.556 11.977L43.492 11.717C43.726 12.705 43.804 13.121 43.856 13.81C44.025 13.199 44.077 12.835 44.116 12.185L45.234 12.445C45.078 13.888 44.909 14.577 44.467 15.695L43.336 15.032C43.557 14.616 43.622 14.486 43.752 14.122ZM39.787 11.795L40.853 11.964C40.775 13.667 40.658 14.486 40.346 15.682L39.267 15.214C39.605 14.135 39.722 13.394 39.787 11.795ZM47.34 5.438L48.445 4.801C48.835 5.438 49.16 5.854 49.615 6.244C50.109 6.699 50.473 6.946 50.967 7.193C50.668 7.544 50.486 7.843 50.226 8.389C49.16 7.7 48.419 6.972 47.561 5.75C47.496 5.659 47.496 5.659 47.34 5.438ZM45.416 12.055H46.729C46.703 12.341 46.69 12.588 46.69 12.848V14.72C46.69 14.98 46.716 14.993 47.275 14.993C47.522 14.993 47.769 14.941 47.821 14.876C47.951 14.72 47.99 14.473 48.003 13.563C48.393 13.797 48.679 13.888 49.121 13.94C48.965 15.981 48.796 16.163 46.963 16.163C46.352 16.163 45.936 16.085 45.715 15.942C45.546 15.838 45.481 15.643 45.481 15.266V12.991C45.481 12.679 45.455 12.367 45.416 12.055ZM48.601 12.25L49.693 11.782C50.252 12.913 50.512 13.563 50.915 14.915L49.693 15.5C49.394 14.096 49.134 13.329 48.601 12.25ZM59.001 12.757H58.039C57.558 12.757 57.337 12.77 57.051 12.809V11.613C56.908 11.938 56.869 12.029 56.713 12.341C56.362 11.99 56.206 11.886 55.803 11.665C56.115 11.145 56.349 10.625 56.505 10.066H55.725L55.751 15.123C55.751 15.448 55.699 15.669 55.595 15.838C55.413 16.111 55.062 16.228 54.347 16.228C54.087 16.228 53.645 16.202 53.294 16.176C53.268 15.708 53.216 15.422 53.034 14.954C53.528 15.045 53.905 15.097 54.139 15.097C54.477 15.097 54.542 15.045 54.542 14.785L54.529 11.808C54.048 12.9 53.476 13.719 52.683 14.447C52.501 13.862 52.358 13.537 52.072 13.082C53.073 12.224 53.658 11.405 54.178 10.066H53.32C52.839 10.066 52.54 10.079 52.267 10.131V8.818C52.579 8.857 52.878 8.87 53.398 8.87H54.646C54.009 8.259 53.567 7.882 52.982 7.453L53.762 6.712C54.503 7.271 54.542 7.31 54.828 7.544C55.231 7.232 55.517 6.92 55.842 6.452H53.658C53.229 6.452 52.917 6.465 52.592 6.504V5.217C52.904 5.256 53.216 5.269 53.762 5.269H55.907C56.531 5.269 56.7 5.256 56.96 5.23L57.636 5.958C57.584 6.023 57.493 6.127 57.363 6.309C56.804 7.076 56.102 7.882 55.621 8.272C55.738 8.389 55.777 8.441 55.894 8.571L55.621 8.87H56.362C56.804 8.87 57.051 8.857 57.272 8.831L57.818 9.494C57.766 9.585 57.727 9.663 57.662 9.884C58.442 9.689 59.105 9.442 59.703 9.104C59.274 8.688 58.949 8.272 58.689 7.817C58.351 8.246 58.208 8.415 57.727 8.922C57.441 8.571 57.181 8.337 56.778 8.077C57.701 7.271 58.208 6.608 58.637 5.659C58.819 5.282 58.871 5.113 58.949 4.71L60.249 4.97C60.21 5.035 60.145 5.191 60.054 5.412C59.989 5.568 59.976 5.62 59.846 5.893H62.446C63.005 5.893 63.447 5.867 63.759 5.828V7.089C63.486 7.063 63.265 7.05 62.862 7.05C62.472 7.96 62.199 8.402 61.627 9.013C62.329 9.338 62.966 9.52 64.019 9.702C63.72 10.196 63.629 10.404 63.447 11.002C62.095 10.625 61.354 10.313 60.639 9.845C60.301 10.079 60.002 10.235 59.469 10.469L60.756 10.495C60.743 10.586 60.743 10.586 60.73 10.664C60.73 10.716 60.717 10.794 60.704 10.885C60.691 10.95 60.691 10.963 60.678 11.08C60.652 11.249 60.639 11.353 60.6 11.574H62.394C62.914 11.574 63.148 11.561 63.369 11.535C63.343 11.834 63.343 11.834 63.317 12.068C63.226 13.524 63.057 14.694 62.888 15.201C62.641 15.968 62.316 16.163 61.341 16.163C60.99 16.163 60.587 16.137 60.015 16.072C59.976 15.578 59.911 15.292 59.716 14.785C60.301 14.902 60.782 14.954 61.159 14.954C61.562 14.954 61.692 14.798 61.822 14.174C61.913 13.771 61.952 13.381 61.978 12.757H60.353C59.82 14.46 58.819 15.487 56.856 16.358C56.635 15.929 56.414 15.604 56.076 15.24C57.675 14.655 58.507 13.94 59.001 12.757ZM58.117 11.574H59.313C59.352 11.236 59.378 10.924 59.378 10.625C59.378 10.573 59.378 10.573 59.365 10.521C58.884 10.729 58.611 10.833 57.935 11.041C57.792 10.729 57.74 10.612 57.532 10.3C57.35 10.833 57.298 11.002 57.09 11.535C57.311 11.561 57.558 11.574 58.117 11.574ZM61.523 7.05H59.56C59.807 7.531 60.145 7.96 60.639 8.389C61.081 7.947 61.289 7.635 61.523 7.05ZM65.449 11.353L65.306 10.053C65.488 10.079 65.618 10.092 65.904 10.092C65.969 10.092 66.06 10.092 66.359 10.092C66.528 9.871 66.632 9.728 66.944 9.273C66.411 8.519 65.852 7.882 65.254 7.349L65.904 6.283C66.151 6.53 66.216 6.595 66.385 6.777C66.827 6.036 67.243 5.126 67.347 4.684L68.608 5.178C68.491 5.373 68.491 5.373 68.14 6.049C67.867 6.595 67.542 7.154 67.204 7.661C67.386 7.882 67.386 7.882 67.659 8.22C68.491 6.868 68.621 6.647 68.842 6.062L69.947 6.712C69.817 6.894 69.817 6.894 69.193 7.869C68.816 8.467 68.088 9.494 67.659 10.04C68.348 10.001 68.543 9.988 69.011 9.936C68.907 9.637 68.829 9.442 68.608 8.935L69.44 8.519C69.96 9.65 70.168 10.183 70.454 11.132L69.505 11.6C69.427 11.301 69.401 11.171 69.349 10.989C68.907 11.054 68.777 11.067 68.517 11.093V15.032C68.517 15.643 68.53 15.968 68.582 16.345H67.217C67.269 15.955 67.295 15.643 67.295 15.032V11.197C66.892 11.223 66.554 11.249 66.242 11.275C65.67 11.301 65.644 11.314 65.449 11.353ZM73.834 11.769H74.965C75.485 11.769 75.849 11.743 76.174 11.704V13.017C75.823 12.978 75.42 12.965 74.965 12.965H73.834V14.694H75.368C76.044 14.694 76.382 14.681 76.72 14.629V15.981C76.317 15.929 75.927 15.903 75.342 15.903H71.247C70.701 15.903 70.298 15.929 69.882 15.981V14.642C70.22 14.681 70.519 14.694 71.065 14.694H72.534V12.965H71.689C71.221 12.965 70.831 12.978 70.454 13.017V11.704C70.779 11.756 71.104 11.769 71.702 11.769H72.534V11.522C72.534 10.898 72.508 10.573 72.456 10.326H73.886C73.847 10.638 73.834 10.963 73.834 11.522V11.769ZM75.537 5.243L76.317 5.984C75.875 6.673 75.446 7.297 75.329 7.453C75.017 7.869 74.64 8.285 74.25 8.662C75.082 9.104 75.81 9.364 76.915 9.585C76.616 10.066 76.512 10.313 76.33 10.937C75.004 10.534 74.081 10.118 73.197 9.52C72.443 10.053 71.884 10.352 70.883 10.768C70.649 10.313 70.454 10.04 70.077 9.598C70.909 9.338 71.507 9.078 72.157 8.688C71.481 8.025 71.026 7.375 70.597 6.517C70.272 6.53 70.142 6.543 69.934 6.569V5.23C70.233 5.269 70.649 5.295 71.299 5.295H74.549C75.043 5.295 75.29 5.282 75.537 5.243ZM74.432 6.517H71.949C72.287 7.115 72.599 7.479 73.171 7.947C73.769 7.414 74.042 7.115 74.432 6.517ZM65.8 11.782L66.879 11.99C66.814 13.745 66.736 14.395 66.45 15.747L65.306 15.292C65.631 14.226 65.748 13.394 65.8 11.782ZM68.868 11.964L69.804 11.704C69.986 12.38 70.051 12.848 70.181 14.356L69.128 14.655C69.115 13.602 69.063 12.991 68.868 11.964ZM85.261 14.72V13.42H83.87C83.168 13.42 82.895 13.433 82.57 13.472V12.198C82.882 12.237 83.129 12.25 83.857 12.25H85.261V11.249H84.078C83.259 11.249 82.908 11.262 82.57 11.288C82.609 10.989 82.622 10.508 82.622 9.741V6.92C82.622 6.049 82.609 5.672 82.557 5.243C83.025 5.295 83.454 5.308 84.247 5.308H87.679C88.602 5.308 88.979 5.295 89.291 5.243C89.265 5.607 89.239 6.205 89.239 6.946V9.611C89.239 10.469 89.252 10.924 89.291 11.288C88.836 11.249 88.693 11.249 87.939 11.249H86.509V12.25H88.095C88.784 12.25 89.057 12.237 89.421 12.185V13.485C89.057 13.433 88.732 13.42 88.108 13.42H86.509V14.72H88.511C89.161 14.72 89.499 14.707 89.824 14.655V15.994C89.395 15.942 89.096 15.929 88.42 15.929H83.181C82.492 15.929 82.219 15.942 81.751 15.994V14.655C82.089 14.707 82.375 14.72 83.025 14.72H85.261ZM85.261 6.517H83.87V7.765H85.261V6.517ZM86.509 6.517V7.765H87.939V6.517H86.509ZM85.261 8.805H83.87V10.079H85.261V8.805ZM86.509 8.805V10.079H87.939V8.805H86.509ZM79.697 6.634H79.216C78.813 6.634 78.592 6.647 78.28 6.686V5.36C78.579 5.399 78.917 5.425 79.424 5.425H81.192C81.673 5.425 81.972 5.412 82.284 5.36V6.686C81.972 6.647 81.725 6.634 81.374 6.634H80.997V9.078H81.283C81.608 9.078 81.803 9.065 82.076 9.026V10.287C81.816 10.261 81.582 10.248 81.283 10.248H80.997V12.705C81.582 12.458 81.699 12.393 82.219 12.146L82.245 13.459C81.192 13.979 80.646 14.226 78.748 14.993C78.683 15.019 78.618 15.045 78.501 15.097L78.163 13.68C78.618 13.589 78.878 13.511 79.697 13.212V10.248H79.294C78.93 10.248 78.709 10.261 78.436 10.3V9.026C78.735 9.065 78.917 9.078 79.32 9.078H79.697V6.634ZM99.158 5.906V6.985C98.898 6.972 98.898 6.972 98.768 6.972C98.664 7.505 98.573 7.934 98.456 8.311H99.444C99.431 7.258 99.418 6.413 99.418 5.776C99.418 5.282 99.405 5.165 99.366 4.879H100.679C100.627 5.295 100.614 5.529 100.614 6.413C100.614 6.92 100.614 7.44 100.64 8.311H101.368C102.109 8.311 102.369 8.298 102.759 8.246V9.546C102.278 9.494 102.122 9.481 101.368 9.481H100.679C100.744 10.521 100.809 11.106 100.913 11.769C101.251 11.106 101.537 10.378 101.615 9.988L102.629 10.638C102.551 10.794 102.46 11.002 102.356 11.236C102.096 11.873 101.641 12.731 101.29 13.29C101.511 13.966 101.81 14.577 101.901 14.577C101.992 14.577 102.07 13.992 102.109 13.017C102.434 13.29 102.798 13.537 103.11 13.68C103.006 14.655 102.902 15.136 102.733 15.5C102.564 15.864 102.291 16.072 101.966 16.072C101.433 16.072 100.861 15.474 100.406 14.46C99.795 15.175 99.262 15.669 98.404 16.306C98.079 15.799 97.962 15.669 97.611 15.344C98.053 15.058 98.209 14.954 98.469 14.746H96.545V15.565H95.414C95.453 15.201 95.466 14.902 95.466 14.473V11.093C95.466 10.534 95.466 10.352 95.427 9.975C95.648 10.014 95.778 10.014 96.22 10.014H98.209C98.573 10.014 98.716 10.001 99.028 9.975C98.989 10.248 98.989 10.456 98.989 11.093V13.771C98.989 14.187 98.989 14.187 98.989 14.291C99.34 13.966 99.561 13.732 99.99 13.212C99.717 12.198 99.6 11.366 99.483 9.481H94.855V15.006C94.855 15.669 94.868 15.968 94.92 16.332H93.659C93.711 15.981 93.724 15.578 93.724 14.993V14.07C93.087 14.278 92.58 14.421 92.151 14.538C91.54 14.707 91.54 14.707 91.306 14.798L91.02 13.459C91.15 13.459 91.306 13.433 91.709 13.355V6.4C91.462 6.413 91.332 6.426 91.15 6.452V5.126C91.423 5.165 91.722 5.191 92.203 5.191H94.179C94.686 5.191 94.972 5.178 95.245 5.126V5.893C95.518 5.932 95.687 5.945 96.025 5.945H96.61V5.867C96.61 5.36 96.597 5.139 96.545 4.853H97.897C97.845 5.139 97.832 5.386 97.832 5.867V5.945H98.274C98.729 5.945 98.898 5.932 99.158 5.906ZM97.728 6.959H96.701C96.792 7.323 96.844 7.7 96.922 8.311H97.442C97.572 7.908 97.663 7.44 97.728 6.959ZM94.855 8.311H95.921C95.869 7.96 95.752 7.388 95.635 6.959C95.466 6.972 95.427 6.972 95.219 6.998V6.426C95.076 6.413 95.037 6.413 94.855 6.4V8.311ZM92.853 6.4V7.869H93.724V6.4H92.853ZM92.853 8.974V10.313H93.724V8.974H92.853ZM92.853 11.418V13.095C93.334 12.978 93.412 12.952 93.724 12.861V11.418H92.853ZM96.532 11.054V11.86H97.949V11.054H96.532ZM96.532 12.835V13.719H97.949V12.835H96.532ZM100.848 5.854L101.758 5.373C102.2 6.023 102.421 6.452 102.746 7.258L101.771 7.83C101.485 6.933 101.303 6.543 100.848 5.854ZM108.18 8.025V9.299C107.946 9.26 107.712 9.247 107.374 9.247H107.192C107.634 10.157 107.881 10.521 108.375 11.015C108.089 11.405 107.92 11.743 107.777 12.198C107.491 11.756 107.322 11.444 107.062 10.82C107.088 11.145 107.101 11.223 107.101 11.561C107.101 11.691 107.114 11.821 107.114 11.964C107.114 12.185 107.127 12.341 107.127 12.432V14.889C107.127 15.578 107.14 15.89 107.192 16.345H105.814C105.866 15.864 105.892 15.487 105.892 14.889V12.913C105.905 12.302 105.905 12.302 105.918 11.99C105.918 11.665 105.931 11.535 105.957 11.184C105.671 12.185 105.268 13.017 104.657 13.914C104.475 13.381 104.293 13.017 104.02 12.614C104.566 11.912 104.865 11.392 105.255 10.56C105.476 10.079 105.671 9.585 105.762 9.247H105.242C104.904 9.247 104.631 9.26 104.345 9.312V7.999C104.657 8.038 104.904 8.051 105.268 8.051H105.892V6.647C105.554 6.725 105.32 6.764 104.696 6.881C104.54 6.4 104.449 6.153 104.215 5.724C105.281 5.633 106.386 5.36 107.27 4.996C107.504 4.905 107.595 4.853 107.738 4.762L108.427 5.854C108.271 5.919 107.959 6.036 107.751 6.114C107.634 6.153 107.491 6.205 107.127 6.322V8.051H107.387C107.686 8.051 107.829 8.051 108.063 8.025V6.894C108.362 6.933 108.752 6.946 109.246 6.946H111.092V6.426C110.442 6.465 110 6.465 108.869 6.478C108.739 6.036 108.609 5.763 108.401 5.425C108.882 5.438 109.259 5.438 109.415 5.438C111.443 5.438 113.705 5.178 114.563 4.853L115.382 5.919C115.304 5.945 115.304 5.945 115.018 5.997C114.394 6.127 113.367 6.257 112.301 6.348V6.946H114.42C114.927 6.946 115.33 6.92 115.668 6.868V8.038C115.33 8.012 115.005 7.999 114.524 7.999H112.301V8.506H113.9C114.498 8.506 114.771 8.493 115.109 8.467C115.07 8.753 115.07 8.961 115.07 9.52V11.509C115.07 12.12 115.07 12.38 115.109 12.679C114.745 12.653 114.55 12.64 114.03 12.64H112.301V13.212H114.004C114.654 13.212 114.914 13.199 115.239 13.16V14.33C114.862 14.291 114.446 14.278 114.004 14.278H112.301V14.902H114.381C114.94 14.902 115.382 14.876 115.72 14.837V16.046C115.369 15.994 114.927 15.968 114.316 15.968H109.194C108.557 15.968 108.154 15.994 107.803 16.033V14.85C108.102 14.889 108.557 14.902 109.181 14.902H111.092V14.278H109.493C108.895 14.278 108.661 14.291 108.258 14.317V13.16C108.596 13.199 108.856 13.212 109.493 13.212H111.092V12.64H109.545C109.012 12.64 108.778 12.653 108.479 12.679C108.505 12.38 108.518 12.055 108.518 11.483V9.546C108.518 9 108.505 8.727 108.479 8.467C108.817 8.493 109.064 8.506 109.649 8.506H111.092V7.999H109.259C108.856 7.999 108.414 8.012 108.18 8.025ZM111.092 9.507H109.688V10.105H111.092V9.507ZM111.092 11.002H109.688V11.626H111.092V11.002ZM112.301 11.626H113.874V11.002H112.301V11.626ZM112.301 10.105H113.874V9.507H112.301V10.105ZM123.936 7.57C123.572 10.313 123.143 11.808 122.35 13.173C121.726 14.252 120.868 14.85 119.984 14.85C118.632 14.85 117.67 13.524 117.67 11.678C117.67 9.624 118.71 7.856 120.491 6.92C121.362 6.452 122.298 6.244 123.533 6.244C126.25 6.244 128.265 8.168 128.265 10.742C128.265 13.017 127.147 14.655 124.989 15.578C124.56 15.76 124.222 15.864 124.053 15.864C123.897 15.864 123.832 15.812 123.663 15.565C123.442 15.227 123.195 14.98 122.844 14.746C125.522 14.057 126.731 12.796 126.731 10.69C126.731 9.611 126.276 8.701 125.47 8.129C125.015 7.817 124.651 7.687 123.936 7.57ZM122.454 7.635C121.531 7.83 121.076 8.051 120.478 8.571C119.607 9.338 119.113 10.43 119.113 11.652C119.113 12.653 119.438 13.238 119.984 13.238C120.634 13.238 121.297 12.341 121.791 10.794C122.103 9.819 122.259 9.078 122.454 7.635ZM135.181 6.647V5.88C135.181 5.477 135.155 5.152 135.103 4.853H136.702C136.65 5.1 136.624 5.438 136.624 5.88V6.647H140.069C140.771 6.647 141.226 6.621 141.642 6.556V8.077C141.265 8.025 140.849 7.999 140.108 7.999H135.545C135.532 8.103 135.532 8.103 135.532 8.246C135.506 8.701 135.48 8.948 135.441 9.338H138.899C139.562 9.338 139.887 9.325 140.199 9.286C140.186 9.338 140.186 9.377 140.186 9.403C140.16 9.598 140.16 9.689 140.134 10.274C140.069 12.237 139.926 13.732 139.705 14.655C139.419 15.838 139.003 16.15 137.755 16.15C137.313 16.15 137.027 16.137 136.065 16.072C136.013 15.487 135.909 15.071 135.714 14.616C136.416 14.733 137.027 14.785 137.586 14.785C138.132 14.785 138.249 14.642 138.418 13.784C138.574 13.03 138.639 12.289 138.691 10.651H135.246C134.713 13.173 133.608 14.746 131.229 16.306C130.917 15.76 130.696 15.487 130.228 15.11C131.333 14.434 131.853 14.005 132.464 13.277C133.543 11.977 133.959 10.547 134.024 7.999H131.983C131.359 7.999 130.839 8.025 130.41 8.077V6.556C130.865 6.621 131.32 6.647 131.97 6.647H135.181ZM146.569 11.054L146.907 8.948C145.984 8.766 145.282 8.493 144.801 8.155C144.567 7.999 144.515 7.934 144.515 7.817C144.515 7.674 144.619 7.414 144.983 6.686C145.62 7.089 146.335 7.375 147.154 7.544C147.336 6.634 147.414 5.88 147.427 5.035C148.09 5.152 148.675 5.347 149 5.529C149.143 5.607 149.195 5.685 149.182 5.789C149.182 5.841 149.156 5.893 149.091 6.023C148.896 6.426 148.883 6.465 148.61 7.739C148.74 7.752 148.909 7.752 149.013 7.752C149.026 7.752 149.065 7.752 149.104 7.752C149.416 7.739 149.65 7.739 149.767 7.739H149.806C149.923 7.739 149.962 7.791 149.962 7.96C149.962 8.532 149.923 9 149.871 9.091C149.832 9.156 149.663 9.182 149.117 9.182C148.87 9.182 148.675 9.169 148.311 9.156C148.038 10.495 148.038 10.495 147.921 11.197C148.363 11.236 148.454 11.236 148.675 11.236L149.403 11.223C149.533 11.223 149.598 11.249 149.637 11.314C149.689 11.392 149.728 11.808 149.728 12.276C149.728 12.51 149.715 12.575 149.637 12.614C149.572 12.64 149.286 12.653 148.792 12.653C148.558 12.653 148.207 12.64 147.752 12.614C147.739 12.848 147.739 13.004 147.739 13.108C147.739 14.304 148.298 14.85 149.52 14.85C150.885 14.85 151.704 14.187 151.704 13.069C151.704 12.666 151.613 12.302 151.405 11.899C151.145 11.405 150.898 11.119 150.274 10.625C150.326 10.625 150.365 10.625 150.391 10.625C150.599 10.625 151.041 10.56 151.431 10.482C151.639 10.443 151.717 10.43 151.782 10.43C151.977 10.43 152.107 10.521 152.367 10.846C152.965 11.574 153.264 12.341 153.264 13.147C153.264 14.98 151.782 16.189 149.533 16.189C147.427 16.189 146.374 15.136 146.374 13.004C146.374 12.822 146.374 12.679 146.4 12.458C145.113 12.185 144.411 11.548 144.411 10.625C144.411 10.144 144.554 9.793 144.918 9.429C144.957 9.377 145.009 9.364 145.061 9.364C145.139 9.364 145.23 9.429 145.529 9.676C145.763 9.871 145.802 9.91 145.802 9.975C145.802 10.027 145.802 10.027 145.724 10.144C145.672 10.235 145.62 10.378 145.62 10.456C145.62 10.625 145.724 10.768 145.919 10.859C146.101 10.95 146.153 10.963 146.569 11.054ZM158.672 13.953V13.459C158.087 13.797 157.723 13.966 156.93 14.265C156.696 13.797 156.527 13.537 156.202 13.186C157.242 12.926 158.269 12.471 158.997 11.951H157.684C157.099 11.951 156.709 11.977 156.319 12.016V10.833C156.722 10.885 157.112 10.898 157.723 10.898H160.193C160.323 10.755 160.427 10.612 160.505 10.495H158.815C158.412 10.495 158.087 10.508 157.814 10.521C157.853 10.235 157.866 9.975 157.866 9.663V7.869C157.866 7.57 157.853 7.284 157.814 7.011C158.048 7.024 158.308 7.037 158.815 7.037H159.361V6.569H157.736C157.151 6.569 156.826 6.582 156.358 6.647V5.438C156.774 5.49 157.203 5.516 157.762 5.516H159.361V5.451C159.361 5.152 159.348 4.996 159.309 4.775H160.7C160.661 5.009 160.661 5.139 160.661 5.451V5.516H163.235V5.451C163.235 5.139 163.222 4.983 163.183 4.775H164.574C164.548 4.996 164.535 5.152 164.535 5.451V5.516H166.212C166.758 5.516 167.187 5.49 167.616 5.438V6.647C167.148 6.582 166.836 6.569 166.251 6.569H164.535V7.037H165.198C165.718 7.037 165.978 7.024 166.199 7.011C166.173 7.271 166.16 7.518 166.16 7.869V9.663C166.16 10.014 166.173 10.248 166.199 10.521C165.939 10.508 165.601 10.495 165.198 10.495H161.883C161.766 10.703 161.701 10.794 161.623 10.898H166.277C166.888 10.898 167.291 10.885 167.694 10.833V12.016C167.291 11.964 166.914 11.951 166.316 11.951H164.977C165.302 12.198 165.757 12.445 166.303 12.666C166.784 12.861 167.174 12.965 167.941 13.108C167.668 13.498 167.473 13.849 167.304 14.304C166.576 14.044 166.043 13.823 165.588 13.576C165.471 14.746 165.38 15.162 165.211 15.552C164.99 16.059 164.509 16.241 163.391 16.241C163.157 16.241 162.923 16.228 162.416 16.202C162.364 15.747 162.247 15.396 162.013 14.993C162.559 15.084 162.91 15.123 163.274 15.123C163.781 15.123 164.002 15.058 164.093 14.863C164.171 14.707 164.223 14.408 164.275 13.901H162.052C161.298 15.279 159.972 16.046 157.775 16.384C157.593 15.955 157.424 15.682 157.099 15.279C158.789 15.123 159.894 14.681 160.583 13.901H159.764C159.27 13.901 158.958 13.914 158.672 13.953ZM163.352 11.951H160.713C160.401 12.263 159.842 12.731 159.556 12.913C159.595 12.913 159.595 12.913 159.686 12.913H161.129C161.22 12.653 161.246 12.51 161.246 12.198L162.65 12.25C162.624 12.302 162.559 12.523 162.455 12.913H164.522C164.08 12.627 163.781 12.367 163.352 11.951ZM163.235 7.037V6.569H160.661V7.037H163.235ZM159.114 7.895V8.298H164.899V7.895H159.114ZM159.114 9.143V9.572H164.899V9.143H159.114ZM175.988 9.949V10.586H178.926C179.498 10.586 179.81 10.573 180.135 10.534V11.613C179.797 11.574 179.524 11.561 178.939 11.561H175.637V12.211H179.186C179.927 12.211 180.278 12.198 180.603 12.146V13.407C180.2 13.355 179.81 13.342 179.186 13.342H176.703C177.652 14.031 179.251 14.642 180.824 14.915C180.577 15.253 180.486 15.409 180.369 15.643C180.356 15.669 180.304 15.786 180.239 15.955C180.213 16.007 180.174 16.098 180.122 16.202C179.147 15.942 178.406 15.669 177.626 15.279C176.755 14.85 176.222 14.486 175.598 13.888C175.624 14.317 175.637 14.577 175.637 14.72V15.435C175.637 15.89 175.65 16.072 175.715 16.332H174.22C174.285 16.072 174.298 15.864 174.298 15.448V14.72C174.298 14.421 174.311 14.161 174.337 13.901C173.7 14.525 173.089 14.954 172.088 15.422C171.399 15.734 170.749 15.955 169.865 16.189C169.67 15.708 169.449 15.318 169.163 14.928C170.827 14.668 172.296 14.083 173.206 13.342H170.801C170.177 13.342 169.8 13.355 169.384 13.407V12.146C169.722 12.198 170.047 12.211 170.801 12.211H174.298V11.561H171.841C171.347 11.561 171.1 11.574 170.788 11.587C170.814 11.314 170.827 11.002 170.827 10.599V9.039C170.827 8.623 170.84 8.311 170.866 7.973C170.502 8.389 170.229 8.636 169.709 9.039C169.501 8.506 169.345 8.233 169.059 7.83C170.047 7.141 170.71 6.439 171.36 5.425C171.529 5.139 171.672 4.853 171.75 4.606L173.193 4.84C172.751 5.568 172.712 5.62 172.517 5.893H174.74C175.039 5.451 175.234 5.087 175.39 4.632L176.807 4.814C176.495 5.347 176.365 5.581 176.144 5.893H178.848C179.407 5.893 179.719 5.88 180.057 5.828V6.998C179.745 6.959 179.498 6.946 179.03 6.946H175.988V7.544H178.393C179.004 7.544 179.212 7.531 179.576 7.492V8.506C179.186 8.454 179.069 8.454 178.393 8.454H175.988V9.039H178.393C179.017 9.039 179.199 9.026 179.576 8.987V10.001C179.225 9.962 179.056 9.949 178.393 9.949H175.988ZM174.688 9.949H172.127V10.586H174.688V9.949ZM174.688 9.039V8.454H172.127V9.039H174.688ZM174.688 7.544V6.946H172.127V7.544H174.688ZM187.22 6.92V6.153C187.22 5.516 187.207 5.204 187.142 4.788H188.728C188.676 5.191 188.65 5.516 188.65 6.101V6.92H192.056C192.602 6.92 192.875 6.907 193.2 6.868C193.161 7.219 193.148 7.479 193.148 7.973V11.769C193.148 12.328 193.161 12.653 193.213 13.017H191.731V12.276H188.65V14.798C188.65 15.552 188.676 15.929 188.741 16.358H187.129C187.194 15.916 187.22 15.513 187.22 14.798V12.276H184.282V13.017H182.8C182.852 12.614 182.865 12.302 182.865 11.769V7.96C182.865 7.492 182.852 7.271 182.813 6.868C183.164 6.907 183.437 6.92 183.944 6.92H187.22ZM187.22 8.246H184.282V10.95H187.22V8.246ZM188.65 10.95H191.731V8.246H188.65V10.95ZM201.936 5.295L201.572 13.082H200.415L200.064 5.295H201.936ZM201 13.979C201.572 13.979 202.027 14.434 202.027 15.006C202.027 15.578 201.572 16.033 201 16.033C200.428 16.033 199.973 15.578 199.973 15.006C199.973 14.434 200.428 13.979 201 13.979Z" fill="#005794"/>
<path d="M228.511 6.04545V13.6349L231.428 10.7081L232.148 11.419L228.003 15.5554L223.867 11.419L224.568 10.7081L227.495 13.6349V6.04545H228.511Z" fill="#005794"/>
<rect x="1.5" y="25.5" width="244" height="58" rx="29" fill="#74FAC8"/>
<rect x="1.5" y="25.5" width="244" height="58" rx="29" stroke="url(#paint0_linear_274_92)" stroke-width="3"/>
<path d="M34.5 60.5C34.5933 60.5 34.6867 60.4067 34.78 60.22C34.8733 60.0333 34.92 59.7267 34.92 59.3V49.7C34.92 49.2733 34.8733 48.9733 34.78 48.8C34.6867 48.6133 34.5933 48.5133 34.5 48.5H38.42C38.3267 48.5 38.2333 48.5933 38.14 48.78C38.0467 48.9667 38 49.28 38 49.72V57.66C38 57.9533 38.0333 58.1333 38.1 58.2C38.18 58.2533 38.42 58.28 38.82 58.28H43.64C44.4133 58.28 45.0333 58.1933 45.5 58.02C45.98 57.8333 46.2933 57.6533 46.44 57.48L45.84 59.88V60.5H34.5ZM47.6445 60.5C47.7379 60.5 47.8245 60.4133 47.9045 60.24C47.9979 60.0533 48.0445 59.74 48.0445 59.3V49.7C48.0445 49.2733 47.9979 48.9667 47.9045 48.78C47.8245 48.5933 47.7379 48.5 47.6445 48.5H51.5045C51.4112 48.5 51.3179 48.5933 51.2245 48.78C51.1312 48.9533 51.0845 49.2667 51.0845 49.72V59.3C51.0845 59.7267 51.1312 60.0333 51.2245 60.22C51.3179 60.4067 51.4112 60.5 51.5045 60.5H47.6445ZM53.5039 60.5C53.5972 60.5 53.6906 60.4067 53.7839 60.22C53.8772 60.0333 53.9239 59.7267 53.9239 59.3V49.7C53.9239 49.2733 53.8772 48.9733 53.7839 48.8C53.6906 48.6133 53.5972 48.5133 53.5039 48.5H57.4239C57.3306 48.5 57.3039 48.5933 57.3439 48.78C57.3972 48.9667 57.6172 49.2867 58.0039 49.74C58.1106 49.8467 58.2839 50.0467 58.5239 50.34C58.7772 50.62 59.0772 50.96 59.4239 51.36C59.7706 51.76 60.1372 52.1933 60.5239 52.66C60.9239 53.1267 61.3239 53.5933 61.7239 54.06C62.1372 54.5267 62.5306 54.9733 62.9039 55.4H62.9239V49.7C62.9239 49.2733 62.8772 48.9733 62.7839 48.8C62.6906 48.6133 62.5972 48.5133 62.5039 48.5H66.4239C66.3306 48.5 66.2372 48.5933 66.1439 48.78C66.0506 48.9667 66.0039 49.28 66.0039 49.72V59.3C66.0039 59.7267 66.0506 60.0333 66.1439 60.22C66.2372 60.4067 66.3306 60.5 66.4239 60.5H62.9839C63.0639 60.5 63.0706 60.4067 63.0039 60.22C62.9506 60.0333 62.7439 59.7133 62.3839 59.26C62.1972 59.02 61.9506 58.7133 61.6439 58.34C61.3372 57.9533 60.9906 57.5267 60.6039 57.06C60.2306 56.5933 59.8372 56.1067 59.4239 55.6C59.0106 55.0933 58.5972 54.6 58.1839 54.12C57.7839 53.6267 57.4106 53.1733 57.0639 52.76H57.0039V59.3C57.0039 59.7267 57.0506 60.0333 57.1439 60.22C57.2372 60.4067 57.3306 60.5 57.4239 60.5H53.5039ZM68.4258 60.5C68.5191 60.5 68.6124 60.4067 68.7058 60.22C68.7991 60.0333 68.8458 59.7267 68.8458 59.3V49.7C68.8458 49.2733 68.7991 48.9733 68.7058 48.8C68.6124 48.6133 68.5191 48.5133 68.4258 48.5H80.1058V49.1L80.5058 51.42C80.1724 51.2733 79.5858 51.12 78.7458 50.96C77.9058 50.7867 76.8924 50.7 75.7058 50.7H72.7458C72.3458 50.7 72.1058 50.7333 72.0258 50.8C71.9591 50.8533 71.9258 51.02 71.9258 51.3V52.78C71.9258 53.0733 71.9591 53.2467 72.0258 53.3C72.1058 53.3533 72.3391 53.38 72.7258 53.38H75.6058C76.3791 53.38 76.9991 53.34 77.4658 53.26C77.9458 53.1667 78.2591 53.0733 78.4058 52.98C78.3524 53.2333 78.2924 53.5267 78.2258 53.86C78.1591 54.1933 78.1058 54.5133 78.0658 54.82C78.0258 55.1267 78.0058 55.38 78.0058 55.58H72.7258C72.3391 55.58 72.1058 55.6067 72.0258 55.66C71.9591 55.7 71.9258 55.8733 71.9258 56.18V57.66C71.9258 57.9667 71.9591 58.1467 72.0258 58.2C72.0924 58.2533 72.3258 58.28 72.7258 58.28H78.1258C78.8991 58.28 79.5191 58.1933 79.9858 58.02C80.4658 57.8333 80.7791 57.6533 80.9258 57.48L80.5258 59.88V60.5H68.4258Z" fill="#005794"/>
<path d="M91.204 52.852C90.02 53.108 89.364 53.268 89.22 53.316C89.092 53.348 89.028 53.38 88.932 53.428C88.852 53.476 88.804 53.492 88.724 53.492C88.388 53.492 88.132 52.868 87.94 51.684C88.068 51.7 88.18 51.7 88.244 51.7C88.916 51.7 90.628 51.492 91.652 51.284C91.988 49.876 92.164 48.82 92.164 48.052C92.164 47.988 92.164 47.908 92.148 47.78C92.836 47.86 93.492 48.004 93.94 48.18C94.196 48.276 94.324 48.42 94.324 48.58C94.324 48.66 94.308 48.708 94.228 48.836C93.988 49.268 93.988 49.268 93.492 51.028C93.876 50.98 94.308 50.948 94.58 50.948C95.236 50.948 95.748 51.076 96.116 51.332C96.756 51.796 97.076 52.74 97.076 54.196C97.076 56.58 96.644 58.612 95.908 59.62C95.396 60.324 94.724 60.66 93.78 60.66C93.204 60.66 92.66 60.58 92.5 60.484C92.372 60.404 92.372 60.404 92.324 59.812C92.276 59.38 92.18 59.012 91.988 58.564C92.82 58.836 93.028 58.884 93.54 58.884C94.308 58.884 94.628 58.516 94.98 57.236C95.22 56.388 95.348 55.284 95.348 54.116C95.348 52.868 95.044 52.42 94.196 52.42C93.908 52.42 93.444 52.452 93.076 52.516C93.028 52.692 93.012 52.708 92.948 52.932C92.5 54.564 91.684 56.724 90.868 58.452C90.02 60.196 89.812 60.548 89.604 60.548C89.476 60.548 89.044 60.324 88.58 60.02C88.212 59.796 88.116 59.7 88.116 59.572C88.116 59.492 88.116 59.492 88.772 58.452C89.652 57.092 90.804 54.42 91.204 52.852ZM97.46 51.716C97.396 51.62 97.38 51.572 97.38 51.524C97.38 51.412 97.524 51.268 97.988 50.9C98.308 50.66 98.468 50.564 98.58 50.564C98.676 50.564 98.756 50.612 98.964 50.82C99.908 51.732 100.788 52.948 101.3 54.004C101.46 54.356 101.556 54.58 101.556 54.676C101.556 54.836 101.508 54.884 100.996 55.3C100.676 55.556 100.308 55.764 100.18 55.764C100.068 55.764 100.02 55.716 99.908 55.444C99.588 54.66 99.284 54.052 98.9 53.46C98.484 52.82 98.404 52.724 97.46 51.716ZM108.752 47.524C109.136 47.524 110.704 48.196 111.712 48.788C112.336 49.156 112.528 49.332 112.528 49.508C112.528 49.652 112.272 50.132 112 50.532C111.744 50.9 111.648 50.98 111.52 50.98C111.44 50.98 111.392 50.948 111.2 50.804C110.128 49.988 109.28 49.524 108.08 49.108C107.84 49.012 107.792 48.98 107.792 48.852C107.792 48.692 107.92 48.42 108.208 48.004C108.464 47.62 108.576 47.524 108.752 47.524ZM106.976 55.444C108.608 53.94 110.032 53.348 112 53.348C114.192 53.348 115.616 54.644 115.616 56.612C115.616 58.5 114.416 59.828 112.016 60.596C111.152 60.868 109.728 61.124 109.088 61.124C108.752 61.124 108.672 61.044 108.448 60.58C108.272 60.212 108.08 59.988 107.6 59.652C111.616 59.332 113.6 58.308 113.6 56.564C113.6 55.588 112.912 55.012 111.76 55.012C110.304 55.012 108.8 55.764 107.568 57.092C107.344 57.316 107.136 57.588 106.992 57.828C106.848 58.068 106.752 58.148 106.608 58.148C106.368 58.148 105.808 57.908 105.424 57.62C105.232 57.476 105.168 57.364 105.168 57.108C105.168 56.98 105.168 56.98 105.216 56.596C105.216 56.548 105.216 56.436 105.232 56.26C105.312 55.236 105.36 54.804 105.552 53.364C105.584 53.188 105.584 53.188 105.696 52.436C105.712 52.388 105.744 52.084 105.824 51.492C105.84 51.348 105.856 51.22 105.856 50.964C106.624 51.076 107.344 51.252 107.648 51.428C107.776 51.492 107.84 51.572 107.824 51.668C107.824 51.732 107.792 51.78 107.744 51.876C107.568 52.148 107.52 52.292 107.376 52.9C107.232 53.508 107.008 54.916 106.976 55.444ZM122.031 55.3V52.772C120.767 52.9 120.447 52.916 119.727 52.916C119.231 52.916 119.151 52.708 119.039 51.284C119.343 51.284 119.519 51.284 119.663 51.284C120.447 51.284 121.151 51.236 122.031 51.14V50.804C122.031 49.764 121.967 48.948 121.807 48.084C123.023 48.148 123.503 48.212 123.839 48.308C123.999 48.356 124.063 48.436 124.063 48.596C124.063 48.692 124.047 48.756 123.967 48.916C123.823 49.22 123.743 49.796 123.727 50.884C124.255 50.788 125.103 50.58 125.743 50.388C125.791 50.372 125.823 50.372 125.855 50.372C125.983 50.372 126.063 50.436 126.095 50.548C126.175 50.868 126.271 51.508 126.271 51.748C126.271 51.876 126.191 51.988 126.063 52.036C125.871 52.116 124.703 52.356 123.679 52.532V54.596C125.263 54.068 126.495 53.812 127.551 53.812C129.599 53.812 130.927 55.124 130.927 57.156C130.927 58.468 130.399 59.524 129.455 60.084C128.959 60.372 128.255 60.548 127.487 60.548C126.687 60.548 126.031 60.484 125.855 60.372C125.679 60.276 125.663 60.228 125.631 59.844C125.599 59.396 125.503 59.012 125.311 58.548C125.967 58.788 126.511 58.884 127.135 58.884C128.383 58.884 129.087 58.244 129.087 57.108C129.087 56.02 128.415 55.332 127.343 55.332C126.335 55.332 125.055 55.652 123.679 56.244C123.679 56.308 123.679 56.308 123.695 56.932C123.711 57.988 123.711 57.988 123.711 58.212C123.727 58.5 123.727 58.788 123.727 58.932C123.727 60.228 123.231 60.852 122.175 60.852C121.167 60.852 120.111 60.308 119.471 59.476C119.215 59.124 119.087 58.756 119.087 58.324C119.087 57.284 120.015 56.34 122.031 55.3ZM122.031 58.58V57.06C121.103 57.62 120.719 57.988 120.719 58.324C120.719 58.692 121.247 59.092 121.727 59.092C121.951 59.092 122.031 58.948 122.031 58.58ZM131.199 53.572C131.119 53.572 131.055 53.54 130.959 53.428C130.143 52.564 129.023 51.844 127.967 51.508C127.839 51.46 127.775 51.396 127.775 51.316C127.775 51.22 127.935 50.964 128.383 50.356C128.559 50.116 128.575 50.1 128.735 50.1C128.895 50.116 129.503 50.324 129.919 50.516C130.927 50.98 132.239 51.972 132.239 52.276C132.239 52.564 131.439 53.572 131.199 53.572ZM136.591 53.076V59.572C136.591 60.5 136.623 61.06 136.687 61.46H134.879C134.943 60.98 134.975 60.532 134.975 59.556V49.492C134.975 48.676 134.959 48.276 134.911 47.764C135.407 47.812 135.743 47.828 136.479 47.828H139.183C139.983 47.828 140.319 47.812 140.767 47.764C140.719 48.228 140.719 48.564 140.719 49.188V51.732C140.719 52.452 140.719 52.756 140.751 53.108C140.319 53.092 139.871 53.076 139.343 53.076H136.591ZM136.591 49.076V49.876H139.215V49.076H136.591ZM136.591 51.06V51.876H139.215V51.06H136.591ZM147.807 49.476V59.588C147.807 60.996 147.423 61.3 145.663 61.3C145.423 61.3 145.247 61.3 144.207 61.252C144.111 60.5 144.031 60.18 143.791 59.62C144.415 59.7 145.183 59.748 145.663 59.748C146.111 59.748 146.191 59.684 146.191 59.364V53.076H143.215C142.735 53.076 142.127 53.092 141.807 53.108C141.839 52.74 141.855 52.372 141.855 51.732V49.188C141.855 48.644 141.839 48.212 141.807 47.764C142.287 47.812 142.607 47.828 143.375 47.828H146.287C147.039 47.828 147.375 47.812 147.871 47.764C147.823 48.26 147.807 48.756 147.807 49.476ZM143.375 49.076V49.876H146.191V49.076H143.375ZM143.375 51.06V51.876H146.191V51.06H143.375ZM144.351 55.172V57.956C144.351 58.42 144.367 58.724 144.399 59.012C144.047 58.98 143.743 58.964 143.311 58.964H139.887V59.988H138.255C138.303 59.572 138.335 59.076 138.335 58.5V55.204C138.335 54.788 138.319 54.42 138.287 54.116C138.639 54.148 138.975 54.164 139.423 54.164H143.215C143.695 54.164 144.047 54.148 144.399 54.116C144.367 54.404 144.351 54.724 144.351 55.172ZM139.887 55.54V57.556H142.799V55.54H139.887ZM151.407 52.436V50.756C151.407 50.292 151.391 49.668 151.359 49.316C152.095 49.396 152.639 49.508 153.071 49.668C153.455 49.812 153.583 49.908 153.583 50.084C153.583 50.18 153.583 50.18 153.519 50.34C153.311 50.884 153.247 51.492 153.247 52.948C153.247 54.996 153.375 56.276 153.695 57.252C153.935 58.004 154.303 58.436 154.735 58.436C155.391 58.436 155.935 57.668 156.527 55.892C156.831 56.708 156.943 56.948 157.391 57.524C157.471 57.636 157.519 57.748 157.519 57.86C157.519 58.116 157.279 58.66 156.959 59.124C156.335 60.036 155.535 60.532 154.687 60.532C153.455 60.532 152.527 59.54 151.951 57.572C151.583 56.292 151.407 54.676 151.407 52.436ZM159.535 51.796C160.207 51.3 160.735 51.012 160.927 51.012C161.023 51.012 161.103 51.06 161.231 51.172C162.031 51.94 162.863 53.22 163.391 54.468C163.743 55.316 164.079 56.452 164.079 56.788C164.079 56.948 163.999 57.028 163.663 57.204C163.295 57.396 162.543 57.652 162.351 57.652C162.207 57.652 162.143 57.572 162.095 57.284C161.887 56.052 161.599 55.156 161.103 54.116C160.655 53.188 160.623 53.14 159.535 51.796ZM169.423 53.508V52.436C168.447 53.044 168.031 53.268 166.975 53.748C166.703 53.092 166.527 52.772 166.079 52.18C167.519 51.62 168.815 50.868 169.983 49.956C171.055 49.108 171.775 48.34 172.399 47.38H174.239C174.895 48.356 175.583 49.06 176.815 49.988C178.015 50.9 179.167 51.508 180.719 52.084C180.319 52.74 180.175 53.028 179.887 53.78C178.799 53.3 178.303 53.028 177.375 52.436V53.508C176.975 53.46 176.607 53.444 175.999 53.444H170.735C170.255 53.444 169.839 53.46 169.423 53.508ZM170.767 51.844H175.983C176.175 51.844 176.239 51.844 176.511 51.844C175.119 50.852 174.303 50.084 173.343 48.836C172.415 50.164 171.759 50.82 170.335 51.844C170.527 51.844 170.591 51.844 170.767 51.844ZM170.015 61.412H168.175C168.239 60.932 168.271 60.468 168.271 59.796V56.212C168.271 55.556 168.255 55.172 168.191 54.708C168.559 54.74 168.911 54.756 169.535 54.756H177.183C177.807 54.756 178.143 54.74 178.527 54.708C178.463 55.124 178.447 55.54 178.447 56.212V59.812C178.447 60.532 178.463 60.932 178.543 61.412H176.703V60.644H170.015V61.412ZM170.015 56.244V59.14H176.703V56.244H170.015ZM185.615 60.644L185.631 58.788C185.631 57.044 185.631 57.044 185.647 56.292C184.847 57.172 184.303 57.876 184.031 58.372C183.951 58.532 183.839 58.628 183.743 58.628C183.583 58.628 183.199 58.292 182.687 57.716C182.479 57.46 182.383 57.316 182.383 57.252C182.383 57.14 182.383 57.14 183.199 56.34C183.887 55.652 184.815 54.564 185.679 53.412C185.679 53.316 185.679 52.948 185.695 52.308C184.911 52.452 183.903 52.724 183.631 52.868C183.471 52.948 183.439 52.964 183.359 52.964C183.087 52.964 182.863 52.34 182.655 51.092C183.503 51.076 184.559 50.964 185.727 50.772C185.727 50.196 185.743 49.38 185.743 48.932C185.743 48.452 185.711 48.068 185.647 47.748C186.655 47.812 187.151 47.876 187.599 47.988C187.839 48.052 187.935 48.148 187.935 48.324C187.935 48.404 187.903 48.484 187.839 48.644C187.679 48.964 187.663 49.076 187.535 50.34C187.919 50.58 188.287 50.98 188.287 51.188C188.287 51.332 188.287 51.332 187.791 51.94C187.743 52.004 187.599 52.212 187.359 52.516C187.343 53.028 187.343 53.028 187.343 53.14C188.911 51.812 190.239 51.252 191.807 51.252C194.303 51.252 195.871 52.836 195.871 55.38C195.871 57.332 194.975 58.788 193.135 59.78C192.431 60.18 191.231 60.612 190.879 60.612C190.783 60.612 190.671 60.58 190.623 60.516C190.591 60.5 190.591 60.5 190.383 60.196C190.111 59.812 189.807 59.508 189.487 59.284C192.671 58.42 193.935 57.3 193.935 55.332C193.935 53.796 193.023 52.804 191.583 52.804C190.639 52.804 189.775 53.108 188.751 53.78C188.239 54.116 188.239 54.116 187.327 54.884C187.343 55.012 187.343 55.012 187.343 55.22C187.343 56.932 187.343 57.076 187.439 60.436C187.455 60.612 187.455 60.74 187.455 60.772C187.455 61.076 187.231 61.14 186.063 61.14C185.647 61.14 185.615 61.092 185.615 60.644ZM206.667 53.38C205.147 53.492 203.979 53.636 202.859 53.812C202.859 54.004 202.859 54.02 202.859 54.212C202.859 54.308 202.859 54.644 202.859 54.788C202.859 57.14 202.875 57.62 203.003 57.956C203.211 58.532 203.755 58.74 205.051 58.74C206.443 58.74 208.139 58.58 208.875 58.388C209.035 58.34 209.051 58.34 209.099 58.34C209.195 58.34 209.275 58.388 209.307 58.5C209.403 58.724 209.483 59.348 209.483 59.796C209.483 60.148 209.435 60.244 209.211 60.308C208.891 60.388 206.763 60.5 205.595 60.5C202.747 60.5 201.563 59.796 201.275 57.956C201.195 57.46 201.179 57.076 201.179 54.084C201.083 54.1 201.067 54.116 200.955 54.132C199.803 54.324 199.307 54.452 198.843 54.66C198.715 54.724 198.619 54.756 198.555 54.756C198.315 54.756 198.043 54.02 197.851 52.82C197.915 52.82 197.963 52.82 197.995 52.82C198.347 52.82 198.587 52.788 201.163 52.468C201.115 49.956 201.099 49.812 200.939 49.044C201.739 49.076 202.427 49.156 202.811 49.268C203.083 49.364 203.179 49.444 203.179 49.636C203.179 49.732 203.163 49.796 203.083 49.972C202.955 50.276 202.891 50.948 202.875 52.244C204.955 51.988 205.051 51.972 206.731 51.828C206.731 51.492 206.731 51.172 206.731 50.884C206.731 49.444 206.683 48.756 206.555 48.276C207.323 48.308 208.011 48.404 208.427 48.532C208.619 48.596 208.683 48.676 208.683 48.836C208.683 48.948 208.667 48.996 208.603 49.188C208.475 49.524 208.475 49.604 208.443 51.492C208.443 51.604 208.443 51.62 208.443 51.684C210.779 51.508 211.179 51.476 211.451 51.476C211.547 51.476 211.611 51.508 211.643 51.556C211.675 51.636 211.723 52.324 211.723 52.868C211.723 53.092 211.707 53.14 211.627 53.188C211.579 53.22 211.579 53.22 210.203 53.22C209.579 53.22 209.099 53.236 208.379 53.284C208.315 54.644 208.219 55.508 208.043 56.02C207.755 56.884 207.195 57.204 205.963 57.204C205.531 57.204 205.051 57.124 204.891 57.028C204.747 56.932 204.731 56.868 204.635 56.34C204.539 55.812 204.491 55.652 204.299 55.252C204.907 55.46 205.291 55.524 205.723 55.524C206.107 55.524 206.267 55.46 206.395 55.268C206.555 55.044 206.587 54.788 206.667 53.38Z" fill="#005794"/>
<defs>
<linearGradient id="paint0_linear_274_92" x1="123.5" y1="37" x2="123.5" y2="121.5" gradientUnits="userSpaceOnUse">
<stop stop-color="#74FAC8"/>
<stop offset="1" stop-color="#3F9273"/>
</linearGradient>
</defs>
</svg>
