<svg width="247" height="61" viewBox="0 0 247 61" fill="none" xmlns="http://www.w3.org/2000/svg">
<rect x="1.5" y="1.5" width="244" height="58" rx="29" fill="#74FAC8"/>
<rect x="1.5" y="1.5" width="244" height="58" rx="29" stroke="url(#paint0_linear_515_2)" stroke-width="3"/>
<path d="M34.5 36.5C34.5933 36.5 34.6867 36.4067 34.78 36.22C34.8733 36.0333 34.92 35.7267 34.92 35.3V25.7C34.92 25.2733 34.8733 24.9733 34.78 24.8C34.6867 24.6133 34.5933 24.5133 34.5 24.5H38.42C38.3267 24.5 38.2333 24.5933 38.14 24.78C38.0467 24.9667 38 25.28 38 25.72V33.66C38 33.9533 38.0333 34.1333 38.1 34.2C38.18 34.2533 38.42 34.28 38.82 34.28H43.64C44.4133 34.28 45.0333 34.1933 45.5 34.02C45.98 33.8333 46.2933 33.6533 46.44 33.48L45.84 35.88V36.5H34.5ZM47.6445 36.5C47.7379 36.5 47.8245 36.4133 47.9045 36.24C47.9979 36.0533 48.0445 35.74 48.0445 35.3V25.7C48.0445 25.2733 47.9979 24.9667 47.9045 24.78C47.8245 24.5933 47.7379 24.5 47.6445 24.5H51.5045C51.4112 24.5 51.3179 24.5933 51.2245 24.78C51.1312 24.9533 51.0845 25.2667 51.0845 25.72V35.3C51.0845 35.7267 51.1312 36.0333 51.2245 36.22C51.3179 36.4067 51.4112 36.5 51.5045 36.5H47.6445ZM53.5039 36.5C53.5972 36.5 53.6906 36.4067 53.7839 36.22C53.8772 36.0333 53.9239 35.7267 53.9239 35.3V25.7C53.9239 25.2733 53.8772 24.9733 53.7839 24.8C53.6906 24.6133 53.5972 24.5133 53.5039 24.5H57.4239C57.3306 24.5 57.3039 24.5933 57.3439 24.78C57.3972 24.9667 57.6172 25.2867 58.0039 25.74C58.1106 25.8467 58.2839 26.0467 58.5239 26.34C58.7772 26.62 59.0772 26.96 59.4239 27.36C59.7706 27.76 60.1372 28.1933 60.5239 28.66C60.9239 29.1267 61.3239 29.5933 61.7239 30.06C62.1372 30.5267 62.5306 30.9733 62.9039 31.4H62.9239V25.7C62.9239 25.2733 62.8772 24.9733 62.7839 24.8C62.6906 24.6133 62.5972 24.5133 62.5039 24.5H66.4239C66.3306 24.5 66.2372 24.5933 66.1439 24.78C66.0506 24.9667 66.0039 25.28 66.0039 25.72V35.3C66.0039 35.7267 66.0506 36.0333 66.1439 36.22C66.2372 36.4067 66.3306 36.5 66.4239 36.5H62.9839C63.0639 36.5 63.0706 36.4067 63.0039 36.22C62.9506 36.0333 62.7439 35.7133 62.3839 35.26C62.1972 35.02 61.9506 34.7133 61.6439 34.34C61.3372 33.9533 60.9906 33.5267 60.6039 33.06C60.2306 32.5933 59.8372 32.1067 59.4239 31.6C59.0106 31.0933 58.5972 30.6 58.1839 30.12C57.7839 29.6267 57.4106 29.1733 57.0639 28.76H57.0039V35.3C57.0039 35.7267 57.0506 36.0333 57.1439 36.22C57.2372 36.4067 57.3306 36.5 57.4239 36.5H53.5039ZM68.4258 36.5C68.5191 36.5 68.6124 36.4067 68.7058 36.22C68.7991 36.0333 68.8458 35.7267 68.8458 35.3V25.7C68.8458 25.2733 68.7991 24.9733 68.7058 24.8C68.6124 24.6133 68.5191 24.5133 68.4258 24.5H80.1058V25.1L80.5058 27.42C80.1724 27.2733 79.5858 27.12 78.7458 26.96C77.9058 26.7867 76.8924 26.7 75.7058 26.7H72.7458C72.3458 26.7 72.1058 26.7333 72.0258 26.8C71.9591 26.8533 71.9258 27.02 71.9258 27.3V28.78C71.9258 29.0733 71.9591 29.2467 72.0258 29.3C72.1058 29.3533 72.3391 29.38 72.7258 29.38H75.6058C76.3791 29.38 76.9991 29.34 77.4658 29.26C77.9458 29.1667 78.2591 29.0733 78.4058 28.98C78.3524 29.2333 78.2924 29.5267 78.2258 29.86C78.1591 30.1933 78.1058 30.5133 78.0658 30.82C78.0258 31.1267 78.0058 31.38 78.0058 31.58H72.7258C72.3391 31.58 72.1058 31.6067 72.0258 31.66C71.9591 31.7 71.9258 31.8733 71.9258 32.18V33.66C71.9258 33.9667 71.9591 34.1467 72.0258 34.2C72.0924 34.2533 72.3258 34.28 72.7258 34.28H78.1258C78.8991 34.28 79.5191 34.1933 79.9858 34.02C80.4658 33.8333 80.7791 33.6533 80.9258 33.48L80.5258 35.88V36.5H68.4258Z" fill="#005794"/>
<path d="M91.204 28.852C90.02 29.108 89.364 29.268 89.22 29.316C89.092 29.348 89.028 29.38 88.932 29.428C88.852 29.476 88.804 29.492 88.724 29.492C88.388 29.492 88.132 28.868 87.94 27.684C88.068 27.7 88.18 27.7 88.244 27.7C88.916 27.7 90.628 27.492 91.652 27.284C91.988 25.876 92.164 24.82 92.164 24.052C92.164 23.988 92.164 23.908 92.148 23.78C92.836 23.86 93.492 24.004 93.94 24.18C94.196 24.276 94.324 24.42 94.324 24.58C94.324 24.66 94.308 24.708 94.228 24.836C93.988 25.268 93.988 25.268 93.492 27.028C93.876 26.98 94.308 26.948 94.58 26.948C95.236 26.948 95.748 27.076 96.116 27.332C96.756 27.796 97.076 28.74 97.076 30.196C97.076 32.58 96.644 34.612 95.908 35.62C95.396 36.324 94.724 36.66 93.78 36.66C93.204 36.66 92.66 36.58 92.5 36.484C92.372 36.404 92.372 36.404 92.324 35.812C92.276 35.38 92.18 35.012 91.988 34.564C92.82 34.836 93.028 34.884 93.54 34.884C94.308 34.884 94.628 34.516 94.98 33.236C95.22 32.388 95.348 31.284 95.348 30.116C95.348 28.868 95.044 28.42 94.196 28.42C93.908 28.42 93.444 28.452 93.076 28.516C93.028 28.692 93.012 28.708 92.948 28.932C92.5 30.564 91.684 32.724 90.868 34.452C90.02 36.196 89.812 36.548 89.604 36.548C89.476 36.548 89.044 36.324 88.58 36.02C88.212 35.796 88.116 35.7 88.116 35.572C88.116 35.492 88.116 35.492 88.772 34.452C89.652 33.092 90.804 30.42 91.204 28.852ZM97.46 27.716C97.396 27.62 97.38 27.572 97.38 27.524C97.38 27.412 97.524 27.268 97.988 26.9C98.308 26.66 98.468 26.564 98.58 26.564C98.676 26.564 98.756 26.612 98.964 26.82C99.908 27.732 100.788 28.948 101.3 30.004C101.46 30.356 101.556 30.58 101.556 30.676C101.556 30.836 101.508 30.884 100.996 31.3C100.676 31.556 100.308 31.764 100.18 31.764C100.068 31.764 100.02 31.716 99.908 31.444C99.588 30.66 99.284 30.052 98.9 29.46C98.484 28.82 98.404 28.724 97.46 27.716ZM108.752 23.524C109.136 23.524 110.704 24.196 111.712 24.788C112.336 25.156 112.528 25.332 112.528 25.508C112.528 25.652 112.272 26.132 112 26.532C111.744 26.9 111.648 26.98 111.52 26.98C111.44 26.98 111.392 26.948 111.2 26.804C110.128 25.988 109.28 25.524 108.08 25.108C107.84 25.012 107.792 24.98 107.792 24.852C107.792 24.692 107.92 24.42 108.208 24.004C108.464 23.62 108.576 23.524 108.752 23.524ZM106.976 31.444C108.608 29.94 110.032 29.348 112 29.348C114.192 29.348 115.616 30.644 115.616 32.612C115.616 34.5 114.416 35.828 112.016 36.596C111.152 36.868 109.728 37.124 109.088 37.124C108.752 37.124 108.672 37.044 108.448 36.58C108.272 36.212 108.08 35.988 107.6 35.652C111.616 35.332 113.6 34.308 113.6 32.564C113.6 31.588 112.912 31.012 111.76 31.012C110.304 31.012 108.8 31.764 107.568 33.092C107.344 33.316 107.136 33.588 106.992 33.828C106.848 34.068 106.752 34.148 106.608 34.148C106.368 34.148 105.808 33.908 105.424 33.62C105.232 33.476 105.168 33.364 105.168 33.108C105.168 32.98 105.168 32.98 105.216 32.596C105.216 32.548 105.216 32.436 105.232 32.26C105.312 31.236 105.36 30.804 105.552 29.364C105.584 29.188 105.584 29.188 105.696 28.436C105.712 28.388 105.744 28.084 105.824 27.492C105.84 27.348 105.856 27.22 105.856 26.964C106.624 27.076 107.344 27.252 107.648 27.428C107.776 27.492 107.84 27.572 107.824 27.668C107.824 27.732 107.792 27.78 107.744 27.876C107.568 28.148 107.52 28.292 107.376 28.9C107.232 29.508 107.008 30.916 106.976 31.444ZM122.031 31.3V28.772C120.767 28.9 120.447 28.916 119.727 28.916C119.231 28.916 119.151 28.708 119.039 27.284C119.343 27.284 119.519 27.284 119.663 27.284C120.447 27.284 121.151 27.236 122.031 27.14V26.804C122.031 25.764 121.967 24.948 121.807 24.084C123.023 24.148 123.503 24.212 123.839 24.308C123.999 24.356 124.063 24.436 124.063 24.596C124.063 24.692 124.047 24.756 123.967 24.916C123.823 25.22 123.743 25.796 123.727 26.884C124.255 26.788 125.103 26.58 125.743 26.388C125.791 26.372 125.823 26.372 125.855 26.372C125.983 26.372 126.063 26.436 126.095 26.548C126.175 26.868 126.271 27.508 126.271 27.748C126.271 27.876 126.191 27.988 126.063 28.036C125.871 28.116 124.703 28.356 123.679 28.532V30.596C125.263 30.068 126.495 29.812 127.551 29.812C129.599 29.812 130.927 31.124 130.927 33.156C130.927 34.468 130.399 35.524 129.455 36.084C128.959 36.372 128.255 36.548 127.487 36.548C126.687 36.548 126.031 36.484 125.855 36.372C125.679 36.276 125.663 36.228 125.631 35.844C125.599 35.396 125.503 35.012 125.311 34.548C125.967 34.788 126.511 34.884 127.135 34.884C128.383 34.884 129.087 34.244 129.087 33.108C129.087 32.02 128.415 31.332 127.343 31.332C126.335 31.332 125.055 31.652 123.679 32.244C123.679 32.308 123.679 32.308 123.695 32.932C123.711 33.988 123.711 33.988 123.711 34.212C123.727 34.5 123.727 34.788 123.727 34.932C123.727 36.228 123.231 36.852 122.175 36.852C121.167 36.852 120.111 36.308 119.471 35.476C119.215 35.124 119.087 34.756 119.087 34.324C119.087 33.284 120.015 32.34 122.031 31.3ZM122.031 34.58V33.06C121.103 33.62 120.719 33.988 120.719 34.324C120.719 34.692 121.247 35.092 121.727 35.092C121.951 35.092 122.031 34.948 122.031 34.58ZM131.199 29.572C131.119 29.572 131.055 29.54 130.959 29.428C130.143 28.564 129.023 27.844 127.967 27.508C127.839 27.46 127.775 27.396 127.775 27.316C127.775 27.22 127.935 26.964 128.383 26.356C128.559 26.116 128.575 26.1 128.735 26.1C128.895 26.116 129.503 26.324 129.919 26.516C130.927 26.98 132.239 27.972 132.239 28.276C132.239 28.564 131.439 29.572 131.199 29.572ZM136.591 29.076V35.572C136.591 36.5 136.623 37.06 136.687 37.46H134.879C134.943 36.98 134.975 36.532 134.975 35.556V25.492C134.975 24.676 134.959 24.276 134.911 23.764C135.407 23.812 135.743 23.828 136.479 23.828H139.183C139.983 23.828 140.319 23.812 140.767 23.764C140.719 24.228 140.719 24.564 140.719 25.188V27.732C140.719 28.452 140.719 28.756 140.751 29.108C140.319 29.092 139.871 29.076 139.343 29.076H136.591ZM136.591 25.076V25.876H139.215V25.076H136.591ZM136.591 27.06V27.876H139.215V27.06H136.591ZM147.807 25.476V35.588C147.807 36.996 147.423 37.3 145.663 37.3C145.423 37.3 145.247 37.3 144.207 37.252C144.111 36.5 144.031 36.18 143.791 35.62C144.415 35.7 145.183 35.748 145.663 35.748C146.111 35.748 146.191 35.684 146.191 35.364V29.076H143.215C142.735 29.076 142.127 29.092 141.807 29.108C141.839 28.74 141.855 28.372 141.855 27.732V25.188C141.855 24.644 141.839 24.212 141.807 23.764C142.287 23.812 142.607 23.828 143.375 23.828H146.287C147.039 23.828 147.375 23.812 147.871 23.764C147.823 24.26 147.807 24.756 147.807 25.476ZM143.375 25.076V25.876H146.191V25.076H143.375ZM143.375 27.06V27.876H146.191V27.06H143.375ZM144.351 31.172V33.956C144.351 34.42 144.367 34.724 144.399 35.012C144.047 34.98 143.743 34.964 143.311 34.964H139.887V35.988H138.255C138.303 35.572 138.335 35.076 138.335 34.5V31.204C138.335 30.788 138.319 30.42 138.287 30.116C138.639 30.148 138.975 30.164 139.423 30.164H143.215C143.695 30.164 144.047 30.148 144.399 30.116C144.367 30.404 144.351 30.724 144.351 31.172ZM139.887 31.54V33.556H142.799V31.54H139.887ZM151.407 28.436V26.756C151.407 26.292 151.391 25.668 151.359 25.316C152.095 25.396 152.639 25.508 153.071 25.668C153.455 25.812 153.583 25.908 153.583 26.084C153.583 26.18 153.583 26.18 153.519 26.34C153.311 26.884 153.247 27.492 153.247 28.948C153.247 30.996 153.375 32.276 153.695 33.252C153.935 34.004 154.303 34.436 154.735 34.436C155.391 34.436 155.935 33.668 156.527 31.892C156.831 32.708 156.943 32.948 157.391 33.524C157.471 33.636 157.519 33.748 157.519 33.86C157.519 34.116 157.279 34.66 156.959 35.124C156.335 36.036 155.535 36.532 154.687 36.532C153.455 36.532 152.527 35.54 151.951 33.572C151.583 32.292 151.407 30.676 151.407 28.436ZM159.535 27.796C160.207 27.3 160.735 27.012 160.927 27.012C161.023 27.012 161.103 27.06 161.231 27.172C162.031 27.94 162.863 29.22 163.391 30.468C163.743 31.316 164.079 32.452 164.079 32.788C164.079 32.948 163.999 33.028 163.663 33.204C163.295 33.396 162.543 33.652 162.351 33.652C162.207 33.652 162.143 33.572 162.095 33.284C161.887 32.052 161.599 31.156 161.103 30.116C160.655 29.188 160.623 29.14 159.535 27.796ZM169.423 29.508V28.436C168.447 29.044 168.031 29.268 166.975 29.748C166.703 29.092 166.527 28.772 166.079 28.18C167.519 27.62 168.815 26.868 169.983 25.956C171.055 25.108 171.775 24.34 172.399 23.38H174.239C174.895 24.356 175.583 25.06 176.815 25.988C178.015 26.9 179.167 27.508 180.719 28.084C180.319 28.74 180.175 29.028 179.887 29.78C178.799 29.3 178.303 29.028 177.375 28.436V29.508C176.975 29.46 176.607 29.444 175.999 29.444H170.735C170.255 29.444 169.839 29.46 169.423 29.508ZM170.767 27.844H175.983C176.175 27.844 176.239 27.844 176.511 27.844C175.119 26.852 174.303 26.084 173.343 24.836C172.415 26.164 171.759 26.82 170.335 27.844C170.527 27.844 170.591 27.844 170.767 27.844ZM170.015 37.412H168.175C168.239 36.932 168.271 36.468 168.271 35.796V32.212C168.271 31.556 168.255 31.172 168.191 30.708C168.559 30.74 168.911 30.756 169.535 30.756H177.183C177.807 30.756 178.143 30.74 178.527 30.708C178.463 31.124 178.447 31.54 178.447 32.212V35.812C178.447 36.532 178.463 36.932 178.543 37.412H176.703V36.644H170.015V37.412ZM170.015 32.244V35.14H176.703V32.244H170.015ZM185.615 36.644L185.631 34.788C185.631 33.044 185.631 33.044 185.647 32.292C184.847 33.172 184.303 33.876 184.031 34.372C183.951 34.532 183.839 34.628 183.743 34.628C183.583 34.628 183.199 34.292 182.687 33.716C182.479 33.46 182.383 33.316 182.383 33.252C182.383 33.14 182.383 33.14 183.199 32.34C183.887 31.652 184.815 30.564 185.679 29.412C185.679 29.316 185.679 28.948 185.695 28.308C184.911 28.452 183.903 28.724 183.631 28.868C183.471 28.948 183.439 28.964 183.359 28.964C183.087 28.964 182.863 28.34 182.655 27.092C183.503 27.076 184.559 26.964 185.727 26.772C185.727 26.196 185.743 25.38 185.743 24.932C185.743 24.452 185.711 24.068 185.647 23.748C186.655 23.812 187.151 23.876 187.599 23.988C187.839 24.052 187.935 24.148 187.935 24.324C187.935 24.404 187.903 24.484 187.839 24.644C187.679 24.964 187.663 25.076 187.535 26.34C187.919 26.58 188.287 26.98 188.287 27.188C188.287 27.332 188.287 27.332 187.791 27.94C187.743 28.004 187.599 28.212 187.359 28.516C187.343 29.028 187.343 29.028 187.343 29.14C188.911 27.812 190.239 27.252 191.807 27.252C194.303 27.252 195.871 28.836 195.871 31.38C195.871 33.332 194.975 34.788 193.135 35.78C192.431 36.18 191.231 36.612 190.879 36.612C190.783 36.612 190.671 36.58 190.623 36.516C190.591 36.5 190.591 36.5 190.383 36.196C190.111 35.812 189.807 35.508 189.487 35.284C192.671 34.42 193.935 33.3 193.935 31.332C193.935 29.796 193.023 28.804 191.583 28.804C190.639 28.804 189.775 29.108 188.751 29.78C188.239 30.116 188.239 30.116 187.327 30.884C187.343 31.012 187.343 31.012 187.343 31.22C187.343 32.932 187.343 33.076 187.439 36.436C187.455 36.612 187.455 36.74 187.455 36.772C187.455 37.076 187.231 37.14 186.063 37.14C185.647 37.14 185.615 37.092 185.615 36.644ZM206.667 29.38C205.147 29.492 203.979 29.636 202.859 29.812C202.859 30.004 202.859 30.02 202.859 30.212C202.859 30.308 202.859 30.644 202.859 30.788C202.859 33.14 202.875 33.62 203.003 33.956C203.211 34.532 203.755 34.74 205.051 34.74C206.443 34.74 208.139 34.58 208.875 34.388C209.035 34.34 209.051 34.34 209.099 34.34C209.195 34.34 209.275 34.388 209.307 34.5C209.403 34.724 209.483 35.348 209.483 35.796C209.483 36.148 209.435 36.244 209.211 36.308C208.891 36.388 206.763 36.5 205.595 36.5C202.747 36.5 201.563 35.796 201.275 33.956C201.195 33.46 201.179 33.076 201.179 30.084C201.083 30.1 201.067 30.116 200.955 30.132C199.803 30.324 199.307 30.452 198.843 30.66C198.715 30.724 198.619 30.756 198.555 30.756C198.315 30.756 198.043 30.02 197.851 28.82C197.915 28.82 197.963 28.82 197.995 28.82C198.347 28.82 198.587 28.788 201.163 28.468C201.115 25.956 201.099 25.812 200.939 25.044C201.739 25.076 202.427 25.156 202.811 25.268C203.083 25.364 203.179 25.444 203.179 25.636C203.179 25.732 203.163 25.796 203.083 25.972C202.955 26.276 202.891 26.948 202.875 28.244C204.955 27.988 205.051 27.972 206.731 27.828C206.731 27.492 206.731 27.172 206.731 26.884C206.731 25.444 206.683 24.756 206.555 24.276C207.323 24.308 208.011 24.404 208.427 24.532C208.619 24.596 208.683 24.676 208.683 24.836C208.683 24.948 208.667 24.996 208.603 25.188C208.475 25.524 208.475 25.604 208.443 27.492C208.443 27.604 208.443 27.62 208.443 27.684C210.779 27.508 211.179 27.476 211.451 27.476C211.547 27.476 211.611 27.508 211.643 27.556C211.675 27.636 211.723 28.324 211.723 28.868C211.723 29.092 211.707 29.14 211.627 29.188C211.579 29.22 211.579 29.22 210.203 29.22C209.579 29.22 209.099 29.236 208.379 29.284C208.315 30.644 208.219 31.508 208.043 32.02C207.755 32.884 207.195 33.204 205.963 33.204C205.531 33.204 205.051 33.124 204.891 33.028C204.747 32.932 204.731 32.868 204.635 32.34C204.539 31.812 204.491 31.652 204.299 31.252C204.907 31.46 205.291 31.524 205.723 31.524C206.107 31.524 206.267 31.46 206.395 31.268C206.555 31.044 206.587 30.788 206.667 29.38Z" fill="#005794"/>
<defs>
<linearGradient id="paint0_linear_515_2" x1="123.5" y1="13" x2="123.5" y2="97.5" gradientUnits="userSpaceOnUse">
<stop stop-color="#74FAC8"/>
<stop offset="1" stop-color="#3F9273"/>
</linearGradient>
</defs>
</svg>
