<svg width="375" height="70" viewBox="0 0 375 70" fill="none" xmlns="http://www.w3.org/2000/svg">
<rect width="375" height="70" fill="#74FAC8"/>
<path d="M140.704 46.352C139.52 46.608 138.864 46.768 138.72 46.816C138.592 46.848 138.528 46.88 138.432 46.928C138.352 46.976 138.304 46.992 138.224 46.992C137.888 46.992 137.632 46.368 137.44 45.184C137.568 45.2 137.68 45.2 137.744 45.2C138.416 45.2 140.128 44.992 141.152 44.784C141.488 43.376 141.664 42.32 141.664 41.552C141.664 41.488 141.664 41.408 141.648 41.28C142.336 41.36 142.992 41.504 143.44 41.68C143.696 41.776 143.824 41.92 143.824 42.08C143.824 42.16 143.808 42.208 143.728 42.336C143.488 42.768 143.488 42.768 142.992 44.528C143.376 44.48 143.808 44.448 144.08 44.448C144.736 44.448 145.248 44.576 145.616 44.832C146.256 45.296 146.576 46.24 146.576 47.696C146.576 50.08 146.144 52.112 145.408 53.12C144.896 53.824 144.224 54.16 143.28 54.16C142.704 54.16 142.16 54.08 142 53.984C141.872 53.904 141.872 53.904 141.824 53.312C141.776 52.88 141.68 52.512 141.488 52.064C142.32 52.336 142.528 52.384 143.04 52.384C143.808 52.384 144.128 52.016 144.48 50.736C144.72 49.888 144.848 48.784 144.848 47.616C144.848 46.368 144.544 45.92 143.696 45.92C143.408 45.92 142.944 45.952 142.576 46.016C142.528 46.192 142.512 46.208 142.448 46.432C142 48.064 141.184 50.224 140.368 51.952C139.52 53.696 139.312 54.048 139.104 54.048C138.976 54.048 138.544 53.824 138.08 53.52C137.712 53.296 137.616 53.2 137.616 53.072C137.616 52.992 137.616 52.992 138.272 51.952C139.152 50.592 140.304 47.92 140.704 46.352ZM146.96 45.216C146.896 45.12 146.88 45.072 146.88 45.024C146.88 44.912 147.024 44.768 147.488 44.4C147.808 44.16 147.968 44.064 148.08 44.064C148.176 44.064 148.256 44.112 148.464 44.32C149.408 45.232 150.288 46.448 150.8 47.504C150.96 47.856 151.056 48.08 151.056 48.176C151.056 48.336 151.008 48.384 150.496 48.8C150.176 49.056 149.808 49.264 149.68 49.264C149.568 49.264 149.52 49.216 149.408 48.944C149.088 48.16 148.784 47.552 148.4 46.96C147.984 46.32 147.904 46.224 146.96 45.216ZM158.252 41.024C158.636 41.024 160.204 41.696 161.212 42.288C161.836 42.656 162.028 42.832 162.028 43.008C162.028 43.152 161.772 43.632 161.5 44.032C161.244 44.4 161.148 44.48 161.02 44.48C160.94 44.48 160.892 44.448 160.7 44.304C159.628 43.488 158.78 43.024 157.58 42.608C157.34 42.512 157.292 42.48 157.292 42.352C157.292 42.192 157.42 41.92 157.708 41.504C157.964 41.12 158.076 41.024 158.252 41.024ZM156.476 48.944C158.108 47.44 159.532 46.848 161.5 46.848C163.692 46.848 165.116 48.144 165.116 50.112C165.116 52 163.916 53.328 161.516 54.096C160.652 54.368 159.228 54.624 158.588 54.624C158.252 54.624 158.172 54.544 157.948 54.08C157.772 53.712 157.58 53.488 157.1 53.152C161.116 52.832 163.1 51.808 163.1 50.064C163.1 49.088 162.412 48.512 161.26 48.512C159.804 48.512 158.3 49.264 157.068 50.592C156.844 50.816 156.636 51.088 156.492 51.328C156.348 51.568 156.252 51.648 156.108 51.648C155.868 51.648 155.308 51.408 154.924 51.12C154.732 50.976 154.668 50.864 154.668 50.608C154.668 50.48 154.668 50.48 154.716 50.096C154.716 50.048 154.716 49.936 154.732 49.76C154.812 48.736 154.86 48.304 155.052 46.864C155.084 46.688 155.084 46.688 155.196 45.936C155.212 45.888 155.244 45.584 155.324 44.992C155.34 44.848 155.356 44.72 155.356 44.464C156.124 44.576 156.844 44.752 157.148 44.928C157.276 44.992 157.34 45.072 157.324 45.168C157.324 45.232 157.292 45.28 157.244 45.376C157.068 45.648 157.02 45.792 156.876 46.4C156.732 47.008 156.508 48.416 156.476 48.944ZM171.531 48.8V46.272C170.267 46.4 169.947 46.416 169.227 46.416C168.731 46.416 168.651 46.208 168.539 44.784C168.843 44.784 169.019 44.784 169.163 44.784C169.947 44.784 170.651 44.736 171.531 44.64V44.304C171.531 43.264 171.467 42.448 171.307 41.584C172.523 41.648 173.003 41.712 173.339 41.808C173.499 41.856 173.563 41.936 173.563 42.096C173.563 42.192 173.547 42.256 173.467 42.416C173.323 42.72 173.243 43.296 173.227 44.384C173.755 44.288 174.603 44.08 175.243 43.888C175.291 43.872 175.323 43.872 175.355 43.872C175.483 43.872 175.563 43.936 175.595 44.048C175.675 44.368 175.771 45.008 175.771 45.248C175.771 45.376 175.691 45.488 175.563 45.536C175.371 45.616 174.203 45.856 173.179 46.032V48.096C174.763 47.568 175.995 47.312 177.051 47.312C179.099 47.312 180.427 48.624 180.427 50.656C180.427 51.968 179.899 53.024 178.955 53.584C178.459 53.872 177.755 54.048 176.987 54.048C176.187 54.048 175.531 53.984 175.355 53.872C175.179 53.776 175.163 53.728 175.131 53.344C175.099 52.896 175.003 52.512 174.811 52.048C175.467 52.288 176.011 52.384 176.635 52.384C177.883 52.384 178.587 51.744 178.587 50.608C178.587 49.52 177.915 48.832 176.843 48.832C175.835 48.832 174.555 49.152 173.179 49.744C173.179 49.808 173.179 49.808 173.195 50.432C173.211 51.488 173.211 51.488 173.211 51.712C173.227 52 173.227 52.288 173.227 52.432C173.227 53.728 172.731 54.352 171.675 54.352C170.667 54.352 169.611 53.808 168.971 52.976C168.715 52.624 168.587 52.256 168.587 51.824C168.587 50.784 169.515 49.84 171.531 48.8ZM171.531 52.08V50.56C170.603 51.12 170.219 51.488 170.219 51.824C170.219 52.192 170.747 52.592 171.227 52.592C171.451 52.592 171.531 52.448 171.531 52.08ZM180.699 47.072C180.619 47.072 180.555 47.04 180.459 46.928C179.643 46.064 178.523 45.344 177.467 45.008C177.339 44.96 177.275 44.896 177.275 44.816C177.275 44.72 177.435 44.464 177.883 43.856C178.059 43.616 178.075 43.6 178.235 43.6C178.395 43.616 179.003 43.824 179.419 44.016C180.427 44.48 181.739 45.472 181.739 45.776C181.739 46.064 180.939 47.072 180.699 47.072ZM186.091 46.576V53.072C186.091 54 186.123 54.56 186.187 54.96H184.379C184.443 54.48 184.475 54.032 184.475 53.056V42.992C184.475 42.176 184.459 41.776 184.411 41.264C184.907 41.312 185.243 41.328 185.979 41.328H188.683C189.483 41.328 189.819 41.312 190.267 41.264C190.219 41.728 190.219 42.064 190.219 42.688V45.232C190.219 45.952 190.219 46.256 190.251 46.608C189.819 46.592 189.371 46.576 188.843 46.576H186.091ZM186.091 42.576V43.376H188.715V42.576H186.091ZM186.091 44.56V45.376H188.715V44.56H186.091ZM197.307 42.976V53.088C197.307 54.496 196.923 54.8 195.163 54.8C194.923 54.8 194.747 54.8 193.707 54.752C193.611 54 193.531 53.68 193.291 53.12C193.915 53.2 194.683 53.248 195.163 53.248C195.611 53.248 195.691 53.184 195.691 52.864V46.576H192.715C192.235 46.576 191.627 46.592 191.307 46.608C191.339 46.24 191.355 45.872 191.355 45.232V42.688C191.355 42.144 191.339 41.712 191.307 41.264C191.787 41.312 192.107 41.328 192.875 41.328H195.787C196.539 41.328 196.875 41.312 197.371 41.264C197.323 41.76 197.307 42.256 197.307 42.976ZM192.875 42.576V43.376H195.691V42.576H192.875ZM192.875 44.56V45.376H195.691V44.56H192.875ZM193.851 48.672V51.456C193.851 51.92 193.867 52.224 193.899 52.512C193.547 52.48 193.243 52.464 192.811 52.464H189.387V53.488H187.755C187.803 53.072 187.835 52.576 187.835 52V48.704C187.835 48.288 187.819 47.92 187.787 47.616C188.139 47.648 188.475 47.664 188.923 47.664H192.715C193.195 47.664 193.547 47.648 193.899 47.616C193.867 47.904 193.851 48.224 193.851 48.672ZM189.387 49.04V51.056H192.299V49.04H189.387ZM200.907 45.936V44.256C200.907 43.792 200.891 43.168 200.859 42.816C201.595 42.896 202.139 43.008 202.571 43.168C202.955 43.312 203.083 43.408 203.083 43.584C203.083 43.68 203.083 43.68 203.019 43.84C202.811 44.384 202.747 44.992 202.747 46.448C202.747 48.496 202.875 49.776 203.195 50.752C203.435 51.504 203.803 51.936 204.235 51.936C204.891 51.936 205.435 51.168 206.027 49.392C206.331 50.208 206.443 50.448 206.891 51.024C206.971 51.136 207.019 51.248 207.019 51.36C207.019 51.616 206.779 52.16 206.459 52.624C205.835 53.536 205.035 54.032 204.187 54.032C202.955 54.032 202.027 53.04 201.451 51.072C201.083 49.792 200.907 48.176 200.907 45.936ZM209.035 45.296C209.707 44.8 210.235 44.512 210.427 44.512C210.523 44.512 210.603 44.56 210.731 44.672C211.531 45.44 212.363 46.72 212.891 47.968C213.243 48.816 213.579 49.952 213.579 50.288C213.579 50.448 213.499 50.528 213.163 50.704C212.795 50.896 212.043 51.152 211.851 51.152C211.707 51.152 211.643 51.072 211.595 50.784C211.387 49.552 211.099 48.656 210.603 47.616C210.155 46.688 210.123 46.64 209.035 45.296ZM218.923 47.008V45.936C217.947 46.544 217.531 46.768 216.475 47.248C216.203 46.592 216.027 46.272 215.579 45.68C217.019 45.12 218.315 44.368 219.483 43.456C220.555 42.608 221.275 41.84 221.899 40.88H223.739C224.395 41.856 225.083 42.56 226.315 43.488C227.515 44.4 228.667 45.008 230.219 45.584C229.819 46.24 229.675 46.528 229.387 47.28C228.299 46.8 227.803 46.528 226.875 45.936V47.008C226.475 46.96 226.107 46.944 225.499 46.944H220.235C219.755 46.944 219.339 46.96 218.923 47.008ZM220.267 45.344H225.483C225.675 45.344 225.739 45.344 226.011 45.344C224.619 44.352 223.803 43.584 222.843 42.336C221.915 43.664 221.259 44.32 219.835 45.344C220.027 45.344 220.091 45.344 220.267 45.344ZM219.515 54.912H217.675C217.739 54.432 217.771 53.968 217.771 53.296V49.712C217.771 49.056 217.755 48.672 217.691 48.208C218.059 48.24 218.411 48.256 219.035 48.256H226.683C227.307 48.256 227.643 48.24 228.027 48.208C227.963 48.624 227.947 49.04 227.947 49.712V53.312C227.947 54.032 227.963 54.432 228.043 54.912H226.203V54.144H219.515V54.912ZM219.515 49.744V52.64H226.203V49.744H219.515ZM235.115 54.144L235.131 52.288C235.131 50.544 235.131 50.544 235.147 49.792C234.347 50.672 233.803 51.376 233.531 51.872C233.451 52.032 233.339 52.128 233.243 52.128C233.083 52.128 232.699 51.792 232.187 51.216C231.979 50.96 231.883 50.816 231.883 50.752C231.883 50.64 231.883 50.64 232.699 49.84C233.387 49.152 234.315 48.064 235.179 46.912C235.179 46.816 235.179 46.448 235.195 45.808C234.411 45.952 233.403 46.224 233.131 46.368C232.971 46.448 232.939 46.464 232.859 46.464C232.587 46.464 232.363 45.84 232.155 44.592C233.003 44.576 234.059 44.464 235.227 44.272C235.227 43.696 235.243 42.88 235.243 42.432C235.243 41.952 235.211 41.568 235.147 41.248C236.155 41.312 236.651 41.376 237.099 41.488C237.339 41.552 237.435 41.648 237.435 41.824C237.435 41.904 237.403 41.984 237.339 42.144C237.179 42.464 237.163 42.576 237.035 43.84C237.419 44.08 237.787 44.48 237.787 44.688C237.787 44.832 237.787 44.832 237.291 45.44C237.243 45.504 237.099 45.712 236.859 46.016C236.843 46.528 236.843 46.528 236.843 46.64C238.411 45.312 239.739 44.752 241.307 44.752C243.803 44.752 245.371 46.336 245.371 48.88C245.371 50.832 244.475 52.288 242.635 53.28C241.931 53.68 240.731 54.112 240.379 54.112C240.283 54.112 240.171 54.08 240.123 54.016C240.091 54 240.091 54 239.883 53.696C239.611 53.312 239.307 53.008 238.987 52.784C242.171 51.92 243.435 50.8 243.435 48.832C243.435 47.296 242.523 46.304 241.083 46.304C240.139 46.304 239.275 46.608 238.251 47.28C237.739 47.616 237.739 47.616 236.827 48.384C236.843 48.512 236.843 48.512 236.843 48.72C236.843 50.432 236.843 50.576 236.939 53.936C236.955 54.112 236.955 54.24 236.955 54.272C236.955 54.576 236.731 54.64 235.563 54.64C235.147 54.64 235.115 54.592 235.115 54.144ZM256.167 46.88C254.647 46.992 253.479 47.136 252.359 47.312C252.359 47.504 252.359 47.52 252.359 47.712C252.359 47.808 252.359 48.144 252.359 48.288C252.359 50.64 252.375 51.12 252.503 51.456C252.711 52.032 253.255 52.24 254.551 52.24C255.943 52.24 257.639 52.08 258.375 51.888C258.535 51.84 258.551 51.84 258.599 51.84C258.695 51.84 258.775 51.888 258.807 52C258.903 52.224 258.983 52.848 258.983 53.296C258.983 53.648 258.935 53.744 258.711 53.808C258.391 53.888 256.263 54 255.095 54C252.247 54 251.063 53.296 250.775 51.456C250.695 50.96 250.679 50.576 250.679 47.584C250.583 47.6 250.567 47.616 250.455 47.632C249.303 47.824 248.807 47.952 248.343 48.16C248.215 48.224 248.119 48.256 248.055 48.256C247.815 48.256 247.543 47.52 247.351 46.32C247.415 46.32 247.463 46.32 247.495 46.32C247.847 46.32 248.087 46.288 250.663 45.968C250.615 43.456 250.599 43.312 250.439 42.544C251.239 42.576 251.927 42.656 252.311 42.768C252.583 42.864 252.679 42.944 252.679 43.136C252.679 43.232 252.663 43.296 252.583 43.472C252.455 43.776 252.391 44.448 252.375 45.744C254.455 45.488 254.551 45.472 256.231 45.328C256.231 44.992 256.231 44.672 256.231 44.384C256.231 42.944 256.183 42.256 256.055 41.776C256.823 41.808 257.511 41.904 257.927 42.032C258.119 42.096 258.183 42.176 258.183 42.336C258.183 42.448 258.167 42.496 258.103 42.688C257.975 43.024 257.975 43.104 257.943 44.992C257.943 45.104 257.943 45.12 257.943 45.184C260.279 45.008 260.679 44.976 260.951 44.976C261.047 44.976 261.111 45.008 261.143 45.056C261.175 45.136 261.223 45.824 261.223 46.368C261.223 46.592 261.207 46.64 261.127 46.688C261.079 46.72 261.079 46.72 259.703 46.72C259.079 46.72 258.599 46.736 257.879 46.784C257.815 48.144 257.719 49.008 257.543 49.52C257.255 50.384 256.695 50.704 255.463 50.704C255.031 50.704 254.551 50.624 254.391 50.528C254.247 50.432 254.231 50.368 254.135 49.84C254.039 49.312 253.991 49.152 253.799 48.752C254.407 48.96 254.791 49.024 255.223 49.024C255.607 49.024 255.767 48.96 255.895 48.768C256.055 48.544 256.087 48.288 256.167 46.88Z" fill="#005794"/>
<path d="M84 54C84.0933 54 84.1867 53.9067 84.28 53.72C84.3733 53.5333 84.42 53.2267 84.42 52.8V43.2C84.42 42.7733 84.3733 42.4733 84.28 42.3C84.1867 42.1133 84.0933 42.0133 84 42H87.92C87.8267 42 87.7333 42.0933 87.64 42.28C87.5467 42.4667 87.5 42.78 87.5 43.22V51.16C87.5 51.4533 87.5333 51.6333 87.6 51.7C87.68 51.7533 87.92 51.78 88.32 51.78H93.14C93.9133 51.78 94.5333 51.6933 95 51.52C95.48 51.3333 95.7933 51.1533 95.94 50.98L95.34 53.38V54H84ZM97.1445 54C97.2379 54 97.3245 53.9133 97.4045 53.74C97.4979 53.5533 97.5445 53.24 97.5445 52.8V43.2C97.5445 42.7733 97.4979 42.4667 97.4045 42.28C97.3245 42.0933 97.2379 42 97.1445 42H101.005C100.911 42 100.818 42.0933 100.725 42.28C100.631 42.4533 100.585 42.7667 100.585 43.22V52.8C100.585 53.2267 100.631 53.5333 100.725 53.72C100.818 53.9067 100.911 54 101.005 54H97.1445ZM103.004 54C103.097 54 103.191 53.9067 103.284 53.72C103.377 53.5333 103.424 53.2267 103.424 52.8V43.2C103.424 42.7733 103.377 42.4733 103.284 42.3C103.191 42.1133 103.097 42.0133 103.004 42H106.924C106.831 42 106.804 42.0933 106.844 42.28C106.897 42.4667 107.117 42.7867 107.504 43.24C107.611 43.3467 107.784 43.5467 108.024 43.84C108.277 44.12 108.577 44.46 108.924 44.86C109.271 45.26 109.637 45.6933 110.024 46.16C110.424 46.6267 110.824 47.0933 111.224 47.56C111.637 48.0267 112.031 48.4733 112.404 48.9H112.424V43.2C112.424 42.7733 112.377 42.4733 112.284 42.3C112.191 42.1133 112.097 42.0133 112.004 42H115.924C115.831 42 115.737 42.0933 115.644 42.28C115.551 42.4667 115.504 42.78 115.504 43.22V52.8C115.504 53.2267 115.551 53.5333 115.644 53.72C115.737 53.9067 115.831 54 115.924 54H112.484C112.564 54 112.571 53.9067 112.504 53.72C112.451 53.5333 112.244 53.2133 111.884 52.76C111.697 52.52 111.451 52.2133 111.144 51.84C110.837 51.4533 110.491 51.0267 110.104 50.56C109.731 50.0933 109.337 49.6067 108.924 49.1C108.511 48.5933 108.097 48.1 107.684 47.62C107.284 47.1267 106.911 46.6733 106.564 46.26H106.504V52.8C106.504 53.2267 106.551 53.5333 106.644 53.72C106.737 53.9067 106.831 54 106.924 54H103.004ZM117.926 54C118.019 54 118.112 53.9067 118.206 53.72C118.299 53.5333 118.346 53.2267 118.346 52.8V43.2C118.346 42.7733 118.299 42.4733 118.206 42.3C118.112 42.1133 118.019 42.0133 117.926 42H129.606V42.6L130.006 44.92C129.672 44.7733 129.086 44.62 128.246 44.46C127.406 44.2867 126.392 44.2 125.206 44.2H122.246C121.846 44.2 121.606 44.2333 121.526 44.3C121.459 44.3533 121.426 44.52 121.426 44.8V46.28C121.426 46.5733 121.459 46.7467 121.526 46.8C121.606 46.8533 121.839 46.88 122.226 46.88H125.106C125.879 46.88 126.499 46.84 126.966 46.76C127.446 46.6667 127.759 46.5733 127.906 46.48C127.852 46.7333 127.792 47.0267 127.726 47.36C127.659 47.6933 127.606 48.0133 127.566 48.32C127.526 48.6267 127.506 48.88 127.506 49.08H122.226C121.839 49.08 121.606 49.1067 121.526 49.16C121.459 49.2 121.426 49.3733 121.426 49.68V51.16C121.426 51.4667 121.459 51.6467 121.526 51.7C121.592 51.7533 121.826 51.78 122.226 51.78H127.626C128.399 51.78 129.019 51.6933 129.486 51.52C129.966 51.3333 130.279 51.1533 130.426 50.98L130.026 53.38V54H117.926Z" fill="#005794"/>
<path d="M283 39H314L308.095 35" stroke="#005794" stroke-linejoin="bevel"/>
<path d="M90.923 19.879L90.793 18.566C91.079 18.592 91.196 18.605 91.495 18.605C91.534 18.605 91.625 18.605 91.729 18.605C92.028 18.215 92.08 18.137 92.327 17.786C91.82 17.032 91.456 16.564 90.767 15.849L91.43 14.809C91.638 15.043 91.69 15.121 91.833 15.277C92.301 14.497 92.626 13.769 92.769 13.197L94.004 13.73C93.9 13.873 93.874 13.925 93.757 14.159C93.328 15.017 93.068 15.472 92.587 16.174C92.769 16.395 92.86 16.512 93.029 16.759C93.692 15.719 93.965 15.199 94.173 14.614L95.369 15.212C95.33 15.277 95.239 15.42 94.849 16.018C95.434 15.654 95.954 15.147 96.383 14.497C96.682 14.042 96.864 13.717 96.981 13.366L98.19 13.951C98.164 13.99 98.138 14.016 98.125 14.042C98.06 14.146 98.047 14.146 97.995 14.25C97.111 15.771 96.669 16.304 95.655 17.084C95.382 16.629 95.187 16.395 94.797 16.096C93.627 17.877 93.536 18.007 93.081 18.566C93.718 18.54 93.835 18.527 94.394 18.475C94.277 18.202 94.225 18.072 94.03 17.656L94.849 17.292C95.239 17.994 95.512 18.735 95.772 19.71L94.823 20.074C94.771 19.827 94.758 19.749 94.706 19.528C94.576 19.554 94.576 19.554 94.329 19.58C94.303 19.58 94.212 19.593 93.835 19.632V23.571C93.835 24.182 93.861 24.533 93.913 24.871L92.561 24.884C92.613 24.507 92.639 24.13 92.639 23.584V19.723C91.157 19.827 91.157 19.827 90.923 19.879ZM101.96 18.995L100.842 19.723C100.582 19.177 100.491 18.995 100.361 18.735C99.425 18.891 99.373 18.891 98.047 19.021C98.71 19.424 99.334 19.892 99.867 20.386L98.996 21.296C98.333 20.542 97.943 20.23 97.046 19.697L97.813 19.047C97.605 19.073 97.605 19.073 97.28 19.099C96.89 19.138 96.604 19.164 96.422 19.19C96.11 19.216 95.993 19.229 95.785 19.268L95.603 17.955C95.785 17.968 95.876 17.968 96.032 17.968C96.136 17.968 96.188 17.968 96.422 17.968C97.046 16.98 97.631 15.784 97.813 15.069L99.1 15.472L98.58 16.473C98.112 17.383 98.008 17.552 97.8 17.89C99.048 17.812 99.217 17.799 99.789 17.721C99.555 17.344 99.425 17.149 99.035 16.616L100.023 16.07C100.842 17.136 101.245 17.747 101.96 18.995ZM95.252 22.622L94.407 22.895C94.342 21.816 94.277 21.348 94.056 20.477L94.992 20.217C95.226 21.205 95.304 21.621 95.356 22.31C95.525 21.699 95.577 21.335 95.616 20.685L96.734 20.945C96.578 22.388 96.409 23.077 95.967 24.195L94.836 23.532C95.057 23.116 95.122 22.986 95.252 22.622ZM91.287 20.295L92.353 20.464C92.275 22.167 92.158 22.986 91.846 24.182L90.767 23.714C91.105 22.635 91.222 21.894 91.287 20.295ZM98.84 13.938L99.945 13.301C100.335 13.938 100.66 14.354 101.115 14.744C101.609 15.199 101.973 15.446 102.467 15.693C102.168 16.044 101.986 16.343 101.726 16.889C100.66 16.2 99.919 15.472 99.061 14.25C98.996 14.159 98.996 14.159 98.84 13.938ZM96.916 20.555H98.229C98.203 20.841 98.19 21.088 98.19 21.348V23.22C98.19 23.48 98.216 23.493 98.775 23.493C99.022 23.493 99.269 23.441 99.321 23.376C99.451 23.22 99.49 22.973 99.503 22.063C99.893 22.297 100.179 22.388 100.621 22.44C100.465 24.481 100.296 24.663 98.463 24.663C97.852 24.663 97.436 24.585 97.215 24.442C97.046 24.338 96.981 24.143 96.981 23.766V21.491C96.981 21.179 96.955 20.867 96.916 20.555ZM100.101 20.75L101.193 20.282C101.752 21.413 102.012 22.063 102.415 23.415L101.193 24C100.894 22.596 100.634 21.829 100.101 20.75ZM110.501 21.257H109.539C109.058 21.257 108.837 21.27 108.551 21.309V20.113C108.408 20.438 108.369 20.529 108.213 20.841C107.862 20.49 107.706 20.386 107.303 20.165C107.615 19.645 107.849 19.125 108.005 18.566H107.225L107.251 23.623C107.251 23.948 107.199 24.169 107.095 24.338C106.913 24.611 106.562 24.728 105.847 24.728C105.587 24.728 105.145 24.702 104.794 24.676C104.768 24.208 104.716 23.922 104.534 23.454C105.028 23.545 105.405 23.597 105.639 23.597C105.977 23.597 106.042 23.545 106.042 23.285L106.029 20.308C105.548 21.4 104.976 22.219 104.183 22.947C104.001 22.362 103.858 22.037 103.572 21.582C104.573 20.724 105.158 19.905 105.678 18.566H104.82C104.339 18.566 104.04 18.579 103.767 18.631V17.318C104.079 17.357 104.378 17.37 104.898 17.37H106.146C105.509 16.759 105.067 16.382 104.482 15.953L105.262 15.212C106.003 15.771 106.042 15.81 106.328 16.044C106.731 15.732 107.017 15.42 107.342 14.952H105.158C104.729 14.952 104.417 14.965 104.092 15.004V13.717C104.404 13.756 104.716 13.769 105.262 13.769H107.407C108.031 13.769 108.2 13.756 108.46 13.73L109.136 14.458C109.084 14.523 108.993 14.627 108.863 14.809C108.304 15.576 107.602 16.382 107.121 16.772C107.238 16.889 107.277 16.941 107.394 17.071L107.121 17.37H107.862C108.304 17.37 108.551 17.357 108.772 17.331L109.318 17.994C109.266 18.085 109.227 18.163 109.162 18.384C109.942 18.189 110.605 17.942 111.203 17.604C110.774 17.188 110.449 16.772 110.189 16.317C109.851 16.746 109.708 16.915 109.227 17.422C108.941 17.071 108.681 16.837 108.278 16.577C109.201 15.771 109.708 15.108 110.137 14.159C110.319 13.782 110.371 13.613 110.449 13.21L111.749 13.47C111.71 13.535 111.645 13.691 111.554 13.912C111.489 14.068 111.476 14.12 111.346 14.393H113.946C114.505 14.393 114.947 14.367 115.259 14.328V15.589C114.986 15.563 114.765 15.55 114.362 15.55C113.972 16.46 113.699 16.902 113.127 17.513C113.829 17.838 114.466 18.02 115.519 18.202C115.22 18.696 115.129 18.904 114.947 19.502C113.595 19.125 112.854 18.813 112.139 18.345C111.801 18.579 111.502 18.735 110.969 18.969L112.256 18.995C112.243 19.086 112.243 19.086 112.23 19.164C112.23 19.216 112.217 19.294 112.204 19.385C112.191 19.45 112.191 19.463 112.178 19.58C112.152 19.749 112.139 19.853 112.1 20.074H113.894C114.414 20.074 114.648 20.061 114.869 20.035C114.843 20.334 114.843 20.334 114.817 20.568C114.726 22.024 114.557 23.194 114.388 23.701C114.141 24.468 113.816 24.663 112.841 24.663C112.49 24.663 112.087 24.637 111.515 24.572C111.476 24.078 111.411 23.792 111.216 23.285C111.801 23.402 112.282 23.454 112.659 23.454C113.062 23.454 113.192 23.298 113.322 22.674C113.413 22.271 113.452 21.881 113.478 21.257H111.853C111.32 22.96 110.319 23.987 108.356 24.858C108.135 24.429 107.914 24.104 107.576 23.74C109.175 23.155 110.007 22.44 110.501 21.257ZM109.617 20.074H110.813C110.852 19.736 110.878 19.424 110.878 19.125C110.878 19.073 110.878 19.073 110.865 19.021C110.384 19.229 110.111 19.333 109.435 19.541C109.292 19.229 109.24 19.112 109.032 18.8C108.85 19.333 108.798 19.502 108.59 20.035C108.811 20.061 109.058 20.074 109.617 20.074ZM113.023 15.55H111.06C111.307 16.031 111.645 16.46 112.139 16.889C112.581 16.447 112.789 16.135 113.023 15.55ZM116.949 19.853L116.806 18.553C116.988 18.579 117.118 18.592 117.404 18.592C117.469 18.592 117.56 18.592 117.859 18.592C118.028 18.371 118.132 18.228 118.444 17.773C117.911 17.019 117.352 16.382 116.754 15.849L117.404 14.783C117.651 15.03 117.716 15.095 117.885 15.277C118.327 14.536 118.743 13.626 118.847 13.184L120.108 13.678C119.991 13.873 119.991 13.873 119.64 14.549C119.367 15.095 119.042 15.654 118.704 16.161C118.886 16.382 118.886 16.382 119.159 16.72C119.991 15.368 120.121 15.147 120.342 14.562L121.447 15.212C121.317 15.394 121.317 15.394 120.693 16.369C120.316 16.967 119.588 17.994 119.159 18.54C119.848 18.501 120.043 18.488 120.511 18.436C120.407 18.137 120.329 17.942 120.108 17.435L120.94 17.019C121.46 18.15 121.668 18.683 121.954 19.632L121.005 20.1C120.927 19.801 120.901 19.671 120.849 19.489C120.407 19.554 120.277 19.567 120.017 19.593V23.532C120.017 24.143 120.03 24.468 120.082 24.845H118.717C118.769 24.455 118.795 24.143 118.795 23.532V19.697C118.392 19.723 118.054 19.749 117.742 19.775C117.17 19.801 117.144 19.814 116.949 19.853ZM125.334 20.269H126.465C126.985 20.269 127.349 20.243 127.674 20.204V21.517C127.323 21.478 126.92 21.465 126.465 21.465H125.334V23.194H126.868C127.544 23.194 127.882 23.181 128.22 23.129V24.481C127.817 24.429 127.427 24.403 126.842 24.403H122.747C122.201 24.403 121.798 24.429 121.382 24.481V23.142C121.72 23.181 122.019 23.194 122.565 23.194H124.034V21.465H123.189C122.721 21.465 122.331 21.478 121.954 21.517V20.204C122.279 20.256 122.604 20.269 123.202 20.269H124.034V20.022C124.034 19.398 124.008 19.073 123.956 18.826H125.386C125.347 19.138 125.334 19.463 125.334 20.022V20.269ZM127.037 13.743L127.817 14.484C127.375 15.173 126.946 15.797 126.829 15.953C126.517 16.369 126.14 16.785 125.75 17.162C126.582 17.604 127.31 17.864 128.415 18.085C128.116 18.566 128.012 18.813 127.83 19.437C126.504 19.034 125.581 18.618 124.697 18.02C123.943 18.553 123.384 18.852 122.383 19.268C122.149 18.813 121.954 18.54 121.577 18.098C122.409 17.838 123.007 17.578 123.657 17.188C122.981 16.525 122.526 15.875 122.097 15.017C121.772 15.03 121.642 15.043 121.434 15.069V13.73C121.733 13.769 122.149 13.795 122.799 13.795H126.049C126.543 13.795 126.79 13.782 127.037 13.743ZM125.932 15.017H123.449C123.787 15.615 124.099 15.979 124.671 16.447C125.269 15.914 125.542 15.615 125.932 15.017ZM117.3 20.282L118.379 20.49C118.314 22.245 118.236 22.895 117.95 24.247L116.806 23.792C117.131 22.726 117.248 21.894 117.3 20.282ZM120.368 20.464L121.304 20.204C121.486 20.88 121.551 21.348 121.681 22.856L120.628 23.155C120.615 22.102 120.563 21.491 120.368 20.464ZM136.761 23.22V21.92H135.37C134.668 21.92 134.395 21.933 134.07 21.972V20.698C134.382 20.737 134.629 20.75 135.357 20.75H136.761V19.749H135.578C134.759 19.749 134.408 19.762 134.07 19.788C134.109 19.489 134.122 19.008 134.122 18.241V15.42C134.122 14.549 134.109 14.172 134.057 13.743C134.525 13.795 134.954 13.808 135.747 13.808H139.179C140.102 13.808 140.479 13.795 140.791 13.743C140.765 14.107 140.739 14.705 140.739 15.446V18.111C140.739 18.969 140.752 19.424 140.791 19.788C140.336 19.749 140.193 19.749 139.439 19.749H138.009V20.75H139.595C140.284 20.75 140.557 20.737 140.921 20.685V21.985C140.557 21.933 140.232 21.92 139.608 21.92H138.009V23.22H140.011C140.661 23.22 140.999 23.207 141.324 23.155V24.494C140.895 24.442 140.596 24.429 139.92 24.429H134.681C133.992 24.429 133.719 24.442 133.251 24.494V23.155C133.589 23.207 133.875 23.22 134.525 23.22H136.761ZM136.761 15.017H135.37V16.265H136.761V15.017ZM138.009 15.017V16.265H139.439V15.017H138.009ZM136.761 17.305H135.37V18.579H136.761V17.305ZM138.009 17.305V18.579H139.439V17.305H138.009ZM131.197 15.134H130.716C130.313 15.134 130.092 15.147 129.78 15.186V13.86C130.079 13.899 130.417 13.925 130.924 13.925H132.692C133.173 13.925 133.472 13.912 133.784 13.86V15.186C133.472 15.147 133.225 15.134 132.874 15.134H132.497V17.578H132.783C133.108 17.578 133.303 17.565 133.576 17.526V18.787C133.316 18.761 133.082 18.748 132.783 18.748H132.497V21.205C133.082 20.958 133.199 20.893 133.719 20.646L133.745 21.959C132.692 22.479 132.146 22.726 130.248 23.493C130.183 23.519 130.118 23.545 130.001 23.597L129.663 22.18C130.118 22.089 130.378 22.011 131.197 21.712V18.748H130.794C130.43 18.748 130.209 18.761 129.936 18.8V17.526C130.235 17.565 130.417 17.578 130.82 17.578H131.197V15.134ZM150.658 14.406V15.485C150.398 15.472 150.398 15.472 150.268 15.472C150.164 16.005 150.073 16.434 149.956 16.811H150.944C150.931 15.758 150.918 14.913 150.918 14.276C150.918 13.782 150.905 13.665 150.866 13.379H152.179C152.127 13.795 152.114 14.029 152.114 14.913C152.114 15.42 152.114 15.94 152.14 16.811H152.868C153.609 16.811 153.869 16.798 154.259 16.746V18.046C153.778 17.994 153.622 17.981 152.868 17.981H152.179C152.244 19.021 152.309 19.606 152.413 20.269C152.751 19.606 153.037 18.878 153.115 18.488L154.129 19.138C154.051 19.294 153.96 19.502 153.856 19.736C153.596 20.373 153.141 21.231 152.79 21.79C153.011 22.466 153.31 23.077 153.401 23.077C153.492 23.077 153.57 22.492 153.609 21.517C153.934 21.79 154.298 22.037 154.61 22.18C154.506 23.155 154.402 23.636 154.233 24C154.064 24.364 153.791 24.572 153.466 24.572C152.933 24.572 152.361 23.974 151.906 22.96C151.295 23.675 150.762 24.169 149.904 24.806C149.579 24.299 149.462 24.169 149.111 23.844C149.553 23.558 149.709 23.454 149.969 23.246H148.045V24.065H146.914C146.953 23.701 146.966 23.402 146.966 22.973V19.593C146.966 19.034 146.966 18.852 146.927 18.475C147.148 18.514 147.278 18.514 147.72 18.514H149.709C150.073 18.514 150.216 18.501 150.528 18.475C150.489 18.748 150.489 18.956 150.489 19.593V22.271C150.489 22.687 150.489 22.687 150.489 22.791C150.84 22.466 151.061 22.232 151.49 21.712C151.217 20.698 151.1 19.866 150.983 17.981H146.355V23.506C146.355 24.169 146.368 24.468 146.42 24.832H145.159C145.211 24.481 145.224 24.078 145.224 23.493V22.57C144.587 22.778 144.08 22.921 143.651 23.038C143.04 23.207 143.04 23.207 142.806 23.298L142.52 21.959C142.65 21.959 142.806 21.933 143.209 21.855V14.9C142.962 14.913 142.832 14.926 142.65 14.952V13.626C142.923 13.665 143.222 13.691 143.703 13.691H145.679C146.186 13.691 146.472 13.678 146.745 13.626V14.393C147.018 14.432 147.187 14.445 147.525 14.445H148.11V14.367C148.11 13.86 148.097 13.639 148.045 13.353H149.397C149.345 13.639 149.332 13.886 149.332 14.367V14.445H149.774C150.229 14.445 150.398 14.432 150.658 14.406ZM149.228 15.459H148.201C148.292 15.823 148.344 16.2 148.422 16.811H148.942C149.072 16.408 149.163 15.94 149.228 15.459ZM146.355 16.811H147.421C147.369 16.46 147.252 15.888 147.135 15.459C146.966 15.472 146.927 15.472 146.719 15.498V14.926C146.576 14.913 146.537 14.913 146.355 14.9V16.811ZM144.353 14.9V16.369H145.224V14.9H144.353ZM144.353 17.474V18.813H145.224V17.474H144.353ZM144.353 19.918V21.595C144.834 21.478 144.912 21.452 145.224 21.361V19.918H144.353ZM148.032 19.554V20.36H149.449V19.554H148.032ZM148.032 21.335V22.219H149.449V21.335H148.032ZM152.348 14.354L153.258 13.873C153.7 14.523 153.921 14.952 154.246 15.758L153.271 16.33C152.985 15.433 152.803 15.043 152.348 14.354ZM159.68 16.525V17.799C159.446 17.76 159.212 17.747 158.874 17.747H158.692C159.134 18.657 159.381 19.021 159.875 19.515C159.589 19.905 159.42 20.243 159.277 20.698C158.991 20.256 158.822 19.944 158.562 19.32C158.588 19.645 158.601 19.723 158.601 20.061C158.601 20.191 158.614 20.321 158.614 20.464C158.614 20.685 158.627 20.841 158.627 20.932V23.389C158.627 24.078 158.64 24.39 158.692 24.845H157.314C157.366 24.364 157.392 23.987 157.392 23.389V21.413C157.405 20.802 157.405 20.802 157.418 20.49C157.418 20.165 157.431 20.035 157.457 19.684C157.171 20.685 156.768 21.517 156.157 22.414C155.975 21.881 155.793 21.517 155.52 21.114C156.066 20.412 156.365 19.892 156.755 19.06C156.976 18.579 157.171 18.085 157.262 17.747H156.742C156.404 17.747 156.131 17.76 155.845 17.812V16.499C156.157 16.538 156.404 16.551 156.768 16.551H157.392V15.147C157.054 15.225 156.82 15.264 156.196 15.381C156.04 14.9 155.949 14.653 155.715 14.224C156.781 14.133 157.886 13.86 158.77 13.496C159.004 13.405 159.095 13.353 159.238 13.262L159.927 14.354C159.771 14.419 159.459 14.536 159.251 14.614C159.134 14.653 158.991 14.705 158.627 14.822V16.551H158.887C159.186 16.551 159.329 16.551 159.563 16.525V15.394C159.862 15.433 160.252 15.446 160.746 15.446H162.592V14.926C161.942 14.965 161.5 14.965 160.369 14.978C160.239 14.536 160.109 14.263 159.901 13.925C160.382 13.938 160.759 13.938 160.915 13.938C162.943 13.938 165.205 13.678 166.063 13.353L166.882 14.419C166.804 14.445 166.804 14.445 166.518 14.497C165.894 14.627 164.867 14.757 163.801 14.848V15.446H165.92C166.427 15.446 166.83 15.42 167.168 15.368V16.538C166.83 16.512 166.505 16.499 166.024 16.499H163.801V17.006H165.4C165.998 17.006 166.271 16.993 166.609 16.967C166.57 17.253 166.57 17.461 166.57 18.02V20.009C166.57 20.62 166.57 20.88 166.609 21.179C166.245 21.153 166.05 21.14 165.53 21.14H163.801V21.712H165.504C166.154 21.712 166.414 21.699 166.739 21.66V22.83C166.362 22.791 165.946 22.778 165.504 22.778H163.801V23.402H165.881C166.44 23.402 166.882 23.376 167.22 23.337V24.546C166.869 24.494 166.427 24.468 165.816 24.468H160.694C160.057 24.468 159.654 24.494 159.303 24.533V23.35C159.602 23.389 160.057 23.402 160.681 23.402H162.592V22.778H160.993C160.395 22.778 160.161 22.791 159.758 22.817V21.66C160.096 21.699 160.356 21.712 160.993 21.712H162.592V21.14H161.045C160.512 21.14 160.278 21.153 159.979 21.179C160.005 20.88 160.018 20.555 160.018 19.983V18.046C160.018 17.5 160.005 17.227 159.979 16.967C160.317 16.993 160.564 17.006 161.149 17.006H162.592V16.499H160.759C160.356 16.499 159.914 16.512 159.68 16.525ZM162.592 18.007H161.188V18.605H162.592V18.007ZM162.592 19.502H161.188V20.126H162.592V19.502ZM163.801 20.126H165.374V19.502H163.801V20.126ZM163.801 18.605H165.374V18.007H163.801V18.605ZM175.436 16.07C175.072 18.813 174.643 20.308 173.85 21.673C173.226 22.752 172.368 23.35 171.484 23.35C170.132 23.35 169.17 22.024 169.17 20.178C169.17 18.124 170.21 16.356 171.991 15.42C172.862 14.952 173.798 14.744 175.033 14.744C177.75 14.744 179.765 16.668 179.765 19.242C179.765 21.517 178.647 23.155 176.489 24.078C176.06 24.26 175.722 24.364 175.553 24.364C175.397 24.364 175.332 24.312 175.163 24.065C174.942 23.727 174.695 23.48 174.344 23.246C177.022 22.557 178.231 21.296 178.231 19.19C178.231 18.111 177.776 17.201 176.97 16.629C176.515 16.317 176.151 16.187 175.436 16.07ZM173.954 16.135C173.031 16.33 172.576 16.551 171.978 17.071C171.107 17.838 170.613 18.93 170.613 20.152C170.613 21.153 170.938 21.738 171.484 21.738C172.134 21.738 172.797 20.841 173.291 19.294C173.603 18.319 173.759 17.578 173.954 16.135ZM186.681 15.147V14.38C186.681 13.977 186.655 13.652 186.603 13.353H188.202C188.15 13.6 188.124 13.938 188.124 14.38V15.147H191.569C192.271 15.147 192.726 15.121 193.142 15.056V16.577C192.765 16.525 192.349 16.499 191.608 16.499H187.045C187.032 16.603 187.032 16.603 187.032 16.746C187.006 17.201 186.98 17.448 186.941 17.838H190.399C191.062 17.838 191.387 17.825 191.699 17.786C191.686 17.838 191.686 17.877 191.686 17.903C191.66 18.098 191.66 18.189 191.634 18.774C191.569 20.737 191.426 22.232 191.205 23.155C190.919 24.338 190.503 24.65 189.255 24.65C188.813 24.65 188.527 24.637 187.565 24.572C187.513 23.987 187.409 23.571 187.214 23.116C187.916 23.233 188.527 23.285 189.086 23.285C189.632 23.285 189.749 23.142 189.918 22.284C190.074 21.53 190.139 20.789 190.191 19.151H186.746C186.213 21.673 185.108 23.246 182.729 24.806C182.417 24.26 182.196 23.987 181.728 23.61C182.833 22.934 183.353 22.505 183.964 21.777C185.043 20.477 185.459 19.047 185.524 16.499H183.483C182.859 16.499 182.339 16.525 181.91 16.577V15.056C182.365 15.121 182.82 15.147 183.47 15.147H186.681ZM198.069 19.554L198.407 17.448C197.484 17.266 196.782 16.993 196.301 16.655C196.067 16.499 196.015 16.434 196.015 16.317C196.015 16.174 196.119 15.914 196.483 15.186C197.12 15.589 197.835 15.875 198.654 16.044C198.836 15.134 198.914 14.38 198.927 13.535C199.59 13.652 200.175 13.847 200.5 14.029C200.643 14.107 200.695 14.185 200.682 14.289C200.682 14.341 200.656 14.393 200.591 14.523C200.396 14.926 200.383 14.965 200.11 16.239C200.24 16.252 200.409 16.252 200.513 16.252C200.526 16.252 200.565 16.252 200.604 16.252C200.916 16.239 201.15 16.239 201.267 16.239H201.306C201.423 16.239 201.462 16.291 201.462 16.46C201.462 17.032 201.423 17.5 201.371 17.591C201.332 17.656 201.163 17.682 200.617 17.682C200.37 17.682 200.175 17.669 199.811 17.656C199.538 18.995 199.538 18.995 199.421 19.697C199.863 19.736 199.954 19.736 200.175 19.736L200.903 19.723C201.033 19.723 201.098 19.749 201.137 19.814C201.189 19.892 201.228 20.308 201.228 20.776C201.228 21.01 201.215 21.075 201.137 21.114C201.072 21.14 200.786 21.153 200.292 21.153C200.058 21.153 199.707 21.14 199.252 21.114C199.239 21.348 199.239 21.504 199.239 21.608C199.239 22.804 199.798 23.35 201.02 23.35C202.385 23.35 203.204 22.687 203.204 21.569C203.204 21.166 203.113 20.802 202.905 20.399C202.645 19.905 202.398 19.619 201.774 19.125C201.826 19.125 201.865 19.125 201.891 19.125C202.099 19.125 202.541 19.06 202.931 18.982C203.139 18.943 203.217 18.93 203.282 18.93C203.477 18.93 203.607 19.021 203.867 19.346C204.465 20.074 204.764 20.841 204.764 21.647C204.764 23.48 203.282 24.689 201.033 24.689C198.927 24.689 197.874 23.636 197.874 21.504C197.874 21.322 197.874 21.179 197.9 20.958C196.613 20.685 195.911 20.048 195.911 19.125C195.911 18.644 196.054 18.293 196.418 17.929C196.457 17.877 196.509 17.864 196.561 17.864C196.639 17.864 196.73 17.929 197.029 18.176C197.263 18.371 197.302 18.41 197.302 18.475C197.302 18.527 197.302 18.527 197.224 18.644C197.172 18.735 197.12 18.878 197.12 18.956C197.12 19.125 197.224 19.268 197.419 19.359C197.601 19.45 197.653 19.463 198.069 19.554ZM210.172 22.453V21.959C209.587 22.297 209.223 22.466 208.43 22.765C208.196 22.297 208.027 22.037 207.702 21.686C208.742 21.426 209.769 20.971 210.497 20.451H209.184C208.599 20.451 208.209 20.477 207.819 20.516V19.333C208.222 19.385 208.612 19.398 209.223 19.398H211.693C211.823 19.255 211.927 19.112 212.005 18.995H210.315C209.912 18.995 209.587 19.008 209.314 19.021C209.353 18.735 209.366 18.475 209.366 18.163V16.369C209.366 16.07 209.353 15.784 209.314 15.511C209.548 15.524 209.808 15.537 210.315 15.537H210.861V15.069H209.236C208.651 15.069 208.326 15.082 207.858 15.147V13.938C208.274 13.99 208.703 14.016 209.262 14.016H210.861V13.951C210.861 13.652 210.848 13.496 210.809 13.275H212.2C212.161 13.509 212.161 13.639 212.161 13.951V14.016H214.735V13.951C214.735 13.639 214.722 13.483 214.683 13.275H216.074C216.048 13.496 216.035 13.652 216.035 13.951V14.016H217.712C218.258 14.016 218.687 13.99 219.116 13.938V15.147C218.648 15.082 218.336 15.069 217.751 15.069H216.035V15.537H216.698C217.218 15.537 217.478 15.524 217.699 15.511C217.673 15.771 217.66 16.018 217.66 16.369V18.163C217.66 18.514 217.673 18.748 217.699 19.021C217.439 19.008 217.101 18.995 216.698 18.995H213.383C213.266 19.203 213.201 19.294 213.123 19.398H217.777C218.388 19.398 218.791 19.385 219.194 19.333V20.516C218.791 20.464 218.414 20.451 217.816 20.451H216.477C216.802 20.698 217.257 20.945 217.803 21.166C218.284 21.361 218.674 21.465 219.441 21.608C219.168 21.998 218.973 22.349 218.804 22.804C218.076 22.544 217.543 22.323 217.088 22.076C216.971 23.246 216.88 23.662 216.711 24.052C216.49 24.559 216.009 24.741 214.891 24.741C214.657 24.741 214.423 24.728 213.916 24.702C213.864 24.247 213.747 23.896 213.513 23.493C214.059 23.584 214.41 23.623 214.774 23.623C215.281 23.623 215.502 23.558 215.593 23.363C215.671 23.207 215.723 22.908 215.775 22.401H213.552C212.798 23.779 211.472 24.546 209.275 24.884C209.093 24.455 208.924 24.182 208.599 23.779C210.289 23.623 211.394 23.181 212.083 22.401H211.264C210.77 22.401 210.458 22.414 210.172 22.453ZM214.852 20.451H212.213C211.901 20.763 211.342 21.231 211.056 21.413C211.095 21.413 211.095 21.413 211.186 21.413H212.629C212.72 21.153 212.746 21.01 212.746 20.698L214.15 20.75C214.124 20.802 214.059 21.023 213.955 21.413H216.022C215.58 21.127 215.281 20.867 214.852 20.451ZM214.735 15.537V15.069H212.161V15.537H214.735ZM210.614 16.395V16.798H216.399V16.395H210.614ZM210.614 17.643V18.072H216.399V17.643H210.614ZM227.488 18.449V19.086H230.426C230.998 19.086 231.31 19.073 231.635 19.034V20.113C231.297 20.074 231.024 20.061 230.439 20.061H227.137V20.711H230.686C231.427 20.711 231.778 20.698 232.103 20.646V21.907C231.7 21.855 231.31 21.842 230.686 21.842H228.203C229.152 22.531 230.751 23.142 232.324 23.415C232.077 23.753 231.986 23.909 231.869 24.143C231.856 24.169 231.804 24.286 231.739 24.455C231.713 24.507 231.674 24.598 231.622 24.702C230.647 24.442 229.906 24.169 229.126 23.779C228.255 23.35 227.722 22.986 227.098 22.388C227.124 22.817 227.137 23.077 227.137 23.22V23.935C227.137 24.39 227.15 24.572 227.215 24.832H225.72C225.785 24.572 225.798 24.364 225.798 23.948V23.22C225.798 22.921 225.811 22.661 225.837 22.401C225.2 23.025 224.589 23.454 223.588 23.922C222.899 24.234 222.249 24.455 221.365 24.689C221.17 24.208 220.949 23.818 220.663 23.428C222.327 23.168 223.796 22.583 224.706 21.842H222.301C221.677 21.842 221.3 21.855 220.884 21.907V20.646C221.222 20.698 221.547 20.711 222.301 20.711H225.798V20.061H223.341C222.847 20.061 222.6 20.074 222.288 20.087C222.314 19.814 222.327 19.502 222.327 19.099V17.539C222.327 17.123 222.34 16.811 222.366 16.473C222.002 16.889 221.729 17.136 221.209 17.539C221.001 17.006 220.845 16.733 220.559 16.33C221.547 15.641 222.21 14.939 222.86 13.925C223.029 13.639 223.172 13.353 223.25 13.106L224.693 13.34C224.251 14.068 224.212 14.12 224.017 14.393H226.24C226.539 13.951 226.734 13.587 226.89 13.132L228.307 13.314C227.995 13.847 227.865 14.081 227.644 14.393H230.348C230.907 14.393 231.219 14.38 231.557 14.328V15.498C231.245 15.459 230.998 15.446 230.53 15.446H227.488V16.044H229.893C230.504 16.044 230.712 16.031 231.076 15.992V17.006C230.686 16.954 230.569 16.954 229.893 16.954H227.488V17.539H229.893C230.517 17.539 230.699 17.526 231.076 17.487V18.501C230.725 18.462 230.556 18.449 229.893 18.449H227.488ZM226.188 18.449H223.627V19.086H226.188V18.449ZM226.188 17.539V16.954H223.627V17.539H226.188ZM226.188 16.044V15.446H223.627V16.044H226.188ZM238.72 15.42V14.653C238.72 14.016 238.707 13.704 238.642 13.288H240.228C240.176 13.691 240.15 14.016 240.15 14.601V15.42H243.556C244.102 15.42 244.375 15.407 244.7 15.368C244.661 15.719 244.648 15.979 244.648 16.473V20.269C244.648 20.828 244.661 21.153 244.713 21.517H243.231V20.776H240.15V23.298C240.15 24.052 240.176 24.429 240.241 24.858H238.629C238.694 24.416 238.72 24.013 238.72 23.298V20.776H235.782V21.517H234.3C234.352 21.114 234.365 20.802 234.365 20.269V16.46C234.365 15.992 234.352 15.771 234.313 15.368C234.664 15.407 234.937 15.42 235.444 15.42H238.72ZM238.72 16.746H235.782V19.45H238.72V16.746ZM240.15 19.45H243.231V16.746H240.15V19.45ZM253.436 13.795L253.072 21.582H251.915L251.564 13.795H253.436ZM252.5 22.479C253.072 22.479 253.527 22.934 253.527 23.506C253.527 24.078 253.072 24.533 252.5 24.533C251.928 24.533 251.473 24.078 251.473 23.506C251.473 22.934 251.928 22.479 252.5 22.479Z" fill="#005794"/>
<path d="M87 29H170L175 34" stroke="#005794"/>
<path d="M178 29H258" stroke="#005794"/>
</svg>
