<svg width="248" height="85" viewBox="0 0 248 85" fill="none" xmlns="http://www.w3.org/2000/svg">
<path d="M19.0107 5.54545V13.1349L21.9283 10.2081L22.6485 10.919L18.5029 15.0554L14.3665 10.919L15.0682 10.2081L17.9951 13.1349V5.54545H19.0107Z" fill="white"/>
<path d="M39.923 10.879L39.793 9.566C40.079 9.592 40.196 9.605 40.495 9.605C40.534 9.605 40.625 9.605 40.729 9.605C41.028 9.215 41.08 9.137 41.327 8.786C40.82 8.032 40.456 7.564 39.767 6.849L40.43 5.809C40.638 6.043 40.69 6.121 40.833 6.277C41.301 5.497 41.626 4.769 41.769 4.197L43.004 4.73C42.9 4.873 42.874 4.925 42.757 5.159C42.328 6.017 42.068 6.472 41.587 7.174C41.769 7.395 41.86 7.512 42.029 7.759C42.692 6.719 42.965 6.199 43.173 5.614L44.369 6.212C44.33 6.277 44.239 6.42 43.849 7.018C44.434 6.654 44.954 6.147 45.383 5.497C45.682 5.042 45.864 4.717 45.981 4.366L47.19 4.951C47.164 4.99 47.138 5.016 47.125 5.042C47.06 5.146 47.047 5.146 46.995 5.25C46.111 6.771 45.669 7.304 44.655 8.084C44.382 7.629 44.187 7.395 43.797 7.096C42.627 8.877 42.536 9.007 42.081 9.566C42.718 9.54 42.835 9.527 43.394 9.475C43.277 9.202 43.225 9.072 43.03 8.656L43.849 8.292C44.239 8.994 44.512 9.735 44.772 10.71L43.823 11.074C43.771 10.827 43.758 10.749 43.706 10.528C43.576 10.554 43.576 10.554 43.329 10.58C43.303 10.58 43.212 10.593 42.835 10.632V14.571C42.835 15.182 42.861 15.533 42.913 15.871L41.561 15.884C41.613 15.507 41.639 15.13 41.639 14.584V10.723C40.157 10.827 40.157 10.827 39.923 10.879ZM50.96 9.995L49.842 10.723C49.582 10.177 49.491 9.995 49.361 9.735C48.425 9.891 48.373 9.891 47.047 10.021C47.71 10.424 48.334 10.892 48.867 11.386L47.996 12.296C47.333 11.542 46.943 11.23 46.046 10.697L46.813 10.047C46.605 10.073 46.605 10.073 46.28 10.099C45.89 10.138 45.604 10.164 45.422 10.19C45.11 10.216 44.993 10.229 44.785 10.268L44.603 8.955C44.785 8.968 44.876 8.968 45.032 8.968C45.136 8.968 45.188 8.968 45.422 8.968C46.046 7.98 46.631 6.784 46.813 6.069L48.1 6.472L47.58 7.473C47.112 8.383 47.008 8.552 46.8 8.89C48.048 8.812 48.217 8.799 48.789 8.721C48.555 8.344 48.425 8.149 48.035 7.616L49.023 7.07C49.842 8.136 50.245 8.747 50.96 9.995ZM44.252 13.622L43.407 13.895C43.342 12.816 43.277 12.348 43.056 11.477L43.992 11.217C44.226 12.205 44.304 12.621 44.356 13.31C44.525 12.699 44.577 12.335 44.616 11.685L45.734 11.945C45.578 13.388 45.409 14.077 44.967 15.195L43.836 14.532C44.057 14.116 44.122 13.986 44.252 13.622ZM40.287 11.295L41.353 11.464C41.275 13.167 41.158 13.986 40.846 15.182L39.767 14.714C40.105 13.635 40.222 12.894 40.287 11.295ZM47.84 4.938L48.945 4.301C49.335 4.938 49.66 5.354 50.115 5.744C50.609 6.199 50.973 6.446 51.467 6.693C51.168 7.044 50.986 7.343 50.726 7.889C49.66 7.2 48.919 6.472 48.061 5.25C47.996 5.159 47.996 5.159 47.84 4.938ZM45.916 11.555H47.229C47.203 11.841 47.19 12.088 47.19 12.348V14.22C47.19 14.48 47.216 14.493 47.775 14.493C48.022 14.493 48.269 14.441 48.321 14.376C48.451 14.22 48.49 13.973 48.503 13.063C48.893 13.297 49.179 13.388 49.621 13.44C49.465 15.481 49.296 15.663 47.463 15.663C46.852 15.663 46.436 15.585 46.215 15.442C46.046 15.338 45.981 15.143 45.981 14.766V12.491C45.981 12.179 45.955 11.867 45.916 11.555ZM49.101 11.75L50.193 11.282C50.752 12.413 51.012 13.063 51.415 14.415L50.193 15C49.894 13.596 49.634 12.829 49.101 11.75ZM59.501 12.257H58.539C58.058 12.257 57.837 12.27 57.551 12.309V11.113C57.408 11.438 57.369 11.529 57.213 11.841C56.862 11.49 56.706 11.386 56.303 11.165C56.615 10.645 56.849 10.125 57.005 9.566H56.225L56.251 14.623C56.251 14.948 56.199 15.169 56.095 15.338C55.913 15.611 55.562 15.728 54.847 15.728C54.587 15.728 54.145 15.702 53.794 15.676C53.768 15.208 53.716 14.922 53.534 14.454C54.028 14.545 54.405 14.597 54.639 14.597C54.977 14.597 55.042 14.545 55.042 14.285L55.029 11.308C54.548 12.4 53.976 13.219 53.183 13.947C53.001 13.362 52.858 13.037 52.572 12.582C53.573 11.724 54.158 10.905 54.678 9.566H53.82C53.339 9.566 53.04 9.579 52.767 9.631V8.318C53.079 8.357 53.378 8.37 53.898 8.37H55.146C54.509 7.759 54.067 7.382 53.482 6.953L54.262 6.212C55.003 6.771 55.042 6.81 55.328 7.044C55.731 6.732 56.017 6.42 56.342 5.952H54.158C53.729 5.952 53.417 5.965 53.092 6.004V4.717C53.404 4.756 53.716 4.769 54.262 4.769H56.407C57.031 4.769 57.2 4.756 57.46 4.73L58.136 5.458C58.084 5.523 57.993 5.627 57.863 5.809C57.304 6.576 56.602 7.382 56.121 7.772C56.238 7.889 56.277 7.941 56.394 8.071L56.121 8.37H56.862C57.304 8.37 57.551 8.357 57.772 8.331L58.318 8.994C58.266 9.085 58.227 9.163 58.162 9.384C58.942 9.189 59.605 8.942 60.203 8.604C59.774 8.188 59.449 7.772 59.189 7.317C58.851 7.746 58.708 7.915 58.227 8.422C57.941 8.071 57.681 7.837 57.278 7.577C58.201 6.771 58.708 6.108 59.137 5.159C59.319 4.782 59.371 4.613 59.449 4.21L60.749 4.47C60.71 4.535 60.645 4.691 60.554 4.912C60.489 5.068 60.476 5.12 60.346 5.393H62.946C63.505 5.393 63.947 5.367 64.259 5.328V6.589C63.986 6.563 63.765 6.55 63.362 6.55C62.972 7.46 62.699 7.902 62.127 8.513C62.829 8.838 63.466 9.02 64.519 9.202C64.22 9.696 64.129 9.904 63.947 10.502C62.595 10.125 61.854 9.813 61.139 9.345C60.801 9.579 60.502 9.735 59.969 9.969L61.256 9.995C61.243 10.086 61.243 10.086 61.23 10.164C61.23 10.216 61.217 10.294 61.204 10.385C61.191 10.45 61.191 10.463 61.178 10.58C61.152 10.749 61.139 10.853 61.1 11.074H62.894C63.414 11.074 63.648 11.061 63.869 11.035C63.843 11.334 63.843 11.334 63.817 11.568C63.726 13.024 63.557 14.194 63.388 14.701C63.141 15.468 62.816 15.663 61.841 15.663C61.49 15.663 61.087 15.637 60.515 15.572C60.476 15.078 60.411 14.792 60.216 14.285C60.801 14.402 61.282 14.454 61.659 14.454C62.062 14.454 62.192 14.298 62.322 13.674C62.413 13.271 62.452 12.881 62.478 12.257H60.853C60.32 13.96 59.319 14.987 57.356 15.858C57.135 15.429 56.914 15.104 56.576 14.74C58.175 14.155 59.007 13.44 59.501 12.257ZM58.617 11.074H59.813C59.852 10.736 59.878 10.424 59.878 10.125C59.878 10.073 59.878 10.073 59.865 10.021C59.384 10.229 59.111 10.333 58.435 10.541C58.292 10.229 58.24 10.112 58.032 9.8C57.85 10.333 57.798 10.502 57.59 11.035C57.811 11.061 58.058 11.074 58.617 11.074ZM62.023 6.55H60.06C60.307 7.031 60.645 7.46 61.139 7.889C61.581 7.447 61.789 7.135 62.023 6.55ZM65.949 10.853L65.806 9.553C65.988 9.579 66.118 9.592 66.404 9.592C66.469 9.592 66.56 9.592 66.859 9.592C67.028 9.371 67.132 9.228 67.444 8.773C66.911 8.019 66.352 7.382 65.754 6.849L66.404 5.783C66.651 6.03 66.716 6.095 66.885 6.277C67.327 5.536 67.743 4.626 67.847 4.184L69.108 4.678C68.991 4.873 68.991 4.873 68.64 5.549C68.367 6.095 68.042 6.654 67.704 7.161C67.886 7.382 67.886 7.382 68.159 7.72C68.991 6.368 69.121 6.147 69.342 5.562L70.447 6.212C70.317 6.394 70.317 6.394 69.693 7.369C69.316 7.967 68.588 8.994 68.159 9.54C68.848 9.501 69.043 9.488 69.511 9.436C69.407 9.137 69.329 8.942 69.108 8.435L69.94 8.019C70.46 9.15 70.668 9.683 70.954 10.632L70.005 11.1C69.927 10.801 69.901 10.671 69.849 10.489C69.407 10.554 69.277 10.567 69.017 10.593V14.532C69.017 15.143 69.03 15.468 69.082 15.845H67.717C67.769 15.455 67.795 15.143 67.795 14.532V10.697C67.392 10.723 67.054 10.749 66.742 10.775C66.17 10.801 66.144 10.814 65.949 10.853ZM74.334 11.269H75.465C75.985 11.269 76.349 11.243 76.674 11.204V12.517C76.323 12.478 75.92 12.465 75.465 12.465H74.334V14.194H75.868C76.544 14.194 76.882 14.181 77.22 14.129V15.481C76.817 15.429 76.427 15.403 75.842 15.403H71.747C71.201 15.403 70.798 15.429 70.382 15.481V14.142C70.72 14.181 71.019 14.194 71.565 14.194H73.034V12.465H72.189C71.721 12.465 71.331 12.478 70.954 12.517V11.204C71.279 11.256 71.604 11.269 72.202 11.269H73.034V11.022C73.034 10.398 73.008 10.073 72.956 9.826H74.386C74.347 10.138 74.334 10.463 74.334 11.022V11.269ZM76.037 4.743L76.817 5.484C76.375 6.173 75.946 6.797 75.829 6.953C75.517 7.369 75.14 7.785 74.75 8.162C75.582 8.604 76.31 8.864 77.415 9.085C77.116 9.566 77.012 9.813 76.83 10.437C75.504 10.034 74.581 9.618 73.697 9.02C72.943 9.553 72.384 9.852 71.383 10.268C71.149 9.813 70.954 9.54 70.577 9.098C71.409 8.838 72.007 8.578 72.657 8.188C71.981 7.525 71.526 6.875 71.097 6.017C70.772 6.03 70.642 6.043 70.434 6.069V4.73C70.733 4.769 71.149 4.795 71.799 4.795H75.049C75.543 4.795 75.79 4.782 76.037 4.743ZM74.932 6.017H72.449C72.787 6.615 73.099 6.979 73.671 7.447C74.269 6.914 74.542 6.615 74.932 6.017ZM66.3 11.282L67.379 11.49C67.314 13.245 67.236 13.895 66.95 15.247L65.806 14.792C66.131 13.726 66.248 12.894 66.3 11.282ZM69.368 11.464L70.304 11.204C70.486 11.88 70.551 12.348 70.681 13.856L69.628 14.155C69.615 13.102 69.563 12.491 69.368 11.464ZM85.761 14.22V12.92H84.37C83.668 12.92 83.395 12.933 83.07 12.972V11.698C83.382 11.737 83.629 11.75 84.357 11.75H85.761V10.749H84.578C83.759 10.749 83.408 10.762 83.07 10.788C83.109 10.489 83.122 10.008 83.122 9.241V6.42C83.122 5.549 83.109 5.172 83.057 4.743C83.525 4.795 83.954 4.808 84.747 4.808H88.179C89.102 4.808 89.479 4.795 89.791 4.743C89.765 5.107 89.739 5.705 89.739 6.446V9.111C89.739 9.969 89.752 10.424 89.791 10.788C89.336 10.749 89.193 10.749 88.439 10.749H87.009V11.75H88.595C89.284 11.75 89.557 11.737 89.921 11.685V12.985C89.557 12.933 89.232 12.92 88.608 12.92H87.009V14.22H89.011C89.661 14.22 89.999 14.207 90.324 14.155V15.494C89.895 15.442 89.596 15.429 88.92 15.429H83.681C82.992 15.429 82.719 15.442 82.251 15.494V14.155C82.589 14.207 82.875 14.22 83.525 14.22H85.761ZM85.761 6.017H84.37V7.265H85.761V6.017ZM87.009 6.017V7.265H88.439V6.017H87.009ZM85.761 8.305H84.37V9.579H85.761V8.305ZM87.009 8.305V9.579H88.439V8.305H87.009ZM80.197 6.134H79.716C79.313 6.134 79.092 6.147 78.78 6.186V4.86C79.079 4.899 79.417 4.925 79.924 4.925H81.692C82.173 4.925 82.472 4.912 82.784 4.86V6.186C82.472 6.147 82.225 6.134 81.874 6.134H81.497V8.578H81.783C82.108 8.578 82.303 8.565 82.576 8.526V9.787C82.316 9.761 82.082 9.748 81.783 9.748H81.497V12.205C82.082 11.958 82.199 11.893 82.719 11.646L82.745 12.959C81.692 13.479 81.146 13.726 79.248 14.493C79.183 14.519 79.118 14.545 79.001 14.597L78.663 13.18C79.118 13.089 79.378 13.011 80.197 12.712V9.748H79.794C79.43 9.748 79.209 9.761 78.936 9.8V8.526C79.235 8.565 79.417 8.578 79.82 8.578H80.197V6.134ZM99.658 5.406V6.485C99.398 6.472 99.398 6.472 99.268 6.472C99.164 7.005 99.073 7.434 98.956 7.811H99.944C99.931 6.758 99.918 5.913 99.918 5.276C99.918 4.782 99.905 4.665 99.866 4.379H101.179C101.127 4.795 101.114 5.029 101.114 5.913C101.114 6.42 101.114 6.94 101.14 7.811H101.868C102.609 7.811 102.869 7.798 103.259 7.746V9.046C102.778 8.994 102.622 8.981 101.868 8.981H101.179C101.244 10.021 101.309 10.606 101.413 11.269C101.751 10.606 102.037 9.878 102.115 9.488L103.129 10.138C103.051 10.294 102.96 10.502 102.856 10.736C102.596 11.373 102.141 12.231 101.79 12.79C102.011 13.466 102.31 14.077 102.401 14.077C102.492 14.077 102.57 13.492 102.609 12.517C102.934 12.79 103.298 13.037 103.61 13.18C103.506 14.155 103.402 14.636 103.233 15C103.064 15.364 102.791 15.572 102.466 15.572C101.933 15.572 101.361 14.974 100.906 13.96C100.295 14.675 99.762 15.169 98.904 15.806C98.579 15.299 98.462 15.169 98.111 14.844C98.553 14.558 98.709 14.454 98.969 14.246H97.045V15.065H95.914C95.953 14.701 95.966 14.402 95.966 13.973V10.593C95.966 10.034 95.966 9.852 95.927 9.475C96.148 9.514 96.278 9.514 96.72 9.514H98.709C99.073 9.514 99.216 9.501 99.528 9.475C99.489 9.748 99.489 9.956 99.489 10.593V13.271C99.489 13.687 99.489 13.687 99.489 13.791C99.84 13.466 100.061 13.232 100.49 12.712C100.217 11.698 100.1 10.866 99.983 8.981H95.355V14.506C95.355 15.169 95.368 15.468 95.42 15.832H94.159C94.211 15.481 94.224 15.078 94.224 14.493V13.57C93.587 13.778 93.08 13.921 92.651 14.038C92.04 14.207 92.04 14.207 91.806 14.298L91.52 12.959C91.65 12.959 91.806 12.933 92.209 12.855V5.9C91.962 5.913 91.832 5.926 91.65 5.952V4.626C91.923 4.665 92.222 4.691 92.703 4.691H94.679C95.186 4.691 95.472 4.678 95.745 4.626V5.393C96.018 5.432 96.187 5.445 96.525 5.445H97.11V5.367C97.11 4.86 97.097 4.639 97.045 4.353H98.397C98.345 4.639 98.332 4.886 98.332 5.367V5.445H98.774C99.229 5.445 99.398 5.432 99.658 5.406ZM98.228 6.459H97.201C97.292 6.823 97.344 7.2 97.422 7.811H97.942C98.072 7.408 98.163 6.94 98.228 6.459ZM95.355 7.811H96.421C96.369 7.46 96.252 6.888 96.135 6.459C95.966 6.472 95.927 6.472 95.719 6.498V5.926C95.576 5.913 95.537 5.913 95.355 5.9V7.811ZM93.353 5.9V7.369H94.224V5.9H93.353ZM93.353 8.474V9.813H94.224V8.474H93.353ZM93.353 10.918V12.595C93.834 12.478 93.912 12.452 94.224 12.361V10.918H93.353ZM97.032 10.554V11.36H98.449V10.554H97.032ZM97.032 12.335V13.219H98.449V12.335H97.032ZM101.348 5.354L102.258 4.873C102.7 5.523 102.921 5.952 103.246 6.758L102.271 7.33C101.985 6.433 101.803 6.043 101.348 5.354ZM108.68 7.525V8.799C108.446 8.76 108.212 8.747 107.874 8.747H107.692C108.134 9.657 108.381 10.021 108.875 10.515C108.589 10.905 108.42 11.243 108.277 11.698C107.991 11.256 107.822 10.944 107.562 10.32C107.588 10.645 107.601 10.723 107.601 11.061C107.601 11.191 107.614 11.321 107.614 11.464C107.614 11.685 107.627 11.841 107.627 11.932V14.389C107.627 15.078 107.64 15.39 107.692 15.845H106.314C106.366 15.364 106.392 14.987 106.392 14.389V12.413C106.405 11.802 106.405 11.802 106.418 11.49C106.418 11.165 106.431 11.035 106.457 10.684C106.171 11.685 105.768 12.517 105.157 13.414C104.975 12.881 104.793 12.517 104.52 12.114C105.066 11.412 105.365 10.892 105.755 10.06C105.976 9.579 106.171 9.085 106.262 8.747H105.742C105.404 8.747 105.131 8.76 104.845 8.812V7.499C105.157 7.538 105.404 7.551 105.768 7.551H106.392V6.147C106.054 6.225 105.82 6.264 105.196 6.381C105.04 5.9 104.949 5.653 104.715 5.224C105.781 5.133 106.886 4.86 107.77 4.496C108.004 4.405 108.095 4.353 108.238 4.262L108.927 5.354C108.771 5.419 108.459 5.536 108.251 5.614C108.134 5.653 107.991 5.705 107.627 5.822V7.551H107.887C108.186 7.551 108.329 7.551 108.563 7.525V6.394C108.862 6.433 109.252 6.446 109.746 6.446H111.592V5.926C110.942 5.965 110.5 5.965 109.369 5.978C109.239 5.536 109.109 5.263 108.901 4.925C109.382 4.938 109.759 4.938 109.915 4.938C111.943 4.938 114.205 4.678 115.063 4.353L115.882 5.419C115.804 5.445 115.804 5.445 115.518 5.497C114.894 5.627 113.867 5.757 112.801 5.848V6.446H114.92C115.427 6.446 115.83 6.42 116.168 6.368V7.538C115.83 7.512 115.505 7.499 115.024 7.499H112.801V8.006H114.4C114.998 8.006 115.271 7.993 115.609 7.967C115.57 8.253 115.57 8.461 115.57 9.02V11.009C115.57 11.62 115.57 11.88 115.609 12.179C115.245 12.153 115.05 12.14 114.53 12.14H112.801V12.712H114.504C115.154 12.712 115.414 12.699 115.739 12.66V13.83C115.362 13.791 114.946 13.778 114.504 13.778H112.801V14.402H114.881C115.44 14.402 115.882 14.376 116.22 14.337V15.546C115.869 15.494 115.427 15.468 114.816 15.468H109.694C109.057 15.468 108.654 15.494 108.303 15.533V14.35C108.602 14.389 109.057 14.402 109.681 14.402H111.592V13.778H109.993C109.395 13.778 109.161 13.791 108.758 13.817V12.66C109.096 12.699 109.356 12.712 109.993 12.712H111.592V12.14H110.045C109.512 12.14 109.278 12.153 108.979 12.179C109.005 11.88 109.018 11.555 109.018 10.983V9.046C109.018 8.5 109.005 8.227 108.979 7.967C109.317 7.993 109.564 8.006 110.149 8.006H111.592V7.499H109.759C109.356 7.499 108.914 7.512 108.68 7.525ZM111.592 9.007H110.188V9.605H111.592V9.007ZM111.592 10.502H110.188V11.126H111.592V10.502ZM112.801 11.126H114.374V10.502H112.801V11.126ZM112.801 9.605H114.374V9.007H112.801V9.605ZM124.436 7.07C124.072 9.813 123.643 11.308 122.85 12.673C122.226 13.752 121.368 14.35 120.484 14.35C119.132 14.35 118.17 13.024 118.17 11.178C118.17 9.124 119.21 7.356 120.991 6.42C121.862 5.952 122.798 5.744 124.033 5.744C126.75 5.744 128.765 7.668 128.765 10.242C128.765 12.517 127.647 14.155 125.489 15.078C125.06 15.26 124.722 15.364 124.553 15.364C124.397 15.364 124.332 15.312 124.163 15.065C123.942 14.727 123.695 14.48 123.344 14.246C126.022 13.557 127.231 12.296 127.231 10.19C127.231 9.111 126.776 8.201 125.97 7.629C125.515 7.317 125.151 7.187 124.436 7.07ZM122.954 7.135C122.031 7.33 121.576 7.551 120.978 8.071C120.107 8.838 119.613 9.93 119.613 11.152C119.613 12.153 119.938 12.738 120.484 12.738C121.134 12.738 121.797 11.841 122.291 10.294C122.603 9.319 122.759 8.578 122.954 7.135ZM135.681 6.147V5.38C135.681 4.977 135.655 4.652 135.603 4.353H137.202C137.15 4.6 137.124 4.938 137.124 5.38V6.147H140.569C141.271 6.147 141.726 6.121 142.142 6.056V7.577C141.765 7.525 141.349 7.499 140.608 7.499H136.045C136.032 7.603 136.032 7.603 136.032 7.746C136.006 8.201 135.98 8.448 135.941 8.838H139.399C140.062 8.838 140.387 8.825 140.699 8.786C140.686 8.838 140.686 8.877 140.686 8.903C140.66 9.098 140.66 9.189 140.634 9.774C140.569 11.737 140.426 13.232 140.205 14.155C139.919 15.338 139.503 15.65 138.255 15.65C137.813 15.65 137.527 15.637 136.565 15.572C136.513 14.987 136.409 14.571 136.214 14.116C136.916 14.233 137.527 14.285 138.086 14.285C138.632 14.285 138.749 14.142 138.918 13.284C139.074 12.53 139.139 11.789 139.191 10.151H135.746C135.213 12.673 134.108 14.246 131.729 15.806C131.417 15.26 131.196 14.987 130.728 14.61C131.833 13.934 132.353 13.505 132.964 12.777C134.043 11.477 134.459 10.047 134.524 7.499H132.483C131.859 7.499 131.339 7.525 130.91 7.577V6.056C131.365 6.121 131.82 6.147 132.47 6.147H135.681ZM147.069 10.554L147.407 8.448C146.484 8.266 145.782 7.993 145.301 7.655C145.067 7.499 145.015 7.434 145.015 7.317C145.015 7.174 145.119 6.914 145.483 6.186C146.12 6.589 146.835 6.875 147.654 7.044C147.836 6.134 147.914 5.38 147.927 4.535C148.59 4.652 149.175 4.847 149.5 5.029C149.643 5.107 149.695 5.185 149.682 5.289C149.682 5.341 149.656 5.393 149.591 5.523C149.396 5.926 149.383 5.965 149.11 7.239C149.24 7.252 149.409 7.252 149.513 7.252C149.526 7.252 149.565 7.252 149.604 7.252C149.916 7.239 150.15 7.239 150.267 7.239H150.306C150.423 7.239 150.462 7.291 150.462 7.46C150.462 8.032 150.423 8.5 150.371 8.591C150.332 8.656 150.163 8.682 149.617 8.682C149.37 8.682 149.175 8.669 148.811 8.656C148.538 9.995 148.538 9.995 148.421 10.697C148.863 10.736 148.954 10.736 149.175 10.736L149.903 10.723C150.033 10.723 150.098 10.749 150.137 10.814C150.189 10.892 150.228 11.308 150.228 11.776C150.228 12.01 150.215 12.075 150.137 12.114C150.072 12.14 149.786 12.153 149.292 12.153C149.058 12.153 148.707 12.14 148.252 12.114C148.239 12.348 148.239 12.504 148.239 12.608C148.239 13.804 148.798 14.35 150.02 14.35C151.385 14.35 152.204 13.687 152.204 12.569C152.204 12.166 152.113 11.802 151.905 11.399C151.645 10.905 151.398 10.619 150.774 10.125C150.826 10.125 150.865 10.125 150.891 10.125C151.099 10.125 151.541 10.06 151.931 9.982C152.139 9.943 152.217 9.93 152.282 9.93C152.477 9.93 152.607 10.021 152.867 10.346C153.465 11.074 153.764 11.841 153.764 12.647C153.764 14.48 152.282 15.689 150.033 15.689C147.927 15.689 146.874 14.636 146.874 12.504C146.874 12.322 146.874 12.179 146.9 11.958C145.613 11.685 144.911 11.048 144.911 10.125C144.911 9.644 145.054 9.293 145.418 8.929C145.457 8.877 145.509 8.864 145.561 8.864C145.639 8.864 145.73 8.929 146.029 9.176C146.263 9.371 146.302 9.41 146.302 9.475C146.302 9.527 146.302 9.527 146.224 9.644C146.172 9.735 146.12 9.878 146.12 9.956C146.12 10.125 146.224 10.268 146.419 10.359C146.601 10.45 146.653 10.463 147.069 10.554ZM159.172 13.453V12.959C158.587 13.297 158.223 13.466 157.43 13.765C157.196 13.297 157.027 13.037 156.702 12.686C157.742 12.426 158.769 11.971 159.497 11.451H158.184C157.599 11.451 157.209 11.477 156.819 11.516V10.333C157.222 10.385 157.612 10.398 158.223 10.398H160.693C160.823 10.255 160.927 10.112 161.005 9.995H159.315C158.912 9.995 158.587 10.008 158.314 10.021C158.353 9.735 158.366 9.475 158.366 9.163V7.369C158.366 7.07 158.353 6.784 158.314 6.511C158.548 6.524 158.808 6.537 159.315 6.537H159.861V6.069H158.236C157.651 6.069 157.326 6.082 156.858 6.147V4.938C157.274 4.99 157.703 5.016 158.262 5.016H159.861V4.951C159.861 4.652 159.848 4.496 159.809 4.275H161.2C161.161 4.509 161.161 4.639 161.161 4.951V5.016H163.735V4.951C163.735 4.639 163.722 4.483 163.683 4.275H165.074C165.048 4.496 165.035 4.652 165.035 4.951V5.016H166.712C167.258 5.016 167.687 4.99 168.116 4.938V6.147C167.648 6.082 167.336 6.069 166.751 6.069H165.035V6.537H165.698C166.218 6.537 166.478 6.524 166.699 6.511C166.673 6.771 166.66 7.018 166.66 7.369V9.163C166.66 9.514 166.673 9.748 166.699 10.021C166.439 10.008 166.101 9.995 165.698 9.995H162.383C162.266 10.203 162.201 10.294 162.123 10.398H166.777C167.388 10.398 167.791 10.385 168.194 10.333V11.516C167.791 11.464 167.414 11.451 166.816 11.451H165.477C165.802 11.698 166.257 11.945 166.803 12.166C167.284 12.361 167.674 12.465 168.441 12.608C168.168 12.998 167.973 13.349 167.804 13.804C167.076 13.544 166.543 13.323 166.088 13.076C165.971 14.246 165.88 14.662 165.711 15.052C165.49 15.559 165.009 15.741 163.891 15.741C163.657 15.741 163.423 15.728 162.916 15.702C162.864 15.247 162.747 14.896 162.513 14.493C163.059 14.584 163.41 14.623 163.774 14.623C164.281 14.623 164.502 14.558 164.593 14.363C164.671 14.207 164.723 13.908 164.775 13.401H162.552C161.798 14.779 160.472 15.546 158.275 15.884C158.093 15.455 157.924 15.182 157.599 14.779C159.289 14.623 160.394 14.181 161.083 13.401H160.264C159.77 13.401 159.458 13.414 159.172 13.453ZM163.852 11.451H161.213C160.901 11.763 160.342 12.231 160.056 12.413C160.095 12.413 160.095 12.413 160.186 12.413H161.629C161.72 12.153 161.746 12.01 161.746 11.698L163.15 11.75C163.124 11.802 163.059 12.023 162.955 12.413H165.022C164.58 12.127 164.281 11.867 163.852 11.451ZM163.735 6.537V6.069H161.161V6.537H163.735ZM159.614 7.395V7.798H165.399V7.395H159.614ZM159.614 8.643V9.072H165.399V8.643H159.614ZM176.488 9.449V10.086H179.426C179.998 10.086 180.31 10.073 180.635 10.034V11.113C180.297 11.074 180.024 11.061 179.439 11.061H176.137V11.711H179.686C180.427 11.711 180.778 11.698 181.103 11.646V12.907C180.7 12.855 180.31 12.842 179.686 12.842H177.203C178.152 13.531 179.751 14.142 181.324 14.415C181.077 14.753 180.986 14.909 180.869 15.143C180.856 15.169 180.804 15.286 180.739 15.455C180.713 15.507 180.674 15.598 180.622 15.702C179.647 15.442 178.906 15.169 178.126 14.779C177.255 14.35 176.722 13.986 176.098 13.388C176.124 13.817 176.137 14.077 176.137 14.22V14.935C176.137 15.39 176.15 15.572 176.215 15.832H174.72C174.785 15.572 174.798 15.364 174.798 14.948V14.22C174.798 13.921 174.811 13.661 174.837 13.401C174.2 14.025 173.589 14.454 172.588 14.922C171.899 15.234 171.249 15.455 170.365 15.689C170.17 15.208 169.949 14.818 169.663 14.428C171.327 14.168 172.796 13.583 173.706 12.842H171.301C170.677 12.842 170.3 12.855 169.884 12.907V11.646C170.222 11.698 170.547 11.711 171.301 11.711H174.798V11.061H172.341C171.847 11.061 171.6 11.074 171.288 11.087C171.314 10.814 171.327 10.502 171.327 10.099V8.539C171.327 8.123 171.34 7.811 171.366 7.473C171.002 7.889 170.729 8.136 170.209 8.539C170.001 8.006 169.845 7.733 169.559 7.33C170.547 6.641 171.21 5.939 171.86 4.925C172.029 4.639 172.172 4.353 172.25 4.106L173.693 4.34C173.251 5.068 173.212 5.12 173.017 5.393H175.24C175.539 4.951 175.734 4.587 175.89 4.132L177.307 4.314C176.995 4.847 176.865 5.081 176.644 5.393H179.348C179.907 5.393 180.219 5.38 180.557 5.328V6.498C180.245 6.459 179.998 6.446 179.53 6.446H176.488V7.044H178.893C179.504 7.044 179.712 7.031 180.076 6.992V8.006C179.686 7.954 179.569 7.954 178.893 7.954H176.488V8.539H178.893C179.517 8.539 179.699 8.526 180.076 8.487V9.501C179.725 9.462 179.556 9.449 178.893 9.449H176.488ZM175.188 9.449H172.627V10.086H175.188V9.449ZM175.188 8.539V7.954H172.627V8.539H175.188ZM175.188 7.044V6.446H172.627V7.044H175.188ZM187.72 6.42V5.653C187.72 5.016 187.707 4.704 187.642 4.288H189.228C189.176 4.691 189.15 5.016 189.15 5.601V6.42H192.556C193.102 6.42 193.375 6.407 193.7 6.368C193.661 6.719 193.648 6.979 193.648 7.473V11.269C193.648 11.828 193.661 12.153 193.713 12.517H192.231V11.776H189.15V14.298C189.15 15.052 189.176 15.429 189.241 15.858H187.629C187.694 15.416 187.72 15.013 187.72 14.298V11.776H184.782V12.517H183.3C183.352 12.114 183.365 11.802 183.365 11.269V7.46C183.365 6.992 183.352 6.771 183.313 6.368C183.664 6.407 183.937 6.42 184.444 6.42H187.72ZM187.72 7.746H184.782V10.45H187.72V7.746ZM189.15 10.45H192.231V7.746H189.15V10.45ZM202.436 4.795L202.072 12.582H200.915L200.564 4.795H202.436ZM201.5 13.479C202.072 13.479 202.527 13.934 202.527 14.506C202.527 15.078 202.072 15.533 201.5 15.533C200.928 15.533 200.473 15.078 200.473 14.506C200.473 13.934 200.928 13.479 201.5 13.479Z" fill="white"/>
<path d="M229.011 5.54545V13.1349L231.928 10.2081L232.648 10.919L228.503 15.0554L224.367 10.919L225.068 10.2081L227.995 13.1349V5.54545H229.011Z" fill="white"/>
<rect x="2" y="25" width="244" height="58" rx="29" fill="#74FAC8"/>
<rect x="2" y="25" width="244" height="58" rx="29" stroke="url(#paint0_linear_247_65)" stroke-width="3"/>
<path d="M35 60C35.0933 60 35.1867 59.9067 35.28 59.72C35.3733 59.5333 35.42 59.2267 35.42 58.8V49.2C35.42 48.7733 35.3733 48.4733 35.28 48.3C35.1867 48.1133 35.0933 48.0133 35 48H38.92C38.8267 48 38.7333 48.0933 38.64 48.28C38.5467 48.4667 38.5 48.78 38.5 49.22V57.16C38.5 57.4533 38.5333 57.6333 38.6 57.7C38.68 57.7533 38.92 57.78 39.32 57.78H44.14C44.9133 57.78 45.5333 57.6933 46 57.52C46.48 57.3333 46.7933 57.1533 46.94 56.98L46.34 59.38V60H35ZM48.1445 60C48.2379 60 48.3245 59.9133 48.4045 59.74C48.4979 59.5533 48.5445 59.24 48.5445 58.8V49.2C48.5445 48.7733 48.4979 48.4667 48.4045 48.28C48.3245 48.0933 48.2379 48 48.1445 48H52.0045C51.9112 48 51.8179 48.0933 51.7245 48.28C51.6312 48.4533 51.5845 48.7667 51.5845 49.22V58.8C51.5845 59.2267 51.6312 59.5333 51.7245 59.72C51.8179 59.9067 51.9112 60 52.0045 60H48.1445ZM54.0039 60C54.0972 60 54.1906 59.9067 54.2839 59.72C54.3772 59.5333 54.4239 59.2267 54.4239 58.8V49.2C54.4239 48.7733 54.3772 48.4733 54.2839 48.3C54.1906 48.1133 54.0972 48.0133 54.0039 48H57.9239C57.8306 48 57.8039 48.0933 57.8439 48.28C57.8972 48.4667 58.1172 48.7867 58.5039 49.24C58.6106 49.3467 58.7839 49.5467 59.0239 49.84C59.2772 50.12 59.5772 50.46 59.9239 50.86C60.2706 51.26 60.6372 51.6933 61.0239 52.16C61.4239 52.6267 61.8239 53.0933 62.2239 53.56C62.6372 54.0267 63.0306 54.4733 63.4039 54.9H63.4239V49.2C63.4239 48.7733 63.3772 48.4733 63.2839 48.3C63.1906 48.1133 63.0972 48.0133 63.0039 48H66.9239C66.8306 48 66.7372 48.0933 66.6439 48.28C66.5506 48.4667 66.5039 48.78 66.5039 49.22V58.8C66.5039 59.2267 66.5506 59.5333 66.6439 59.72C66.7372 59.9067 66.8306 60 66.9239 60H63.4839C63.5639 60 63.5706 59.9067 63.5039 59.72C63.4506 59.5333 63.2439 59.2133 62.8839 58.76C62.6972 58.52 62.4506 58.2133 62.1439 57.84C61.8372 57.4533 61.4906 57.0267 61.1039 56.56C60.7306 56.0933 60.3372 55.6067 59.9239 55.1C59.5106 54.5933 59.0972 54.1 58.6839 53.62C58.2839 53.1267 57.9106 52.6733 57.5639 52.26H57.5039V58.8C57.5039 59.2267 57.5506 59.5333 57.6439 59.72C57.7372 59.9067 57.8306 60 57.9239 60H54.0039ZM68.9258 60C69.0191 60 69.1124 59.9067 69.2058 59.72C69.2991 59.5333 69.3458 59.2267 69.3458 58.8V49.2C69.3458 48.7733 69.2991 48.4733 69.2058 48.3C69.1124 48.1133 69.0191 48.0133 68.9258 48H80.6058V48.6L81.0058 50.92C80.6724 50.7733 80.0858 50.62 79.2458 50.46C78.4058 50.2867 77.3924 50.2 76.2058 50.2H73.2458C72.8458 50.2 72.6058 50.2333 72.5258 50.3C72.4591 50.3533 72.4258 50.52 72.4258 50.8V52.28C72.4258 52.5733 72.4591 52.7467 72.5258 52.8C72.6058 52.8533 72.8391 52.88 73.2258 52.88H76.1058C76.8791 52.88 77.4991 52.84 77.9658 52.76C78.4458 52.6667 78.7591 52.5733 78.9058 52.48C78.8524 52.7333 78.7924 53.0267 78.7258 53.36C78.6591 53.6933 78.6058 54.0133 78.5658 54.32C78.5258 54.6267 78.5058 54.88 78.5058 55.08H73.2258C72.8391 55.08 72.6058 55.1067 72.5258 55.16C72.4591 55.2 72.4258 55.3733 72.4258 55.68V57.16C72.4258 57.4667 72.4591 57.6467 72.5258 57.7C72.5924 57.7533 72.8258 57.78 73.2258 57.78H78.6258C79.3991 57.78 80.0191 57.6933 80.4858 57.52C80.9658 57.3333 81.2791 57.1533 81.4258 56.98L81.0258 59.38V60H68.9258Z" fill="#005794"/>
<path d="M91.704 52.352C90.52 52.608 89.864 52.768 89.72 52.816C89.592 52.848 89.528 52.88 89.432 52.928C89.352 52.976 89.304 52.992 89.224 52.992C88.888 52.992 88.632 52.368 88.44 51.184C88.568 51.2 88.68 51.2 88.744 51.2C89.416 51.2 91.128 50.992 92.152 50.784C92.488 49.376 92.664 48.32 92.664 47.552C92.664 47.488 92.664 47.408 92.648 47.28C93.336 47.36 93.992 47.504 94.44 47.68C94.696 47.776 94.824 47.92 94.824 48.08C94.824 48.16 94.808 48.208 94.728 48.336C94.488 48.768 94.488 48.768 93.992 50.528C94.376 50.48 94.808 50.448 95.08 50.448C95.736 50.448 96.248 50.576 96.616 50.832C97.256 51.296 97.576 52.24 97.576 53.696C97.576 56.08 97.144 58.112 96.408 59.12C95.896 59.824 95.224 60.16 94.28 60.16C93.704 60.16 93.16 60.08 93 59.984C92.872 59.904 92.872 59.904 92.824 59.312C92.776 58.88 92.68 58.512 92.488 58.064C93.32 58.336 93.528 58.384 94.04 58.384C94.808 58.384 95.128 58.016 95.48 56.736C95.72 55.888 95.848 54.784 95.848 53.616C95.848 52.368 95.544 51.92 94.696 51.92C94.408 51.92 93.944 51.952 93.576 52.016C93.528 52.192 93.512 52.208 93.448 52.432C93 54.064 92.184 56.224 91.368 57.952C90.52 59.696 90.312 60.048 90.104 60.048C89.976 60.048 89.544 59.824 89.08 59.52C88.712 59.296 88.616 59.2 88.616 59.072C88.616 58.992 88.616 58.992 89.272 57.952C90.152 56.592 91.304 53.92 91.704 52.352ZM97.96 51.216C97.896 51.12 97.88 51.072 97.88 51.024C97.88 50.912 98.024 50.768 98.488 50.4C98.808 50.16 98.968 50.064 99.08 50.064C99.176 50.064 99.256 50.112 99.464 50.32C100.408 51.232 101.288 52.448 101.8 53.504C101.96 53.856 102.056 54.08 102.056 54.176C102.056 54.336 102.008 54.384 101.496 54.8C101.176 55.056 100.808 55.264 100.68 55.264C100.568 55.264 100.52 55.216 100.408 54.944C100.088 54.16 99.784 53.552 99.4 52.96C98.984 52.32 98.904 52.224 97.96 51.216ZM109.252 47.024C109.636 47.024 111.204 47.696 112.212 48.288C112.836 48.656 113.028 48.832 113.028 49.008C113.028 49.152 112.772 49.632 112.5 50.032C112.244 50.4 112.148 50.48 112.02 50.48C111.94 50.48 111.892 50.448 111.7 50.304C110.628 49.488 109.78 49.024 108.58 48.608C108.34 48.512 108.292 48.48 108.292 48.352C108.292 48.192 108.42 47.92 108.708 47.504C108.964 47.12 109.076 47.024 109.252 47.024ZM107.476 54.944C109.108 53.44 110.532 52.848 112.5 52.848C114.692 52.848 116.116 54.144 116.116 56.112C116.116 58 114.916 59.328 112.516 60.096C111.652 60.368 110.228 60.624 109.588 60.624C109.252 60.624 109.172 60.544 108.948 60.08C108.772 59.712 108.58 59.488 108.1 59.152C112.116 58.832 114.1 57.808 114.1 56.064C114.1 55.088 113.412 54.512 112.26 54.512C110.804 54.512 109.3 55.264 108.068 56.592C107.844 56.816 107.636 57.088 107.492 57.328C107.348 57.568 107.252 57.648 107.108 57.648C106.868 57.648 106.308 57.408 105.924 57.12C105.732 56.976 105.668 56.864 105.668 56.608C105.668 56.48 105.668 56.48 105.716 56.096C105.716 56.048 105.716 55.936 105.732 55.76C105.812 54.736 105.86 54.304 106.052 52.864C106.084 52.688 106.084 52.688 106.196 51.936C106.212 51.888 106.244 51.584 106.324 50.992C106.34 50.848 106.356 50.72 106.356 50.464C107.124 50.576 107.844 50.752 108.148 50.928C108.276 50.992 108.34 51.072 108.324 51.168C108.324 51.232 108.292 51.28 108.244 51.376C108.068 51.648 108.02 51.792 107.876 52.4C107.732 53.008 107.508 54.416 107.476 54.944ZM122.531 54.8V52.272C121.267 52.4 120.947 52.416 120.227 52.416C119.731 52.416 119.651 52.208 119.539 50.784C119.843 50.784 120.019 50.784 120.163 50.784C120.947 50.784 121.651 50.736 122.531 50.64V50.304C122.531 49.264 122.467 48.448 122.307 47.584C123.523 47.648 124.003 47.712 124.339 47.808C124.499 47.856 124.563 47.936 124.563 48.096C124.563 48.192 124.547 48.256 124.467 48.416C124.323 48.72 124.243 49.296 124.227 50.384C124.755 50.288 125.603 50.08 126.243 49.888C126.291 49.872 126.323 49.872 126.355 49.872C126.483 49.872 126.563 49.936 126.595 50.048C126.675 50.368 126.771 51.008 126.771 51.248C126.771 51.376 126.691 51.488 126.563 51.536C126.371 51.616 125.203 51.856 124.179 52.032V54.096C125.763 53.568 126.995 53.312 128.051 53.312C130.099 53.312 131.427 54.624 131.427 56.656C131.427 57.968 130.899 59.024 129.955 59.584C129.459 59.872 128.755 60.048 127.987 60.048C127.187 60.048 126.531 59.984 126.355 59.872C126.179 59.776 126.163 59.728 126.131 59.344C126.099 58.896 126.003 58.512 125.811 58.048C126.467 58.288 127.011 58.384 127.635 58.384C128.883 58.384 129.587 57.744 129.587 56.608C129.587 55.52 128.915 54.832 127.843 54.832C126.835 54.832 125.555 55.152 124.179 55.744C124.179 55.808 124.179 55.808 124.195 56.432C124.211 57.488 124.211 57.488 124.211 57.712C124.227 58 124.227 58.288 124.227 58.432C124.227 59.728 123.731 60.352 122.675 60.352C121.667 60.352 120.611 59.808 119.971 58.976C119.715 58.624 119.587 58.256 119.587 57.824C119.587 56.784 120.515 55.84 122.531 54.8ZM122.531 58.08V56.56C121.603 57.12 121.219 57.488 121.219 57.824C121.219 58.192 121.747 58.592 122.227 58.592C122.451 58.592 122.531 58.448 122.531 58.08ZM131.699 53.072C131.619 53.072 131.555 53.04 131.459 52.928C130.643 52.064 129.523 51.344 128.467 51.008C128.339 50.96 128.275 50.896 128.275 50.816C128.275 50.72 128.435 50.464 128.883 49.856C129.059 49.616 129.075 49.6 129.235 49.6C129.395 49.616 130.003 49.824 130.419 50.016C131.427 50.48 132.739 51.472 132.739 51.776C132.739 52.064 131.939 53.072 131.699 53.072ZM137.091 52.576V59.072C137.091 60 137.123 60.56 137.187 60.96H135.379C135.443 60.48 135.475 60.032 135.475 59.056V48.992C135.475 48.176 135.459 47.776 135.411 47.264C135.907 47.312 136.243 47.328 136.979 47.328H139.683C140.483 47.328 140.819 47.312 141.267 47.264C141.219 47.728 141.219 48.064 141.219 48.688V51.232C141.219 51.952 141.219 52.256 141.251 52.608C140.819 52.592 140.371 52.576 139.843 52.576H137.091ZM137.091 48.576V49.376H139.715V48.576H137.091ZM137.091 50.56V51.376H139.715V50.56H137.091ZM148.307 48.976V59.088C148.307 60.496 147.923 60.8 146.163 60.8C145.923 60.8 145.747 60.8 144.707 60.752C144.611 60 144.531 59.68 144.291 59.12C144.915 59.2 145.683 59.248 146.163 59.248C146.611 59.248 146.691 59.184 146.691 58.864V52.576H143.715C143.235 52.576 142.627 52.592 142.307 52.608C142.339 52.24 142.355 51.872 142.355 51.232V48.688C142.355 48.144 142.339 47.712 142.307 47.264C142.787 47.312 143.107 47.328 143.875 47.328H146.787C147.539 47.328 147.875 47.312 148.371 47.264C148.323 47.76 148.307 48.256 148.307 48.976ZM143.875 48.576V49.376H146.691V48.576H143.875ZM143.875 50.56V51.376H146.691V50.56H143.875ZM144.851 54.672V57.456C144.851 57.92 144.867 58.224 144.899 58.512C144.547 58.48 144.243 58.464 143.811 58.464H140.387V59.488H138.755C138.803 59.072 138.835 58.576 138.835 58V54.704C138.835 54.288 138.819 53.92 138.787 53.616C139.139 53.648 139.475 53.664 139.923 53.664H143.715C144.195 53.664 144.547 53.648 144.899 53.616C144.867 53.904 144.851 54.224 144.851 54.672ZM140.387 55.04V57.056H143.299V55.04H140.387ZM151.907 51.936V50.256C151.907 49.792 151.891 49.168 151.859 48.816C152.595 48.896 153.139 49.008 153.571 49.168C153.955 49.312 154.083 49.408 154.083 49.584C154.083 49.68 154.083 49.68 154.019 49.84C153.811 50.384 153.747 50.992 153.747 52.448C153.747 54.496 153.875 55.776 154.195 56.752C154.435 57.504 154.803 57.936 155.235 57.936C155.891 57.936 156.435 57.168 157.027 55.392C157.331 56.208 157.443 56.448 157.891 57.024C157.971 57.136 158.019 57.248 158.019 57.36C158.019 57.616 157.779 58.16 157.459 58.624C156.835 59.536 156.035 60.032 155.187 60.032C153.955 60.032 153.027 59.04 152.451 57.072C152.083 55.792 151.907 54.176 151.907 51.936ZM160.035 51.296C160.707 50.8 161.235 50.512 161.427 50.512C161.523 50.512 161.603 50.56 161.731 50.672C162.531 51.44 163.363 52.72 163.891 53.968C164.243 54.816 164.579 55.952 164.579 56.288C164.579 56.448 164.499 56.528 164.163 56.704C163.795 56.896 163.043 57.152 162.851 57.152C162.707 57.152 162.643 57.072 162.595 56.784C162.387 55.552 162.099 54.656 161.603 53.616C161.155 52.688 161.123 52.64 160.035 51.296ZM169.923 53.008V51.936C168.947 52.544 168.531 52.768 167.475 53.248C167.203 52.592 167.027 52.272 166.579 51.68C168.019 51.12 169.315 50.368 170.483 49.456C171.555 48.608 172.275 47.84 172.899 46.88H174.739C175.395 47.856 176.083 48.56 177.315 49.488C178.515 50.4 179.667 51.008 181.219 51.584C180.819 52.24 180.675 52.528 180.387 53.28C179.299 52.8 178.803 52.528 177.875 51.936V53.008C177.475 52.96 177.107 52.944 176.499 52.944H171.235C170.755 52.944 170.339 52.96 169.923 53.008ZM171.267 51.344H176.483C176.675 51.344 176.739 51.344 177.011 51.344C175.619 50.352 174.803 49.584 173.843 48.336C172.915 49.664 172.259 50.32 170.835 51.344C171.027 51.344 171.091 51.344 171.267 51.344ZM170.515 60.912H168.675C168.739 60.432 168.771 59.968 168.771 59.296V55.712C168.771 55.056 168.755 54.672 168.691 54.208C169.059 54.24 169.411 54.256 170.035 54.256H177.683C178.307 54.256 178.643 54.24 179.027 54.208C178.963 54.624 178.947 55.04 178.947 55.712V59.312C178.947 60.032 178.963 60.432 179.043 60.912H177.203V60.144H170.515V60.912ZM170.515 55.744V58.64H177.203V55.744H170.515ZM186.115 60.144L186.131 58.288C186.131 56.544 186.131 56.544 186.147 55.792C185.347 56.672 184.803 57.376 184.531 57.872C184.451 58.032 184.339 58.128 184.243 58.128C184.083 58.128 183.699 57.792 183.187 57.216C182.979 56.96 182.883 56.816 182.883 56.752C182.883 56.64 182.883 56.64 183.699 55.84C184.387 55.152 185.315 54.064 186.179 52.912C186.179 52.816 186.179 52.448 186.195 51.808C185.411 51.952 184.403 52.224 184.131 52.368C183.971 52.448 183.939 52.464 183.859 52.464C183.587 52.464 183.363 51.84 183.155 50.592C184.003 50.576 185.059 50.464 186.227 50.272C186.227 49.696 186.243 48.88 186.243 48.432C186.243 47.952 186.211 47.568 186.147 47.248C187.155 47.312 187.651 47.376 188.099 47.488C188.339 47.552 188.435 47.648 188.435 47.824C188.435 47.904 188.403 47.984 188.339 48.144C188.179 48.464 188.163 48.576 188.035 49.84C188.419 50.08 188.787 50.48 188.787 50.688C188.787 50.832 188.787 50.832 188.291 51.44C188.243 51.504 188.099 51.712 187.859 52.016C187.843 52.528 187.843 52.528 187.843 52.64C189.411 51.312 190.739 50.752 192.307 50.752C194.803 50.752 196.371 52.336 196.371 54.88C196.371 56.832 195.475 58.288 193.635 59.28C192.931 59.68 191.731 60.112 191.379 60.112C191.283 60.112 191.171 60.08 191.123 60.016C191.091 60 191.091 60 190.883 59.696C190.611 59.312 190.307 59.008 189.987 58.784C193.171 57.92 194.435 56.8 194.435 54.832C194.435 53.296 193.523 52.304 192.083 52.304C191.139 52.304 190.275 52.608 189.251 53.28C188.739 53.616 188.739 53.616 187.827 54.384C187.843 54.512 187.843 54.512 187.843 54.72C187.843 56.432 187.843 56.576 187.939 59.936C187.955 60.112 187.955 60.24 187.955 60.272C187.955 60.576 187.731 60.64 186.563 60.64C186.147 60.64 186.115 60.592 186.115 60.144ZM207.167 52.88C205.647 52.992 204.479 53.136 203.359 53.312C203.359 53.504 203.359 53.52 203.359 53.712C203.359 53.808 203.359 54.144 203.359 54.288C203.359 56.64 203.375 57.12 203.503 57.456C203.711 58.032 204.255 58.24 205.551 58.24C206.943 58.24 208.639 58.08 209.375 57.888C209.535 57.84 209.551 57.84 209.599 57.84C209.695 57.84 209.775 57.888 209.807 58C209.903 58.224 209.983 58.848 209.983 59.296C209.983 59.648 209.935 59.744 209.711 59.808C209.391 59.888 207.263 60 206.095 60C203.247 60 202.063 59.296 201.775 57.456C201.695 56.96 201.679 56.576 201.679 53.584C201.583 53.6 201.567 53.616 201.455 53.632C200.303 53.824 199.807 53.952 199.343 54.16C199.215 54.224 199.119 54.256 199.055 54.256C198.815 54.256 198.543 53.52 198.351 52.32C198.415 52.32 198.463 52.32 198.495 52.32C198.847 52.32 199.087 52.288 201.663 51.968C201.615 49.456 201.599 49.312 201.439 48.544C202.239 48.576 202.927 48.656 203.311 48.768C203.583 48.864 203.679 48.944 203.679 49.136C203.679 49.232 203.663 49.296 203.583 49.472C203.455 49.776 203.391 50.448 203.375 51.744C205.455 51.488 205.551 51.472 207.231 51.328C207.231 50.992 207.231 50.672 207.231 50.384C207.231 48.944 207.183 48.256 207.055 47.776C207.823 47.808 208.511 47.904 208.927 48.032C209.119 48.096 209.183 48.176 209.183 48.336C209.183 48.448 209.167 48.496 209.103 48.688C208.975 49.024 208.975 49.104 208.943 50.992C208.943 51.104 208.943 51.12 208.943 51.184C211.279 51.008 211.679 50.976 211.951 50.976C212.047 50.976 212.111 51.008 212.143 51.056C212.175 51.136 212.223 51.824 212.223 52.368C212.223 52.592 212.207 52.64 212.127 52.688C212.079 52.72 212.079 52.72 210.703 52.72C210.079 52.72 209.599 52.736 208.879 52.784C208.815 54.144 208.719 55.008 208.543 55.52C208.255 56.384 207.695 56.704 206.463 56.704C206.031 56.704 205.551 56.624 205.391 56.528C205.247 56.432 205.231 56.368 205.135 55.84C205.039 55.312 204.991 55.152 204.799 54.752C205.407 54.96 205.791 55.024 206.223 55.024C206.607 55.024 206.767 54.96 206.895 54.768C207.055 54.544 207.087 54.288 207.167 52.88Z" fill="#005794"/>
<defs>
<linearGradient id="paint0_linear_247_65" x1="124" y1="36.5" x2="124" y2="121" gradientUnits="userSpaceOnUse">
<stop stop-color="#74FAC8"/>
<stop offset="1" stop-color="#3F9273"/>
</linearGradient>
</defs>
</svg>
