<svg width="51" height="25" viewBox="0 0 51 25" fill="none" xmlns="http://www.w3.org/2000/svg">
<g clip-path="url(#clip0_186_4)">
<path d="M0.500002 0L1.59407 5.05057L1.66516 5.19366L4.38611 6.09152C11.2027 12.0451 17.8112 18.2471 24.6016 24.2341C24.8329 24.438 25.1053 24.7094 25.3395 24.8903C25.3956 24.9333 25.4787 25.0067 25.552 25L25.7877 24.8384L46.5675 6.33026C47.3054 5.94324 48.1525 5.76381 48.9382 5.47688C49.0527 5.43462 49.4725 5.30265 49.5294 5.24408C49.608 5.16326 49.8011 4.02444 49.8422 3.81165C50.0854 2.57051 50.3099 1.31899 50.5 0.0711765L50.3548 0.0874878L25.7705 8.3232L0.500002 0ZM11.2124 8.3625L22.9164 12.3187L22.9777 12.4003L22.9867 18.8306C22.9882 18.9708 22.9283 19.1153 22.7697 19.0419L11.1466 8.60791C11.0657 8.52783 11.0553 8.34396 11.2124 8.36175V8.3625ZM39.8968 8.74136C39.8632 8.7599 39.8243 8.77176 39.7958 8.79919C38.3059 10.2324 36.6768 11.6196 35.127 12.9979C33.2673 14.6512 31.41 16.3187 29.5234 17.9409C29.3468 18.0929 28.5124 18.8432 28.3747 18.8692C28.3336 18.8766 28.3134 18.8937 28.2819 18.8484C28.2423 17.9773 28.2767 17.1039 28.267 16.2319C28.2542 15.1146 28.124 13.7378 28.2281 12.6405C28.2438 12.4752 28.2864 12.3669 28.4271 12.2683C28.6598 12.1045 29.7217 11.8086 30.0697 11.69C33.2052 10.6201 36.3692 9.63107 39.5167 8.59678L39.8055 8.54044C39.8796 8.55971 39.935 8.67686 39.8961 8.7421L39.8968 8.74136Z" fill="black"/>
</g>
<defs>
<clipPath id="clip0_186_4">
<rect width="50" height="25" fill="white" transform="matrix(-1 0 0 1 50.5 0)"/>
</clipPath>
</defs>
</svg>
