<svg width="336" height="71" viewBox="0 0 336 71" fill="none" xmlns="http://www.w3.org/2000/svg">
<path d="M2 33C2.18667 33 2.36 32.8267 2.52 32.48C2.70667 32.1067 2.8 31.48 2.8 30.6V11.4C2.8 10.5467 2.70667 9.93333 2.52 9.56C2.36 9.18667 2.18667 9 2 9H9.72C9.53333 9 9.34667 9.18667 9.16 9.56C8.97333 9.90667 8.88 10.5333 8.88 11.44V30.6C8.88 31.4533 8.97333 32.0667 9.16 32.44C9.34667 32.8133 9.53333 33 9.72 33H2ZM13.7188 33C13.9054 33 14.0921 32.8133 14.2788 32.44C14.4654 32.0667 14.5588 31.4533 14.5588 30.6V11.4C14.5588 10.5467 14.4654 9.94667 14.2788 9.6C14.0921 9.22667 13.9054 9.02667 13.7188 9H21.5588C21.3721 9 21.3188 9.18667 21.3988 9.56C21.5054 9.93333 21.9454 10.5733 22.7188 11.48C22.9321 11.6933 23.2788 12.0933 23.7588 12.68C24.2654 13.24 24.8654 13.92 25.5588 14.72C26.2521 15.52 26.9854 16.3867 27.7588 17.32C28.5588 18.2533 29.3588 19.1867 30.1588 20.12C30.9854 21.0533 31.7721 21.9467 32.5188 22.8H32.5588V11.4C32.5588 10.5467 32.4654 9.94667 32.2787 9.6C32.0921 9.22667 31.9054 9.02667 31.7188 9H39.5588C39.3721 9 39.1854 9.18667 38.9988 9.56C38.8121 9.93333 38.7188 10.56 38.7188 11.44V30.6C38.7188 31.4533 38.8121 32.0667 38.9988 32.44C39.1854 32.8133 39.3721 33 39.5588 33H32.6788C32.8388 33 32.8521 32.8133 32.7188 32.44C32.6121 32.0667 32.1988 31.4267 31.4788 30.52C31.1054 30.04 30.6121 29.4267 29.9988 28.68C29.3854 27.9067 28.6921 27.0533 27.9188 26.12C27.1721 25.1867 26.3854 24.2133 25.5588 23.2C24.7321 22.1867 23.9054 21.2 23.0788 20.24C22.2788 19.2533 21.5321 18.3467 20.8388 17.52H20.7188V30.6C20.7188 31.4533 20.8121 32.0667 20.9988 32.44C21.1854 32.8133 21.3721 33 21.5588 33H13.7188ZM52.7225 33C52.9358 32.9733 53.0825 32.7733 53.1625 32.4C53.2425 32.0267 53.0958 31.4133 52.7225 30.56C52.5892 30.2133 52.3092 29.5733 51.8825 28.64C51.4558 27.7067 50.9492 26.5867 50.3625 25.28C49.8025 23.9733 49.1892 22.6133 48.5225 21.2C47.8825 19.76 47.2558 18.3867 46.6425 17.08C46.0558 15.7467 45.5225 14.5867 45.0425 13.6C44.5625 12.5867 44.2158 11.88 44.0025 11.48C43.5492 10.6267 43.1358 10.0133 42.7625 9.64C42.4158 9.24 42.1492 9.02667 41.9625 9H51.0425C50.8825 9 50.7758 9.18667 50.7225 9.56C50.6692 9.93333 50.7758 10.5733 51.0425 11.48C51.1758 11.8533 51.3892 12.4667 51.6825 13.32C52.0025 14.1733 52.3758 15.1867 52.8025 16.36C53.2292 17.5067 53.6958 18.7467 54.2025 20.08C54.7092 21.3867 55.2158 22.7067 55.7225 24.04C56.2558 25.3733 56.7492 26.6267 57.2025 27.8H57.2425C57.6958 26.6 58.1892 25.3333 58.7225 24C59.2558 22.64 59.7758 21.2933 60.2825 19.96C60.7892 18.6267 61.2692 17.3867 61.7225 16.24C62.1758 15.0667 62.5625 14.0533 62.8825 13.2C63.2025 12.3467 63.4158 11.7467 63.5225 11.4C63.8158 10.52 63.9358 9.90667 63.8825 9.56C63.8292 9.18667 63.7092 9 63.5225 9H72.3225C72.1625 9 71.9092 9.18667 71.5625 9.56C71.2425 9.90667 70.8692 10.5067 70.4425 11.36C70.2558 11.7333 69.9358 12.4133 69.4825 13.4C69.0292 14.3867 68.4958 15.5467 67.8825 16.88C67.2692 18.1867 66.6292 19.56 65.9625 21C65.3225 22.4133 64.7092 23.7867 64.1225 25.12C63.5358 26.4267 63.0158 27.5733 62.5625 28.56C62.1358 29.52 61.8425 30.1867 61.6825 30.56C61.3358 31.4133 61.1892 32.0267 61.2425 32.4C61.3225 32.7733 61.4692 32.9733 61.6825 33H52.7225ZM74.7344 33C74.921 33 75.0944 32.8267 75.2544 32.48C75.441 32.1067 75.5344 31.48 75.5344 30.6V11.4C75.5344 10.5467 75.441 9.93333 75.2544 9.56C75.0944 9.18667 74.921 9 74.7344 9H82.4544C82.2677 9 82.081 9.18667 81.8944 9.56C81.7077 9.90667 81.6144 10.5333 81.6144 11.44V30.6C81.6144 31.4533 81.7077 32.0667 81.8944 32.44C82.081 32.8133 82.2677 33 82.4544 33H74.7344ZM94.1331 33C94.3198 33 94.5065 32.8133 94.6931 32.44C94.8798 32.0667 94.9731 31.4533 94.9731 30.6V14.6C94.9731 14.0133 94.9065 13.6667 94.7731 13.56C94.6398 13.4533 94.1731 13.4 93.3731 13.4H90.4531C88.9065 13.4 87.6531 13.5733 86.6931 13.92C85.7598 14.24 85.1465 14.5467 84.8531 14.84L85.6531 10.2V9H110.453V10.2L111.253 14.84C110.96 14.5467 110.333 14.24 109.373 13.92C108.44 13.5733 107.2 13.4 105.653 13.4H102.773C101.946 13.4 101.466 13.4533 101.333 13.56C101.2 13.6667 101.133 14.0133 101.133 14.6V30.6C101.133 31.4533 101.226 32.0667 101.413 32.44C101.6 32.8133 101.786 33 101.973 33H94.1331ZM106.795 33C106.928 33 107.128 32.8133 107.395 32.44C107.688 32.0667 108.022 31.44 108.395 30.56C108.582 30.16 108.875 29.48 109.275 28.52C109.702 27.5333 110.182 26.4 110.715 25.12C111.275 23.8133 111.848 22.4533 112.435 21.04C113.048 19.6267 113.622 18.2667 114.155 16.96C114.715 15.6533 115.195 14.5067 115.595 13.52C116.022 12.5333 116.315 11.8267 116.475 11.4C116.822 10.5467 117.008 9.93333 117.035 9.56C117.062 9.18667 117.008 9 116.875 9H125.595C125.488 9 125.448 9.18667 125.475 9.56C125.502 9.90667 125.688 10.52 126.035 11.4C126.195 11.8267 126.475 12.5333 126.875 13.52C127.275 14.48 127.742 15.6133 128.275 16.92C128.808 18.2 129.368 19.5467 129.955 20.96C130.542 22.3733 131.102 23.7333 131.635 25.04C132.168 26.32 132.648 27.4533 133.075 28.44C133.502 29.4267 133.808 30.1333 133.995 30.56C134.395 31.44 134.782 32.0667 135.155 32.44C135.528 32.8133 135.808 33 135.995 33H126.915C127.128 32.9733 127.302 32.7733 127.435 32.4C127.595 32 127.595 31.3867 127.435 30.56C127.408 30.3733 127.382 30.2267 127.355 30.12C127.328 29.9867 127.275 29.8 127.195 29.56C127.088 29.16 126.968 28.88 126.835 28.72C126.702 28.5333 126.475 28.4267 126.155 28.4C125.862 28.3733 125.368 28.36 124.675 28.36H117.795C117.075 28.36 116.542 28.3867 116.195 28.44C115.848 28.4667 115.608 28.56 115.475 28.72C115.342 28.88 115.235 29.1467 115.155 29.52C115.128 29.6533 115.088 29.8267 115.035 30.04C115.008 30.2533 114.982 30.4267 114.955 30.56C114.768 31.4133 114.715 32.0267 114.795 32.4C114.902 32.7733 115.035 32.9733 115.195 33H106.795ZM118.835 23.96H123.515C124.288 23.96 124.715 23.8933 124.795 23.76C124.875 23.6267 124.835 23.3333 124.675 22.88C124.328 22.0267 123.982 21.16 123.635 20.28C123.288 19.3733 122.955 18.4933 122.635 17.64C122.342 16.7867 122.075 16 121.835 15.28C121.622 14.5333 121.435 13.9067 121.275 13.4H121.195C120.822 14.3867 120.435 15.4267 120.035 16.52C119.635 17.6133 119.262 18.6267 118.915 19.56C118.568 20.4933 118.288 21.2667 118.075 21.88C117.862 22.4667 117.755 22.76 117.755 22.76C117.568 23.1867 117.502 23.4933 117.555 23.68C117.608 23.8667 118.035 23.96 118.835 23.96ZM141.008 33C141.195 33 141.381 32.8133 141.568 32.44C141.755 32.0667 141.848 31.4533 141.848 30.6V14.6C141.848 14.0133 141.781 13.6667 141.648 13.56C141.515 13.4533 141.048 13.4 140.248 13.4H137.328C135.781 13.4 134.528 13.5733 133.568 13.92C132.635 14.24 132.021 14.5467 131.728 14.84L132.528 10.2V9H157.328V10.2L158.128 14.84C157.835 14.5467 157.208 14.24 156.248 13.92C155.315 13.5733 154.075 13.4 152.528 13.4H149.648C148.821 13.4 148.341 13.4533 148.208 13.56C148.075 13.6667 148.008 14.0133 148.008 14.6V30.6C148.008 31.4533 148.101 32.0667 148.288 32.44C148.475 32.8133 148.661 33 148.848 33H141.008ZM160.516 33C160.702 33 160.876 32.8267 161.036 32.48C161.222 32.1067 161.316 31.48 161.316 30.6V11.4C161.316 10.5467 161.222 9.93333 161.036 9.56C160.876 9.18667 160.702 9 160.516 9H168.236C168.049 9 167.862 9.18667 167.676 9.56C167.489 9.90667 167.396 10.5333 167.396 11.44V30.6C167.396 31.4533 167.489 32.0667 167.676 32.44C167.862 32.8133 168.049 33 168.236 33H160.516ZM184.834 33.4C180.248 33.4 176.928 32.3067 174.874 30.12C172.848 27.9067 171.834 24.8267 171.834 20.88C171.834 18.3467 172.274 16.1733 173.154 14.36C174.061 12.52 175.461 11.1067 177.354 10.12C179.274 9.10667 181.768 8.6 184.834 8.6H186.074C189.088 8.6 191.528 9.09333 193.394 10.08C195.288 11.0667 196.674 12.48 197.554 14.32C198.434 16.16 198.874 18.3467 198.874 20.88C198.874 24.8267 197.861 27.9067 195.834 30.12C193.808 32.3067 190.554 33.4 186.074 33.4H184.834ZM185.234 28.96H185.674C187.301 28.96 188.634 28.6933 189.674 28.16C190.741 27.6267 191.528 26.7733 192.034 25.6C192.541 24.4 192.794 22.8267 192.794 20.88C192.794 18.9867 192.528 17.4667 191.994 16.32C191.488 15.1467 190.701 14.3067 189.634 13.8C188.594 13.2667 187.274 13 185.674 13H185.234C183.581 13 182.208 13.28 181.114 13.84C180.021 14.3733 179.208 15.2133 178.674 16.36C178.168 17.5067 177.914 19.0133 177.914 20.88C177.914 22.8267 178.181 24.4 178.714 25.6C179.274 26.7733 180.088 27.6267 181.154 28.16C182.248 28.6933 183.608 28.96 185.234 28.96ZM202.469 33C202.655 33 202.842 32.8133 203.029 32.44C203.215 32.0667 203.309 31.4533 203.309 30.6V11.4C203.309 10.5467 203.215 9.94667 203.029 9.6C202.842 9.22667 202.655 9.02667 202.469 9H210.309C210.122 9 210.069 9.18667 210.149 9.56C210.255 9.93333 210.695 10.5733 211.469 11.48C211.682 11.6933 212.029 12.0933 212.509 12.68C213.015 13.24 213.615 13.92 214.309 14.72C215.002 15.52 215.735 16.3867 216.509 17.32C217.309 18.2533 218.109 19.1867 218.909 20.12C219.735 21.0533 220.522 21.9467 221.269 22.8H221.309V11.4C221.309 10.5467 221.215 9.94667 221.029 9.6C220.842 9.22667 220.655 9.02667 220.469 9H228.309C228.122 9 227.935 9.18667 227.749 9.56C227.562 9.93333 227.469 10.56 227.469 11.44V30.6C227.469 31.4533 227.562 32.0667 227.749 32.44C227.935 32.8133 228.122 33 228.309 33H221.429C221.589 33 221.602 32.8133 221.469 32.44C221.362 32.0667 220.949 31.4267 220.229 30.52C219.855 30.04 219.362 29.4267 218.749 28.68C218.135 27.9067 217.442 27.0533 216.669 26.12C215.922 25.1867 215.135 24.2133 214.309 23.2C213.482 22.1867 212.655 21.2 211.829 20.24C211.029 19.2533 210.282 18.3467 209.589 17.52H209.469V30.6C209.469 31.4533 209.562 32.0667 209.749 32.44C209.935 32.8133 210.122 33 210.309 33H202.469Z" fill="#005794"/>
<path d="M43.904 56.54V58.268H50.168V56.54H43.904ZM42.32 55.262H51.842V59.546H42.32V55.262ZM45.956 58.97L47.864 59.114C47.696 59.582 47.516 60.038 47.324 60.482C47.144 60.926 46.97 61.304 46.802 61.616L45.326 61.4C45.446 61.04 45.566 60.632 45.686 60.176C45.806 59.72 45.896 59.318 45.956 58.97ZM40.952 60.842H53.39V66.53H51.698V62.336H42.572V66.548H40.952V60.842ZM41.834 64.406H52.418V65.9H41.834V64.406ZM39.566 52.634H54.668V56.324H53.012V54.092H41.114V56.324H39.566V52.634ZM51.842 49.934L53.624 50.51C53.264 51.014 52.88 51.518 52.472 52.022C52.076 52.514 51.71 52.934 51.374 53.282L49.988 52.742C50.204 52.49 50.426 52.202 50.654 51.878C50.882 51.542 51.098 51.206 51.302 50.87C51.518 50.534 51.698 50.222 51.842 49.934ZM40.592 50.69L42.05 50.06C42.374 50.408 42.692 50.804 43.004 51.248C43.328 51.68 43.562 52.064 43.706 52.4L42.176 53.084C42.032 52.76 41.81 52.37 41.51 51.914C41.21 51.458 40.904 51.05 40.592 50.69ZM45.092 50.276L46.586 49.754C46.85 50.126 47.12 50.552 47.396 51.032C47.672 51.5 47.87 51.902 47.99 52.238L46.424 52.832C46.316 52.484 46.136 52.07 45.884 51.59C45.632 51.11 45.368 50.672 45.092 50.276ZM57.62 60.878H73.514V62.3H57.62V60.878ZM57.692 52.904H73.46V54.326H57.692V52.904ZM58.412 56.036H72.794V57.404H58.412V56.036ZM59.312 58.502H71.93V59.762H59.312V58.502ZM64.676 56.702H66.35V66.512H64.676V56.702ZM63.056 49.79H64.658V53.57H63.056V49.79ZM66.44 49.79H68.06V53.48H66.44V49.79ZM64.244 61.472L65.612 62.102C65.048 62.714 64.364 63.29 63.56 63.83C62.756 64.37 61.892 64.844 60.968 65.252C60.044 65.672 59.132 66.008 58.232 66.26C58.148 66.104 58.04 65.936 57.908 65.756C57.788 65.588 57.656 65.42 57.512 65.252C57.38 65.084 57.248 64.94 57.116 64.82C58.016 64.628 58.916 64.364 59.816 64.028C60.716 63.692 61.556 63.308 62.336 62.876C63.116 62.432 63.752 61.964 64.244 61.472ZM66.782 61.436C67.166 61.808 67.622 62.168 68.15 62.516C68.69 62.864 69.278 63.188 69.914 63.488C70.55 63.776 71.21 64.028 71.894 64.244C72.59 64.46 73.286 64.634 73.982 64.766C73.862 64.886 73.724 65.036 73.568 65.216C73.424 65.396 73.286 65.582 73.154 65.774C73.034 65.966 72.932 66.14 72.848 66.296C72.14 66.104 71.438 65.864 70.742 65.576C70.046 65.3 69.374 64.976 68.726 64.604C68.09 64.232 67.49 63.83 66.926 63.398C66.374 62.954 65.888 62.48 65.468 61.976L66.782 61.436ZM70.598 49.988L72.362 50.438C72.086 50.918 71.798 51.398 71.498 51.878C71.21 52.358 70.946 52.772 70.706 53.12L69.32 52.688C69.476 52.436 69.632 52.154 69.788 51.842C69.944 51.518 70.094 51.194 70.238 50.87C70.382 50.546 70.502 50.252 70.598 49.988ZM68.204 53.804L69.986 54.236C69.758 54.656 69.53 55.064 69.302 55.46C69.074 55.844 68.858 56.174 68.654 56.45L67.232 56.036C67.4 55.712 67.574 55.34 67.754 54.92C67.946 54.5 68.096 54.128 68.204 53.804ZM59.06 50.438L60.518 49.934C60.818 50.33 61.106 50.774 61.382 51.266C61.658 51.758 61.862 52.19 61.994 52.562L60.446 53.12C60.338 52.76 60.152 52.328 59.888 51.824C59.624 51.32 59.348 50.858 59.06 50.438ZM61.382 54.398L63.02 54.11C63.212 54.386 63.392 54.698 63.56 55.046C63.728 55.394 63.848 55.694 63.92 55.946L62.21 56.27C62.15 56.018 62.042 55.718 61.886 55.37C61.73 55.01 61.562 54.686 61.382 54.398ZM83.054 60.374H86.528V61.544H83.054V60.374ZM81.992 51.536H87.59V52.814H81.992V51.536ZM81.542 55.496H92.45V56.864H81.542V55.496ZM83.378 57.818H87.284V64.136H83.378V62.93H85.916V59.024H83.378V57.818ZM82.37 57.818H83.702V65.234H82.37V57.818ZM84.026 49.844H85.484V52.436H84.026V49.844ZM90.704 57.656L92.108 57.962C91.592 59.858 90.854 61.526 89.894 62.966C88.946 64.406 87.806 65.594 86.474 66.53C86.414 66.434 86.324 66.314 86.204 66.17C86.084 66.038 85.952 65.9 85.808 65.756C85.676 65.612 85.562 65.492 85.466 65.396C86.774 64.604 87.866 63.548 88.742 62.228C89.618 60.896 90.272 59.372 90.704 57.656ZM82.46 53.12L83.576 52.85C83.732 53.234 83.858 53.654 83.954 54.11C84.062 54.554 84.128 54.944 84.152 55.28L82.946 55.568C82.946 55.244 82.898 54.854 82.802 54.398C82.706 53.942 82.592 53.516 82.46 53.12ZM89.516 51.104L90.65 50.51C91.034 50.954 91.394 51.452 91.73 52.004C92.078 52.544 92.336 53.018 92.504 53.426L91.298 54.092C91.142 53.684 90.896 53.198 90.56 52.634C90.236 52.058 89.888 51.548 89.516 51.104ZM85.79 52.832L87.122 53.12C86.978 53.54 86.834 53.972 86.69 54.416C86.558 54.848 86.432 55.214 86.312 55.514L85.232 55.262C85.328 54.926 85.43 54.53 85.538 54.074C85.658 53.606 85.742 53.192 85.79 52.832ZM75.926 50.546H82.028V52.058H75.926V50.546ZM77.402 54.344H80.624V55.748H77.402V54.344ZM77.402 58.052H80.624V59.456H77.402V58.052ZM76.718 51.338H78.14V62.75H76.718V51.338ZM79.76 51.32H81.2V66.512H79.76V51.32ZM75.602 62.48C76.238 62.384 76.988 62.258 77.852 62.102C78.728 61.934 79.622 61.76 80.534 61.58L80.66 63.038C79.82 63.218 78.986 63.398 78.158 63.578C77.342 63.746 76.586 63.902 75.89 64.046L75.602 62.48ZM87.95 49.826H89.462C89.462 51.398 89.48 52.91 89.516 54.362C89.564 55.802 89.624 57.14 89.696 58.376C89.78 59.6 89.882 60.674 90.002 61.598C90.134 62.51 90.278 63.224 90.434 63.74C90.602 64.256 90.782 64.514 90.974 64.514C91.106 64.514 91.214 64.298 91.298 63.866C91.394 63.422 91.466 62.804 91.514 62.012C91.598 62.12 91.712 62.24 91.856 62.372C92 62.492 92.144 62.606 92.288 62.714C92.444 62.81 92.558 62.882 92.63 62.93C92.51 63.878 92.348 64.61 92.144 65.126C91.952 65.642 91.748 65.996 91.532 66.188C91.328 66.392 91.124 66.494 90.92 66.494C90.44 66.482 90.032 66.206 89.696 65.666C89.36 65.126 89.078 64.364 88.85 63.38C88.634 62.384 88.466 61.196 88.346 59.816C88.226 58.436 88.136 56.906 88.076 55.226C88.016 53.534 87.974 51.734 87.95 49.826ZM98.39 66.098C98.018 65.642 97.604 65.174 97.148 64.694C96.704 64.214 96.248 63.752 95.78 63.308C95.324 62.864 94.886 62.468 94.466 62.12L95.942 60.824C96.374 61.172 96.83 61.58 97.31 62.048C97.79 62.504 98.258 62.978 98.714 63.47C99.182 63.95 99.584 64.394 99.92 64.802L98.39 66.098ZM123.14 52.886L124.868 53.3C124.652 53.816 124.418 54.35 124.166 54.902C123.926 55.454 123.686 55.988 123.446 56.504C123.206 57.008 122.978 57.452 122.762 57.836L121.484 57.422C121.688 57.014 121.892 56.546 122.096 56.018C122.312 55.49 122.51 54.95 122.69 54.398C122.882 53.846 123.032 53.342 123.14 52.886ZM125.192 55.244L126.488 54.596C126.812 54.992 127.136 55.424 127.46 55.892C127.796 56.348 128.102 56.804 128.378 57.26C128.654 57.704 128.87 58.1 129.026 58.448L127.64 59.222C127.508 58.862 127.31 58.454 127.046 57.998C126.782 57.542 126.488 57.074 126.164 56.594C125.84 56.102 125.516 55.652 125.192 55.244ZM126.308 61.67L127.604 61.022C127.94 61.442 128.252 61.898 128.54 62.39C128.828 62.87 129.074 63.35 129.278 63.83C129.494 64.298 129.644 64.73 129.728 65.126L128.324 65.846C128.24 65.462 128.096 65.03 127.892 64.55C127.7 64.058 127.466 63.56 127.19 63.056C126.914 62.552 126.62 62.09 126.308 61.67ZM119.936 56.882C120.572 56.858 121.298 56.828 122.114 56.792C122.93 56.744 123.8 56.696 124.724 56.648C125.648 56.588 126.584 56.534 127.532 56.486L127.496 57.836C126.212 57.956 124.928 58.07 123.644 58.178C122.372 58.274 121.238 58.358 120.242 58.43L119.936 56.882ZM121.862 50.042L123.464 50.438C123.128 51.35 122.69 52.214 122.15 53.03C121.622 53.846 121.052 54.536 120.44 55.1C120.344 54.992 120.212 54.878 120.044 54.758C119.888 54.626 119.726 54.5 119.558 54.38C119.39 54.248 119.234 54.146 119.09 54.074C119.69 53.594 120.23 53 120.71 52.292C121.202 51.584 121.586 50.834 121.862 50.042ZM126.524 50.006C126.776 50.438 127.082 50.882 127.442 51.338C127.802 51.782 128.18 52.202 128.576 52.598C128.984 52.994 129.374 53.324 129.746 53.588C129.626 53.684 129.488 53.804 129.332 53.948C129.188 54.092 129.044 54.242 128.9 54.398C128.768 54.554 128.654 54.698 128.558 54.83C128.174 54.506 127.772 54.11 127.352 53.642C126.932 53.162 126.524 52.658 126.128 52.13C125.744 51.602 125.414 51.092 125.138 50.6L126.524 50.006ZM122.204 59.384L123.266 58.466C123.662 58.634 124.052 58.844 124.436 59.096C124.832 59.348 125.192 59.612 125.516 59.888C125.852 60.152 126.122 60.41 126.326 60.662L125.21 61.706C125.006 61.442 124.742 61.166 124.418 60.878C124.094 60.59 123.74 60.314 123.356 60.05C122.972 59.786 122.588 59.564 122.204 59.384ZM122.114 60.878H123.662V64.55C123.662 64.778 123.692 64.922 123.752 64.982C123.812 65.03 123.938 65.054 124.13 65.054C124.166 65.054 124.238 65.054 124.346 65.054C124.454 65.054 124.574 65.054 124.706 65.054C124.85 65.054 124.976 65.054 125.084 65.054C125.204 65.054 125.288 65.054 125.336 65.054C125.468 65.054 125.564 65.012 125.624 64.928C125.684 64.844 125.732 64.676 125.768 64.424C125.804 64.16 125.828 63.764 125.84 63.236C125.936 63.32 126.068 63.404 126.236 63.488C126.404 63.56 126.572 63.626 126.74 63.686C126.92 63.746 127.082 63.8 127.226 63.848C127.178 64.556 127.088 65.102 126.956 65.486C126.836 65.87 126.662 66.134 126.434 66.278C126.206 66.434 125.906 66.512 125.534 66.512C125.462 66.512 125.348 66.512 125.192 66.512C125.036 66.512 124.868 66.512 124.688 66.512C124.52 66.512 124.358 66.512 124.202 66.512C124.058 66.512 123.95 66.512 123.878 66.512C123.398 66.512 123.026 66.452 122.762 66.332C122.51 66.212 122.336 66.008 122.24 65.72C122.156 65.444 122.114 65.054 122.114 64.55V60.878ZM120.296 61.328L121.664 61.562C121.556 62.282 121.382 63.032 121.142 63.812C120.914 64.58 120.614 65.228 120.242 65.756L118.91 65.162C119.246 64.706 119.534 64.124 119.774 63.416C120.014 62.708 120.188 62.012 120.296 61.328ZM115.58 49.79L117.056 50.366C116.828 50.81 116.582 51.278 116.318 51.77C116.066 52.25 115.808 52.712 115.544 53.156C115.292 53.6 115.052 53.99 114.824 54.326L113.69 53.822C113.906 53.462 114.134 53.048 114.374 52.58C114.614 52.112 114.842 51.632 115.058 51.14C115.274 50.648 115.448 50.198 115.58 49.79ZM117.596 51.914L118.982 52.562C118.562 53.222 118.094 53.93 117.578 54.686C117.074 55.43 116.564 56.15 116.048 56.846C115.532 57.53 115.046 58.13 114.59 58.646L113.6 58.088C113.936 57.68 114.284 57.224 114.644 56.72C115.016 56.204 115.382 55.67 115.742 55.118C116.102 54.554 116.438 53.996 116.75 53.444C117.074 52.892 117.356 52.382 117.596 51.914ZM112.754 53.75L113.618 52.616C113.93 52.904 114.248 53.222 114.572 53.57C114.896 53.918 115.196 54.26 115.472 54.596C115.748 54.92 115.964 55.226 116.12 55.514L115.184 56.81C115.04 56.51 114.836 56.18 114.572 55.82C114.308 55.46 114.014 55.1 113.69 54.74C113.378 54.38 113.066 54.05 112.754 53.75ZM116.948 56.108L118.172 55.586C118.424 55.97 118.676 56.39 118.928 56.846C119.18 57.302 119.402 57.746 119.594 58.178C119.786 58.61 119.93 59 120.026 59.348L118.73 59.942C118.646 59.594 118.508 59.204 118.316 58.772C118.136 58.328 117.926 57.872 117.686 57.404C117.446 56.936 117.2 56.504 116.948 56.108ZM112.646 57.764C113.438 57.728 114.38 57.674 115.472 57.602C116.576 57.518 117.704 57.44 118.856 57.368L118.874 58.7C117.818 58.808 116.768 58.91 115.724 59.006C114.68 59.09 113.738 59.174 112.898 59.258L112.646 57.764ZM117.434 60.554L118.676 60.176C118.904 60.692 119.12 61.262 119.324 61.886C119.528 62.498 119.678 63.032 119.774 63.488L118.46 63.938C118.376 63.47 118.238 62.924 118.046 62.3C117.854 61.664 117.65 61.082 117.434 60.554ZM113.564 60.194L114.968 60.446C114.86 61.298 114.704 62.138 114.5 62.966C114.308 63.794 114.074 64.496 113.798 65.072C113.702 65 113.576 64.928 113.42 64.856C113.264 64.784 113.102 64.712 112.934 64.64C112.778 64.556 112.646 64.496 112.538 64.46C112.814 63.908 113.03 63.254 113.186 62.498C113.354 61.742 113.48 60.974 113.564 60.194ZM115.58 58.448H117.056V66.494H115.58V58.448ZM131.708 50.672H137.738V52.112H131.708V50.672ZM138.764 59.888H146.36V61.328H138.764V59.888ZM131.474 56.126H138.224V57.638H131.474V56.126ZM134.552 56.738H136.154V64.622C136.154 65.018 136.106 65.336 136.01 65.576C135.926 65.828 135.746 66.026 135.47 66.17C135.218 66.29 134.894 66.362 134.498 66.386C134.114 66.422 133.646 66.44 133.094 66.44C133.058 66.212 132.992 65.942 132.896 65.63C132.8 65.33 132.698 65.066 132.59 64.838C132.962 64.85 133.304 64.862 133.616 64.874C133.928 64.874 134.144 64.868 134.264 64.856C134.372 64.844 134.444 64.826 134.48 64.802C134.528 64.766 134.552 64.694 134.552 64.586V56.738ZM145.802 59.888H147.53C147.53 59.888 147.524 59.978 147.512 60.158C147.5 60.326 147.488 60.47 147.476 60.59C147.368 61.67 147.254 62.564 147.134 63.272C147.026 63.968 146.906 64.514 146.774 64.91C146.642 65.306 146.486 65.6 146.306 65.792C146.126 65.972 145.94 66.098 145.748 66.17C145.556 66.242 145.334 66.296 145.082 66.332C144.866 66.356 144.578 66.368 144.218 66.368C143.87 66.368 143.486 66.362 143.066 66.35C143.054 66.11 143.006 65.84 142.922 65.54C142.838 65.24 142.736 64.982 142.616 64.766C142.976 64.802 143.306 64.826 143.606 64.838C143.918 64.85 144.146 64.856 144.29 64.856C144.434 64.856 144.548 64.844 144.632 64.82C144.728 64.796 144.818 64.742 144.902 64.658C145.022 64.538 145.136 64.316 145.244 63.992C145.352 63.656 145.448 63.176 145.532 62.552C145.628 61.928 145.718 61.124 145.802 60.14V59.888ZM141.878 58.178H143.588C143.504 59.102 143.372 59.978 143.192 60.806C143.012 61.634 142.736 62.408 142.364 63.128C141.992 63.836 141.476 64.478 140.816 65.054C140.168 65.63 139.322 66.122 138.278 66.53C138.182 66.326 138.038 66.092 137.846 65.828C137.654 65.564 137.468 65.354 137.288 65.198C138.224 64.862 138.974 64.448 139.538 63.956C140.114 63.464 140.558 62.918 140.87 62.318C141.194 61.718 141.428 61.07 141.572 60.374C141.716 59.678 141.818 58.946 141.878 58.178ZM132.248 54.002L133.31 52.904C133.814 53.096 134.336 53.33 134.876 53.606C135.428 53.87 135.95 54.152 136.442 54.452C136.946 54.74 137.36 55.016 137.684 55.28L136.55 56.504C136.25 56.24 135.854 55.958 135.362 55.658C134.882 55.346 134.366 55.046 133.814 54.758C133.274 54.458 132.752 54.206 132.248 54.002ZM137.792 56.126H138.026L138.26 56.054L139.304 56.396C139.136 57.188 138.926 57.998 138.674 58.826C138.434 59.642 138.182 60.344 137.918 60.932L136.748 60.356C136.952 59.852 137.15 59.234 137.342 58.502C137.534 57.758 137.684 57.056 137.792 56.396V56.126ZM144.992 52.364L146.774 52.634C146.366 53.738 145.802 54.68 145.082 55.46C144.374 56.24 143.54 56.894 142.58 57.422C141.62 57.95 140.558 58.388 139.394 58.736C139.334 58.616 139.238 58.466 139.106 58.286C138.986 58.106 138.854 57.932 138.71 57.764C138.578 57.584 138.452 57.44 138.332 57.332C139.448 57.068 140.45 56.726 141.338 56.306C142.238 55.874 143 55.334 143.624 54.686C144.248 54.026 144.704 53.252 144.992 52.364ZM141.266 49.79L142.868 50.24C142.58 50.876 142.238 51.494 141.842 52.094C141.446 52.694 141.02 53.258 140.564 53.786C140.12 54.302 139.67 54.758 139.214 55.154C139.106 55.058 138.968 54.95 138.8 54.83C138.632 54.698 138.458 54.578 138.278 54.47C138.11 54.35 137.954 54.254 137.81 54.182C138.518 53.654 139.178 53.006 139.79 52.238C140.414 51.458 140.906 50.642 141.266 49.79ZM141.194 52.778C141.614 53.522 142.172 54.2 142.868 54.812C143.564 55.412 144.368 55.928 145.28 56.36C146.204 56.792 147.194 57.122 148.25 57.35C148.13 57.458 147.998 57.596 147.854 57.764C147.722 57.932 147.596 58.106 147.476 58.286C147.356 58.466 147.254 58.634 147.17 58.79C146.066 58.502 145.046 58.1 144.11 57.584C143.174 57.056 142.34 56.426 141.608 55.694C140.876 54.962 140.264 54.146 139.772 53.246L141.194 52.778ZM134.354 56.63L135.488 57.062C135.26 57.854 134.972 58.67 134.624 59.51C134.276 60.338 133.886 61.112 133.454 61.832C133.034 62.54 132.572 63.128 132.068 63.596C131.996 63.356 131.876 63.086 131.708 62.786C131.54 62.474 131.384 62.204 131.24 61.976C131.684 61.58 132.104 61.094 132.5 60.518C132.896 59.93 133.256 59.3 133.58 58.628C133.904 57.956 134.162 57.29 134.354 56.63ZM141.014 51.662H147.836V53.102H140.33L141.014 51.662ZM137.324 50.672H137.702L137.972 50.6L139.052 51.284C138.788 51.704 138.464 52.136 138.08 52.58C137.696 53.024 137.288 53.438 136.856 53.822C136.424 54.206 135.992 54.542 135.56 54.83C135.416 54.698 135.23 54.554 135.002 54.398C134.786 54.242 134.594 54.11 134.426 54.002C134.81 53.738 135.188 53.432 135.56 53.084C135.932 52.736 136.274 52.376 136.586 52.004C136.898 51.632 137.144 51.29 137.324 50.978V50.672ZM156.782 50.69H164.648V52.166H156.782V50.69ZM157.466 60.374H165.836V61.886H157.466V60.374ZM156.332 64.478H166.61V65.99H156.332V64.478ZM164.162 50.69H164.486L164.792 50.618L165.944 51.122C165.464 52.514 164.792 53.72 163.928 54.74C163.064 55.748 162.062 56.594 160.922 57.278C159.794 57.962 158.576 58.508 157.268 58.916C157.16 58.712 157.01 58.472 156.818 58.196C156.638 57.908 156.47 57.68 156.314 57.512C157.502 57.188 158.618 56.726 159.662 56.126C160.718 55.526 161.636 54.794 162.416 53.93C163.196 53.066 163.778 52.082 164.162 50.978V50.69ZM159.32 52.004C159.956 53.36 160.922 54.512 162.218 55.46C163.526 56.408 165.068 57.074 166.844 57.458C166.676 57.626 166.484 57.848 166.268 58.124C166.064 58.4 165.908 58.646 165.8 58.862C163.952 58.358 162.35 57.572 160.994 56.504C159.65 55.424 158.594 54.086 157.826 52.49L159.32 52.004ZM160.742 57.98H162.416V65.45H160.742V57.98ZM152.642 49.808L154.118 50.384C153.89 50.828 153.644 51.296 153.38 51.788C153.128 52.268 152.87 52.73 152.606 53.174C152.354 53.606 152.114 53.99 151.886 54.326L150.734 53.822C150.962 53.462 151.19 53.048 151.418 52.58C151.658 52.112 151.886 51.638 152.102 51.158C152.318 50.666 152.498 50.216 152.642 49.808ZM154.676 51.896L156.08 52.544C155.672 53.228 155.216 53.948 154.712 54.704C154.208 55.46 153.698 56.192 153.182 56.9C152.678 57.596 152.198 58.208 151.742 58.736L150.716 58.178C151.052 57.77 151.4 57.308 151.76 56.792C152.132 56.264 152.492 55.718 152.84 55.154C153.2 54.59 153.536 54.026 153.848 53.462C154.16 52.898 154.436 52.376 154.676 51.896ZM149.834 53.804L150.662 52.67C150.998 52.946 151.334 53.252 151.67 53.588C152.006 53.912 152.312 54.242 152.588 54.578C152.876 54.902 153.098 55.202 153.254 55.478L152.354 56.774C152.198 56.498 151.982 56.186 151.706 55.838C151.43 55.478 151.13 55.124 150.806 54.776C150.482 54.416 150.158 54.092 149.834 53.804ZM154.082 56.126L155.252 55.658C155.492 56.054 155.72 56.48 155.936 56.936C156.164 57.392 156.362 57.836 156.53 58.268C156.698 58.688 156.824 59.072 156.908 59.42L155.666 59.978C155.594 59.63 155.474 59.234 155.306 58.79C155.15 58.346 154.964 57.89 154.748 57.422C154.544 56.954 154.322 56.522 154.082 56.126ZM149.78 57.818C150.584 57.794 151.538 57.758 152.642 57.71C153.758 57.662 154.892 57.608 156.044 57.548L156.026 58.934C154.934 59.006 153.854 59.078 152.786 59.15C151.73 59.21 150.776 59.27 149.924 59.33L149.78 57.818ZM154.514 60.482L155.738 60.086C155.978 60.602 156.2 61.166 156.404 61.778C156.62 62.39 156.782 62.918 156.89 63.362L155.594 63.83C155.51 63.374 155.366 62.834 155.162 62.21C154.958 61.574 154.742 60.998 154.514 60.482ZM150.698 60.23L152.138 60.482C152.03 61.334 151.868 62.174 151.652 63.002C151.448 63.83 151.208 64.532 150.932 65.108C150.836 65.048 150.71 64.976 150.554 64.892C150.398 64.808 150.23 64.73 150.05 64.658C149.882 64.574 149.738 64.514 149.618 64.478C149.906 63.926 150.134 63.272 150.302 62.516C150.482 61.76 150.614 60.998 150.698 60.23ZM152.678 58.52H154.172V66.548H152.678V58.52ZM176.636 55.388V57.368H182.792V55.388H176.636ZM176.636 52.058V54.02H182.792V52.058H176.636ZM175.088 50.6H184.412V58.826H175.088V50.6ZM174.926 60.68H184.646V62.228H174.926V60.68ZM173.594 64.388H185.24V65.936H173.594V64.388ZM168.518 50.942H174.296V52.526H168.518V50.942ZM168.698 56.144H174.026V57.71H168.698V56.144ZM168.32 63.002C168.824 62.87 169.394 62.708 170.03 62.516C170.666 62.324 171.338 62.114 172.046 61.886C172.754 61.658 173.462 61.43 174.17 61.202L174.458 62.822C173.474 63.158 172.478 63.494 171.47 63.83C170.462 64.166 169.55 64.472 168.734 64.748L168.32 63.002ZM170.66 51.572H172.28V62.678L170.66 62.966V51.572ZM179.012 51.266H180.47V58.124H180.596V65.09H178.868V58.124H179.012V51.266ZM194.492 50.726C194.432 51.002 194.378 51.254 194.33 51.482C194.294 51.71 194.258 51.932 194.222 52.148C194.186 52.448 194.132 52.844 194.06 53.336C194 53.816 193.928 54.356 193.844 54.956C193.76 55.556 193.682 56.174 193.61 56.81C193.538 57.446 193.466 58.07 193.394 58.682C193.322 59.282 193.268 59.834 193.232 60.338C193.196 60.83 193.178 61.232 193.178 61.544C193.178 62.36 193.412 62.996 193.88 63.452C194.36 63.908 195.086 64.136 196.058 64.136C196.934 64.136 197.684 64.016 198.308 63.776C198.944 63.536 199.43 63.2 199.766 62.768C200.102 62.336 200.27 61.838 200.27 61.274C200.27 60.662 200.108 60.05 199.784 59.438C199.472 58.826 198.998 58.238 198.362 57.674L200.36 57.26C200.96 57.968 201.41 58.658 201.71 59.33C202.01 59.99 202.16 60.71 202.16 61.49C202.16 62.378 201.902 63.158 201.386 63.83C200.882 64.502 200.174 65.024 199.262 65.396C198.35 65.768 197.27 65.954 196.022 65.954C195.146 65.954 194.36 65.816 193.664 65.54C192.968 65.264 192.416 64.826 192.008 64.226C191.612 63.626 191.414 62.828 191.414 61.832C191.414 61.46 191.444 60.962 191.504 60.338C191.564 59.714 191.636 59.03 191.72 58.286C191.816 57.542 191.912 56.786 192.008 56.018C192.116 55.238 192.206 54.506 192.278 53.822C192.362 53.126 192.422 52.532 192.458 52.04C192.494 51.68 192.512 51.398 192.512 51.194C192.512 50.99 192.5 50.798 192.476 50.618L194.492 50.726ZM188.444 53.048C188.96 53.216 189.53 53.354 190.154 53.462C190.778 53.57 191.414 53.654 192.062 53.714C192.71 53.762 193.316 53.786 193.88 53.786C194.576 53.786 195.23 53.768 195.842 53.732C196.454 53.684 197.006 53.624 197.498 53.552L197.444 55.244C196.88 55.292 196.322 55.334 195.77 55.37C195.218 55.406 194.57 55.424 193.826 55.424C193.274 55.424 192.674 55.394 192.026 55.334C191.39 55.274 190.754 55.19 190.118 55.082C189.482 54.962 188.894 54.836 188.354 54.704L188.444 53.048ZM188.03 57.53C188.642 57.734 189.272 57.896 189.92 58.016C190.568 58.136 191.21 58.22 191.846 58.268C192.494 58.304 193.106 58.322 193.682 58.322C194.27 58.322 194.876 58.304 195.5 58.268C196.136 58.232 196.76 58.178 197.372 58.106L197.318 59.798C196.766 59.858 196.214 59.906 195.662 59.942C195.11 59.966 194.54 59.978 193.952 59.978C192.872 59.978 191.804 59.918 190.748 59.798C189.692 59.666 188.756 59.486 187.94 59.258L188.03 57.53ZM208.334 51.374H209.99V66.494H208.334V51.374ZM205.706 54.776H211.916V56.36H205.706V54.776ZM208.478 55.496L209.504 55.928C209.324 56.576 209.108 57.248 208.856 57.944C208.604 58.628 208.328 59.306 208.028 59.978C207.74 60.65 207.428 61.28 207.092 61.868C206.756 62.456 206.42 62.96 206.084 63.38C205.988 63.14 205.856 62.87 205.688 62.57C205.532 62.258 205.388 62 205.256 61.796C205.568 61.436 205.88 61.01 206.192 60.518C206.516 60.014 206.822 59.48 207.11 58.916C207.398 58.34 207.656 57.758 207.884 57.17C208.124 56.582 208.322 56.024 208.478 55.496ZM211.052 50.024L212.204 51.338C211.652 51.554 211.022 51.752 210.314 51.932C209.618 52.1 208.904 52.25 208.172 52.382C207.44 52.502 206.732 52.604 206.048 52.688C206.012 52.496 205.946 52.274 205.85 52.022C205.754 51.77 205.658 51.554 205.562 51.374C206.21 51.266 206.87 51.146 207.542 51.014C208.226 50.882 208.874 50.732 209.486 50.564C210.098 50.396 210.62 50.216 211.052 50.024ZM209.846 57.134C209.966 57.23 210.14 57.392 210.368 57.62C210.596 57.848 210.842 58.094 211.106 58.358C211.37 58.622 211.61 58.874 211.826 59.114C212.054 59.342 212.21 59.51 212.294 59.618L211.304 60.95C211.196 60.758 211.046 60.524 210.854 60.248C210.674 59.96 210.47 59.66 210.242 59.348C210.014 59.036 209.798 58.742 209.594 58.466C209.402 58.19 209.234 57.968 209.09 57.8L209.846 57.134ZM216.092 49.808H217.784V55.406H216.092V49.808ZM212.384 50.726H221.744V51.824H212.384V50.726ZM212.762 52.598H221.312V53.66H212.762V52.598ZM211.826 54.452H222.158V55.586H211.826V54.452ZM214.544 59.474V60.464H219.584V59.474H214.544ZM214.544 61.508V62.516H219.584V61.508H214.544ZM214.544 57.458V58.43H219.584V57.458H214.544ZM212.996 56.36H221.204V63.614H212.996V56.36ZM217.766 64.424L218.918 63.596C219.326 63.824 219.74 64.064 220.16 64.316C220.58 64.568 220.982 64.814 221.366 65.054C221.762 65.306 222.098 65.528 222.374 65.72L220.88 66.53C220.64 66.35 220.346 66.14 219.998 65.9C219.662 65.66 219.302 65.408 218.918 65.144C218.534 64.892 218.15 64.652 217.766 64.424ZM215.012 63.524L216.398 64.406C216.038 64.682 215.612 64.958 215.12 65.234C214.64 65.522 214.13 65.78 213.59 66.008C213.062 66.248 212.552 66.446 212.06 66.602C211.94 66.434 211.772 66.242 211.556 66.026C211.352 65.822 211.166 65.648 210.998 65.504C211.49 65.36 211.988 65.18 212.492 64.964C213.008 64.748 213.488 64.514 213.932 64.262C214.376 64.01 214.736 63.764 215.012 63.524ZM229.376 64.46H240.788V65.9H229.376V64.46ZM229.682 50.492H240.428V51.932H229.682V50.492ZM236.468 54.272H239.456V55.586H236.468V54.272ZM230.474 55.802H233.498V61.274H230.474V60.086H232.31V56.99H230.474V55.802ZM229.916 55.802H231.086V62.48H229.916V55.802ZM233.048 53.588H235.118V54.884H232.652L233.048 53.588ZM234.596 53.588H236.018C236.018 53.588 236.018 53.63 236.018 53.714C236.018 53.798 236.018 53.894 236.018 54.002C236.018 54.11 236.018 54.194 236.018 54.254C235.994 55.85 235.97 57.194 235.946 58.286C235.934 59.366 235.904 60.248 235.856 60.932C235.82 61.616 235.766 62.144 235.694 62.516C235.634 62.888 235.55 63.152 235.442 63.308C235.298 63.524 235.142 63.68 234.974 63.776C234.806 63.86 234.602 63.914 234.362 63.938C234.158 63.974 233.9 63.998 233.588 64.01C233.276 64.01 232.952 63.998 232.616 63.974C232.604 63.782 232.562 63.56 232.49 63.308C232.43 63.056 232.352 62.84 232.256 62.66C232.568 62.684 232.85 62.702 233.102 62.714C233.354 62.714 233.546 62.714 233.678 62.714C233.798 62.726 233.894 62.714 233.966 62.678C234.05 62.642 234.122 62.57 234.182 62.462C234.242 62.354 234.296 62.132 234.344 61.796C234.392 61.448 234.428 60.95 234.452 60.302C234.488 59.642 234.512 58.79 234.524 57.746C234.548 56.69 234.572 55.406 234.596 53.894V53.588ZM237.296 55.946C237.488 56.858 237.752 57.728 238.088 58.556C238.424 59.384 238.832 60.122 239.312 60.77C239.792 61.406 240.35 61.916 240.986 62.3C240.818 62.432 240.638 62.612 240.446 62.84C240.266 63.068 240.116 63.272 239.996 63.452C239.336 62.996 238.76 62.402 238.268 61.67C237.776 60.926 237.356 60.092 237.008 59.168C236.672 58.232 236.402 57.242 236.198 56.198L237.296 55.946ZM239.042 54.272H239.294L239.546 54.236L240.374 54.434C240.17 56.63 239.75 58.472 239.114 59.96C238.478 61.448 237.644 62.594 236.612 63.398C236.516 63.242 236.384 63.062 236.216 62.858C236.048 62.642 235.886 62.48 235.73 62.372C236.318 61.94 236.834 61.34 237.278 60.572C237.734 59.804 238.112 58.91 238.412 57.89C238.712 56.87 238.922 55.748 239.042 54.524V54.272ZM232.814 51.086H234.416C234.308 51.554 234.182 52.046 234.038 52.562C233.894 53.078 233.75 53.576 233.606 54.056C233.474 54.524 233.348 54.938 233.228 55.298L231.698 55.1C231.83 54.728 231.962 54.314 232.094 53.858C232.238 53.402 232.37 52.934 232.49 52.454C232.61 51.974 232.718 51.518 232.814 51.086ZM224.264 53.642H229.754V55.208H224.264V53.642ZM226.406 49.808H227.936V66.494H226.406V49.808ZM226.352 54.65L227.306 54.956C227.186 55.664 227.036 56.402 226.856 57.17C226.676 57.938 226.472 58.694 226.244 59.438C226.016 60.17 225.764 60.854 225.488 61.49C225.224 62.126 224.948 62.672 224.66 63.128C224.576 62.912 224.45 62.666 224.282 62.39C224.126 62.114 223.988 61.88 223.868 61.688C224.144 61.292 224.408 60.824 224.66 60.284C224.912 59.732 225.146 59.138 225.362 58.502C225.578 57.866 225.77 57.218 225.938 56.558C226.118 55.898 226.256 55.262 226.352 54.65ZM227.846 56.252C227.942 56.372 228.086 56.588 228.278 56.9C228.47 57.2 228.68 57.53 228.908 57.89C229.136 58.25 229.34 58.586 229.52 58.898C229.712 59.21 229.85 59.432 229.934 59.564L229.088 60.77C229.004 60.518 228.872 60.212 228.692 59.852C228.524 59.492 228.344 59.126 228.152 58.754C227.96 58.37 227.774 58.01 227.594 57.674C227.426 57.338 227.288 57.08 227.18 56.9L227.846 56.252ZM245.576 62.012H255.044V63.254H245.576V62.012ZM242.912 59.204H258.986V60.554H242.912V59.204ZM248.402 57.944L250.076 58.196C249.524 59.324 248.714 60.35 247.646 61.274C246.578 62.186 245.168 62.954 243.416 63.578C243.356 63.446 243.272 63.302 243.164 63.146C243.056 62.99 242.936 62.84 242.804 62.696C242.672 62.552 242.552 62.438 242.444 62.354C243.536 62.018 244.478 61.622 245.27 61.166C246.062 60.698 246.716 60.188 247.232 59.636C247.748 59.084 248.138 58.52 248.402 57.944ZM254.414 59.618C254.762 60.026 255.206 60.41 255.746 60.77C256.298 61.13 256.898 61.454 257.546 61.742C258.206 62.018 258.866 62.24 259.526 62.408C259.406 62.516 259.274 62.654 259.13 62.822C258.998 62.978 258.866 63.14 258.734 63.308C258.614 63.476 258.512 63.626 258.428 63.758C257.744 63.53 257.066 63.236 256.394 62.876C255.734 62.504 255.116 62.084 254.54 61.616C253.976 61.148 253.496 60.65 253.1 60.122L254.414 59.618ZM254.432 62.012H256.07C256.07 62.012 256.064 62.09 256.052 62.246C256.052 62.39 256.04 62.516 256.016 62.624C255.92 63.632 255.812 64.388 255.692 64.892C255.572 65.396 255.41 65.75 255.206 65.954C255.05 66.11 254.876 66.218 254.684 66.278C254.492 66.338 254.27 66.38 254.018 66.404C253.79 66.416 253.484 66.422 253.1 66.422C252.716 66.422 252.302 66.416 251.858 66.404C251.846 66.188 251.798 65.954 251.714 65.702C251.642 65.45 251.552 65.228 251.444 65.036C251.84 65.084 252.206 65.108 252.542 65.108C252.89 65.12 253.142 65.126 253.298 65.126C253.562 65.126 253.754 65.078 253.874 64.982C254.006 64.862 254.114 64.592 254.198 64.172C254.282 63.752 254.36 63.098 254.432 62.21V62.012ZM249.698 60.86H251.336C251.24 61.616 251.078 62.3 250.85 62.912C250.622 63.512 250.28 64.052 249.824 64.532C249.38 65 248.786 65.402 248.042 65.738C247.298 66.086 246.356 66.374 245.216 66.602C245.144 66.398 245.024 66.164 244.856 65.9C244.688 65.648 244.526 65.444 244.37 65.288C245.414 65.12 246.26 64.904 246.908 64.64C247.568 64.376 248.084 64.064 248.456 63.704C248.84 63.344 249.122 62.93 249.302 62.462C249.482 61.982 249.614 61.448 249.698 60.86ZM243.146 50.906H258.734V52.274H243.146V50.906ZM247.088 49.808H248.744V53.066H247.088V49.808ZM253.082 49.808H254.756V53.066H253.082V49.808ZM246.584 56.324V57.296H255.332V56.324H246.584ZM246.584 54.38V55.316H255.332V54.38H246.584ZM244.946 53.336H257.042V58.34H244.946V53.336ZM261.398 60.842H277.562V62.228H261.398V60.842ZM264.62 54.218H275.654V55.37H264.62V54.218ZM264.62 56.378H275.69V57.548H264.62V56.378ZM264.314 51.86H276.464V53.21H264.314V51.86ZM269.012 52.688H270.65V59.078H269.012V52.688ZM268.598 59.528H270.29V66.494H268.598V59.528ZM268.346 61.382L269.642 62.03C269.198 62.498 268.676 62.948 268.076 63.38C267.476 63.812 266.834 64.22 266.15 64.604C265.466 64.976 264.77 65.306 264.062 65.594C263.354 65.894 262.664 66.146 261.992 66.35C261.872 66.146 261.704 65.9 261.488 65.612C261.272 65.336 261.074 65.114 260.894 64.946C261.566 64.778 262.256 64.574 262.964 64.334C263.672 64.082 264.356 63.8 265.016 63.488C265.688 63.176 266.312 62.84 266.888 62.48C267.464 62.12 267.95 61.754 268.346 61.382ZM270.578 61.364C270.974 61.736 271.448 62.102 272 62.462C272.564 62.81 273.176 63.134 273.836 63.434C274.508 63.734 275.192 64.004 275.888 64.244C276.596 64.484 277.286 64.688 277.958 64.856C277.838 64.964 277.712 65.096 277.58 65.252C277.448 65.42 277.316 65.588 277.184 65.756C277.064 65.936 276.968 66.098 276.896 66.242C276.212 66.038 275.516 65.792 274.808 65.504C274.1 65.216 273.41 64.892 272.738 64.532C272.066 64.16 271.43 63.764 270.83 63.344C270.23 62.912 269.708 62.474 269.264 62.03L270.578 61.364ZM269.858 49.808L271.784 50.042C271.52 50.546 271.244 51.038 270.956 51.518C270.668 51.998 270.404 52.406 270.164 52.742L268.67 52.454C268.886 52.082 269.108 51.644 269.336 51.14C269.564 50.636 269.738 50.192 269.858 49.808ZM265.214 49.772L266.978 50.114C266.594 50.786 266.168 51.47 265.7 52.166C265.232 52.85 264.698 53.522 264.098 54.182C263.51 54.842 262.856 55.472 262.136 56.072C262.04 55.94 261.92 55.802 261.776 55.658C261.632 55.514 261.482 55.376 261.326 55.244C261.182 55.112 261.044 55.004 260.912 54.92C261.584 54.416 262.19 53.87 262.73 53.282C263.282 52.694 263.762 52.1 264.17 51.5C264.59 50.888 264.938 50.312 265.214 49.772ZM263.522 52.76H265.142V58.574H277.076V59.888H263.522V52.76ZM280.694 52.976H295.346V61.706H293.582V54.65H282.386V61.796H280.694V52.976ZM281.576 59.042H294.59V60.716H281.576V59.042ZM287.084 49.808H288.866V66.494H287.084V49.808Z" fill="#005794"/>
</svg>
