<svg width="336" height="71" viewBox="0 0 336 71" fill="none" xmlns="http://www.w3.org/2000/svg">
<path d="M2 33C2.18667 33 2.36 32.8267 2.52 32.48C2.70667 32.1067 2.8 31.48 2.8 30.6V11.4C2.8 10.5467 2.70667 9.93333 2.52 9.56C2.36 9.18667 2.18667 9 2 9H9.72C9.53333 9 9.34667 9.18667 9.16 9.56C8.97333 9.90667 8.88 10.5333 8.88 11.44V30.6C8.88 31.4533 8.97333 32.0667 9.16 32.44C9.34667 32.8133 9.53333 33 9.72 33H2ZM13.7188 33C13.9054 33 14.0921 32.8133 14.2788 32.44C14.4654 32.0667 14.5588 31.4533 14.5588 30.6V11.4C14.5588 10.5467 14.4654 9.94667 14.2788 9.6C14.0921 9.22667 13.9054 9.02667 13.7188 9H21.5588C21.3721 9 21.3188 9.18667 21.3988 9.56C21.5054 9.93333 21.9454 10.5733 22.7188 11.48C22.9321 11.6933 23.2788 12.0933 23.7588 12.68C24.2654 13.24 24.8654 13.92 25.5588 14.72C26.2521 15.52 26.9854 16.3867 27.7588 17.32C28.5588 18.2533 29.3588 19.1867 30.1588 20.12C30.9854 21.0533 31.7721 21.9467 32.5188 22.8H32.5588V11.4C32.5588 10.5467 32.4654 9.94667 32.2787 9.6C32.0921 9.22667 31.9054 9.02667 31.7188 9H39.5588C39.3721 9 39.1854 9.18667 38.9988 9.56C38.8121 9.93333 38.7188 10.56 38.7188 11.44V30.6C38.7188 31.4533 38.8121 32.0667 38.9988 32.44C39.1854 32.8133 39.3721 33 39.5588 33H32.6788C32.8388 33 32.8521 32.8133 32.7188 32.44C32.6121 32.0667 32.1988 31.4267 31.4788 30.52C31.1054 30.04 30.6121 29.4267 29.9988 28.68C29.3854 27.9067 28.6921 27.0533 27.9188 26.12C27.1721 25.1867 26.3854 24.2133 25.5588 23.2C24.7321 22.1867 23.9054 21.2 23.0788 20.24C22.2788 19.2533 21.5321 18.3467 20.8388 17.52H20.7188V30.6C20.7188 31.4533 20.8121 32.0667 20.9988 32.44C21.1854 32.8133 21.3721 33 21.5588 33H13.7188ZM52.7225 33C52.9358 32.9733 53.0825 32.7733 53.1625 32.4C53.2425 32.0267 53.0958 31.4133 52.7225 30.56C52.5892 30.2133 52.3092 29.5733 51.8825 28.64C51.4558 27.7067 50.9492 26.5867 50.3625 25.28C49.8025 23.9733 49.1892 22.6133 48.5225 21.2C47.8825 19.76 47.2558 18.3867 46.6425 17.08C46.0558 15.7467 45.5225 14.5867 45.0425 13.6C44.5625 12.5867 44.2158 11.88 44.0025 11.48C43.5492 10.6267 43.1358 10.0133 42.7625 9.64C42.4158 9.24 42.1492 9.02667 41.9625 9H51.0425C50.8825 9 50.7758 9.18667 50.7225 9.56C50.6692 9.93333 50.7758 10.5733 51.0425 11.48C51.1758 11.8533 51.3892 12.4667 51.6825 13.32C52.0025 14.1733 52.3758 15.1867 52.8025 16.36C53.2292 17.5067 53.6958 18.7467 54.2025 20.08C54.7092 21.3867 55.2158 22.7067 55.7225 24.04C56.2558 25.3733 56.7492 26.6267 57.2025 27.8H57.2425C57.6958 26.6 58.1892 25.3333 58.7225 24C59.2558 22.64 59.7758 21.2933 60.2825 19.96C60.7892 18.6267 61.2692 17.3867 61.7225 16.24C62.1758 15.0667 62.5625 14.0533 62.8825 13.2C63.2025 12.3467 63.4158 11.7467 63.5225 11.4C63.8158 10.52 63.9358 9.90667 63.8825 9.56C63.8292 9.18667 63.7092 9 63.5225 9H72.3225C72.1625 9 71.9092 9.18667 71.5625 9.56C71.2425 9.90667 70.8692 10.5067 70.4425 11.36C70.2558 11.7333 69.9358 12.4133 69.4825 13.4C69.0292 14.3867 68.4958 15.5467 67.8825 16.88C67.2692 18.1867 66.6292 19.56 65.9625 21C65.3225 22.4133 64.7092 23.7867 64.1225 25.12C63.5358 26.4267 63.0158 27.5733 62.5625 28.56C62.1358 29.52 61.8425 30.1867 61.6825 30.56C61.3358 31.4133 61.1892 32.0267 61.2425 32.4C61.3225 32.7733 61.4692 32.9733 61.6825 33H52.7225ZM74.7344 33C74.921 33 75.0944 32.8267 75.2544 32.48C75.441 32.1067 75.5344 31.48 75.5344 30.6V11.4C75.5344 10.5467 75.441 9.93333 75.2544 9.56C75.0944 9.18667 74.921 9 74.7344 9H82.4544C82.2677 9 82.081 9.18667 81.8944 9.56C81.7077 9.90667 81.6144 10.5333 81.6144 11.44V30.6C81.6144 31.4533 81.7077 32.0667 81.8944 32.44C82.081 32.8133 82.2677 33 82.4544 33H74.7344ZM94.1331 33C94.3198 33 94.5065 32.8133 94.6931 32.44C94.8798 32.0667 94.9731 31.4533 94.9731 30.6V14.6C94.9731 14.0133 94.9065 13.6667 94.7731 13.56C94.6398 13.4533 94.1731 13.4 93.3731 13.4H90.4531C88.9065 13.4 87.6531 13.5733 86.6931 13.92C85.7598 14.24 85.1465 14.5467 84.8531 14.84L85.6531 10.2V9H110.453V10.2L111.253 14.84C110.96 14.5467 110.333 14.24 109.373 13.92C108.44 13.5733 107.2 13.4 105.653 13.4H102.773C101.946 13.4 101.466 13.4533 101.333 13.56C101.2 13.6667 101.133 14.0133 101.133 14.6V30.6C101.133 31.4533 101.226 32.0667 101.413 32.44C101.6 32.8133 101.786 33 101.973 33H94.1331ZM106.795 33C106.928 33 107.128 32.8133 107.395 32.44C107.688 32.0667 108.022 31.44 108.395 30.56C108.582 30.16 108.875 29.48 109.275 28.52C109.702 27.5333 110.182 26.4 110.715 25.12C111.275 23.8133 111.848 22.4533 112.435 21.04C113.048 19.6267 113.622 18.2667 114.155 16.96C114.715 15.6533 115.195 14.5067 115.595 13.52C116.022 12.5333 116.315 11.8267 116.475 11.4C116.822 10.5467 117.008 9.93333 117.035 9.56C117.062 9.18667 117.008 9 116.875 9H125.595C125.488 9 125.448 9.18667 125.475 9.56C125.502 9.90667 125.688 10.52 126.035 11.4C126.195 11.8267 126.475 12.5333 126.875 13.52C127.275 14.48 127.742 15.6133 128.275 16.92C128.808 18.2 129.368 19.5467 129.955 20.96C130.542 22.3733 131.102 23.7333 131.635 25.04C132.168 26.32 132.648 27.4533 133.075 28.44C133.502 29.4267 133.808 30.1333 133.995 30.56C134.395 31.44 134.782 32.0667 135.155 32.44C135.528 32.8133 135.808 33 135.995 33H126.915C127.128 32.9733 127.302 32.7733 127.435 32.4C127.595 32 127.595 31.3867 127.435 30.56C127.408 30.3733 127.382 30.2267 127.355 30.12C127.328 29.9867 127.275 29.8 127.195 29.56C127.088 29.16 126.968 28.88 126.835 28.72C126.702 28.5333 126.475 28.4267 126.155 28.4C125.862 28.3733 125.368 28.36 124.675 28.36H117.795C117.075 28.36 116.542 28.3867 116.195 28.44C115.848 28.4667 115.608 28.56 115.475 28.72C115.342 28.88 115.235 29.1467 115.155 29.52C115.128 29.6533 115.088 29.8267 115.035 30.04C115.008 30.2533 114.982 30.4267 114.955 30.56C114.768 31.4133 114.715 32.0267 114.795 32.4C114.902 32.7733 115.035 32.9733 115.195 33H106.795ZM118.835 23.96H123.515C124.288 23.96 124.715 23.8933 124.795 23.76C124.875 23.6267 124.835 23.3333 124.675 22.88C124.328 22.0267 123.982 21.16 123.635 20.28C123.288 19.3733 122.955 18.4933 122.635 17.64C122.342 16.7867 122.075 16 121.835 15.28C121.622 14.5333 121.435 13.9067 121.275 13.4H121.195C120.822 14.3867 120.435 15.4267 120.035 16.52C119.635 17.6133 119.262 18.6267 118.915 19.56C118.568 20.4933 118.288 21.2667 118.075 21.88C117.862 22.4667 117.755 22.76 117.755 22.76C117.568 23.1867 117.502 23.4933 117.555 23.68C117.608 23.8667 118.035 23.96 118.835 23.96ZM141.008 33C141.195 33 141.381 32.8133 141.568 32.44C141.755 32.0667 141.848 31.4533 141.848 30.6V14.6C141.848 14.0133 141.781 13.6667 141.648 13.56C141.515 13.4533 141.048 13.4 140.248 13.4H137.328C135.781 13.4 134.528 13.5733 133.568 13.92C132.635 14.24 132.021 14.5467 131.728 14.84L132.528 10.2V9H157.328V10.2L158.128 14.84C157.835 14.5467 157.208 14.24 156.248 13.92C155.315 13.5733 154.075 13.4 152.528 13.4H149.648C148.821 13.4 148.341 13.4533 148.208 13.56C148.075 13.6667 148.008 14.0133 148.008 14.6V30.6C148.008 31.4533 148.101 32.0667 148.288 32.44C148.475 32.8133 148.661 33 148.848 33H141.008ZM160.516 33C160.702 33 160.876 32.8267 161.036 32.48C161.222 32.1067 161.316 31.48 161.316 30.6V11.4C161.316 10.5467 161.222 9.93333 161.036 9.56C160.876 9.18667 160.702 9 160.516 9H168.236C168.049 9 167.862 9.18667 167.676 9.56C167.489 9.90667 167.396 10.5333 167.396 11.44V30.6C167.396 31.4533 167.489 32.0667 167.676 32.44C167.862 32.8133 168.049 33 168.236 33H160.516ZM184.834 33.4C180.248 33.4 176.928 32.3067 174.874 30.12C172.848 27.9067 171.834 24.8267 171.834 20.88C171.834 18.3467 172.274 16.1733 173.154 14.36C174.061 12.52 175.461 11.1067 177.354 10.12C179.274 9.10667 181.768 8.6 184.834 8.6H186.074C189.088 8.6 191.528 9.09333 193.394 10.08C195.288 11.0667 196.674 12.48 197.554 14.32C198.434 16.16 198.874 18.3467 198.874 20.88C198.874 24.8267 197.861 27.9067 195.834 30.12C193.808 32.3067 190.554 33.4 186.074 33.4H184.834ZM185.234 28.96H185.674C187.301 28.96 188.634 28.6933 189.674 28.16C190.741 27.6267 191.528 26.7733 192.034 25.6C192.541 24.4 192.794 22.8267 192.794 20.88C192.794 18.9867 192.528 17.4667 191.994 16.32C191.488 15.1467 190.701 14.3067 189.634 13.8C188.594 13.2667 187.274 13 185.674 13H185.234C183.581 13 182.208 13.28 181.114 13.84C180.021 14.3733 179.208 15.2133 178.674 16.36C178.168 17.5067 177.914 19.0133 177.914 20.88C177.914 22.8267 178.181 24.4 178.714 25.6C179.274 26.7733 180.088 27.6267 181.154 28.16C182.248 28.6933 183.608 28.96 185.234 28.96ZM202.469 33C202.655 33 202.842 32.8133 203.029 32.44C203.215 32.0667 203.309 31.4533 203.309 30.6V11.4C203.309 10.5467 203.215 9.94667 203.029 9.6C202.842 9.22667 202.655 9.02667 202.469 9H210.309C210.122 9 210.069 9.18667 210.149 9.56C210.255 9.93333 210.695 10.5733 211.469 11.48C211.682 11.6933 212.029 12.0933 212.509 12.68C213.015 13.24 213.615 13.92 214.309 14.72C215.002 15.52 215.735 16.3867 216.509 17.32C217.309 18.2533 218.109 19.1867 218.909 20.12C219.735 21.0533 220.522 21.9467 221.269 22.8H221.309V11.4C221.309 10.5467 221.215 9.94667 221.029 9.6C220.842 9.22667 220.655 9.02667 220.469 9H228.309C228.122 9 227.935 9.18667 227.749 9.56C227.562 9.93333 227.469 10.56 227.469 11.44V30.6C227.469 31.4533 227.562 32.0667 227.749 32.44C227.935 32.8133 228.122 33 228.309 33H221.429C221.589 33 221.602 32.8133 221.469 32.44C221.362 32.0667 220.949 31.4267 220.229 30.52C219.855 30.04 219.362 29.4267 218.749 28.68C218.135 27.9067 217.442 27.0533 216.669 26.12C215.922 25.1867 215.135 24.2133 214.309 23.2C213.482 22.1867 212.655 21.2 211.829 20.24C211.029 19.2533 210.282 18.3467 209.589 17.52H209.469V30.6C209.469 31.4533 209.562 32.0667 209.749 32.44C209.935 32.8133 210.122 33 210.309 33H202.469Z" fill="#005794"/>
<path d="M6.56 57.6V59.52H13.52V57.6H6.56ZM4.8 56.18H15.38V60.94H4.8V56.18ZM8.84 60.3L10.96 60.46C10.7733 60.98 10.5733 61.4867 10.36 61.98C10.16 62.4733 9.96667 62.8933 9.78 63.24L8.14 63C8.27333 62.6 8.40667 62.1467 8.54 61.64C8.67333 61.1333 8.77333 60.6867 8.84 60.3ZM3.28 62.38H17.1V68.7H15.22V64.04H5.08V68.72H3.28V62.38ZM4.26 66.34H16.02V68H4.26V66.34ZM1.74 53.26H18.52V57.36H16.68V54.88H3.46V57.36H1.74V53.26ZM15.38 50.26L17.36 50.9C16.96 51.46 16.5333 52.02 16.08 52.58C15.64 53.1267 15.2333 53.5933 14.86 53.98L13.32 53.38C13.56 53.1 13.8067 52.78 14.06 52.42C14.3133 52.0467 14.5533 51.6733 14.78 51.3C15.02 50.9267 15.22 50.58 15.38 50.26ZM2.88 51.1L4.5 50.4C4.86 50.7867 5.21333 51.2267 5.56 51.72C5.92 52.2 6.18 52.6267 6.34 53L4.64 53.76C4.48 53.4 4.23333 52.9667 3.9 52.46C3.56667 51.9533 3.22667 51.5 2.88 51.1ZM7.88 50.64L9.54 50.06C9.83333 50.4733 10.1333 50.9467 10.44 51.48C10.7467 52 10.9667 52.4467 11.1 52.82L9.36 53.48C9.24 53.0933 9.04 52.6333 8.76 52.1C8.48 51.5667 8.18667 51.08 7.88 50.64ZM21.8 62.42H39.46V64H21.8V62.42ZM21.88 53.56H39.4V55.14H21.88V53.56ZM22.68 57.04H38.66V58.56H22.68V57.04ZM23.68 59.78H37.7V61.18H23.68V59.78ZM29.64 57.78H31.5V68.68H29.64V57.78ZM27.84 50.1H29.62V54.3H27.84V50.1ZM31.6 50.1H33.4V54.2H31.6V50.1ZM29.16 63.08L30.68 63.78C30.0533 64.46 29.2933 65.1 28.4 65.7C27.5067 66.3 26.5467 66.8267 25.52 67.28C24.4933 67.7467 23.48 68.12 22.48 68.4C22.3867 68.2267 22.2667 68.04 22.12 67.84C21.9867 67.6533 21.84 67.4667 21.68 67.28C21.5333 67.0933 21.3867 66.9333 21.24 66.8C22.24 66.5867 23.24 66.2933 24.24 65.92C25.24 65.5467 26.1733 65.12 27.04 64.64C27.9067 64.1467 28.6133 63.6267 29.16 63.08ZM31.98 63.04C32.4067 63.4533 32.9133 63.8533 33.5 64.24C34.1 64.6267 34.7533 64.9867 35.46 65.32C36.1667 65.64 36.9 65.92 37.66 66.16C38.4333 66.4 39.2067 66.5933 39.98 66.74C39.8467 66.8733 39.6933 67.04 39.52 67.24C39.36 67.44 39.2067 67.6467 39.06 67.86C38.9267 68.0733 38.8133 68.2667 38.72 68.44C37.9333 68.2267 37.1533 67.96 36.38 67.64C35.6067 67.3333 34.86 66.9733 34.14 66.56C33.4333 66.1467 32.7667 65.7 32.14 65.22C31.5267 64.7267 30.9867 64.2 30.52 63.64L31.98 63.04ZM36.22 50.32L38.18 50.82C37.8733 51.3533 37.5533 51.8867 37.22 52.42C36.9 52.9533 36.6067 53.4133 36.34 53.8L34.8 53.32C34.9733 53.04 35.1467 52.7267 35.32 52.38C35.4933 52.02 35.66 51.66 35.82 51.3C35.98 50.94 36.1133 50.6133 36.22 50.32ZM33.56 54.56L35.54 55.04C35.2867 55.5067 35.0333 55.96 34.78 56.4C34.5267 56.8267 34.2867 57.1933 34.06 57.5L32.48 57.04C32.6667 56.68 32.86 56.2667 33.06 55.8C33.2733 55.3333 33.44 54.92 33.56 54.56ZM23.4 50.82L25.02 50.26C25.3533 50.7 25.6733 51.1933 25.98 51.74C26.2867 52.2867 26.5133 52.7667 26.66 53.18L24.94 53.8C24.82 53.4 24.6133 52.92 24.32 52.36C24.0267 51.8 23.72 51.2867 23.4 50.82ZM25.98 55.22L27.8 54.9C28.0133 55.2067 28.2133 55.5533 28.4 55.94C28.5867 56.3267 28.72 56.66 28.8 56.94L26.9 57.3C26.8333 57.02 26.7133 56.6867 26.54 56.3C26.3667 55.9 26.18 55.54 25.98 55.22ZM50.06 61.86H53.92V63.16H50.06V61.86ZM48.88 52.04H55.1V53.46H48.88V52.04ZM48.38 56.44H60.5V57.96H48.38V56.44ZM50.42 59.02H54.76V66.04H50.42V64.7H53.24V60.36H50.42V59.02ZM49.3 59.02H50.78V67.26H49.3V59.02ZM51.14 50.16H52.76V53.04H51.14V50.16ZM58.56 58.84L60.12 59.18C59.5467 61.2867 58.7267 63.14 57.66 64.74C56.6067 66.34 55.34 67.66 53.86 68.7C53.7933 68.5933 53.6933 68.46 53.56 68.3C53.4267 68.1533 53.28 68 53.12 67.84C52.9733 67.68 52.8467 67.5467 52.74 67.44C54.1933 66.56 55.4067 65.3867 56.38 63.92C57.3533 62.44 58.08 60.7467 58.56 58.84ZM49.4 53.8L50.64 53.5C50.8133 53.9267 50.9533 54.3933 51.06 54.9C51.18 55.3933 51.2533 55.8267 51.28 56.2L49.94 56.52C49.94 56.16 49.8867 55.7267 49.78 55.22C49.6733 54.7133 49.5467 54.24 49.4 53.8ZM57.24 51.56L58.5 50.9C58.9267 51.3933 59.3267 51.9467 59.7 52.56C60.0867 53.16 60.3733 53.6867 60.56 54.14L59.22 54.88C59.0467 54.4267 58.7733 53.8867 58.4 53.26C58.04 52.62 57.6533 52.0533 57.24 51.56ZM53.1 53.48L54.58 53.8C54.42 54.2667 54.26 54.7467 54.1 55.24C53.9533 55.72 53.8133 56.1267 53.68 56.46L52.48 56.18C52.5867 55.8067 52.7 55.3667 52.82 54.86C52.9533 54.34 53.0467 53.88 53.1 53.48ZM42.14 50.94H48.92V52.62H42.14V50.94ZM43.78 55.16H47.36V56.72H43.78V55.16ZM43.78 59.28H47.36V60.84H43.78V59.28ZM43.02 51.82H44.6V64.5H43.02V51.82ZM46.4 51.8H48V68.68H46.4V51.8ZM41.78 64.2C42.4867 64.0933 43.32 63.9533 44.28 63.78C45.2533 63.5933 46.2467 63.4 47.26 63.2L47.4 64.82C46.4667 65.02 45.54 65.22 44.62 65.42C43.7133 65.6067 42.8733 65.78 42.1 65.94L41.78 64.2ZM55.5 50.14H57.18C57.18 51.8867 57.2 53.5667 57.24 55.18C57.2933 56.78 57.36 58.2667 57.44 59.64C57.5333 61 57.6467 62.1933 57.78 63.22C57.9267 64.2333 58.0867 65.0267 58.26 65.6C58.4467 66.1733 58.6467 66.46 58.86 66.46C59.0067 66.46 59.1267 66.22 59.22 65.74C59.3267 65.2467 59.4067 64.56 59.46 63.68C59.5533 63.8 59.68 63.9333 59.84 64.08C60 64.2133 60.16 64.34 60.32 64.46C60.4933 64.5667 60.62 64.6467 60.7 64.7C60.5667 65.7533 60.3867 66.5667 60.16 67.14C59.9467 67.7133 59.72 68.1067 59.48 68.32C59.2533 68.5467 59.0267 68.66 58.8 68.66C58.2667 68.6467 57.8133 68.34 57.44 67.74C57.0667 67.14 56.7533 66.2933 56.5 65.2C56.26 64.0933 56.0733 62.7733 55.94 61.24C55.8067 59.7067 55.7067 58.0067 55.64 56.14C55.5733 54.26 55.5267 52.26 55.5 50.14ZM67.1 68.22C66.6867 67.7133 66.2267 67.1933 65.72 66.66C65.2267 66.1267 64.72 65.6133 64.2 65.12C63.6933 64.6267 63.2067 64.1867 62.74 63.8L64.38 62.36C64.86 62.7467 65.3667 63.2 65.9 63.72C66.4333 64.2267 66.9533 64.7533 67.46 65.3C67.98 65.8333 68.4267 66.3267 68.8 66.78L67.1 68.22ZM94.6 53.54L96.52 54C96.28 54.5733 96.02 55.1667 95.74 55.78C95.4733 56.3933 95.2067 56.9867 94.94 57.56C94.6733 58.12 94.42 58.6133 94.18 59.04L92.76 58.58C92.9867 58.1267 93.2133 57.6067 93.44 57.02C93.68 56.4333 93.9 55.8333 94.1 55.22C94.3133 54.6067 94.48 54.0467 94.6 53.54ZM96.88 56.16L98.32 55.44C98.68 55.88 99.04 56.36 99.4 56.88C99.7733 57.3867 100.113 57.8933 100.42 58.4C100.727 58.8933 100.967 59.3333 101.14 59.72L99.6 60.58C99.4533 60.18 99.2333 59.7267 98.94 59.22C98.6467 58.7133 98.32 58.1933 97.96 57.66C97.6 57.1133 97.24 56.6133 96.88 56.16ZM98.12 63.3L99.56 62.58C99.9333 63.0467 100.28 63.5533 100.6 64.1C100.92 64.6333 101.193 65.1667 101.42 65.7C101.66 66.22 101.827 66.7 101.92 67.14L100.36 67.94C100.267 67.5133 100.107 67.0333 99.88 66.5C99.6667 65.9533 99.4067 65.4 99.1 64.84C98.7933 64.28 98.4667 63.7667 98.12 63.3ZM91.04 57.98C91.7467 57.9533 92.5533 57.92 93.46 57.88C94.3667 57.8267 95.3333 57.7733 96.36 57.72C97.3867 57.6533 98.4267 57.5933 99.48 57.54L99.44 59.04C98.0133 59.1733 96.5867 59.3 95.16 59.42C93.7467 59.5267 92.4867 59.62 91.38 59.7L91.04 57.98ZM93.18 50.38L94.96 50.82C94.5867 51.8333 94.1 52.7933 93.5 53.7C92.9133 54.6067 92.28 55.3733 91.6 56C91.4933 55.88 91.3467 55.7533 91.16 55.62C90.9867 55.4733 90.8067 55.3333 90.62 55.2C90.4333 55.0533 90.26 54.94 90.1 54.86C90.7667 54.3267 91.3667 53.6667 91.9 52.88C92.4467 52.0933 92.8733 51.26 93.18 50.38ZM98.36 50.34C98.64 50.82 98.98 51.3133 99.38 51.82C99.78 52.3133 100.2 52.78 100.64 53.22C101.093 53.66 101.527 54.0267 101.94 54.32C101.807 54.4267 101.653 54.56 101.48 54.72C101.32 54.88 101.16 55.0467 101 55.22C100.853 55.3933 100.727 55.5533 100.62 55.7C100.193 55.34 99.7467 54.9 99.28 54.38C98.8133 53.8467 98.36 53.2867 97.92 52.7C97.4933 52.1133 97.1267 51.5467 96.82 51L98.36 50.34ZM93.56 60.76L94.74 59.74C95.18 59.9267 95.6133 60.16 96.04 60.44C96.48 60.72 96.88 61.0133 97.24 61.32C97.6133 61.6133 97.9133 61.9 98.14 62.18L96.9 63.34C96.6733 63.0467 96.38 62.74 96.02 62.42C95.66 62.1 95.2667 61.7933 94.84 61.5C94.4133 61.2067 93.9867 60.96 93.56 60.76ZM93.46 62.42H95.18V66.5C95.18 66.7533 95.2133 66.9133 95.28 66.98C95.3467 67.0333 95.4867 67.06 95.7 67.06C95.74 67.06 95.82 67.06 95.94 67.06C96.06 67.06 96.1933 67.06 96.34 67.06C96.5 67.06 96.64 67.06 96.76 67.06C96.8933 67.06 96.9867 67.06 97.04 67.06C97.1867 67.06 97.2933 67.0133 97.36 66.92C97.4267 66.8267 97.48 66.64 97.52 66.36C97.56 66.0667 97.5867 65.6267 97.6 65.04C97.7067 65.1333 97.8533 65.2267 98.04 65.32C98.2267 65.4 98.4133 65.4733 98.6 65.54C98.8 65.6067 98.98 65.6667 99.14 65.72C99.0867 66.5067 98.9867 67.1133 98.84 67.54C98.7067 67.9667 98.5133 68.26 98.26 68.42C98.0067 68.5933 97.6733 68.68 97.26 68.68C97.18 68.68 97.0533 68.68 96.88 68.68C96.7067 68.68 96.52 68.68 96.32 68.68C96.1333 68.68 95.9533 68.68 95.78 68.68C95.62 68.68 95.5 68.68 95.42 68.68C94.8867 68.68 94.4733 68.6133 94.18 68.48C93.9 68.3467 93.7067 68.12 93.6 67.8C93.5067 67.4933 93.46 67.06 93.46 66.5V62.42ZM91.44 62.92L92.96 63.18C92.84 63.98 92.6467 64.8133 92.38 65.68C92.1267 66.5333 91.7933 67.2533 91.38 67.84L89.9 67.18C90.2733 66.6733 90.5933 66.0267 90.86 65.24C91.1267 64.4533 91.32 63.68 91.44 62.92ZM86.2 50.1L87.84 50.74C87.5867 51.2333 87.3133 51.7533 87.02 52.3C86.74 52.8333 86.4533 53.3467 86.16 53.84C85.88 54.3333 85.6133 54.7667 85.36 55.14L84.1 54.58C84.34 54.18 84.5933 53.72 84.86 53.2C85.1267 52.68 85.38 52.1467 85.62 51.6C85.86 51.0533 86.0533 50.5533 86.2 50.1ZM88.44 52.46L89.98 53.18C89.5133 53.9133 88.9933 54.7 88.42 55.54C87.86 56.3667 87.2933 57.1667 86.72 57.94C86.1467 58.7 85.6067 59.3667 85.1 59.94L84 59.32C84.3733 58.8667 84.76 58.36 85.16 57.8C85.5733 57.2267 85.98 56.6333 86.38 56.02C86.78 55.3933 87.1533 54.7733 87.5 54.16C87.86 53.5467 88.1733 52.98 88.44 52.46ZM83.06 54.5L84.02 53.24C84.3667 53.56 84.72 53.9133 85.08 54.3C85.44 54.6867 85.7733 55.0667 86.08 55.44C86.3867 55.8 86.6267 56.14 86.8 56.46L85.76 57.9C85.6 57.5667 85.3733 57.2 85.08 56.8C84.7867 56.4 84.46 56 84.1 55.6C83.7533 55.2 83.4067 54.8333 83.06 54.5ZM87.72 57.12L89.08 56.54C89.36 56.9667 89.64 57.4333 89.92 57.94C90.2 58.4467 90.4467 58.94 90.66 59.42C90.8733 59.9 91.0333 60.3333 91.14 60.72L89.7 61.38C89.6067 60.9933 89.4533 60.56 89.24 60.08C89.04 59.5867 88.8067 59.08 88.54 58.56C88.2733 58.04 88 57.56 87.72 57.12ZM82.94 58.96C83.82 58.92 84.8667 58.86 86.08 58.78C87.3067 58.6867 88.56 58.6 89.84 58.52L89.86 60C88.6867 60.12 87.52 60.2333 86.36 60.34C85.2 60.4333 84.1533 60.5267 83.22 60.62L82.94 58.96ZM88.26 62.06L89.64 61.64C89.8933 62.2133 90.1333 62.8467 90.36 63.54C90.5867 64.22 90.7533 64.8133 90.86 65.32L89.4 65.82C89.3067 65.3 89.1533 64.6933 88.94 64C88.7267 63.2933 88.5 62.6467 88.26 62.06ZM83.96 61.66L85.52 61.94C85.4 62.8867 85.2267 63.82 85 64.74C84.7867 65.66 84.5267 66.44 84.22 67.08C84.1133 67 83.9733 66.92 83.8 66.84C83.6267 66.76 83.4467 66.68 83.26 66.6C83.0867 66.5067 82.94 66.44 82.82 66.4C83.1267 65.7867 83.3667 65.06 83.54 64.22C83.7267 63.38 83.8667 62.5267 83.96 61.66ZM86.2 59.72H87.84V68.66H86.2V59.72ZM104.12 51.08H110.82V52.68H104.12V51.08ZM111.96 61.32H120.4V62.92H111.96V61.32ZM103.86 57.14H111.36V58.82H103.86V57.14ZM107.28 57.82H109.06V66.58C109.06 67.02 109.007 67.3733 108.9 67.64C108.807 67.92 108.607 68.14 108.3 68.3C108.02 68.4333 107.66 68.5133 107.22 68.54C106.793 68.58 106.273 68.6 105.66 68.6C105.62 68.3467 105.547 68.0467 105.44 67.7C105.333 67.3667 105.22 67.0733 105.1 66.82C105.513 66.8333 105.893 66.8467 106.24 66.86C106.587 66.86 106.827 66.8533 106.96 66.84C107.08 66.8267 107.16 66.8067 107.2 66.78C107.253 66.74 107.28 66.66 107.28 66.54V57.82ZM119.78 61.32H121.7C121.7 61.32 121.693 61.42 121.68 61.62C121.667 61.8067 121.653 61.9667 121.64 62.1C121.52 63.3 121.393 64.2933 121.26 65.08C121.14 65.8533 121.007 66.46 120.86 66.9C120.713 67.34 120.54 67.6667 120.34 67.88C120.14 68.08 119.933 68.22 119.72 68.3C119.507 68.38 119.26 68.44 118.98 68.48C118.74 68.5067 118.42 68.52 118.02 68.52C117.633 68.52 117.207 68.5133 116.74 68.5C116.727 68.2333 116.673 67.9333 116.58 67.6C116.487 67.2667 116.373 66.98 116.24 66.74C116.64 66.78 117.007 66.8067 117.34 66.82C117.687 66.8333 117.94 66.84 118.1 66.84C118.26 66.84 118.387 66.8267 118.48 66.8C118.587 66.7733 118.687 66.7133 118.78 66.62C118.913 66.4867 119.04 66.24 119.16 65.88C119.28 65.5067 119.387 64.9733 119.48 64.28C119.587 63.5867 119.687 62.6933 119.78 61.6V61.32ZM115.42 59.42H117.32C117.227 60.4467 117.08 61.42 116.88 62.34C116.68 63.26 116.373 64.12 115.96 64.92C115.547 65.7067 114.973 66.42 114.24 67.06C113.52 67.7 112.58 68.2467 111.42 68.7C111.313 68.4733 111.153 68.2133 110.94 67.92C110.727 67.6267 110.52 67.3933 110.32 67.22C111.36 66.8467 112.193 66.3867 112.82 65.84C113.46 65.2933 113.953 64.6867 114.3 64.02C114.66 63.3533 114.92 62.6333 115.08 61.86C115.24 61.0867 115.353 60.2733 115.42 59.42ZM104.72 54.78L105.9 53.56C106.46 53.7733 107.04 54.0333 107.64 54.34C108.253 54.6333 108.833 54.9467 109.38 55.28C109.94 55.6 110.4 55.9067 110.76 56.2L109.5 57.56C109.167 57.2667 108.727 56.9533 108.18 56.62C107.647 56.2733 107.073 55.94 106.46 55.62C105.86 55.2867 105.28 55.0067 104.72 54.78ZM110.88 57.14H111.14L111.4 57.06L112.56 57.44C112.373 58.32 112.14 59.22 111.86 60.14C111.593 61.0467 111.313 61.8267 111.02 62.48L109.72 61.84C109.947 61.28 110.167 60.5933 110.38 59.78C110.593 58.9533 110.76 58.1733 110.88 57.44V57.14ZM118.88 52.96L120.86 53.26C120.407 54.4867 119.78 55.5333 118.98 56.4C118.193 57.2667 117.267 57.9933 116.2 58.58C115.133 59.1667 113.953 59.6533 112.66 60.04C112.593 59.9067 112.487 59.74 112.34 59.54C112.207 59.34 112.06 59.1467 111.9 58.96C111.753 58.76 111.613 58.6 111.48 58.48C112.72 58.1867 113.833 57.8067 114.82 57.34C115.82 56.86 116.667 56.26 117.36 55.54C118.053 54.8067 118.56 53.9467 118.88 52.96ZM114.74 50.1L116.52 50.6C116.2 51.3067 115.82 51.9933 115.38 52.66C114.94 53.3267 114.467 53.9533 113.96 54.54C113.467 55.1133 112.967 55.62 112.46 56.06C112.34 55.9533 112.187 55.8333 112 55.7C111.813 55.5533 111.62 55.42 111.42 55.3C111.233 55.1667 111.06 55.06 110.9 54.98C111.687 54.3933 112.42 53.6733 113.1 52.82C113.793 51.9533 114.34 51.0467 114.74 50.1ZM114.66 53.42C115.127 54.2467 115.747 55 116.52 55.68C117.293 56.3467 118.187 56.92 119.2 57.4C120.227 57.88 121.327 58.2467 122.5 58.5C122.367 58.62 122.22 58.7733 122.06 58.96C121.913 59.1467 121.773 59.34 121.64 59.54C121.507 59.74 121.393 59.9267 121.3 60.1C120.073 59.78 118.94 59.3333 117.9 58.76C116.86 58.1733 115.933 57.4733 115.12 56.66C114.307 55.8467 113.627 54.94 113.08 53.94L114.66 53.42ZM107.06 57.7L108.32 58.18C108.067 59.06 107.747 59.9667 107.36 60.9C106.973 61.82 106.54 62.68 106.06 63.48C105.593 64.2667 105.08 64.92 104.52 65.44C104.44 65.1733 104.307 64.8733 104.12 64.54C103.933 64.1933 103.76 63.8933 103.6 63.64C104.093 63.2 104.56 62.66 105 62.02C105.44 61.3667 105.84 60.6667 106.2 59.92C106.56 59.1733 106.847 58.4333 107.06 57.7ZM114.46 52.18H122.04V53.78H113.7L114.46 52.18ZM110.36 51.08H110.78L111.08 51L112.28 51.76C111.987 52.2267 111.627 52.7067 111.2 53.2C110.773 53.6933 110.32 54.1533 109.84 54.58C109.36 55.0067 108.88 55.38 108.4 55.7C108.24 55.5533 108.033 55.3933 107.78 55.22C107.54 55.0467 107.327 54.9 107.14 54.78C107.567 54.4867 107.987 54.1467 108.4 53.76C108.813 53.3733 109.193 52.9733 109.54 52.56C109.887 52.1467 110.16 51.7667 110.36 51.42V51.08ZM131.98 51.1H140.72V52.74H131.98V51.1ZM132.74 61.86H142.04V63.54H132.74V61.86ZM131.48 66.42H142.9V68.1H131.48V66.42ZM140.18 51.1H140.54L140.88 51.02L142.16 51.58C141.627 53.1267 140.88 54.4667 139.92 55.6C138.96 56.72 137.847 57.66 136.58 58.42C135.327 59.18 133.973 59.7867 132.52 60.24C132.4 60.0133 132.233 59.7467 132.02 59.44C131.82 59.12 131.633 58.8667 131.46 58.68C132.78 58.32 134.02 57.8067 135.18 57.14C136.353 56.4733 137.373 55.66 138.24 54.7C139.107 53.74 139.753 52.6467 140.18 51.42V51.1ZM134.8 52.56C135.507 54.0667 136.58 55.3467 138.02 56.4C139.473 57.4533 141.187 58.1933 143.16 58.62C142.973 58.8067 142.76 59.0533 142.52 59.36C142.293 59.6667 142.12 59.94 142 60.18C139.947 59.62 138.167 58.7467 136.66 57.56C135.167 56.36 133.993 54.8733 133.14 53.1L134.8 52.56ZM136.38 59.2H138.24V67.5H136.38V59.2ZM127.38 50.12L129.02 50.76C128.767 51.2533 128.493 51.7733 128.2 52.32C127.92 52.8533 127.633 53.3667 127.34 53.86C127.06 54.34 126.793 54.7667 126.54 55.14L125.26 54.58C125.513 54.18 125.767 53.72 126.02 53.2C126.287 52.68 126.54 52.1533 126.78 51.62C127.02 51.0733 127.22 50.5733 127.38 50.12ZM129.64 52.44L131.2 53.16C130.747 53.92 130.24 54.72 129.68 55.56C129.12 56.4 128.553 57.2133 127.98 58C127.42 58.7733 126.887 59.4533 126.38 60.04L125.24 59.42C125.613 58.9667 126 58.4533 126.4 57.88C126.813 57.2933 127.213 56.6867 127.6 56.06C128 55.4333 128.373 54.8067 128.72 54.18C129.067 53.5533 129.373 52.9733 129.64 52.44ZM124.26 54.56L125.18 53.3C125.553 53.6067 125.927 53.9467 126.3 54.32C126.673 54.68 127.013 55.0467 127.32 55.42C127.64 55.78 127.887 56.1133 128.06 56.42L127.06 57.86C126.887 57.5533 126.647 57.2067 126.34 56.82C126.033 56.42 125.7 56.0267 125.34 55.64C124.98 55.24 124.62 54.88 124.26 54.56ZM128.98 57.14L130.28 56.62C130.547 57.06 130.8 57.5333 131.04 58.04C131.293 58.5467 131.513 59.04 131.7 59.52C131.887 59.9867 132.027 60.4133 132.12 60.8L130.74 61.42C130.66 61.0333 130.527 60.5933 130.34 60.1C130.167 59.6067 129.96 59.1 129.72 58.58C129.493 58.06 129.247 57.58 128.98 57.14ZM124.2 59.02C125.093 58.9933 126.153 58.9533 127.38 58.9C128.62 58.8467 129.88 58.7867 131.16 58.72L131.14 60.26C129.927 60.34 128.727 60.42 127.54 60.5C126.367 60.5667 125.307 60.6333 124.36 60.7L124.2 59.02ZM129.46 61.98L130.82 61.54C131.087 62.1133 131.333 62.74 131.56 63.42C131.8 64.1 131.98 64.6867 132.1 65.18L130.66 65.7C130.567 65.1933 130.407 64.5933 130.18 63.9C129.953 63.1933 129.713 62.5533 129.46 61.98ZM125.22 61.7L126.82 61.98C126.7 62.9267 126.52 63.86 126.28 64.78C126.053 65.7 125.787 66.48 125.48 67.12C125.373 67.0533 125.233 66.9733 125.06 66.88C124.887 66.7867 124.7 66.7 124.5 66.62C124.313 66.5267 124.153 66.46 124.02 66.42C124.34 65.8067 124.593 65.08 124.78 64.24C124.98 63.4 125.127 62.5533 125.22 61.7ZM127.42 59.8H129.08V68.72H127.42V59.8ZM154.04 56.32V58.52H160.88V56.32H154.04ZM154.04 52.62V54.8H160.88V52.62H154.04ZM152.32 51H162.68V60.14H152.32V51ZM152.14 62.2H162.94V63.92H152.14V62.2ZM150.66 66.32H163.6V68.04H150.66V66.32ZM145.02 51.38H151.44V53.14H145.02V51.38ZM145.22 57.16H151.14V58.9H145.22V57.16ZM144.8 64.78C145.36 64.6333 145.993 64.4533 146.7 64.24C147.407 64.0267 148.153 63.7933 148.94 63.54C149.727 63.2867 150.513 63.0333 151.3 62.78L151.62 64.58C150.527 64.9533 149.42 65.3267 148.3 65.7C147.18 66.0733 146.167 66.4133 145.26 66.72L144.8 64.78ZM147.4 52.08H149.2V64.42L147.4 64.74V52.08ZM156.68 51.74H158.3V59.36H158.44V67.1H156.52V59.36H156.68V51.74ZM173.88 51.14C173.813 51.4467 173.753 51.7267 173.7 51.98C173.66 52.2333 173.62 52.48 173.58 52.72C173.54 53.0533 173.48 53.4933 173.4 54.04C173.333 54.5733 173.253 55.1733 173.16 55.84C173.067 56.5067 172.98 57.1933 172.9 57.9C172.82 58.6067 172.74 59.3 172.66 59.98C172.58 60.6467 172.52 61.26 172.48 61.82C172.44 62.3667 172.42 62.8133 172.42 63.16C172.42 64.0667 172.68 64.7733 173.2 65.28C173.733 65.7867 174.54 66.04 175.62 66.04C176.593 66.04 177.427 65.9067 178.12 65.64C178.827 65.3733 179.367 65 179.74 64.52C180.113 64.04 180.3 63.4867 180.3 62.86C180.3 62.18 180.12 61.5 179.76 60.82C179.413 60.14 178.887 59.4867 178.18 58.86L180.4 58.4C181.067 59.1867 181.567 59.9533 181.9 60.7C182.233 61.4333 182.4 62.2333 182.4 63.1C182.4 64.0867 182.113 64.9533 181.54 65.7C180.98 66.4467 180.193 67.0267 179.18 67.44C178.167 67.8533 176.967 68.06 175.58 68.06C174.607 68.06 173.733 67.9067 172.96 67.6C172.187 67.2933 171.573 66.8067 171.12 66.14C170.68 65.4733 170.46 64.5867 170.46 63.48C170.46 63.0667 170.493 62.5133 170.56 61.82C170.627 61.1267 170.707 60.3667 170.8 59.54C170.907 58.7133 171.013 57.8733 171.12 57.02C171.24 56.1533 171.34 55.34 171.42 54.58C171.513 53.8067 171.58 53.1467 171.62 52.6C171.66 52.2 171.68 51.8867 171.68 51.66C171.68 51.4333 171.667 51.22 171.64 51.02L173.88 51.14ZM167.16 53.72C167.733 53.9067 168.367 54.06 169.06 54.18C169.753 54.3 170.46 54.3933 171.18 54.46C171.9 54.5133 172.573 54.54 173.2 54.54C173.973 54.54 174.7 54.52 175.38 54.48C176.06 54.4267 176.673 54.36 177.22 54.28L177.16 56.16C176.533 56.2133 175.913 56.26 175.3 56.3C174.687 56.34 173.967 56.36 173.14 56.36C172.527 56.36 171.86 56.3267 171.14 56.26C170.433 56.1933 169.727 56.1 169.02 55.98C168.313 55.8467 167.66 55.7067 167.06 55.56L167.16 53.72ZM166.7 58.7C167.38 58.9267 168.08 59.1067 168.8 59.24C169.52 59.3733 170.233 59.4667 170.94 59.52C171.66 59.56 172.34 59.58 172.98 59.58C173.633 59.58 174.307 59.56 175 59.52C175.707 59.48 176.4 59.42 177.08 59.34L177.02 61.22C176.407 61.2867 175.793 61.34 175.18 61.38C174.567 61.4067 173.933 61.42 173.28 61.42C172.08 61.42 170.893 61.3533 169.72 61.22C168.547 61.0733 167.507 60.8733 166.6 60.62L166.7 58.7ZM189.26 51.86H191.1V68.66H189.26V51.86ZM186.34 55.64H193.24V57.4H186.34V55.64ZM189.42 56.44L190.56 56.92C190.36 57.64 190.12 58.3867 189.84 59.16C189.56 59.92 189.253 60.6733 188.92 61.42C188.6 62.1667 188.253 62.8667 187.88 63.52C187.507 64.1733 187.133 64.7333 186.76 65.2C186.653 64.9333 186.507 64.6333 186.32 64.3C186.147 63.9533 185.987 63.6667 185.84 63.44C186.187 63.04 186.533 62.5667 186.88 62.02C187.24 61.46 187.58 60.8667 187.9 60.24C188.22 59.6 188.507 58.9533 188.76 58.3C189.027 57.6467 189.247 57.0267 189.42 56.44ZM192.28 50.36L193.56 51.82C192.947 52.06 192.247 52.28 191.46 52.48C190.687 52.6667 189.893 52.8333 189.08 52.98C188.267 53.1133 187.48 53.2267 186.72 53.32C186.68 53.1067 186.607 52.86 186.5 52.58C186.393 52.3 186.287 52.06 186.18 51.86C186.9 51.74 187.633 51.6067 188.38 51.46C189.14 51.3133 189.86 51.1467 190.54 50.96C191.22 50.7733 191.8 50.5733 192.28 50.36ZM190.94 58.26C191.073 58.3667 191.267 58.5467 191.52 58.8C191.773 59.0533 192.047 59.3267 192.34 59.62C192.633 59.9133 192.9 60.1933 193.14 60.46C193.393 60.7133 193.567 60.9 193.66 61.02L192.56 62.5C192.44 62.2867 192.273 62.0267 192.06 61.72C191.86 61.4 191.633 61.0667 191.38 60.72C191.127 60.3733 190.887 60.0467 190.66 59.74C190.447 59.4333 190.26 59.1867 190.1 59L190.94 58.26ZM197.88 50.12H199.76V56.34H197.88V50.12ZM193.76 51.14H204.16V52.36H193.76V51.14ZM194.18 53.22H203.68V54.4H194.18V53.22ZM193.14 55.28H204.62V56.54H193.14V55.28ZM196.16 60.86V61.96H201.76V60.86H196.16ZM196.16 63.12V64.24H201.76V63.12H196.16ZM196.16 58.62V59.7H201.76V58.62H196.16ZM194.44 57.4H203.56V65.46H194.44V57.4ZM199.74 66.36L201.02 65.44C201.473 65.6933 201.933 65.96 202.4 66.24C202.867 66.52 203.313 66.7933 203.74 67.06C204.18 67.34 204.553 67.5867 204.86 67.8L203.2 68.7C202.933 68.5 202.607 68.2667 202.22 68C201.847 67.7333 201.447 67.4533 201.02 67.16C200.593 66.88 200.167 66.6133 199.74 66.36ZM196.68 65.36L198.22 66.34C197.82 66.6467 197.347 66.9533 196.8 67.26C196.267 67.58 195.7 67.8667 195.1 68.12C194.513 68.3867 193.947 68.6067 193.4 68.78C193.267 68.5933 193.08 68.38 192.84 68.14C192.613 67.9133 192.407 67.72 192.22 67.56C192.767 67.4 193.32 67.2 193.88 66.96C194.453 66.72 194.987 66.46 195.48 66.18C195.973 65.9 196.373 65.6267 196.68 65.36ZM212.64 66.4H225.32V68H212.64V66.4ZM212.98 50.88H224.92V52.48H212.98V50.88ZM220.52 55.08H223.84V56.54H220.52V55.08ZM213.86 56.78H217.22V62.86H213.86V61.54H215.9V58.1H213.86V56.78ZM213.24 56.78H214.54V64.2H213.24V56.78ZM216.72 54.32H219.02V55.76H216.28L216.72 54.32ZM218.44 54.32H220.02C220.02 54.32 220.02 54.3667 220.02 54.46C220.02 54.5533 220.02 54.66 220.02 54.78C220.02 54.9 220.02 54.9933 220.02 55.06C219.993 56.8333 219.967 58.3267 219.94 59.54C219.927 60.74 219.893 61.72 219.84 62.48C219.8 63.24 219.74 63.8267 219.66 64.24C219.593 64.6533 219.5 64.9467 219.38 65.12C219.22 65.36 219.047 65.5333 218.86 65.64C218.673 65.7333 218.447 65.7933 218.18 65.82C217.953 65.86 217.667 65.8867 217.32 65.9C216.973 65.9 216.613 65.8867 216.24 65.86C216.227 65.6467 216.18 65.4 216.1 65.12C216.033 64.84 215.947 64.6 215.84 64.4C216.187 64.4267 216.5 64.4467 216.78 64.46C217.06 64.46 217.273 64.46 217.42 64.46C217.553 64.4733 217.66 64.46 217.74 64.42C217.833 64.38 217.913 64.3 217.98 64.18C218.047 64.06 218.107 63.8133 218.16 63.44C218.213 63.0533 218.253 62.5 218.28 61.78C218.32 61.0467 218.347 60.1 218.36 58.94C218.387 57.7667 218.413 56.34 218.44 54.66V54.32ZM221.44 56.94C221.653 57.9533 221.947 58.92 222.32 59.84C222.693 60.76 223.147 61.58 223.68 62.3C224.213 63.0067 224.833 63.5733 225.54 64C225.353 64.1467 225.153 64.3467 224.94 64.6C224.74 64.8533 224.573 65.08 224.44 65.28C223.707 64.7733 223.067 64.1133 222.52 63.3C221.973 62.4733 221.507 61.5467 221.12 60.52C220.747 59.48 220.447 58.38 220.22 57.22L221.44 56.94ZM223.38 55.08H223.66L223.94 55.04L224.86 55.26C224.633 57.7 224.167 59.7467 223.46 61.4C222.753 63.0533 221.827 64.3267 220.68 65.22C220.573 65.0467 220.427 64.8467 220.24 64.62C220.053 64.38 219.873 64.2 219.7 64.08C220.353 63.6 220.927 62.9333 221.42 62.08C221.927 61.2267 222.347 60.2333 222.68 59.1C223.013 57.9667 223.247 56.72 223.38 55.36V55.08ZM216.46 51.54H218.24C218.12 52.06 217.98 52.6067 217.82 53.18C217.66 53.7533 217.5 54.3067 217.34 54.84C217.193 55.36 217.053 55.82 216.92 56.22L215.22 56C215.367 55.5867 215.513 55.1267 215.66 54.62C215.82 54.1133 215.967 53.5933 216.1 53.06C216.233 52.5267 216.353 52.02 216.46 51.54ZM206.96 54.38H213.06V56.12H206.96V54.38ZM209.34 50.12H211.04V68.66H209.34V50.12ZM209.28 55.5L210.34 55.84C210.207 56.6267 210.04 57.4467 209.84 58.3C209.64 59.1533 209.413 59.9933 209.16 60.82C208.907 61.6333 208.627 62.3933 208.32 63.1C208.027 63.8067 207.72 64.4133 207.4 64.92C207.307 64.68 207.167 64.4067 206.98 64.1C206.807 63.7933 206.653 63.5333 206.52 63.32C206.827 62.88 207.12 62.36 207.4 61.76C207.68 61.1467 207.94 60.4867 208.18 59.78C208.42 59.0733 208.633 58.3533 208.82 57.62C209.02 56.8867 209.173 56.18 209.28 55.5ZM210.94 57.28C211.047 57.4133 211.207 57.6533 211.42 58C211.633 58.3333 211.867 58.7 212.12 59.1C212.373 59.5 212.6 59.8733 212.8 60.22C213.013 60.5667 213.167 60.8133 213.26 60.96L212.32 62.3C212.227 62.02 212.08 61.68 211.88 61.28C211.693 60.88 211.493 60.4733 211.28 60.06C211.067 59.6333 210.86 59.2333 210.66 58.86C210.473 58.4867 210.32 58.2 210.2 58L210.94 57.28ZM230.64 63.68H241.16V65.06H230.64V63.68ZM227.68 60.56H245.54V62.06H227.68V60.56ZM233.78 59.16L235.64 59.44C235.027 60.6933 234.127 61.8333 232.94 62.86C231.753 63.8733 230.187 64.7267 228.24 65.42C228.173 65.2733 228.08 65.1133 227.96 64.94C227.84 64.7667 227.707 64.6 227.56 64.44C227.413 64.28 227.28 64.1533 227.16 64.06C228.373 63.6867 229.42 63.2467 230.3 62.74C231.18 62.22 231.907 61.6533 232.48 61.04C233.053 60.4267 233.487 59.8 233.78 59.16ZM240.46 61.02C240.847 61.4733 241.34 61.9 241.94 62.3C242.553 62.7 243.22 63.06 243.94 63.38C244.673 63.6867 245.407 63.9333 246.14 64.12C246.007 64.24 245.86 64.3933 245.7 64.58C245.553 64.7533 245.407 64.9333 245.26 65.12C245.127 65.3067 245.013 65.4733 244.92 65.62C244.16 65.3667 243.407 65.04 242.66 64.64C241.927 64.2267 241.24 63.76 240.6 63.24C239.973 62.72 239.44 62.1667 239 61.58L240.46 61.02ZM240.48 63.68H242.3C242.3 63.68 242.293 63.7667 242.28 63.94C242.28 64.1 242.267 64.24 242.24 64.36C242.133 65.48 242.013 66.32 241.88 66.88C241.747 67.44 241.567 67.8333 241.34 68.06C241.167 68.2333 240.973 68.3533 240.76 68.42C240.547 68.4867 240.3 68.5333 240.02 68.56C239.767 68.5733 239.427 68.58 239 68.58C238.573 68.58 238.113 68.5733 237.62 68.56C237.607 68.32 237.553 68.06 237.46 67.78C237.38 67.5 237.28 67.2533 237.16 67.04C237.6 67.0933 238.007 67.12 238.38 67.12C238.767 67.1333 239.047 67.14 239.22 67.14C239.513 67.14 239.727 67.0867 239.86 66.98C240.007 66.8467 240.127 66.5467 240.22 66.08C240.313 65.6133 240.4 64.8867 240.48 63.9V63.68ZM235.22 62.4H237.04C236.933 63.24 236.753 64 236.5 64.68C236.247 65.3467 235.867 65.9467 235.36 66.48C234.867 67 234.207 67.4467 233.38 67.82C232.553 68.2067 231.507 68.5267 230.24 68.78C230.16 68.5533 230.027 68.2933 229.84 68C229.653 67.72 229.473 67.4933 229.3 67.32C230.46 67.1333 231.4 66.8933 232.12 66.6C232.853 66.3067 233.427 65.96 233.84 65.56C234.267 65.16 234.58 64.7 234.78 64.18C234.98 63.6467 235.127 63.0533 235.22 62.4ZM227.94 51.34H245.26V52.86H227.94V51.34ZM232.32 50.12H234.16V53.74H232.32V50.12ZM238.98 50.12H240.84V53.74H238.98V50.12ZM231.76 57.36V58.44H241.48V57.36H231.76ZM231.76 55.2V56.24H241.48V55.2H231.76ZM229.94 54.04H243.38V59.6H229.94V54.04ZM248.22 62.38H266.18V63.92H248.22V62.38ZM251.8 55.02H264.06V56.3H251.8V55.02ZM251.8 57.42H264.1V58.72H251.8V57.42ZM251.46 52.4H264.96V53.9H251.46V52.4ZM256.68 53.32H258.5V60.42H256.68V53.32ZM256.22 60.92H258.1V68.66H256.22V60.92ZM255.94 62.98L257.38 63.7C256.887 64.22 256.307 64.72 255.64 65.2C254.973 65.68 254.26 66.1333 253.5 66.56C252.74 66.9733 251.967 67.34 251.18 67.66C250.393 67.9933 249.627 68.2733 248.88 68.5C248.747 68.2733 248.56 68 248.32 67.68C248.08 67.3733 247.86 67.1267 247.66 66.94C248.407 66.7533 249.173 66.5267 249.96 66.26C250.747 65.98 251.507 65.6667 252.24 65.32C252.987 64.9733 253.68 64.6 254.32 64.2C254.96 63.8 255.5 63.3933 255.94 62.98ZM258.42 62.96C258.86 63.3733 259.387 63.78 260 64.18C260.627 64.5667 261.307 64.9267 262.04 65.26C262.787 65.5933 263.547 65.8933 264.32 66.16C265.107 66.4267 265.873 66.6533 266.62 66.84C266.487 66.96 266.347 67.1067 266.2 67.28C266.053 67.4667 265.907 67.6533 265.76 67.84C265.627 68.04 265.52 68.22 265.44 68.38C264.68 68.1533 263.907 67.88 263.12 67.56C262.333 67.24 261.567 66.88 260.82 66.48C260.073 66.0667 259.367 65.6267 258.7 65.16C258.033 64.68 257.453 64.1933 256.96 63.7L258.42 62.96ZM257.62 50.12L259.76 50.38C259.467 50.94 259.16 51.4867 258.84 52.02C258.52 52.5533 258.227 53.0067 257.96 53.38L256.3 53.06C256.54 52.6467 256.787 52.16 257.04 51.6C257.293 51.04 257.487 50.5467 257.62 50.12ZM252.46 50.08L254.42 50.46C253.993 51.2067 253.52 51.9667 253 52.74C252.48 53.5 251.887 54.2467 251.22 54.98C250.567 55.7133 249.84 56.4133 249.04 57.08C248.933 56.9333 248.8 56.78 248.64 56.62C248.48 56.46 248.313 56.3067 248.14 56.16C247.98 56.0133 247.827 55.8933 247.68 55.8C248.427 55.24 249.1 54.6333 249.7 53.98C250.313 53.3267 250.847 52.6667 251.3 52C251.767 51.32 252.153 50.68 252.46 50.08ZM250.58 53.4H252.38V59.86H265.64V61.32H250.58V53.4ZM269.66 53.64H285.94V63.34H283.98V55.5H271.54V63.44H269.66V53.64ZM270.64 60.38H285.1V62.24H270.64V60.38ZM276.76 50.12H278.74V68.66H276.76V50.12Z" fill="#005794"/>
</svg>
