<svg width="262" height="72" viewBox="0 0 262 72" fill="none" xmlns="http://www.w3.org/2000/svg">
<path d="M2 33.5068C2.18667 33.5068 2.37333 33.3202 2.56 32.9468C2.74667 32.5735 2.84 31.9602 2.84 31.1068V11.9068C2.84 11.0535 2.74667 10.4535 2.56 10.1068C2.37333 9.7335 2.18667 9.5335 2 9.50683H11.44C11.28 9.5335 11.2 9.74683 11.2 10.1468C11.2267 10.5202 11.4533 11.1335 11.88 11.9868C12.0667 12.3335 12.3333 12.8802 12.68 13.6268C13.0533 14.3735 13.4667 15.2402 13.92 16.2268C14.4 17.2135 14.8933 18.2668 15.4 19.3868C15.9333 20.5068 16.4667 21.6268 17 22.7468C17.5333 23.8668 18.0267 24.9202 18.48 25.9068H18.52C19 24.9202 19.5067 23.8802 20.04 22.7868C20.6 21.6668 21.1467 20.5468 21.68 19.4268C22.2133 18.3068 22.72 17.2535 23.2 16.2668C23.68 15.2535 24.0933 14.3735 24.44 13.6268C24.7867 12.8535 25.04 12.2802 25.2 11.9068C25.5733 11.0535 25.7733 10.4402 25.8 10.0668C25.8267 9.6935 25.7733 9.50683 25.64 9.50683H35.08C34.8933 9.50683 34.7067 9.6935 34.52 10.0668C34.3333 10.4402 34.24 11.0668 34.24 11.9468V31.1068C34.24 31.9602 34.3333 32.5735 34.52 32.9468C34.7067 33.3202 34.8933 33.5068 35.08 33.5068H27.36C27.5467 33.5068 27.72 33.3202 27.88 32.9468C28.0667 32.5735 28.16 31.9602 28.16 31.1068V18.1468H28.08C27.6533 18.9468 27.2 19.8268 26.72 20.7868C26.24 21.7468 25.7467 22.7202 25.24 23.7068C24.76 24.6935 24.2933 25.6535 23.84 26.5868C23.3867 27.5202 22.9733 28.3735 22.6 29.1468C22.2267 29.9202 21.92 30.5735 21.68 31.1068C21.3067 31.9335 21.1067 32.5335 21.08 32.9068C21.08 33.2802 21.1467 33.4802 21.28 33.5068H15.68C15.8133 33.4802 15.8667 33.2802 15.84 32.9068C15.84 32.5335 15.6533 31.9335 15.28 31.1068C15.0667 30.6268 14.7733 30.0002 14.4 29.2268C14.0533 28.4535 13.6533 27.6135 13.2 26.7068C12.7733 25.7735 12.32 24.8135 11.84 23.8268C11.36 22.8135 10.88 21.8268 10.4 20.8668C9.94667 19.8802 9.52 18.9735 9.12 18.1468H9V31.1068C9 31.9602 9.09333 32.5735 9.28 32.9468C9.46667 33.3202 9.65333 33.5068 9.84 33.5068H2ZM39.0703 33.5068C39.257 33.5068 39.4436 33.3202 39.6303 32.9468C39.817 32.5735 39.9103 31.9602 39.9103 31.1068V11.9068C39.9103 11.0535 39.817 10.4535 39.6303 10.1068C39.4436 9.7335 39.257 9.5335 39.0703 9.50683H62.4303V10.7068L63.2303 15.3468C62.5636 15.0535 61.3903 14.7468 59.7103 14.4268C58.0303 14.0802 56.0036 13.9068 53.6303 13.9068H47.7103C46.9103 13.9068 46.4303 13.9735 46.2703 14.1068C46.137 14.2135 46.0703 14.5468 46.0703 15.1068V18.0668C46.0703 18.6535 46.137 19.0002 46.2703 19.1068C46.4303 19.2135 46.897 19.2668 47.6703 19.2668H53.4303C54.977 19.2668 56.217 19.1868 57.1503 19.0268C58.1103 18.8402 58.737 18.6535 59.0303 18.4668C58.9236 18.9735 58.8036 19.5602 58.6703 20.2268C58.537 20.8935 58.4303 21.5335 58.3503 22.1468C58.2703 22.7602 58.2303 23.2668 58.2303 23.6668H47.6703C46.897 23.6668 46.4303 23.7202 46.2703 23.8268C46.137 23.9068 46.0703 24.2535 46.0703 24.8668V27.8268C46.0703 28.4402 46.137 28.8002 46.2703 28.9068C46.4036 29.0135 46.8703 29.0668 47.6703 29.0668H58.4703C60.017 29.0668 61.257 28.8935 62.1903 28.5468C63.1503 28.1735 63.777 27.8135 64.0703 27.4668L63.2703 32.2668V33.5068H39.0703ZM79.8428 33.9068C76.9361 33.9068 74.3628 33.7735 72.1228 33.5068C69.8828 33.2402 68.2695 32.9735 67.2828 32.7068V31.5068L66.4828 26.4268C66.9895 26.8535 67.8295 27.3068 69.0028 27.7868C70.1761 28.2668 71.6828 28.6802 73.5228 29.0268C75.3628 29.3468 77.4961 29.5068 79.9228 29.5068C81.4161 29.5068 82.5628 29.4135 83.3628 29.2268C84.1628 29.0135 84.7095 28.7202 85.0028 28.3468C85.2961 27.9735 85.4428 27.5335 85.4428 27.0268C85.4428 26.3868 85.2295 25.8935 84.8028 25.5468C84.3761 25.1735 83.6028 24.8668 82.4828 24.6268C81.3895 24.3868 79.8295 24.1335 77.8028 23.8668C75.3761 23.5468 73.3495 23.1068 71.7228 22.5468C70.0961 21.9868 68.8828 21.2002 68.0828 20.1868C67.2828 19.1468 66.8828 17.7735 66.8828 16.0668C66.8828 14.6802 67.2428 13.4668 67.9628 12.4268C68.6828 11.3868 69.8428 10.5735 71.4428 9.98684C73.0428 9.40017 75.1628 9.10684 77.8028 9.10684C80.5761 9.10684 82.9495 9.24017 84.9228 9.50683C86.8961 9.7735 88.2561 10.0402 89.0028 10.3068V11.5068L90.2028 15.9068C89.5361 15.5602 88.5761 15.2002 87.3228 14.8268C86.0695 14.4535 84.6161 14.1468 82.9628 13.9068C81.3095 13.6402 79.5228 13.5068 77.6028 13.5068C76.4028 13.5068 75.4695 13.6135 74.8028 13.8268C74.1361 14.0135 73.6561 14.2935 73.3628 14.6668C73.0961 15.0135 72.9628 15.4535 72.9628 15.9868C72.9628 16.6268 73.2028 17.1468 73.6828 17.5468C74.1895 17.9202 75.0028 18.2268 76.1228 18.4668C77.2428 18.7068 78.7495 18.9335 80.6428 19.1468C83.5495 19.4668 85.7895 19.9468 87.3628 20.5868C88.9361 21.2268 90.0161 22.0535 90.6028 23.0668C91.2161 24.0535 91.5228 25.2535 91.5228 26.6668C91.5228 27.8935 91.2961 28.9735 90.8428 29.9068C90.3895 30.8135 89.6828 31.5602 88.7228 32.1468C87.7895 32.7335 86.5761 33.1735 85.0828 33.4668C83.6161 33.7602 81.8695 33.9068 79.8428 33.9068ZM108.085 33.9068C105.178 33.9068 102.605 33.7735 100.365 33.5068C98.125 33.2402 96.5117 32.9735 95.525 32.7068V31.5068L94.725 26.4268C95.2317 26.8535 96.0717 27.3068 97.245 27.7868C98.4183 28.2668 99.925 28.6802 101.765 29.0268C103.605 29.3468 105.738 29.5068 108.165 29.5068C109.658 29.5068 110.805 29.4135 111.605 29.2268C112.405 29.0135 112.952 28.7202 113.245 28.3468C113.538 27.9735 113.685 27.5335 113.685 27.0268C113.685 26.3868 113.472 25.8935 113.045 25.5468C112.618 25.1735 111.845 24.8668 110.725 24.6268C109.632 24.3868 108.072 24.1335 106.045 23.8668C103.618 23.5468 101.592 23.1068 99.965 22.5468C98.3383 21.9868 97.125 21.2002 96.325 20.1868C95.525 19.1468 95.125 17.7735 95.125 16.0668C95.125 14.6802 95.485 13.4668 96.205 12.4268C96.925 11.3868 98.085 10.5735 99.685 9.98684C101.285 9.40017 103.405 9.10684 106.045 9.10684C108.818 9.10684 111.192 9.24017 113.165 9.50683C115.138 9.7735 116.498 10.0402 117.245 10.3068V11.5068L118.445 15.9068C117.778 15.5602 116.818 15.2002 115.565 14.8268C114.312 14.4535 112.858 14.1468 111.205 13.9068C109.552 13.6402 107.765 13.5068 105.845 13.5068C104.645 13.5068 103.712 13.6135 103.045 13.8268C102.378 14.0135 101.898 14.2935 101.605 14.6668C101.338 15.0135 101.205 15.4535 101.205 15.9868C101.205 16.6268 101.445 17.1468 101.925 17.5468C102.432 17.9202 103.245 18.2268 104.365 18.4668C105.485 18.7068 106.992 18.9335 108.885 19.1468C111.792 19.4668 114.032 19.9468 115.605 20.5868C117.178 21.2268 118.258 22.0535 118.845 23.0668C119.458 24.0535 119.765 25.2535 119.765 26.6668C119.765 27.8935 119.538 28.9735 119.085 29.9068C118.632 30.8135 117.925 31.5602 116.965 32.1468C116.032 32.7335 114.818 33.1735 113.325 33.4668C111.858 33.7602 110.112 33.9068 108.085 33.9068ZM121.287 33.5068C121.421 33.5068 121.621 33.3202 121.887 32.9468C122.181 32.5735 122.514 31.9468 122.887 31.0668C123.074 30.6668 123.367 29.9868 123.767 29.0268C124.194 28.0402 124.674 26.9068 125.207 25.6268C125.767 24.3202 126.341 22.9602 126.927 21.5468C127.541 20.1335 128.114 18.7735 128.647 17.4668C129.207 16.1602 129.687 15.0135 130.087 14.0268C130.514 13.0402 130.807 12.3335 130.967 11.9068C131.314 11.0535 131.501 10.4402 131.527 10.0668C131.554 9.6935 131.501 9.50683 131.367 9.50683H140.087C139.981 9.50683 139.941 9.6935 139.967 10.0668C139.994 10.4135 140.181 11.0268 140.527 11.9068C140.687 12.3335 140.967 13.0402 141.367 14.0268C141.767 14.9868 142.234 16.1202 142.767 17.4268C143.301 18.7068 143.861 20.0535 144.447 21.4668C145.034 22.8802 145.594 24.2402 146.127 25.5468C146.661 26.8268 147.141 27.9602 147.567 28.9468C147.994 29.9335 148.301 30.6402 148.487 31.0668C148.887 31.9468 149.274 32.5735 149.647 32.9468C150.021 33.3202 150.301 33.5068 150.487 33.5068H141.407C141.621 33.4802 141.794 33.2802 141.927 32.9068C142.087 32.5068 142.087 31.8935 141.927 31.0668C141.901 30.8802 141.874 30.7335 141.847 30.6268C141.821 30.4935 141.767 30.3068 141.687 30.0668C141.581 29.6668 141.461 29.3868 141.327 29.2268C141.194 29.0402 140.967 28.9335 140.647 28.9068C140.354 28.8802 139.861 28.8668 139.167 28.8668H132.287C131.567 28.8668 131.034 28.8935 130.687 28.9468C130.341 28.9735 130.101 29.0668 129.967 29.2268C129.834 29.3868 129.727 29.6535 129.647 30.0268C129.621 30.1602 129.581 30.3335 129.527 30.5468C129.501 30.7602 129.474 30.9335 129.447 31.0668C129.261 31.9202 129.207 32.5335 129.287 32.9068C129.394 33.2802 129.527 33.4802 129.687 33.5068H121.287ZM133.327 24.4668H138.007C138.781 24.4668 139.207 24.4002 139.287 24.2668C139.367 24.1335 139.327 23.8402 139.167 23.3868C138.821 22.5335 138.474 21.6668 138.127 20.7868C137.781 19.8802 137.447 19.0002 137.127 18.1468C136.834 17.2935 136.567 16.5068 136.327 15.7868C136.114 15.0402 135.927 14.4135 135.767 13.9068H135.687C135.314 14.8935 134.927 15.9335 134.527 17.0268C134.127 18.1202 133.754 19.1335 133.407 20.0668C133.061 21.0002 132.781 21.7735 132.567 22.3868C132.354 22.9735 132.247 23.2668 132.247 23.2668C132.061 23.6935 131.994 24.0002 132.047 24.1868C132.101 24.3735 132.527 24.4668 133.327 24.4668ZM161.523 33.9068C157.896 33.9068 155.03 32.9068 152.923 30.9068C150.843 28.8802 149.803 25.7735 149.803 21.5868C149.803 19.1335 150.27 16.9735 151.203 15.1068C152.136 13.2135 153.616 11.7468 155.643 10.7068C157.67 9.64017 160.296 9.10684 163.523 9.10684C166.056 9.10684 168.15 9.24017 169.803 9.50683C171.483 9.7735 172.63 10.0402 173.243 10.3068V11.5068L174.043 15.9068C173.323 15.3735 172.056 14.8402 170.243 14.3068C168.43 13.7735 166.216 13.5068 163.603 13.5068C161.816 13.5068 160.35 13.8135 159.203 14.4268C158.056 15.0135 157.216 15.9068 156.683 17.1068C156.15 18.3068 155.883 19.8002 155.883 21.5868C155.883 23.5068 156.123 25.0535 156.603 26.2268C157.083 27.3735 157.856 28.2002 158.923 28.7068C159.99 29.2135 161.403 29.4668 163.163 29.4668C164.496 29.4668 165.576 29.3335 166.403 29.0668C167.23 28.7735 167.843 28.3868 168.243 27.9068C168.643 27.4002 168.843 26.8402 168.843 26.2268V25.5868C168.843 24.9735 168.79 24.6268 168.683 24.5468C168.603 24.4402 168.256 24.3868 167.643 24.3868H166.363C165.456 24.3868 164.683 24.4802 164.043 24.6668C163.403 24.8535 162.95 25.0402 162.683 25.2268L163.083 21.2668V20.0668H175.683C175.496 20.0935 175.31 20.2935 175.123 20.6668C174.963 21.0135 174.883 21.6135 174.883 22.4668V31.1068C174.883 31.9602 174.963 32.5735 175.123 32.9468C175.31 33.3202 175.496 33.5068 175.683 33.5068H168.843V32.9868L168.923 31.8668L168.843 31.7868C168.656 32.0535 168.283 32.3602 167.723 32.7068C167.163 33.0268 166.376 33.3068 165.363 33.5468C164.376 33.7868 163.096 33.9068 161.523 33.9068ZM179.695 33.5068C179.882 33.5068 180.069 33.3202 180.255 32.9468C180.442 32.5735 180.535 31.9602 180.535 31.1068V11.9068C180.535 11.0535 180.442 10.4535 180.255 10.1068C180.069 9.7335 179.882 9.5335 179.695 9.50683H203.055V10.7068L203.855 15.3468C203.189 15.0535 202.015 14.7468 200.335 14.4268C198.655 14.0802 196.629 13.9068 194.255 13.9068H188.335C187.535 13.9068 187.055 13.9735 186.895 14.1068C186.762 14.2135 186.695 14.5468 186.695 15.1068V18.0668C186.695 18.6535 186.762 19.0002 186.895 19.1068C187.055 19.2135 187.522 19.2668 188.295 19.2668H194.055C195.602 19.2668 196.842 19.1868 197.775 19.0268C198.735 18.8402 199.362 18.6535 199.655 18.4668C199.549 18.9735 199.429 19.5602 199.295 20.2268C199.162 20.8935 199.055 21.5335 198.975 22.1468C198.895 22.7602 198.855 23.2668 198.855 23.6668H188.295C187.522 23.6668 187.055 23.7202 186.895 23.8268C186.762 23.9068 186.695 24.2535 186.695 24.8668V27.8268C186.695 28.4402 186.762 28.8002 186.895 28.9068C187.029 29.0135 187.495 29.0668 188.295 29.0668H199.095C200.642 29.0668 201.882 28.8935 202.815 28.5468C203.775 28.1735 204.402 27.8135 204.695 27.4668L203.895 32.2668V33.5068H179.695Z" fill="#005794"/>
<path d="M21.762 56.0268L16.458 56.4428C17.004 59.8228 17.732 62.0588 19.006 64.1128C19.864 65.5168 21.008 66.7648 21.45 66.7648C21.97 66.7648 22.282 65.5428 22.542 62.5788C23.53 63.4108 24.076 63.7748 24.908 64.1908C24.336 68.4808 23.452 70.0668 21.684 70.0668C19.812 70.0668 17.42 67.6748 15.782 64.1648C14.794 62.0848 14.066 59.5108 13.676 56.6508L11.024 56.8588C9.906 56.9628 9.282 57.0408 8.528 57.1708L8.45 54.3628C8.84 54.3888 9.048 54.3888 9.23 54.3888C9.672 54.3888 10.53 54.3628 11.128 54.3108L13.39 54.1288C13.208 51.8928 13.208 51.8668 13.182 49.3968C13.156 48.9288 13.078 47.9668 13.026 47.5508L16.068 47.4988C15.964 47.9928 15.938 48.5388 15.938 49.3968C15.938 50.8268 15.99 51.8928 16.172 53.8948L21.528 53.4528C23.01 53.3228 23.556 53.2708 24.258 53.1148L24.336 55.9488C23.946 55.9228 23.764 55.9228 23.608 55.9228C23.192 55.9228 22.568 55.9488 21.762 56.0268ZM4.758 67.1028V60.3428C4.758 59.0688 4.784 58.4708 4.836 57.4568C3.848 58.9388 3.51 59.3548 2.288 60.5768C1.794 59.0948 1.534 58.5488 0.962 57.7168C3.25 55.4288 4.784 53.1928 5.98 50.3068C6.474 49.0848 6.838 47.8888 6.968 47.0568L9.802 47.9928C9.1 49.9948 8.45 51.4508 7.488 53.3228V67.1548C7.488 68.3508 7.54 69.2348 7.644 70.1708H4.602C4.706 69.3388 4.758 68.5068 4.758 67.1028ZM17.134 49.1108L19.084 47.4728C20.488 48.6948 20.826 49.0328 22.906 51.3468L20.826 53.2188C20.254 52.3868 20.15 52.2568 19.006 51.0348C17.836 49.7608 17.836 49.7608 17.134 49.1108ZM39.676 59.4068H39.52C38.948 60.1088 38.662 60.3688 37.674 61.2788V66.4268C39.442 66.1148 40.742 65.8028 42.874 65.2308V67.8828C41.028 68.3768 40.378 68.5328 37.622 69.0788C35.958 69.4168 35.854 69.4428 34.476 69.6508C34.06 69.7288 33.67 69.7808 33.306 69.8588C32.786 69.9368 32.344 70.0148 32.11 70.0928L31.486 67.1808C32.448 67.1548 33.332 67.0768 34.944 66.8688V63.4368C33.228 64.5808 32.006 65.2308 29.64 66.2188C29.172 65.1528 28.808 64.4768 28.08 63.5148C31.382 62.6308 34.008 61.2788 36.114 59.4068H31.382C30.264 59.4068 29.302 59.4588 28.47 59.5628V56.8848C29.198 56.9888 29.926 57.0148 31.356 57.0148H38.22V55.4288H33.332C31.876 55.4288 31.356 55.4548 30.602 55.5328V53.0368C31.33 53.1148 31.902 53.1408 33.332 53.1408H38.22V51.6068H32.214C30.888 51.6068 30.108 51.6328 29.432 51.7368V49.1108C30.212 49.2148 31.07 49.2668 32.37 49.2668H38.22C38.22 48.2008 38.168 47.7068 38.064 47.1088H41.158C41.028 47.7068 41.002 48.1228 41.002 49.2668H47.268C48.62 49.2668 49.478 49.2148 50.232 49.1108V51.7368C49.556 51.6328 48.75 51.6068 47.424 51.6068H41.002V53.1408H46.254C47.762 53.1408 48.334 53.1148 49.036 53.0368V55.5328C48.256 55.4548 47.762 55.4288 46.254 55.4288H41.002V57.0148H48.204C49.608 57.0148 50.388 56.9888 51.064 56.8848V59.5628C50.232 59.4588 49.296 59.4068 48.204 59.4068H42.406C42.874 60.4468 43.446 61.3568 44.356 62.5008C45.604 61.5128 46.696 60.4208 47.268 59.6148L49.764 61.1748C49.582 61.3308 49.582 61.3308 49.192 61.7208C48.464 62.4748 47.424 63.3848 46.228 64.3208C47.944 65.6208 49.426 66.3748 51.688 67.1548C50.882 68.1168 50.466 68.8188 50.05 69.8328C46.67 68.3768 44.382 66.7388 42.614 64.5548C41.47 63.1248 40.508 61.4088 39.676 59.4068ZM61.204 56.0788C59.28 56.4948 58.214 56.7548 57.98 56.8328C57.772 56.8848 57.668 56.9368 57.512 57.0148C57.382 57.0928 57.304 57.1188 57.174 57.1188C56.628 57.1188 56.212 56.1048 55.9 54.1808C56.108 54.2068 56.29 54.2068 56.394 54.2068C57.486 54.2068 60.268 53.8688 61.932 53.5308C62.478 51.2428 62.764 49.5268 62.764 48.2788C62.764 48.1748 62.764 48.0448 62.738 47.8368C63.856 47.9668 64.922 48.2008 65.65 48.4868C66.066 48.6428 66.274 48.8768 66.274 49.1368C66.274 49.2668 66.248 49.3448 66.118 49.5528C65.728 50.2548 65.728 50.2548 64.922 53.1148C65.546 53.0368 66.248 52.9848 66.69 52.9848C67.756 52.9848 68.588 53.1928 69.186 53.6088C70.226 54.3628 70.746 55.8968 70.746 58.2628C70.746 62.1368 70.044 65.4388 68.848 67.0768C68.016 68.2208 66.924 68.7668 65.39 68.7668C64.454 68.7668 63.57 68.6368 63.31 68.4808C63.102 68.3508 63.102 68.3508 63.024 67.3888C62.946 66.6868 62.79 66.0888 62.478 65.3608C63.83 65.8028 64.168 65.8808 65 65.8808C66.248 65.8808 66.768 65.2828 67.34 63.2028C67.73 61.8248 67.938 60.0308 67.938 58.1328C67.938 56.1048 67.444 55.3768 66.066 55.3768C65.598 55.3768 64.844 55.4288 64.246 55.5328C64.168 55.8188 64.142 55.8448 64.038 56.2088C63.31 58.8608 61.984 62.3708 60.658 65.1788C59.28 68.0128 58.942 68.5848 58.604 68.5848C58.396 68.5848 57.694 68.2208 56.94 67.7268C56.342 67.3628 56.186 67.2068 56.186 66.9988C56.186 66.8688 56.186 66.8688 57.252 65.1788C58.682 62.9688 60.554 58.6268 61.204 56.0788ZM71.37 54.2328C71.266 54.0768 71.24 53.9988 71.24 53.9208C71.24 53.7388 71.474 53.5048 72.228 52.9068C72.748 52.5168 73.008 52.3608 73.19 52.3608C73.346 52.3608 73.476 52.4388 73.814 52.7768C75.348 54.2588 76.778 56.2348 77.61 57.9508C77.87 58.5228 78.026 58.8868 78.026 59.0428C78.026 59.3028 77.948 59.3808 77.116 60.0568C76.596 60.4728 75.998 60.8108 75.79 60.8108C75.608 60.8108 75.53 60.7328 75.348 60.2908C74.828 59.0168 74.334 58.0288 73.71 57.0668C73.034 56.0268 72.904 55.8708 71.37 54.2328ZM90.4989 47.4208C91.1229 47.4208 93.6709 48.5128 95.3089 49.4748C96.3229 50.0728 96.6349 50.3588 96.6349 50.6448C96.6349 50.8788 96.2189 51.6588 95.7769 52.3088C95.3609 52.9068 95.2049 53.0368 94.9969 53.0368C94.8669 53.0368 94.7889 52.9848 94.4769 52.7508C92.7349 51.4248 91.3569 50.6708 89.4069 49.9948C89.0169 49.8388 88.9389 49.7868 88.9389 49.5788C88.9389 49.3188 89.1469 48.8768 89.6149 48.2008C90.0309 47.5768 90.2129 47.4208 90.4989 47.4208ZM87.6129 60.2908C90.2649 57.8468 92.5789 56.8848 95.7769 56.8848C99.3389 56.8848 101.653 58.9908 101.653 62.1888C101.653 65.2568 99.7029 67.4148 95.8029 68.6628C94.3989 69.1048 92.0849 69.5208 91.0449 69.5208C90.4989 69.5208 90.3689 69.3908 90.0049 68.6368C89.7189 68.0388 89.4069 67.6748 88.6269 67.1288C95.1529 66.6088 98.3769 64.9448 98.3769 62.1108C98.3769 60.5248 97.2589 59.5888 95.3869 59.5888C93.0209 59.5888 90.5769 60.8108 88.5749 62.9688C88.2109 63.3328 87.8729 63.7748 87.6389 64.1648C87.4049 64.5548 87.2489 64.6848 87.0149 64.6848C86.6249 64.6848 85.7149 64.2948 85.0909 63.8268C84.7789 63.5928 84.6749 63.4108 84.6749 62.9948C84.6749 62.7868 84.6749 62.7868 84.7529 62.1628C84.7529 62.0848 84.7529 61.9028 84.7789 61.6168C84.9089 59.9528 84.9869 59.2508 85.2989 56.9108C85.3509 56.6248 85.3509 56.6248 85.5329 55.4028C85.5589 55.3248 85.6109 54.8308 85.7409 53.8688C85.7669 53.6348 85.7929 53.4268 85.7929 53.0108C87.0409 53.1928 88.2109 53.4788 88.7049 53.7648C88.9129 53.8688 89.0169 53.9988 88.9909 54.1548C88.9909 54.2588 88.9389 54.3368 88.8609 54.4928C88.5749 54.9348 88.4969 55.1688 88.2629 56.1568C88.0289 57.1448 87.6649 59.4328 87.6129 60.2908ZM121.205 52.6468C120.477 58.1328 119.619 61.1228 118.033 63.8528C116.785 66.0108 115.069 67.2068 113.301 67.2068C110.597 67.2068 108.673 64.5548 108.673 60.8628C108.673 56.7548 110.753 53.2188 114.315 51.3468C116.057 50.4108 117.929 49.9948 120.399 49.9948C125.833 49.9948 129.863 53.8428 129.863 58.9908C129.863 63.5408 127.627 66.8168 123.311 68.6628C122.453 69.0268 121.777 69.2348 121.439 69.2348C121.127 69.2348 120.997 69.1308 120.659 68.6368C120.217 67.9608 119.723 67.4668 119.021 66.9988C124.377 65.6208 126.795 63.0988 126.795 58.8868C126.795 56.7288 125.885 54.9088 124.273 53.7648C123.363 53.1408 122.635 52.8808 121.205 52.6468ZM118.241 52.7768C116.395 53.1668 115.485 53.6088 114.289 54.6488C112.547 56.1828 111.559 58.3668 111.559 60.8108C111.559 62.8128 112.209 63.9828 113.301 63.9828C114.601 63.9828 115.927 62.1888 116.915 59.0948C117.539 57.1448 117.851 55.6628 118.241 52.7768ZM146.581 56.8068C147.933 54.6228 148.869 52.7508 149.623 50.7488C149.909 49.9688 150.039 49.4228 150.195 48.4868C152.457 49.2928 153.835 50.0728 153.835 50.5668C153.835 50.6968 153.783 50.7748 153.601 50.9828C153.107 51.5028 152.717 52.1008 152.301 52.9848C151.001 55.6628 150.299 56.9368 149.077 58.8348C150.247 59.7968 151.417 60.9408 152.301 61.9028C152.535 62.1628 152.639 62.3448 152.639 62.5528C152.639 62.8128 152.327 63.2808 151.599 64.0608C151.053 64.6588 150.741 64.9188 150.507 64.9188C150.377 64.9188 150.247 64.8408 150.039 64.6068C148.479 62.8388 148.323 62.6568 147.179 61.5128C144.969 64.2948 142.447 66.6608 140.003 68.2728C139.223 68.8188 138.755 69.0268 138.469 69.0268C138.209 69.0268 138.183 69.0268 137.533 68.4028C137.091 68.0128 136.441 67.5448 135.661 67.1028C139.249 65.3348 142.213 62.8648 144.813 59.3808C143.591 58.3668 142.967 57.9248 140.757 56.4948C140.237 56.1828 140.185 56.1308 140.185 55.9488C140.185 55.6628 140.497 55.2208 141.329 54.2588C141.615 53.9208 141.823 53.7908 142.031 53.7908C142.369 53.7908 144.111 54.9608 146.581 56.8068ZM165.91 60.9148C165.754 60.9148 165.65 60.8108 165.52 60.4728C165.104 59.5108 164.246 57.8728 163.908 57.3788C163.388 56.6248 163.31 56.4948 163.31 56.3388C163.31 56.1308 163.596 55.8708 164.298 55.4808C165.104 55.0128 165.208 54.9608 165.364 54.9868C165.598 55.0128 165.936 55.4028 166.56 56.3908C167.418 57.6908 168.198 59.1728 168.198 59.4848C168.198 59.6668 168.016 59.8488 167.496 60.1608C166.898 60.5248 166.066 60.9148 165.91 60.9148ZM172.956 58.2628L172.982 58.3408C172.982 58.4968 171.786 59.2248 171.058 59.5108C170.902 59.5628 170.798 59.5888 170.798 59.6148C170.72 59.6408 170.668 59.6668 170.642 59.6668C170.512 59.6668 170.382 59.5368 170.304 59.2768C169.94 58.1848 169.212 56.6768 168.406 55.3508C168.354 55.2728 168.354 55.2728 168.328 55.0908C168.328 54.9088 168.536 54.7528 169.316 54.3368C170.278 53.8168 170.33 53.7908 170.486 53.7908C170.616 53.7908 170.668 53.8428 170.85 54.0248C171.214 54.5188 172.332 56.4948 172.54 57.0668C172.696 57.5088 172.8 57.8208 172.878 57.9248C172.956 58.0028 172.982 58.0808 172.982 58.1068L172.956 58.2628ZM176.336 54.4928C178.494 55.0908 179.664 55.6628 179.664 56.0528C179.664 56.1568 179.612 56.2608 179.508 56.3908C179.248 56.7288 179.092 56.9888 178.754 57.7168C176.882 61.8768 175.66 63.8008 173.58 65.9068C172.046 67.4408 169.628 69.2348 169.082 69.2348C168.926 69.2348 168.796 69.1828 168.64 69.0268C168.172 68.5328 167.444 67.9868 166.612 67.5188C170.538 65.4388 172.722 63.3328 174.542 59.9528C175.556 58.0288 176.232 56.0008 176.336 54.4928ZM196.148 52.4908V54.8308C203.428 53.0368 204.104 52.8288 204.702 52.3088C204.936 52.1268 205.118 52.0488 205.326 52.0488C205.716 52.0488 206.34 52.5168 206.99 53.2968C207.692 54.1028 208.056 54.7008 208.056 54.9608C208.056 55.3248 208.004 55.4028 207.38 55.8448C207.094 56.0788 207.016 56.1568 205.768 57.9248C204.988 59.0168 203.246 60.8888 202.258 61.6688C201.946 61.9288 201.79 62.0068 201.608 62.0068C201.452 62.0068 201.348 61.9548 201.166 61.7728C200.594 61.1748 200.074 60.8108 199.06 60.3168C201.27 58.7568 203.116 56.8588 203.792 55.4548L202.752 55.7668C202.648 55.7928 200.464 56.3908 196.148 57.5868V62.2928C196.148 63.6708 196.46 64.3468 197.188 64.6588C197.942 64.9448 199.034 65.0748 200.594 65.0748C201.894 65.0748 203.792 64.9448 205.248 64.7628C205.794 64.7108 205.924 64.6848 206.002 64.6848C206.548 64.6848 206.678 65.1008 206.756 67.0768C206.756 67.1548 206.756 67.2068 206.756 67.2068C206.756 67.2588 206.756 67.2848 206.756 67.2848C206.756 67.5968 206.652 67.8048 206.444 67.8828C206.132 68.0128 204.26 68.0908 201.66 68.0908C198.41 68.0908 196.72 67.8828 195.42 67.2848C193.886 66.5828 193.08 65.1268 193.08 63.0728V58.4448C190.012 59.3288 189.674 59.4588 188.816 59.9008C188.634 59.9788 188.53 60.0308 188.426 60.0308C187.958 60.0308 187.412 58.8348 186.866 56.7548C188.582 56.5728 190.532 56.2088 193.08 55.5848V53.1148C193.08 50.9308 193.028 49.7348 192.846 48.6168C194.068 48.6168 195.472 48.7728 196.2 48.9548C196.434 49.0328 196.59 49.1628 196.59 49.3188C196.59 49.4748 196.59 49.4748 196.382 49.9168C196.226 50.2548 196.148 51.1648 196.148 52.4908ZM212.702 56.8588C214.808 57.0668 216.654 57.1188 222.088 57.1188C226.846 57.1188 229.576 57.0668 232.202 56.8848C232.28 56.8848 232.436 56.8848 232.54 56.8848C233.32 56.8848 233.32 56.9108 233.32 58.9908C233.32 60.0568 233.242 60.2388 232.8 60.2388C232.8 60.2388 232.722 60.2388 232.696 60.2388C230.98 60.1608 230.018 60.1608 222.504 60.1608C219.748 60.1608 218.37 60.1868 215.978 60.2648C215.796 60.2648 215.588 60.2648 215.224 60.2648C214.392 60.2648 214.262 60.2908 213.768 60.3688C213.638 60.3688 213.534 60.3948 213.482 60.3948C213.196 60.3948 213.014 60.2648 212.962 60.0308C212.806 59.3808 212.702 58.0548 212.702 56.8588ZM258.201 53.3488C258.357 54.5708 258.461 54.9088 259.007 56.3388C259.111 56.5988 259.137 56.7548 259.137 56.9108C259.137 57.2488 259.007 57.4568 258.513 58.0028C256.355 60.3948 254.145 62.3448 251.493 64.1388C249.231 65.6728 246.631 67.0508 244.109 68.1168C243.355 68.4288 243.121 68.5588 242.835 68.8188C242.601 69.0008 242.523 69.0528 242.393 69.0528C241.899 69.0528 241.015 67.6228 240.235 65.5688C242.757 65.1268 245.721 63.9048 248.737 62.0848C250.609 60.9668 252.845 59.2768 254.457 57.7688C255.887 56.4428 256.693 55.4548 258.201 53.3488ZM256.979 52.6988C256.875 52.6988 256.823 52.6468 256.719 52.4908C256.121 51.4248 255.601 50.6968 254.795 49.8648C254.665 49.7348 254.639 49.6828 254.639 49.6308C254.639 49.4748 254.795 49.2928 255.237 48.9808C255.653 48.6948 255.809 48.5908 255.965 48.5908C256.173 48.5908 256.433 48.7988 257.083 49.5008C257.889 50.4108 258.513 51.2428 258.513 51.4768C258.513 51.7628 257.343 52.6988 256.979 52.6988ZM246.579 57.3788C246.579 57.6388 246.215 58.3408 245.617 59.3028C245.253 59.8748 245.149 59.9788 244.941 59.9788C244.759 59.9788 244.759 59.9788 243.641 59.2248C242.731 58.6268 241.587 58.0808 239.715 57.4308C239.299 57.2748 239.169 57.1708 239.169 56.9888C239.169 56.8588 239.377 56.4168 239.793 55.7148C239.897 55.5068 240.001 55.3508 240.053 55.2208C240.339 54.7008 240.469 54.5448 240.677 54.5448C241.119 54.5448 243.069 55.2728 244.473 55.9488C245.253 56.3388 246.241 56.9108 246.449 57.0668C246.527 57.1708 246.579 57.2488 246.579 57.3788ZM261.139 49.7608C261.139 49.9428 260.931 50.1248 260.359 50.5408C260.021 50.7748 259.787 50.9048 259.657 50.9048C259.579 50.9048 259.527 50.8788 259.397 50.6708C258.695 49.5268 258.227 48.9288 257.447 48.1228C257.343 48.0448 257.317 47.9668 257.317 47.9408C257.317 47.7068 258.357 46.9788 258.669 46.9788C258.877 46.9788 259.241 47.2648 259.761 47.8368C260.515 48.6688 261.139 49.5528 261.139 49.7608ZM249.335 52.1008C249.335 52.3868 248.737 53.4268 248.113 54.2068C247.775 54.6228 247.645 54.7268 247.463 54.7268C247.359 54.7268 247.229 54.6748 247.073 54.5188C245.461 53.1148 243.927 52.1268 242.263 51.4768C242.003 51.3728 241.899 51.2688 241.899 51.1128C241.899 51.0088 241.925 50.9308 242.055 50.7228C243.303 48.8248 243.355 48.7468 243.641 48.7468C244.161 48.7468 246.319 49.7868 247.801 50.7748C249.049 51.6068 249.335 51.8408 249.335 52.1008Z" fill="#005794"/>
</svg>
