<svg width="375" height="68" viewBox="0 0 375 68" fill="none" xmlns="http://www.w3.org/2000/svg">
<rect width="375" height="68" fill="#005794"/>
<g clip-path="url(#clip0_161_266)">
<path d="M24.5 17.5002L25.5941 22.5507L25.6652 22.6938L28.3861 23.5917C35.2027 29.5453 41.8112 35.7473 48.6016 41.7343C48.8329 41.9382 49.1053 42.2095 49.3395 42.3904C49.3956 42.4334 49.4787 42.5068 49.552 42.5002L49.7877 42.3385L70.5675 23.8304C71.3054 23.4434 72.1525 23.264 72.9382 22.977C73.0527 22.9348 73.4725 22.8028 73.5294 22.7442C73.608 22.6634 73.8011 21.5246 73.8422 21.3118C74.0854 20.0707 74.3099 18.8191 74.5 17.5713L74.3548 17.5876L49.7705 25.8234L24.5 17.5002ZM35.2124 25.8626L46.9164 29.8189L46.9777 29.9004L46.9867 36.3308C46.9882 36.4709 46.9283 36.6155 46.7697 36.5421L35.1466 26.1081C35.0657 26.028 35.0553 25.8441 35.2124 25.8619V25.8626ZM63.8968 26.2415C63.8632 26.2601 63.8243 26.2719 63.7958 26.2993C62.3059 27.7325 60.6768 29.1197 59.127 30.498C57.2673 32.1514 55.41 33.8188 53.5234 35.4411C53.3468 35.5931 52.5124 36.3434 52.3747 36.3693C52.3336 36.3767 52.3134 36.3938 52.2819 36.3486C52.2423 35.4774 52.2767 34.604 52.267 33.7321C52.2542 32.6148 52.124 31.238 52.2281 30.1407C52.2438 29.9753 52.2864 29.8671 52.4271 29.7685C52.6598 29.6046 53.7217 29.3088 54.0697 29.1901C57.2052 28.1203 60.3692 27.1312 63.5167 26.0969L63.8055 26.0406C63.8796 26.0599 63.935 26.177 63.8961 26.2423L63.8968 26.2415Z" fill="white"/>
</g>
<path d="M198.672 24.548C198.562 24.6783 198.293 24.953 198.129 24.989L195.893 25.0011C195.41 25.2797 195.717 25.4401 196.014 25.6445C196.58 26.0334 199.374 27.7514 199.874 27.8236C200.111 27.8576 200.897 27.7233 200.711 28.1583C200.606 28.4049 199.543 29.0544 199.266 29.1125C198.819 29.2067 198.616 29.0344 198.263 28.8179C197.3 28.2285 196.483 27.4026 195.552 26.7792C195.386 26.7611 195.356 26.7912 195.338 26.9455C195.207 28.018 195.45 29.3471 195.33 30.4476C195.292 30.6461 194.676 31.4158 194.543 31.4339C194.401 31.4539 194.236 31.2134 194.172 31.1031C193.759 30.3774 194.128 28.012 194.002 27.0418C193.923 26.4344 193.223 27.3665 193.043 27.5249C192.557 27.9599 191.775 28.7156 191.269 29.0604C191.213 29.0985 190.605 29.4092 190.567 29.4172C190.386 29.4553 190.123 29.1286 190.065 28.9782C189.971 28.7317 190.139 28.3387 189.79 28.2405C189.654 28.2024 189.515 28.4089 189.499 28.5332C189.411 29.1907 189.626 30.2271 189.491 30.8345C189.407 31.2134 189.026 31.1592 188.783 30.9407C188.621 30.7944 188.334 30.2091 188.249 29.9886C188.065 29.5215 188.263 27.8436 188.213 27.1881C188.163 26.5326 187.74 26.4564 187.158 26.6609C186.831 26.7751 186.131 27.5249 185.892 27.5028C185.776 27.4908 185.276 26.9556 185.17 26.8293C185.065 26.703 184.821 26.4183 184.813 26.272C184.791 25.8851 185.362 25.859 185.625 25.7468C186.117 25.5383 187.575 24.6362 187.806 24.1872C187.902 24.0028 187.926 23.7562 188.059 23.5738C188.083 23.3011 187.423 23.3452 187.252 23.3893C186.969 23.4615 186.283 24.0348 186.041 24.0268C185.83 24.0208 185.471 23.5978 185.437 23.3873C185.346 22.8 185.637 22.788 185.711 22.4171C185.746 22.2387 185.687 22.0643 185.758 21.8879C185.788 21.8137 186.139 21.4609 186.213 21.4308C186.749 21.2123 186.949 21.6373 187.323 21.6834C187.503 21.7055 188.007 21.7075 188.183 21.6794C188.38 21.6493 188.476 21.511 188.498 21.3226C188.526 21.086 188.53 20.3965 188.494 20.1699C188.466 19.9855 188.314 19.8452 188.249 19.6948C188.207 19.6006 187.973 19.0173 187.979 18.9752C188.017 18.7166 188.639 18.1553 188.91 18.1252C189.636 18.047 189.76 18.893 190.075 19.35C190.147 19.7269 189.84 19.8211 189.794 20.1198C189.764 20.3163 189.756 21.2284 189.792 21.4148C189.869 21.8278 190.396 21.5631 190.605 21.7997C190.755 21.9681 190.763 22.5133 190.555 22.6657L189.7 23.1047C189.608 23.1789 189.497 23.255 189.503 23.3853C189.513 23.5497 190.089 24.1691 190.242 24.2353C190.799 24.4779 191.375 23.7361 191.875 23.658C192.439 23.5698 193.291 23.7622 193.823 23.6439C193.996 23.6058 194.012 23.4836 194.036 23.3292C194.076 23.0666 194.124 22.2607 193.857 22.1405L191.873 22.1144C191.785 22.0984 191.63 21.946 191.588 21.8719C191.536 21.7756 191.283 21.2143 191.273 21.1301C191.239 20.8475 191.227 19.6527 191.275 19.3982C191.341 19.0534 191.746 19.1275 191.967 19.1315C192.045 19.1315 192.116 19.0834 192.196 19.0935C192.417 19.1195 192.812 19.5064 192.85 19.7369C192.924 20.1759 192.601 21.4168 193.305 21.3968C193.588 21.3887 193.983 21.054 194.036 20.7813C194.084 20.5408 194.072 19.5766 193.987 19.3621C193.929 19.2137 193.757 19.0734 193.723 18.905C193.675 18.6765 193.681 18.3738 193.879 18.2174C194 18.1212 194.487 17.9027 194.634 17.9408C194.764 17.9749 195.32 18.3016 195.414 18.4079C195.739 18.7827 195.394 18.8369 195.344 19.1576C195.306 19.4082 195.352 19.755 195.344 20.0216C195.334 20.3082 195.125 20.9557 195.52 21.0439C195.645 21.072 196.309 21.1001 196.455 21.0901C196.794 21.07 197.067 20.615 197.109 20.3042C197.172 19.8312 197.031 19.1636 197.115 18.7226C197.167 18.448 197.579 18.4179 197.797 18.468C197.882 18.4881 198.748 19.0052 198.813 19.0814C198.979 19.2799 199.067 19.6026 199.007 19.8552L197.735 21.944C197.641 22.0382 197.509 22.0984 197.378 22.1124C196.76 22.1866 196.02 22.0362 195.388 22.1325C194.86 22.4211 195.215 23.5477 195.751 23.6479L198.502 23.672C198.997 23.9687 199.031 24.121 198.674 24.546L198.672 24.548ZM193.179 25.0091C192.266 25.0351 191.217 25.2436 190.292 25.3338C190.055 25.3579 189.646 25.2436 189.529 25.5283C189.479 25.6486 189.479 27.0297 189.503 27.2362C189.527 27.4427 189.848 27.7995 190.057 27.8336C190.244 27.8637 190.428 27.8155 190.605 27.7634C191.201 27.593 192.856 26.0735 193.283 25.5503C193.474 25.3158 193.677 24.995 193.179 25.0091Z" fill="white"/>
<path d="M170.138 20.6589C170.249 20.7771 170.397 20.6629 170.486 20.5767C170.837 20.2359 171.174 19.6806 171.535 19.3218L172.018 18.2674C172.363 18.0128 172.741 18.125 172.997 18.4357C173.06 18.5139 173.519 19.3919 173.523 19.4481C173.547 19.8129 173.128 19.8009 172.933 19.9071C172.737 20.0134 172.359 20.5707 172.616 20.6949L176.515 20.721C176.773 20.703 176.916 20.4083 177.185 20.4263C177.399 20.4404 177.528 20.6869 177.534 20.8874C177.55 21.4888 176.826 21.7394 176.326 21.7794C174.926 21.8897 173.383 21.6953 171.968 21.7754C171.611 21.8677 170.562 22.884 171.396 22.9802C171.796 23.0263 173.028 22.886 173.286 23.0043C173.421 23.0664 173.551 23.2649 173.517 23.4252C173.443 23.77 173.018 24.0106 172.689 24.0387C171.701 24.1228 170.48 23.9063 169.527 24.0346C169.125 24.0888 169.095 24.7282 169.444 24.8926C170.217 24.9848 171.164 24.8004 171.918 24.9067C172.536 24.9929 172.249 25.7185 171.864 25.8067C171.425 25.905 170.606 25.7827 170.104 25.8167C169.952 25.8268 169.446 25.8909 169.342 25.9651C169.21 26.0573 169.238 26.5164 169.334 26.6386C169.456 26.795 169.936 26.8171 170.149 26.8291C171.25 26.8912 172.438 26.811 173.551 26.8251C173.969 26.8311 174.426 26.9754 174.849 26.787C175.068 26.6908 175.249 26.364 175.539 26.6046C175.72 26.7549 175.662 26.9534 175.572 27.1298C175.407 27.4565 174.974 27.8975 174.601 27.9336C173.804 28.0098 172.845 27.8374 172.061 27.9296C171.677 27.9737 171.982 28.3406 172.135 28.4849C172.384 28.7194 173.026 29.0883 173.361 29.1284C173.722 29.1705 175.046 29.0883 174.55 29.852C174.223 30.3572 173.286 30.6278 172.731 30.4334C172.478 30.3432 171.912 29.7779 171.742 29.5514C171.469 29.1865 171.216 28.6874 171.069 28.2584C171.029 28.1441 171.059 27.9918 170.993 27.9016C170.861 27.7251 169.244 27.5507 169.181 28.0599C169.063 28.7395 169.4 30.9345 168.915 31.3756C168.736 31.5379 168 31.58 167.936 31.2593C167.857 30.3111 168.008 29.2707 167.928 28.3345C167.903 28.0319 167.897 27.8514 167.542 27.9497C167.187 28.0479 166.906 28.6052 166.658 28.8898C166.074 29.5614 164.868 30.6198 163.933 30.4735C163.744 30.4434 163.004 30.0385 162.992 29.828C162.962 29.2908 163.672 29.4792 163.919 29.4571C164.152 29.4371 164.535 29.2106 164.721 29.0602C164.852 28.952 165.767 28.0599 165.63 27.9296C165.153 27.9517 164.557 27.7733 164.112 27.9677C163.987 28.0218 163.859 28.1782 163.728 28.2063C163.283 28.3065 162.763 28.2283 162.498 27.8294C162.312 27.5527 162.32 27.4064 162.597 27.216C163.106 26.8692 163.257 26.8812 163.831 26.8732C165.115 26.8591 166.401 26.8992 167.683 26.8451C167.966 26.6888 168.044 26.1315 167.719 25.9932C167.574 25.931 166.66 25.933 166.467 25.9611C166.214 25.9972 165.945 26.3119 165.757 26.2858C165.57 26.2598 165.195 25.8789 165.157 25.6804C165.103 25.4058 165.5 24.9668 165.755 24.9087C166.347 24.7764 167.342 25.0129 167.944 24.8966C168.475 24.7944 168 24.1108 167.695 24.0427C167.476 23.9925 166.619 24.0066 166.363 24.0306C165.857 24.0767 165.422 24.4556 165.002 24.634C164.581 24.8124 164.101 24.5418 163.957 24.1409C163.823 23.768 164.304 23.307 164.657 23.2729C165.01 23.2388 165.554 23.309 165.927 23.2929C166.68 23.2609 166.359 22.1844 165.793 22.1062C165.147 22.018 164.095 22.1122 163.397 22.1102C163.036 22.1102 162.713 22 162.336 22.1944C162.224 22.2525 162.173 22.3568 162.077 22.4149C161.718 22.6314 161.541 22.8559 161.172 22.5653C160.442 21.9899 160.992 21.2041 161.59 20.8172C161.832 20.8453 161.943 21.0197 162.202 21.0498C162.5 21.0838 163.247 21.0858 163.544 21.0498C163.987 20.9976 163.945 20.5125 163.903 20.1577C163.865 19.843 163.345 19.4421 163.782 19.1714C164.067 18.995 164.414 19.1053 164.643 19.3178C164.8 19.4641 165.299 19.9793 165.406 20.1377C165.59 20.4083 165.648 20.9515 166.17 20.6589C166.407 20.5246 166.375 19.7488 166.343 19.4862C166.314 19.2376 166.108 19.0933 166.066 18.8507C166.014 18.542 165.963 17.8945 166.369 17.8303C167.093 17.7161 167.623 17.9326 167.681 18.7184C167.727 19.3258 167.57 19.2296 167.41 19.6465C167.298 19.9392 167.29 20.6168 167.669 20.703C167.899 20.7551 168.798 20.6569 168.931 20.4524C169.011 20.3281 169.041 19.3078 169.023 19.1033C169.013 18.991 168.983 18.8006 168.951 18.6943C168.836 18.2974 168.375 18.0769 168.788 17.7121C169.031 17.4976 169.382 17.4475 169.679 17.5798C169.753 17.6118 170.257 17.8925 170.293 17.9246C170.333 17.9606 170.672 18.5961 170.68 18.6442C170.706 18.8026 170.518 18.9489 170.457 19.1013C170.369 19.3198 170.118 20.0615 170.088 20.27C170.072 20.3782 170.058 20.5747 170.136 20.6549L170.138 20.6589ZM167.623 21.7394C167.103 21.8596 167.623 22.8058 167.911 22.9702C168.431 22.9582 169.053 23.1105 169.563 23.0163C170.02 22.9321 170.379 22.0942 169.95 21.8336C169.645 21.6471 168.959 21.7835 168.568 21.7794C168.275 21.7774 167.928 21.6692 167.623 21.7394Z" fill="white"/>
<path d="M121.847 23.0506C121.809 22.9163 121.61 22.9283 121.5 22.9423C121.161 22.9824 120.053 23.257 119.73 23.3753C119.407 23.4936 119.395 23.666 119.576 23.9366C119.836 24.3195 120.978 25.2416 120.978 25.5984C120.978 25.825 120.621 26.2239 120.41 26.276C120.053 26.3642 119.766 25.6566 119.463 26.1858L119.449 30.0667C119.313 30.5458 118.928 31.047 118.438 30.624C118.079 30.3153 118.173 30.0587 118.161 29.6377C118.137 28.6976 118.263 27.6472 118.161 26.703C118.149 26.5967 117.989 26.2259 117.924 26.1697C117.866 26.1216 117.81 26.1778 117.762 26.2058C117.084 26.5927 116.093 27.7273 115.358 27.8757C115.069 27.9338 114.574 27.9679 114.307 27.8336C114.084 27.7213 113.52 27.1079 113.533 26.8533C113.561 26.3381 114.271 26.5707 114.584 26.5226C115.332 26.4063 117.336 24.7445 117.842 24.125C118.009 23.9206 118.36 23.4755 117.888 23.3713C117.647 23.3172 116.793 23.3412 116.524 23.3753C115.782 23.4675 115.617 24.3596 114.979 24.3756C114.5 24.3876 114.106 23.9326 114.213 23.4575C114.265 23.225 114.586 22.357 114.738 22.2066C114.873 22.0723 115.027 22.0302 115.216 22.0142C116.131 21.932 117.16 22.0803 118.087 22.0142C118.189 21.9941 118.33 21.8538 118.35 21.7496C118.382 21.5852 118.37 20.9718 118.346 20.7934C118.255 20.1138 117.726 20.4546 117.276 20.4786C116.947 20.4967 116.149 20.5247 115.858 20.4566C115.37 20.3423 114.644 19.6848 115.477 19.3941C116.759 18.9471 118.468 18.9331 119.672 18.2254C120.031 18.015 120.191 17.6361 120.641 17.9568C120.761 18.041 121.465 18.8228 121.524 18.9451C121.642 19.1837 121.584 19.32 121.423 19.5184L119.541 20.3664C119.421 20.5588 119.411 21.6433 119.495 21.8558C119.555 22.0082 119.662 22.0082 119.806 22.0202C120.139 22.0483 121.335 22.0723 121.616 22.0082C121.917 21.94 122.035 21.4388 122.533 21.3907C124.585 21.1903 126.957 21.5451 129.043 21.3927C129.804 21.513 129.362 22.1284 129.312 22.5755C129.284 22.822 129.268 23.1789 129.256 23.4334C129.216 24.3516 129.388 25.6626 129.256 26.5105C129.202 26.8613 128.484 27.6832 128.15 27.8035C127.745 27.9458 127.502 27.8376 127.133 27.8356C125.713 27.8216 124.284 27.8797 122.872 27.7895C122.677 27.7775 122.338 27.8296 122.18 27.7634C122.079 27.7213 121.845 27.3284 121.845 27.2362V23.0526L121.847 23.0506ZM127.625 26.4283C127.679 26.3542 127.681 26.264 127.687 26.1778C127.753 25.2637 127.655 24.2353 127.659 23.3172C127.561 23.1267 127.486 23.0907 127.28 23.0726C126.481 22.9984 125.179 23.0325 124.357 23.0726C124.2 23.0806 123.638 23.1207 123.568 23.1929C123.482 23.2791 123.438 23.5918 123.428 23.7261C123.375 24.3496 123.436 25.0311 123.474 25.6485C123.5 26.0755 123.313 26.4724 123.881 26.5386C124.489 26.6068 125.141 26.5005 125.745 26.4885C126.046 26.4825 127.49 26.5486 127.625 26.4303V26.4283Z" fill="white"/>
<path d="M150.156 25.1734C149.841 25.4441 149.433 25.424 149.082 25.8951C148.924 26.1056 148.306 27.3986 148.268 27.6311C148.242 27.7935 148.386 28.0521 148.545 28.1022L154.112 28.1343C154.931 28.4971 154.042 29.1526 153.572 29.3491C152.954 29.6077 152.064 29.4894 151.392 29.5154C149.036 29.6117 146.671 29.7139 144.315 29.8081C142.971 29.8622 141.42 29.7921 140.108 29.9565C139.659 30.0126 139.097 30.2692 138.629 30.1329C138.286 30.0326 138.465 29.3771 138.397 29.1145C138.335 28.874 138.058 28.6234 138.124 28.3989C138.19 28.1744 138.76 28.0421 138.942 27.8717L145.832 27.8236C146.223 27.7113 146.466 27.3525 146.657 27.0177C146.849 26.6829 147.403 25.5804 147.04 25.2837C146.861 25.1374 145.932 25.1795 145.649 25.1875C144.955 25.2075 144.125 25.3579 143.449 25.3378C142.831 25.3198 142.498 24.4418 142.879 23.9406C143.499 23.1227 143.868 22.1785 144.145 21.1742C144.231 20.8615 144.371 20.649 144.02 20.4806C143.567 20.2641 142.971 20.5648 142.534 20.7553C142.225 20.8896 141.484 21.4208 141.232 20.9257C141.153 20.7693 141.149 19.9374 141.189 19.7409C141.244 19.4623 141.625 19.1395 141.882 19.0433C142.55 18.7927 143.156 19.0914 143.832 19.1315C146.452 19.2839 149.163 19.0293 151.775 19.0794C152.194 19.0874 152.389 19.3681 152.326 19.775C152.274 20.1098 152.005 20.0897 151.803 20.212C151.57 20.3563 151.406 20.7452 151.087 20.7893C149.612 20.9317 147.969 20.6731 146.514 20.8094C146.436 20.8174 146.388 20.8174 146.312 20.8475C145.898 21.0159 145.214 22.81 144.979 23.263C144.927 23.5918 145.216 23.6159 145.469 23.6419C145.997 23.696 146.988 23.694 147.519 23.6479C147.642 23.6379 147.887 23.5998 147.991 23.5457C148.374 23.3472 148.372 22.7479 149.054 23.0185C149.237 23.0906 150.328 24.2413 150.41 24.4458C150.515 24.7124 150.368 24.991 150.158 25.1694L150.156 25.1734Z" fill="white"/>
<path d="M99.0888 18.6665C99.2324 18.5502 99.6252 18.472 99.8146 18.458C101.471 18.3257 103.473 18.6544 105.08 18.46C105.333 18.4299 105.467 18.1473 105.752 18.3116C106.268 18.6123 105.856 19.1837 105.82 19.5866C105.77 20.1278 105.866 20.6871 105.872 21.2223C105.901 24.0328 105.947 26.8473 105.881 29.6518C105.61 30.0367 105.321 30.3814 104.895 29.9464C104.797 29.8462 104.362 29.0003 104.342 28.866L104.338 20.214C104.322 19.9975 104.191 19.8772 103.979 19.8532C102.919 19.7289 101.623 19.9454 100.536 19.8572C100.271 19.8993 100.1 20.2541 100.078 20.5047C100.054 20.7833 100.082 21.4008 100.183 21.6493C100.267 21.8518 100.417 21.8999 100.628 21.924C101.326 22.0021 102.416 21.7937 103.048 21.944C103.605 22.0763 103.597 23.1989 102.963 23.3071C102.185 23.4374 101.11 23.245 100.293 23.3172C99.8903 23.3533 99.7847 23.4735 99.7448 23.8725C99.7109 24.2112 99.6451 24.8908 100.102 24.9068L103.096 24.9269C103.619 25.2496 103.561 26.1697 102.879 26.2519C102.436 26.3061 101.733 26.286 101.252 26.3C100.841 26.3121 99.996 26.2239 99.6591 26.3341C99.1606 26.4985 99.2224 26.9255 99.0849 27.3445C98.8616 28.026 98.5346 28.6715 98.1059 29.2468C97.8507 29.5896 97.5856 29.9204 97.147 30.0186C96.8499 30.0848 95.9966 29.4032 96.0225 29.1185C96.0345 28.9822 96.8977 28.028 97.0592 27.8115C98.2056 26.278 98.7001 24.6382 98.7858 22.7178C98.8057 22.2547 98.8516 19.9033 98.7459 19.6267C98.6981 19.5024 98.5625 19.4463 98.5904 19.2558L99.0849 18.6665H99.0888Z" fill="white"/>
<path d="M270.245 28.1243C270.295 28.1343 270.49 28.2926 270.5 28.3468C270.5 28.4169 270.458 28.4831 270.412 28.5332C270.231 28.7357 269.35 29.4353 269.108 29.5776C268.867 29.7199 268.57 29.7861 268.285 29.8081C266.072 29.9745 263.588 29.7259 261.357 29.746C261.06 29.6939 261.201 29.6237 261.151 29.5215C261.006 29.2288 260.884 29.1847 261.11 28.8479C261.321 28.5332 261.51 28.5593 261.779 28.4149C261.913 28.3428 262.029 28.1864 262.182 28.1463C262.928 27.9498 264.387 28.2405 265.225 28.1263C265.462 28.0942 265.47 27.8837 265.488 27.6692C265.57 26.6869 265.444 25.5623 265.462 24.5681C265.342 24.4177 265.286 24.3616 265.087 24.3776C264.569 24.4197 263.41 25.0552 262.96 24.9209C262.782 24.8688 262.609 24.6262 262.557 24.4578C262.501 24.2734 262.541 24.1411 262.509 23.9767C262.457 23.7141 262.082 23.4735 262.425 23.1989C262.633 23.0325 263.221 22.9924 263.498 22.9784C263.817 22.9604 265.332 23.0526 265.462 22.788L265.516 20.655C265.45 20.3403 265.362 20.0236 265.26 19.7189C265.203 19.5445 265.069 19.4743 265.103 19.2558C265.133 19.0734 266.002 18.1954 266.184 18.1713C266.393 18.1433 266.863 18.4279 266.911 18.6384C266.999 19.7951 266.766 21.0419 266.871 22.1886C266.885 22.3309 266.923 22.5554 267.065 22.6196C267.236 22.6957 268.07 22.6356 268.335 22.6416C268.46 22.6456 268.58 22.6917 268.716 22.6957C268.983 22.7038 269.613 22.5093 269.649 23.0065C269.708 23.8624 267.699 23.9566 267.137 24.1792C267.053 24.2132 266.875 24.2954 266.875 24.3977V28.0521L266.947 28.1243H270.249H270.245Z" fill="white"/>
<path d="M92.0271 18.8048L96.9895 18.7968C97.4321 18.9471 97.6973 19.2979 97.6395 19.781C97.6076 20.0476 97.3783 20.19 97.3504 20.4526C97.2985 22.0102 97.4221 23.6159 97.3544 25.1674C97.3444 25.3719 97.3304 25.7488 97.3025 25.9312C97.2766 26.1016 97.1331 26.2078 97.0154 26.3161C95.3686 26.9355 93.6939 27.8636 92.0411 28.435C91.8397 28.5051 91.5586 28.6515 91.3712 28.4851C91.2615 28.3889 90.5338 27.3445 90.5139 27.2302C90.48 27.0357 90.4959 26.6549 90.7033 26.5606C90.9804 26.4344 91.6104 26.707 91.746 26.2138C91.7619 25.3519 91.758 24.4879 91.758 23.6259C91.758 22.3109 91.6922 20.9577 91.734 19.6367C91.742 19.3841 91.732 18.8749 92.0291 18.8048H92.0271ZM95.9488 20.2521C95.9029 20.198 95.7773 20.1499 95.7016 20.1399C95.2928 20.0877 93.9491 20.0857 93.5443 20.1399C93.3888 20.1599 93.3489 20.198 93.329 20.3564C93.2792 20.7312 93.2851 21.9019 93.329 22.2828C93.3509 22.4652 93.4446 22.6196 93.638 22.6456C93.977 22.6897 94.4754 22.6356 94.8383 22.6416C95.1632 22.6456 95.8511 22.8481 96.0126 22.4311C96.0943 22.2186 96.0863 20.8896 96.0564 20.6009C96.0465 20.5107 96.0006 20.3203 95.9468 20.2541L95.9488 20.2521ZM95.9149 25.9833V23.7241L95.8431 23.6519H93.4506C93.4247 23.6519 93.3071 23.7361 93.2911 23.7802C93.2832 24.4057 93.1655 25.1233 93.2353 25.7448C93.2632 25.9953 93.3729 26.1718 93.64 26.2018C93.981 26.2419 94.5771 26.2179 94.934 26.2018C95.0875 26.1958 95.7953 26.1437 95.8531 26.0916C95.869 26.0595 95.9089 26.0134 95.9129 25.9833H95.9149Z" fill="white"/>
<path d="M219.757 19.0493C219.785 19.0133 220.005 18.891 220.055 18.893C220.22 18.897 220.386 19.1736 220.455 19.3059C220.489 19.3721 220.695 19.8412 220.701 19.8813C220.76 20.3403 219.929 20.625 219.933 21.078C219.935 21.2685 220.063 21.3707 220.244 21.3947C220.491 21.4248 221.265 21.4188 221.478 21.3326C221.616 21.2765 221.699 21.1241 221.871 21.1502C222.327 21.4228 221.767 21.9039 221.452 22.0282C221.171 22.1385 220.489 22.1525 220.152 22.1645C219.516 22.1886 218.874 22.1405 218.238 22.1645C218.049 22.2006 218.057 22.353 218.081 22.5113C218.153 23.0105 218.705 24.4718 218.922 24.985C219.512 26.3642 221.257 28.6354 222.748 29.0263C222.947 29.0784 223.781 29.1085 223.404 29.4734C223.045 29.6117 222.413 30.4015 222.102 30.4737C221.947 30.5097 221.231 30.5077 221.061 30.4817C220.796 30.4396 220.481 30.0306 220.326 29.8262C219.137 28.2505 218.196 26.4604 217.614 24.5701C217.409 23.9025 217.295 23.0586 217.062 22.4331C216.914 22.0402 216.641 22.0984 216.276 22.1184C215.04 22.1886 212.289 22.5895 211.143 22.9704C210.746 23.1027 210.223 23.5216 209.823 23.3152C209.725 23.2651 209.444 22.9624 209.42 22.8541C209.376 22.6577 209.38 21.5912 209.412 21.3767C209.434 21.2344 209.54 21.1021 209.683 21.072C209.879 21.0299 210.311 21.0199 210.497 21.1001C210.885 21.2705 210.794 21.4168 211.35 21.3988C212.616 21.3607 213.952 21.1462 215.224 21.06C215.776 21.0219 216.593 21.2945 216.432 20.4205C216.37 20.0897 215.922 19.5485 215.844 19.2819C215.577 18.3818 216.713 17.7524 217.373 18.3217L217.756 20.7252C217.818 21.1682 218.623 21.1642 218.836 20.8916L219.759 19.0534L219.757 19.0493Z" fill="white"/>
<path d="M238.919 25.5423C240.859 25.5383 242.803 25.6145 244.745 25.5744C245.092 25.6606 245.189 26.0174 244.878 26.2419C244.743 26.3381 243.752 26.8814 243.63 26.9115C243.367 26.9796 242.253 26.7411 242.524 27.2763C242.62 27.4627 243.323 28.429 243.475 28.5813C243.712 28.8239 244.233 28.7717 244.121 29.2308C244.041 29.5616 243.776 30.1489 243.403 30.193C242.657 30.2832 241.726 30.1389 240.961 30.1409C238.955 30.1489 236.939 30.3173 234.934 30.191C234.455 30.1609 233.855 30.3333 234.039 29.5776L235.46 27.3505C235.532 27.2001 235.474 27.0798 235.338 26.9957C235.051 26.8192 234.25 27.132 233.943 27.2683C233.739 27.3585 233.658 27.571 233.411 27.4427C232.988 27.2202 232.934 26.6068 233.197 26.2319C233.516 25.7788 233.969 25.6165 234.505 25.5744C235.853 25.4701 237.54 25.5423 238.921 25.5403L238.919 25.5423ZM238.249 26.5987C238.134 26.6088 237.922 26.6248 237.825 26.6529C237.552 26.7371 236.8 28.1944 236.507 28.457C236.445 28.5993 236.591 28.6835 236.68 28.7697L241.824 28.7978C242.071 28.7737 242.055 28.6174 242.004 28.4189C241.932 28.1423 241.092 26.719 240.877 26.6188C240.813 26.5827 240.743 26.5887 240.676 26.5807C240.04 26.5206 238.889 26.5386 238.247 26.5967L238.249 26.5987Z" fill="white"/>
<path d="M262.166 22.9644C262.12 23.0145 262.029 23.0506 261.961 23.0706C261.55 23.2009 259.361 23.4495 259.209 23.684C259.086 24.0228 259.209 24.4057 259.215 24.7324C259.245 26.4143 259.188 28.1022 259.215 29.7841C259.146 30.3754 258.181 30.8545 257.925 30.165C257.802 28.1984 258.079 26.0515 257.925 24.107C257.886 23.6058 257.463 23.664 257.206 24.0128C257.012 24.2734 257.018 24.971 256.951 25.3438C256.817 26.0795 256.269 27.7273 255.858 28.3327C255.782 28.445 255.13 29.1085 255.041 29.1466C254.839 29.2288 254.456 29.2168 254.315 29.0364C254.237 28.6775 253.808 28.3889 253.966 28.018C254.064 27.7895 254.528 27.3725 254.716 27.136C255.371 26.3101 256.458 25.0732 256.053 23.9206C255.892 23.4595 255.441 24.0068 255.172 24.0388C254.903 24.0709 254.47 24.099 254.313 23.8424C254.207 23.672 254.211 22.9403 254.237 22.7138C254.317 22.0262 255.619 22.3028 256.077 22.3089C257.724 22.3309 259.365 22.2928 261.006 22.357C261.257 22.367 261.945 22.3008 262.112 22.3991C262.308 22.5153 262.312 22.806 262.166 22.9644Z" fill="white"/>
<path d="M239.105 17.5158C239.36 17.5078 239.757 17.4958 240 17.5018C240.646 17.5178 240.325 18.1352 240.652 18.5301C241.451 19.4964 244.436 20.9076 245.658 21.4328C245.806 21.497 246.061 21.6293 246.198 21.6594C246.501 21.7215 246.986 21.6052 246.91 22.1244C246.866 22.4211 245.907 23.3793 245.6 23.4114C245.325 23.4395 244.843 23.1267 244.591 22.9884C243.321 22.2888 241.942 21.4188 240.724 20.625C240.295 20.3463 239.826 19.8071 239.29 19.8532C238.806 19.8953 237.454 21.07 236.955 21.4028C236.174 21.926 234.405 22.9824 233.556 23.2771C233.078 23.4435 232.928 23.3753 232.565 23.0526C232.408 22.9122 232.296 22.7158 232.158 22.5955C231.989 22.4472 231.76 22.4412 231.63 22.3089C231.353 22.0282 231.572 21.7215 231.919 21.6794C232.466 21.6132 233.117 21.7395 233.678 21.6674C235.091 21.489 236.884 19.9915 238.166 19.35C238.455 19.0554 238.229 18.6143 238.257 18.2395C238.293 17.7784 238.67 17.5278 239.105 17.5138V17.5158Z" fill="white"/>
<path d="M214.049 27.595C214.163 27.6111 214.265 27.585 214.374 27.5609C214.789 27.4687 215.71 27.0919 216.105 26.8954C216.27 26.8132 216.526 26.5907 216.629 26.5566C217.02 26.4283 217.604 27.0317 217.369 27.4447C217.219 27.7093 216.207 28.2846 215.9 28.4189C214.047 29.2228 211.747 29.6077 209.815 30.2271C209.601 30.189 209.199 30.189 209.099 29.9485C209.057 29.8482 209.047 28.5853 209.075 28.435C209.095 28.3287 209.193 28.2626 209.266 28.1944C209.617 28.1904 209.998 28.1323 210.339 28.1182C210.877 28.0982 211.663 28.1984 212.157 28.1182C212.564 28.0501 212.421 27.6812 212.421 27.4266C212.421 27.1079 212.484 26.2259 212.349 26.0094C212.293 25.9192 212.058 25.7007 211.956 25.6786C211.573 25.5984 211.354 26.2239 210.959 26.292C210.662 26.3441 210.355 26.27 210.315 25.9352C210.283 25.6746 210.281 24.5199 210.479 24.3676C210.548 24.3135 210.812 24.2814 210.911 24.2734L216.251 24.2974C216.811 24.5781 216.256 25.2677 215.838 25.3298C215.465 25.3839 214.851 25.2536 214.524 25.3559C214.378 25.4 214.047 25.7909 214.047 25.9352V27.595H214.049Z" fill="white"/>
<path d="M236.575 22.6557C236.818 22.6276 237.157 22.6456 237.42 22.6396C238.893 22.6095 240.369 22.6416 241.824 22.6416C242.069 22.6416 242.861 22.5434 242.851 22.9062C242.849 23.0085 241.876 23.9567 241.726 23.9847C240.371 24.1691 238.857 23.9005 237.518 24.0348C236.977 24.089 235.484 24.8868 235.484 23.8183C235.484 23.5978 235.57 23.4314 235.697 23.2651C235.911 22.9864 236.218 22.6957 236.573 22.6537L236.575 22.6557Z" fill="white"/>
<path d="M256.105 19.0113C256.137 18.899 256.434 18.7727 256.558 18.7928L261.957 18.8048C262.092 18.8489 262.22 18.9371 262.174 19.0955C262.16 19.1496 261.771 19.5786 261.704 19.6367C261.486 19.8251 260.705 20.1399 260.434 20.1399H256.175L256.103 20.0677V19.0093L256.105 19.0113Z" fill="white"/>
<path d="M261.209 24.9189C261.289 25.0131 261.355 25.1354 261.371 25.2617C261.417 25.6465 261.419 26.8533 261.365 27.2302C261.331 27.4687 261.09 27.8135 260.824 27.7875C260.615 27.7674 260.174 27.1139 260.119 26.9054C260.039 26.6188 260.037 25.2536 260.083 24.9309C260.111 24.7324 260.318 24.3876 260.537 24.3736C260.775 24.3576 260.902 24.6402 261.034 24.7846C261.088 24.8447 261.173 24.8748 261.211 24.9189H261.209Z" fill="white"/>
<path d="M91.354 46.4999C91.4193 46.4999 91.48 46.4345 91.536 46.3039C91.6013 46.1732 91.634 45.9585 91.634 45.6599V38.9399C91.634 38.6412 91.6013 38.4312 91.536 38.3099C91.4707 38.1792 91.4053 38.1092 91.34 38.0999H95.932C96.8 38.0999 97.4767 38.2072 97.962 38.4219C98.4473 38.6272 98.788 38.9259 98.984 39.3179C99.1893 39.7005 99.292 40.1672 99.292 40.7179C99.292 41.0632 99.2173 41.4039 99.068 41.7399C98.9187 42.0759 98.676 42.3652 98.34 42.6079C98.0133 42.8505 97.57 43.0092 97.01 43.0839V43.1259C97.6353 43.2939 98.172 43.6019 98.62 44.0499C99.0773 44.4979 99.4693 44.9879 99.796 45.5199C100.011 45.8652 100.207 46.1125 100.384 46.2619C100.561 46.4112 100.697 46.4905 100.79 46.4999H97.85C97.962 46.4905 98.0507 46.4299 98.116 46.3179C98.1907 46.1965 98.1673 46.0005 98.046 45.7299C97.85 45.2819 97.57 44.8852 97.206 44.5399C96.8513 44.1852 96.4033 43.9099 95.862 43.7139C95.3207 43.5085 94.6767 43.4059 93.93 43.4059H93.776C93.4867 43.4059 93.3187 43.4292 93.272 43.4759C93.2253 43.5225 93.202 43.6392 93.202 43.8259V45.6599C93.202 45.9585 93.2347 46.1732 93.3 46.3039C93.3653 46.4345 93.4307 46.4999 93.496 46.4999H91.354ZM93.776 42.2859H95.498C96.2447 42.2859 96.8047 42.1552 97.178 41.8939C97.5513 41.6232 97.738 41.2312 97.738 40.7179C97.738 40.3725 97.6633 40.0925 97.514 39.8779C97.374 39.6539 97.15 39.4905 96.842 39.3879C96.534 39.2852 96.1327 39.2339 95.638 39.2339H93.776C93.4867 39.2339 93.3187 39.2479 93.272 39.2759C93.2253 39.3039 93.202 39.4112 93.202 39.5979V41.9079C93.202 42.0945 93.2253 42.2065 93.272 42.2439C93.3187 42.2719 93.4867 42.2859 93.776 42.2859ZM101.703 46.4999C101.769 46.4999 101.834 46.4345 101.899 46.3039C101.965 46.1732 101.997 45.9585 101.997 45.6599V38.9399C101.997 38.6412 101.965 38.4312 101.899 38.3099C101.834 38.1792 101.769 38.1092 101.703 38.0999H109.585V38.3799L109.865 39.7239C109.632 39.6212 109.221 39.5139 108.633 39.4019C108.045 39.2805 107.336 39.2199 106.505 39.2199H104.139C103.859 39.2199 103.691 39.2432 103.635 39.2899C103.589 39.3272 103.565 39.4439 103.565 39.6399V41.2359C103.565 41.4412 103.589 41.5625 103.635 41.5999C103.691 41.6372 103.855 41.6559 104.125 41.6559H106.435C106.977 41.6559 107.411 41.6279 107.737 41.5719C108.073 41.5065 108.293 41.4412 108.395 41.3759C108.358 41.4972 108.316 41.6419 108.269 41.8099C108.223 41.9779 108.185 42.1459 108.157 42.3139C108.129 42.4819 108.115 42.6359 108.115 42.7759H104.125C103.855 42.7759 103.691 42.7945 103.635 42.8319C103.589 42.8599 103.565 42.9812 103.565 43.1959V44.9319C103.565 45.1465 103.589 45.2725 103.635 45.3099C103.682 45.3472 103.845 45.3659 104.125 45.3659H108.199C108.741 45.3659 109.175 45.3052 109.501 45.1839C109.837 45.0532 110.057 44.9272 110.159 44.8059L109.879 46.0659V46.4999H101.703ZM115.866 46.6399C114.26 46.6399 113.056 46.2945 112.254 45.6039C111.46 44.9039 111.064 43.8025 111.064 42.2999C111.064 41.4319 111.227 40.6759 111.554 40.0319C111.88 39.3785 112.398 38.8699 113.108 38.5059C113.817 38.1419 114.736 37.9599 115.866 37.9599C116.752 37.9599 117.49 38.0065 118.078 38.0999C118.666 38.1932 119.062 38.2865 119.268 38.3799V38.6599L119.548 39.9199C119.37 39.7985 119.104 39.6725 118.75 39.5419C118.404 39.4112 117.989 39.3039 117.504 39.2199C117.018 39.1265 116.482 39.0799 115.894 39.0799C115.063 39.0799 114.41 39.2199 113.934 39.4999C113.458 39.7705 113.122 40.1485 112.926 40.6339C112.73 41.1192 112.632 41.6745 112.632 42.2999C112.632 42.9252 112.73 43.4805 112.926 43.9659C113.131 44.4419 113.495 44.8199 114.018 45.0999C114.55 45.3705 115.31 45.5059 116.3 45.5059C117.102 45.5059 117.77 45.4125 118.302 45.2259C118.843 45.0299 119.212 44.8432 119.408 44.6659V45.0859L119.548 45.9399C119.389 46.0892 119.002 46.2432 118.386 46.4019C117.779 46.5605 116.939 46.6399 115.866 46.6399ZM120.967 46.4999C121.033 46.4999 121.093 46.4345 121.149 46.3039C121.215 46.1732 121.247 45.9585 121.247 45.6599V38.9399C121.247 38.6412 121.215 38.4312 121.149 38.3099C121.084 38.1792 121.019 38.1092 120.953 38.0999H125.545C126.413 38.0999 127.09 38.2072 127.575 38.4219C128.061 38.6272 128.401 38.9259 128.597 39.3179C128.803 39.7005 128.905 40.1672 128.905 40.7179C128.905 41.0632 128.831 41.4039 128.681 41.7399C128.532 42.0759 128.289 42.3652 127.953 42.6079C127.627 42.8505 127.183 43.0092 126.623 43.0839V43.1259C127.249 43.2939 127.785 43.6019 128.233 44.0499C128.691 44.4979 129.083 44.9879 129.409 45.5199C129.624 45.8652 129.82 46.1125 129.997 46.2619C130.175 46.4112 130.31 46.4905 130.403 46.4999H127.463C127.575 46.4905 127.664 46.4299 127.729 46.3179C127.804 46.1965 127.781 46.0005 127.659 45.7299C127.463 45.2819 127.183 44.8852 126.819 44.5399C126.465 44.1852 126.017 43.9099 125.475 43.7139C124.934 43.5085 124.29 43.4059 123.543 43.4059H123.389C123.1 43.4059 122.932 43.4292 122.885 43.4759C122.839 43.5225 122.815 43.6392 122.815 43.8259V45.6599C122.815 45.9585 122.848 46.1732 122.913 46.3039C122.979 46.4345 123.044 46.4999 123.109 46.4999H120.967ZM123.389 42.2859H125.111C125.858 42.2859 126.418 42.1552 126.791 41.8939C127.165 41.6232 127.351 41.2312 127.351 40.7179C127.351 40.3725 127.277 40.0925 127.127 39.8779C126.987 39.6539 126.763 39.4905 126.455 39.3879C126.147 39.2852 125.746 39.2339 125.251 39.2339H123.389C123.1 39.2339 122.932 39.2479 122.885 39.2759C122.839 39.3039 122.815 39.4112 122.815 39.5979V41.9079C122.815 42.0945 122.839 42.2065 122.885 42.2439C122.932 42.2719 123.1 42.2859 123.389 42.2859ZM135.285 46.6399C134.342 46.6399 133.568 46.4905 132.961 46.1919C132.354 45.8932 131.906 45.4639 131.617 44.9039C131.328 44.3345 131.183 43.6579 131.183 42.8739V38.9259C131.183 38.6272 131.15 38.4172 131.085 38.2959C131.029 38.1652 130.968 38.0999 130.903 38.0999H133.031C132.966 38.1092 132.9 38.1745 132.835 38.2959C132.779 38.4172 132.751 38.6272 132.751 38.9259V42.8459C132.751 43.4992 132.854 44.0219 133.059 44.4139C133.264 44.7965 133.558 45.0765 133.941 45.2539C134.324 45.4219 134.776 45.5059 135.299 45.5059H135.453C135.854 45.5059 136.209 45.4592 136.517 45.3659C136.825 45.2725 137.086 45.1232 137.301 44.9179C137.516 44.7125 137.674 44.4419 137.777 44.1059C137.889 43.7605 137.945 43.3405 137.945 42.8459V38.9259C137.945 38.6272 137.912 38.4172 137.847 38.2959C137.791 38.1652 137.73 38.0999 137.665 38.0999H139.793C139.728 38.1092 139.662 38.1792 139.597 38.3099C139.541 38.4312 139.513 38.6412 139.513 38.9399V42.8739C139.513 43.6579 139.364 44.3345 139.065 44.9039C138.776 45.4639 138.328 45.8932 137.721 46.1919C137.124 46.4905 136.358 46.6399 135.425 46.6399H135.285ZM141.338 46.4999C141.403 46.4999 141.469 46.4345 141.534 46.3039C141.599 46.1732 141.632 45.9585 141.632 45.6599V38.9399C141.632 38.6412 141.599 38.4312 141.534 38.3099C141.469 38.1792 141.403 38.1092 141.338 38.0999H143.494C143.429 38.0999 143.363 38.1652 143.298 38.2959C143.233 38.4265 143.2 38.6459 143.2 38.9539V45.6599C143.2 45.9585 143.233 46.1732 143.298 46.3039C143.363 46.4345 143.429 46.4999 143.494 46.4999H141.338ZM147.728 46.4999C147.793 46.4999 147.859 46.4345 147.924 46.3039C147.989 46.1732 148.022 45.9585 148.022 45.6599V39.6399C148.022 39.4345 147.999 39.3132 147.952 39.2759C147.905 39.2385 147.742 39.2199 147.462 39.2199H146.44C145.899 39.2199 145.46 39.2805 145.124 39.4019C144.797 39.5139 144.583 39.6212 144.48 39.7239L144.76 38.3799V38.0999H152.852V38.3799L153.132 39.7239C153.029 39.6212 152.81 39.5139 152.474 39.4019C152.147 39.2805 151.713 39.2199 151.172 39.2199H150.164C149.875 39.2199 149.707 39.2385 149.66 39.2759C149.613 39.3132 149.59 39.4345 149.59 39.6399V45.6599C149.59 45.9585 149.623 46.1732 149.688 46.3039C149.753 46.4345 149.819 46.4999 149.884 46.4999H147.728ZM161.867 46.6399C160.85 46.6399 159.949 46.5932 159.165 46.4999C158.381 46.4065 157.816 46.3132 157.471 46.2199V45.9399L157.191 44.4419C157.322 44.5912 157.569 44.7499 157.933 44.9179C158.306 45.0859 158.801 45.2305 159.417 45.3519C160.033 45.4639 160.766 45.5199 161.615 45.5199C162.38 45.5199 162.959 45.4685 163.351 45.3659C163.752 45.2539 164.023 45.1045 164.163 44.9179C164.312 44.7219 164.387 44.4979 164.387 44.2459C164.387 43.9472 164.266 43.7092 164.023 43.5319C163.78 43.3545 163.416 43.2145 162.931 43.1119C162.455 42.9999 161.862 42.9019 161.153 42.8179C160.229 42.6965 159.487 42.5379 158.927 42.3419C158.367 42.1365 157.961 41.8659 157.709 41.5299C157.457 41.1939 157.331 40.7692 157.331 40.2559C157.331 39.8172 157.462 39.4252 157.723 39.0799C157.994 38.7345 158.4 38.4639 158.941 38.2679C159.482 38.0625 160.173 37.9599 161.013 37.9599C161.984 37.9599 162.828 38.0065 163.547 38.0999C164.266 38.1932 164.774 38.2865 165.073 38.3799V38.6599L165.493 39.9199C165.297 39.7985 164.994 39.6725 164.583 39.5419C164.182 39.4112 163.696 39.3039 163.127 39.2199C162.558 39.1265 161.923 39.0799 161.223 39.0799C160.644 39.0799 160.182 39.1219 159.837 39.2059C159.501 39.2899 159.258 39.4159 159.109 39.5839C158.969 39.7425 158.899 39.9385 158.899 40.1719C158.899 40.4799 159.011 40.7272 159.235 40.9139C159.468 41.1005 159.804 41.2452 160.243 41.3479C160.691 41.4505 161.232 41.5392 161.867 41.6139C162.875 41.7259 163.678 41.8845 164.275 42.0899C164.872 42.2952 165.302 42.5705 165.563 42.9159C165.824 43.2612 165.955 43.7092 165.955 44.2599C165.955 44.6239 165.866 44.9552 165.689 45.2539C165.521 45.5432 165.264 45.7952 164.919 46.0099C164.574 46.2152 164.144 46.3739 163.631 46.4859C163.127 46.5885 162.539 46.6399 161.867 46.6399ZM167.356 46.4999C167.421 46.4999 167.486 46.4345 167.552 46.3039C167.617 46.1732 167.65 45.9585 167.65 45.6599V38.9399C167.65 38.6412 167.617 38.4312 167.552 38.3099C167.486 38.1792 167.421 38.1092 167.356 38.0999H169.512C169.446 38.0999 169.381 38.1652 169.316 38.2959C169.25 38.4265 169.218 38.6459 169.218 38.9539V45.6599C169.218 45.9585 169.25 46.1732 169.316 46.3039C169.381 46.4345 169.446 46.4999 169.512 46.4999H167.356ZM173.745 46.4999C173.811 46.4999 173.876 46.4345 173.941 46.3039C174.007 46.1732 174.039 45.9585 174.039 45.6599V39.6399C174.039 39.4345 174.016 39.3132 173.969 39.2759C173.923 39.2385 173.759 39.2199 173.479 39.2199H172.457C171.916 39.2199 171.477 39.2805 171.141 39.4019C170.815 39.5139 170.6 39.6212 170.497 39.7239L170.777 38.3799V38.0999H178.869V38.3799L179.149 39.7239C179.047 39.6212 178.827 39.5139 178.491 39.4019C178.165 39.2805 177.731 39.2199 177.189 39.2199H176.181C175.892 39.2199 175.724 39.2385 175.677 39.2759C175.631 39.3132 175.607 39.4345 175.607 39.6399V45.6599C175.607 45.9585 175.64 46.1732 175.705 46.3039C175.771 46.4345 175.836 46.4999 175.901 46.4999H173.745ZM180.125 46.4999C180.19 46.4999 180.256 46.4345 180.321 46.3039C180.386 46.1732 180.419 45.9585 180.419 45.6599V38.9399C180.419 38.6412 180.386 38.4312 180.321 38.3099C180.256 38.1792 180.19 38.1092 180.125 38.0999H188.007V38.3799L188.287 39.7239C188.054 39.6212 187.643 39.5139 187.055 39.4019C186.467 39.2805 185.758 39.2199 184.927 39.2199H182.561C182.281 39.2199 182.113 39.2432 182.057 39.2899C182.01 39.3272 181.987 39.4439 181.987 39.6399V41.2359C181.987 41.4412 182.01 41.5625 182.057 41.5999C182.113 41.6372 182.276 41.6559 182.547 41.6559H184.857C185.398 41.6559 185.832 41.6279 186.159 41.5719C186.495 41.5065 186.714 41.4412 186.817 41.3759C186.78 41.4972 186.738 41.6419 186.691 41.8099C186.644 41.9779 186.607 42.1459 186.579 42.3139C186.551 42.4819 186.537 42.6359 186.537 42.7759H182.547C182.276 42.7759 182.113 42.7945 182.057 42.8319C182.01 42.8599 181.987 42.9812 181.987 43.1959V44.9319C181.987 45.1465 182.01 45.2725 182.057 45.3099C182.104 45.3472 182.267 45.3659 182.547 45.3659H186.621C187.162 45.3659 187.596 45.3052 187.923 45.1839C188.259 45.0532 188.478 44.9272 188.581 44.8059L188.301 46.0659V46.4999H180.125Z" fill="white"/>
<path d="M295.46 37.5C295.535 37.5 295.609 37.4253 295.684 37.276C295.759 37.1267 295.796 36.8813 295.796 36.54V28.86C295.796 28.5187 295.759 28.2787 295.684 28.14C295.609 27.9907 295.535 27.9107 295.46 27.9H304.468V28.22L304.788 29.756C304.521 29.6387 304.052 29.516 303.38 29.388C302.708 29.2493 301.897 29.18 300.948 29.18H298.244C297.924 29.18 297.732 29.2067 297.668 29.26C297.615 29.3027 297.588 29.436 297.588 29.66V31.484C297.588 31.7187 297.615 31.8573 297.668 31.9C297.732 31.9427 297.919 31.964 298.228 31.964H300.868C301.487 31.964 301.983 31.932 302.356 31.868C302.74 31.7933 302.991 31.7187 303.108 31.644C303.065 31.7827 303.017 31.948 302.964 32.14C302.911 32.332 302.868 32.524 302.836 32.716C302.804 32.908 302.788 33.084 302.788 33.244H298.228C297.919 33.244 297.732 33.2653 297.668 33.308C297.615 33.34 297.588 33.4787 297.588 33.724V35.708C297.588 35.9533 297.615 36.0973 297.668 36.14C297.721 36.1827 297.908 36.204 298.228 36.204H302.884C303.503 36.204 303.999 36.1347 304.372 35.996C304.756 35.8467 305.007 35.7027 305.124 35.564L304.804 37.004V37.5H295.46ZM306.398 37.5C306.472 37.5 306.547 37.4253 306.622 37.276C306.696 37.1267 306.734 36.8813 306.734 36.54V28.86C306.734 28.5187 306.696 28.2787 306.622 28.14C306.547 27.9907 306.472 27.9107 306.398 27.9H308.878C308.867 27.932 308.904 28.028 308.99 28.188C309.086 28.348 309.256 28.5827 309.502 28.892C309.576 28.988 309.731 29.18 309.966 29.468C310.211 29.756 310.515 30.1133 310.878 30.54C311.24 30.956 311.63 31.4147 312.046 31.916C312.472 32.4067 312.899 32.908 313.326 33.42C313.763 33.9213 314.179 34.4013 314.574 34.86H314.606V28.86C314.606 28.5187 314.568 28.2787 314.494 28.14C314.419 27.9907 314.344 27.9107 314.27 27.9H316.734C316.659 27.9 316.584 27.9747 316.51 28.124C316.435 28.2733 316.398 28.524 316.398 28.876V36.54C316.398 36.8813 316.435 37.1267 316.51 37.276C316.584 37.4253 316.659 37.5 316.734 37.5H314.638C314.648 37.468 314.606 37.372 314.51 37.212C314.414 37.0413 314.243 36.8067 313.998 36.508C313.838 36.3053 313.603 36.0227 313.294 35.66C312.995 35.2867 312.654 34.8653 312.27 34.396C311.886 33.916 311.475 33.4147 311.038 32.892C310.611 32.3693 310.184 31.8467 309.758 31.324C309.342 30.8013 308.947 30.316 308.574 29.868H308.526V36.54C308.526 36.8813 308.563 37.1267 308.638 37.276C308.712 37.4253 308.787 37.5 308.862 37.5H306.398ZM321.56 37.5C321.634 37.5 321.709 37.4253 321.784 37.276C321.858 37.1267 321.896 36.8813 321.896 36.54V29.66C321.896 29.4253 321.869 29.2867 321.816 29.244C321.762 29.2013 321.576 29.18 321.256 29.18H320.088C319.469 29.18 318.968 29.2493 318.584 29.388C318.21 29.516 317.965 29.6387 317.848 29.756L318.168 28.22V27.9H327.416V28.22L327.736 29.756C327.618 29.6387 327.368 29.516 326.984 29.388C326.61 29.2493 326.114 29.18 325.496 29.18H324.344C324.013 29.18 323.821 29.2013 323.768 29.244C323.714 29.2867 323.688 29.4253 323.688 29.66V36.54C323.688 36.8813 323.725 37.1267 323.8 37.276C323.874 37.4253 323.949 37.5 324.024 37.5H321.56ZM328.867 37.5C328.941 37.5 329.011 37.4253 329.075 37.276C329.149 37.1267 329.187 36.8813 329.187 36.54V28.86C329.187 28.5187 329.149 28.2787 329.075 28.14C329 27.9907 328.925 27.9107 328.851 27.9H334.099C335.091 27.9 335.864 28.0227 336.419 28.268C336.973 28.5027 337.363 28.844 337.587 29.292C337.821 29.7293 337.939 30.2627 337.939 30.892C337.939 31.2867 337.853 31.676 337.683 32.06C337.512 32.444 337.235 32.7747 336.851 33.052C336.477 33.3293 335.971 33.5107 335.331 33.596V33.644C336.045 33.836 336.659 34.188 337.171 34.7C337.693 35.212 338.141 35.772 338.515 36.38C338.76 36.7747 338.984 37.0573 339.187 37.228C339.389 37.3987 339.544 37.4893 339.651 37.5H336.291C336.419 37.4893 336.52 37.42 336.595 37.292C336.68 37.1533 336.653 36.9293 336.515 36.62C336.291 36.108 335.971 35.6547 335.555 35.26C335.149 34.8547 334.637 34.54 334.019 34.316C333.4 34.0813 332.664 33.964 331.811 33.964H331.635C331.304 33.964 331.112 33.9907 331.059 34.044C331.005 34.0973 330.979 34.2307 330.979 34.444V36.54C330.979 36.8813 331.016 37.1267 331.091 37.276C331.165 37.4253 331.24 37.5 331.315 37.5H328.867ZM331.635 32.684H333.603C334.456 32.684 335.096 32.5347 335.523 32.236C335.949 31.9267 336.163 31.4787 336.163 30.892C336.163 30.4973 336.077 30.1773 335.907 29.932C335.747 29.676 335.491 29.4893 335.139 29.372C334.787 29.2547 334.328 29.196 333.763 29.196H331.635C331.304 29.196 331.112 29.212 331.059 29.244C331.005 29.276 330.979 29.3987 330.979 29.612V32.252C330.979 32.4653 331.005 32.5933 331.059 32.636C331.112 32.668 331.304 32.684 331.635 32.684ZM343.51 37.5C343.595 37.5 343.68 37.4307 343.766 37.292C343.862 37.1427 343.91 36.892 343.91 36.54V33.068C343.611 32.716 343.286 32.3373 342.934 31.932C342.582 31.516 342.235 31.1107 341.894 30.716C341.552 30.3107 341.243 29.948 340.966 29.628C340.688 29.308 340.475 29.0627 340.326 28.892C340.016 28.5507 339.76 28.3053 339.558 28.156C339.366 27.996 339.238 27.9107 339.174 27.9H342.294C342.219 27.9107 342.192 27.9907 342.214 28.14C342.235 28.2893 342.368 28.54 342.614 28.892C342.731 29.052 342.875 29.2547 343.046 29.5C343.227 29.7347 343.419 29.996 343.622 30.284C343.824 30.5613 344.027 30.8387 344.23 31.116C344.443 31.3933 344.635 31.644 344.806 31.868H344.822C344.982 31.6547 345.163 31.42 345.366 31.164C345.579 30.8973 345.787 30.6253 345.99 30.348C346.203 30.0707 346.406 29.804 346.598 29.548C346.79 29.2813 346.95 29.052 347.078 28.86C347.323 28.4973 347.456 28.2467 347.478 28.108C347.499 27.9693 347.472 27.9 347.398 27.9H350.406C350.352 27.9 350.235 27.9747 350.054 28.124C349.872 28.2627 349.632 28.5027 349.334 28.844C349.035 29.196 348.731 29.548 348.422 29.9C348.123 30.252 347.819 30.604 347.51 30.956C347.211 31.308 346.912 31.66 346.614 32.012C346.315 32.364 346.011 32.716 345.702 33.068V36.54C345.702 36.892 345.734 37.1427 345.798 37.292C345.872 37.4307 345.947 37.5 346.022 37.5H343.51Z" fill="white"/>
<path d="M294.5 45.5H350.5" stroke="white" stroke-width="2"/>
<defs>
<clipPath id="clip0_161_266">
<rect width="50" height="25" fill="white" transform="matrix(-1 0 0 1 74.5 17.5002)"/>
</clipPath>
</defs>
</svg>
