<svg width="57" height="25" viewBox="0 0 57 25" fill="none" xmlns="http://www.w3.org/2000/svg">
<path d="M1.46 15.5C1.53467 15.5 1.60933 15.4253 1.684 15.276C1.75867 15.1267 1.796 14.8813 1.796 14.54V6.86C1.796 6.51867 1.75867 6.27867 1.684 6.14C1.60933 5.99067 1.53467 5.91067 1.46 5.9H10.468V6.22L10.788 7.756C10.5213 7.63867 10.052 7.516 9.38 7.388C8.708 7.24933 7.89733 7.18 6.948 7.18H4.244C3.924 7.18 3.732 7.20667 3.668 7.26C3.61467 7.30267 3.588 7.436 3.588 7.66V9.484C3.588 9.71867 3.61467 9.85733 3.668 9.9C3.732 9.94267 3.91867 9.964 4.228 9.964H6.868C7.48667 9.964 7.98267 9.932 8.356 9.868C8.74 9.79333 8.99067 9.71867 9.108 9.644C9.06533 9.78267 9.01733 9.948 8.964 10.14C8.91067 10.332 8.868 10.524 8.836 10.716C8.804 10.908 8.788 11.084 8.788 11.244H4.228C3.91867 11.244 3.732 11.2653 3.668 11.308C3.61467 11.34 3.588 11.4787 3.588 11.724V13.708C3.588 13.9533 3.61467 14.0973 3.668 14.14C3.72133 14.1827 3.908 14.204 4.228 14.204H8.884C9.50267 14.204 9.99867 14.1347 10.372 13.996C10.756 13.8467 11.0067 13.7027 11.124 13.564L10.804 15.004V15.5H1.46ZM12.3975 15.5C12.4722 15.5 12.5468 15.4253 12.6215 15.276C12.6962 15.1267 12.7335 14.8813 12.7335 14.54V6.86C12.7335 6.51867 12.6962 6.27867 12.6215 6.14C12.5468 5.99067 12.4722 5.91067 12.3975 5.9H14.8775C14.8668 5.932 14.9042 6.028 14.9895 6.188C15.0855 6.348 15.2562 6.58267 15.5015 6.892C15.5762 6.988 15.7308 7.18 15.9655 7.468C16.2108 7.756 16.5148 8.11333 16.8775 8.54C17.2402 8.956 17.6295 9.41467 18.0455 9.916C18.4722 10.4067 18.8988 10.908 19.3255 11.42C19.7628 11.9213 20.1788 12.4013 20.5735 12.86H20.6055V6.86C20.6055 6.51867 20.5682 6.27867 20.4935 6.14C20.4188 5.99067 20.3442 5.91067 20.2695 5.9H22.7335C22.6588 5.9 22.5842 5.97467 22.5095 6.124C22.4348 6.27333 22.3975 6.524 22.3975 6.876V14.54C22.3975 14.8813 22.4348 15.1267 22.5095 15.276C22.5842 15.4253 22.6588 15.5 22.7335 15.5H20.6375C20.6482 15.468 20.6055 15.372 20.5095 15.212C20.4135 15.0413 20.2428 14.8067 19.9975 14.508C19.8375 14.3053 19.6028 14.0227 19.2935 13.66C18.9948 13.2867 18.6535 12.8653 18.2695 12.396C17.8855 11.916 17.4748 11.4147 17.0375 10.892C16.6108 10.3693 16.1842 9.84667 15.7575 9.324C15.3415 8.80133 14.9468 8.316 14.5735 7.868H14.5255V14.54C14.5255 14.8813 14.5628 15.1267 14.6375 15.276C14.7122 15.4253 14.7868 15.5 14.8615 15.5H12.3975ZM27.5595 15.5C27.6342 15.5 27.7088 15.4253 27.7835 15.276C27.8582 15.1267 27.8955 14.8813 27.8955 14.54V7.66C27.8955 7.42533 27.8688 7.28667 27.8155 7.244C27.7622 7.20133 27.5755 7.18 27.2555 7.18H26.0875C25.4688 7.18 24.9675 7.24933 24.5835 7.388C24.2102 7.516 23.9648 7.63867 23.8475 7.756L24.1675 6.22V5.9H33.4155V6.22L33.7355 7.756C33.6182 7.63867 33.3675 7.516 32.9835 7.388C32.6102 7.24933 32.1142 7.18 31.4955 7.18H30.3435C30.0128 7.18 29.8208 7.20133 29.7675 7.244C29.7142 7.28667 29.6875 7.42533 29.6875 7.66V14.54C29.6875 14.8813 29.7248 15.1267 29.7995 15.276C29.8742 15.4253 29.9488 15.5 30.0235 15.5H27.5595ZM34.8666 15.5C34.9413 15.5 35.0106 15.4253 35.0746 15.276C35.1493 15.1267 35.1866 14.8813 35.1866 14.54V6.86C35.1866 6.51867 35.1493 6.27867 35.0746 6.14C35 5.99067 34.9253 5.91067 34.8506 5.9H40.0986C41.0906 5.9 41.864 6.02267 42.4186 6.268C42.9733 6.50267 43.3626 6.844 43.5866 7.292C43.8213 7.72933 43.9386 8.26267 43.9386 8.892C43.9386 9.28667 43.8533 9.676 43.6826 10.06C43.512 10.444 43.2346 10.7747 42.8506 11.052C42.4773 11.3293 41.9706 11.5107 41.3306 11.596V11.644C42.0453 11.836 42.6586 12.188 43.1706 12.7C43.6933 13.212 44.1413 13.772 44.5146 14.38C44.76 14.7747 44.984 15.0573 45.1866 15.228C45.3893 15.3987 45.544 15.4893 45.6506 15.5H42.2906C42.4186 15.4893 42.52 15.42 42.5946 15.292C42.68 15.1533 42.6533 14.9293 42.5146 14.62C42.2906 14.108 41.9706 13.6547 41.5546 13.26C41.1493 12.8547 40.6373 12.54 40.0186 12.316C39.4 12.0813 38.664 11.964 37.8106 11.964H37.6346C37.304 11.964 37.112 11.9907 37.0586 12.044C37.0053 12.0973 36.9786 12.2307 36.9786 12.444V14.54C36.9786 14.8813 37.016 15.1267 37.0906 15.276C37.1653 15.4253 37.24 15.5 37.3146 15.5H34.8666ZM37.6346 10.684H39.6026C40.456 10.684 41.096 10.5347 41.5226 10.236C41.9493 9.92667 42.1626 9.47867 42.1626 8.892C42.1626 8.49733 42.0773 8.17733 41.9066 7.932C41.7466 7.676 41.4906 7.48933 41.1386 7.372C40.7866 7.25467 40.328 7.196 39.7626 7.196H37.6346C37.304 7.196 37.112 7.212 37.0586 7.244C37.0053 7.276 36.9786 7.39867 36.9786 7.612V10.252C36.9786 10.4653 37.0053 10.5933 37.0586 10.636C37.112 10.668 37.304 10.684 37.6346 10.684ZM49.5098 15.5C49.5951 15.5 49.6804 15.4307 49.7658 15.292C49.8618 15.1427 49.9098 14.892 49.9098 14.54V11.068C49.6111 10.716 49.2858 10.3373 48.9338 9.932C48.5818 9.516 48.2351 9.11067 47.8938 8.716C47.5524 8.31067 47.2431 7.948 46.9658 7.628C46.6884 7.308 46.4751 7.06267 46.3258 6.892C46.0164 6.55067 45.7604 6.30533 45.5578 6.156C45.3658 5.996 45.2378 5.91067 45.1738 5.9H48.2938C48.2191 5.91067 48.1924 5.99067 48.2138 6.14C48.2351 6.28933 48.3684 6.54 48.6138 6.892C48.7311 7.052 48.8751 7.25467 49.0458 7.5C49.2271 7.73467 49.4191 7.996 49.6218 8.284C49.8244 8.56133 50.0271 8.83867 50.2298 9.116C50.4431 9.39333 50.6351 9.644 50.8058 9.868H50.8218C50.9818 9.65467 51.1631 9.42 51.3658 9.164C51.5791 8.89733 51.7871 8.62533 51.9898 8.348C52.2031 8.07067 52.4058 7.804 52.5978 7.548C52.7898 7.28133 52.9498 7.052 53.0778 6.86C53.3231 6.49733 53.4564 6.24667 53.4778 6.108C53.4991 5.96933 53.4724 5.9 53.3978 5.9H56.4058C56.3524 5.9 56.2351 5.97467 56.0538 6.124C55.8724 6.26267 55.6324 6.50267 55.3338 6.844C55.0351 7.196 54.7311 7.548 54.4218 7.9C54.1231 8.252 53.8191 8.604 53.5098 8.956C53.2111 9.308 52.9124 9.66 52.6138 10.012C52.3151 10.364 52.0111 10.716 51.7018 11.068V14.54C51.7018 14.892 51.7338 15.1427 51.7978 15.292C51.8724 15.4307 51.9471 15.5 52.0218 15.5H49.5098Z" fill="white"/>
<path d="M0.5 23.5H56.5" stroke="white" stroke-width="2"/>
</svg>
