<svg width="247" height="34" viewBox="0 0 247 34" fill="none" xmlns="http://www.w3.org/2000/svg">
<g clip-path="url(#clip0_161_267)">
<path d="M0.5 0.500153L1.59407 5.55072L1.66516 5.69381L4.38611 6.59167C11.2027 12.5453 17.8112 18.7473 24.6016 24.7343C24.8329 24.9382 25.1053 25.2095 25.3395 25.3904C25.3956 25.4334 25.4787 25.5068 25.552 25.5002L25.7877 25.3385L46.5675 6.83041C47.3054 6.44339 48.1525 6.26397 48.9382 5.97704C49.0527 5.93477 49.4725 5.8028 49.5294 5.74423C49.608 5.66341 49.8011 4.52459 49.8422 4.3118C50.0854 3.07066 50.3099 1.81914 50.5 0.571329L50.3548 0.58764L25.7705 8.82335L0.5 0.500153ZM11.2124 8.86265L22.9164 12.8189L22.9777 12.9004L22.9867 19.3308C22.9882 19.4709 22.9283 19.6155 22.7697 19.5421L11.1466 9.10806C11.0657 9.02799 11.0553 8.84411 11.2124 8.86191V8.86265ZM39.8968 9.24152C39.8632 9.26005 39.8243 9.27191 39.7958 9.29935C38.3059 10.7325 36.6768 12.1197 35.127 13.498C33.2673 15.1514 31.41 16.8188 29.5234 18.4411C29.3468 18.5931 28.5124 19.3434 28.3747 19.3693C28.3336 19.3767 28.3134 19.3938 28.2819 19.3486C28.2423 18.4774 28.2767 17.604 28.267 16.7321C28.2542 15.6148 28.124 14.238 28.2281 13.1407C28.2438 12.9753 28.2864 12.8671 28.4271 12.7685C28.6598 12.6046 29.7217 12.3088 30.0697 12.1901C33.2052 11.1203 36.3692 10.1312 39.5167 9.09694L39.8055 9.04059C39.8796 9.05987 39.935 9.17701 39.8961 9.24226L39.8968 9.24152Z" fill="white"/>
</g>
<path d="M174.672 7.54802C174.562 7.67832 174.293 7.95295 174.129 7.98903L171.893 8.00106C171.41 8.2797 171.717 8.44007 172.014 8.64454C172.58 9.03344 175.374 10.7514 175.874 10.8236C176.111 10.8576 176.897 10.7233 176.711 11.1583C176.606 11.4049 175.543 12.0544 175.266 12.1125C174.819 12.2067 174.616 12.0344 174.263 11.8179C173.3 11.2285 172.483 10.4026 171.552 9.77916C171.386 9.76112 171.356 9.79118 171.338 9.94554C171.207 11.018 171.45 12.3471 171.33 13.4476C171.292 13.6461 170.676 14.4158 170.543 14.4339C170.401 14.4539 170.236 14.2134 170.172 14.1031C169.759 13.3774 170.128 11.012 170.002 10.0418C169.923 9.43436 169.223 10.3665 169.043 10.5249C168.557 10.9599 167.775 11.7156 167.269 12.0604C167.213 12.0985 166.605 12.4092 166.567 12.4172C166.386 12.4553 166.123 12.1286 166.065 11.9782C165.971 11.7317 166.139 11.3387 165.79 11.2405C165.654 11.2024 165.515 11.4089 165.499 11.5332C165.411 12.1907 165.626 13.2271 165.491 13.8345C165.407 14.2134 165.026 14.1592 164.783 13.9407C164.621 13.7944 164.334 13.2091 164.249 12.9886C164.065 12.5215 164.263 10.8436 164.213 10.1881C164.163 9.53259 163.74 9.45641 163.158 9.66088C162.831 9.77515 162.131 10.5249 161.892 10.5028C161.776 10.4908 161.276 9.95556 161.17 9.82927C161.065 9.70298 160.821 9.41833 160.813 9.27199C160.791 8.8851 161.362 8.85904 161.625 8.74678C162.117 8.5383 163.575 7.63622 163.806 7.18719C163.902 7.00276 163.926 6.75619 164.059 6.57377C164.083 6.30114 163.423 6.34525 163.252 6.38935C162.969 6.46151 162.283 7.03484 162.041 7.02682C161.83 7.0208 161.471 6.59783 161.437 6.38734C161.346 5.79999 161.637 5.78796 161.711 5.41711C161.746 5.2387 161.687 5.0643 161.758 4.88789C161.788 4.81372 162.139 4.46091 162.213 4.43084C162.749 4.21233 162.949 4.63731 163.323 4.68342C163.503 4.70547 164.007 4.70747 164.183 4.67941C164.38 4.64934 164.476 4.51102 164.498 4.32259C164.526 4.08604 164.53 3.39645 164.494 3.16993C164.466 2.98551 164.314 2.84518 164.249 2.69484C164.207 2.60062 163.973 2.01728 163.979 1.97518C164.017 1.71658 164.639 1.15529 164.91 1.12522C165.636 1.04704 165.76 1.89299 166.075 2.35004C166.147 2.72691 165.84 2.82113 165.794 3.11982C165.764 3.31627 165.756 4.22837 165.792 4.4148C165.869 4.82775 166.396 4.56314 166.605 4.79969C166.755 4.96807 166.763 5.51333 166.555 5.66568L165.7 6.10469C165.608 6.17886 165.497 6.25504 165.503 6.38534C165.513 6.54972 166.089 7.16914 166.242 7.2353C166.799 7.47786 167.375 6.73615 167.875 6.65797C168.439 6.56976 169.291 6.76221 169.823 6.64393C169.996 6.60585 170.012 6.48356 170.036 6.32921C170.076 6.0666 170.124 5.26075 169.857 5.14047L167.873 5.11441C167.785 5.09837 167.63 4.94602 167.588 4.87185C167.536 4.77563 167.283 4.21434 167.273 4.13014C167.239 3.84749 167.227 2.65274 167.275 2.39815C167.341 2.05336 167.746 2.12753 167.967 2.13154C168.045 2.13154 168.116 2.08343 168.196 2.09345C168.417 2.11951 168.812 2.5064 168.85 2.73693C168.924 3.17594 168.601 4.4168 169.305 4.39676C169.588 4.38874 169.983 4.05397 170.036 3.78134C170.084 3.54079 170.072 2.57656 169.987 2.36207C169.929 2.21373 169.757 2.0734 169.723 1.90502C169.675 1.67649 169.681 1.37379 169.879 1.21743C170 1.12121 170.487 0.902708 170.634 0.940796C170.764 0.974874 171.32 1.30163 171.414 1.40787C171.739 1.78274 171.394 1.83686 171.344 2.1576C171.306 2.40818 171.352 2.75498 171.344 3.02159C171.334 3.30825 171.125 3.95574 171.52 4.04394C171.645 4.07201 172.309 4.10007 172.455 4.09005C172.794 4.07 173.067 3.61496 173.109 3.30424C173.172 2.83115 173.031 2.16361 173.115 1.7226C173.167 1.44796 173.579 1.41789 173.797 1.46801C173.882 1.48806 174.748 2.00525 174.813 2.08142C174.979 2.27988 175.067 2.60262 175.007 2.85521L173.735 4.94402C173.641 5.03824 173.509 5.09837 173.378 5.11241C172.76 5.18658 172.02 5.03623 171.388 5.13245C170.86 5.42112 171.215 6.54771 171.751 6.64794L174.502 6.672C174.997 6.96868 175.031 7.12103 174.674 7.54601L174.672 7.54802ZM169.179 8.00908C168.266 8.03514 167.217 8.24362 166.292 8.33383C166.055 8.35788 165.646 8.24362 165.529 8.52828C165.479 8.64855 165.479 10.0297 165.503 10.2362C165.527 10.4427 165.848 10.7995 166.057 10.8336C166.244 10.8637 166.428 10.8155 166.605 10.7634C167.201 10.593 168.856 9.07353 169.283 8.55033C169.474 8.31579 169.677 7.99505 169.179 8.00908Z" fill="white"/>
<path d="M146.138 3.65887C146.249 3.77714 146.397 3.66288 146.486 3.57668C146.837 3.23589 147.174 2.68061 147.535 2.32179L148.018 1.26736C148.363 1.01277 148.741 1.12503 148.997 1.43574C149.06 1.51392 149.519 2.39195 149.523 2.44808C149.547 2.81292 149.128 2.80089 148.933 2.90713C148.737 3.01338 148.359 3.57066 148.616 3.69495L152.515 3.72101C152.773 3.70297 152.916 3.40829 153.185 3.42633C153.399 3.44036 153.528 3.68693 153.534 3.88739C153.55 4.48878 152.826 4.73936 152.326 4.77945C150.926 4.8897 149.383 4.69525 147.968 4.77544C147.611 4.86765 146.562 5.88399 147.396 5.98021C147.796 6.02632 149.028 5.886 149.286 6.00427C149.421 6.06641 149.551 6.26487 149.517 6.42524C149.443 6.77003 149.018 7.01059 148.689 7.03865C147.701 7.12285 146.48 6.90635 145.527 7.03464C145.125 7.08877 145.095 7.72824 145.444 7.89262C146.217 7.98483 147.164 7.80041 147.918 7.90665C148.536 7.99285 148.249 8.71852 147.864 8.80673C147.425 8.90495 146.606 8.78267 146.104 8.81675C145.952 8.82677 145.446 8.89092 145.342 8.96509C145.21 9.0573 145.238 9.51636 145.334 9.63864C145.456 9.795 145.936 9.81705 146.149 9.82908C147.25 9.89122 148.438 9.81104 149.551 9.82507C149.969 9.83109 150.426 9.97542 150.849 9.78698C151.068 9.69076 151.249 9.36401 151.539 9.60456C151.72 9.75491 151.662 9.95337 151.572 10.1298C151.407 10.4565 150.974 10.8975 150.601 10.9336C149.804 11.0098 148.845 10.8374 148.061 10.9296C147.677 10.9737 147.982 11.3406 148.135 11.4849C148.384 11.7194 149.026 12.0883 149.361 12.1284C149.722 12.1705 151.046 12.0883 150.55 12.852C150.223 13.3572 149.286 13.6278 148.731 13.4334C148.478 13.3432 147.912 12.7779 147.742 12.5514C147.469 12.1865 147.216 11.6874 147.069 11.2584C147.029 11.1441 147.059 10.9918 146.993 10.9016C146.861 10.7251 145.244 10.5507 145.181 11.0599C145.063 11.7395 145.4 13.9345 144.915 14.3756C144.736 14.5379 144 14.58 143.936 14.2593C143.857 13.3111 144.008 12.2707 143.928 11.3345C143.903 11.0319 143.897 10.8514 143.542 10.9497C143.187 11.0479 142.906 11.6052 142.658 11.8898C142.074 12.5614 140.868 13.6198 139.933 13.4735C139.744 13.4434 139.004 13.0385 138.992 12.828C138.962 12.2908 139.672 12.4792 139.919 12.4571C140.152 12.4371 140.535 12.2106 140.721 12.0602C140.852 11.952 141.767 11.0599 141.63 10.9296C141.153 10.9517 140.557 10.7733 140.112 10.9677C139.987 11.0218 139.859 11.1782 139.728 11.2063C139.283 11.3065 138.763 11.2283 138.498 10.8294C138.312 10.5527 138.32 10.4064 138.597 10.216C139.106 9.86917 139.257 9.8812 139.831 9.87318C141.115 9.85915 142.401 9.89924 143.683 9.84512C143.966 9.68876 144.044 9.13147 143.719 8.99315C143.574 8.93101 142.66 8.93302 142.467 8.96108C142.214 8.99716 141.945 9.31189 141.757 9.28583C141.57 9.25977 141.195 8.87889 141.157 8.68044C141.103 8.4058 141.5 7.96679 141.755 7.90866C142.347 7.77635 143.342 8.0129 143.944 7.89663C144.475 7.79439 144 7.11082 143.695 7.04266C143.476 6.99255 142.619 7.00658 142.363 7.03063C141.857 7.07674 141.422 7.45561 141.002 7.63402C140.581 7.81244 140.101 7.54181 139.957 7.14089C139.823 6.76803 140.304 6.30697 140.657 6.27289C141.01 6.23881 141.554 6.30897 141.927 6.29293C142.68 6.26086 142.359 5.18438 141.793 5.1062C141.147 5.018 140.095 5.11221 139.397 5.11021C139.036 5.11021 138.713 4.99996 138.336 5.1944C138.224 5.25254 138.173 5.35678 138.077 5.41491C137.718 5.63141 137.541 5.85593 137.172 5.56526C136.442 4.98993 136.992 4.20412 137.59 3.81723C137.832 3.8453 137.943 4.0197 138.202 4.04977C138.5 4.08384 139.247 4.08585 139.544 4.04977C139.987 3.99765 139.945 3.51253 139.903 3.15771C139.865 2.84299 139.345 2.44206 139.782 2.17144C140.067 1.99503 140.414 2.10529 140.643 2.31778C140.8 2.46411 141.299 2.9793 141.406 3.13767C141.59 3.40829 141.648 3.95154 142.17 3.65887C142.407 3.52456 142.375 2.74877 142.343 2.48616C142.314 2.23759 142.108 2.09326 142.066 1.8507C142.014 1.54199 141.963 0.894497 142.369 0.83035C143.093 0.716086 143.623 0.932585 143.681 1.7184C143.727 2.32579 143.57 2.22957 143.41 2.64653C143.298 2.93921 143.29 3.61677 143.669 3.70297C143.899 3.75509 144.798 3.65686 144.931 3.45239C145.011 3.3281 145.041 2.30775 145.023 2.10328C145.013 1.99102 144.983 1.80058 144.951 1.69434C144.836 1.29743 144.375 1.07692 144.788 0.712077C145.031 0.497583 145.382 0.447467 145.679 0.579772C145.753 0.611846 146.257 0.892493 146.293 0.924567C146.333 0.96065 146.672 1.59611 146.68 1.64422C146.706 1.80259 146.518 1.94893 146.457 2.10128C146.369 2.31978 146.118 3.06149 146.088 3.26997C146.072 3.37822 146.058 3.57467 146.136 3.65486L146.138 3.65887ZM143.623 4.73936C143.103 4.85963 143.623 5.80581 143.911 5.97019C144.431 5.95816 145.053 6.11051 145.563 6.0163C146.02 5.9321 146.379 5.09417 145.95 4.83357C145.645 4.64714 144.959 4.78346 144.568 4.77945C144.275 4.77744 143.928 4.66919 143.623 4.73936Z" fill="white"/>
<path d="M97.8473 6.05056C97.8094 5.91625 97.6101 5.92828 97.5004 5.94231C97.1615 5.9824 96.053 6.25704 95.73 6.37531C95.407 6.49358 95.395 6.66598 95.5765 6.9366C95.8356 7.31949 96.9781 8.24161 96.9781 8.59843C96.9781 8.82495 96.6212 9.22387 96.4098 9.27599C96.053 9.36419 95.7659 8.65657 95.4628 9.18578L95.4489 13.0667C95.3133 13.5458 94.9285 14.047 94.438 13.624C94.0792 13.3153 94.1729 13.0587 94.1609 12.6377C94.137 11.6976 94.2626 10.6472 94.1609 9.70298C94.1489 9.59673 93.9894 9.22588 93.9237 9.16975C93.8658 9.12164 93.81 9.17777 93.7622 9.20583C93.0843 9.59272 92.0934 10.7273 91.3577 10.8757C91.0686 10.9338 90.5742 10.9679 90.307 10.8336C90.0837 10.7213 89.5195 10.1079 89.5335 9.85332C89.5614 9.33813 90.2711 9.57067 90.5842 9.52256C91.3318 9.40629 93.3355 7.74446 93.8419 7.12504C94.0094 6.92057 94.3603 6.47554 93.8878 6.3713C93.6465 6.31718 92.7932 6.34123 92.5241 6.37531C91.7824 6.46752 91.6169 7.35958 90.9789 7.37561C90.5004 7.38764 90.1057 6.93259 90.2133 6.4575C90.2652 6.22496 90.5861 5.35696 90.7377 5.20662C90.8732 5.07231 91.0268 5.03021 91.2162 5.01417C92.1313 4.93198 93.1601 5.08033 94.0871 5.01417C94.1888 4.99413 94.3304 4.8538 94.3503 4.74956C94.3822 4.58519 94.3702 3.97177 94.3463 3.79336C94.2546 3.1138 93.7263 3.45458 93.2757 3.47864C92.9467 3.49668 92.1492 3.52474 91.8581 3.45659C91.3697 3.34232 90.644 2.68481 91.4773 2.39414C92.7593 1.94711 94.4679 1.93308 95.6722 1.22545C96.031 1.01496 96.1905 0.636088 96.6411 0.956827C96.7607 1.04102 97.4645 1.82282 97.5243 1.9451C97.642 2.18365 97.5841 2.31997 97.4227 2.51842L95.5406 3.36638C95.4209 3.55882 95.411 4.64332 95.4947 4.85581C95.5545 5.00816 95.6622 5.00816 95.8057 5.02019C96.1387 5.04825 97.3349 5.07231 97.616 5.00816C97.9171 4.94 98.0347 4.43885 98.5332 4.39074C100.585 4.19028 102.957 4.54509 105.043 4.39274C105.804 4.51302 105.362 5.12844 105.312 5.57547C105.284 5.82204 105.268 6.17886 105.256 6.43344C105.216 7.35156 105.388 8.66258 105.256 9.51053C105.202 9.86134 104.484 10.6832 104.15 10.8035C103.745 10.9458 103.502 10.8376 103.133 10.8356C101.713 10.8216 100.284 10.8797 98.8721 10.7895C98.6767 10.7775 98.3378 10.8296 98.1803 10.7634C98.0786 10.7213 97.8453 10.3284 97.8453 10.2362V6.05257L97.8473 6.05056ZM103.625 9.42834C103.679 9.35417 103.681 9.26396 103.687 9.17777C103.753 8.26366 103.655 7.23529 103.659 6.31718C103.561 6.12674 103.486 6.09065 103.28 6.07261C102.481 5.99844 101.179 6.03252 100.357 6.07261C100.2 6.08063 99.6377 6.12072 99.5679 6.19289C99.4822 6.27909 99.4383 6.59181 99.4283 6.72612C99.3745 7.34955 99.4363 8.03112 99.4742 8.64855C99.5001 9.07553 99.3127 9.47244 99.8809 9.5386C100.489 9.60675 101.141 9.50051 101.745 9.48848C102.046 9.48247 103.49 9.54862 103.625 9.43035V9.42834Z" fill="white"/>
<path d="M126.156 8.17345C125.841 8.44407 125.433 8.42402 125.082 8.89511C124.924 9.10559 124.306 10.3986 124.268 10.6311C124.242 10.7935 124.386 11.0521 124.545 11.1022L130.112 11.1343C130.931 11.4971 130.042 12.1526 129.572 12.3491C128.954 12.6077 128.064 12.4894 127.392 12.5154C125.036 12.6117 122.671 12.7139 120.315 12.8081C118.971 12.8622 117.42 12.7921 116.108 12.9565C115.659 13.0126 115.097 13.2692 114.629 13.1329C114.286 13.0326 114.465 12.3771 114.397 12.1145C114.335 11.874 114.058 11.6234 114.124 11.3989C114.19 11.1744 114.76 11.0421 114.942 10.8717L121.832 10.8236C122.223 10.7113 122.466 10.3525 122.657 10.0177C122.849 9.68292 123.403 8.58038 123.04 8.2837C122.861 8.13736 121.932 8.17946 121.649 8.18748C120.955 8.20752 120.125 8.35787 119.449 8.33782C118.831 8.31978 118.498 7.44176 118.879 6.94061C119.499 6.12272 119.868 5.17855 120.145 4.17423C120.231 3.86151 120.371 3.64902 120.02 3.48064C119.567 3.26414 118.971 3.56483 118.534 3.75527C118.225 3.88958 117.484 4.4208 117.232 3.92566C117.153 3.7693 117.149 2.93738 117.189 2.74093C117.244 2.46229 117.625 2.13955 117.882 2.04332C118.55 1.79275 119.156 2.09144 119.832 2.13153C122.452 2.28388 125.163 2.02929 127.775 2.07941C128.194 2.08743 128.389 2.36807 128.326 2.77501C128.274 3.10978 128.005 3.08973 127.803 3.21202C127.57 3.35635 127.406 3.74524 127.087 3.78935C125.612 3.93167 123.969 3.67308 122.514 3.80939C122.436 3.81741 122.388 3.81741 122.312 3.84748C121.898 4.01587 121.214 5.81 120.979 6.26304C120.927 6.5918 121.216 6.61586 121.469 6.64192C121.997 6.69604 122.988 6.69404 123.519 6.64793C123.642 6.63791 123.887 6.59982 123.991 6.5457C124.374 6.34724 124.372 5.74786 125.054 6.01848C125.237 6.09065 126.328 7.2413 126.41 7.44577C126.515 7.71238 126.368 7.99103 126.158 8.16944L126.156 8.17345Z" fill="white"/>
<path d="M75.0888 1.66646C75.2324 1.55019 75.6252 1.47201 75.8146 1.45798C77.4714 1.32567 79.4731 1.65443 81.08 1.45998C81.3332 1.42991 81.4668 1.14726 81.7519 1.31164C82.2683 1.61233 81.8556 2.18365 81.8197 2.58658C81.7698 3.12783 81.8655 3.68711 81.8715 4.22235C81.9014 7.03282 81.9473 9.84731 81.8815 12.6518C81.6103 13.0367 81.3213 13.3814 80.8946 12.9464C80.7969 12.8462 80.3623 12.0003 80.3423 11.866L80.3383 3.21402C80.3224 2.99753 80.1908 2.87725 79.9795 2.85319C78.9188 2.72891 77.6229 2.94541 76.5363 2.8572C76.2711 2.8993 76.0997 3.25412 76.0777 3.50469C76.0538 3.78334 76.0817 4.40076 76.1834 4.64933C76.2671 4.8518 76.4167 4.89991 76.628 4.92396C77.3258 5.00214 78.4164 4.79366 79.0484 4.94401C79.6047 5.07631 79.5967 6.1989 78.9627 6.30715C78.1851 6.43745 77.1105 6.24501 76.2931 6.31717C75.8903 6.35326 75.7847 6.47353 75.7448 6.87245C75.7109 7.21123 75.6451 7.8908 76.1017 7.90684L79.0962 7.92688C79.6186 8.24963 79.5608 9.16975 78.8789 9.25193C78.4363 9.30606 77.7325 9.28601 77.252 9.30005C76.8413 9.31207 75.996 9.22387 75.6591 9.33412C75.1606 9.4985 75.2224 9.92549 75.0849 10.3445C74.8616 11.026 74.5346 11.6715 74.1059 12.2468C73.8507 12.5896 73.5856 12.9204 73.147 13.0186C72.8499 13.0848 71.9966 12.4032 72.0225 12.1185C72.0345 11.9822 72.8977 11.028 73.0592 10.8115C74.2056 9.27799 74.7001 7.63822 74.7858 5.71779C74.8057 5.25473 74.8516 2.90331 74.7459 2.62667C74.6981 2.50238 74.5625 2.44626 74.5904 2.25582L75.0849 1.66646H75.0888Z" fill="white"/>
<path d="M246.245 11.1243C246.295 11.1343 246.49 11.2926 246.5 11.3468C246.5 11.4169 246.458 11.4831 246.412 11.5332C246.231 11.7357 245.35 12.4353 245.108 12.5776C244.867 12.7199 244.57 12.7861 244.285 12.8081C242.072 12.9745 239.588 12.7259 237.357 12.746C237.06 12.6939 237.201 12.6237 237.151 12.5215C237.006 12.2288 236.884 12.1847 237.11 11.8479C237.321 11.5332 237.51 11.5593 237.779 11.4149C237.913 11.3428 238.029 11.1864 238.182 11.1463C238.928 10.9498 240.387 11.2405 241.225 11.1263C241.462 11.0942 241.47 10.8837 241.488 10.6692C241.57 9.68694 241.444 8.56235 241.462 7.56806C241.342 7.41771 241.286 7.36158 241.087 7.37762C240.569 7.41972 239.41 8.05518 238.96 7.92087C238.782 7.86875 238.609 7.62619 238.557 7.4578C238.501 7.27338 238.541 7.14107 238.509 6.9767C238.457 6.71409 238.082 6.47354 238.425 6.1989C238.633 6.03252 239.221 5.99243 239.498 5.9784C239.817 5.96035 241.332 6.05257 241.462 5.78796L241.516 3.65504C241.45 3.34032 241.362 3.02359 241.26 2.71889C241.203 2.54448 241.069 2.47432 241.103 2.25582C241.133 2.0734 242.002 1.19538 242.184 1.17132C242.393 1.14326 242.863 1.42791 242.911 1.6384C242.999 2.79506 242.766 4.04193 242.871 5.18858C242.885 5.3309 242.923 5.55542 243.065 5.61957C243.236 5.69574 244.07 5.63561 244.335 5.64162C244.46 5.64563 244.58 5.69173 244.716 5.69574C244.983 5.70376 245.613 5.50931 245.649 6.00646C245.708 6.86243 243.699 6.95665 243.137 7.17916C243.053 7.21324 242.875 7.29543 242.875 7.39767V11.0521L242.947 11.1243H246.249H246.245Z" fill="white"/>
<path d="M68.0271 1.80478L72.9895 1.79676C73.4321 1.94711 73.6973 2.29792 73.6395 2.78103C73.6076 3.04764 73.3783 3.18997 73.3504 3.45258C73.2985 5.01016 73.4221 6.61586 73.3544 8.16744C73.3444 8.37191 73.3304 8.74878 73.3025 8.9312C73.2766 9.10159 73.1331 9.20783 73.0154 9.31608C71.3686 9.93551 69.6939 10.8636 68.0411 11.435C67.8397 11.5051 67.5586 11.6515 67.3712 11.4851C67.2615 11.3889 66.5338 10.3445 66.5139 10.2302C66.48 10.0357 66.4959 9.65486 66.7033 9.56065C66.9804 9.43436 67.6104 9.70698 67.746 9.21385C67.7619 8.35186 67.758 7.48787 67.758 6.62589C67.758 5.31086 67.6922 3.95774 67.734 2.6367C67.742 2.38411 67.732 1.87494 68.0291 1.80478H68.0271ZM71.9488 3.25211C71.9029 3.19799 71.7773 3.14988 71.7016 3.13985C71.2928 3.08773 69.9491 3.08573 69.5443 3.13985C69.3888 3.1599 69.3489 3.19799 69.329 3.35635C69.2792 3.73122 69.2851 4.90191 69.329 5.28279C69.3509 5.46521 69.4446 5.61957 69.638 5.64563C69.977 5.68973 70.4754 5.6356 70.8383 5.64162C71.1632 5.64563 71.8511 5.84809 72.0126 5.43113C72.0943 5.21864 72.0863 3.88958 72.0564 3.60092C72.0465 3.51071 72.0006 3.32027 71.9468 3.25412L71.9488 3.25211ZM71.9149 8.98332V6.72411L71.8431 6.65195H69.4506C69.4247 6.65195 69.3071 6.73614 69.2911 6.78024C69.2832 7.40568 69.1655 8.12334 69.2353 8.74477C69.2632 8.99534 69.3729 9.17175 69.64 9.20182C69.981 9.24191 70.5771 9.21786 70.934 9.20182C71.0875 9.19581 71.7953 9.14369 71.8531 9.09157C71.869 9.05949 71.9089 9.01339 71.9129 8.98332H71.9149Z" fill="white"/>
<path d="M195.757 2.04934C195.785 2.01326 196.005 1.89098 196.055 1.89298C196.22 1.89699 196.386 2.17363 196.455 2.30593C196.489 2.37209 196.695 2.84117 196.701 2.88126C196.76 3.34032 195.929 3.62497 195.933 4.07802C195.935 4.26845 196.063 4.37069 196.244 4.39475C196.491 4.42482 197.265 4.4188 197.478 4.3326C197.616 4.27647 197.699 4.12412 197.871 4.15018C198.327 4.42281 197.767 4.90392 197.452 5.02821C197.171 5.13846 196.489 5.15249 196.152 5.16452C195.516 5.18857 194.874 5.14046 194.238 5.16452C194.049 5.2006 194.057 5.35295 194.081 5.51132C194.153 6.01047 194.705 7.47183 194.922 7.98502C195.512 9.36419 197.257 11.6354 198.748 12.0263C198.947 12.0784 199.781 12.1085 199.404 12.4734C199.045 12.6117 198.413 13.4015 198.102 13.4737C197.947 13.5097 197.231 13.5077 197.061 13.4817C196.796 13.4396 196.481 13.0306 196.326 12.8262C195.137 11.2505 194.196 9.46042 193.614 7.57006C193.409 6.90252 193.295 6.05858 193.062 5.43314C192.914 5.04023 192.641 5.09837 192.276 5.11841C191.04 5.18857 188.289 5.5895 187.143 5.97038C186.746 6.10268 186.223 6.52165 185.823 6.31517C185.725 6.26505 185.444 5.96236 185.42 5.85411C185.376 5.65766 185.38 4.5912 185.412 4.3767C185.434 4.23438 185.54 4.10207 185.683 4.072C185.879 4.02991 186.311 4.01988 186.497 4.10007C186.885 4.27046 186.794 4.4168 187.35 4.39876C188.616 4.36067 189.952 4.14617 191.224 4.05997C191.776 4.02189 192.593 4.29451 192.432 3.4205C192.37 3.08974 191.922 2.54849 191.844 2.28188C191.577 1.3818 192.713 0.752354 193.373 1.32167L193.756 3.7252C193.818 4.16822 194.623 4.16421 194.836 3.89159L195.759 2.05335L195.757 2.04934Z" fill="white"/>
<path d="M214.919 8.5423C216.859 8.53829 218.803 8.61447 220.745 8.57438C221.092 8.66057 221.189 9.0174 220.878 9.24191C220.743 9.33814 219.752 9.88139 219.63 9.91146C219.367 9.97961 218.253 9.74106 218.524 10.2763C218.62 10.4627 219.323 11.429 219.475 11.5813C219.712 11.8239 220.233 11.7717 220.121 12.2308C220.041 12.5616 219.776 13.1489 219.403 13.193C218.657 13.2832 217.726 13.1389 216.961 13.1409C214.955 13.1489 212.939 13.3173 210.934 13.191C210.455 13.1609 209.855 13.3333 210.039 12.5776L211.46 10.3505C211.532 10.2001 211.474 10.0798 211.338 9.99565C211.051 9.81924 210.25 10.132 209.943 10.2683C209.739 10.3585 209.658 10.571 209.411 10.4427C208.988 10.2202 208.934 9.60675 209.197 9.23189C209.516 8.77885 209.969 8.61647 210.505 8.57438C211.853 8.47014 213.54 8.5423 214.921 8.5403L214.919 8.5423ZM214.249 9.59874C214.134 9.60876 213.922 9.6248 213.825 9.65286C213.552 9.73705 212.8 11.1944 212.507 11.457C212.445 11.5993 212.591 11.6835 212.68 11.7697L217.824 11.7978C218.071 11.7737 218.055 11.6174 218.004 11.4189C217.932 11.1423 217.092 9.71901 216.877 9.61878C216.813 9.5827 216.743 9.58871 216.676 9.58069C216.04 9.52056 214.889 9.5386 214.247 9.59673L214.249 9.59874Z" fill="white"/>
<path d="M238.166 5.96436C238.12 6.01448 238.029 6.05056 237.961 6.07061C237.55 6.20091 235.361 6.44948 235.209 6.68402C235.086 7.0228 235.209 7.40568 235.215 7.73244C235.245 9.41431 235.188 11.1022 235.215 12.7841C235.146 13.3754 234.181 13.8545 233.925 13.165C233.802 11.1984 234.079 9.05148 233.925 7.107C233.886 6.60584 233.463 6.66398 233.206 7.01278C233.012 7.27338 233.018 7.97099 232.951 8.34385C232.817 9.07954 232.269 10.7273 231.858 11.3327C231.782 11.445 231.13 12.1085 231.041 12.1466C230.839 12.2288 230.456 12.2168 230.315 12.0364C230.237 11.6775 229.808 11.3889 229.966 11.018C230.064 10.7895 230.528 10.3725 230.716 10.136C231.371 9.31007 232.458 8.07322 232.053 6.92057C231.892 6.4595 231.441 7.00676 231.172 7.03884C230.903 7.07091 230.47 7.09898 230.313 6.84239C230.207 6.67199 230.211 5.94031 230.237 5.71379C230.317 5.0262 231.619 5.30284 232.077 5.30885C233.724 5.3309 235.365 5.29282 237.006 5.35696C237.257 5.36699 237.945 5.30084 238.112 5.39906C238.308 5.51533 238.312 5.806 238.166 5.96436Z" fill="white"/>
<path d="M215.105 0.51581C215.36 0.507792 215.757 0.495764 216 0.501778C216.646 0.517815 216.325 1.13524 216.652 1.53015C217.451 2.49637 220.436 3.90762 221.658 4.43283C221.806 4.49698 222.061 4.62929 222.198 4.65936C222.501 4.7215 222.986 4.60523 222.91 5.12443C222.866 5.42111 221.907 6.37932 221.6 6.41139C221.325 6.43946 220.843 6.12674 220.591 5.98842C219.321 5.28881 217.942 4.4188 216.724 3.62497C216.295 3.34633 215.826 2.80709 215.29 2.85319C214.806 2.89529 213.454 4.07 212.955 4.40276C212.174 4.92597 210.405 5.9824 209.556 6.27708C209.078 6.44347 208.928 6.37531 208.565 6.05257C208.408 5.91224 208.296 5.71579 208.158 5.59551C207.989 5.44717 207.76 5.44116 207.63 5.30885C207.353 5.02821 207.572 4.7215 207.919 4.6794C208.466 4.61325 209.117 4.73954 209.678 4.66737C211.091 4.48896 212.884 2.99151 214.166 2.35004C214.455 2.05536 214.229 1.61434 214.257 1.23948C214.293 0.778415 214.67 0.527838 215.105 0.513806V0.51581Z" fill="white"/>
<path d="M190.049 10.595C190.163 10.6111 190.265 10.585 190.374 10.5609C190.789 10.4687 191.71 10.0919 192.105 9.89542C192.27 9.81323 192.526 9.59071 192.629 9.55664C193.02 9.42834 193.604 10.0317 193.369 10.4447C193.219 10.7093 192.207 11.2846 191.9 11.4189C190.047 12.2228 187.747 12.6077 185.815 13.2271C185.601 13.189 185.199 13.189 185.099 12.9485C185.057 12.8482 185.047 11.5853 185.075 11.435C185.095 11.3287 185.193 11.2626 185.266 11.1944C185.617 11.1904 185.998 11.1323 186.339 11.1182C186.877 11.0982 187.663 11.1984 188.157 11.1182C188.564 11.0501 188.421 10.6812 188.421 10.4266C188.421 10.1079 188.484 9.22587 188.349 9.00938C188.293 8.91917 188.058 8.70066 187.956 8.67861C187.573 8.59843 187.354 9.22387 186.959 9.29203C186.662 9.34415 186.355 9.26998 186.315 8.93521C186.283 8.6746 186.281 7.51994 186.479 7.36759C186.548 7.31347 186.812 7.28139 186.911 7.27338L192.251 7.29743C192.811 7.57808 192.256 8.26767 191.838 8.32981C191.465 8.38394 190.851 8.25363 190.524 8.35587C190.378 8.39997 190.047 8.79087 190.047 8.93521V10.595H190.049Z" fill="white"/>
<path d="M212.575 5.65566C212.818 5.62759 213.157 5.64563 213.42 5.63962C214.893 5.60955 216.369 5.64162 217.824 5.64162C218.069 5.64162 218.861 5.5434 218.851 5.90623C218.849 6.00847 217.876 6.95665 217.726 6.98472C216.371 7.16914 214.857 6.90052 213.518 7.03483C212.977 7.08896 211.484 7.8868 211.484 6.81833C211.484 6.59783 211.57 6.43144 211.697 6.26506C211.911 5.98642 212.218 5.69575 212.573 5.65365L212.575 5.65566Z" fill="white"/>
<path d="M232.105 2.01126C232.137 1.899 232.434 1.77271 232.558 1.79276L237.957 1.80478C238.092 1.84889 238.22 1.93709 238.174 2.09545C238.16 2.14958 237.771 2.57857 237.704 2.6367C237.486 2.82513 236.705 3.13986 236.434 3.13986H232.175L232.103 3.06769V2.00925L232.105 2.01126Z" fill="white"/>
<path d="M237.209 7.91887C237.289 8.01308 237.355 8.13536 237.371 8.26166C237.417 8.64654 237.419 9.85332 237.365 10.2302C237.331 10.4687 237.09 10.8135 236.824 10.7875C236.615 10.7674 236.174 10.1139 236.119 9.90544C236.039 9.61878 236.037 8.25364 236.083 7.93089C236.111 7.73244 236.318 7.38764 236.537 7.37361C236.775 7.35757 236.902 7.64022 237.034 7.78456C237.088 7.84469 237.173 7.87476 237.211 7.91887H237.209Z" fill="white"/>
<path d="M67.354 29.4999C67.4193 29.4999 67.48 29.4345 67.536 29.3039C67.6013 29.1732 67.634 28.9585 67.634 28.6599V21.9399C67.634 21.6412 67.6013 21.4312 67.536 21.3099C67.4707 21.1792 67.4053 21.1092 67.34 21.0999H71.932C72.8 21.0999 73.4767 21.2072 73.962 21.4219C74.4473 21.6272 74.788 21.9259 74.984 22.3179C75.1893 22.7005 75.292 23.1672 75.292 23.7179C75.292 24.0632 75.2173 24.4039 75.068 24.7399C74.9187 25.0759 74.676 25.3652 74.34 25.6079C74.0133 25.8505 73.57 26.0092 73.01 26.0839V26.1259C73.6353 26.2939 74.172 26.6019 74.62 27.0499C75.0773 27.4979 75.4693 27.9879 75.796 28.5199C76.0107 28.8652 76.2067 29.1125 76.384 29.2619C76.5613 29.4112 76.6967 29.4905 76.79 29.4999H73.85C73.962 29.4905 74.0507 29.4299 74.116 29.3179C74.1907 29.1965 74.1673 29.0005 74.046 28.7299C73.85 28.2819 73.57 27.8852 73.206 27.5399C72.8513 27.1852 72.4033 26.9099 71.862 26.7139C71.3207 26.5085 70.6767 26.4059 69.93 26.4059H69.776C69.4867 26.4059 69.3187 26.4292 69.272 26.4759C69.2253 26.5225 69.202 26.6392 69.202 26.8259V28.6599C69.202 28.9585 69.2347 29.1732 69.3 29.3039C69.3653 29.4345 69.4307 29.4999 69.496 29.4999H67.354ZM69.776 25.2859H71.498C72.2447 25.2859 72.8047 25.1552 73.178 24.8939C73.5513 24.6232 73.738 24.2312 73.738 23.7179C73.738 23.3725 73.6633 23.0925 73.514 22.8779C73.374 22.6539 73.15 22.4905 72.842 22.3879C72.534 22.2852 72.1327 22.2339 71.638 22.2339H69.776C69.4867 22.2339 69.3187 22.2479 69.272 22.2759C69.2253 22.3039 69.202 22.4112 69.202 22.5979V24.9079C69.202 25.0945 69.2253 25.2065 69.272 25.2439C69.3187 25.2719 69.4867 25.2859 69.776 25.2859ZM77.7033 29.4999C77.7686 29.4999 77.8339 29.4345 77.8993 29.3039C77.9646 29.1732 77.9973 28.9585 77.9973 28.6599V21.9399C77.9973 21.6412 77.9646 21.4312 77.8993 21.3099C77.8339 21.1792 77.7686 21.1092 77.7033 21.0999H85.5853V21.3799L85.8653 22.7239C85.6319 22.6212 85.2213 22.5139 84.6333 22.4019C84.0453 22.2805 83.3359 22.2199 82.5053 22.2199H80.1393C79.8593 22.2199 79.6913 22.2432 79.6353 22.2899C79.5886 22.3272 79.5653 22.4439 79.5653 22.6399V24.2359C79.5653 24.4412 79.5886 24.5625 79.6353 24.5999C79.6913 24.6372 79.8546 24.6559 80.1253 24.6559H82.4353C82.9766 24.6559 83.4106 24.6279 83.7373 24.5719C84.0733 24.5065 84.2926 24.4412 84.3953 24.3759C84.3579 24.4972 84.3159 24.6419 84.2693 24.8099C84.2226 24.9779 84.1853 25.1459 84.1573 25.3139C84.1293 25.4819 84.1153 25.6359 84.1153 25.7759H80.1253C79.8546 25.7759 79.6913 25.7945 79.6353 25.8319C79.5886 25.8599 79.5653 25.9812 79.5653 26.1959V27.9319C79.5653 28.1465 79.5886 28.2725 79.6353 28.3099C79.6819 28.3472 79.8453 28.3659 80.1253 28.3659H84.1993C84.7406 28.3659 85.1746 28.3052 85.5013 28.1839C85.8373 28.0532 86.0566 27.9272 86.1593 27.8059L85.8793 29.0659V29.4999H77.7033ZM91.8656 29.6399C90.2603 29.6399 89.0563 29.2945 88.2536 28.6039C87.4603 27.9039 87.0636 26.8025 87.0636 25.2999C87.0636 24.4319 87.2269 23.6759 87.5536 23.0319C87.8803 22.3785 88.3983 21.8699 89.1076 21.5059C89.8169 21.1419 90.7363 20.9599 91.8656 20.9599C92.7523 20.9599 93.4896 21.0065 94.0776 21.0999C94.6656 21.1932 95.0623 21.2865 95.2676 21.3799V21.6599L95.5476 22.9199C95.3703 22.7985 95.1043 22.6725 94.7496 22.5419C94.4043 22.4112 93.9889 22.3039 93.5036 22.2199C93.0183 22.1265 92.4816 22.0799 91.8936 22.0799C91.0629 22.0799 90.4096 22.2199 89.9336 22.4999C89.4576 22.7705 89.1216 23.1485 88.9256 23.6339C88.7296 24.1192 88.6316 24.6745 88.6316 25.2999C88.6316 25.9252 88.7296 26.4805 88.9256 26.9659C89.1309 27.4419 89.4949 27.8199 90.0176 28.0999C90.5496 28.3705 91.3103 28.5059 92.2996 28.5059C93.1023 28.5059 93.7696 28.4125 94.3016 28.2259C94.8429 28.0299 95.2116 27.8432 95.4076 27.6659V28.0859L95.5476 28.9399C95.3889 29.0892 95.0016 29.2432 94.3856 29.4019C93.7789 29.5605 92.9389 29.6399 91.8656 29.6399ZM96.9673 29.4999C97.0326 29.4999 97.0933 29.4345 97.1493 29.3039C97.2146 29.1732 97.2473 28.9585 97.2473 28.6599V21.9399C97.2473 21.6412 97.2146 21.4312 97.1493 21.3099C97.0839 21.1792 97.0186 21.1092 96.9533 21.0999H101.545C102.413 21.0999 103.09 21.2072 103.575 21.4219C104.061 21.6272 104.401 21.9259 104.597 22.3179C104.803 22.7005 104.905 23.1672 104.905 23.7179C104.905 24.0632 104.831 24.4039 104.681 24.7399C104.532 25.0759 104.289 25.3652 103.953 25.6079C103.627 25.8505 103.183 26.0092 102.623 26.0839V26.1259C103.249 26.2939 103.785 26.6019 104.233 27.0499C104.691 27.4979 105.083 27.9879 105.409 28.5199C105.624 28.8652 105.82 29.1125 105.997 29.2619C106.175 29.4112 106.31 29.4905 106.403 29.4999H103.463C103.575 29.4905 103.664 29.4299 103.729 29.3179C103.804 29.1965 103.781 29.0005 103.659 28.7299C103.463 28.2819 103.183 27.8852 102.819 27.5399C102.465 27.1852 102.017 26.9099 101.475 26.7139C100.934 26.5085 100.29 26.4059 99.5433 26.4059H99.3893C99.0999 26.4059 98.9319 26.4292 98.8853 26.4759C98.8386 26.5225 98.8153 26.6392 98.8153 26.8259V28.6599C98.8153 28.9585 98.8479 29.1732 98.9133 29.3039C98.9786 29.4345 99.0439 29.4999 99.1093 29.4999H96.9673ZM99.3893 25.2859H101.111C101.858 25.2859 102.418 25.1552 102.791 24.8939C103.165 24.6232 103.351 24.2312 103.351 23.7179C103.351 23.3725 103.277 23.0925 103.127 22.8779C102.987 22.6539 102.763 22.4905 102.455 22.3879C102.147 22.2852 101.746 22.2339 101.251 22.2339H99.3893C99.0999 22.2339 98.9319 22.2479 98.8853 22.2759C98.8386 22.3039 98.8153 22.4112 98.8153 22.5979V24.9079C98.8153 25.0945 98.8386 25.2065 98.8853 25.2439C98.9319 25.2719 99.0999 25.2859 99.3893 25.2859ZM111.285 29.6399C110.342 29.6399 109.568 29.4905 108.961 29.1919C108.354 28.8932 107.906 28.4639 107.617 27.9039C107.328 27.3345 107.183 26.6579 107.183 25.8739V21.9259C107.183 21.6272 107.15 21.4172 107.085 21.2959C107.029 21.1652 106.968 21.0999 106.903 21.0999H109.031C108.966 21.1092 108.9 21.1745 108.835 21.2959C108.779 21.4172 108.751 21.6272 108.751 21.9259V25.8459C108.751 26.4992 108.854 27.0219 109.059 27.4139C109.264 27.7965 109.558 28.0765 109.941 28.2539C110.324 28.4219 110.776 28.5059 111.299 28.5059H111.453C111.854 28.5059 112.209 28.4592 112.517 28.3659C112.825 28.2725 113.086 28.1232 113.301 27.9179C113.516 27.7125 113.674 27.4419 113.777 27.1059C113.889 26.7605 113.945 26.3405 113.945 25.8459V21.9259C113.945 21.6272 113.912 21.4172 113.847 21.2959C113.791 21.1652 113.73 21.0999 113.665 21.0999H115.793C115.728 21.1092 115.662 21.1792 115.597 21.3099C115.541 21.4312 115.513 21.6412 115.513 21.9399V25.8739C115.513 26.6579 115.364 27.3345 115.065 27.9039C114.776 28.4639 114.328 28.8932 113.721 29.1919C113.124 29.4905 112.358 29.6399 111.425 29.6399H111.285ZM117.338 29.4999C117.403 29.4999 117.469 29.4345 117.534 29.3039C117.599 29.1732 117.632 28.9585 117.632 28.6599V21.9399C117.632 21.6412 117.599 21.4312 117.534 21.3099C117.469 21.1792 117.403 21.1092 117.338 21.0999H119.494C119.429 21.0999 119.363 21.1652 119.298 21.2959C119.233 21.4265 119.2 21.6459 119.2 21.9539V28.6599C119.2 28.9585 119.233 29.1732 119.298 29.3039C119.363 29.4345 119.429 29.4999 119.494 29.4999H117.338ZM123.728 29.4999C123.793 29.4999 123.859 29.4345 123.924 29.3039C123.989 29.1732 124.022 28.9585 124.022 28.6599V22.6399C124.022 22.4345 123.999 22.3132 123.952 22.2759C123.905 22.2385 123.742 22.2199 123.462 22.2199H122.44C121.899 22.2199 121.46 22.2805 121.124 22.4019C120.797 22.5139 120.583 22.6212 120.48 22.7239L120.76 21.3799V21.0999H128.852V21.3799L129.132 22.7239C129.029 22.6212 128.81 22.5139 128.474 22.4019C128.147 22.2805 127.713 22.2199 127.172 22.2199H126.164C125.875 22.2199 125.707 22.2385 125.66 22.2759C125.613 22.3132 125.59 22.4345 125.59 22.6399V28.6599C125.59 28.9585 125.623 29.1732 125.688 29.3039C125.753 29.4345 125.819 29.4999 125.884 29.4999H123.728ZM137.867 29.6399C136.85 29.6399 135.949 29.5932 135.165 29.4999C134.381 29.4065 133.816 29.3132 133.471 29.2199V28.9399L133.191 27.4419C133.322 27.5912 133.569 27.7499 133.933 27.9179C134.306 28.0859 134.801 28.2305 135.417 28.3519C136.033 28.4639 136.766 28.5199 137.615 28.5199C138.38 28.5199 138.959 28.4685 139.351 28.3659C139.752 28.2539 140.023 28.1045 140.163 27.9179C140.312 27.7219 140.387 27.4979 140.387 27.2459C140.387 26.9472 140.266 26.7092 140.023 26.5319C139.78 26.3545 139.416 26.2145 138.931 26.1119C138.455 25.9999 137.862 25.9019 137.153 25.8179C136.229 25.6965 135.487 25.5379 134.927 25.3419C134.367 25.1365 133.961 24.8659 133.709 24.5299C133.457 24.1939 133.331 23.7692 133.331 23.2559C133.331 22.8172 133.462 22.4252 133.723 22.0799C133.994 21.7345 134.4 21.4639 134.941 21.2679C135.482 21.0625 136.173 20.9599 137.013 20.9599C137.984 20.9599 138.828 21.0065 139.547 21.0999C140.266 21.1932 140.774 21.2865 141.073 21.3799V21.6599L141.493 22.9199C141.297 22.7985 140.994 22.6725 140.583 22.5419C140.182 22.4112 139.696 22.3039 139.127 22.2199C138.558 22.1265 137.923 22.0799 137.223 22.0799C136.644 22.0799 136.182 22.1219 135.837 22.2059C135.501 22.2899 135.258 22.4159 135.109 22.5839C134.969 22.7425 134.899 22.9385 134.899 23.1719C134.899 23.4799 135.011 23.7272 135.235 23.9139C135.468 24.1005 135.804 24.2452 136.243 24.3479C136.691 24.4505 137.232 24.5392 137.867 24.6139C138.875 24.7259 139.678 24.8845 140.275 25.0899C140.872 25.2952 141.302 25.5705 141.563 25.9159C141.824 26.2612 141.955 26.7092 141.955 27.2599C141.955 27.6239 141.866 27.9552 141.689 28.2539C141.521 28.5432 141.264 28.7952 140.919 29.0099C140.574 29.2152 140.144 29.3739 139.631 29.4859C139.127 29.5885 138.539 29.6399 137.867 29.6399ZM143.356 29.4999C143.421 29.4999 143.486 29.4345 143.552 29.3039C143.617 29.1732 143.65 28.9585 143.65 28.6599V21.9399C143.65 21.6412 143.617 21.4312 143.552 21.3099C143.486 21.1792 143.421 21.1092 143.356 21.0999H145.512C145.446 21.0999 145.381 21.1652 145.316 21.2959C145.25 21.4265 145.218 21.6459 145.218 21.9539V28.6599C145.218 28.9585 145.25 29.1732 145.316 29.3039C145.381 29.4345 145.446 29.4999 145.512 29.4999H143.356ZM149.745 29.4999C149.811 29.4999 149.876 29.4345 149.941 29.3039C150.007 29.1732 150.039 28.9585 150.039 28.6599V22.6399C150.039 22.4345 150.016 22.3132 149.969 22.2759C149.923 22.2385 149.759 22.2199 149.479 22.2199H148.457C147.916 22.2199 147.477 22.2805 147.141 22.4019C146.815 22.5139 146.6 22.6212 146.497 22.7239L146.777 21.3799V21.0999H154.869V21.3799L155.149 22.7239C155.047 22.6212 154.827 22.5139 154.491 22.4019C154.165 22.2805 153.731 22.2199 153.189 22.2199H152.181C151.892 22.2199 151.724 22.2385 151.677 22.2759C151.631 22.3132 151.607 22.4345 151.607 22.6399V28.6599C151.607 28.9585 151.64 29.1732 151.705 29.3039C151.771 29.4345 151.836 29.4999 151.901 29.4999H149.745ZM156.125 29.4999C156.19 29.4999 156.256 29.4345 156.321 29.3039C156.386 29.1732 156.419 28.9585 156.419 28.6599V21.9399C156.419 21.6412 156.386 21.4312 156.321 21.3099C156.256 21.1792 156.19 21.1092 156.125 21.0999H164.007V21.3799L164.287 22.7239C164.054 22.6212 163.643 22.5139 163.055 22.4019C162.467 22.2805 161.758 22.2199 160.927 22.2199H158.561C158.281 22.2199 158.113 22.2432 158.057 22.2899C158.01 22.3272 157.987 22.4439 157.987 22.6399V24.2359C157.987 24.4412 158.01 24.5625 158.057 24.5999C158.113 24.6372 158.276 24.6559 158.547 24.6559H160.857C161.398 24.6559 161.832 24.6279 162.159 24.5719C162.495 24.5065 162.714 24.4412 162.817 24.3759C162.78 24.4972 162.738 24.6419 162.691 24.8099C162.644 24.9779 162.607 25.1459 162.579 25.3139C162.551 25.4819 162.537 25.6359 162.537 25.7759H158.547C158.276 25.7759 158.113 25.7945 158.057 25.8319C158.01 25.8599 157.987 25.9812 157.987 26.1959V27.9319C157.987 28.1465 158.01 28.2725 158.057 28.3099C158.104 28.3472 158.267 28.3659 158.547 28.3659H162.621C163.162 28.3659 163.596 28.3052 163.923 28.1839C164.259 28.0532 164.478 27.9272 164.581 27.8059L164.301 29.0659V29.4999H156.125Z" fill="white"/>
<defs>
<clipPath id="clip0_161_267">
<rect width="50" height="25" fill="white" transform="matrix(-1 0 0 1 50.5 0.500153)"/>
</clipPath>
</defs>
</svg>
