<svg width="335" height="172" viewBox="0 0 335 172" fill="none" xmlns="http://www.w3.org/2000/svg">
<path d="M0 0H335V172H0V0Z" fill="white"/>
<path d="M23.486 76.682C23.626 76.696 23.766 76.696 23.976 76.696C24.83 76.696 26.804 76.514 27.756 76.36C28.064 76.304 28.358 76.234 28.554 76.15C28.666 76.108 28.708 76.094 28.764 76.094C28.876 76.094 29.044 76.22 29.324 76.542C29.506 76.738 29.548 76.808 29.548 76.892C29.548 76.976 29.478 77.06 29.324 77.158C29.128 77.284 29.058 77.34 28.848 77.578C28.176 78.32 26.958 79.538 26.174 80.238C25.432 80.896 24.998 81.246 24.032 81.946C26.174 81.246 28.064 80.756 30.374 80.308C30.808 80.224 31.186 80.14 31.424 80.07C31.662 80.014 31.69 80.014 31.732 80.014C31.816 80.014 31.872 80.056 31.914 80.14C31.998 80.322 32.082 80.672 32.082 80.854C32.082 80.924 32.054 80.98 31.998 81.008C31.942 81.036 31.942 81.036 31.214 81.106C30.122 81.19 29.198 81.54 28.302 82.17C27.182 82.954 26.594 83.822 26.594 84.69C26.594 85.46 27.112 85.992 28.19 86.286C28.694 86.44 29.128 86.496 29.744 86.51C29.87 86.51 29.912 86.552 29.912 86.678C29.912 86.93 29.856 87.364 29.814 87.462C29.786 87.518 29.716 87.532 29.576 87.532C28.82 87.532 27.91 87.336 27.252 87.014C26.216 86.524 25.712 85.796 25.712 84.802C25.712 84.116 25.964 83.444 26.468 82.828C26.846 82.352 27.168 82.072 27.966 81.54C25.152 82.282 22.968 83.038 22.338 83.514C22.296 83.528 22.24 83.556 22.212 83.556C22.03 83.556 21.68 82.982 21.68 82.716C21.68 82.604 21.722 82.576 21.89 82.52C22.296 82.38 22.464 82.296 22.87 81.988C23.584 81.456 24.634 80.574 25.46 79.776C26.342 78.95 26.888 78.362 27.966 77.088C25.026 77.494 24.592 77.564 24.2 77.676C24.004 77.746 23.92 77.76 23.864 77.76C23.78 77.76 23.71 77.718 23.682 77.606C23.584 77.34 23.528 77.018 23.486 76.682ZM38.578 81.988V83.892C38.578 85.04 38.62 86.594 38.676 87.224C38.676 87.252 38.676 87.266 38.676 87.28C38.676 87.448 38.592 87.476 38.074 87.476C37.71 87.476 37.696 87.462 37.696 87.126C37.696 87.07 37.696 86.65 37.71 86.258C37.724 85.81 37.724 85.656 37.724 83.542C37.724 83.192 37.724 82.954 37.738 82.688C37.136 83.374 36.394 84.368 35.89 85.152C35.792 85.306 35.736 85.348 35.666 85.348C35.568 85.348 35.498 85.292 35.288 85.068C35.064 84.83 34.994 84.732 34.994 84.648C34.994 84.564 34.994 84.564 35.75 83.696C36.436 82.912 37.164 81.932 37.766 80.994C37.766 80.938 37.78 80.49 37.794 79.65C37.024 79.748 36.198 79.916 35.834 80.042C35.792 80.056 35.736 80.07 35.694 80.07C35.61 80.07 35.568 80.014 35.498 79.776C35.442 79.552 35.4 79.342 35.372 79.062C35.47 79.076 35.596 79.076 35.666 79.076C36.1 79.076 37.15 78.964 37.822 78.852C37.85 77.69 37.85 77.69 37.85 77.48C37.85 77.032 37.85 77.032 37.822 76.192C38.536 76.206 39.026 76.332 39.026 76.514C39.026 76.57 39.012 76.612 38.956 76.738C38.858 76.948 38.788 77.452 38.718 78.67C38.788 78.642 38.788 78.642 38.872 78.6C38.914 78.572 38.956 78.572 38.998 78.572C39.138 78.586 39.516 78.95 39.516 79.09C39.516 79.132 39.502 79.16 39.432 79.244C39.236 79.482 38.872 80.014 38.62 80.434C38.62 80.49 38.606 80.882 38.606 80.98C39.18 80.378 39.6 80 40.062 79.636C40.622 79.202 41.308 78.726 41.784 78.46C42.19 78.236 42.68 78.11 43.114 78.11C44.164 78.11 44.668 78.754 44.668 80.056C44.668 80.224 44.612 81.148 44.5 82.8C44.444 83.682 44.402 84.55 44.402 84.816C44.402 85.474 44.57 85.712 45.046 85.712C45.69 85.712 46.418 85.292 47.006 84.592C47.006 84.984 47.02 85.11 47.132 85.404C47.16 85.488 47.174 85.53 47.174 85.586C47.174 85.726 47.006 85.908 46.67 86.118C46.11 86.482 45.522 86.664 44.948 86.664C43.968 86.664 43.464 86.118 43.464 85.04C43.464 84.648 43.506 83.794 43.59 82.464C43.674 81.232 43.702 80.56 43.702 80.21C43.702 79.356 43.506 79.02 43.016 79.02C42.372 79.02 41.616 79.412 40.342 80.406C39.894 80.756 39.348 81.232 38.97 81.61C38.732 81.848 38.606 81.974 38.578 81.988ZM57.338 80.056C56.582 80.112 55.84 80.154 55.364 80.154C55.322 80.154 55.238 80.154 55.14 80.154C54.776 80.14 54.524 80.14 54.398 80.14C54.258 80.14 54.216 80.126 54.202 80.028C54.16 79.888 54.132 79.552 54.132 79.37C54.132 79.342 54.132 79.286 54.132 79.23C54.664 79.272 54.916 79.286 55.364 79.286C56.064 79.286 56.638 79.258 57.338 79.188C57.338 78.712 57.338 78.432 57.338 78.138C57.338 77.942 57.338 77.774 57.338 77.62C57.338 77.116 57.324 76.85 57.268 76.416C57.702 76.444 58.038 76.486 58.304 76.57C58.416 76.598 58.472 76.654 58.472 76.738C58.472 76.794 58.472 76.822 58.416 76.92C58.262 77.228 58.206 77.802 58.206 79.09C58.934 78.978 59.424 78.894 60.18 78.698C60.236 78.684 60.264 78.684 60.278 78.684C60.334 78.684 60.362 78.712 60.376 78.768C60.404 78.852 60.446 79.286 60.446 79.44C60.446 79.552 60.418 79.58 60.306 79.608C59.97 79.706 59.06 79.86 58.206 79.972C58.206 81.022 58.248 82.394 58.346 84.032C59.256 84.396 60.054 84.844 60.796 85.404C60.922 85.502 60.978 85.572 60.978 85.656C60.978 85.726 60.922 85.838 60.768 86.048C60.516 86.384 60.516 86.384 60.446 86.384C60.39 86.384 60.39 86.384 59.998 86.048C59.578 85.684 58.962 85.292 58.374 84.984C58.388 85.11 58.388 85.208 58.388 85.278C58.388 86.538 57.52 87.266 56.036 87.266C54.65 87.266 53.782 86.58 53.782 85.516C53.782 84.41 54.734 83.682 56.176 83.682C56.736 83.682 57.044 83.71 57.45 83.808C57.366 81.75 57.366 81.428 57.338 80.056ZM57.45 84.718C57.044 84.564 56.694 84.508 56.218 84.508C55.21 84.508 54.622 84.872 54.622 85.474C54.622 86.062 55.154 86.412 56.036 86.412C57.016 86.412 57.464 85.992 57.464 85.096C57.464 84.816 57.464 84.718 57.45 84.718ZM52.004 83.374C52.06 83.612 52.13 83.766 52.256 83.934C52.326 84.032 52.34 84.088 52.34 84.158C52.326 84.27 52.326 84.27 52.144 84.788C51.892 85.488 51.64 86.468 51.584 87C51.556 87.196 51.528 87.238 51.416 87.266C51.29 87.294 51.052 87.308 50.842 87.308C50.688 87.308 50.674 87.294 50.534 86.762C50.24 85.67 50.1 84.536 50.1 83.234C50.1 81.75 50.254 80.364 50.646 78.32C50.8 77.55 50.856 77.172 50.912 76.542C51.654 76.682 52.074 76.864 52.074 77.032C52.074 77.088 52.074 77.102 51.976 77.256C51.486 78.124 50.94 81.33 50.94 83.388C50.94 84.186 50.996 84.844 51.122 85.698C51.318 85.194 51.43 84.872 51.598 84.466C51.85 83.78 51.85 83.78 52.004 83.374ZM62.7 85.096C62.7 85.04 62.714 85.012 63.05 84.676C63.204 84.508 63.232 84.494 63.302 84.494C63.47 84.494 64.394 85.166 64.926 85.67C65.458 86.188 66.228 87.14 66.228 87.294C66.228 87.364 66.186 87.42 65.906 87.686C65.64 87.938 65.584 87.98 65.514 87.98C65.472 87.98 65.43 87.952 65.374 87.868C64.618 86.664 63.792 85.81 62.798 85.236C62.728 85.194 62.7 85.152 62.7 85.096ZM87.676 82.408H82.734C83.182 83.276 83.574 83.738 84.456 84.466C85.31 83.892 86.178 83.108 86.556 82.548L87.354 83.038C87.284 83.108 87.284 83.108 87.116 83.262C87.074 83.29 87.018 83.346 86.962 83.402C86.122 84.172 85.744 84.48 85.058 84.9C86.29 85.726 87.634 86.286 89.16 86.622C88.95 86.902 88.824 87.14 88.684 87.518C86.612 86.916 85.142 86.174 83.896 85.082C83 84.298 82.412 83.542 81.852 82.408H80.228V86.132C81.418 85.824 82.23 85.572 83.168 85.222L83.196 86.034C81.964 86.496 80.732 86.86 78.1 87.518C77.904 87.574 77.764 87.602 77.526 87.672L77.246 86.734C77.708 86.706 77.708 86.706 79.36 86.342V82.408H78.31C77.778 82.408 77.372 82.436 76.98 82.492V81.582C77.302 81.638 77.75 81.666 78.31 81.666H79.36V77.508C79.36 76.78 79.346 76.598 79.304 76.178C79.682 76.234 80.046 76.248 80.69 76.248H86.43C87.158 76.248 87.536 76.22 87.858 76.164V77.074C87.438 77.018 87.074 77.004 86.43 77.004H80.228V78.04H86.024C86.654 78.04 87.032 78.012 87.326 77.97V78.838C86.948 78.796 86.528 78.768 86.024 78.768H80.228V79.818H86.024C86.682 79.818 87.032 79.804 87.326 79.748V80.616C86.948 80.56 86.584 80.546 86.024 80.546H80.228V81.666H87.634C88.194 81.666 88.586 81.638 88.95 81.582V82.492C88.6 82.436 88.18 82.408 87.676 82.408ZM98.484 77.998H97.056C96.594 77.998 96.09 78.026 95.768 78.068V77.172C96.104 77.228 96.482 77.256 97.042 77.256H98.484V76.822C98.484 76.416 98.456 76.108 98.4 75.744H99.38C99.324 76.08 99.31 76.388 99.31 76.822V77.256H101.214C101.774 77.256 102.138 77.228 102.488 77.172V78.068C102.166 78.026 101.718 77.998 101.214 77.998H99.31V79.748H101.69C102.278 79.748 102.712 79.72 103.048 79.664V80.574C102.698 80.518 102.292 80.49 101.732 80.49H101.298V82.058H101.718C102.32 82.058 102.684 82.03 103.034 81.974V82.898C102.628 82.842 102.264 82.814 101.718 82.814H101.298V86.594C101.298 87.42 100.99 87.644 99.786 87.644C99.576 87.644 99.296 87.63 98.54 87.602C98.526 87.252 98.456 87 98.344 86.706C98.862 86.804 99.464 86.86 99.856 86.86C100.374 86.86 100.472 86.804 100.472 86.524V82.814H96.678C96.16 82.814 95.712 82.842 95.334 82.898V81.974C95.684 82.03 96.062 82.058 96.678 82.058H100.472V80.49H96.678C96.146 80.49 95.726 80.518 95.334 80.574V79.664C95.67 79.72 96.104 79.748 96.692 79.748H98.484V77.998ZM91.582 85.362V77.662C91.582 77.102 91.568 76.696 91.526 76.374C91.806 76.402 91.806 76.402 92.758 76.416H93.752C94.424 76.416 94.662 76.402 94.97 76.374C94.928 76.682 94.928 76.92 94.928 77.69V85.068C94.928 85.698 94.942 86.076 94.97 86.356H94.13V85.684H92.366V86.776H91.498C91.554 86.384 91.582 85.922 91.582 85.362ZM92.38 77.158V80.518H94.13V77.158H92.38ZM92.38 81.246V84.928H94.13V81.246H92.38ZM98.82 85.544L98.092 86.076C97.406 85.054 97.028 84.592 96.23 83.822L96.888 83.346C97.686 84.102 98.12 84.606 98.82 85.544ZM106.422 80.224V86.23C106.422 87 106.436 87.406 106.506 87.742H105.512C105.568 87.378 105.596 86.958 105.596 86.23V77.55C105.596 76.906 105.582 76.486 105.54 76.066C105.89 76.108 106.254 76.122 106.94 76.122H108.872C109.53 76.122 109.894 76.108 110.244 76.066C110.216 76.458 110.202 76.85 110.202 77.354V79.02C110.202 79.552 110.216 79.902 110.244 80.266C109.81 80.238 109.418 80.224 108.872 80.224H106.422ZM106.422 76.78V77.858H109.432V76.78H106.422ZM106.422 78.502V79.58H109.432V78.502H106.422ZM116.418 77.55V86.44C116.418 87.322 116.138 87.546 115.032 87.546C114.724 87.546 114.066 87.518 113.702 87.504C113.632 87.126 113.576 86.93 113.45 86.636C114.066 86.706 114.654 86.762 114.92 86.762C115.48 86.762 115.592 86.706 115.592 86.384V80.224H112.834C112.26 80.224 111.924 80.238 111.476 80.266C111.504 79.888 111.518 79.51 111.518 79.02V77.354C111.518 76.878 111.504 76.5 111.476 76.066C111.826 76.108 112.162 76.122 112.848 76.122H115.06C115.76 76.122 116.124 76.108 116.474 76.066C116.432 76.57 116.418 76.962 116.418 77.55ZM112.288 76.78V77.858H115.592V76.78H112.288ZM112.288 78.502V79.58H115.592V78.502H112.288ZM113.478 82.548V84.676C113.478 85.222 113.492 85.572 113.52 85.908C113.17 85.88 112.68 85.866 112.134 85.866H109.208V86.804H108.368C108.41 86.468 108.438 86.09 108.438 85.544V82.548C108.438 82.086 108.424 81.652 108.396 81.288C108.802 81.33 109.11 81.344 109.726 81.344H112.176C112.806 81.344 113.1 81.33 113.52 81.288C113.492 81.652 113.478 82.002 113.478 82.548ZM109.208 82.016V83.22H112.708V82.016H109.208ZM109.208 83.892V85.194H112.708V83.892H109.208ZM128.99 78.628H129.914C130.418 78.628 130.698 78.614 130.922 78.586C130.894 78.88 130.88 79.006 130.866 80.42C130.81 83.248 130.656 85.404 130.432 86.412C130.222 87.378 129.984 87.616 129.2 87.616C128.948 87.616 128.612 87.588 128.08 87.532C128.038 87.168 127.996 86.93 127.912 86.664C128.43 86.776 128.766 86.818 129.074 86.818C129.536 86.818 129.634 86.622 129.802 85.432C129.984 84.172 130.054 82.856 130.096 79.384H128.962C128.85 81.498 128.836 81.792 128.668 82.758C128.304 84.886 127.604 86.678 126.722 87.714C126.47 87.462 126.288 87.336 126.022 87.21C126.75 86.342 127.184 85.502 127.534 84.242C127.898 82.94 128.136 81.148 128.178 79.384H127.968C127.576 79.384 127.38 79.398 127.058 79.44V78.572C127.352 78.614 127.548 78.628 127.968 78.628H128.206C128.22 78.166 128.22 77.76 128.22 77.298C128.22 76.388 128.206 76.164 128.15 75.758H129.088C129.032 76.094 129.018 76.388 129.018 77.032C129.004 77.914 129.004 77.914 128.99 78.628ZM123.768 78.04V77.172C123.068 77.284 122.858 77.312 122.032 77.396C121.976 77.116 121.92 77.004 121.738 76.71C123.18 76.612 123.978 76.5 124.916 76.276C125.546 76.122 125.77 76.052 126.218 75.814L126.68 76.528C125.84 76.78 125.602 76.836 124.496 77.032V78.04H125.658C126.148 78.04 126.47 78.026 126.792 77.97V78.754C126.4 78.712 126.106 78.698 125.658 78.698H124.496V79.552H125.714C126.386 79.552 126.526 79.552 126.75 79.524C126.722 79.79 126.708 79.972 126.708 80.644V82.282C126.708 82.996 126.708 83.094 126.736 83.444C126.414 83.43 126.106 83.416 125.686 83.416H124.496V84.326H125.434C125.98 84.326 126.246 84.312 126.526 84.27V85.026C126.274 84.984 125.966 84.97 125.448 84.97H124.496V86.034C125.378 85.922 125.56 85.88 126.344 85.74V86.426C124.678 86.706 123.348 86.888 122.186 87.014C121.878 87.042 121.612 87.084 121.388 87.112L121.22 86.258C121.332 86.272 121.472 86.286 121.542 86.286C121.948 86.286 122.816 86.216 123.768 86.118V84.97H122.648C122.116 84.97 121.808 84.984 121.542 85.026V84.27C121.808 84.312 122.102 84.326 122.648 84.326H123.768V83.416H122.746C122.284 83.416 121.948 83.43 121.598 83.458C121.64 83.108 121.654 82.786 121.654 82.296V80.672C121.654 80.154 121.64 79.846 121.598 79.51C121.878 79.552 122.06 79.552 122.718 79.552H123.768V78.698H122.578C122.06 78.698 121.752 78.712 121.472 78.754V77.984C121.752 78.026 122.018 78.04 122.578 78.04H123.768ZM123.768 80.168H122.34V81.162H123.768V80.168ZM123.768 81.75H122.34V82.8H123.768V81.75ZM124.496 82.8H126.022V81.75H124.496V82.8ZM124.496 81.162H126.022V80.168H124.496V81.162ZM119.834 86.09V82.38C119.834 81.61 119.848 81.12 119.876 80.392C119.582 81.008 119.4 81.302 118.938 81.946C118.658 81.47 118.658 81.47 118.42 81.204C119.12 80.378 119.638 79.524 120.1 78.502C120.534 77.508 120.87 76.472 121.01 75.59L121.878 75.842C121.808 76.024 121.78 76.108 121.696 76.36C121.416 77.396 121.136 78.138 120.632 79.23V86.104C120.632 86.902 120.646 87.266 120.688 87.77H119.75C119.806 87.308 119.834 86.846 119.834 86.09ZM142.43 83.122L142.738 83.388C142.822 83.458 142.836 83.5 142.836 83.57C142.836 83.654 142.752 83.864 142.598 84.144C142.472 84.382 142.36 84.494 142.248 84.494C142.22 84.494 142.178 84.48 142.15 84.452C141.338 83.92 140.008 83.584 138.65 83.584C136.998 83.584 136.074 84.06 136.074 84.914C136.074 85.936 137.572 86.58 139.896 86.58C140.246 86.58 140.554 86.566 141.198 86.524C141.044 86.804 140.988 86.944 140.876 87.308C140.82 87.518 140.764 87.532 140.26 87.532C136.97 87.532 135.15 86.608 135.15 84.956C135.15 83.598 136.368 82.828 138.538 82.828C139.63 82.828 140.624 83.024 141.618 83.43C140.694 82.52 140.232 81.932 139.616 80.952C138.09 81.288 136.494 81.484 135.234 81.484C134.982 81.484 134.968 81.456 134.87 80.658C136.438 80.658 137.88 80.504 139.196 80.196C138.944 79.72 138.692 79.16 138.468 78.586C137.306 78.796 135.738 78.978 135.038 78.978C134.926 78.978 134.898 78.95 134.856 78.768C134.828 78.6 134.8 78.404 134.786 78.166C136.088 78.124 137.04 78.04 138.174 77.83C138.118 77.676 138.062 77.508 137.908 77.032C137.712 76.444 137.656 76.304 137.488 76.038C137.866 75.954 138.23 75.912 138.538 75.912C138.706 75.912 138.762 75.954 138.762 76.08C138.762 76.108 138.748 76.164 138.748 76.206C138.734 76.276 138.734 76.276 138.734 76.304C138.734 76.528 138.874 77.102 139.056 77.648C139.84 77.466 140.4 77.312 140.75 77.172L141.968 76.71C141.982 76.696 142.01 76.696 142.024 76.696C142.066 76.696 142.094 76.738 142.178 76.934C142.262 77.13 142.346 77.382 142.346 77.438C142.346 77.466 142.304 77.508 142.234 77.536C141.534 77.83 140.428 78.152 139.322 78.404C139.49 78.852 139.686 79.3 140.036 79.986C141.268 79.636 142.15 79.272 142.794 78.866C142.864 78.824 142.878 78.824 142.906 78.824C142.962 78.824 143.242 79.454 143.242 79.58C143.242 79.608 143.228 79.636 143.172 79.664C142.458 80.056 141.59 80.406 140.47 80.728C141.044 81.638 141.884 82.646 142.43 83.122ZM147.036 82.338L146.896 81.47C147.092 81.498 147.162 81.498 147.484 81.498C147.526 81.498 147.596 81.498 147.904 81.484C148.03 81.33 148.03 81.33 148.24 81.05C148.408 80.812 148.548 80.616 148.828 80.196C148.226 79.384 147.764 78.88 146.91 78.068L147.358 77.438C147.876 77.956 147.876 77.956 148.016 78.096C148.618 77.088 149.052 76.178 149.192 75.562L150.004 75.94C149.934 76.052 149.864 76.164 149.752 76.374C149.276 77.34 149.024 77.788 148.478 78.6C148.856 79.006 148.982 79.16 149.276 79.51C150.06 78.278 150.382 77.69 150.55 77.13L151.334 77.578C151.166 77.802 151.166 77.802 150.648 78.684C150.186 79.454 149.332 80.714 148.772 81.428C149.892 81.344 150.2 81.316 150.662 81.246C150.508 80.812 150.424 80.63 150.172 80.14L150.746 79.888C151.194 80.756 151.404 81.316 151.684 82.31L151.054 82.59C150.97 82.268 150.956 82.184 150.872 81.904C150.536 81.96 150.354 81.988 149.864 82.044V86.51C149.864 87.056 149.878 87.462 149.948 87.84H148.996C149.052 87.42 149.08 87.028 149.08 86.51V82.128C148.422 82.198 148.142 82.226 147.904 82.24C147.428 82.282 147.26 82.296 147.036 82.338ZM154.68 77.676H153.014C152.398 77.676 152.048 77.69 151.656 77.746V76.878C152.034 76.934 152.412 76.962 153.014 76.962H154.68V76.668C154.68 76.22 154.652 75.912 154.596 75.576H155.534C155.478 75.898 155.464 76.206 155.464 76.682V76.962H157.48C158.068 76.962 158.474 76.934 158.852 76.878V77.746C158.446 77.69 158.096 77.676 157.494 77.676H155.464V79.076H157.144C157.732 79.076 158.068 79.062 158.474 79.006V79.86C158.11 79.818 157.704 79.79 157.144 79.79H153.252C152.692 79.79 152.328 79.818 151.936 79.86V79.006C152.328 79.062 152.664 79.076 153.266 79.076H154.68V77.676ZM147.638 82.926L148.38 83.08C148.226 84.914 148.058 85.782 147.652 86.972L146.938 86.594C147.386 85.418 147.498 84.788 147.638 82.926ZM150.382 83.052L151.026 82.828C151.32 83.836 151.446 84.424 151.656 85.614L150.956 85.852C150.816 84.634 150.69 84.06 150.382 83.052ZM152.608 83.22H151.782C151.824 82.912 151.838 82.702 151.838 82.366V81.694C151.838 81.232 151.824 81.036 151.782 80.798C152.034 80.826 152.412 80.84 153.056 80.84H157.382C158.04 80.84 158.446 80.826 158.81 80.77C158.782 81.022 158.768 81.302 158.768 81.638V82.422C158.768 82.786 158.782 83.024 158.81 83.22H157.956V81.568H152.608V83.22ZM155.604 82.324H156.556C156.5 82.646 156.486 82.94 156.486 83.458V86.356C156.486 86.636 156.612 86.692 157.256 86.692C157.83 86.692 158.012 86.636 158.124 86.412C158.25 86.174 158.334 85.558 158.362 84.634C158.684 84.844 158.852 84.914 159.16 84.984C159.062 86.076 158.964 86.566 158.782 86.902C158.53 87.35 158.236 87.462 157.242 87.462C155.954 87.462 155.688 87.308 155.688 86.566V83.458C155.688 82.954 155.66 82.646 155.604 82.324ZM153.658 82.324H154.596C154.568 82.548 154.554 82.646 154.526 83.15C154.442 84.41 154.19 85.25 153.7 85.992C153.196 86.748 152.636 87.182 151.516 87.686C151.376 87.392 151.222 87.21 150.928 86.972C152.048 86.566 152.636 86.132 153.098 85.404C153.476 84.788 153.714 83.864 153.714 82.926C153.714 82.702 153.7 82.562 153.658 82.324ZM169.632 79.062C169.52 77.144 169.478 76.822 169.31 76.262C169.394 76.262 169.436 76.262 169.492 76.262C169.744 76.262 170.43 76.318 170.514 76.332C170.598 76.36 170.64 76.402 170.64 76.472C170.64 76.528 170.64 76.528 170.584 76.682C170.528 76.836 170.5 77.172 170.5 77.536C170.5 77.732 170.5 77.774 170.556 78.936C171.046 78.88 171.06 78.866 172.362 78.558C172.418 78.544 172.446 78.544 172.46 78.544C172.53 78.544 172.558 78.572 172.572 78.642C172.614 78.824 172.642 79.146 172.642 79.314C172.642 79.398 172.628 79.412 172.53 79.44C171.858 79.58 171.032 79.734 170.584 79.79C170.598 80.028 170.598 80.252 170.598 80.616C170.598 82.296 170.528 83.066 170.29 84.06C169.94 85.488 169.226 86.608 168.092 87.434C167.98 87.504 167.896 87.546 167.826 87.546C167.728 87.546 167.714 87.532 167.518 87.392C167.364 87.28 167.168 87.196 166.86 87.084C167.952 86.44 168.526 85.838 168.988 84.914C169.478 83.934 169.688 82.73 169.688 80.98C169.688 80.672 169.674 80.294 169.66 79.888C168.89 79.958 168.106 80 167.322 80C166.552 80 166.454 79.986 166.426 79.86C166.356 79.65 166.328 79.384 166.328 79.09C166.944 79.132 167.294 79.146 167.77 79.146C168.4 79.146 168.932 79.118 169.632 79.062ZM162.926 76.388C163.332 76.472 163.626 76.556 163.85 76.668C164.018 76.738 164.06 76.766 164.06 76.85C164.06 76.906 164.06 76.906 163.934 77.214C163.57 78.11 163.262 80.364 163.262 82.212C163.262 83.332 163.304 84.144 163.43 85.166C163.864 84.186 163.864 84.186 164.326 83.206C164.368 83.444 164.41 83.528 164.578 83.752C164.606 83.794 164.634 83.85 164.634 83.906C164.634 83.962 164.606 84.06 164.55 84.172C164.158 85.012 163.92 85.754 163.78 86.482C163.766 86.58 163.752 86.622 163.71 86.636C163.626 86.664 163.29 86.692 163.08 86.692C162.982 86.692 162.926 86.664 162.898 86.552C162.618 85.614 162.394 83.78 162.394 82.366C162.394 80.994 162.506 79.622 162.758 77.97C162.884 77.2 162.912 76.836 162.926 76.388ZM176.911 76.906C177.177 76.934 177.513 76.962 177.709 76.962C178.115 76.962 179.557 76.822 180.859 76.654C181.601 76.556 181.713 76.528 182.021 76.374C182.133 76.318 182.175 76.304 182.231 76.304C182.357 76.304 182.511 76.458 182.833 76.92C182.945 77.088 183.001 77.214 183.001 77.298C183.001 77.396 182.973 77.41 182.735 77.578C182.525 77.718 182.525 77.718 181.111 79.216C180.873 79.468 180.243 80.14 179.347 81.064C178.871 81.568 178.773 81.652 178.297 82.17C178.983 81.61 179.347 81.4 179.963 81.176C180.537 80.952 181.111 80.854 181.685 80.854C183.659 80.854 184.947 82.058 184.947 83.864C184.947 84.774 184.625 85.558 184.023 86.16C183.197 86.972 181.937 87.42 180.495 87.42C179.543 87.42 178.843 87.21 178.409 86.776C178.143 86.51 177.989 86.146 177.989 85.754C177.989 84.858 178.773 84.228 179.865 84.228C181.013 84.228 181.825 84.872 182.329 86.174C183.001 85.824 183.323 85.558 183.617 85.068C183.827 84.718 183.953 84.256 183.953 83.808C183.953 82.464 183.029 81.652 181.489 81.652C179.823 81.652 177.737 82.772 176.505 84.34C176.393 84.48 176.337 84.522 176.267 84.522C176.099 84.522 175.511 83.92 175.511 83.752C175.511 83.696 175.553 83.64 175.637 83.584C175.917 83.388 175.959 83.346 176.617 82.716C178.409 80.966 179.319 79.972 181.433 77.396C178.619 77.774 177.709 77.9 177.415 77.998C177.331 78.026 177.303 78.026 177.275 78.026C177.121 78.026 176.967 77.55 176.911 76.906ZM181.461 86.51C181.111 85.502 180.565 85.026 179.795 85.026C179.207 85.026 178.829 85.306 178.829 85.74C178.829 86.286 179.459 86.65 180.383 86.65C180.789 86.65 181.055 86.622 181.461 86.51ZM191.233 77.074C192.549 77.396 193.627 77.536 194.943 77.536C195.503 77.536 196.329 77.494 196.693 77.452C197.071 77.41 197.141 77.396 197.211 77.396C197.295 77.396 197.323 77.424 197.337 77.494C197.365 77.578 197.393 77.9 197.393 78.096C197.393 78.348 197.379 78.404 197.281 78.432C197.071 78.488 195.993 78.544 195.195 78.544C193.991 78.544 192.689 78.418 191.583 78.18C191.177 78.096 191.163 78.082 191.163 77.83C191.163 77.536 191.177 77.354 191.233 77.074ZM190.659 83.626C190.855 84.158 190.995 84.396 191.303 84.69C191.793 85.166 192.297 85.404 193.109 85.544C193.585 85.628 194.257 85.684 194.859 85.684C196.105 85.684 197.267 85.544 198.555 85.25C198.583 85.236 198.597 85.236 198.625 85.236C198.695 85.236 198.737 85.278 198.751 85.362C198.779 85.488 198.793 85.88 198.793 86.132C198.793 86.258 198.751 86.314 198.639 86.342C197.533 86.566 196.077 86.706 194.887 86.706C193.081 86.706 192.003 86.482 191.177 85.922C190.757 85.642 190.435 85.278 190.197 84.872C190.043 84.592 189.917 84.284 189.917 84.186C189.917 84.074 190.183 83.864 190.659 83.626ZM206.297 76.192C206.773 76.192 207.067 76.22 207.375 76.276C207.515 76.304 207.585 76.36 207.585 76.444C207.585 76.486 207.571 76.528 207.557 76.612C207.501 76.794 207.473 77.186 207.473 77.578C207.473 78.11 207.571 79.146 207.669 79.664C207.795 80.322 207.963 80.56 208.313 80.56C208.621 80.56 209.027 80.406 210.203 79.818C210.497 79.664 210.623 79.594 210.889 79.398C210.931 79.384 210.945 79.37 210.987 79.37C211.141 79.37 211.631 80.126 211.631 80.364C211.631 80.448 211.561 80.504 211.393 80.546C210.889 80.658 210.035 80.966 209.237 81.288C206.773 82.296 205.513 83.458 205.513 84.69C205.513 85.726 206.381 86.174 208.383 86.174C209.433 86.174 210.497 86.09 211.645 85.908C211.701 85.894 211.743 85.894 211.757 85.894C211.841 85.894 211.897 85.936 211.925 86.006C211.967 86.09 212.009 86.496 212.009 86.734C212.009 86.888 211.967 86.944 211.799 86.972C211.253 87.042 209.685 87.126 208.733 87.126C207.655 87.126 206.773 87.028 206.199 86.832C205.107 86.482 204.561 85.796 204.561 84.732C204.561 83.976 204.855 83.276 205.471 82.604C205.989 82.03 206.451 81.694 207.515 81.106C206.885 80.854 206.703 80.21 206.479 77.48C206.423 76.836 206.395 76.598 206.297 76.192ZM219.625 79.244C218.715 79.328 218.603 79.342 218.099 79.356C218.029 79.37 217.903 79.37 217.763 79.384C217.539 79.398 217.413 79.398 217.315 79.398C217.119 79.398 217.091 79.384 217.063 79.286C217.021 79.146 216.979 78.922 216.937 78.488C217.161 78.488 217.595 78.502 217.721 78.502C218.211 78.502 219.163 78.432 219.905 78.348C220.227 77.242 220.339 76.64 220.339 75.856C220.745 75.926 221.053 75.996 221.361 76.094C221.557 76.164 221.585 76.192 221.585 76.262C221.585 76.304 221.557 76.374 221.501 76.472C221.291 76.864 221.221 77.074 220.927 78.194C221.977 77.998 222.439 77.9 222.831 77.774C222.887 77.746 222.915 77.746 222.943 77.746C223.041 77.746 223.069 77.83 223.111 78.166C223.125 78.278 223.139 78.348 223.139 78.39C223.153 78.432 223.153 78.488 223.153 78.516C223.153 78.628 223.111 78.656 222.859 78.712C222.845 78.712 222.803 78.726 222.733 78.74C222.243 78.838 221.221 79.02 220.647 79.104C220.101 80.714 219.345 82.394 218.435 83.99C218.001 84.746 217.749 85.082 217.609 85.082C217.441 85.082 216.867 84.648 216.867 84.522C216.867 84.452 216.909 84.382 216.993 84.27C217.259 83.962 217.483 83.626 217.763 83.178C218.491 82.016 219.023 80.91 219.625 79.244ZM223.615 80.364C224.525 80.448 224.749 80.49 224.749 80.644C224.749 80.7 224.749 80.7 224.707 80.826C224.637 81.036 224.609 81.302 224.609 81.722C224.609 82.394 224.651 83.178 224.735 84.186C225.435 84.452 226.037 84.788 226.681 85.236C227.157 85.572 227.297 85.698 227.297 85.796C227.297 86.02 226.933 86.566 226.793 86.566C226.751 86.566 226.695 86.538 226.583 86.426C226.079 85.95 225.351 85.46 224.763 85.194C224.763 85.698 224.721 85.978 224.595 86.3C224.301 87.07 223.559 87.476 222.467 87.476C221.109 87.476 220.199 86.776 220.199 85.74C220.199 84.62 221.207 83.808 222.593 83.808C223.041 83.808 223.293 83.836 223.825 83.948C223.755 82.968 223.713 82.198 223.685 81.26C223.671 80.798 223.657 80.658 223.615 80.364ZM223.839 84.872C223.447 84.704 223.069 84.634 222.621 84.634C221.669 84.634 221.053 85.04 221.053 85.67C221.053 86.258 221.557 86.608 222.411 86.608C223.405 86.608 223.853 86.132 223.853 85.068C223.853 84.97 223.839 84.872 223.839 84.872ZM224.693 79.104C224.749 78.964 224.749 78.964 224.819 78.866C224.847 78.81 224.889 78.768 224.917 78.712C224.987 78.6 225.127 78.46 225.155 78.46C225.197 78.474 225.197 78.474 225.225 78.474C225.673 78.488 227.871 79.79 227.871 80.042C227.871 80.042 227.871 80.042 227.871 80.056C227.787 80.294 227.773 80.336 227.577 80.616C227.493 80.756 227.493 80.756 227.353 80.812C227.325 80.812 227.241 80.756 227.185 80.714C226.471 80.07 225.799 79.65 224.833 79.258C224.749 79.216 224.693 79.16 224.693 79.104ZM234.213 76.276C234.689 76.276 234.983 76.304 235.291 76.36C235.431 76.388 235.501 76.444 235.501 76.528C235.501 76.57 235.487 76.612 235.473 76.696C235.417 76.878 235.389 77.27 235.389 77.662C235.389 78.194 235.487 79.23 235.585 79.748C235.711 80.406 235.879 80.644 236.229 80.644C236.537 80.644 236.943 80.49 238.119 79.902C238.413 79.748 238.539 79.678 238.805 79.482C238.847 79.468 238.861 79.454 238.903 79.454C239.057 79.454 239.547 80.21 239.547 80.448C239.547 80.532 239.477 80.588 239.309 80.63C238.805 80.742 237.951 81.05 237.153 81.372C234.689 82.38 233.429 83.542 233.429 84.774C233.429 85.81 234.297 86.258 236.299 86.258C237.349 86.258 238.413 86.174 239.561 85.992C239.617 85.978 239.659 85.978 239.673 85.978C239.757 85.978 239.813 86.02 239.841 86.09C239.883 86.174 239.925 86.58 239.925 86.818C239.925 86.972 239.883 87.028 239.715 87.056C239.169 87.126 237.601 87.21 236.649 87.21C235.571 87.21 234.689 87.112 234.115 86.916C233.023 86.566 232.477 85.88 232.477 84.816C232.477 84.06 232.771 83.36 233.387 82.688C233.905 82.114 234.367 81.778 235.431 81.19C234.801 80.938 234.619 80.294 234.395 77.564C234.339 76.92 234.311 76.682 234.213 76.276ZM239.099 77.62C239.099 77.578 239.127 77.55 239.183 77.494C239.211 77.48 239.253 77.452 239.295 77.41C239.491 77.284 239.547 77.242 239.617 77.242C239.715 77.242 239.925 77.424 240.275 77.788C240.611 78.124 241.017 78.67 241.017 78.768C241.017 78.838 240.961 78.894 240.779 79.034C240.583 79.188 240.471 79.258 240.429 79.258C240.387 79.258 240.359 79.23 240.303 79.146C239.981 78.572 239.659 78.166 239.183 77.732C239.127 77.69 239.099 77.648 239.099 77.62ZM240.275 76.808C240.275 76.71 240.695 76.416 240.821 76.43C240.947 76.444 241.409 76.878 241.773 77.354C242.095 77.746 242.151 77.844 242.151 77.942C242.151 78.026 242.109 78.068 241.829 78.25C241.661 78.362 241.619 78.376 241.577 78.376C241.521 78.376 241.493 78.348 241.465 78.278C241.227 77.802 240.821 77.312 240.331 76.878C240.289 76.85 240.275 76.836 240.275 76.808ZM248.059 77.928L253.589 77.088C254.485 76.962 254.737 76.92 255.115 76.822C255.157 76.808 255.185 76.808 255.213 76.808C255.297 76.808 255.353 76.85 255.395 76.92C255.465 77.088 255.591 77.592 255.591 77.718C255.591 77.844 255.549 77.858 255.297 77.858C254.429 77.872 253.617 78.068 252.903 78.46C251.237 79.356 250.103 81.218 250.103 83.024C250.103 84.354 250.859 85.306 252.329 85.866C252.875 86.076 253.225 86.16 253.869 86.23C253.967 86.244 254.009 86.286 254.009 86.384C254.009 86.58 253.939 86.958 253.855 87.168C253.813 87.266 253.771 87.308 253.673 87.308C253.449 87.308 252.595 87.084 252.049 86.888C250.117 86.188 249.151 84.9 249.151 82.982C249.151 81.75 249.585 80.588 250.411 79.552C250.859 79.02 251.209 78.712 252.063 78.138C246.995 79.006 246.211 79.16 245.553 79.468C245.441 79.524 245.371 79.538 245.315 79.538C245.189 79.538 245.147 79.496 245.049 79.328C244.895 79.048 244.783 78.74 244.699 78.334C245.441 78.306 245.707 78.278 248.059 77.928ZM253.421 79.972C253.421 79.944 253.449 79.902 253.505 79.86C253.533 79.846 253.575 79.818 253.617 79.776C253.813 79.636 253.883 79.594 253.953 79.608C254.051 79.622 254.345 79.874 254.709 80.28C254.961 80.546 255.325 81.05 255.325 81.12C255.325 81.176 255.283 81.218 255.185 81.302C255.017 81.47 254.793 81.61 254.751 81.61C254.695 81.61 254.667 81.582 254.611 81.498C254.331 80.98 253.939 80.476 253.505 80.098C253.449 80.056 253.421 80.014 253.421 79.972ZM255.129 78.782C255.353 78.796 256.459 80.042 256.459 80.308C256.459 80.392 256.417 80.42 256.137 80.602C255.983 80.714 255.941 80.742 255.885 80.742C255.843 80.742 255.815 80.728 255.773 80.644C255.479 80.084 255.157 79.692 254.653 79.244C254.611 79.202 254.597 79.188 254.597 79.16C254.597 79.076 255.017 78.782 255.129 78.782ZM266.777 80.056C266.021 80.112 265.279 80.154 264.803 80.154C264.761 80.154 264.677 80.154 264.579 80.154C264.215 80.14 263.963 80.14 263.837 80.14C263.697 80.14 263.655 80.126 263.641 80.028C263.599 79.888 263.571 79.552 263.571 79.37C263.571 79.342 263.571 79.286 263.571 79.23C264.103 79.272 264.355 79.286 264.803 79.286C265.503 79.286 266.077 79.258 266.777 79.188C266.777 78.712 266.777 78.432 266.777 78.138C266.777 77.942 266.777 77.774 266.777 77.62C266.777 77.116 266.763 76.85 266.707 76.416C267.141 76.444 267.477 76.486 267.743 76.57C267.855 76.598 267.911 76.654 267.911 76.738C267.911 76.794 267.911 76.822 267.855 76.92C267.701 77.228 267.645 77.802 267.645 79.09C268.373 78.978 268.863 78.894 269.619 78.698C269.675 78.684 269.703 78.684 269.717 78.684C269.773 78.684 269.801 78.712 269.815 78.768C269.843 78.852 269.885 79.286 269.885 79.44C269.885 79.552 269.857 79.58 269.745 79.608C269.409 79.706 268.499 79.86 267.645 79.972C267.645 81.022 267.687 82.394 267.785 84.032C268.695 84.396 269.493 84.844 270.235 85.404C270.361 85.502 270.417 85.572 270.417 85.656C270.417 85.726 270.361 85.838 270.207 86.048C269.955 86.384 269.955 86.384 269.885 86.384C269.829 86.384 269.829 86.384 269.437 86.048C269.017 85.684 268.401 85.292 267.813 84.984C267.827 85.11 267.827 85.208 267.827 85.278C267.827 86.538 266.959 87.266 265.475 87.266C264.089 87.266 263.221 86.58 263.221 85.516C263.221 84.41 264.173 83.682 265.615 83.682C266.175 83.682 266.483 83.71 266.889 83.808C266.805 81.75 266.805 81.428 266.777 80.056ZM266.889 84.718C266.483 84.564 266.133 84.508 265.657 84.508C264.649 84.508 264.061 84.872 264.061 85.474C264.061 86.062 264.593 86.412 265.475 86.412C266.455 86.412 266.903 85.992 266.903 85.096C266.903 84.816 266.903 84.718 266.889 84.718ZM261.443 83.374C261.499 83.612 261.569 83.766 261.695 83.934C261.765 84.032 261.779 84.088 261.779 84.158C261.765 84.27 261.765 84.27 261.583 84.788C261.331 85.488 261.079 86.468 261.023 87C260.995 87.196 260.967 87.238 260.855 87.266C260.729 87.294 260.491 87.308 260.281 87.308C260.127 87.308 260.113 87.294 259.973 86.762C259.679 85.67 259.539 84.536 259.539 83.234C259.539 81.75 259.693 80.364 260.085 78.32C260.239 77.55 260.295 77.172 260.351 76.542C261.093 76.682 261.513 76.864 261.513 77.032C261.513 77.088 261.513 77.102 261.415 77.256C260.925 78.124 260.379 81.33 260.379 83.388C260.379 84.186 260.435 84.844 260.561 85.698C260.757 85.194 260.869 84.872 261.037 84.466C261.289 83.78 261.289 83.78 261.443 83.374ZM275.625 79.244C274.715 79.328 274.603 79.342 274.099 79.356C274.029 79.37 273.903 79.37 273.763 79.384C273.539 79.398 273.413 79.398 273.315 79.398C273.119 79.398 273.091 79.384 273.063 79.286C273.021 79.146 272.979 78.922 272.937 78.488C273.161 78.488 273.595 78.502 273.721 78.502C274.211 78.502 275.163 78.432 275.905 78.348C276.227 77.242 276.339 76.64 276.339 75.856C276.745 75.926 277.053 75.996 277.361 76.094C277.557 76.164 277.585 76.192 277.585 76.262C277.585 76.304 277.557 76.374 277.501 76.472C277.291 76.864 277.221 77.074 276.927 78.194C277.977 77.998 278.439 77.9 278.831 77.774C278.887 77.746 278.915 77.746 278.943 77.746C279.041 77.746 279.069 77.83 279.111 78.166C279.125 78.278 279.139 78.348 279.139 78.39C279.153 78.432 279.153 78.488 279.153 78.516C279.153 78.628 279.111 78.656 278.859 78.712C278.845 78.712 278.803 78.726 278.733 78.74C278.243 78.838 277.221 79.02 276.647 79.104C276.101 80.714 275.345 82.394 274.435 83.99C274.001 84.746 273.749 85.082 273.609 85.082C273.441 85.082 272.867 84.648 272.867 84.522C272.867 84.452 272.909 84.382 272.993 84.27C273.259 83.962 273.483 83.626 273.763 83.178C274.491 82.016 275.023 80.91 275.625 79.244ZM279.615 80.364C280.525 80.448 280.749 80.49 280.749 80.644C280.749 80.7 280.749 80.7 280.707 80.826C280.637 81.036 280.609 81.302 280.609 81.722C280.609 82.394 280.651 83.178 280.735 84.186C281.435 84.452 282.037 84.788 282.681 85.236C283.157 85.572 283.297 85.698 283.297 85.796C283.297 86.02 282.933 86.566 282.793 86.566C282.751 86.566 282.695 86.538 282.583 86.426C282.079 85.95 281.351 85.46 280.763 85.194C280.763 85.698 280.721 85.978 280.595 86.3C280.301 87.07 279.559 87.476 278.467 87.476C277.109 87.476 276.199 86.776 276.199 85.74C276.199 84.62 277.207 83.808 278.593 83.808C279.041 83.808 279.293 83.836 279.825 83.948C279.755 82.968 279.713 82.198 279.685 81.26C279.671 80.798 279.657 80.658 279.615 80.364ZM279.839 84.872C279.447 84.704 279.069 84.634 278.621 84.634C277.669 84.634 277.053 85.04 277.053 85.67C277.053 86.258 277.557 86.608 278.411 86.608C279.405 86.608 279.853 86.132 279.853 85.068C279.853 84.97 279.839 84.872 279.839 84.872ZM280.693 79.104C280.749 78.964 280.749 78.964 280.819 78.866C280.847 78.81 280.889 78.768 280.917 78.712C280.987 78.6 281.127 78.46 281.155 78.46C281.197 78.474 281.197 78.474 281.225 78.474C281.673 78.488 283.871 79.79 283.871 80.042C283.871 80.042 283.871 80.042 283.871 80.056C283.787 80.294 283.773 80.336 283.577 80.616C283.493 80.756 283.493 80.756 283.353 80.812C283.325 80.812 283.241 80.756 283.185 80.714C282.471 80.07 281.799 79.65 280.833 79.258C280.749 79.216 280.693 79.16 280.693 79.104ZM293.335 75.772C294.007 76.122 294.441 76.444 294.441 76.626C294.441 76.71 294.385 76.78 294.287 76.836C294.119 76.948 293.993 77.06 293.685 77.438C292.747 78.586 291.949 79.468 290.409 81.022C290.199 81.232 290.115 81.414 290.115 81.624C290.115 81.82 290.199 81.974 290.381 82.156C291.445 83.122 292.663 84.354 293.643 85.446C294.357 86.244 294.735 86.72 294.735 86.818C294.735 86.916 294.567 87.084 294.231 87.336C294.091 87.448 293.965 87.518 293.909 87.518C293.853 87.518 293.811 87.49 293.769 87.406C293.083 86.272 291.739 84.732 289.737 82.828C289.303 82.408 289.121 82.058 289.121 81.638C289.121 81.372 289.205 81.092 289.359 80.854C289.471 80.686 289.471 80.686 290.409 79.706C291.361 78.698 292.285 77.578 292.831 76.78C293.041 76.444 293.167 76.22 293.335 75.772ZM300.139 85.096C300.139 85.04 300.153 85.012 300.489 84.676C300.643 84.508 300.671 84.494 300.741 84.494C300.909 84.494 301.833 85.166 302.365 85.67C302.897 86.188 303.667 87.14 303.667 87.294C303.667 87.364 303.625 87.42 303.345 87.686C303.079 87.938 303.023 87.98 302.953 87.98C302.911 87.98 302.869 87.952 302.813 87.868C302.057 86.664 301.231 85.81 300.237 85.236C300.167 85.194 300.139 85.152 300.139 85.096ZM23.948 106.016V110.496C23.948 111.056 23.976 111.462 24.032 111.812H23.038C23.094 111.42 23.122 111.028 23.122 110.482V106.296C22.478 106.94 22.1 107.262 21.274 107.878C21.134 107.57 21.008 107.388 20.77 107.122C21.708 106.534 22.45 105.932 23.192 105.12C23.892 104.378 24.326 103.706 24.858 102.628H22.338C21.946 102.628 21.638 102.642 21.26 102.684V101.802C21.652 101.844 21.918 101.858 22.324 101.858H23.122V100.598C23.122 100.234 23.094 99.87 23.038 99.576H24.046C23.99 99.856 23.962 100.206 23.962 100.626V101.858H24.746C25.152 101.858 25.376 101.844 25.516 101.816L25.936 102.278C25.838 102.418 25.768 102.558 25.614 102.852C25.208 103.692 24.774 104.364 24.144 105.148C24.802 105.918 25.376 106.408 26.314 106.982C26.09 107.248 25.978 107.43 25.838 107.724C24.998 107.122 24.508 106.688 23.948 106.016ZM28.624 103.748V100.836C28.624 100.402 28.596 100.108 28.526 99.618H29.59C29.52 100.08 29.492 100.374 29.492 100.836V103.748H31.256C31.844 103.748 32.208 103.72 32.572 103.664V104.616C32.152 104.574 31.732 104.546 31.256 104.546H29.492V110.286H31.62C32.334 110.286 32.74 110.258 33.076 110.202V111.21C32.628 111.14 32.194 111.112 31.62 111.112H26.79C26.216 111.112 25.796 111.14 25.348 111.21V110.202C25.698 110.258 26.104 110.286 26.79 110.286H28.624V104.546H27.308C26.832 104.546 26.398 104.574 25.978 104.616V103.664C26.328 103.72 26.72 103.748 27.308 103.748H28.624ZM45.326 101.032V101.858C45.326 102.264 45.34 102.516 45.382 102.81C44.948 102.782 44.486 102.768 43.87 102.768H38.144C37.514 102.768 37.052 102.782 36.618 102.81C36.66 102.474 36.674 102.25 36.674 101.858V101.032C36.674 100.654 36.66 100.444 36.618 100.052C37.038 100.108 37.388 100.122 38.158 100.122H43.856C44.612 100.122 44.948 100.108 45.382 100.052C45.34 100.402 45.326 100.598 45.326 101.032ZM44.472 100.836H37.528V102.082H44.472V100.836ZM36.17 108.172V105.036C36.17 104.336 36.156 103.958 36.114 103.566C36.534 103.608 36.94 103.622 37.626 103.622H44.374C45.046 103.622 45.466 103.608 45.886 103.566C45.844 103.93 45.83 104.322 45.83 105.036V108.172L45.844 108.886V109.124C45.844 109.208 45.858 109.32 45.886 109.572C45.438 109.53 45.088 109.516 44.374 109.516H37.626C36.912 109.516 36.562 109.53 36.114 109.572C36.156 109.278 36.156 109.278 36.17 108.172ZM36.996 104.322V105.358H45.004V104.322H36.996ZM36.996 106.03V107.08H45.004V106.03H36.996ZM36.996 107.752V108.816H45.004V107.752H36.996ZM38.732 109.586L39.432 110.118C38.732 110.622 38.284 110.874 37.5 111.224C37.01 111.434 36.674 111.546 35.442 111.91C35.246 111.546 35.148 111.42 34.84 111.126C36.52 110.832 37.822 110.314 38.732 109.586ZM42.484 110.076L43.142 109.558C44.206 110.328 45.522 110.846 47.132 111.168C46.88 111.406 46.698 111.63 46.558 111.924C44.5 111.322 43.772 111 42.484 110.076ZM55.686 102.012C55.448 103.986 55.014 105.708 54.384 107.15C53.572 108.998 52.648 109.922 51.598 109.922C50.982 109.922 50.408 109.572 50.016 108.97C49.666 108.452 49.456 107.584 49.456 106.702C49.456 104.91 50.282 103.272 51.71 102.264C52.718 101.55 53.922 101.186 55.308 101.186C58.36 101.186 60.376 103.034 60.376 105.834C60.376 107.682 59.508 109.18 57.8 110.258C57.198 110.65 56.288 111.056 56.05 111.056C55.966 111.056 55.91 111.014 55.812 110.888C55.644 110.664 55.462 110.51 55.196 110.356C56.274 110.034 56.792 109.824 57.394 109.432C58.696 108.564 59.41 107.276 59.41 105.792C59.41 104.252 58.626 102.992 57.268 102.376C56.792 102.152 56.386 102.054 55.686 102.012ZM54.72 102.068C53.992 102.138 53.404 102.292 52.816 102.586C51.304 103.342 50.366 104.924 50.366 106.758C50.366 108.018 50.884 108.914 51.626 108.914C52.214 108.914 52.844 108.214 53.446 106.87C54.076 105.456 54.524 103.776 54.72 102.068ZM68.552 102.81H72.92C73.606 102.81 74.068 102.796 74.516 102.74C74.46 103.23 74.432 103.706 74.432 104.434V110.258C74.432 111.042 74.446 111.476 74.516 111.882H73.578V111.112H64.464V111.882H63.526C63.596 111.392 63.61 111.07 63.61 110.244V104.434C63.61 103.776 63.582 103.3 63.526 102.74C63.96 102.796 64.422 102.81 65.108 102.81H67.628C68.02 102.082 68.132 101.802 68.412 100.892H64.506C63.918 100.892 63.526 100.92 63.092 100.976V100.038C63.484 100.094 63.918 100.122 64.506 100.122H73.536C74.11 100.122 74.544 100.094 74.95 100.038V100.976C74.572 100.92 74.124 100.892 73.536 100.892H69.322C69.126 101.55 68.888 102.18 68.552 102.81ZM67.502 106.016V107.752H70.442V106.016H67.502ZM70.442 105.302V103.552H67.502V105.302H70.442ZM67.502 108.466V110.356H70.442V108.466H67.502ZM66.676 103.552H64.464V110.356H66.676V103.552ZM71.268 103.552V110.356H73.578V103.552H71.268ZM81.656 101.214H80.928C80.508 101.214 80.228 101.228 80.004 101.27V100.416C80.27 100.472 80.55 100.486 81.068 100.486H84.54C84.932 100.458 85.142 100.43 85.17 100.43V101.256C84.876 101.228 84.498 101.214 84.078 101.214H82.524C82.132 102.278 81.824 102.992 81.362 103.874C82.482 103.79 83.042 103.734 84.008 103.594C83.714 103.09 83.532 102.838 83.084 102.236L83.7 101.9C84.386 102.796 84.904 103.622 85.422 104.588L84.722 105.036C84.568 104.644 84.498 104.518 84.372 104.252C82.608 104.518 82.258 104.56 80.438 104.714C80.116 104.728 79.976 104.756 79.682 104.798L79.542 103.916C79.71 103.93 79.864 103.944 80.004 103.944C80.102 103.944 80.116 103.944 80.522 103.916C81.054 102.978 81.306 102.376 81.656 101.214ZM81.936 106.562V105.82C81.936 105.428 81.908 105.148 81.866 104.882H82.776C82.72 105.12 82.706 105.344 82.706 105.82V106.562H84.372C84.722 106.534 84.918 106.506 84.946 106.506V107.332C84.68 107.304 84.344 107.29 83.952 107.29H82.706V109.39C83.868 109.152 84.176 109.068 85.198 108.774L85.24 109.544C83.784 109.964 82.342 110.286 80.382 110.594C80.116 110.636 79.794 110.706 79.626 110.748L79.444 109.852C79.892 109.852 80.494 109.782 81.936 109.53V107.29H80.746C80.326 107.29 80.046 107.304 79.794 107.346V106.492C80.004 106.548 80.312 106.562 80.788 106.562H81.936ZM78.968 102.712V110.118C78.968 110.916 78.982 111.28 79.024 111.784H78.072C78.128 111.322 78.156 110.86 78.156 110.132V106.142C78.156 105.358 78.17 104.784 78.198 104.098C77.792 104.966 77.47 105.498 76.952 106.156C76.7 105.708 76.686 105.694 76.42 105.4C77.148 104.532 77.736 103.58 78.24 102.432C78.674 101.438 79.024 100.318 79.15 99.548L80.032 99.828C79.962 99.982 79.92 100.122 79.864 100.318C79.64 101.06 79.542 101.298 78.968 102.712ZM86.57 108.578H85.66C85.702 108.214 85.73 107.808 85.73 107.192V101.914C85.73 101.312 85.716 100.92 85.66 100.542H86.584C86.528 100.92 86.514 101.242 86.514 101.914V107.192C86.514 107.892 86.528 108.214 86.57 108.578ZM88.67 101.494V110.58C88.67 111.392 88.348 111.588 87.032 111.588C86.696 111.588 86.458 111.588 85.94 111.56C85.898 111.238 85.842 111.014 85.716 110.706C86.402 110.776 86.864 110.818 87.172 110.818C87.732 110.818 87.844 110.762 87.844 110.482V101.466C87.844 100.738 87.83 100.346 87.76 99.884H88.754C88.698 100.29 88.67 100.724 88.67 101.494ZM97.784 105.806L99.436 104.924C100.682 104.28 100.976 104.084 101.452 103.664C101.788 104.042 102.138 104.56 102.138 104.7C102.138 104.798 102.068 104.868 101.9 104.91C101.2 105.12 99.086 106.072 97.896 106.73C97.924 107.234 97.938 107.976 97.938 108.438C97.938 108.97 97.938 109.026 97.882 109.068C97.812 109.124 97.574 109.152 97.28 109.152C97.042 109.152 97 109.124 97 108.942C97 108.83 97 108.648 97.014 108.382C97.028 108.242 97.028 108.032 97.028 107.724C97.028 107.472 97.028 107.346 97.028 107.192C96.986 107.22 96.972 107.234 96.902 107.276C95.334 108.116 94.746 108.718 94.746 109.446C94.746 110.188 95.474 110.496 97.196 110.496C98.428 110.496 100.108 110.342 100.696 110.188C100.724 110.174 100.752 110.174 100.78 110.174C100.864 110.174 100.92 110.23 100.948 110.37C100.976 110.496 101.004 110.832 101.004 111.028C101.004 111.224 100.976 111.252 100.654 111.28C99.996 111.35 98.428 111.406 97.392 111.406C96.174 111.406 95.46 111.308 94.9 111.07C94.172 110.748 93.822 110.23 93.822 109.474C93.822 108.34 94.48 107.668 96.958 106.268C96.818 105.442 96.552 105.106 96.034 105.106C95.39 105.106 94.718 105.358 93.906 105.89C93.318 106.282 92.996 106.548 92.576 106.968C92.492 107.052 92.408 107.094 92.338 107.094C92.184 107.094 91.764 106.548 91.764 106.352C91.764 106.296 91.806 106.24 91.932 106.156C92.198 105.974 92.604 105.652 92.912 105.372C93.822 104.56 94.424 103.79 94.998 102.74C94.172 102.796 93.248 102.838 92.52 102.838C92.338 102.838 92.282 102.796 92.24 102.642C92.198 102.446 92.17 102.236 92.17 101.914C92.674 101.942 93.01 101.956 93.584 101.956C94.06 101.956 94.886 101.914 95.418 101.858C95.782 101.004 95.894 100.556 95.922 99.884C96.734 100.01 97.098 100.15 97.098 100.332C97.098 100.388 97.084 100.402 96.986 100.556C96.846 100.752 96.846 100.752 96.44 101.746C97.602 101.578 97.854 101.522 98.988 101.242C99.114 101.214 99.198 101.2 99.226 101.2C99.296 101.2 99.338 101.242 99.366 101.34C99.408 101.494 99.45 101.802 99.45 101.928C99.45 102.082 99.408 102.096 98.988 102.18C97.56 102.446 97.336 102.474 96.02 102.628C95.516 103.636 95.096 104.238 94.368 105.022C95.11 104.546 95.628 104.364 96.244 104.364C97.098 104.364 97.56 104.798 97.784 105.806ZM110.664 110.062V104.322H108.284C107.71 104.322 107.346 104.35 106.954 104.392V103.496C107.318 103.538 107.682 103.566 108.284 103.566H113.842C114.43 103.566 114.808 103.538 115.172 103.496V104.392C114.808 104.35 114.416 104.322 113.842 104.322H111.49V106.534H114.08C114.682 106.534 115.032 106.506 115.382 106.45V107.36C114.99 107.318 114.626 107.29 114.08 107.29H111.49V110.272C112.092 110.37 112.666 110.412 113.688 110.412C114.85 110.412 115.662 110.384 116.824 110.286C116.656 110.636 116.6 110.818 116.53 111.224C115.368 111.252 115.284 111.252 114.906 111.252C112.918 111.252 112.638 111.238 111.966 111.14C109.866 110.846 108.564 110.062 107.836 108.62C107.276 109.908 106.814 110.608 105.792 111.672C105.554 111.378 105.47 111.294 105.092 111.042C106.03 110.16 106.464 109.6 106.912 108.648C107.374 107.71 107.738 106.338 107.738 105.568C107.738 105.526 107.738 105.498 107.724 105.442L108.676 105.624C108.62 105.82 108.62 105.82 108.522 106.324C108.452 106.646 108.242 107.472 108.144 107.766C108.508 108.494 108.732 108.802 109.222 109.236C109.6 109.558 110.048 109.824 110.664 110.062ZM110.454 101.172V100.528C110.454 100.22 110.426 99.996 110.37 99.688H111.406C111.35 99.996 111.322 100.22 111.322 100.528V101.172H115.242C115.774 101.172 116.18 101.158 116.6 101.116C116.558 101.396 116.544 101.662 116.544 102.026V102.88C116.544 103.286 116.558 103.538 116.6 103.832H115.718V101.956H106.338V103.832H105.456C105.498 103.524 105.512 103.3 105.512 102.88V102.026C105.512 101.69 105.498 101.368 105.456 101.116C105.876 101.158 106.282 101.172 106.8 101.172H110.454ZM121.402 107.542V104.91C121.402 104.616 121.388 104.364 121.36 104.112C121.654 104.14 121.934 104.154 122.312 104.154H125.238V101.956H122.06C121.388 103.104 120.744 103.902 119.848 104.7C119.624 104.406 119.484 104.266 119.204 104.07C120.52 102.936 121.248 101.956 121.892 100.444C122.046 100.052 122.144 99.758 122.214 99.464L123.18 99.73C123.11 99.856 123.068 99.94 122.998 100.094C122.928 100.234 122.928 100.234 122.704 100.738C122.578 101.018 122.578 101.018 122.494 101.186H129.158C129.746 101.186 130.04 101.172 130.362 101.116V102.026C130.026 101.97 129.704 101.956 129.158 101.956H126.12V104.154H128.542C129.13 104.154 129.382 104.14 129.746 104.084V104.98C129.424 104.938 129.074 104.924 128.556 104.924H126.12V107.542H129.508C130.11 107.542 130.488 107.514 130.866 107.458V108.438C130.474 108.382 130.054 108.354 129.508 108.354H126.12V110.58C126.12 111.154 126.148 111.462 126.218 111.826H125.154C125.224 111.49 125.238 111.196 125.238 110.566V108.354H120.38C119.834 108.354 119.4 108.382 119.022 108.438V107.458C119.414 107.514 119.778 107.542 120.38 107.542H121.402ZM122.27 107.542H125.238V104.924H122.27V107.542ZM138.524 102.082C138.524 100.696 138.524 100.654 138.454 99.786C139.266 99.828 139.672 99.926 139.672 100.094C139.672 100.15 139.658 100.192 139.616 100.304C139.49 100.626 139.42 101.144 139.406 102.026C140.344 101.928 141.072 101.802 141.716 101.62C141.884 101.578 141.926 101.564 141.954 101.564C142.01 101.564 142.038 101.606 142.108 101.76C142.178 101.942 142.248 102.236 142.248 102.32C142.248 102.418 142.234 102.418 141.884 102.488C141.058 102.656 140.316 102.768 139.392 102.866C139.406 103.16 139.406 103.412 139.406 103.552C139.406 103.804 139.406 104.266 139.42 104.924C140.61 104.784 141.38 104.616 142.374 104.266C142.416 104.252 142.43 104.252 142.444 104.252C142.5 104.252 142.528 104.28 142.598 104.434C142.668 104.574 142.766 104.91 142.766 105.008C142.766 105.078 142.738 105.106 142.486 105.19C141.66 105.456 140.498 105.694 139.462 105.792C139.476 106.352 139.518 106.912 139.644 108.326C140.764 108.676 141.268 108.886 142.164 109.404C142.892 109.838 143.214 110.09 143.214 110.23C143.214 110.328 143.186 110.37 143.032 110.594C142.794 110.93 142.738 110.986 142.654 110.986C142.598 110.986 142.556 110.958 142.486 110.902C142.164 110.594 141.52 110.132 140.988 109.824C140.568 109.586 140.302 109.474 139.714 109.25C139.714 110.062 139.658 110.342 139.406 110.72C139.042 111.252 138.314 111.532 137.25 111.532C135.752 111.532 134.828 110.916 134.828 109.894C134.828 108.774 135.878 108.06 137.53 108.06C137.908 108.06 138.216 108.088 138.762 108.158C138.678 107.01 138.636 106.52 138.608 105.862C138.314 105.876 138.02 105.89 137.67 105.89C136.676 105.89 135.654 105.792 135.094 105.638C134.968 105.61 134.926 105.568 134.926 105.47C134.926 105.358 134.968 105.106 135.052 104.728C136.13 104.952 136.816 105.022 137.894 105.022C138.188 105.022 138.342 105.022 138.58 104.994C138.566 104.658 138.552 103.958 138.538 102.922C138.202 102.936 137.992 102.936 137.796 102.936C137.012 102.936 135.892 102.838 135.5 102.74C135.43 102.726 135.416 102.684 135.416 102.488C135.416 102.362 135.43 102.152 135.472 101.872C136.41 102.04 137.054 102.096 137.908 102.096C138.09 102.096 138.272 102.096 138.524 102.082ZM138.776 109.04C138.44 108.942 137.992 108.886 137.362 108.886C136.368 108.886 135.682 109.292 135.682 109.866C135.682 110.398 136.228 110.692 137.208 110.692C138.342 110.692 138.79 110.328 138.79 109.376C138.79 109.32 138.776 109.04 138.776 109.04ZM150.62 101.928L156.15 101.088C157.046 100.962 157.298 100.92 157.676 100.822C157.718 100.808 157.746 100.808 157.774 100.808C157.858 100.808 157.914 100.85 157.956 100.92C158.026 101.088 158.152 101.592 158.152 101.718C158.152 101.844 158.11 101.858 157.858 101.858C156.99 101.872 156.178 102.068 155.464 102.46C153.798 103.356 152.664 105.218 152.664 107.024C152.664 108.354 153.42 109.306 154.89 109.866C155.436 110.076 155.786 110.16 156.43 110.23C156.528 110.244 156.57 110.286 156.57 110.384C156.57 110.58 156.5 110.958 156.416 111.168C156.374 111.266 156.332 111.308 156.234 111.308C156.01 111.308 155.156 111.084 154.61 110.888C152.678 110.188 151.712 108.9 151.712 106.982C151.712 105.75 152.146 104.588 152.972 103.552C153.42 103.02 153.77 102.712 154.624 102.138C149.556 103.006 148.772 103.16 148.114 103.468C148.002 103.524 147.932 103.538 147.876 103.538C147.75 103.538 147.708 103.496 147.61 103.328C147.456 103.048 147.344 102.74 147.26 102.334C148.002 102.306 148.268 102.278 150.62 101.928ZM155.982 103.972C155.982 103.944 156.01 103.902 156.066 103.86C156.094 103.846 156.136 103.818 156.178 103.776C156.374 103.636 156.444 103.594 156.514 103.608C156.612 103.622 156.906 103.874 157.27 104.28C157.522 104.546 157.886 105.05 157.886 105.12C157.886 105.176 157.844 105.218 157.746 105.302C157.578 105.47 157.354 105.61 157.312 105.61C157.256 105.61 157.228 105.582 157.172 105.498C156.892 104.98 156.5 104.476 156.066 104.098C156.01 104.056 155.982 104.014 155.982 103.972ZM157.69 102.782C157.914 102.796 159.02 104.042 159.02 104.308C159.02 104.392 158.978 104.42 158.698 104.602C158.544 104.714 158.502 104.742 158.446 104.742C158.404 104.742 158.376 104.728 158.334 104.644C158.04 104.084 157.718 103.692 157.214 103.244C157.172 103.202 157.158 103.188 157.158 103.16C157.158 103.076 157.578 102.782 157.69 102.782ZM165.152 107.878H164.256C163.514 107.878 163.22 107.892 162.758 107.92C162.814 107.514 162.828 107.136 162.828 106.506V101.942C162.828 101.144 162.8 100.444 162.758 100.15C163.234 100.206 163.598 100.22 164.186 100.22H169.814C170.374 100.22 170.822 100.206 171.242 100.15C171.2 100.43 171.172 101.158 171.172 101.942V106.506C171.172 107.15 171.186 107.5 171.242 107.92C170.836 107.892 170.458 107.878 169.744 107.878H168.568V110.3C168.568 110.706 168.694 110.748 170.094 110.748C171.34 110.748 171.648 110.692 171.83 110.412C171.998 110.188 172.082 109.684 172.166 108.662C172.544 108.872 172.74 108.956 173.006 109.04C172.698 111.434 172.558 111.546 170.01 111.546C168.05 111.546 167.7 111.392 167.7 110.566V107.878H166.062C165.88 108.984 165.544 109.67 164.886 110.314C164.088 111.084 163.108 111.546 161.456 111.91C161.33 111.574 161.218 111.378 160.98 111.098C162.66 110.804 163.528 110.44 164.256 109.74C164.676 109.334 164.928 108.858 165.068 108.256C165.082 108.186 165.082 108.186 165.124 107.962C165.138 107.948 165.138 107.92 165.152 107.878ZM163.654 101.004V102.488H170.346V101.004H163.654ZM163.654 103.244V104.77H170.346V103.244H163.654ZM163.654 105.526V107.136H170.346V105.526H163.654ZM177.472 100.906C177.738 100.934 178.074 100.962 178.27 100.962C178.676 100.962 180.118 100.822 181.42 100.654C182.162 100.556 182.274 100.528 182.582 100.374C182.694 100.318 182.736 100.304 182.792 100.304C182.918 100.304 183.072 100.458 183.394 100.92C183.506 101.088 183.562 101.214 183.562 101.298C183.562 101.396 183.534 101.41 183.296 101.578C183.086 101.718 183.086 101.718 181.672 103.216C181.434 103.468 180.804 104.14 179.908 105.064C179.432 105.568 179.334 105.652 178.858 106.17C179.544 105.61 179.908 105.4 180.524 105.176C181.098 104.952 181.672 104.854 182.246 104.854C184.22 104.854 185.508 106.058 185.508 107.864C185.508 108.774 185.186 109.558 184.584 110.16C183.758 110.972 182.498 111.42 181.056 111.42C180.104 111.42 179.404 111.21 178.97 110.776C178.704 110.51 178.55 110.146 178.55 109.754C178.55 108.858 179.334 108.228 180.426 108.228C181.574 108.228 182.386 108.872 182.89 110.174C183.562 109.824 183.884 109.558 184.178 109.068C184.388 108.718 184.514 108.256 184.514 107.808C184.514 106.464 183.59 105.652 182.05 105.652C180.384 105.652 178.298 106.772 177.066 108.34C176.954 108.48 176.898 108.522 176.828 108.522C176.66 108.522 176.072 107.92 176.072 107.752C176.072 107.696 176.114 107.64 176.198 107.584C176.478 107.388 176.52 107.346 177.178 106.716C178.97 104.966 179.88 103.972 181.994 101.396C179.18 101.774 178.27 101.9 177.976 101.998C177.892 102.026 177.864 102.026 177.836 102.026C177.682 102.026 177.528 101.55 177.472 100.906ZM182.022 110.51C181.672 109.502 181.126 109.026 180.356 109.026C179.768 109.026 179.39 109.306 179.39 109.74C179.39 110.286 180.02 110.65 180.944 110.65C181.35 110.65 181.616 110.622 182.022 110.51ZM198.29 105.68H197.31V99.226H201.314V100.122H198.29V105.68ZM203.092 106.324L202.966 105.484C203.176 105.498 203.302 105.512 203.54 105.512C203.666 105.512 203.708 105.512 204.016 105.498C204.576 104.798 204.576 104.798 204.996 104.21C204.352 103.398 203.68 102.656 203.078 102.082L203.568 101.466C203.848 101.746 203.96 101.872 204.128 102.054C204.8 100.99 205.22 100.108 205.332 99.562L206.172 99.926C206.074 100.052 206.032 100.136 205.906 100.388C205.486 101.228 205.122 101.872 204.632 102.614C204.954 102.992 205.094 103.174 205.416 103.58C206.214 102.362 206.676 101.564 206.816 101.116L207.614 101.55C207.418 101.802 207.418 101.802 206.69 102.978C206.326 103.552 205.444 104.77 204.884 105.456C205.892 105.4 206.326 105.358 207.054 105.26C206.83 104.714 206.76 104.546 206.48 104.056L207.11 103.748C207.586 104.658 207.88 105.33 208.174 106.254C209.42 105.68 210.05 105.274 210.96 104.462C210.386 103.818 209.938 103.188 209.574 102.46C209.098 103.062 208.748 103.412 208.118 103.972C207.936 103.706 207.796 103.566 207.544 103.398C208.888 102.39 210.022 100.822 210.358 99.534L211.198 99.8C210.792 100.57 210.666 100.808 210.624 100.892H212.598C213.284 100.892 213.592 100.878 213.858 100.822L214.348 101.354C214.236 101.508 214.194 101.564 214.026 101.844C213.41 102.936 212.878 103.65 212.094 104.462C213.074 105.33 213.816 105.764 215.426 106.422C215.188 106.702 215.062 106.926 214.922 107.262C213.326 106.478 212.416 105.89 211.506 105.008C210.484 105.918 209.812 106.38 208.412 107.066C208.286 106.814 208.188 106.66 208.034 106.478L207.544 106.744C207.432 106.338 207.418 106.296 207.292 105.918C206.718 105.988 206.718 105.988 206.102 106.058V110.496C206.102 111.084 206.116 111.434 206.172 111.84H205.234C205.29 111.42 205.318 111.042 205.318 110.496V106.142C204.618 106.198 204.618 106.198 203.68 106.254C203.428 106.282 203.302 106.296 203.092 106.324ZM210.19 101.606L210.064 101.788C210.428 102.586 210.82 103.16 211.534 103.916C212.388 103.048 212.71 102.6 213.242 101.606H210.19ZM203.75 107.052L204.506 107.22C204.296 109.208 204.17 109.852 203.708 111.042L202.98 110.664C203.442 109.544 203.596 108.858 203.75 107.052ZM206.634 107.122L207.292 106.884C207.614 107.794 207.88 108.774 208.09 109.922L207.348 110.174C207.18 108.97 206.942 107.99 206.634 107.122ZM213.522 108.242L213.018 108.97C212.136 108.256 211.506 107.85 210.148 107.15L210.624 106.478C212.052 107.234 212.486 107.5 213.522 108.242ZM214.236 111.014L213.844 111.826C212.052 110.818 211.016 110.384 208.832 109.754L209.196 108.984C211.142 109.558 212.234 110.006 214.236 111.014ZM225.8 110.272V107.276C223.644 109.054 220.9 110.538 217.904 111.574C217.764 111.266 217.582 111 217.358 110.79C220.06 110.006 222.468 108.802 224.694 107.164C223.112 107.416 220.424 107.738 218.394 107.906C218.086 107.934 217.806 107.976 217.596 108.018L217.4 107.122C217.554 107.136 217.61 107.136 217.694 107.136C217.918 107.136 218.674 107.094 219.374 107.038V101.97C219.374 101.508 219.36 101.214 219.332 100.78C219.668 100.822 219.906 100.836 220.466 100.836H221.74C222.02 100.43 222.244 99.982 222.454 99.436L223.364 99.632C223.042 100.206 222.874 100.486 222.636 100.836H225.506C226.094 100.836 226.332 100.822 226.682 100.78C226.64 101.158 226.626 101.48 226.626 101.998V105.498C227.452 104.686 227.998 104 228.264 103.496L228.95 104.112C228.852 104.182 228.698 104.35 228.516 104.574C228.488 104.616 228.488 104.616 227.676 105.54C227.438 105.806 227.13 106.114 226.626 106.576V110.496C226.626 111.266 226.318 111.462 225.156 111.462C224.68 111.462 224.162 111.448 223.392 111.406C223.378 111.098 223.322 110.874 223.182 110.524C223.938 110.622 224.554 110.664 225.114 110.664C225.688 110.664 225.8 110.594 225.8 110.272ZM225.716 106.352L225.8 106.268V105.442H220.214V106.968C223.98 106.618 223.98 106.618 225.716 106.352ZM220.214 103.51V104.756H225.8V103.51H220.214ZM225.8 102.824V101.55H220.214V102.824H225.8ZM238.974 109.46V110.524H241.718C242.264 110.524 242.516 110.51 242.824 110.468V111.322C242.46 111.252 242.152 111.238 241.676 111.238H235.222V111.854H234.354C234.396 111.49 234.424 111.112 234.424 110.538V107.948C234.424 107.682 234.424 107.556 234.466 106.898C234.144 107.304 233.836 107.64 233.416 108.018C233.318 107.752 233.234 107.626 232.996 107.402C232.758 109.18 232.38 110.272 231.512 111.672C231.288 111.406 231.092 111.252 230.784 111.07C232.114 109.124 232.38 107.794 232.38 102.978C232.38 102.432 232.366 102.068 232.324 101.704C232.604 101.746 232.996 101.76 233.808 101.76H240.794C241.41 101.76 241.732 101.746 242.138 101.704C242.11 101.928 242.096 102.152 242.096 102.474V103.65C242.096 103.944 242.11 104.168 242.138 104.364C241.788 104.322 241.578 104.322 240.878 104.322H233.192C233.15 105.75 233.122 106.338 233.01 107.304C234.13 106.478 234.732 105.722 235.292 104.42L236.062 104.686L235.964 104.854C235.754 105.204 235.712 105.274 235.53 105.512H238.19C238.498 105.12 238.708 104.77 238.848 104.406L239.646 104.686C239.31 105.148 239.17 105.33 239.002 105.512H241.494C242.082 105.512 242.376 105.498 242.67 105.442V106.24C242.348 106.198 242.068 106.184 241.536 106.184H238.974V107.164H241.186C241.816 107.164 241.998 107.15 242.278 107.108V107.864C241.97 107.822 241.788 107.808 241.186 107.808H238.974V108.816H241.186C241.83 108.816 242.012 108.802 242.278 108.76V109.516C241.97 109.474 241.788 109.46 241.186 109.46H238.974ZM238.218 109.46H235.222V110.524H238.218V109.46ZM238.218 108.816V107.808H235.222V108.816H238.218ZM238.218 107.164V106.184H235.222V107.164H238.218ZM233.206 103.636H241.298V102.474H233.22V102.964C233.22 103.258 233.22 103.384 233.206 103.636ZM242.95 99.968V100.85C242.516 100.794 242.18 100.78 241.452 100.78H232.926C232.268 100.78 231.862 100.794 231.442 100.85V99.968C231.876 100.038 232.254 100.052 232.926 100.052H241.452C242.124 100.052 242.516 100.024 242.95 99.968ZM251.504 107.304V109.852C251.504 110.552 251.518 111 251.56 111.322H250.594C250.636 110.972 250.664 110.552 250.664 109.852V107.304H246.982C246.8 109.306 246.422 110.44 245.54 111.728C245.246 111.462 245.092 111.35 244.756 111.154C246.016 109.502 246.268 108.004 246.268 101.732C246.268 100.976 246.254 100.724 246.212 100.164C246.618 100.206 247.01 100.22 247.682 100.22H254.906C255.592 100.22 255.942 100.206 256.334 100.164C256.306 100.528 256.292 100.864 256.292 101.48V110.496C256.292 111.35 255.984 111.546 254.668 111.546C254.22 111.546 253.576 111.518 253.002 111.476C252.974 111.182 252.918 110.958 252.806 110.608C253.618 110.72 254.248 110.762 254.724 110.762C255.312 110.762 255.438 110.692 255.438 110.356V107.304H251.504ZM251.504 103.384H255.438V101.018H251.504V103.384ZM250.664 103.384V101.018H247.136V102.628L247.122 103.384H250.664ZM251.504 104.154V106.534H255.438V104.154H251.504ZM250.664 104.154H247.108C247.094 104.546 247.094 104.84 247.094 105.036C247.08 105.834 247.08 105.834 247.038 106.534H250.664V104.154ZM261.738 105.68H262.704V112.134H258.7V111.238H261.738V105.68ZM279.784 105.806L281.436 104.924C282.682 104.28 282.976 104.084 283.452 103.664C283.788 104.042 284.138 104.56 284.138 104.7C284.138 104.798 284.068 104.868 283.9 104.91C283.2 105.12 281.086 106.072 279.896 106.73C279.924 107.234 279.938 107.976 279.938 108.438C279.938 108.97 279.938 109.026 279.882 109.068C279.812 109.124 279.574 109.152 279.28 109.152C279.042 109.152 279 109.124 279 108.942C279 108.83 279 108.648 279.014 108.382C279.028 108.242 279.028 108.032 279.028 107.724C279.028 107.472 279.028 107.346 279.028 107.192C278.986 107.22 278.972 107.234 278.902 107.276C277.334 108.116 276.746 108.718 276.746 109.446C276.746 110.188 277.474 110.496 279.196 110.496C280.428 110.496 282.108 110.342 282.696 110.188C282.724 110.174 282.752 110.174 282.78 110.174C282.864 110.174 282.92 110.23 282.948 110.37C282.976 110.496 283.004 110.832 283.004 111.028C283.004 111.224 282.976 111.252 282.654 111.28C281.996 111.35 280.428 111.406 279.392 111.406C278.174 111.406 277.46 111.308 276.9 111.07C276.172 110.748 275.822 110.23 275.822 109.474C275.822 108.34 276.48 107.668 278.958 106.268C278.818 105.442 278.552 105.106 278.034 105.106C277.39 105.106 276.718 105.358 275.906 105.89C275.318 106.282 274.996 106.548 274.576 106.968C274.492 107.052 274.408 107.094 274.338 107.094C274.184 107.094 273.764 106.548 273.764 106.352C273.764 106.296 273.806 106.24 273.932 106.156C274.198 105.974 274.604 105.652 274.912 105.372C275.822 104.56 276.424 103.79 276.998 102.74C276.172 102.796 275.248 102.838 274.52 102.838C274.338 102.838 274.282 102.796 274.24 102.642C274.198 102.446 274.17 102.236 274.17 101.914C274.674 101.942 275.01 101.956 275.584 101.956C276.06 101.956 276.886 101.914 277.418 101.858C277.782 101.004 277.894 100.556 277.922 99.884C278.734 100.01 279.098 100.15 279.098 100.332C279.098 100.388 279.084 100.402 278.986 100.556C278.846 100.752 278.846 100.752 278.44 101.746C279.602 101.578 279.854 101.522 280.988 101.242C281.114 101.214 281.198 101.2 281.226 101.2C281.296 101.2 281.338 101.242 281.366 101.34C281.408 101.494 281.45 101.802 281.45 101.928C281.45 102.082 281.408 102.096 280.988 102.18C279.56 102.446 279.336 102.474 278.02 102.628C277.516 103.636 277.096 104.238 276.368 105.022C277.11 104.546 277.628 104.364 278.244 104.364C279.098 104.364 279.56 104.798 279.784 105.806ZM288.436 101.564H291.068C290.606 100.808 290.354 100.486 289.64 99.702L290.438 99.366C291.362 100.486 291.502 100.682 291.992 101.564H293.924C294.582 100.836 294.96 100.304 295.436 99.38L296.304 99.702C295.772 100.5 295.31 101.088 294.848 101.564H297.606C298.208 101.564 298.586 101.536 298.95 101.48V102.404C298.558 102.348 298.194 102.32 297.606 102.32H288.436C287.862 102.32 287.498 102.348 287.092 102.404V101.48C287.512 101.55 287.512 101.55 288.436 101.564ZM288.87 108.676V110.272C288.87 111 288.884 111.35 288.954 111.7H287.96C288.016 111.308 288.03 110.944 288.03 110.244V104.588C288.03 103.916 288.016 103.72 287.988 103.398C288.394 103.44 288.772 103.454 289.304 103.454H291.39C292.132 103.454 292.356 103.44 292.622 103.398C292.594 103.706 292.58 104.07 292.58 104.826V110.524C292.58 111.336 292.328 111.574 291.446 111.574C291.166 111.574 290.816 111.56 290.34 111.518C290.284 111.126 290.242 111 290.13 110.678C290.592 110.776 290.984 110.832 291.278 110.832C291.67 110.832 291.754 110.762 291.754 110.468V108.676H288.87ZM288.87 107.934H291.754V106.45H288.87V107.934ZM288.87 105.708H291.754V104.21H288.87V105.708ZM294.274 103.566H295.254C295.198 103.874 295.184 104.098 295.184 104.84V107.57C295.184 108.578 295.184 108.774 295.24 109.082H294.288C294.33 108.76 294.344 108.522 294.344 107.57V104.826C294.344 104.14 294.33 103.944 294.274 103.566ZM297.13 103.16H298.138C298.068 103.51 298.054 103.888 298.054 104.616V110.44C298.054 111.378 297.774 111.616 296.682 111.616C296.234 111.616 295.758 111.588 295.1 111.546C295.058 111.196 295.002 110.986 294.848 110.636C295.562 110.762 296.15 110.818 296.584 110.818C297.102 110.818 297.2 110.762 297.2 110.412V104.588C297.2 103.762 297.186 103.524 297.13 103.16ZM308.47 110.328V106.338H306.048C305.53 106.338 305.278 106.352 304.956 106.394V105.666C304.466 105.918 304.172 106.058 303.626 106.31V110.72C303.626 111.448 303.318 111.672 302.324 111.672C302.002 111.672 301.694 111.658 301.232 111.63C301.204 111.308 301.162 111.098 301.05 110.762C301.61 110.846 301.96 110.874 302.31 110.874C302.702 110.874 302.814 110.79 302.814 110.496V106.66C302.562 106.758 302.324 106.856 301.848 107.052C301.568 107.164 301.484 107.206 301.176 107.346L300.938 106.45C301.47 106.352 301.792 106.24 302.814 105.82V102.992H302.03C301.736 102.992 301.372 103.02 301.036 103.062V102.166C301.372 102.222 301.666 102.25 302.044 102.25H302.814V101.032C302.814 100.402 302.786 100.052 302.73 99.674H303.696C303.64 100.024 303.626 100.388 303.626 101.004V102.25H304.214C304.69 102.25 304.858 102.236 305.152 102.194V103.048C304.886 103.006 304.634 102.992 304.228 102.992H303.626V105.484C304.2 105.232 304.438 105.12 305.082 104.77V105.568C305.362 105.596 305.698 105.61 306.104 105.61H311.69C312.194 105.61 312.516 105.596 312.88 105.54V106.408C312.488 106.352 312.18 106.338 311.69 106.338H309.282V107.878H311.06C311.606 107.878 311.942 107.864 312.236 107.808V108.662C311.886 108.606 311.606 108.592 311.06 108.592H309.282V110.524C309.828 110.622 310.276 110.65 310.962 110.65C311.676 110.65 312.348 110.622 313.16 110.552C312.992 110.902 312.936 111.098 312.908 111.434C311.858 111.448 311.858 111.448 311.704 111.448C309.408 111.448 308.162 111.21 307.308 110.594C306.902 110.314 306.664 110.076 306.16 109.474C305.726 110.37 305.264 111.07 304.606 111.784C304.396 111.546 304.214 111.42 303.92 111.266C304.732 110.482 305.166 109.838 305.614 108.816C305.894 108.144 306.048 107.57 306.104 106.968L306.972 107.178C306.888 107.402 306.86 107.472 306.762 107.864C306.664 108.172 306.566 108.466 306.482 108.704C307.07 109.572 307.602 110.006 308.47 110.328ZM310.682 104.588H307C306.51 104.588 306.16 104.602 305.796 104.63C305.824 104.21 305.824 104.21 305.838 103.356V101.424C305.838 100.934 305.824 100.528 305.796 100.178C306.188 100.22 306.524 100.234 307.056 100.234H310.71C311.284 100.234 311.606 100.22 311.984 100.178C311.942 100.472 311.928 100.766 311.928 101.242V103.412C311.928 103.832 311.942 104.126 311.984 104.63C311.634 104.602 311.214 104.588 310.682 104.588ZM306.636 100.948V102.054H311.116V100.948H306.636ZM306.636 102.74V103.888H311.116V102.74H306.636ZM24.858 124.192C25.334 124.192 25.628 124.22 25.936 124.276C26.076 124.304 26.146 124.36 26.146 124.444C26.146 124.486 26.132 124.528 26.118 124.612C26.062 124.794 26.034 125.186 26.034 125.578C26.034 126.11 26.132 127.146 26.23 127.664C26.356 128.322 26.524 128.56 26.874 128.56C27.182 128.56 27.588 128.406 28.764 127.818C29.058 127.664 29.184 127.594 29.45 127.398C29.492 127.384 29.506 127.37 29.548 127.37C29.702 127.37 30.192 128.126 30.192 128.364C30.192 128.448 30.122 128.504 29.954 128.546C29.45 128.658 28.596 128.966 27.798 129.288C25.334 130.296 24.074 131.458 24.074 132.69C24.074 133.726 24.942 134.174 26.944 134.174C27.994 134.174 29.058 134.09 30.206 133.908C30.262 133.894 30.304 133.894 30.318 133.894C30.402 133.894 30.458 133.936 30.486 134.006C30.528 134.09 30.57 134.496 30.57 134.734C30.57 134.888 30.528 134.944 30.36 134.972C29.814 135.042 28.246 135.126 27.294 135.126C26.216 135.126 25.334 135.028 24.76 134.832C23.668 134.482 23.122 133.796 23.122 132.732C23.122 131.976 23.416 131.276 24.032 130.604C24.55 130.03 25.012 129.694 26.076 129.106C25.446 128.854 25.264 128.21 25.04 125.48C24.984 124.836 24.956 124.598 24.858 124.192ZM38.102 124.094C38.55 124.122 38.928 124.164 39.166 124.22C39.376 124.262 39.432 124.304 39.432 124.444C39.432 124.514 39.418 124.556 39.39 124.654C39.292 124.934 39.222 125.424 39.18 126.18C39.11 127.51 38.984 131.374 38.984 132.312C38.984 133.866 39.46 134.44 40.776 134.44C41.728 134.44 42.666 134.16 43.52 133.614C44.388 133.068 44.99 132.452 45.76 131.346C45.816 131.682 45.872 131.836 46.054 132.2C46.096 132.284 46.11 132.312 46.11 132.368C46.11 132.662 45.186 133.628 44.318 134.244C43.226 135.028 41.98 135.434 40.72 135.434C38.886 135.434 38.032 134.454 38.032 132.368C38.032 132.018 38.144 126.432 38.172 125.592C38.172 125.494 38.172 125.312 38.172 125.186C38.172 124.738 38.158 124.542 38.102 124.094ZM52.298 126.6C52.508 125.494 52.578 124.878 52.578 124.234C52.578 124.192 52.578 124.094 52.564 123.996C53.124 124.08 53.446 124.15 53.698 124.248C53.782 124.276 53.81 124.332 53.81 124.402C53.796 124.5 53.796 124.5 53.656 124.78C53.544 125.004 53.544 125.004 53.264 126.446C53.922 126.32 54.804 126.11 55.182 125.984C55.224 125.97 55.238 125.97 55.266 125.97C55.322 125.97 55.336 125.984 55.364 126.054C55.406 126.222 55.49 126.628 55.49 126.712C55.49 126.824 55.476 126.852 55.378 126.866C55.364 126.866 55.322 126.88 55.252 126.908C54.846 127.006 53.614 127.258 53.082 127.342C52.62 129.582 51.99 131.668 51.136 133.726C50.702 134.79 50.562 135.056 50.45 135.056C50.366 135.056 50.044 134.916 49.792 134.762C49.68 134.692 49.638 134.65 49.638 134.58C49.638 134.524 49.666 134.468 49.708 134.384C49.932 134.006 50.184 133.502 50.422 132.914C51.178 131.108 51.598 129.75 52.116 127.496C51.388 127.594 50.324 127.678 49.764 127.678C49.554 127.678 49.512 127.664 49.484 127.538C49.428 127.342 49.4 127.09 49.372 126.782C49.918 126.796 49.918 126.796 49.988 126.796C50.534 126.796 51.528 126.712 52.298 126.6ZM58.318 128.756C57.52 128.756 56.61 128.854 55.812 129.008C55.784 129.022 55.756 129.022 55.742 129.022C55.658 129.022 55.602 128.98 55.588 128.896C55.56 128.798 55.532 128.49 55.532 128.28C55.532 128.154 55.574 128.112 55.7 128.084C56.526 127.916 57.52 127.832 58.64 127.832C59.438 127.832 59.802 127.86 59.844 127.944C59.872 127.986 59.886 128.07 59.886 128.308C59.886 128.742 59.858 128.84 59.718 128.84C59.704 128.84 59.676 128.84 59.648 128.84C58.99 128.77 58.654 128.756 58.318 128.756ZM54.86 132.452C55.266 133.74 56.022 134.188 57.786 134.188C58.458 134.188 58.892 134.146 59.718 133.992C59.802 133.978 59.802 133.978 59.886 133.978C60.04 133.978 60.068 134.02 60.096 134.314C60.11 134.398 60.11 134.468 60.124 134.538C60.138 134.636 60.152 134.748 60.152 134.804C60.152 134.93 60.096 134.986 59.97 135.014C59.536 135.098 58.542 135.168 57.856 135.168C56.512 135.168 55.658 134.944 55.056 134.468C54.692 134.174 54.412 133.768 54.216 133.25C54.174 133.138 54.146 133.012 54.146 132.956C54.146 132.844 54.188 132.816 54.86 132.452ZM70.974 133.46V134.524H73.718C74.264 134.524 74.516 134.51 74.824 134.468V135.322C74.46 135.252 74.152 135.238 73.676 135.238H67.222V135.854H66.354C66.396 135.49 66.424 135.112 66.424 134.538V131.948C66.424 131.682 66.424 131.556 66.466 130.898C66.144 131.304 65.836 131.64 65.416 132.018C65.318 131.752 65.234 131.626 64.996 131.402C64.758 133.18 64.38 134.272 63.512 135.672C63.288 135.406 63.092 135.252 62.784 135.07C64.114 133.124 64.38 131.794 64.38 126.978C64.38 126.432 64.366 126.068 64.324 125.704C64.604 125.746 64.996 125.76 65.808 125.76H72.794C73.41 125.76 73.732 125.746 74.138 125.704C74.11 125.928 74.096 126.152 74.096 126.474V127.65C74.096 127.944 74.11 128.168 74.138 128.364C73.788 128.322 73.578 128.322 72.878 128.322H65.192C65.15 129.75 65.122 130.338 65.01 131.304C66.13 130.478 66.732 129.722 67.292 128.42L68.062 128.686L67.964 128.854C67.754 129.204 67.712 129.274 67.53 129.512H70.19C70.498 129.12 70.708 128.77 70.848 128.406L71.646 128.686C71.31 129.148 71.17 129.33 71.002 129.512H73.494C74.082 129.512 74.376 129.498 74.67 129.442V130.24C74.348 130.198 74.068 130.184 73.536 130.184H70.974V131.164H73.186C73.816 131.164 73.998 131.15 74.278 131.108V131.864C73.97 131.822 73.788 131.808 73.186 131.808H70.974V132.816H73.186C73.83 132.816 74.012 132.802 74.278 132.76V133.516C73.97 133.474 73.788 133.46 73.186 133.46H70.974ZM70.218 133.46H67.222V134.524H70.218V133.46ZM70.218 132.816V131.808H67.222V132.816H70.218ZM70.218 131.164V130.184H67.222V131.164H70.218ZM65.206 127.636H73.298V126.474H65.22V126.964C65.22 127.258 65.22 127.384 65.206 127.636ZM74.95 123.968V124.85C74.516 124.794 74.18 124.78 73.452 124.78H64.926C64.268 124.78 63.862 124.794 63.442 124.85V123.968C63.876 124.038 64.254 124.052 64.926 124.052H73.452C74.124 124.052 74.516 124.024 74.95 123.968ZM83.504 131.304V133.852C83.504 134.552 83.518 135 83.56 135.322H82.594C82.636 134.972 82.664 134.552 82.664 133.852V131.304H78.982C78.8 133.306 78.422 134.44 77.54 135.728C77.246 135.462 77.092 135.35 76.756 135.154C78.016 133.502 78.268 132.004 78.268 125.732C78.268 124.976 78.254 124.724 78.212 124.164C78.618 124.206 79.01 124.22 79.682 124.22H86.906C87.592 124.22 87.942 124.206 88.334 124.164C88.306 124.528 88.292 124.864 88.292 125.48V134.496C88.292 135.35 87.984 135.546 86.668 135.546C86.22 135.546 85.576 135.518 85.002 135.476C84.974 135.182 84.918 134.958 84.806 134.608C85.618 134.72 86.248 134.762 86.724 134.762C87.312 134.762 87.438 134.692 87.438 134.356V131.304H83.504ZM83.504 127.384H87.438V125.018H83.504V127.384ZM82.664 127.384V125.018H79.136V126.628L79.122 127.384H82.664ZM83.504 128.154V130.534H87.438V128.154H83.504ZM82.664 128.154H79.108C79.094 128.546 79.094 128.84 79.094 129.036C79.08 129.834 79.08 129.834 79.038 130.534H82.664V128.154ZM101.788 129.344L102.278 129.834C102.208 129.96 102.208 129.96 102.026 130.338C101.536 131.374 100.92 132.27 100.052 133.166C101.018 133.908 101.942 134.384 103.426 134.846C103.202 135.154 103.09 135.364 102.95 135.7C101.34 135.056 100.486 134.594 99.464 133.74C98.582 134.524 97.49 135.154 96.062 135.714C95.894 135.392 95.768 135.21 95.516 134.986C96.902 134.51 97.882 133.978 98.862 133.194C98.162 132.494 97.714 131.892 97.294 131.038C97.182 130.8 97.154 130.758 96.874 130.128C96.51 130.142 96.356 130.156 96.076 130.198V129.33C96.342 129.386 96.65 129.4 97.028 129.4H100.78C101.34 129.4 101.578 129.386 101.788 129.344ZM101.228 130.128H97.686C98.148 131.206 98.568 131.808 99.464 132.662C100.22 131.906 100.71 131.22 101.228 130.128ZM91.582 124.892V124.038C91.904 124.094 92.142 124.108 92.604 124.108H94.41C94.872 124.108 95.11 124.094 95.432 124.038V124.892C95.082 124.85 94.844 124.836 94.41 124.836H92.604C92.184 124.836 91.876 124.85 91.582 124.892ZM91.12 126.782V125.886C91.428 125.942 91.68 125.956 92.198 125.956H94.76C95.32 125.956 95.53 125.942 95.838 125.9V126.782C95.572 126.74 95.348 126.726 94.858 126.726H92.198C91.736 126.726 91.47 126.74 91.12 126.782ZM91.596 128.644V127.832C91.848 127.86 92.086 127.874 92.562 127.874H94.452C94.942 127.874 95.124 127.86 95.404 127.832V128.644C95.082 128.602 94.872 128.588 94.452 128.588H92.562C92.114 128.588 91.904 128.602 91.596 128.644ZM91.596 130.506V129.68C91.862 129.722 92.1 129.736 92.562 129.736H94.452C94.9 129.736 95.166 129.722 95.404 129.68V130.506C95.054 130.464 94.914 130.45 94.452 130.45H92.562C92.1 130.45 91.89 130.464 91.596 130.506ZM92.422 135.798H91.568C91.624 135.42 91.652 135.014 91.652 134.482V132.662C91.652 132.214 91.638 131.878 91.582 131.542C91.946 131.584 92.268 131.598 92.66 131.598H94.424C94.998 131.598 95.152 131.598 95.404 131.556C95.376 131.878 95.362 132.116 95.362 132.62V134.51C95.362 134.93 95.376 135.266 95.418 135.616H94.606V135.07H92.422V135.798ZM92.422 132.298V134.37H94.606V132.298H92.422ZM100.206 124.864H98.106C98.064 126.32 97.91 127.034 97.462 127.832C97.182 128.336 96.916 128.644 96.356 129.078C96.118 128.826 95.922 128.658 95.67 128.518C96.384 128.056 96.734 127.636 97 126.922C97.224 126.362 97.308 125.76 97.308 124.878C97.308 124.542 97.294 124.416 97.238 124.066C97.602 124.108 97.938 124.122 98.288 124.122H99.926C100.402 124.122 100.766 124.108 101.074 124.066C101.032 124.444 101.018 124.78 101.018 125.34V127.426C101.018 127.664 101.13 127.72 101.648 127.72C102.124 127.72 102.292 127.678 102.362 127.524C102.474 127.3 102.544 126.824 102.572 126.026C102.88 126.222 103.02 126.292 103.314 126.39C103.23 127.482 103.104 127.972 102.852 128.21C102.656 128.378 102.292 128.448 101.55 128.448C100.444 128.448 100.206 128.308 100.206 127.706V124.864ZM113.394 127.916V125.2C113.394 124.542 113.366 124.178 113.296 123.688H114.36C114.29 124.094 114.262 124.612 114.262 125.2V127.916H115.536C116.264 127.916 116.698 127.888 117.146 127.832V128.798C116.656 128.742 116.194 128.714 115.536 128.714H114.262V133.838C114.262 134.72 114.29 135.238 114.36 135.77H113.296C113.38 135.238 113.394 134.818 113.394 133.838V128.714H112.218C111.616 128.714 111.112 128.742 110.65 128.798V127.832C111.056 127.888 111.518 127.916 112.204 127.916H113.394ZM105.736 125.004V124.15C106.044 124.206 106.338 124.22 106.814 124.22H108.998C109.474 124.22 109.712 124.206 110.062 124.15V125.004C109.698 124.962 109.46 124.948 108.998 124.948H106.814C106.38 124.948 106.044 124.962 105.736 125.004ZM105.092 126.88V125.984C105.484 126.054 105.764 126.068 106.254 126.068H109.502C110.034 126.068 110.356 126.054 110.664 125.998V126.88C110.342 126.824 109.964 126.81 109.502 126.81H106.254C105.82 126.81 105.47 126.824 105.092 126.88ZM105.736 128.7V127.874C106.002 127.916 106.226 127.93 106.702 127.93H109.096C109.558 127.93 109.768 127.916 110.048 127.874V128.7C109.712 128.658 109.516 128.644 109.096 128.644H106.702C106.268 128.644 106.03 128.658 105.736 128.7ZM105.736 130.562V129.736C106.016 129.778 106.212 129.792 106.702 129.792H109.096C109.558 129.792 109.74 129.778 110.048 129.736V130.562C109.726 130.52 109.53 130.506 109.096 130.506H106.702C106.254 130.506 106.058 130.52 105.736 130.562ZM106.688 135.084V135.784H105.806C105.848 135.392 105.876 135.014 105.876 134.496V132.704C105.876 132.256 105.862 131.962 105.806 131.598C106.114 131.64 106.31 131.654 106.744 131.654H109.208C109.586 131.654 109.838 131.64 110.118 131.612C110.076 131.92 110.062 132.172 110.062 132.69V134.468C110.062 134.93 110.09 135.266 110.132 135.602H109.25V135.084H106.688ZM106.674 132.382V134.37H109.25V132.382H106.674ZM120.87 131.71C122.032 131.71 122.97 132.648 122.97 133.81C122.97 134.972 122.032 135.91 120.87 135.91C119.708 135.91 118.77 134.972 118.77 133.81C118.77 132.648 119.708 131.71 120.87 131.71ZM120.87 132.508C120.156 132.508 119.568 133.096 119.568 133.81C119.568 134.524 120.156 135.112 120.87 135.112C121.584 135.112 122.172 134.524 122.172 133.81C122.172 133.096 121.584 132.508 120.87 132.508Z" fill="#1E1E1E"/>
<path d="M30.575 43.95L29.425 44.525C29.325 43.975 29.25 43.725 29.175 43.4C28.2 43.525 28.075 43.525 27.75 43.55V51.15C27.75 52.4 27.775 52.9 27.9 53.675H25.3C25.425 52.875 25.45 52.2 25.45 51.125V43.775C24.925 43.825 23.6 43.925 23.25 43.95C22.425 43.975 22.275 44 21.825 44.075L21.575 41.625C22.15 41.675 22.375 41.675 22.75 41.675H23.475C24.125 40.825 24.275 40.625 24.8 39.925C23.6 38.375 22.7 37.325 21.625 36.275L22.9 34.25C23.275 34.675 23.4 34.8 23.7 35.125C24.625 33.575 25.25 32.175 25.45 31.225L27.8 32.1C27.675 32.275 27.6 32.4 27.45 32.725C26.375 34.85 25.825 35.825 25.175 36.875C25.55 37.35 25.6 37.4 26.075 38.025C27.475 35.825 28.125 34.675 28.375 33.9L30.525 35.05C30.325 35.325 30.15 35.6 29.675 36.35C28.75 37.875 27.25 40.025 25.975 41.6C27.1 41.55 27.65 41.525 28.6 41.425C28.35 40.7 28.25 40.425 27.9 39.625L29.65 38.8C30.325 40.25 30.6 40.95 31.125 42.575C32.475 42.025 34.075 41.125 35.175 40.3C34.425 39.475 33.925 38.825 33.3 37.85C32.75 38.45 32.35 38.8 31.2 39.7C30.775 38.825 30.3 38.25 29.65 37.675C30.95 36.825 31.95 35.825 32.975 34.375C33.7 33.325 34.325 32.05 34.45 31.3L37.075 32.075C37.025 32.175 36.75 32.675 36.25 33.575H39.25C40.325 33.575 40.8 33.55 41.35 33.45L42.575 34.875C42.5 34.975 42.175 35.55 41.55 36.575C40.55 38.3 39.925 39.15 38.875 40.25C40.375 41.325 41.75 41.975 44.225 42.75C43.55 43.6 43.2 44.225 42.775 45.325C40.125 44.175 38.575 43.275 36.95 41.975C35.1 43.45 33.425 44.425 31.2 45.3C31.025 44.75 30.95 44.6 30.575 43.95ZM39.175 35.75H34.975C34.925 35.85 34.9 35.9 34.825 35.975C35.7 37.35 35.975 37.7 37 38.7C37.9 37.775 38.325 37.225 39.175 35.75ZM22.425 44.875L24.55 45.25C24.425 48.5 24.25 50.025 23.7 52.425L21.5 51.375C21.875 50.225 21.975 49.725 22.15 48.475C22.35 47 22.425 46.15 22.425 44.875ZM28.4 45.35L30.25 44.875C30.75 46.925 30.825 47.425 31.225 50.6L29.15 51.2C29.05 49.275 28.8 47.2 28.4 45.35ZM41.175 46.55L39.875 48.85C37.925 47.5 36.05 46.525 33.85 45.65L35.225 43.6C37.75 44.625 39.4 45.45 41.175 46.55ZM42.325 51.225L41.275 53.7C38.35 52.2 36.05 51.375 31.775 50.325L32.95 47.95C36.475 48.875 38.4 49.55 42.325 51.225ZM62.675 50.3V46.45C58.65 49.475 54.125 51.8 49.1 53.375C48.675 52.375 48.325 51.75 47.725 51C52.475 49.7 56 48.15 59.625 45.725C54.875 46.275 53.4 46.425 49.775 46.7C49.05 46.75 48.675 46.8 48.275 46.875L47.9 44.3C48.225 44.325 48.45 44.325 48.675 44.325C48.925 44.325 48.925 44.325 51.15 44.25V35.675C51.15 34.775 51.125 34.125 51.075 33.375C51.85 33.45 52.375 33.475 53.625 33.475H55.575C56.025 32.75 56.35 32 56.65 31.125L59.45 31.475C59.025 32.3 58.725 32.85 58.325 33.475H62.8C64.125 33.475 64.675 33.45 65.375 33.375C65.275 34.075 65.25 34.875 65.25 36V41.05C66.325 39.875 67 39.05 67.425 38.325L69.225 40.2C68.85 40.55 68.65 40.75 68.075 41.45C67.225 42.45 66.35 43.325 65.25 44.325V50.975C65.25 52.7 64.4 53.225 61.725 53.225C61.225 53.225 61.225 53.225 59.1 53.15C59.025 52.325 58.85 51.55 58.45 50.55C60.05 50.75 60.375 50.775 61.1 50.775C62.425 50.775 62.675 50.7 62.675 50.3ZM53.7 39.025V40.425H62.675V39.025H53.7ZM62.675 37.025V35.675H53.7V37.025H62.675ZM53.7 42.425V44.1C58.875 43.75 58.875 43.75 62.675 43.35V42.425H53.7ZM88.325 49.65V50.7H92.625C93.575 50.7 94.05 50.675 94.5 50.6V52.875C93.85 52.775 93.4 52.75 92.45 52.75H81.65V53.65H79.075C79.175 52.95 79.2 52.375 79.2 51.275V47.6C79.2 47.2 79.2 46.975 79.25 46.075C78.75 46.65 78.45 46.95 77.875 47.425C77.475 46.625 77.475 46.625 77.25 46.3C76.8 49.35 76.15 51.225 74.725 53.5C74.05 52.675 73.525 52.175 72.625 51.55C73.6 50.05 74.025 49.15 74.4 47.775C74.975 45.675 75.175 43 75.175 37.85C75.175 36.875 75.15 36.175 75.075 35.45C75.725 35.5 76.55 35.525 77.725 35.525H91.2C92.175 35.525 92.7 35.5 93.475 35.45C93.425 35.95 93.4 36.275 93.4 37.025V39.325C93.4 39.975 93.425 40.325 93.475 40.775C92.9 40.725 92.425 40.7 91.225 40.7H89.275C89.225 40.8 89.175 40.875 89.15 40.9C88.9 41.35 88.675 41.7 88.475 42H92.275C93.25 42 93.675 41.975 94.25 41.9V44.05C93.725 43.975 93.225 43.95 92.35 43.95H88.325V45H91.75C92.8 45 93.125 44.975 93.625 44.925V46.85C93.1 46.8 92.7 46.775 91.75 46.775H88.325V47.85H91.775C92.8 47.85 93.15 47.825 93.65 47.775V49.725C93.15 49.675 92.725 49.65 91.775 49.65H88.325ZM85.9 45V43.95H81.65V45H85.9ZM85.9 46.775H81.65V47.85H85.9V46.775ZM85.9 49.65H81.65V50.7H85.9V49.65ZM82.625 42.025H86.025C86.35 41.5 86.55 41.15 86.725 40.7H83.4C83.15 41.175 82.775 41.825 82.625 42.025ZM80.75 40.7H77.675C77.625 42.55 77.575 43.225 77.45 44.625C78.95 43.45 80.075 42.075 80.75 40.7ZM77.7 38.8H90.925V37.475H77.725V37.975C77.725 38.4 77.725 38.45 77.7 38.8ZM94.775 31.975V34.4C93.9 34.325 93.25 34.3 91.975 34.3H76.5C75.45 34.3 74.525 34.325 73.725 34.4V31.975C74.55 32.075 75.3 32.125 76.5 32.125H92C93.275 32.125 93.975 32.1 94.775 31.975ZM108.725 46.05H103.2C102.85 49.325 102.15 51.5 100.75 53.65C99.75 52.675 99.4 52.4 98.425 51.75C100.425 48.825 100.875 45.925 100.875 35.65C100.875 34.025 100.85 33.25 100.75 32.275C101.575 32.35 102.225 32.375 103.5 32.375H116.95C118.275 32.375 119 32.35 119.725 32.275C119.65 33.075 119.625 33.725 119.625 34.975V50.75C119.625 52.75 118.9 53.275 116.175 53.275C115.45 53.275 114.2 53.225 113.5 53.175C113.375 52.25 113.225 51.675 112.825 50.65C114.05 50.8 115.075 50.875 115.825 50.875C116.825 50.875 117.025 50.775 117.025 50.25V46.05H111.3V50C111.3 51.425 111.325 52.2 111.425 52.85H108.575C108.7 52.1 108.725 51.45 108.725 50.025V46.05ZM108.725 43.675V40.4H103.4C103.4 41.05 103.375 41.575 103.375 41.9C103.375 43 103.35 43.25 103.35 43.675H108.725ZM111.3 43.675H117.025V40.4H111.3V43.675ZM108.725 38.05V34.875H103.475V37.375L103.45 38.05H108.725ZM111.3 38.05H117.025V34.875H111.3V38.05Z" fill="#005794"/>
</svg>
