<svg width="336" height="154" viewBox="0 0 336 154" fill="none" xmlns="http://www.w3.org/2000/svg">
<path d="M15.26 14.655V12.17C15.26 10.735 15.225 10.035 15.05 9.125H19.495C19.355 10.035 19.285 10.805 19.285 12.17V14.655H28.56C30.135 14.655 31.465 14.585 32.585 14.445V18.47C31.29 18.33 29.995 18.26 28.56 18.26H19.285V24.07H26.145C27.72 24.07 28.315 24.035 29.19 23.93C29.05 24.875 29.015 25.715 29.015 27.08V36.32C29.015 37.93 29.085 39.085 29.225 40.03H25.165V38.315H9.975V40.03H5.845C5.985 38.98 6.055 37.86 6.055 36.32V27.08C6.055 25.82 6.02 24.875 5.88 23.93C6.79 24.035 7.42 24.07 8.925 24.07H15.26V18.26H6.545C5.005 18.26 3.71 18.33 2.555 18.47V14.445C3.64 14.585 5.005 14.655 6.545 14.655H15.26ZM9.94 27.605V34.815H25.13V27.605H9.94ZM51.87 20.43C51.45 19.555 50.995 18.54 50.61 17.525C47.6 18.05 44.485 18.4 42.595 18.4C42.035 18.4 41.79 18.295 41.72 17.98C41.58 17.455 41.44 16.405 41.37 15.11C44.205 15.11 46.375 14.935 49.49 14.445C49.315 13.92 49.315 13.92 48.86 12.625C48.545 11.785 48.265 11.085 47.88 10.35C49.385 10.035 50.75 9.86 52.01 9.86C52.325 9.86 52.5 10.07 52.5 10.42C52.5 10.455 52.5 10.525 52.5 10.595C52.5 10.7 52.5 10.805 52.5 10.91C52.5 11.54 52.64 12.38 52.99 13.745C55.615 13.15 57.855 12.415 59.64 11.645C59.92 11.54 59.99 11.505 60.095 11.505C60.27 11.505 60.375 11.68 60.69 12.415C61.005 13.22 61.32 14.13 61.32 14.305C61.32 14.48 61.25 14.55 61.04 14.655C58.975 15.53 58.03 15.845 53.97 16.86C54.46 18.085 54.6 18.4 55.195 19.66C57.12 19.135 58.065 18.82 58.765 18.47C62.055 16.825 62.055 16.825 62.055 16.825C62.125 16.79 62.16 16.755 62.16 16.755C62.195 16.755 62.265 16.79 62.3 16.79C62.44 16.79 62.58 17 62.895 17.665C63.315 18.505 63.665 19.45 63.665 19.66C63.665 19.905 63.665 19.905 62.93 20.29C61.005 21.34 59.5 21.935 56.98 22.635C58.38 24.7 60.375 26.94 61.565 27.78C62.755 28.62 62.79 28.69 62.79 29.04C62.79 29.355 62.44 30.09 61.775 31.245C61.18 32.26 60.9 32.54 60.515 32.54C60.305 32.54 60.27 32.54 59.745 32.155C57.96 30.79 54.355 29.845 50.89 29.845C47.88 29.845 45.99 30.895 45.99 32.645C45.99 33.73 46.83 34.605 48.335 35.165C49.7 35.655 52.71 35.97 55.965 35.97C56.735 35.97 57.4 35.935 58.765 35.865C58.135 36.775 57.82 37.405 57.4 38.875C57.19 39.61 56.945 39.75 55.86 39.75C52.115 39.75 48.79 39.33 46.55 38.525C43.575 37.475 42 35.515 42 32.89C42 29.145 45.08 26.87 50.19 26.87C53.34 26.87 55.335 27.22 57.54 28.2C55.58 26.345 54.53 25.085 53.515 23.44C51.835 23.79 50.995 23.93 49.875 24.105C47.88 24.385 44.24 24.665 42.77 24.665C41.65 24.665 41.615 24.63 41.3 21.34C42.07 21.375 42.665 21.375 43.015 21.375C45.255 21.375 49.525 20.92 51.87 20.43ZM84.455 27.01H79.905V35.2C83.16 34.57 85.54 34.01 88.165 33.31L88.2 36.81C83.685 38.105 80.255 38.875 72.835 40.275L72.065 36.355C74.06 36.18 74.41 36.145 76.16 35.9V15.6C76.16 14.27 76.125 13.22 76.02 12.275C76.965 12.38 78.12 12.415 79.38 12.415H85.505V11.61C85.505 10.805 85.435 9.965 85.295 9.195H89.425C89.285 9.895 89.215 10.56 89.215 11.645V12.415H95.655C96.95 12.415 98.035 12.38 98.98 12.275C98.91 12.87 98.84 14.375 98.84 15.635V23.755C98.84 25.33 98.875 26.275 98.98 27.115C98.595 27.08 98.455 27.08 98.105 27.08L100.765 29.11C100.275 29.425 100.275 29.425 99.365 30.09C97.615 31.315 95.935 32.295 93.94 33.275C96.915 35.025 99.575 36.005 103.145 36.6C102.305 37.825 101.955 38.525 101.29 40.345C96.74 39.225 92.505 37.055 89.46 34.325C87.535 32.575 85.995 30.545 85.05 28.515C84.875 28.095 84.805 27.885 84.455 27.01ZM96.04 27.01H88.165C89.005 28.865 89.775 29.985 91.245 31.315C94.5 29.53 95.83 28.62 97.475 27.045C96.775 27.01 96.46 27.01 96.04 27.01ZM79.905 15.775V18.155H95.2V15.775H79.905ZM79.905 21.235V23.79H95.2V21.235H79.905ZM121.87 20.43C121.45 19.555 120.995 18.54 120.61 17.525C117.6 18.05 114.485 18.4 112.595 18.4C112.035 18.4 111.79 18.295 111.72 17.98C111.58 17.455 111.44 16.405 111.37 15.11C114.205 15.11 116.375 14.935 119.49 14.445C119.315 13.92 119.315 13.92 118.86 12.625C118.545 11.785 118.265 11.085 117.88 10.35C119.385 10.035 120.75 9.86 122.01 9.86C122.325 9.86 122.5 10.07 122.5 10.42C122.5 10.455 122.5 10.525 122.5 10.595C122.5 10.7 122.5 10.805 122.5 10.91C122.5 11.54 122.64 12.38 122.99 13.745C125.615 13.15 127.855 12.415 129.64 11.645C129.92 11.54 129.99 11.505 130.095 11.505C130.27 11.505 130.375 11.68 130.69 12.415C131.005 13.22 131.32 14.13 131.32 14.305C131.32 14.48 131.25 14.55 131.04 14.655C128.975 15.53 128.03 15.845 123.97 16.86C124.46 18.085 124.6 18.4 125.195 19.66C127.12 19.135 128.065 18.82 128.765 18.47C132.055 16.825 132.055 16.825 132.055 16.825C132.125 16.79 132.16 16.755 132.16 16.755C132.195 16.755 132.265 16.79 132.3 16.79C132.44 16.79 132.58 17 132.895 17.665C133.315 18.505 133.665 19.45 133.665 19.66C133.665 19.905 133.665 19.905 132.93 20.29C131.005 21.34 129.5 21.935 126.98 22.635C128.38 24.7 130.375 26.94 131.565 27.78C132.755 28.62 132.79 28.69 132.79 29.04C132.79 29.355 132.44 30.09 131.775 31.245C131.18 32.26 130.9 32.54 130.515 32.54C130.305 32.54 130.27 32.54 129.745 32.155C127.96 30.79 124.355 29.845 120.89 29.845C117.88 29.845 115.99 30.895 115.99 32.645C115.99 33.73 116.83 34.605 118.335 35.165C119.7 35.655 122.71 35.97 125.965 35.97C126.735 35.97 127.4 35.935 128.765 35.865C128.135 36.775 127.82 37.405 127.4 38.875C127.19 39.61 126.945 39.75 125.86 39.75C122.115 39.75 118.79 39.33 116.55 38.525C113.575 37.475 112 35.515 112 32.89C112 29.145 115.08 26.87 120.19 26.87C123.34 26.87 125.335 27.22 127.54 28.2C125.58 26.345 124.53 25.085 123.515 23.44C121.835 23.79 120.995 23.93 119.875 24.105C117.88 24.385 114.24 24.665 112.77 24.665C111.65 24.665 111.615 24.63 111.3 21.34C112.07 21.375 112.665 21.375 113.015 21.375C115.255 21.375 119.525 20.92 121.87 20.43ZM153.65 21.97V33.73L153.685 35.41V36.04C153.685 36.285 153.685 36.565 153.72 37.09H150.29V35.13H146.58V38H143.01C143.115 36.81 143.185 35.55 143.185 33.975V14.41C143.185 12.94 143.15 12.135 143.045 11.05C143.78 11.12 144.41 11.155 145.985 11.155H150.85C152.285 11.155 152.985 11.12 153.72 11.05C153.65 11.925 153.65 12.38 153.65 14.34V21.795C156.17 20.745 157.535 19.695 158.62 18.085C159.39 16.895 159.95 15.285 160.09 13.675H158.655C157.01 13.675 155.995 13.71 154.84 13.85V10.175C155.785 10.28 157.22 10.35 158.76 10.35H169.19C170.38 10.35 171.675 10.28 172.41 10.21C172.34 10.84 172.27 11.68 172.165 14.305C171.92 19.415 171.5 21.725 170.625 22.705C169.855 23.51 168.98 23.755 166.705 23.755C165.76 23.755 165.305 23.72 163.66 23.615C163.625 22.32 163.415 21.445 162.855 20.01C164.29 20.29 165.48 20.43 166.39 20.43C167.51 20.43 167.895 20.115 168.07 19.03C168.385 17.385 168.56 15.565 168.56 13.675H163.66C163.415 16.125 162.785 18.12 161.735 19.765C160.3 22.075 158.76 23.37 155.785 24.84C155.19 23.58 154.665 22.88 153.65 21.97ZM146.615 14.445V21.2H150.29V14.445H146.615ZM146.615 24.49V31.805H150.29V24.49H146.615ZM159.25 38.385V40.065H155.54C155.645 38.98 155.715 37.895 155.715 36.67V28.62C155.715 27.255 155.68 26.415 155.575 25.505C156.345 25.575 157.08 25.61 158.27 25.61H168.91C170.31 25.61 170.975 25.575 171.71 25.47C171.64 26.31 171.605 27.255 171.605 28.62V36.635C171.605 38.14 171.64 39.155 171.78 40.205H168.07V38.385H159.25ZM159.25 28.9V35.06H168.07V28.9H159.25ZM183.085 18.26V14.97C181.79 15.215 180.985 15.355 178.605 15.74C178.325 14.305 178.08 13.605 177.415 12.38C182.49 11.89 187.705 10.525 189.735 9.16L191.905 12.38C191.485 12.52 191.485 12.52 191.03 12.66C190.995 12.695 190.855 12.73 190.645 12.8C189.49 13.22 187.53 13.885 186.62 14.13V18.26H188.58C189.91 18.26 190.68 18.225 191.415 18.085V21.725C190.61 21.62 189.77 21.585 188.545 21.585H186.83C187.285 22.6 187.495 22.95 188.23 23.93C189.49 25.68 190.505 26.695 192.29 28.095C191.31 29.005 191.1 29.32 190.155 31C188.51 29.25 187.495 27.815 186.445 25.68C186.585 26.905 186.62 28.06 186.62 29.985V35.865C186.62 37.895 186.655 39.015 186.83 40.135H182.84C183.015 38.945 183.05 37.93 183.05 35.865V30.3C183.05 29.39 183.085 28.62 183.225 26.31C182.63 28.13 182.175 29.04 180.88 31.21C180.32 32.19 179.83 32.82 178.605 34.325C178.01 32.995 177.52 32.295 176.505 31.105C178.08 29.705 179.41 27.92 180.705 25.54C181.615 23.86 181.615 23.86 182.49 21.585H180.46C179.165 21.585 178.255 21.655 177.345 21.76V18.085C178.29 18.225 179.13 18.26 180.495 18.26H183.085ZM196.105 37.09V39.33H192.36C192.465 38.28 192.535 36.88 192.535 35.375V15.32C192.535 13.815 192.5 12.695 192.395 11.715C193.41 11.855 194.215 11.89 195.685 11.89H203.385C204.785 11.89 205.695 11.855 206.71 11.715C206.57 12.695 206.535 13.745 206.535 15.32V35.025C206.535 36.775 206.605 38.245 206.745 39.33H202.895V37.09H196.105ZM196.14 15.39V33.555H202.895V15.39H196.14Z" fill="white"/>
<path d="M218.82 34.662V34.572C217.038 35.616 216.534 36.138 216.534 36.93C216.534 37.254 216.66 37.47 216.93 37.632C217.326 37.866 218.208 37.992 219.342 37.992C220.314 37.992 221.664 37.902 222.582 37.776C222.96 37.722 223.176 37.668 223.896 37.488C223.932 37.488 223.95 37.488 223.986 37.488C224.112 37.488 224.202 37.578 224.256 37.704C224.364 38.082 224.436 38.622 224.436 39.27C224.436 39.54 224.346 39.648 224.112 39.702C223.68 39.792 221.682 39.9 220.368 39.9C218.172 39.9 217.002 39.756 216.138 39.396C215.094 38.964 214.572 38.154 214.572 37.02C214.572 35.976 215.058 35.058 216.03 34.284C216.804 33.672 216.984 33.546 218.64 32.61C218.496 32.016 218.226 31.764 217.668 31.764C216.93 31.764 216.156 32.052 215.31 32.61C214.788 32.97 214.176 33.474 213.798 33.852C213.258 34.41 213.204 34.446 213.06 34.446C212.88 34.446 212.502 34.032 212.124 33.402C211.944 33.096 211.836 32.862 211.836 32.736C211.836 32.574 211.872 32.538 212.304 32.268C213.78 31.278 215.004 30.018 215.742 28.722C214.464 28.812 213.798 28.83 213.096 28.83C212.826 28.83 212.772 28.776 212.682 28.47C212.628 28.236 212.538 27.282 212.52 26.796C213.132 26.886 213.492 26.904 214.356 26.904C215.058 26.904 215.832 26.886 216.642 26.85C217.02 25.824 217.146 25.176 217.164 24.33C218.766 24.6 219.504 24.87 219.504 25.176C219.504 25.248 219.486 25.284 219.432 25.392C219.306 25.626 219.162 25.914 218.928 26.472C218.892 26.544 218.892 26.544 218.874 26.598C219.9 26.454 220.8 26.274 221.43 26.13C221.826 26.022 221.916 26.004 222.006 26.004C222.15 26.004 222.222 26.058 222.258 26.166C222.33 26.49 222.438 27.318 222.438 27.57C222.438 27.768 222.366 27.858 222.132 27.912C221.556 28.074 219.576 28.38 217.92 28.542C217.38 29.532 217.002 30.108 216.444 30.72C217.254 30.342 217.866 30.198 218.586 30.198C219.396 30.198 219.936 30.666 220.296 31.674C222.078 30.702 223.032 30.18 223.14 30.108C223.968 29.622 224.31 29.352 224.706 28.902C225.444 29.658 226.236 30.792 226.236 31.098C226.236 31.206 226.164 31.278 225.93 31.332C225.048 31.566 223.41 32.268 220.674 33.6C220.692 33.924 220.728 34.752 220.728 35.328C220.728 35.418 220.728 35.562 220.728 35.706C220.728 35.796 220.728 35.832 220.728 35.886V36.192C220.728 36.408 220.692 36.516 220.602 36.57C220.512 36.66 220.026 36.714 219.486 36.714C218.874 36.714 218.766 36.66 218.766 36.372C218.766 36.354 218.766 36.336 218.766 36.3C218.802 35.778 218.82 35.094 218.82 34.662ZM242.598 33.636L244.056 34.608C243.84 34.842 243.84 34.842 243.516 35.166C242.886 35.814 242.4 36.264 241.806 36.732C242.328 37.506 242.886 38.046 243.192 38.046C243.552 38.046 243.678 37.542 243.786 35.76C244.254 36.156 244.794 36.498 245.28 36.75C245.01 39.162 244.524 40.008 243.408 40.008C242.418 40.008 241.284 39.18 240.348 37.74C238.8 38.694 237.09 39.432 235.236 39.954C234.912 39.234 234.678 38.856 234.228 38.28C236.298 37.83 237.936 37.2 239.556 36.246C239.214 35.4 239.052 34.896 238.836 33.816L237.108 33.996C236.514 34.068 235.974 34.14 235.524 34.248L235.362 32.466C235.506 32.466 235.614 32.466 235.686 32.466C236.028 32.466 236.262 32.448 236.964 32.376L238.566 32.214C238.494 31.692 238.494 31.674 238.422 31.08L237.432 31.17C236.91 31.224 236.496 31.296 236.082 31.368L235.956 29.694C236.064 29.694 236.136 29.694 236.19 29.694C236.424 29.694 236.91 29.658 237.306 29.622L238.26 29.532C238.242 29.334 238.242 29.334 238.224 29.064C238.224 28.884 238.224 28.884 238.188 28.452L237.234 28.524C236.784 28.578 236.316 28.632 236.136 28.668C235.992 28.686 235.92 28.704 235.902 28.704C235.83 28.704 235.794 28.704 235.74 28.686L235.578 27.048C235.866 27.048 235.866 27.048 235.902 27.048C236.208 27.048 236.64 27.03 237.126 26.976L238.08 26.886C238.008 25.68 238.008 25.662 237.972 25.14C237.954 24.816 237.954 24.798 237.864 24.294L239.952 24.276C239.898 24.618 239.88 24.942 239.88 25.338C239.88 25.464 239.898 26.418 239.916 26.724L242.076 26.526C241.536 25.968 240.996 25.518 240.258 25.032L241.446 24.186C242.256 24.636 242.814 25.05 243.408 25.644L242.382 26.508L242.472 26.49C243.084 26.436 243.642 26.346 244.02 26.256L244.182 27.966C244.074 27.966 244.002 27.966 243.948 27.966C243.66 27.966 243.39 27.984 242.544 28.056L239.988 28.29C240.006 28.65 240.006 28.668 240.042 29.37L242.238 29.154C243.048 29.082 243.408 29.028 243.876 28.902L244.02 30.612C243.93 30.612 243.84 30.612 243.804 30.612C243.462 30.612 243.228 30.63 242.382 30.702L240.186 30.918C240.276 31.566 240.312 31.944 240.33 32.034L243.156 31.764C243.984 31.674 244.29 31.62 244.74 31.512L244.92 33.24C244.83 33.24 244.758 33.24 244.722 33.24C244.38 33.24 243.876 33.276 243.264 33.348L240.582 33.636C240.726 34.302 240.834 34.68 241.05 35.238C241.932 34.572 242.328 34.158 242.598 33.636ZM231.06 33.006L231.888 31.71C232.446 32.16 232.554 32.268 233.112 32.808C233.364 31.89 233.472 31.35 233.652 30.072H232.068C231.528 31.674 230.88 32.844 229.854 33.996C229.602 33.402 229.332 33.024 228.774 32.43C229.728 31.368 230.25 30.396 230.7 28.884C230.952 28.092 231.042 27.588 231.132 26.67H230.736C230.16 26.67 229.8 26.688 229.368 26.76V24.924C229.836 24.978 230.394 25.014 231.15 25.014H234.282C234.984 25.014 235.632 24.978 236.118 24.924V26.742C235.65 26.688 235.29 26.67 234.822 26.67H232.86C232.77 27.462 232.716 27.75 232.536 28.524H234.066C234.75 28.524 235.146 28.506 235.506 28.47C235.488 28.542 235.488 28.56 235.47 28.668C235.47 28.686 235.47 28.722 235.452 28.776C235.38 29.298 235.38 29.298 235.254 30.432C235.056 32.448 234.444 34.554 233.58 36.246C233.112 37.182 232.464 38.118 231.798 38.838C231.474 39.198 231.222 39.414 230.322 40.206C229.872 39.504 229.566 39.126 229.08 38.676C230.682 37.524 231.618 36.39 232.518 34.482C232.05 33.942 231.618 33.51 231.06 33.006ZM250.878 24.78C251.796 24.816 252.498 24.888 253.038 25.032C253.488 25.158 253.614 25.248 253.614 25.446C253.614 25.572 253.596 25.626 253.506 25.878C253.308 26.4 253.164 27.318 253.092 28.578C252.948 31.476 252.876 33.726 252.876 35.508C252.876 36.084 252.93 36.516 253.02 36.804C253.218 37.398 253.848 37.704 254.856 37.704C256.476 37.704 258.006 37.038 259.41 35.724C260.058 35.112 260.454 34.626 261.12 33.636C261.228 34.212 261.372 34.59 261.768 35.4C261.822 35.544 261.858 35.652 261.858 35.814C261.858 36.138 261.516 36.57 260.616 37.38C258.834 38.982 256.854 39.81 254.784 39.81C253.416 39.81 252.408 39.468 251.76 38.82C251.076 38.1 250.806 37.164 250.806 35.382C250.806 33.978 250.824 32.898 250.968 28.704C250.986 28.074 251.004 27.696 251.004 27.534C251.004 26.004 250.986 25.554 250.878 24.78ZM264.72 36.48C264.72 36.354 264.756 36.3 265.548 35.562C265.872 35.274 265.962 35.202 266.088 35.202C266.322 35.202 267.402 35.994 268.194 36.75C269.094 37.578 270.102 38.784 270.102 39.036C270.102 39.198 270.066 39.234 269.544 39.702C268.86 40.332 268.716 40.44 268.59 40.44C268.482 40.44 268.374 40.368 268.284 40.188C267.654 39.072 266.214 37.596 264.936 36.768C264.792 36.66 264.72 36.588 264.72 36.48Z" fill="white"/>
<path d="M1 40H273" stroke="white"/>
<path d="M218.82 87.662V87.572C217.038 88.616 216.534 89.138 216.534 89.93C216.534 90.254 216.66 90.47 216.93 90.632C217.326 90.866 218.208 90.992 219.342 90.992C220.314 90.992 221.664 90.902 222.582 90.776C222.96 90.722 223.176 90.668 223.896 90.488C223.932 90.488 223.95 90.488 223.986 90.488C224.112 90.488 224.202 90.578 224.256 90.704C224.364 91.082 224.436 91.622 224.436 92.27C224.436 92.54 224.346 92.648 224.112 92.702C223.68 92.792 221.682 92.9 220.368 92.9C218.172 92.9 217.002 92.756 216.138 92.396C215.094 91.964 214.572 91.154 214.572 90.02C214.572 88.976 215.058 88.058 216.03 87.284C216.804 86.672 216.984 86.546 218.64 85.61C218.496 85.016 218.226 84.764 217.668 84.764C216.93 84.764 216.156 85.052 215.31 85.61C214.788 85.97 214.176 86.474 213.798 86.852C213.258 87.41 213.204 87.446 213.06 87.446C212.88 87.446 212.502 87.032 212.124 86.402C211.944 86.096 211.836 85.862 211.836 85.736C211.836 85.574 211.872 85.538 212.304 85.268C213.78 84.278 215.004 83.018 215.742 81.722C214.464 81.812 213.798 81.83 213.096 81.83C212.826 81.83 212.772 81.776 212.682 81.47C212.628 81.236 212.538 80.282 212.52 79.796C213.132 79.886 213.492 79.904 214.356 79.904C215.058 79.904 215.832 79.886 216.642 79.85C217.02 78.824 217.146 78.176 217.164 77.33C218.766 77.6 219.504 77.87 219.504 78.176C219.504 78.248 219.486 78.284 219.432 78.392C219.306 78.626 219.162 78.914 218.928 79.472C218.892 79.544 218.892 79.544 218.874 79.598C219.9 79.454 220.8 79.274 221.43 79.13C221.826 79.022 221.916 79.004 222.006 79.004C222.15 79.004 222.222 79.058 222.258 79.166C222.33 79.49 222.438 80.318 222.438 80.57C222.438 80.768 222.366 80.858 222.132 80.912C221.556 81.074 219.576 81.38 217.92 81.542C217.38 82.532 217.002 83.108 216.444 83.72C217.254 83.342 217.866 83.198 218.586 83.198C219.396 83.198 219.936 83.666 220.296 84.674C222.078 83.702 223.032 83.18 223.14 83.108C223.968 82.622 224.31 82.352 224.706 81.902C225.444 82.658 226.236 83.792 226.236 84.098C226.236 84.206 226.164 84.278 225.93 84.332C225.048 84.566 223.41 85.268 220.674 86.6C220.692 86.924 220.728 87.752 220.728 88.328C220.728 88.418 220.728 88.562 220.728 88.706C220.728 88.796 220.728 88.832 220.728 88.886V89.192C220.728 89.408 220.692 89.516 220.602 89.57C220.512 89.66 220.026 89.714 219.486 89.714C218.874 89.714 218.766 89.66 218.766 89.372C218.766 89.354 218.766 89.336 218.766 89.3C218.802 88.778 218.82 88.094 218.82 87.662ZM236.46 91.064V91.298C236.46 92.198 236.496 92.738 236.55 93.17H234.534C234.606 92.63 234.642 91.982 234.642 91.316V89.696C233.112 90.164 231.708 90.542 230.97 90.686C230.322 90.812 229.836 90.938 229.584 91.046L229.098 89.084C229.53 89.048 229.8 89.012 230.43 88.904V79.472C229.818 79.49 229.692 79.49 229.278 79.544V77.672C229.764 77.726 230.25 77.762 230.826 77.762H236.1C236.784 77.762 237.18 77.744 237.666 77.672V78.752C238.098 78.788 238.314 78.788 238.764 78.788H243.3C243.768 78.788 244.236 78.752 244.704 78.698C244.668 78.914 244.632 79.274 244.578 79.796C244.326 82.748 243.462 85.592 242.112 87.986C243.066 89.318 243.858 90.038 245.442 91.028C244.992 91.694 244.632 92.36 244.398 92.972C242.634 91.694 241.932 91.01 240.996 89.696C239.898 91.118 239.178 91.784 237.504 92.99C237.198 92.18 236.946 91.73 236.46 91.064ZM236.46 79.472V91.028C238.188 89.966 238.872 89.354 239.916 87.986C239.304 86.852 238.962 86.024 238.62 84.89C238.242 83.594 238.116 82.928 237.846 80.534C237.54 80.552 237.378 80.57 237.126 80.606V79.49C236.928 79.472 236.82 79.472 236.46 79.472ZM242.652 80.516H239.592C239.988 83.522 240.222 84.422 241.05 86.168C241.842 84.566 242.256 83.09 242.652 80.516ZM232.248 79.472V81.38H234.642V79.472H232.248ZM232.248 82.928V84.764H234.642V82.928H232.248ZM232.248 86.33V88.562C233.472 88.31 233.472 88.31 234.642 88.004V86.33H232.248ZM259.176 78.68V78.734C259.176 78.788 259.176 78.824 259.176 78.86C259.176 78.878 259.176 78.95 259.176 79.04C259.194 79.112 259.194 79.256 259.212 79.454C259.23 79.742 259.23 79.742 259.266 80.192C259.266 80.39 259.266 80.39 259.302 81.056C259.356 81.92 259.392 82.784 259.392 83.216C259.392 86.6 258.51 89.228 256.638 91.442C255.918 92.288 255.288 92.774 254.928 92.774C254.712 92.774 254.694 92.774 254.316 92.486C253.974 92.216 253.506 91.982 253.038 91.856C254.298 90.956 254.982 90.326 255.648 89.372C256.764 87.77 257.304 85.862 257.304 83.54C257.304 81.074 257.142 79.562 256.728 78.464C257.484 78.374 258.042 78.338 258.564 78.338C259.104 78.338 259.176 78.374 259.176 78.68ZM252.372 84.476C252.534 84.188 252.534 84.188 252.642 83.99C252.732 83.846 252.732 83.846 253.524 82.514C253.632 82.82 253.74 83.018 253.956 83.306C254.082 83.504 254.136 83.612 254.136 83.72C254.136 83.828 254.1 83.918 253.668 84.62C253.362 85.16 252.84 86.276 252.624 86.816C252.444 87.32 252.372 87.356 251.778 87.356C251.166 87.356 250.716 87.284 250.644 87.176C250.536 87.032 250.464 86.06 250.464 84.728C250.464 82.964 250.59 81.722 251.058 78.59C251.112 78.23 251.13 78.05 251.13 77.654C252.534 77.906 253.452 78.32 253.452 78.662C253.452 78.752 253.434 78.806 253.308 78.968C253.074 79.31 252.93 79.778 252.75 80.732C252.534 81.938 252.372 83.522 252.372 84.476ZM271.974 79.868H269.814C269.328 79.868 268.842 79.904 268.158 79.958V77.888C268.698 77.96 269.004 77.978 269.778 77.978H272.532C273.252 77.978 273.684 77.96 274.116 77.888C274.062 78.266 274.044 78.644 274.044 78.986C274.044 81.416 274.674 83.72 275.898 85.808C276.618 87.014 277.482 88.058 278.652 89.138C279.534 89.93 280.038 90.29 281.226 90.992C280.56 91.64 280.236 92.072 279.768 92.954C278.022 91.73 276.726 90.47 275.538 88.886C274.926 88.04 274.53 87.374 274.026 86.33C273.594 85.376 273.432 84.944 273.144 83.864C272.532 86.078 271.83 87.554 270.678 89.084C269.58 90.542 268.266 91.73 266.394 92.99C266.034 92.252 265.62 91.73 264.972 91.19C266.448 90.344 267.294 89.678 268.446 88.472C269.796 87.068 270.858 85.232 271.416 83.36C271.758 82.172 271.902 81.272 271.974 79.868ZM286.59 84.206L286.626 82.676C285.816 82.838 285.042 83.036 284.538 83.216C284.412 83.27 284.304 83.288 284.214 83.288C284.052 83.288 283.962 83.198 283.854 82.892C283.728 82.496 283.602 81.866 283.53 81.236C283.8 81.254 283.926 81.272 284.088 81.272C284.772 81.272 285.51 81.182 286.644 80.966L286.68 79.886C286.698 79.634 286.698 79.454 286.698 79.4C286.698 78.626 286.68 78.158 286.608 77.672C287.562 77.708 288.156 77.78 288.732 77.924C288.966 77.978 289.074 78.086 289.074 78.248C289.074 78.32 289.056 78.374 288.966 78.572C288.804 78.914 288.786 79.13 288.66 80.624C289.056 80.894 289.398 81.272 289.398 81.452C289.398 81.56 289.344 81.65 289.182 81.848C288.912 82.136 288.822 82.262 288.48 82.766C288.444 83.234 288.444 83.234 288.444 83.36C289.038 82.838 289.434 82.496 290.046 82.046C290.73 81.524 291.486 81.038 292.026 80.768C292.728 80.39 293.214 80.264 293.862 80.264C294.816 80.264 295.5 80.624 295.878 81.308C296.094 81.74 296.184 82.154 296.184 82.856C296.184 83.468 296.148 84.044 296.04 85.358C295.896 86.906 295.824 88.058 295.824 88.76C295.824 89.462 295.986 89.678 296.49 89.678C297.21 89.678 298.092 89.156 298.866 88.274C298.884 88.976 298.938 89.192 299.172 89.912C299.226 90.056 299.244 90.146 299.244 90.218C299.244 90.416 299.154 90.578 298.848 90.812C298.11 91.406 297.048 91.784 296.094 91.784C294.51 91.784 293.79 90.956 293.79 89.138C293.79 88.31 293.844 87.248 294.024 84.728C294.078 84.134 294.096 83.63 294.096 83.378C294.096 82.64 293.844 82.298 293.304 82.298C292.746 82.298 291.702 82.874 290.28 83.972C289.56 84.512 289.146 84.89 288.39 85.664C288.39 85.772 288.39 85.772 288.39 85.898C288.39 86.15 288.39 86.402 288.39 86.492C288.39 87.842 288.48 90.956 288.552 92.054C288.552 92.144 288.552 92.216 288.552 92.27C288.552 92.414 288.534 92.468 288.498 92.522C288.408 92.63 287.886 92.702 287.058 92.702C286.536 92.702 286.428 92.63 286.428 92.324C286.428 92.216 286.428 92.036 286.446 91.838C286.446 91.748 286.446 91.604 286.446 91.424C286.464 90.794 286.464 90.794 286.536 87.374C285.51 88.706 285.51 88.706 284.898 89.696C284.736 89.948 284.628 90.038 284.484 90.038C284.34 90.038 284.016 89.75 283.458 89.138C283.116 88.742 282.99 88.58 282.99 88.472C282.99 88.382 283.026 88.31 283.152 88.184C284.286 87.014 285.24 85.898 286.59 84.206ZM307.704 84.476C308.874 83.828 309.792 83.558 310.872 83.558C313.41 83.558 315.21 85.286 315.21 87.734C315.21 89.408 314.328 90.92 312.852 91.802C311.826 92.414 310.566 92.72 309.144 92.72C306.858 92.72 305.526 91.802 305.526 90.236C305.526 88.814 306.714 87.806 308.406 87.806C309.936 87.806 311.034 88.58 311.772 90.164C312.69 89.498 313.068 88.796 313.068 87.824C313.068 86.276 311.97 85.268 310.242 85.268C308.478 85.268 306.588 86.15 305.022 87.716C304.734 88.004 304.464 88.31 304.14 88.724C304.014 88.904 303.924 88.976 303.816 88.976C303.492 88.976 302.214 87.716 302.214 87.392C302.214 87.23 302.286 87.14 302.682 86.852C303.096 86.528 303.69 86.006 304.446 85.286C306.192 83.63 307.47 82.244 309.36 79.94C307.11 80.228 305.598 80.48 305.04 80.678C304.95 80.696 304.896 80.714 304.842 80.714C304.698 80.714 304.608 80.624 304.5 80.354C304.284 79.814 304.176 79.22 304.122 78.428C304.608 78.5 304.95 78.518 305.346 78.518C306.21 78.518 307.668 78.392 309.558 78.176C310.224 78.104 310.44 78.05 310.944 77.852C311.106 77.78 311.196 77.762 311.304 77.762C311.556 77.762 311.808 77.978 312.276 78.698C312.618 79.166 312.726 79.4 312.726 79.544C312.726 79.778 312.672 79.85 312.276 80.102C311.952 80.3 311.754 80.462 311.34 80.858C310.44 81.722 310.422 81.722 309.306 82.856C308.514 83.666 308.424 83.756 307.704 84.476ZM309.918 90.902C309.702 90.308 309.522 90.038 309.144 89.786C308.874 89.606 308.568 89.516 308.226 89.516C307.668 89.516 307.308 89.786 307.308 90.218C307.308 90.74 307.866 91.064 308.73 91.064C309.126 91.064 309.468 91.028 309.918 90.902ZM321.78 87.32C323.472 87.32 324.822 88.688 324.822 90.362C324.822 92.054 323.454 93.422 321.78 93.422C320.106 93.422 318.738 92.054 318.738 90.362C318.738 88.688 320.106 87.32 321.78 87.32ZM321.78 88.724C320.88 88.724 320.142 89.462 320.142 90.362C320.142 91.28 320.88 92.018 321.78 92.018C322.68 92.018 323.418 91.28 323.418 90.362C323.418 89.462 322.68 88.724 321.78 88.724Z" fill="white"/>
<path d="M9.38 74.935V72.975C7.35 74.34 5.845 75.215 3.535 76.3C3.01 74.935 2.415 73.92 1.54 72.8C4.97 71.365 7.525 69.895 9.905 68.04C12.285 66.185 13.965 64.435 15.33 62.37H19.32C22.61 66.85 27.09 70.14 33.425 72.59C32.55 73.955 32.305 74.445 31.535 76.37C28.525 75.005 27.895 74.655 25.62 73.08V74.935C24.535 74.83 23.695 74.795 22.61 74.795H12.285C11.235 74.795 10.22 74.83 9.38 74.935ZM12.32 71.54H22.575C22.89 71.54 23.065 71.54 23.415 71.54C20.895 69.65 19.18 68.005 17.43 65.66C15.575 68.04 14.14 69.44 11.41 71.54C11.83 71.54 12.005 71.54 12.32 71.54ZM13.405 80.99H9.205C7.805 80.99 6.37 81.06 5.145 81.165V77.525C6.37 77.63 7.595 77.7 9.24 77.7H26.215C27.615 77.7 28.315 77.665 29.225 77.595C29.155 78.435 29.12 79.24 29.12 80.605V87.185C29.12 89.95 28 90.72 24.08 90.72C23.31 90.72 22.96 90.72 20.93 90.615C20.755 89.11 20.545 88.375 19.985 87.01C21.98 87.22 22.995 87.29 24.045 87.29C25.095 87.29 25.445 87.115 25.445 86.485V80.99H17.29V89.635C17.29 91.28 17.36 92.33 17.535 93.345H13.195C13.335 92.225 13.405 91.14 13.405 89.67V80.99ZM43.085 71.26V67.97C41.79 68.215 40.985 68.355 38.605 68.74C38.325 67.305 38.08 66.605 37.415 65.38C42.49 64.89 47.705 63.525 49.735 62.16L51.905 65.38C51.485 65.52 51.485 65.52 51.03 65.66C50.995 65.695 50.855 65.73 50.645 65.8C49.49 66.22 47.53 66.885 46.62 67.13V71.26H48.58C49.91 71.26 50.68 71.225 51.415 71.085V74.725C50.61 74.62 49.77 74.585 48.545 74.585H46.83C47.285 75.6 47.495 75.95 48.23 76.93C49.49 78.68 50.505 79.695 52.29 81.095C51.31 82.005 51.1 82.32 50.155 84C48.51 82.25 47.495 80.815 46.445 78.68C46.585 79.905 46.62 81.06 46.62 82.985V88.865C46.62 90.895 46.655 92.015 46.83 93.135H42.84C43.015 91.945 43.05 90.93 43.05 88.865V83.3C43.05 82.39 43.085 81.62 43.225 79.31C42.63 81.13 42.175 82.04 40.88 84.21C40.32 85.19 39.83 85.82 38.605 87.325C38.01 85.995 37.52 85.295 36.505 84.105C38.08 82.705 39.41 80.92 40.705 78.54C41.615 76.86 41.615 76.86 42.49 74.585H40.46C39.165 74.585 38.255 74.655 37.345 74.76V71.085C38.29 71.225 39.13 71.26 40.495 71.26H43.085ZM56.105 90.09V92.33H52.36C52.465 91.28 52.535 89.88 52.535 88.375V68.32C52.535 66.815 52.5 65.695 52.395 64.715C53.41 64.855 54.215 64.89 55.685 64.89H63.385C64.785 64.89 65.695 64.855 66.71 64.715C66.57 65.695 66.535 66.745 66.535 68.32V88.025C66.535 89.775 66.605 91.245 66.745 92.33H62.895V90.09H56.105ZM56.14 68.39V86.555H62.895V68.39H56.14ZM90.02 69.65C89.04 77.035 87.885 81.06 85.75 84.735C84.07 87.64 81.76 89.25 79.38 89.25C75.74 89.25 73.15 85.68 73.15 80.71C73.15 75.18 75.95 70.42 80.745 67.9C83.09 66.64 85.61 66.08 88.935 66.08C96.25 66.08 101.675 71.26 101.675 78.19C101.675 84.315 98.665 88.725 92.855 91.21C91.7 91.7 90.79 91.98 90.335 91.98C89.915 91.98 89.74 91.84 89.285 91.175C88.69 90.265 88.025 89.6 87.08 88.97C94.29 87.115 97.545 83.72 97.545 78.05C97.545 75.145 96.32 72.695 94.15 71.155C92.925 70.315 91.945 69.965 90.02 69.65ZM86.03 69.825C83.545 70.35 82.32 70.945 80.71 72.345C78.365 74.41 77.035 77.35 77.035 80.64C77.035 83.335 77.91 84.91 79.38 84.91C81.13 84.91 82.915 82.495 84.245 78.33C85.085 75.705 85.505 73.71 86.03 69.825ZM127.645 72.45H135.17C136.675 72.45 137.445 72.415 138.25 72.24V75.985C137.375 75.88 136.885 75.845 135.555 75.845H134.715V89.355C134.715 91.385 134.75 92.295 134.925 93.31H130.97C131.145 92.295 131.18 91.28 131.18 89.355V75.845H127.61C127.575 80.115 127.19 83.615 126.385 86.695C125.72 89.285 124.67 91.63 123.375 93.415C122.045 92.295 121.485 91.945 120.085 91.21C123.27 87.29 124.11 82.915 124.11 70.21C124.11 67.41 124.075 66.185 123.9 64.96C127.715 64.855 133.49 63.385 135.17 62.09L137.935 65.345C137.585 65.45 137.515 65.485 136.815 65.73C134.12 66.745 132.02 67.235 127.645 68.005V72.45ZM113.68 76.37H110.18C108.78 76.37 107.975 76.405 107.1 76.51V72.905C107.905 73.045 108.675 73.08 110.215 73.08H111.02C110.565 71.19 110.25 70.315 109.585 69.09L112.525 68.355H110.95C109.445 68.355 108.675 68.39 107.765 68.495V64.89C108.64 65.03 109.34 65.065 110.985 65.065H113.575V64.575C113.575 63.42 113.54 62.93 113.435 62.09H117.495C117.355 62.86 117.32 63.35 117.32 64.54V65.065H119.595C121.205 65.065 121.8 65.03 122.71 64.89V68.495C121.835 68.39 120.995 68.355 119.56 68.355H118.195L121.03 69.16C120.295 70.91 119.56 72.485 119.21 73.08H119.91C121.415 73.08 122.15 73.045 122.99 72.905V76.51C122.045 76.405 121.31 76.37 119.91 76.37H117.18V78.75H119.77C121.24 78.75 121.905 78.715 122.815 78.575V82.11C121.94 82.005 121.17 81.97 119.77 81.97H118.545C119.49 83.125 120.365 83.86 121.975 84.91C121.24 86.17 120.89 86.835 120.365 88.095C118.65 86.59 118.16 86.03 117.11 84.49C117.145 86.065 117.18 86.905 117.18 87.115V90.44C117.18 91.63 117.25 92.435 117.355 93.24H113.505C113.61 92.47 113.68 91.665 113.68 90.58V87.22C113.68 86.555 113.715 85.855 113.75 84.945C112.42 87.535 110.81 89.285 108.185 91.175C107.765 89.775 107.275 88.83 106.505 87.745C109.095 86.135 111.02 84.28 112.385 81.97H110.215C108.745 81.97 108.045 82.005 107.135 82.145V78.575C108.01 78.715 108.675 78.75 110.285 78.75H113.68V77.035C113.68 76.44 113.68 76.44 113.68 76.37ZM117.74 68.355H112.77C113.505 69.79 113.75 70.525 114.24 72.275L111.195 73.08H115.815C116.725 71.435 117.25 70.14 117.74 68.355ZM149.485 63.35C151.27 63.42 152.635 63.56 153.685 63.84C154.56 64.085 154.805 64.26 154.805 64.645C154.805 64.89 154.77 64.995 154.595 65.485C154.21 66.5 153.93 68.285 153.79 70.735C153.51 76.37 153.37 80.745 153.37 84.21C153.37 85.33 153.475 86.17 153.65 86.73C154.035 87.885 155.26 88.48 157.22 88.48C160.37 88.48 163.345 87.185 166.075 84.63C167.335 83.44 168.105 82.495 169.4 80.57C169.61 81.69 169.89 82.425 170.66 84C170.765 84.28 170.835 84.49 170.835 84.805C170.835 85.435 170.17 86.275 168.42 87.85C164.955 90.965 161.105 92.575 157.08 92.575C154.42 92.575 152.46 91.91 151.2 90.65C149.87 89.25 149.345 87.43 149.345 83.965C149.345 81.235 149.38 79.135 149.66 70.98C149.695 69.755 149.73 69.02 149.73 68.705C149.73 65.73 149.695 64.855 149.485 63.35ZM192.175 63.385V63.77C192.175 64.645 192.595 66.29 193.435 68.495C196.13 67.83 197.705 67.27 201.38 65.695C201.59 65.625 201.695 65.59 201.8 65.59C202.15 65.59 202.395 66.22 202.92 68.495C202.955 68.67 202.955 68.705 202.99 68.845C203.025 68.915 203.025 68.95 203.025 68.985C203.025 69.23 202.885 69.37 202.535 69.51C200.75 70.28 198.72 70.91 194.975 71.89C196.795 75.285 199.385 78.225 201.905 79.695C202.08 79.8 202.185 79.94 202.185 80.115C202.185 80.535 201.415 82.18 200.82 83.02C200.505 83.475 200.295 83.65 199.98 83.65C199.735 83.65 199.665 83.615 199.21 83.265C198.475 82.74 196.725 81.935 195.465 81.585C193.96 81.165 192.595 80.99 190.985 80.99C186.855 80.99 184.755 82.145 184.755 84.385C184.755 85.645 185.42 86.52 186.855 87.22C188.5 88.025 191.51 88.48 195.045 88.48C196.095 88.48 196.795 88.445 197.845 88.305C197.285 89.39 197.11 89.845 196.445 92.015C196.27 92.54 195.99 92.68 195.045 92.68C192.7 92.68 189.76 92.365 187.975 91.945C183.32 90.79 180.66 88.165 180.66 84.665C180.66 82.985 181.325 81.34 182.48 80.15C184.09 78.575 186.68 77.7 190.005 77.7C192.175 77.7 193.575 77.945 195.43 78.68C193.4 76.51 192.385 75.11 191.16 72.73C189.025 73.115 187.24 73.36 185.175 73.57C183.95 73.675 181.255 73.85 180.73 73.85C180.24 73.85 180.1 73.745 179.925 73.15C179.715 72.485 179.54 71.365 179.365 69.825C180.52 69.86 181.08 69.895 181.71 69.895C183.81 69.895 187.275 69.615 189.55 69.265C189.235 68.565 188.64 67.06 188.29 66.115C187.73 64.575 187.485 64.015 187.03 63.245C188.675 62.965 190.46 62.79 191.265 62.79C191.93 62.79 192.175 62.965 192.175 63.385Z" fill="white"/>
<path d="M1 93H324.5" stroke="white"/>
<path d="M11.256 119.612H8.134C8.008 120.326 7.756 121.11 7.448 121.782C7.042 122.636 6.594 123.21 5.782 123.966C5.432 123.518 5.166 123.266 4.592 122.874C5.642 122.062 6.118 121.404 6.51 120.2C6.888 119.052 7.014 117.82 7.014 115.37C7.014 113.578 6.986 112.57 6.93 112.01C7.364 112.052 7.7 112.066 8.414 112.066H11.312C12.054 112.066 12.39 112.052 12.768 112.01C12.726 112.374 12.712 112.766 12.712 113.494V122.23C12.712 122.888 12.572 123.266 12.236 123.476C11.942 123.672 11.592 123.728 10.766 123.728C10.388 123.728 10.164 123.728 9.674 123.7C9.604 123.056 9.52 122.692 9.31 122.202C9.926 122.286 10.388 122.328 10.696 122.328C11.158 122.328 11.256 122.258 11.256 121.922V119.612ZM11.256 116.434H8.428C8.4 117.092 8.372 117.596 8.316 118.296H11.256V116.434ZM11.256 115.174V113.41H8.456V115.174H11.256ZM1.358 119.92V113.718C1.358 113.074 1.344 112.752 1.302 112.332C1.694 112.36 1.988 112.374 2.772 112.374H4.886C5.418 112.374 5.698 112.36 6.048 112.332C6.006 112.654 6.006 112.934 6.006 113.564V119.64C6.006 120.354 6.006 120.746 6.034 121.026H4.648V120.522H2.758V121.516H1.274C1.33 121.082 1.358 120.592 1.358 119.92ZM2.744 113.69V115.72H4.648V113.69H2.744ZM2.744 116.98V119.234H4.648V116.98H2.744ZM17.654 115.104V113.788C17.136 113.886 16.814 113.942 15.862 114.096C15.75 113.522 15.652 113.242 15.386 112.752C17.416 112.556 19.502 112.01 20.314 111.464L21.182 112.752C21.014 112.808 21.014 112.808 20.832 112.864C20.818 112.878 20.762 112.892 20.678 112.92C20.216 113.088 19.432 113.354 19.068 113.452V115.104H19.852C20.384 115.104 20.692 115.09 20.986 115.034V116.49C20.664 116.448 20.328 116.434 19.838 116.434H19.152C19.334 116.84 19.418 116.98 19.712 117.372C20.216 118.072 20.622 118.478 21.336 119.038C20.944 119.402 20.86 119.528 20.482 120.2C19.824 119.5 19.418 118.926 18.998 118.072C19.054 118.562 19.068 119.024 19.068 119.794V122.146C19.068 122.958 19.082 123.406 19.152 123.854H17.556C17.626 123.378 17.64 122.972 17.64 122.146V119.92C17.64 119.556 17.654 119.248 17.71 118.324C17.472 119.052 17.29 119.416 16.772 120.284C16.548 120.676 16.352 120.928 15.862 121.53C15.624 120.998 15.428 120.718 15.022 120.242C15.652 119.682 16.184 118.968 16.702 118.016C17.066 117.344 17.066 117.344 17.416 116.434H16.604C16.086 116.434 15.722 116.462 15.358 116.504V115.034C15.736 115.09 16.072 115.104 16.618 115.104H17.654ZM22.862 122.636V123.532H21.364C21.406 123.112 21.434 122.552 21.434 121.95V113.928C21.434 113.326 21.42 112.878 21.378 112.486C21.784 112.542 22.106 112.556 22.694 112.556H25.774C26.334 112.556 26.698 112.542 27.104 112.486C27.048 112.878 27.034 113.298 27.034 113.928V121.81C27.034 122.51 27.062 123.098 27.118 123.532H25.578V122.636H22.862ZM22.876 113.956V121.222H25.578V113.956H22.876ZM34.958 114.11H32.242C31.486 114.11 31.094 114.124 30.506 114.194V112.598C30.982 112.668 31.444 112.682 32.256 112.682H39.494C40.278 112.682 40.74 112.654 41.23 112.598V114.194C40.614 114.124 40.25 114.11 39.508 114.11H36.554V121.306H40.166C40.95 121.306 41.44 121.278 41.972 121.208V122.846C41.468 122.776 40.866 122.748 40.152 122.748H31.57C30.87 122.748 30.324 122.776 29.75 122.846V121.208C30.296 121.278 30.772 121.306 31.584 121.306H34.958V114.11ZM49.462 116.882H46.088C45.458 116.882 45.164 116.896 44.716 116.938V115.664C45.094 115.706 45.43 115.72 46.088 115.72H47.726C47.502 115.216 47.376 114.978 47.222 114.712H45.78C45.136 114.712 44.604 114.74 44.184 114.782V113.438C44.604 113.494 45.024 113.522 45.71 113.522H46.144C45.892 113.06 45.724 112.836 45.234 112.276L46.578 111.772C47.026 112.388 47.208 112.696 47.614 113.522H48.37V112.584C48.37 112.178 48.342 111.8 48.3 111.534H49.756C49.728 111.786 49.714 112.08 49.714 112.528V113.522H50.708V112.528C50.708 112.108 50.694 111.814 50.652 111.534H52.122C52.08 111.786 52.052 112.164 52.052 112.584V113.522H52.892C53.354 112.878 53.62 112.388 53.858 111.744L55.23 112.248C54.936 112.752 54.684 113.144 54.404 113.522H54.782C55.482 113.522 55.902 113.494 56.308 113.438V114.782C55.888 114.74 55.356 114.712 54.712 114.712H53.354C53.13 115.216 53.032 115.426 52.864 115.72H54.418C55.076 115.72 55.412 115.706 55.804 115.664V116.938C55.37 116.896 55.062 116.882 54.418 116.882H50.904V117.526H53.732C54.32 117.526 54.74 117.512 55.104 117.47V118.646C54.754 118.604 54.32 118.59 53.732 118.59H50.904V119.262H54.67C55.426 119.262 55.902 119.234 56.28 119.178V120.522C55.79 120.466 55.3 120.438 54.684 120.438H51.982C52.43 120.83 53.046 121.18 53.802 121.516C54.656 121.866 55.384 122.076 56.602 122.286C56.224 122.79 56.056 123.084 55.832 123.658C53.578 123.042 52.052 122.23 50.862 120.984C50.89 121.46 50.89 121.628 50.89 121.936V122.608C50.89 123.182 50.918 123.588 50.974 123.966H49.392C49.448 123.574 49.476 123.14 49.476 122.594V121.95C49.476 121.642 49.476 121.53 49.504 121.026C48.888 121.684 48.398 122.062 47.572 122.51C46.718 122.986 45.878 123.336 44.828 123.644C44.632 123.182 44.366 122.776 44.016 122.342C45.962 121.936 47.32 121.348 48.412 120.438H45.92C45.262 120.438 44.786 120.466 44.282 120.522V119.178C44.702 119.234 45.164 119.262 45.906 119.262H49.462V118.59H46.802C46.214 118.59 45.78 118.604 45.43 118.646V117.47C45.794 117.512 46.2 117.526 46.802 117.526H49.462V116.882ZM49.154 115.72H51.366C51.562 115.356 51.688 115.076 51.814 114.712H48.748C48.93 115.104 49.028 115.356 49.154 115.72ZM68.124 115.72H68.152C68.348 115.72 69.538 117.05 69.538 117.26C69.538 117.33 69.454 117.414 69.202 117.638C68.936 117.862 68.922 117.862 68.81 117.904C68.74 117.932 68.74 117.932 68.712 117.932C68.656 117.932 68.642 117.918 68.39 117.526C68.166 117.176 67.928 116.868 67.48 116.406C67.452 116.378 67.41 116.308 67.41 116.294C67.438 116.224 67.452 116.182 67.466 116.182C67.508 116.126 67.746 115.93 67.802 115.888C67.942 115.818 68.026 115.762 68.04 115.748C68.054 115.72 68.082 115.72 68.082 115.72H68.124ZM70.91 116.308C70.91 116.392 70.812 116.49 70.546 116.686C70.336 116.84 70.21 116.924 70.14 116.924C70.084 116.924 70.056 116.896 69.986 116.784C69.566 116.154 69.356 115.888 68.908 115.454C68.88 115.412 68.852 115.37 68.852 115.342C68.852 115.272 68.936 115.188 69.132 115.048C69.328 114.908 69.496 114.824 69.566 114.824C69.664 114.824 69.832 114.95 70.126 115.244C70.532 115.664 70.91 116.182 70.91 116.308ZM65.814 114.418C63.98 114.726 62.048 115.09 60.984 115.356C60.62 115.44 60.494 115.482 59.99 115.664C59.808 115.734 59.71 115.762 59.626 115.762C59.318 115.762 59.038 115.188 58.786 113.984C59.682 113.942 60.004 113.9 61.558 113.662C63.238 113.41 65.366 113.088 66.486 112.948C67.746 112.78 68.754 112.612 69.286 112.5C69.384 112.472 69.426 112.472 69.496 112.472C69.678 112.472 69.748 112.556 69.874 112.906C69.986 113.2 70.07 113.62 70.07 113.816C70.07 113.984 70.014 114.04 69.818 114.04C69.524 114.04 69.258 114.068 68.992 114.11C66.626 114.502 64.736 116.574 64.736 118.758C64.736 120.396 66.024 121.474 68.208 121.67C68.404 121.684 68.474 121.754 68.474 121.922C68.474 122.272 68.334 122.944 68.208 123.252C68.138 123.406 68.026 123.476 67.844 123.476C67.662 123.476 67.242 123.392 66.808 123.266C64.428 122.566 63.182 121.054 63.182 118.912C63.182 117.75 63.56 116.672 64.288 115.748C64.68 115.244 65.016 114.964 65.814 114.418ZM80.6115 116.322C80.0095 116.364 79.0575 116.406 78.4975 116.406C77.8255 116.406 77.6855 116.378 77.6435 116.224C77.6015 116.098 77.5595 115.65 77.5595 115.328C77.5595 115.216 77.5595 115.104 77.5735 114.852C77.9515 114.88 78.1755 114.894 78.6375 114.894C79.3935 114.894 79.8695 114.88 80.5975 114.824C80.5835 113.046 80.5695 112.822 80.4295 112.164C81.1155 112.178 81.6335 112.234 82.0815 112.346C82.2915 112.402 82.3755 112.472 82.3755 112.612C82.3755 112.668 82.3615 112.71 82.3195 112.822C82.1795 113.144 82.1095 113.69 82.0815 114.67C82.5995 114.6 83.0475 114.502 83.8875 114.306C83.9575 114.278 83.9855 114.278 84.0275 114.278C84.1115 114.278 84.1535 114.32 84.1815 114.418C84.2095 114.544 84.2515 115.076 84.2515 115.37C84.2515 115.72 84.2375 115.776 84.0975 115.832C83.8735 115.944 83.2575 116.042 82.0675 116.196C82.0675 117.162 82.1515 118.758 82.2495 119.668C83.1315 120.046 83.7335 120.368 84.3495 120.802C84.7415 121.082 84.8255 121.18 84.8255 121.278C84.8255 121.432 84.5735 121.908 84.2795 122.314C84.1115 122.552 84.0275 122.622 83.9295 122.622C83.8315 122.622 83.8315 122.622 83.5095 122.314C83.2015 122.006 82.8795 121.768 82.2635 121.362C82.2635 121.418 82.2635 121.46 82.2635 121.474C82.2635 122.706 81.2415 123.518 79.6875 123.518C78.1055 123.518 77.0695 122.678 77.0695 121.418C77.0695 120.158 78.1335 119.22 79.5475 119.22C80.0655 119.22 80.3315 119.234 80.7095 119.29C80.6535 118.198 80.6535 118.198 80.6115 116.322ZM80.7095 120.732C80.3455 120.592 80.0235 120.522 79.6455 120.522C78.9455 120.522 78.4835 120.844 78.4835 121.334C78.4835 121.782 78.9175 122.062 79.5895 122.062C80.3315 122.062 80.7235 121.726 80.7235 121.082C80.7235 120.886 80.7095 120.732 80.7095 120.732ZM75.6695 119.15C75.7675 119.528 75.8655 119.71 76.1455 120.088C76.1875 120.144 76.2015 120.186 76.2015 120.242C76.2015 120.326 76.2015 120.326 75.9635 120.97C75.6695 121.824 75.4875 122.524 75.4315 123.07C75.4175 123.252 75.3615 123.322 75.1795 123.364C74.9835 123.42 74.6055 123.448 74.2415 123.448C74.1015 123.448 74.0315 123.42 73.9895 123.336C73.8635 123.07 73.6395 122.104 73.5275 121.32C73.4295 120.662 73.3875 119.976 73.3875 119.262C73.3875 117.652 73.5695 116.126 74.0735 113.382C74.1575 112.934 74.1855 112.724 74.2275 112.29C74.8715 112.374 75.3195 112.5 75.7255 112.696C75.9355 112.808 76.0195 112.906 76.0195 113.032C76.0195 113.116 75.9915 113.186 75.9215 113.298C75.3475 114.278 74.8155 117.302 74.8155 119.542C74.8155 119.878 74.8295 120.41 74.8715 121.082C75.2075 120.214 75.3615 119.822 75.6695 119.15ZM91.4194 116.588V121.292L91.4335 121.964V122.216C91.4335 122.314 91.4335 122.426 91.4475 122.636H90.0754V121.852H88.5914V123H87.1634C87.2054 122.524 87.2334 122.02 87.2334 121.39V113.564C87.2334 112.976 87.2194 112.654 87.1774 112.22C87.4714 112.248 87.7234 112.262 88.3534 112.262H90.2994C90.8734 112.262 91.1535 112.248 91.4475 112.22C91.4194 112.57 91.4194 112.752 91.4194 113.536V116.518C92.4274 116.098 92.9735 115.678 93.4074 115.034C93.7155 114.558 93.9395 113.914 93.9954 113.27H93.4215C92.7635 113.27 92.3575 113.284 91.8955 113.34V111.87C92.2735 111.912 92.8474 111.94 93.4634 111.94H97.6355C98.1115 111.94 98.6295 111.912 98.9235 111.884C98.8955 112.136 98.8675 112.472 98.8255 113.522C98.7275 115.566 98.5595 116.49 98.2095 116.882C97.9015 117.204 97.5515 117.302 96.6414 117.302C96.2635 117.302 96.0815 117.288 95.4235 117.246C95.4094 116.728 95.3255 116.378 95.1015 115.804C95.6754 115.916 96.1515 115.972 96.5154 115.972C96.9634 115.972 97.1175 115.846 97.1875 115.412C97.3135 114.754 97.3835 114.026 97.3835 113.27H95.4235C95.3255 114.25 95.0735 115.048 94.6535 115.706C94.0795 116.63 93.4634 117.148 92.2735 117.736C92.0354 117.232 91.8255 116.952 91.4194 116.588ZM88.6054 113.578V116.28H90.0754V113.578H88.6054ZM88.6054 117.596V120.522H90.0754V117.596H88.6054ZM93.6594 123.154V123.826H92.1755C92.2175 123.392 92.2455 122.958 92.2455 122.468V119.248C92.2455 118.702 92.2314 118.366 92.1895 118.002C92.4974 118.03 92.7915 118.044 93.2674 118.044H97.5235C98.0835 118.044 98.3495 118.03 98.6435 117.988C98.6155 118.324 98.6015 118.702 98.6015 119.248V122.454C98.6015 123.056 98.6155 123.462 98.6715 123.882H97.1875V123.154H93.6594ZM93.6594 119.36V121.824H97.1875V119.36H93.6594ZM103.613 115.104V113.788C103.095 113.886 102.773 113.942 101.821 114.096C101.709 113.522 101.611 113.242 101.345 112.752C103.375 112.556 105.461 112.01 106.273 111.464L107.141 112.752C106.973 112.808 106.973 112.808 106.791 112.864C106.777 112.878 106.721 112.892 106.637 112.92C106.175 113.088 105.391 113.354 105.027 113.452V115.104H105.811C106.343 115.104 106.651 115.09 106.945 115.034V116.49C106.623 116.448 106.287 116.434 105.797 116.434H105.111C105.293 116.84 105.377 116.98 105.671 117.372C106.175 118.072 106.581 118.478 107.295 119.038C106.903 119.402 106.819 119.528 106.441 120.2C105.783 119.5 105.377 118.926 104.957 118.072C105.013 118.562 105.027 119.024 105.027 119.794V122.146C105.027 122.958 105.041 123.406 105.111 123.854H103.515C103.585 123.378 103.599 122.972 103.599 122.146V119.92C103.599 119.556 103.613 119.248 103.669 118.324C103.431 119.052 103.249 119.416 102.731 120.284C102.507 120.676 102.311 120.928 101.821 121.53C101.583 120.998 101.387 120.718 100.981 120.242C101.611 119.682 102.143 118.968 102.661 118.016C103.025 117.344 103.025 117.344 103.375 116.434H102.563C102.045 116.434 101.681 116.462 101.317 116.504V115.034C101.695 115.09 102.031 115.104 102.577 115.104H103.613ZM108.821 122.636V123.532H107.323C107.365 123.112 107.393 122.552 107.393 121.95V113.928C107.393 113.326 107.379 112.878 107.337 112.486C107.743 112.542 108.065 112.556 108.653 112.556H111.733C112.293 112.556 112.657 112.542 113.063 112.486C113.007 112.878 112.993 113.298 112.993 113.928V121.81C112.993 122.51 113.021 123.098 113.077 123.532H111.537V122.636H108.821ZM108.835 113.956V121.222H111.537V113.956H108.835ZM122.807 114.46C122.415 117.414 121.953 119.024 121.099 120.494C120.427 121.656 119.503 122.3 118.551 122.3C117.095 122.3 116.059 120.872 116.059 118.884C116.059 116.672 117.179 114.768 119.097 113.76C120.035 113.256 121.043 113.032 122.373 113.032C125.299 113.032 127.469 115.104 127.469 117.876C127.469 120.326 126.265 122.09 123.941 123.084C123.479 123.28 123.115 123.392 122.933 123.392C122.765 123.392 122.695 123.336 122.513 123.07C122.275 122.706 122.009 122.44 121.631 122.188C124.515 121.446 125.817 120.088 125.817 117.82C125.817 116.658 125.327 115.678 124.459 115.062C123.969 114.726 123.577 114.586 122.807 114.46ZM121.211 114.53C120.217 114.74 119.727 114.978 119.083 115.538C118.145 116.364 117.613 117.54 117.613 118.856C117.613 119.934 117.963 120.564 118.551 120.564C119.251 120.564 119.965 119.598 120.497 117.932C120.833 116.882 121.001 116.084 121.211 114.53ZM135.001 118.604H133.181V121.88C134.483 121.628 135.435 121.404 136.485 121.124L136.499 122.524C134.693 123.042 133.321 123.35 130.353 123.91L130.045 122.342C130.843 122.272 130.983 122.258 131.683 122.16V114.04C131.683 113.508 131.669 113.088 131.627 112.71C132.005 112.752 132.467 112.766 132.971 112.766H135.421V112.444C135.421 112.122 135.393 111.786 135.337 111.478H136.989C136.933 111.758 136.905 112.024 136.905 112.458V112.766H139.481C139.999 112.766 140.433 112.752 140.811 112.71C140.783 112.948 140.755 113.55 140.755 114.054V117.302C140.755 117.932 140.769 118.31 140.811 118.646C140.657 118.632 140.601 118.632 140.461 118.632L141.525 119.444C141.329 119.57 141.329 119.57 140.965 119.836C140.265 120.326 139.593 120.718 138.795 121.11C139.985 121.81 141.049 122.202 142.477 122.44C142.141 122.93 142.001 123.21 141.735 123.938C139.915 123.49 138.221 122.622 137.003 121.53C136.233 120.83 135.617 120.018 135.239 119.206C135.169 119.038 135.141 118.954 135.001 118.604ZM139.635 118.604H136.485C136.821 119.346 137.129 119.794 137.717 120.326C139.019 119.612 139.551 119.248 140.209 118.618C139.929 118.604 139.803 118.604 139.635 118.604ZM133.181 114.11V115.062H139.299V114.11H133.181ZM133.181 116.294V117.316H139.299V116.294H133.181ZM147.755 116.308C146.719 116.532 146.145 116.672 146.019 116.714C145.907 116.742 145.851 116.77 145.767 116.812C145.697 116.854 145.655 116.868 145.585 116.868C145.291 116.868 145.067 116.322 144.899 115.286C145.011 115.3 145.109 115.3 145.165 115.3C145.753 115.3 147.251 115.118 148.147 114.936C148.441 113.704 148.595 112.78 148.595 112.108C148.595 112.052 148.595 111.982 148.581 111.87C149.183 111.94 149.757 112.066 150.149 112.22C150.373 112.304 150.485 112.43 150.485 112.57C150.485 112.64 150.471 112.682 150.401 112.794C150.191 113.172 150.191 113.172 149.757 114.712C150.093 114.67 150.471 114.642 150.709 114.642C151.283 114.642 151.731 114.754 152.053 114.978C152.613 115.384 152.893 116.21 152.893 117.484C152.893 119.57 152.515 121.348 151.871 122.23C151.423 122.846 150.835 123.14 150.009 123.14C149.505 123.14 149.029 123.07 148.889 122.986C148.777 122.916 148.777 122.916 148.735 122.398C148.693 122.02 148.609 121.698 148.441 121.306C149.169 121.544 149.351 121.586 149.799 121.586C150.471 121.586 150.751 121.264 151.059 120.144C151.269 119.402 151.381 118.436 151.381 117.414C151.381 116.322 151.115 115.93 150.373 115.93C150.121 115.93 149.715 115.958 149.393 116.014C149.351 116.168 149.337 116.182 149.281 116.378C148.889 117.806 148.175 119.696 147.461 121.208C146.719 122.734 146.537 123.042 146.355 123.042C146.243 123.042 145.865 122.846 145.459 122.58C145.137 122.384 145.053 122.3 145.053 122.188C145.053 122.118 145.053 122.118 145.627 121.208C146.397 120.018 147.405 117.68 147.755 116.308ZM153.229 115.314C153.173 115.23 153.159 115.188 153.159 115.146C153.159 115.048 153.285 114.922 153.691 114.6C153.971 114.39 154.111 114.306 154.209 114.306C154.293 114.306 154.363 114.348 154.545 114.53C155.371 115.328 156.141 116.392 156.589 117.316C156.729 117.624 156.813 117.82 156.813 117.904C156.813 118.044 156.771 118.086 156.323 118.45C156.043 118.674 155.721 118.856 155.609 118.856C155.511 118.856 155.469 118.814 155.371 118.576C155.091 117.89 154.825 117.358 154.489 116.84C154.125 116.28 154.055 116.196 153.229 115.314ZM160.201 117.162C160.887 117.064 161.125 117.008 162.287 116.686C164.051 116.196 165.325 115.972 166.277 115.972C168.251 115.972 169.469 117.05 169.469 118.8C169.469 119.85 169.035 120.774 168.209 121.474C167.663 121.936 166.851 122.328 165.773 122.65C165.171 122.818 164.527 122.944 164.247 122.944C164.079 122.944 163.995 122.902 163.939 122.762C163.743 122.272 163.519 121.922 163.225 121.628C166.305 121.306 167.873 120.326 167.873 118.73C167.873 117.918 167.201 117.288 166.333 117.288C164.821 117.288 163.169 117.792 161.433 118.758C161.293 118.828 161.209 118.87 161.153 118.87C160.915 118.87 160.523 118.17 160.201 117.162ZM175.59 115.818C174.974 115.902 174.54 115.944 173.686 116.014C173.658 116.014 173.63 116.014 173.602 116.014C173.532 116.028 173.476 116.028 173.448 116.028C173.322 116.028 173.252 115.972 173.21 115.79C173.126 115.44 173.07 115.006 173.042 114.474C173.238 114.488 173.392 114.488 173.49 114.488C174.246 114.488 175.128 114.432 175.87 114.334C176.01 113.41 176.08 112.696 176.08 112.122C176.08 112.052 176.08 111.94 176.08 111.8C177.704 112.01 178.012 112.108 177.998 112.36C177.998 112.43 177.97 112.472 177.914 112.598C177.746 112.92 177.732 112.962 177.508 114.068C178.054 113.97 178.754 113.788 179.034 113.69C179.09 113.662 179.104 113.662 179.146 113.662C179.272 113.662 179.3 113.718 179.412 114.208C179.468 114.488 179.524 114.88 179.524 114.992C179.524 115.09 179.482 115.146 179.356 115.174C179.104 115.258 179.104 115.258 177.186 115.594C176.542 118.436 175.87 120.536 174.792 123.056C174.722 123.238 174.652 123.308 174.568 123.308C174.386 123.308 173.896 123.112 173.42 122.846C173.182 122.72 173.112 122.65 173.112 122.58C173.112 122.524 173.154 122.426 173.224 122.286C174.288 120.27 175.058 118.128 175.59 115.818ZM178.992 120.256C179.146 120.844 179.314 121.096 179.664 121.334C180.07 121.6 180.658 121.726 181.484 121.726C182.394 121.726 183.178 121.642 183.626 121.502C183.738 121.474 183.766 121.46 183.822 121.46C183.948 121.46 184.004 121.502 184.046 121.628C184.144 121.922 184.214 122.496 184.214 122.93C184.214 123.112 184.158 123.182 183.976 123.224C183.514 123.322 182.73 123.378 181.904 123.378C180.154 123.378 179.174 123.098 178.53 122.426C178.292 122.174 178.096 121.852 177.984 121.502C177.9 121.306 177.844 121.068 177.844 120.984C177.844 120.746 178.264 120.494 178.992 120.256ZM183.71 117.274C183.682 117.274 183.64 117.274 183.598 117.26C183.318 117.218 182.73 117.19 182.24 117.19C181.204 117.19 180.77 117.232 179.538 117.442C179.51 117.456 179.468 117.456 179.44 117.456C179.356 117.456 179.314 117.428 179.286 117.344C179.244 117.246 179.188 116.56 179.188 116.266C179.188 116.084 179.216 116 179.328 115.958C179.384 115.93 179.468 115.916 179.762 115.86C180.714 115.692 181.512 115.622 182.492 115.622C183.304 115.622 183.724 115.65 183.822 115.72C183.892 115.776 183.906 115.888 183.906 116.35C183.906 116.756 183.878 117.12 183.85 117.204C183.836 117.246 183.78 117.274 183.71 117.274ZM191.438 112.808H192.642C193.23 112.808 193.566 112.794 193.86 112.752V114.18C193.58 114.138 193.314 114.124 192.74 114.124H188.442C187.952 114.124 187.644 114.138 187.35 114.18V112.738C187.658 112.794 187.98 112.808 188.61 112.808H189.982V112.43C189.982 112.038 189.954 111.744 189.912 111.478H191.508C191.466 111.744 191.438 112.038 191.438 112.416V112.808ZM192.446 116.434H192.838C193.412 116.434 193.748 116.42 194 116.378V117.834C193.692 117.792 193.356 117.778 192.908 117.778H188.4C187.728 117.778 187.462 117.792 187.056 117.848V116.364C187.42 116.42 187.728 116.434 188.414 116.434H191.06C191.396 115.678 191.592 115.062 191.76 114.236L193.16 114.586C192.964 115.244 192.768 115.762 192.446 116.434ZM188.218 114.53L189.478 114.124C189.786 114.768 189.968 115.258 190.178 116.014L188.848 116.406C188.666 115.622 188.498 115.16 188.218 114.53ZM189.268 123.07V123.84H187.812C187.854 123.462 187.868 123.14 187.868 122.58V119.668C187.868 119.108 187.854 118.856 187.826 118.562C188.162 118.59 188.4 118.604 188.904 118.604H192.362C192.908 118.604 193.118 118.59 193.342 118.562C193.314 118.786 193.3 118.996 193.3 119.556V122.832C193.3 123.294 193.314 123.546 193.356 123.84H191.886V123.07H189.268ZM189.268 119.892V121.782H191.886V119.892H189.268ZM198.844 111.828L199.502 112.738C199.404 112.934 199.348 113.046 199.236 113.34C198.816 114.446 198.34 115.468 197.794 116.532C198.522 117.372 198.816 117.806 199.082 118.478C199.306 119.052 199.446 119.738 199.446 120.326C199.446 121.18 199.096 121.81 198.494 122.02C198.144 122.146 197.808 122.188 197.136 122.188C196.87 122.188 196.744 122.188 196.45 122.16C196.422 121.474 196.352 121.152 196.142 120.704C196.492 120.76 196.772 120.774 197.136 120.774C197.808 120.774 198.032 120.634 198.032 120.2C198.032 119.64 197.892 119.052 197.612 118.478C197.304 117.862 196.996 117.47 196.212 116.728C196.982 115.3 197.388 114.334 197.696 113.214H195.82V122.356C195.82 123.098 195.848 123.532 195.904 123.924H194.336C194.378 123.49 194.406 122.972 194.406 122.398V112.962C194.406 112.542 194.392 112.178 194.364 111.842C194.728 111.87 195.008 111.884 195.456 111.884H197.78C198.298 111.884 198.592 111.87 198.844 111.828ZM205.774 117.47H205.046C204.598 117.47 204.262 117.484 203.912 117.54V116.574C203.282 117.232 202.932 117.54 202.232 118.072C202.008 117.624 201.672 117.204 201.196 116.756C202.862 115.594 203.884 114.488 204.738 112.892C205.06 112.304 205.2 111.94 205.27 111.534L206.88 112.122C206.74 112.332 206.67 112.458 206.516 112.808C206.026 113.858 205.228 115.076 204.36 116.07C204.71 116.098 204.78 116.098 205.06 116.098H209.988C210.324 116.098 210.506 116.098 210.828 116.084C209.89 115.034 209.204 113.97 208.616 112.71C208.56 112.57 208.434 112.332 208.336 112.15L209.82 111.562C209.932 111.926 210.058 112.22 210.352 112.738C211.248 114.362 212.382 115.566 214.062 116.63C213.516 117.274 213.404 117.442 213.04 118.086C212.298 117.526 211.948 117.232 211.388 116.672C211.374 116.854 211.374 116.896 211.374 117.134C211.374 119.92 211.164 122.048 210.814 122.748C210.52 123.336 210.03 123.532 208.882 123.532C208.602 123.532 208.336 123.518 207.454 123.476C207.384 122.888 207.3 122.552 207.062 121.908C207.678 122.006 208.294 122.076 208.672 122.076C209.176 122.076 209.33 122.02 209.442 121.824C209.652 121.432 209.862 119.64 209.862 118.24V117.96C209.862 117.848 209.862 117.68 209.862 117.47H207.286C207.174 118.898 206.88 119.85 206.236 120.9C205.494 122.146 204.402 123.07 202.82 123.868C202.568 123.378 202.358 123.084 201.84 122.552C202.666 122.244 203.226 121.908 203.912 121.32C204.85 120.508 205.452 119.458 205.676 118.254C205.718 118.016 205.746 117.876 205.774 117.47ZM221.902 119.626V119.556C220.516 120.368 220.124 120.774 220.124 121.39C220.124 121.642 220.222 121.81 220.432 121.936C220.74 122.118 221.426 122.216 222.308 122.216C223.064 122.216 224.114 122.146 224.828 122.048C225.122 122.006 225.29 121.964 225.85 121.824C225.878 121.824 225.892 121.824 225.92 121.824C226.018 121.824 226.088 121.894 226.13 121.992C226.214 122.286 226.27 122.706 226.27 123.21C226.27 123.42 226.2 123.504 226.018 123.546C225.682 123.616 224.128 123.7 223.106 123.7C221.398 123.7 220.488 123.588 219.816 123.308C219.004 122.972 218.598 122.342 218.598 121.46C218.598 120.648 218.976 119.934 219.732 119.332C220.334 118.856 220.474 118.758 221.762 118.03C221.65 117.568 221.44 117.372 221.006 117.372C220.432 117.372 219.83 117.596 219.172 118.03C218.766 118.31 218.29 118.702 217.996 118.996C217.576 119.43 217.534 119.458 217.422 119.458C217.282 119.458 216.988 119.136 216.694 118.646C216.554 118.408 216.47 118.226 216.47 118.128C216.47 118.002 216.498 117.974 216.834 117.764C217.982 116.994 218.934 116.014 219.508 115.006C218.514 115.076 217.996 115.09 217.45 115.09C217.24 115.09 217.198 115.048 217.128 114.81C217.086 114.628 217.016 113.886 217.002 113.508C217.478 113.578 217.758 113.592 218.43 113.592C218.976 113.592 219.578 113.578 220.208 113.55C220.502 112.752 220.6 112.248 220.614 111.59C221.86 111.8 222.434 112.01 222.434 112.248C222.434 112.304 222.42 112.332 222.378 112.416C222.28 112.598 222.168 112.822 221.986 113.256C221.958 113.312 221.958 113.312 221.944 113.354C222.742 113.242 223.442 113.102 223.932 112.99C224.24 112.906 224.31 112.892 224.38 112.892C224.492 112.892 224.548 112.934 224.576 113.018C224.632 113.27 224.716 113.914 224.716 114.11C224.716 114.264 224.66 114.334 224.478 114.376C224.03 114.502 222.49 114.74 221.202 114.866C220.782 115.636 220.488 116.084 220.054 116.56C220.684 116.266 221.16 116.154 221.72 116.154C222.35 116.154 222.77 116.518 223.05 117.302C224.436 116.546 225.178 116.14 225.262 116.084C225.906 115.706 226.172 115.496 226.48 115.146C227.054 115.734 227.67 116.616 227.67 116.854C227.67 116.938 227.614 116.994 227.432 117.036C226.746 117.218 225.472 117.764 223.344 118.8C223.358 119.052 223.386 119.696 223.386 120.144C223.386 120.214 223.386 120.326 223.386 120.438C223.386 120.508 223.386 120.536 223.386 120.578V120.816C223.386 120.984 223.358 121.068 223.288 121.11C223.218 121.18 222.84 121.222 222.42 121.222C221.944 121.222 221.86 121.18 221.86 120.956C221.86 120.942 221.86 120.928 221.86 120.9C221.888 120.494 221.902 119.962 221.902 119.626ZM5.054 140.42V140.168C4.802 140.14 4.606 140.126 4.284 140.126H4.046C4.186 140.518 4.242 140.658 4.452 140.98C4.802 141.568 5.082 141.918 5.572 142.366C5.306 142.688 5.138 142.968 4.914 143.444C4.536 142.968 4.298 142.604 3.906 141.834C3.962 142.296 3.962 142.296 4.004 143.43V146.3C4.004 147.084 4.018 147.504 4.074 147.882H2.562C2.618 147.378 2.646 146.986 2.646 146.3V144.41C2.646 143.738 2.674 143.066 2.744 142.422C2.422 143.472 1.988 144.354 1.414 145.11C1.19 144.62 1.036 144.354 0.658 143.864C1.218 143.22 1.638 142.534 2.03 141.61C2.282 141.008 2.436 140.532 2.534 140.126H1.96C1.512 140.126 1.274 140.14 0.952 140.196V138.768C1.26 138.824 1.526 138.838 2.002 138.838H2.646V137.466C2.296 137.55 2.058 137.592 1.358 137.732C1.232 137.242 1.162 137.046 0.854 136.486C2.156 136.318 3.108 136.08 4.06 135.688C4.312 135.576 4.466 135.506 4.606 135.408L5.376 136.598C5.292 136.626 5.25 136.64 5.152 136.682C4.816 136.836 4.55 136.92 4.004 137.102V138.838H4.312C4.732 138.838 4.956 138.824 5.194 138.768V139.216C5.502 139.244 5.768 139.258 6.3 139.258H8.302V138.782H6.79C6.244 138.782 6.048 138.796 5.712 138.838V137.774C6.034 137.816 6.3 137.83 6.79 137.83H8.302V137.382H6.622C6.076 137.382 5.824 137.396 5.446 137.438V136.276C5.824 136.332 6.146 136.346 6.72 136.346H8.302C8.288 135.94 8.274 135.744 8.218 135.464H9.73C9.674 135.702 9.66 135.94 9.66 136.346H11.508C12.026 136.346 12.39 136.332 12.81 136.276V137.438C12.404 137.396 12.152 137.382 11.606 137.382H9.66V137.83H11.34C11.858 137.83 12.138 137.816 12.474 137.774V138.838C12.124 138.796 11.928 138.782 11.34 138.782H9.66V139.258H11.886C12.446 139.258 12.782 139.244 13.146 139.188V140.42C12.712 140.364 12.432 140.35 11.886 140.35H6.3C5.782 140.35 5.432 140.364 5.054 140.42ZM7.168 145.88H6.818C6.328 145.88 5.964 145.894 5.67 145.908C5.698 145.614 5.726 145.208 5.726 144.718V141.834C5.726 141.176 5.712 141.078 5.684 140.714C5.95 140.728 6.258 140.742 6.79 140.742H11.228C11.844 140.742 12.11 140.728 12.376 140.714C12.334 140.994 12.334 141.246 12.334 141.876V144.69C12.334 145.348 12.348 145.628 12.376 145.908C12.054 145.894 11.704 145.88 11.256 145.88H10.794C11.69 146.314 12.432 146.552 13.468 146.734C13.076 147.252 12.936 147.476 12.726 147.98C11.368 147.602 10.654 147.266 9.604 146.524L10.178 145.88H7.714L8.344 146.524C7.308 147.28 6.622 147.616 5.222 147.994C4.858 147.266 4.83 147.196 4.522 146.804C5.67 146.594 6.258 146.384 7.168 145.88ZM7.056 141.75V142.198H10.99V141.75H7.056ZM7.056 143.052V143.5H10.99V143.052H7.056ZM7.056 144.354V144.83H10.99V144.354H7.056ZM19.208 143.22V141.316C19.026 141.708 19.026 141.708 18.76 142.478C18.368 141.862 18.2 141.54 18.032 141.036C18.032 141.148 18.046 141.246 18.046 141.302C18.088 141.82 18.102 142.114 18.102 142.618V146.328C18.102 147.042 18.116 147.518 18.172 147.896H16.674C16.744 147.462 16.772 146.916 16.772 146.244V143.5C16.772 143.094 16.786 142.548 16.842 141.848C16.562 142.898 16.17 143.878 15.694 144.676C15.484 144.144 15.26 143.78 14.91 143.374C15.372 142.716 15.624 142.268 16.002 141.33C16.268 140.658 16.506 139.86 16.66 139.132H16.226C15.89 139.132 15.624 139.146 15.33 139.202V137.774C15.582 137.816 15.848 137.83 16.226 137.83H16.758V136.836C16.758 136.136 16.73 135.786 16.674 135.45H18.172C18.116 135.828 18.102 136.206 18.102 136.836V137.83C18.48 137.83 18.662 137.816 18.914 137.788V139.202C18.802 139.146 18.662 139.132 18.116 139.132C18.424 140.028 18.648 140.434 19.208 141.148V139.664C19.208 139.44 19.194 139.258 19.166 139.034C19.418 139.048 19.6 139.062 19.866 139.062H20.804C21.07 138.614 21.476 137.746 21.658 137.242H20.356C19.712 137.242 19.194 137.27 18.83 137.312V135.898C19.208 135.954 19.684 135.982 20.37 135.982H25.942C26.684 135.982 27.118 135.954 27.496 135.898V137.312C27.09 137.27 26.586 137.242 25.942 137.242H23.128C22.946 137.69 22.862 137.858 22.68 138.264H23.044C23.604 138.264 23.814 138.25 24.01 138.222C23.982 138.628 23.982 138.628 23.94 140.294C23.884 142.268 23.744 143.78 23.562 144.634C24.29 144.032 24.528 143.766 24.962 143.052C24.612 142.352 24.43 141.848 24.052 140.588L25.046 139.972C25.298 140.91 25.438 141.33 25.62 141.736C25.83 141.078 25.928 140.658 26.04 139.846H24.906C24.612 139.846 24.458 139.86 24.248 139.888V138.572C24.514 138.614 24.738 138.628 25.2 138.628H26.152C26.446 138.628 26.698 138.614 26.894 138.586L27.426 139.3C26.894 141.708 26.768 142.142 26.334 143.038C26.81 143.682 26.978 143.864 27.776 144.508C27.426 144.886 27.23 145.222 27.062 145.712C26.418 145.138 26.068 144.774 25.662 144.2C25.158 144.928 25.018 145.082 24.29 145.754C24.08 145.32 23.912 145.082 23.534 144.69C23.38 145.292 23.24 145.53 22.932 145.698C22.722 145.824 22.428 145.866 21.882 145.866C21.63 145.866 21.63 145.866 21 145.824C20.93 145.236 20.874 144.984 20.678 144.522C21.294 144.634 21.63 144.676 21.91 144.676C22.316 144.676 22.344 144.62 22.484 143.514C22.638 142.366 22.694 141.288 22.708 139.44H21.952V143.626C21.952 143.85 21.952 143.892 21.98 144.228C21.7 144.214 21.518 144.2 21.322 144.2H19.824C19.53 144.2 19.348 144.214 19.166 144.242C19.194 143.92 19.208 143.752 19.208 143.22ZM20.258 140.21V143.038H20.916V140.21H20.258ZM18.606 147.49V146.062C18.998 146.118 19.418 146.146 20.076 146.146H26.068C26.754 146.146 27.23 146.118 27.594 146.062V147.49C27.174 147.448 26.698 147.42 26.04 147.42H20.048C19.39 147.42 19.012 147.434 18.606 147.49ZM31.276 137.452H31.556C31.822 136.836 32.004 136.192 32.13 135.492L33.67 135.702C33.376 136.57 33.306 136.752 32.984 137.452H33.726C34.398 137.438 34.79 137.424 34.888 137.41C34.874 137.522 34.874 137.522 34.86 137.816C34.86 137.844 34.846 137.886 34.846 138.572V139.692C35.7 138.698 36.61 136.752 36.806 135.45L38.346 135.716C38.276 135.898 38.248 135.982 38.164 136.234C38.108 136.43 37.884 137.102 37.772 137.368H40.642C41.188 137.368 41.51 137.354 41.79 137.312C41.748 137.578 41.748 137.676 41.734 137.886C41.734 137.956 41.734 137.956 41.734 138.306C41.734 138.376 41.734 138.376 41.636 141.554C41.538 144.424 41.37 145.922 41.062 146.706C40.74 147.476 40.194 147.728 38.864 147.728C38.542 147.728 38.206 147.714 37.52 147.686C37.464 147.07 37.366 146.706 37.142 146.146C38.024 146.286 38.444 146.328 38.864 146.328C39.438 146.328 39.648 146.216 39.774 145.838C40.054 144.998 40.236 142.422 40.264 138.768H37.156C36.624 139.818 36.218 140.392 35.42 141.302C35.224 141.022 35.182 140.966 34.846 140.63V145.796C34.846 146.286 34.86 146.776 34.902 147.112H33.46V146.314H31.556V147.49H30.086C30.142 147.084 30.156 146.594 30.156 145.754V138.768C30.156 138.068 30.142 137.76 30.1 137.41C30.324 137.438 30.618 137.452 30.814 137.452H31.276ZM31.542 138.754V141.134H33.46V138.754H31.542ZM31.542 142.436V145.026H33.46V142.436H31.542ZM39.228 143.682L37.87 144.424C37.408 143.108 36.778 141.848 36.134 141.008L37.366 140.35C38.164 141.498 38.584 142.24 39.228 143.682ZM47.488 143.01C47.614 143.304 47.698 143.444 47.95 143.822C47.992 143.892 48.006 143.948 48.006 144.018C48.006 144.116 47.992 144.13 47.866 144.438C47.586 145.082 47.25 146.09 47.082 146.846C47.04 147 46.998 147.084 46.942 147.112C46.872 147.14 46.396 147.21 46.242 147.21C46.228 147.21 46.214 147.21 46.186 147.21C46.116 147.21 46.018 147.196 45.906 147.196C45.724 147.196 45.682 147.154 45.626 146.986C45.36 146.076 45.15 144.2 45.15 142.786C45.15 141.246 45.248 140.294 45.64 138.194C45.78 137.438 45.85 137.018 45.906 136.556C46.494 136.668 46.998 136.808 47.418 137.004C47.656 137.102 47.726 137.172 47.726 137.312C47.726 137.41 47.712 137.452 47.558 137.676C47.096 138.418 46.578 141.386 46.578 143.388C46.578 143.71 46.592 144.144 46.634 144.844C47.026 143.962 47.166 143.696 47.488 143.01ZM49.938 137.662C49.952 137.662 49.98 137.662 50.008 137.676C50.316 137.746 51.212 137.802 51.898 137.802C52.822 137.802 53.746 137.732 54.614 137.578C54.684 137.564 54.684 137.564 54.74 137.564C54.838 137.564 54.88 137.606 54.908 137.718C54.936 137.858 54.978 138.474 54.978 138.852C54.978 139.062 54.936 139.132 54.782 139.16C54.208 139.272 53.256 139.342 52.248 139.342C51.044 139.342 49.966 139.272 49.826 139.188C49.756 139.146 49.728 139.048 49.728 138.796C49.728 138.418 49.77 137.858 49.798 137.746C49.812 137.69 49.854 137.662 49.938 137.662ZM50.05 143.822C50.302 144.326 50.54 144.578 50.988 144.816C51.436 145.054 51.968 145.138 52.906 145.138C53.802 145.138 54.334 145.068 55.202 144.816C55.286 144.788 55.356 144.774 55.398 144.774C55.496 144.774 55.566 144.83 55.58 144.97C55.65 145.446 55.706 146.006 55.706 146.286C55.706 146.426 55.664 146.468 55.468 146.524C54.712 146.72 53.942 146.818 53.004 146.818C51.716 146.818 50.918 146.664 50.26 146.272C49.644 145.894 49 145.124 49 144.746C49 144.55 49.294 144.284 50.05 143.822ZM69.034 142.828L70.168 143.584C70 143.766 70 143.766 69.748 144.018C69.258 144.522 68.88 144.872 68.418 145.236C68.824 145.838 69.258 146.258 69.496 146.258C69.776 146.258 69.874 145.866 69.958 144.48C70.322 144.788 70.742 145.054 71.12 145.25C70.91 147.126 70.532 147.784 69.664 147.784C68.894 147.784 68.012 147.14 67.284 146.02C66.08 146.762 64.75 147.336 63.308 147.742C63.056 147.182 62.874 146.888 62.524 146.44C64.134 146.09 65.408 145.6 66.668 144.858C66.402 144.2 66.276 143.808 66.108 142.968L64.764 143.108C64.302 143.164 63.882 143.22 63.532 143.304L63.406 141.918C63.518 141.918 63.602 141.918 63.658 141.918C63.924 141.918 64.106 141.904 64.652 141.848L65.898 141.722C65.842 141.316 65.842 141.302 65.786 140.84L65.016 140.91C64.61 140.952 64.288 141.008 63.966 141.064L63.868 139.762C63.952 139.762 64.008 139.762 64.05 139.762C64.232 139.762 64.61 139.734 64.918 139.706L65.66 139.636C65.646 139.482 65.646 139.482 65.632 139.272C65.632 139.132 65.632 139.132 65.604 138.796L64.862 138.852C64.512 138.894 64.148 138.936 64.008 138.964C63.896 138.978 63.84 138.992 63.826 138.992C63.77 138.992 63.742 138.992 63.7 138.978L63.574 137.704C63.798 137.704 63.798 137.704 63.826 137.704C64.064 137.704 64.4 137.69 64.778 137.648L65.52 137.578C65.464 136.64 65.464 136.626 65.436 136.22C65.422 135.968 65.422 135.954 65.352 135.562L66.976 135.548C66.934 135.814 66.92 136.066 66.92 136.374C66.92 136.472 66.934 137.214 66.948 137.452L68.628 137.298C68.208 136.864 67.788 136.514 67.214 136.136L68.138 135.478C68.768 135.828 69.202 136.15 69.664 136.612L68.866 137.284L68.936 137.27C69.412 137.228 69.846 137.158 70.14 137.088L70.266 138.418C70.182 138.418 70.126 138.418 70.084 138.418C69.86 138.418 69.65 138.432 68.992 138.488L67.004 138.67C67.018 138.95 67.018 138.964 67.046 139.51L68.754 139.342C69.384 139.286 69.664 139.244 70.028 139.146L70.14 140.476C70.07 140.476 70 140.476 69.972 140.476C69.706 140.476 69.524 140.49 68.866 140.546L67.158 140.714C67.228 141.218 67.256 141.512 67.27 141.582L69.468 141.372C70.112 141.302 70.35 141.26 70.7 141.176L70.84 142.52C70.77 142.52 70.714 142.52 70.686 142.52C70.42 142.52 70.028 142.548 69.552 142.604L67.466 142.828C67.578 143.346 67.662 143.64 67.83 144.074C68.516 143.556 68.824 143.234 69.034 142.828ZM60.06 142.338L60.704 141.33C61.138 141.68 61.222 141.764 61.656 142.184C61.852 141.47 61.936 141.05 62.076 140.056H60.844C60.424 141.302 59.92 142.212 59.122 143.108C58.926 142.646 58.716 142.352 58.282 141.89C59.024 141.064 59.43 140.308 59.78 139.132C59.976 138.516 60.046 138.124 60.116 137.41H59.808C59.36 137.41 59.08 137.424 58.744 137.48V136.052C59.108 136.094 59.542 136.122 60.13 136.122H62.566C63.112 136.122 63.616 136.094 63.994 136.052V137.466C63.63 137.424 63.35 137.41 62.986 137.41H61.46C61.39 138.026 61.348 138.25 61.208 138.852H62.398C62.93 138.852 63.238 138.838 63.518 138.81C63.504 138.866 63.504 138.88 63.49 138.964C63.49 138.978 63.49 139.006 63.476 139.048C63.42 139.454 63.42 139.454 63.322 140.336C63.168 141.904 62.692 143.542 62.02 144.858C61.656 145.586 61.152 146.314 60.634 146.874C60.382 147.154 60.186 147.322 59.486 147.938C59.136 147.392 58.898 147.098 58.52 146.748C59.766 145.852 60.494 144.97 61.194 143.486C60.83 143.066 60.494 142.73 60.06 142.338ZM75.894 135.94C76.608 135.968 77.154 136.024 77.574 136.136C77.924 136.234 78.022 136.304 78.022 136.458C78.022 136.556 78.008 136.598 77.938 136.794C77.784 137.2 77.672 137.914 77.616 138.894C77.504 141.148 77.448 142.898 77.448 144.284C77.448 144.732 77.49 145.068 77.56 145.292C77.714 145.754 78.204 145.992 78.988 145.992C80.248 145.992 81.438 145.474 82.53 144.452C83.034 143.976 83.342 143.598 83.86 142.828C83.944 143.276 84.056 143.57 84.364 144.2C84.406 144.312 84.434 144.396 84.434 144.522C84.434 144.774 84.168 145.11 83.468 145.74C82.082 146.986 80.542 147.63 78.932 147.63C77.868 147.63 77.084 147.364 76.58 146.86C76.048 146.3 75.838 145.572 75.838 144.186C75.838 143.094 75.852 142.254 75.964 138.992C75.978 138.502 75.992 138.208 75.992 138.082C75.992 136.892 75.978 136.542 75.894 135.94ZM92.9724 138.418C91.1384 138.726 89.2064 139.09 88.1424 139.356C87.7784 139.44 87.6524 139.482 87.1484 139.664C86.9664 139.734 86.8684 139.762 86.7844 139.762C86.4764 139.762 86.1964 139.188 85.9444 137.984C86.8404 137.942 87.1624 137.9 88.7164 137.662C90.3964 137.41 92.5244 137.088 93.6444 136.948C94.9044 136.78 95.9124 136.612 96.4444 136.5C96.5424 136.472 96.5844 136.472 96.6544 136.472C96.8364 136.472 96.9064 136.556 97.0324 136.906C97.1444 137.2 97.2284 137.62 97.2284 137.816C97.2284 137.984 97.1724 138.04 96.9764 138.04C96.6824 138.04 96.4164 138.068 96.1504 138.11C93.7844 138.502 91.8944 140.574 91.8944 142.758C91.8944 144.396 93.1824 145.474 95.3664 145.67C95.5624 145.684 95.6324 145.754 95.6324 145.922C95.6324 146.272 95.4924 146.944 95.3664 147.252C95.2964 147.406 95.1844 147.476 95.0024 147.476C94.8204 147.476 94.4004 147.392 93.9664 147.266C91.5864 146.566 90.3404 145.054 90.3404 142.912C90.3404 141.75 90.7184 140.672 91.4464 139.748C91.8384 139.244 92.1744 138.964 92.9724 138.418ZM100.613 139.944V138.474C100.613 138.068 100.599 137.522 100.571 137.214C101.215 137.284 101.691 137.382 102.069 137.522C102.405 137.648 102.517 137.732 102.517 137.886C102.517 137.97 102.517 137.97 102.461 138.11C102.279 138.586 102.223 139.118 102.223 140.392C102.223 142.184 102.335 143.304 102.615 144.158C102.825 144.816 103.147 145.194 103.525 145.194C104.099 145.194 104.575 144.522 105.093 142.968C105.359 143.682 105.457 143.892 105.849 144.396C105.919 144.494 105.961 144.592 105.961 144.69C105.961 144.914 105.751 145.39 105.471 145.796C104.925 146.594 104.225 147.028 103.483 147.028C102.405 147.028 101.593 146.16 101.089 144.438C100.767 143.318 100.613 141.904 100.613 139.944ZM107.725 139.384C108.313 138.95 108.775 138.698 108.943 138.698C109.027 138.698 109.097 138.74 109.209 138.838C109.909 139.51 110.637 140.63 111.099 141.722C111.407 142.464 111.701 143.458 111.701 143.752C111.701 143.892 111.631 143.962 111.337 144.116C111.015 144.284 110.357 144.508 110.189 144.508C110.063 144.508 110.007 144.438 109.965 144.186C109.783 143.108 109.531 142.324 109.097 141.414C108.705 140.602 108.677 140.56 107.725 139.384ZM118.854 140.728H118.98C118.952 140.042 118.952 140.042 118.938 139.174C118.812 139.188 118.686 139.188 118.63 139.188C117.706 139.188 116.516 139.09 116.026 138.964C115.886 138.922 115.858 138.894 115.858 138.754C115.858 138.446 115.9 138.068 115.998 137.522C116.782 137.676 117.748 137.774 118.588 137.774C118.658 137.774 118.784 137.774 118.938 137.76V136.836C118.938 136.346 118.924 136.122 118.896 135.632C119.596 135.674 120.072 135.716 120.408 135.8C120.688 135.856 120.772 135.926 120.772 136.08C120.772 136.15 120.758 136.178 120.66 136.402C120.562 136.64 120.548 136.696 120.492 137.662C121.332 137.564 122.004 137.424 122.662 137.228C122.704 137.214 122.718 137.214 122.732 137.214C122.83 137.214 122.83 137.228 122.984 137.676C123.082 137.97 123.18 138.334 123.18 138.446C123.18 138.544 123.138 138.6 122.998 138.642C122.536 138.796 121.332 139.006 120.45 139.104C120.45 140.098 120.45 140.14 120.464 140.63C121.444 140.504 121.976 140.364 123.082 139.958C123.152 139.93 123.18 139.916 123.222 139.916C123.306 139.916 123.334 139.958 123.474 140.294C123.614 140.644 123.74 141.036 123.74 141.176C123.74 141.246 123.684 141.302 123.586 141.344C122.816 141.624 121.416 141.96 120.534 142.058C120.562 142.59 120.59 142.884 120.674 143.976C121.458 144.214 121.78 144.34 122.382 144.662C123.054 144.998 123.418 145.236 124.02 145.712C124.132 145.796 124.174 145.866 124.174 145.978C124.174 146.076 124.048 146.314 123.782 146.734C123.474 147.196 123.32 147.378 123.222 147.378C123.18 147.378 123.138 147.364 123.096 147.322C122.256 146.524 121.71 146.132 120.772 145.67C120.716 146.342 120.562 146.72 120.184 147.07C119.708 147.532 118.91 147.784 117.916 147.784C116.194 147.784 115.13 147.028 115.13 145.81C115.13 145.278 115.354 144.76 115.732 144.41C116.278 143.906 117.104 143.64 118.154 143.64C118.49 143.64 118.784 143.668 119.134 143.71C119.064 142.8 119.036 142.478 119.022 142.184C118.7 142.198 118.518 142.198 118.35 142.198C117.384 142.198 116.208 142.044 115.55 141.848C115.41 141.806 115.354 141.736 115.354 141.624C115.354 141.414 115.438 140.966 115.564 140.392C116.432 140.602 117.538 140.728 118.574 140.728C118.574 140.728 118.658 140.728 118.854 140.728ZM119.148 145.124C118.784 145.026 118.504 144.998 118.014 144.998C117.118 144.998 116.628 145.264 116.628 145.74C116.628 146.16 117.034 146.384 117.818 146.384C118.728 146.384 119.148 146.062 119.148 145.362C119.148 145.264 119.148 145.124 119.148 145.124ZM133.441 140.238V139.16C130.375 139.356 129.185 139.482 128.303 139.72C128.247 139.734 128.191 139.748 128.149 139.748C128.051 139.748 127.967 139.678 127.925 139.566C127.799 139.216 127.729 138.754 127.687 138.054C127.855 138.054 127.967 138.054 128.023 138.054C128.471 138.054 128.891 138.04 130.235 137.956C131.271 137.9 132.153 137.858 133.413 137.816C133.399 136.556 133.385 136.36 133.259 135.73C134.337 135.758 134.883 135.8 135.079 135.884C135.163 135.926 135.205 135.996 135.205 136.136C135.205 136.164 135.191 136.22 135.163 136.29C135.037 136.598 134.995 136.906 134.967 137.774C137.011 137.718 137.319 137.718 138.719 137.718C139.097 137.718 139.153 137.718 139.195 137.76C139.251 137.816 139.279 138.026 139.279 138.502C139.279 139.146 139.265 139.216 139.083 139.216C139.069 139.216 139.055 139.216 139.027 139.216C138.425 139.16 136.927 139.104 135.947 139.104C135.625 139.104 135.625 139.104 134.925 139.118L134.897 141.414C135.107 141.876 135.177 142.268 135.177 142.94C135.177 144.69 134.533 146.034 133.175 147.028C132.615 147.448 131.901 147.812 131.649 147.812C131.523 147.812 131.453 147.77 131.341 147.658C130.949 147.21 130.655 146.986 130.151 146.706C130.991 146.468 131.425 146.272 131.971 145.936C132.377 145.67 132.741 145.376 133.007 145.082C133.189 144.858 133.329 144.648 133.539 144.2C133.133 144.62 132.797 144.774 132.279 144.774C131.103 144.774 130.333 143.878 130.333 142.52C130.333 141.092 131.243 140.056 132.503 140.056C132.909 140.056 133.161 140.112 133.441 140.238ZM132.601 141.372C132.097 141.372 131.747 141.806 131.747 142.436C131.747 143.024 132.083 143.43 132.587 143.43C133.119 143.43 133.441 143.052 133.441 142.408C133.441 141.75 133.133 141.372 132.601 141.372ZM141.958 143.36C143.274 143.36 144.324 144.424 144.324 145.726C144.324 147.042 143.26 148.106 141.958 148.106C140.656 148.106 139.592 147.042 139.592 145.726C139.592 144.424 140.656 143.36 141.958 143.36ZM141.958 144.452C141.258 144.452 140.684 145.026 140.684 145.726C140.684 146.44 141.258 147.014 141.958 147.014C142.658 147.014 143.232 146.44 143.232 145.726C143.232 145.026 142.658 144.452 141.958 144.452Z" fill="white"/>
</svg>
