<svg width="237" height="153" viewBox="0 0 237 153" fill="none" xmlns="http://www.w3.org/2000/svg">
<path d="M19.4756 25.4C16.569 25.4 13.9956 25.2667 11.7556 25C9.51563 24.7333 7.90229 24.4667 6.91563 24.2V23L6.11563 17.92C6.62229 18.3467 7.46229 18.8 8.63563 19.28C9.80896 19.76 11.3156 20.1733 13.1556 20.52C14.9956 20.84 17.129 21 19.5556 21C21.049 21 22.1956 20.9067 22.9956 20.72C23.7956 20.5067 24.3423 20.2133 24.6356 19.84C24.929 19.4667 25.0756 19.0267 25.0756 18.52C25.0756 17.88 24.8623 17.3867 24.4356 17.04C24.009 16.6667 23.2356 16.36 22.1156 16.12C21.0223 15.88 19.4623 15.6267 17.4356 15.36C15.009 15.04 12.9823 14.6 11.3556 14.04C9.72896 13.48 8.51563 12.6933 7.71563 11.68C6.91563 10.64 6.51563 9.26667 6.51563 7.56C6.51563 6.17333 6.87563 4.96 7.59563 3.92C8.31563 2.88 9.47563 2.06667 11.0756 1.48C12.6756 0.893333 14.7956 0.599999 17.4356 0.599999C20.209 0.599999 22.5823 0.733333 24.5556 0.999999C26.529 1.26667 27.889 1.53333 28.6356 1.8V3L29.8356 7.4C29.169 7.05333 28.209 6.69333 26.9556 6.32C25.7023 5.94667 24.249 5.64 22.5956 5.4C20.9423 5.13333 19.1556 5 17.2356 5C16.0356 5 15.1023 5.10667 14.4356 5.32C13.769 5.50667 13.289 5.78667 12.9956 6.16C12.729 6.50667 12.5956 6.94667 12.5956 7.48C12.5956 8.12 12.8356 8.64 13.3156 9.04C13.8223 9.41333 14.6356 9.72 15.7556 9.96C16.8756 10.2 18.3823 10.4267 20.2756 10.64C23.1823 10.96 25.4223 11.44 26.9956 12.08C28.569 12.72 29.649 13.5467 30.2356 14.56C30.849 15.5467 31.1556 16.7467 31.1556 18.16C31.1556 19.3867 30.929 20.4667 30.4756 21.4C30.0223 22.3067 29.3156 23.0533 28.3556 23.64C27.4223 24.2267 26.209 24.6667 24.7156 24.96C23.249 25.2533 21.5023 25.4 19.4756 25.4ZM48.0778 25.4C43.4911 25.4 40.0511 24.4133 37.7578 22.44C35.4911 20.44 34.3578 17.2933 34.3578 13C34.3578 10.52 34.8245 8.36 35.7578 6.52C36.6911 4.65333 38.1711 3.2 40.1978 2.16C42.2245 1.12 44.8511 0.599999 48.0778 0.599999C50.6111 0.599999 52.7178 0.733333 54.3978 0.999999C56.0778 1.26667 57.2111 1.53333 57.7978 1.8V3L58.5978 7.4C58.0911 7.05333 57.3311 6.69333 56.3178 6.32C55.3311 5.94667 54.1445 5.64 52.7578 5.4C51.3711 5.13333 49.8378 5 48.1578 5C46.3178 5 44.8245 5.29333 43.6778 5.88C42.5578 6.46667 41.7311 7.36 41.1978 8.56C40.6911 9.73333 40.4378 11.2133 40.4378 13C40.4378 14.7867 40.6911 16.2667 41.1978 17.44C41.7311 18.6133 42.6378 19.4933 43.9178 20.08C45.2245 20.6667 47.0245 20.96 49.3178 20.96C51.6111 20.96 53.5178 20.64 55.0378 20C56.5845 19.36 57.6378 18.7467 58.1978 18.16V19.36L58.5978 23.4C58.1445 23.8267 57.0378 24.2667 55.2778 24.72C53.5445 25.1733 51.1445 25.4 48.0778 25.4ZM62.1797 25C62.3664 25 62.553 24.8133 62.7397 24.44C62.9264 24.0667 63.0197 23.4533 63.0197 22.6V3.4C63.0197 2.54667 62.9264 1.94667 62.7397 1.6C62.553 1.22667 62.3664 1.02667 62.1797 0.999999H70.0197C69.833 0.999999 69.6464 1.18667 69.4597 1.56C69.273 1.93333 69.1797 2.56 69.1797 3.44V9.56C69.1797 10.1467 69.2464 10.4933 69.3797 10.6C69.5397 10.7067 70.0197 10.76 70.8197 10.76H81.0997C81.8997 10.76 82.3664 10.72 82.4997 10.64C82.633 10.5333 82.6997 10.1733 82.6997 9.56V3.4C82.6997 2.54667 82.6064 1.94667 82.4197 1.6C82.233 1.22667 82.0464 1.02667 81.8597 0.999999H89.6997C89.513 0.999999 89.3264 1.18667 89.1397 1.56C88.953 1.93333 88.8597 2.56 88.8597 3.44V22.6C88.8597 23.4533 88.953 24.0667 89.1397 24.44C89.3264 24.8133 89.513 25 89.6997 25H81.8597C82.0464 25 82.233 24.8133 82.4197 24.44C82.6064 24.0667 82.6997 23.4533 82.6997 22.6V16.36C82.6997 15.7467 82.6197 15.4 82.4597 15.32C82.3264 15.2133 81.873 15.16 81.0997 15.16H70.8197C70.0197 15.16 69.5397 15.2133 69.3797 15.32C69.2464 15.4267 69.1797 15.7733 69.1797 16.36V22.6C69.1797 23.4533 69.273 24.0667 69.4597 24.44C69.6464 24.8133 69.833 25 70.0197 25H62.1797ZM93.7031 25C93.8898 25 94.0765 24.8133 94.2631 24.44C94.4498 24.0667 94.5431 23.4533 94.5431 22.6V3.4C94.5431 2.54667 94.4498 1.94667 94.2631 1.6C94.0765 1.22667 93.8898 1.02667 93.7031 0.999999H117.063V2.2L117.863 6.84C117.196 6.54667 116.023 6.24 114.343 5.92C112.663 5.57333 110.636 5.4 108.263 5.4H102.343C101.543 5.4 101.063 5.46667 100.903 5.6C100.77 5.70667 100.703 6.04 100.703 6.6V9.56C100.703 10.1467 100.77 10.4933 100.903 10.6C101.063 10.7067 101.53 10.76 102.303 10.76H108.063C109.61 10.76 110.85 10.68 111.783 10.52C112.743 10.3333 113.37 10.1467 113.663 9.96C113.556 10.4667 113.436 11.0533 113.303 11.72C113.17 12.3867 113.063 13.0267 112.983 13.64C112.903 14.2533 112.863 14.76 112.863 15.16H102.303C101.53 15.16 101.063 15.2133 100.903 15.32C100.77 15.4 100.703 15.7467 100.703 16.36V19.32C100.703 19.9333 100.77 20.2933 100.903 20.4C101.036 20.5067 101.503 20.56 102.303 20.56H113.103C114.65 20.56 115.89 20.3867 116.823 20.04C117.783 19.6667 118.41 19.3067 118.703 18.96L117.903 23.76V25H93.7031ZM121.516 25C121.702 25 121.889 24.8133 122.076 24.44C122.262 24.0667 122.356 23.4533 122.356 22.6V3.4C122.356 2.54667 122.262 1.94667 122.076 1.6C121.889 1.22667 121.702 1.02667 121.516 0.999999H134.076C136.422 0.999999 138.396 1.22667 139.996 1.68C141.596 2.13333 142.876 2.76 143.836 3.56C144.822 4.36 145.569 5.28 146.076 6.32C146.582 7.33333 146.916 8.41333 147.076 9.56C147.262 10.7067 147.356 11.8667 147.356 13.04C147.356 14.1067 147.262 15.2133 147.076 16.36C146.916 17.48 146.569 18.56 146.036 19.6C145.529 20.6133 144.782 21.5333 143.796 22.36C142.836 23.16 141.556 23.8 139.956 24.28C138.382 24.76 136.422 25 134.076 25H121.516ZM130.116 20.56H131.756C134.049 20.56 135.889 20.3733 137.276 20C138.662 19.6 139.676 18.88 140.316 17.84C140.956 16.8 141.276 15.2933 141.276 13.32V12.6C141.276 10.52 140.982 8.98667 140.396 8C139.809 6.98667 138.822 6.32 137.436 6C136.049 5.68 134.156 5.52 131.756 5.52H130.116C129.342 5.52 128.876 5.57333 128.716 5.68C128.582 5.76 128.516 6.08 128.516 6.64V19.36C128.516 19.9467 128.582 20.2933 128.716 20.4C128.876 20.5067 129.342 20.56 130.116 20.56ZM163.489 25.4C160.795 25.4 158.582 24.9733 156.849 24.12C155.115 23.2667 153.835 22.04 153.009 20.44C152.182 18.8133 151.769 16.88 151.769 14.64V3.36C151.769 2.50667 151.675 1.90667 151.489 1.56C151.329 1.18667 151.155 0.999999 150.969 0.999999H158.649C158.462 1.02667 158.275 1.21333 158.089 1.56C157.929 1.90667 157.849 2.50667 157.849 3.36V14.56C157.849 16.2667 158.089 17.5867 158.569 18.52C159.049 19.4533 159.715 20.0933 160.569 20.44C161.422 20.7867 162.409 20.96 163.529 20.96H163.969C164.849 20.96 165.622 20.8667 166.289 20.68C166.982 20.4933 167.555 20.1733 168.009 19.72C168.489 19.2667 168.849 18.6267 169.089 17.8C169.355 16.9467 169.489 15.8667 169.489 14.56V3.36C169.489 2.50667 169.395 1.90667 169.209 1.56C169.049 1.18667 168.875 0.999999 168.689 0.999999H176.369C176.182 1.02667 175.995 1.22667 175.809 1.6C175.649 1.94667 175.569 2.54667 175.569 3.4V14.64C175.569 16.88 175.142 18.8133 174.289 20.44C173.462 22.04 172.182 23.2667 170.449 24.12C168.742 24.9733 166.555 25.4 163.889 25.4H163.489ZM180.383 25C180.569 25 180.756 24.8133 180.943 24.44C181.129 24.0667 181.223 23.4533 181.223 22.6V3.4C181.223 2.54667 181.129 1.94667 180.943 1.6C180.756 1.22667 180.569 1.02667 180.383 0.999999H188.223C188.036 0.999999 187.849 1.18667 187.663 1.56C187.476 1.93333 187.383 2.56 187.383 3.44V19.32C187.383 19.9067 187.449 20.2667 187.583 20.4C187.743 20.5067 188.223 20.56 189.023 20.56H198.663C200.209 20.56 201.449 20.3867 202.383 20.04C203.343 19.6667 203.969 19.3067 204.263 18.96L203.063 23.76V25H180.383ZM206.672 25C206.859 25 207.045 24.8133 207.232 24.44C207.419 24.0667 207.512 23.4533 207.512 22.6V3.4C207.512 2.54667 207.419 1.94667 207.232 1.6C207.045 1.22667 206.859 1.02667 206.672 0.999999H230.032V2.2L230.832 6.84C230.165 6.54667 228.992 6.24 227.312 5.92C225.632 5.57333 223.605 5.4 221.232 5.4H215.312C214.512 5.4 214.032 5.46667 213.872 5.6C213.739 5.70667 213.672 6.04 213.672 6.6V9.56C213.672 10.1467 213.739 10.4933 213.872 10.6C214.032 10.7067 214.499 10.76 215.272 10.76H221.032C222.579 10.76 223.819 10.68 224.752 10.52C225.712 10.3333 226.339 10.1467 226.632 9.96C226.525 10.4667 226.405 11.0533 226.272 11.72C226.139 12.3867 226.032 13.0267 225.952 13.64C225.872 14.2533 225.832 14.76 225.832 15.16H215.272C214.499 15.16 214.032 15.2133 213.872 15.32C213.739 15.4 213.672 15.7467 213.672 16.36V19.32C213.672 19.9333 213.739 20.2933 213.872 20.4C214.005 20.5067 214.472 20.56 215.272 20.56H226.072C227.619 20.56 228.859 20.3867 229.792 20.04C230.752 19.6667 231.379 19.3067 231.672 18.96L230.872 23.76V25H206.672Z" fill="#005794"/>
<path d="M27.526 67.946V69.948C23.756 70.702 21.026 71.196 18.296 71.56C17.698 71.664 17.594 71.664 17.1 71.768L16.658 69.246C16.762 69.246 16.84 69.246 16.892 69.246C17.62 69.246 18.608 69.142 20.116 68.934V67.244C18.27 68.206 16.71 68.856 14.344 69.558C13.928 68.544 13.668 68.128 13.044 67.322C16.242 66.698 19.05 65.58 20.792 64.254H16.086C14.656 64.254 14.188 64.28 13.382 64.358V61.966C14.136 62.044 14.76 62.07 16.19 62.07H23.938V61.628C23.938 61.394 23.912 61.004 23.912 60.796C23.392 60.796 23.21 60.796 22.586 60.77C22.534 60.172 22.404 59.626 22.17 59.08C22.664 59.158 23.158 59.21 23.47 59.21C23.756 59.21 23.86 59.106 23.86 58.794V58.014H21.468V59.314C21.468 60.12 21.494 60.64 21.546 61.264H18.998C19.076 60.458 19.076 60.224 19.076 59.314V58.014H16.918V59.522C16.918 60.276 16.944 60.536 16.996 60.926H14.526C14.578 60.224 14.604 59.938 14.604 59.392V57.52C14.604 57.208 14.578 56.714 14.552 56.09C14.89 56.116 15.644 56.142 16.216 56.142H19.076V55.128H15.852C14.942 55.128 14.318 55.154 13.59 55.258V53.1C14.11 53.178 14.37 53.178 15.28 53.204C14.708 52.762 14.162 52.45 13.382 52.06C14.344 51.046 14.916 50.084 15.41 48.602L17.932 49.096C17.724 49.642 17.646 49.798 17.464 50.214H19.076C19.076 49.486 19.05 49.122 18.972 48.576H21.572C21.494 49.096 21.468 49.512 21.468 50.214H23.886C25.004 50.214 25.55 50.188 26.174 50.11V52.216C25.42 52.164 24.9 52.138 23.886 52.138H21.468V53.204H24.198C25.628 53.204 26.044 53.178 26.694 53.1V55.232C26.096 55.154 25.316 55.128 24.328 55.128H21.468V56.142H23.99C24.9 56.142 25.446 56.116 25.992 56.09C25.966 56.35 25.966 56.688 25.966 57.156V59.132C25.966 59.782 25.836 60.12 25.498 60.406H26.642C26.564 60.926 26.538 61.134 26.538 61.628V62.07H33.142C34.494 62.07 35.352 62.044 35.976 61.966V64.358C35.17 64.28 34.702 64.254 33.246 64.254H32.258L34.104 65.372C33.22 66.256 32.466 66.828 31.244 67.504C33.168 68.414 34.416 68.804 36.444 69.168C35.82 70 35.482 70.598 35.066 71.664C31.79 70.728 29.554 69.636 27.526 67.946ZM22.716 65.528V68.544C25.186 68.18 25.914 68.024 27.266 67.712C25.992 66.568 25.29 65.632 24.64 64.254H24.12C23.678 64.696 23.34 65.008 22.716 65.528ZM31.738 64.254H27.266C27.734 65.06 28.228 65.606 29.19 66.308C30.1 65.788 31.088 65.008 31.738 64.254ZM15.696 53.204H19.076V52.138H16.45C16.164 52.58 16.086 52.71 15.696 53.204ZM30.074 57.624H27.37C27.448 57 27.474 56.662 27.474 55.934V51.8C27.474 51.124 27.422 50.396 27.37 49.928H30.074C29.996 50.344 29.97 50.89 29.97 51.8V55.882C29.97 56.74 29.996 57.104 30.074 57.624ZM34.806 51.072V58.3C34.806 59.626 34.624 60.146 33.974 60.536C33.428 60.874 32.622 61.004 31.062 61.004C30.568 61.004 29.84 60.978 29.242 60.952C29.164 60.12 28.93 59.262 28.592 58.586C29.476 58.716 30.412 58.794 30.984 58.794C31.348 58.794 31.816 58.742 31.972 58.716C32.206 58.638 32.258 58.534 32.258 58.066V50.942C32.258 50.032 32.232 49.486 32.128 48.81H34.936C34.832 49.486 34.806 50.032 34.806 51.072ZM53.552 53.958H50.146C49.73 54.66 49.496 54.998 48.768 55.96C48.014 55.284 47.52 54.972 46.48 54.478C48.092 52.658 49.288 50.5 49.522 49.018L52.148 49.59C52.096 49.668 51.81 50.422 51.68 50.708C51.55 51.046 51.472 51.228 51.29 51.644H53.552V50.994C53.552 49.824 53.5 49.252 53.396 48.68H56.308C56.204 49.2 56.178 49.772 56.178 50.994V51.644H59.142C60.338 51.644 61.092 51.592 61.794 51.488V54.062C61.118 53.984 60.364 53.958 59.22 53.958H56.178V56.272H60.312C61.482 56.272 62.028 56.246 62.652 56.168V58.742C61.82 58.638 61.144 58.612 60.312 58.612H48.976C48.222 58.612 47.65 58.638 46.87 58.716V56.168C47.468 56.246 48.04 56.272 49.106 56.272H53.552V53.958ZM58.7 67.114H50.614C49.496 67.114 49.028 67.14 48.404 67.192C48.456 66.75 48.482 66.308 48.482 65.45V62.148C48.482 60.926 48.456 60.458 48.378 59.938C49.054 60.016 49.834 60.042 51.082 60.042H58.57C59.714 60.042 60.52 60.016 61.17 59.938C61.092 60.536 61.092 60.952 61.092 62.486V64.826C61.092 66.308 61.092 66.594 61.17 67.192C60.494 67.14 59.87 67.114 58.7 67.114ZM51.004 62.434V64.722H58.492V62.434H51.004ZM40.292 50.786L42.294 48.992C44.114 50.578 45.388 51.904 46.688 53.516L44.53 55.518C43.178 53.646 42.06 52.398 40.292 50.786ZM40.214 60.926V58.222C40.916 58.326 41.28 58.352 42.19 58.352H44.062C44.816 58.352 45.31 58.326 45.986 58.248C45.908 58.924 45.882 59.626 45.882 60.952V66.334C46.402 67.322 46.818 67.686 47.702 68.076C48.82 68.544 50.198 68.726 52.772 68.726C57.478 68.726 60.754 68.57 63.562 68.18C63.016 69.792 63.016 69.792 62.808 71.118C60.598 71.196 57.01 71.274 54.254 71.274C50.51 71.274 48.95 71.144 47.65 70.754C46.272 70.312 45.414 69.714 44.53 68.518C43.386 69.558 42.788 70.078 41.696 70.832C41.514 70.962 41.176 71.248 40.89 71.456L39.668 68.622C40.474 68.31 41.8 67.4 43.256 66.204V60.796H41.904C41.28 60.796 40.786 60.822 40.214 60.926ZM76.848 58.638H70.582C69.412 58.638 68.866 58.664 68.034 58.742V56.376C68.736 56.454 69.36 56.48 70.582 56.48H73.624C73.208 55.544 72.974 55.102 72.688 54.608H70.01C68.814 54.608 67.826 54.66 67.046 54.738V52.242C67.826 52.346 68.606 52.398 69.88 52.398H70.686C70.218 51.54 69.906 51.124 68.996 50.084L71.492 49.148C72.324 50.292 72.662 50.864 73.416 52.398H74.82V50.656C74.82 49.902 74.768 49.2 74.69 48.706H77.394C77.342 49.174 77.316 49.72 77.316 50.552V52.398H79.162V50.552C79.162 49.772 79.136 49.226 79.058 48.706H81.788C81.71 49.174 81.658 49.876 81.658 50.656V52.398H83.218C84.076 51.202 84.57 50.292 85.012 49.096L87.56 50.032C87.014 50.968 86.546 51.696 86.026 52.398H86.728C88.028 52.398 88.808 52.346 89.562 52.242V54.738C88.782 54.66 87.794 54.608 86.598 54.608H84.076C83.66 55.544 83.478 55.934 83.166 56.48H86.052C87.274 56.48 87.898 56.454 88.626 56.376V58.742C87.82 58.664 87.248 58.638 86.052 58.638H79.526V59.834H84.778C85.87 59.834 86.65 59.808 87.326 59.73V61.914C86.676 61.836 85.87 61.81 84.778 61.81H79.526V63.058H86.52C87.924 63.058 88.808 63.006 89.51 62.902V65.398C88.6 65.294 87.69 65.242 86.546 65.242H81.528C82.36 65.97 83.504 66.62 84.908 67.244C86.494 67.894 87.846 68.284 90.108 68.674C89.406 69.61 89.094 70.156 88.678 71.222C84.492 70.078 81.658 68.57 79.448 66.256C79.5 67.14 79.5 67.452 79.5 68.024V69.272C79.5 70.338 79.552 71.092 79.656 71.794H76.718C76.822 71.066 76.874 70.26 76.874 69.246V68.05C76.874 67.478 76.874 67.27 76.926 66.334C75.782 67.556 74.872 68.258 73.338 69.09C71.752 69.974 70.192 70.624 68.242 71.196C67.878 70.338 67.384 69.584 66.734 68.778C70.348 68.024 72.87 66.932 74.898 65.242H70.27C69.048 65.242 68.164 65.294 67.228 65.398V62.902C68.008 63.006 68.866 63.058 70.244 63.058H76.848V61.81H71.908C70.816 61.81 70.01 61.836 69.36 61.914V59.73C70.036 59.808 70.79 59.834 71.908 59.834H76.848V58.638ZM76.276 56.48H80.384C80.748 55.804 80.982 55.284 81.216 54.608H75.522C75.86 55.336 76.042 55.804 76.276 56.48ZM106.982 54.14C106.254 59.626 105.396 62.616 103.81 65.346C102.562 67.504 100.846 68.7 99.078 68.7C96.374 68.7 94.45 66.048 94.45 62.356C94.45 58.248 96.53 54.712 100.092 52.84C101.834 51.904 103.706 51.488 106.176 51.488C111.61 51.488 115.64 55.336 115.64 60.484C115.64 65.034 113.404 68.31 109.088 70.156C108.23 70.52 107.554 70.728 107.216 70.728C106.904 70.728 106.774 70.624 106.436 70.13C105.994 69.454 105.5 68.96 104.798 68.492C110.154 67.114 112.572 64.592 112.572 60.38C112.572 58.222 111.662 56.402 110.05 55.258C109.14 54.634 108.412 54.374 106.982 54.14ZM104.018 54.27C102.172 54.66 101.262 55.102 100.066 56.142C98.324 57.676 97.336 59.86 97.336 62.304C97.336 64.306 97.986 65.476 99.078 65.476C100.378 65.476 101.704 63.682 102.692 60.588C103.316 58.638 103.628 57.156 104.018 54.27ZM140.86 56.298H139.82C139.612 60.354 139.456 61.784 138.91 64.28C138.26 67.27 137.324 69.402 135.582 71.742C134.932 70.936 134.516 70.494 133.788 69.896C131.084 70.312 129.654 70.494 126.586 70.754C126.118 70.806 125.806 70.832 125.364 70.91L125.026 68.44C125.312 68.466 125.52 68.466 125.806 68.466C126.638 68.466 127.912 68.414 129.316 68.31V66.88H127.522C126.56 66.88 126.144 66.906 125.598 66.984V64.826C126.092 64.904 126.534 64.93 127.522 64.93H129.316V63.708H127.782C126.768 63.708 126.17 63.734 125.468 63.76C125.546 62.824 125.572 62.356 125.572 61.212V58.43C125.572 57.286 125.546 56.87 125.468 55.908C126.014 55.986 126.352 55.986 127.756 55.986H129.316V54.946H127.418C126.534 54.946 126.014 54.972 125.468 55.024V52.788C125.988 52.866 126.43 52.892 127.418 52.892H129.316V51.93C128.172 52.06 127.912 52.086 126.664 52.19C126.482 51.41 126.43 51.254 126.118 50.604C125.546 52.502 125.416 52.866 124.376 55.388V68.622C124.376 70 124.402 70.702 124.506 71.638H121.75C121.854 70.728 121.906 69.792 121.906 68.518V61.888C121.906 60.744 121.906 60.172 121.958 58.924C121.49 59.834 121.282 60.12 120.606 61.004C120.164 59.444 120.06 59.158 119.566 58.17C121.776 55.544 123.284 52.216 123.908 48.524L126.534 49.252C126.43 49.538 126.378 49.694 126.248 50.11C128.198 50.006 128.874 49.954 130.434 49.72C132.462 49.434 133.58 49.148 134.412 48.732L135.66 50.942C133.32 51.358 132.93 51.436 131.578 51.618V52.892H133.528C134.412 52.892 134.854 52.866 135.452 52.788V55.024C134.88 54.972 134.386 54.946 133.528 54.946H131.578V55.986H133.476C134.75 55.986 134.88 55.986 135.4 55.934C135.322 56.61 135.322 56.818 135.322 58.248V61.316C135.322 62.616 135.322 62.85 135.374 63.734C134.386 63.708 134.386 63.708 133.372 63.708H131.578V64.93H133.06C133.944 64.93 134.308 64.904 134.828 64.826V66.958C134.386 66.906 133.918 66.88 133.138 66.88H131.578V68.102C132.514 68.024 132.982 67.972 134.386 67.764V68.726C135.166 67.712 135.686 66.62 136.232 64.904C136.882 62.928 137.272 60.146 137.454 56.298C136.752 56.298 136.492 56.324 135.972 56.402V53.776C136.466 53.854 136.726 53.88 137.558 53.88C137.558 53.152 137.558 52.606 137.558 51.904C137.558 50.058 137.532 49.46 137.402 48.784H140.08C139.976 49.356 139.95 50.006 139.924 51.67C139.924 52.216 139.924 52.216 139.924 53.88H141.042C142.108 53.88 142.654 53.854 143.278 53.802C143.226 54.53 143.174 55.882 143.07 60.276C142.94 64.852 142.602 68.388 142.16 69.818C141.796 71.014 141.172 71.378 139.482 71.378C139.196 71.378 138.962 71.378 138.338 71.326C138.234 70.182 138.078 69.48 137.792 68.726C138.234 68.83 138.962 68.908 139.196 68.908C139.872 68.908 140.054 68.596 140.288 67.036C140.444 66.048 140.522 65.086 140.678 62.746C140.808 60.302 140.808 60.302 140.86 56.298ZM129.316 57.754H127.574V58.976H129.316V57.754ZM129.316 60.666H127.574V61.966H129.316V60.666ZM131.578 61.966H133.32V60.666H131.578V61.966ZM131.578 58.976H133.32V57.754H131.578V58.976ZM158.202 56.948C157.89 56.298 157.552 55.544 157.266 54.79C155.03 55.18 152.716 55.44 151.312 55.44C150.896 55.44 150.714 55.362 150.662 55.128C150.558 54.738 150.454 53.958 150.402 52.996C152.508 52.996 154.12 52.866 156.434 52.502C156.304 52.112 156.304 52.112 155.966 51.15C155.732 50.526 155.524 50.006 155.238 49.46C156.356 49.226 157.37 49.096 158.306 49.096C158.54 49.096 158.67 49.252 158.67 49.512C158.67 49.538 158.67 49.59 158.67 49.642C158.67 49.72 158.67 49.798 158.67 49.876C158.67 50.344 158.774 50.968 159.034 51.982C160.984 51.54 162.648 50.994 163.974 50.422C164.182 50.344 164.234 50.318 164.312 50.318C164.442 50.318 164.52 50.448 164.754 50.994C164.988 51.592 165.222 52.268 165.222 52.398C165.222 52.528 165.17 52.58 165.014 52.658C163.48 53.308 162.778 53.542 159.762 54.296C160.126 55.206 160.23 55.44 160.672 56.376C162.102 55.986 162.804 55.752 163.324 55.492C165.768 54.27 165.768 54.27 165.768 54.27C165.82 54.244 165.846 54.218 165.846 54.218C165.872 54.218 165.924 54.244 165.95 54.244C166.054 54.244 166.158 54.4 166.392 54.894C166.704 55.518 166.964 56.22 166.964 56.376C166.964 56.558 166.964 56.558 166.418 56.844C164.988 57.624 163.87 58.066 161.998 58.586C163.038 60.12 164.52 61.784 165.404 62.408C166.288 63.032 166.314 63.084 166.314 63.344C166.314 63.578 166.054 64.124 165.56 64.982C165.118 65.736 164.91 65.944 164.624 65.944C164.468 65.944 164.442 65.944 164.052 65.658C162.726 64.644 160.048 63.942 157.474 63.942C155.238 63.942 153.834 64.722 153.834 66.022C153.834 66.828 154.458 67.478 155.576 67.894C156.59 68.258 158.826 68.492 161.244 68.492C161.816 68.492 162.31 68.466 163.324 68.414C162.856 69.09 162.622 69.558 162.31 70.65C162.154 71.196 161.972 71.3 161.166 71.3C158.384 71.3 155.914 70.988 154.25 70.39C152.04 69.61 150.87 68.154 150.87 66.204C150.87 63.422 153.158 61.732 156.954 61.732C159.294 61.732 160.776 61.992 162.414 62.72C160.958 61.342 160.178 60.406 159.424 59.184C158.176 59.444 157.552 59.548 156.72 59.678C155.238 59.886 152.534 60.094 151.442 60.094C150.61 60.094 150.584 60.068 150.35 57.624C150.922 57.65 151.364 57.65 151.624 57.65C153.288 57.65 156.46 57.312 158.202 56.948ZM183.812 52.294V50.76C183.812 49.954 183.76 49.304 183.656 48.706H186.854C186.75 49.2 186.698 49.876 186.698 50.76V52.294H193.588C194.992 52.294 195.902 52.242 196.734 52.112V55.154C195.98 55.05 195.148 54.998 193.666 54.998H184.54C184.514 55.206 184.514 55.206 184.514 55.492C184.462 56.402 184.41 56.896 184.332 57.676H191.248C192.574 57.676 193.224 57.65 193.848 57.572C193.822 57.676 193.822 57.754 193.822 57.806C193.77 58.196 193.77 58.378 193.718 59.548C193.588 63.474 193.302 66.464 192.86 68.31C192.288 70.676 191.456 71.3 188.96 71.3C188.076 71.3 187.504 71.274 185.58 71.144C185.476 69.974 185.268 69.142 184.878 68.232C186.282 68.466 187.504 68.57 188.622 68.57C189.714 68.57 189.948 68.284 190.286 66.568C190.598 65.06 190.728 63.578 190.832 60.302H183.942C182.876 65.346 180.666 68.492 175.908 71.612C175.284 70.52 174.842 69.974 173.906 69.22C176.116 67.868 177.156 67.01 178.378 65.554C180.536 62.954 181.368 60.094 181.498 54.998H177.416C176.168 54.998 175.128 55.05 174.27 55.154V52.112C175.18 52.242 176.09 52.294 177.39 52.294H183.812ZM214.102 54.14C213.374 59.626 212.516 62.616 210.93 65.346C209.682 67.504 207.966 68.7 206.198 68.7C203.494 68.7 201.57 66.048 201.57 62.356C201.57 58.248 203.65 54.712 207.212 52.84C208.954 51.904 210.826 51.488 213.296 51.488C218.73 51.488 222.76 55.336 222.76 60.484C222.76 65.034 220.524 68.31 216.208 70.156C215.35 70.52 214.674 70.728 214.336 70.728C214.024 70.728 213.894 70.624 213.556 70.13C213.114 69.454 212.62 68.96 211.918 68.492C217.274 67.114 219.692 64.592 219.692 60.38C219.692 58.222 218.782 56.402 217.17 55.258C216.26 54.634 215.532 54.374 214.102 54.14ZM211.138 54.27C209.292 54.66 208.382 55.102 207.186 56.142C205.444 57.676 204.456 59.86 204.456 62.304C204.456 64.306 205.106 65.476 206.198 65.476C207.498 65.476 208.824 63.682 209.812 60.588C210.436 58.638 210.748 57.156 211.138 54.27ZM19.6725 91.412V92.504C19.6725 96.222 19.4385 98.64 18.9445 100.46C18.0085 103.762 15.9285 106.414 12.8605 108.104C12.2105 108.468 11.7165 108.676 11.5345 108.676C11.3525 108.676 11.2225 108.598 11.0405 108.39C10.4425 107.636 9.97447 107.22 9.06447 106.622C10.7285 105.998 12.1325 105.114 13.2765 103.996C14.6025 102.696 15.4605 101.136 15.9285 99.264C16.2665 97.782 16.5005 94.974 16.5005 91.984C16.5005 89.878 16.4225 88.838 16.2405 87.876C17.8005 87.902 18.7365 88.006 19.5425 88.162C19.8805 88.24 20.0365 88.37 20.0365 88.63C20.0365 88.76 20.0105 88.864 19.9325 89.098C19.7245 89.67 19.6725 90.19 19.6725 91.412ZM9.55847 91.49V95.884C9.55847 96.482 9.58447 97.678 9.61047 98.406C9.61047 98.666 9.63647 98.926 9.63647 99.03C9.63647 99.55 9.27247 99.654 7.24447 99.654C6.46447 99.654 6.30847 99.55 6.30847 99.108C6.30847 99.004 6.30847 98.77 6.30847 98.588C6.41247 96.56 6.46447 95.442 6.46447 93.596C6.46447 90.58 6.38647 89.41 6.17847 88.058C7.50447 88.084 8.72647 88.162 9.32447 88.292C9.68847 88.37 9.89647 88.552 9.89647 88.864C9.89647 88.994 9.87047 89.072 9.81847 89.228C9.61047 89.748 9.55847 90.242 9.55847 91.49ZM29.9165 88.916C31.2165 89.15 33.4265 89.228 38.2885 89.228C40.4465 89.228 42.0845 89.202 45.2825 89.124C46.4265 89.072 46.8165 89.046 47.1805 88.942C47.4405 88.864 47.5185 88.864 47.6225 88.864C48.1165 88.864 48.5845 89.254 49.3385 90.268C49.9885 91.126 50.2485 91.646 50.2485 92.036C50.2485 92.322 50.1185 92.504 49.8325 92.686C49.4165 92.946 49.3385 93.024 48.8185 93.726C47.8825 95.026 46.7385 96.248 45.0745 97.782C44.3985 98.406 44.1645 98.562 43.9045 98.562C43.7225 98.562 43.5925 98.51 43.4625 98.354C42.8385 97.626 42.2665 97.184 41.3305 96.69C43.3325 95.468 44.6845 94.168 46.2705 91.906C32.8805 92.01 32.8805 92.01 31.3465 92.27C31.1385 92.322 31.0605 92.322 31.0085 92.322C30.6185 92.322 30.3845 92.088 30.2545 91.568C30.0725 90.866 29.9685 90.034 29.9165 88.916ZM37.4045 93.752C38.6525 93.83 39.5365 93.96 40.3945 94.194C40.9145 94.324 41.1225 94.48 41.1225 94.74C41.1225 94.844 41.1225 94.844 40.9665 95.182C40.8365 95.52 40.7065 96.092 40.5765 96.976C40.0565 100.512 39.2505 102.852 37.8985 104.75C36.8065 106.258 35.0905 107.74 33.5825 108.468C33.4005 108.572 33.1925 108.624 33.0885 108.624C32.8545 108.624 32.6985 108.546 32.5165 108.312C31.9965 107.688 31.3725 107.22 30.4885 106.7C31.9705 105.998 32.8025 105.478 33.7125 104.698C36.2085 102.54 37.4565 99.368 37.4565 95.182C37.4565 94.584 37.4565 94.22 37.4045 93.752ZM57.5845 89.384C59.0405 89.41 60.2365 89.566 60.9385 89.8C61.1465 89.878 61.2505 90.034 61.2505 90.242C61.2505 90.346 61.2505 90.398 61.1985 90.606C61.0425 91.178 61.0165 91.594 61.0165 92.634C60.9645 98.978 59.8205 103.034 57.0905 106.492C56.4925 107.22 56.2585 107.454 55.9985 107.454C55.8945 107.454 55.7645 107.402 55.5565 107.298C54.8545 106.856 54.2045 106.622 53.0345 106.362C54.8285 104.542 55.5305 103.58 56.3105 101.812C57.4025 99.368 57.8445 96.898 57.8445 93.18C57.8445 91.464 57.7925 90.684 57.5845 89.384ZM63.7205 102.072V92.322C63.7205 91.048 63.6425 90.034 63.4865 88.942C66.2945 89.046 67.3085 89.254 67.3085 89.774C67.3085 89.93 67.2825 90.008 67.1785 90.294C67.1005 90.45 67.0225 90.866 66.9965 91.256C66.9185 91.958 66.9185 91.958 66.8665 103.398C70.1685 101.526 72.3265 99.732 74.5105 96.976C74.5625 98.328 74.6665 99.316 74.9005 100.096C74.9785 100.33 74.9785 100.408 74.9785 100.538C74.9785 100.954 74.7185 101.292 73.5225 102.41C71.5985 104.178 70.2985 105.088 67.8805 106.362C67.3085 106.648 66.9705 106.882 66.6585 107.168C66.4765 107.324 66.2425 107.428 66.0605 107.428C65.7485 107.428 64.8125 106.804 64.1365 106.154C63.6165 105.634 63.3825 105.244 63.3825 104.906C63.3825 104.776 63.4085 104.698 63.4865 104.464C63.6685 103.97 63.7205 103.502 63.7205 102.072ZM90.8125 101.734V101.604C88.2385 103.112 87.5105 103.866 87.5105 105.01C87.5105 105.478 87.6925 105.79 88.0825 106.024C88.6545 106.362 89.9285 106.544 91.5665 106.544C92.9705 106.544 94.9205 106.414 96.2465 106.232C96.7925 106.154 97.1045 106.076 98.1445 105.816C98.1965 105.816 98.2225 105.816 98.2745 105.816C98.4565 105.816 98.5865 105.946 98.6645 106.128C98.8205 106.674 98.9245 107.454 98.9245 108.39C98.9245 108.78 98.7945 108.936 98.4565 109.014C97.8325 109.144 94.9465 109.3 93.0485 109.3C89.8765 109.3 88.1865 109.092 86.9385 108.572C85.4305 107.948 84.6765 106.778 84.6765 105.14C84.6765 103.632 85.3785 102.306 86.7825 101.188C87.9005 100.304 88.1605 100.122 90.5525 98.77C90.3445 97.912 89.9545 97.548 89.1485 97.548C88.0825 97.548 86.9645 97.964 85.7425 98.77C84.9885 99.29 84.1045 100.018 83.5585 100.564C82.7785 101.37 82.7005 101.422 82.4925 101.422C82.2325 101.422 81.6865 100.824 81.1405 99.914C80.8805 99.472 80.7245 99.134 80.7245 98.952C80.7245 98.718 80.7765 98.666 81.4005 98.276C83.5325 96.846 85.3005 95.026 86.3665 93.154C84.5205 93.284 83.5585 93.31 82.5445 93.31C82.1545 93.31 82.0765 93.232 81.9465 92.79C81.8685 92.452 81.7385 91.074 81.7125 90.372C82.5965 90.502 83.1165 90.528 84.3645 90.528C85.3785 90.528 86.4965 90.502 87.6665 90.45C88.2125 88.968 88.3945 88.032 88.4205 86.81C90.7345 87.2 91.8005 87.59 91.8005 88.032C91.8005 88.136 91.7745 88.188 91.6965 88.344C91.5145 88.682 91.3065 89.098 90.9685 89.904C90.9165 90.008 90.9165 90.008 90.8905 90.086C92.3725 89.878 93.6725 89.618 94.5825 89.41C95.1545 89.254 95.2845 89.228 95.4145 89.228C95.6225 89.228 95.7265 89.306 95.7785 89.462C95.8825 89.93 96.0385 91.126 96.0385 91.49C96.0385 91.776 95.9345 91.906 95.5965 91.984C94.7645 92.218 91.9045 92.66 89.5125 92.894C88.7325 94.324 88.1865 95.156 87.3805 96.04C88.5505 95.494 89.4345 95.286 90.4745 95.286C91.6445 95.286 92.4245 95.962 92.9445 97.418C95.5185 96.014 96.8965 95.26 97.0525 95.156C98.2485 94.454 98.7425 94.064 99.3145 93.414C100.381 94.506 101.525 96.144 101.525 96.586C101.525 96.742 101.421 96.846 101.083 96.924C99.8085 97.262 97.4425 98.276 93.4905 100.2C93.5165 100.668 93.5685 101.864 93.5685 102.696C93.5685 102.826 93.5685 103.034 93.5685 103.242C93.5685 103.372 93.5685 103.424 93.5685 103.502V103.944C93.5685 104.256 93.5165 104.412 93.3865 104.49C93.2565 104.62 92.5545 104.698 91.7745 104.698C90.8905 104.698 90.7345 104.62 90.7345 104.204C90.7345 104.178 90.7345 104.152 90.7345 104.1C90.7865 103.346 90.8125 102.358 90.8125 101.734ZM128.253 108.052L125.549 109.638C124.899 108.234 124.639 107.74 124.223 106.986C119.933 107.688 115.383 108.156 110.729 108.39C108.883 108.494 108.571 108.52 107.817 108.65L107.323 105.478C107.817 105.504 108.467 105.53 109.143 105.53C109.715 105.53 109.845 105.53 110.573 105.504C111.821 103.32 113.121 100.72 114.239 98.12C115.071 96.196 115.409 95.182 115.669 93.83L118.971 94.688C118.789 95 118.737 95.13 118.477 95.754C117.307 98.744 115.071 103.346 113.823 105.4C117.411 105.218 119.647 105.036 122.845 104.568C121.675 102.67 121.103 101.864 119.673 100.122L122.117 98.744C124.587 101.916 126.563 104.88 128.253 108.052ZM113.459 87.2L116.527 88.344C116.423 88.474 116.423 88.474 116.319 88.708C116.293 88.734 116.241 88.838 116.163 88.968C116.033 89.202 116.033 89.202 115.851 89.592C114.915 91.568 113.355 93.882 111.691 95.728C110.495 97.08 109.689 97.834 107.869 99.316C107.219 98.198 106.751 97.548 105.971 96.716C108.727 94.844 110.573 92.894 112.133 90.268C112.913 88.968 113.303 88.058 113.459 87.2ZM119.127 88.318L121.883 87.174C122.247 88.474 123.391 90.502 124.665 92.062C125.445 93.05 126.303 93.934 127.421 94.896C128.045 95.442 128.357 95.65 129.787 96.586C128.955 97.548 128.539 98.146 127.915 99.342C125.081 97.08 123.755 95.754 122.169 93.57C121.233 92.296 120.479 91.048 119.855 89.8C119.777 89.644 119.777 89.644 119.595 89.228C119.543 89.124 119.465 88.942 119.361 88.734C119.231 88.474 119.231 88.474 119.127 88.318ZM140.681 101.032H140.941C140.993 100.148 140.993 99.836 140.993 98.718C139.823 98.718 139.173 98.744 138.497 98.822V96.586C139.173 96.664 139.849 96.69 141.019 96.69H148.273C149.495 96.69 150.171 96.664 150.873 96.586V98.822C150.171 98.744 149.547 98.718 148.273 98.718V101.032H148.637C149.885 101.032 150.509 101.006 151.211 100.928V103.19C150.431 103.112 149.885 103.086 148.637 103.086H148.273V106.778C148.273 107.922 148.299 108.416 148.377 108.91H145.777C145.881 108.286 145.907 107.87 145.907 106.778V103.086H143.099C142.839 105.712 142.007 107.376 140.057 109.248C139.407 108.546 138.939 108.13 138.055 107.532C139.745 106.232 140.421 105.114 140.759 103.086C139.407 103.086 138.757 103.112 138.107 103.19V100.928C138.783 101.006 139.407 101.032 140.681 101.032ZM145.907 98.718H143.333C143.333 99.784 143.333 99.784 143.255 101.032H145.907V98.718ZM136.781 95.52V106.518C136.781 108 136.807 108.832 136.911 109.56H134.025C134.129 108.832 134.181 108.026 134.181 106.466V90.008C134.181 88.682 134.155 88.006 134.077 87.2C134.753 87.278 135.403 87.304 136.625 87.304H141.149C142.475 87.304 143.047 87.278 143.723 87.2C143.671 87.954 143.645 88.63 143.645 89.514V93.336C143.645 94.48 143.645 94.896 143.697 95.572C142.891 95.546 142.345 95.52 141.409 95.52H136.781ZM136.781 89.176V90.476H141.201V89.176H136.781ZM136.781 92.244V93.596H141.201V92.244H136.781ZM155.163 89.982V106.492C155.163 108.702 154.409 109.274 151.601 109.274C151.185 109.274 150.847 109.274 149.963 109.222C149.833 108.104 149.703 107.584 149.287 106.596C150.249 106.726 151.003 106.778 151.601 106.778C152.407 106.778 152.563 106.674 152.563 106.128V95.52H147.649C146.817 95.52 145.933 95.546 145.361 95.572C145.439 94.714 145.439 94.532 145.439 93.336V89.514C145.439 88.526 145.413 87.876 145.361 87.2C146.037 87.278 146.635 87.304 147.909 87.304H152.693C153.941 87.304 154.565 87.278 155.267 87.2C155.189 88.11 155.163 88.734 155.163 89.982ZM147.909 89.176V90.476H152.563V89.176H147.909ZM147.909 92.244V93.596H152.563V92.244H147.909ZM165.459 87.46C166.785 87.512 167.799 87.616 168.579 87.824C169.229 88.006 169.411 88.136 169.411 88.422C169.411 88.604 169.385 88.682 169.255 89.046C168.969 89.8 168.761 91.126 168.657 92.946C168.449 97.132 168.345 100.382 168.345 102.956C168.345 103.788 168.423 104.412 168.553 104.828C168.839 105.686 169.749 106.128 171.205 106.128C173.545 106.128 175.755 105.166 177.783 103.268C178.719 102.384 179.291 101.682 180.253 100.252C180.409 101.084 180.617 101.63 181.189 102.8C181.267 103.008 181.319 103.164 181.319 103.398C181.319 103.866 180.825 104.49 179.525 105.66C176.951 107.974 174.091 109.17 171.101 109.17C169.125 109.17 167.669 108.676 166.733 107.74C165.745 106.7 165.355 105.348 165.355 102.774C165.355 100.746 165.381 99.186 165.589 93.128C165.615 92.218 165.641 91.672 165.641 91.438C165.641 89.228 165.615 88.578 165.459 87.46ZM196.633 96.352H196.867C196.815 95.078 196.815 95.078 196.789 93.466C196.555 93.492 196.321 93.492 196.217 93.492C194.501 93.492 192.291 93.31 191.381 93.076C191.121 92.998 191.069 92.946 191.069 92.686C191.069 92.114 191.147 91.412 191.329 90.398C192.785 90.684 194.579 90.866 196.139 90.866C196.269 90.866 196.503 90.866 196.789 90.84V89.124C196.789 88.214 196.763 87.798 196.711 86.888C198.011 86.966 198.895 87.044 199.519 87.2C200.039 87.304 200.195 87.434 200.195 87.72C200.195 87.85 200.169 87.902 199.987 88.318C199.805 88.76 199.779 88.864 199.675 90.658C201.235 90.476 202.483 90.216 203.705 89.852C203.783 89.826 203.809 89.826 203.835 89.826C204.017 89.826 204.017 89.852 204.303 90.684C204.485 91.23 204.667 91.906 204.667 92.114C204.667 92.296 204.589 92.4 204.329 92.478C203.471 92.764 201.235 93.154 199.597 93.336C199.597 95.182 199.597 95.26 199.623 96.17C201.443 95.936 202.431 95.676 204.485 94.922C204.615 94.87 204.667 94.844 204.745 94.844C204.901 94.844 204.953 94.922 205.213 95.546C205.473 96.196 205.707 96.924 205.707 97.184C205.707 97.314 205.603 97.418 205.421 97.496C203.991 98.016 201.391 98.64 199.753 98.822C199.805 99.81 199.857 100.356 200.013 102.384C201.469 102.826 202.067 103.06 203.185 103.658C204.433 104.282 205.109 104.724 206.227 105.608C206.435 105.764 206.513 105.894 206.513 106.102C206.513 106.284 206.279 106.726 205.785 107.506C205.213 108.364 204.927 108.702 204.745 108.702C204.667 108.702 204.589 108.676 204.511 108.598C202.951 107.116 201.937 106.388 200.195 105.53C200.091 106.778 199.805 107.48 199.103 108.13C198.219 108.988 196.737 109.456 194.891 109.456C191.693 109.456 189.717 108.052 189.717 105.79C189.717 104.802 190.133 103.84 190.835 103.19C191.849 102.254 193.383 101.76 195.333 101.76C195.957 101.76 196.503 101.812 197.153 101.89C197.023 100.2 196.971 99.602 196.945 99.056C196.347 99.082 196.009 99.082 195.697 99.082C193.903 99.082 191.719 98.796 190.497 98.432C190.237 98.354 190.133 98.224 190.133 98.016C190.133 97.626 190.289 96.794 190.523 95.728C192.135 96.118 194.189 96.352 196.113 96.352C196.113 96.352 196.269 96.352 196.633 96.352ZM197.179 104.516C196.503 104.334 195.983 104.282 195.073 104.282C193.409 104.282 192.499 104.776 192.499 105.66C192.499 106.44 193.253 106.856 194.709 106.856C196.399 106.856 197.179 106.258 197.179 104.958C197.179 104.776 197.179 104.516 197.179 104.516ZM223.724 95.442V93.44C218.03 93.804 215.82 94.038 214.182 94.48C214.078 94.506 213.974 94.532 213.896 94.532C213.714 94.532 213.558 94.402 213.48 94.194C213.246 93.544 213.116 92.686 213.038 91.386C213.35 91.386 213.558 91.386 213.662 91.386C214.494 91.386 215.274 91.36 217.77 91.204C219.694 91.1 221.332 91.022 223.672 90.944C223.646 88.604 223.62 88.24 223.386 87.07C225.388 87.122 226.402 87.2 226.766 87.356C226.922 87.434 227 87.564 227 87.824C227 87.876 226.974 87.98 226.922 88.11C226.688 88.682 226.61 89.254 226.558 90.866C230.354 90.762 230.926 90.762 233.526 90.762C234.228 90.762 234.332 90.762 234.41 90.84C234.514 90.944 234.566 91.334 234.566 92.218C234.566 93.414 234.54 93.544 234.202 93.544C234.176 93.544 234.15 93.544 234.098 93.544C232.98 93.44 230.198 93.336 228.378 93.336C227.78 93.336 227.78 93.336 226.48 93.362L226.428 97.626C226.818 98.484 226.948 99.212 226.948 100.46C226.948 103.71 225.752 106.206 223.23 108.052C222.19 108.832 220.864 109.508 220.396 109.508C220.162 109.508 220.032 109.43 219.824 109.222C219.096 108.39 218.55 107.974 217.614 107.454C219.174 107.012 219.98 106.648 220.994 106.024C221.748 105.53 222.424 104.984 222.918 104.438C223.256 104.022 223.516 103.632 223.906 102.8C223.152 103.58 222.528 103.866 221.566 103.866C219.382 103.866 217.952 102.202 217.952 99.68C217.952 97.028 219.642 95.104 221.982 95.104C222.736 95.104 223.204 95.208 223.724 95.442ZM222.164 97.548C221.228 97.548 220.578 98.354 220.578 99.524C220.578 100.616 221.202 101.37 222.138 101.37C223.126 101.37 223.724 100.668 223.724 99.472C223.724 98.25 223.152 97.548 222.164 97.548Z" fill="#005794"/>
<path d="M53.4879 143.256H50.6239C49.9199 143.256 49.5199 143.272 49.1839 143.32V142.504H47.7599C47.8079 142.152 47.8239 141.88 47.8239 141.368V140.232C47.8239 139.816 47.8079 139.48 47.7599 139.08C48.2559 139.128 48.7039 139.144 49.4559 139.144H53.4559V138.792C53.4559 138.424 53.4399 138.168 53.3759 137.832H55.2479C55.1839 138.136 55.1679 138.392 55.1679 138.792V139.144H59.3919C60.1439 139.144 60.5759 139.128 61.0879 139.08C61.0399 139.464 61.0239 139.784 61.0239 140.2V141.368C61.0239 141.832 61.0399 142.152 61.0879 142.504H59.6799V143.32C59.2959 143.272 58.9279 143.256 58.2239 143.256H55.1199C55.1199 143.544 55.1199 143.576 55.1039 144.088H57.9679C58.7359 144.088 58.9759 144.072 59.3439 144.024V145.496C58.9759 145.448 58.6879 145.432 57.9679 145.432H54.9919C54.9599 145.8 54.9439 145.928 54.8799 146.264H59.6799C60.4799 146.264 60.8159 146.248 61.2639 146.184V147.8C60.7199 147.736 60.2719 147.704 59.5999 147.704H55.6799C56.2079 148.344 56.5279 148.632 57.1199 148.984C57.7759 149.4 58.7359 149.768 59.8239 150.04C60.2079 150.136 60.6879 150.248 61.5199 150.392C61.1519 150.936 60.9279 151.416 60.7199 152.04C59.2959 151.704 58.6719 151.512 57.8399 151.16C56.2079 150.424 55.1679 149.592 54.2079 148.248C53.6799 149.272 53.0079 149.992 51.9679 150.648C50.8959 151.336 49.9199 151.688 48.2239 152.024C47.9359 151.256 47.8559 151.096 47.4079 150.44C48.9919 150.216 49.7919 149.992 50.7199 149.496C51.6159 149.048 52.2079 148.504 52.6879 147.704H49.3119C48.7039 147.704 48.1919 147.736 47.6479 147.8V146.184C48.0959 146.248 48.4159 146.264 49.2159 146.264H53.2319C53.2959 145.992 53.3279 145.816 53.3759 145.432H50.7679C50.0479 145.432 49.7439 145.448 49.3919 145.496V144.024C49.7599 144.072 50.0159 144.088 50.7679 144.088H53.4719C53.4719 143.88 53.4879 143.592 53.4879 143.256ZM50.6239 141.896H53.5039C53.4879 141.416 53.4719 141.192 53.4399 140.904H55.2159C55.1679 141.096 55.1679 141.272 55.1519 141.896H58.2239C58.8159 141.896 59.0239 141.896 59.4239 141.848V140.584H49.4239V141.848C49.7599 141.88 50.0319 141.896 50.6239 141.896ZM69.0559 142.68L69.9199 141.8C70.2719 142.056 70.3839 142.152 70.7359 142.504C70.9279 142.312 71.0079 142.216 71.1999 141.96C70.8959 141.704 70.6719 141.544 70.2719 141.32L71.0079 140.312C71.2959 140.488 71.5839 140.696 71.8719 140.92C72.0639 140.568 72.1279 140.44 72.3359 139.928H70.8799C70.2079 141.016 69.5519 141.8 68.5919 142.664C68.4159 142.184 68.2879 141.912 68.0799 141.592L67.4079 143.272C67.9999 144.008 68.2719 144.536 68.4479 145.272C68.5439 145.624 68.5759 145.912 68.5759 146.44C68.5759 147.336 68.3359 148.008 67.8719 148.36C67.5839 148.6 67.1519 148.712 66.5759 148.712C66.5439 148.712 66.4319 148.712 66.2719 148.696C66.2719 147.72 66.2399 147.528 65.9999 147.112C66.2719 147.176 66.3999 147.192 66.5759 147.192C66.9599 147.192 67.1359 146.904 67.1359 146.264C67.1359 145.848 67.0559 145.384 66.9279 144.968C66.7199 144.344 66.5119 143.976 65.9359 143.32C66.4799 142.2 66.7519 141.368 67.0719 139.768H65.8239V150.104C65.8239 150.936 65.8399 151.56 65.8879 152.008H64.2079C64.2719 151.56 64.3039 150.872 64.3039 150.088V139.736C64.3039 139.016 64.2879 138.664 64.2399 138.248C64.5439 138.28 64.8319 138.296 65.2799 138.296H67.1199C67.6799 138.296 67.9519 138.28 68.2239 138.232L68.9919 139.112C68.8959 139.304 68.8479 139.384 68.7839 139.624C68.6719 139.96 68.4639 140.536 68.3039 140.968C69.1039 140.2 69.7919 139.176 70.1439 138.232C70.2559 137.928 70.2879 137.864 70.3199 137.624L71.9199 137.88C71.8079 138.088 71.8079 138.088 71.6959 138.344C71.6799 138.376 71.6479 138.44 71.5999 138.568H72.3679C73.0399 138.568 73.3439 138.552 73.6319 138.52C73.6639 138.744 73.6959 138.888 73.7759 139.096C74.0799 140.008 74.4639 140.712 75.0399 141.448C75.4879 140.984 75.8399 140.488 76.1279 139.944H74.9279C74.7519 139.944 74.5279 139.96 74.2719 139.992V138.472C74.5759 138.52 74.8799 138.536 75.1839 138.536H76.2399C76.7839 138.536 77.0559 138.52 77.2639 138.472L77.9999 139.464C77.8719 139.64 77.7599 139.816 77.5039 140.296C77.1039 141 76.5599 141.768 75.9679 142.44C76.7359 143.128 77.2959 143.496 78.3839 143.992C77.9839 144.584 77.8079 144.936 77.5679 145.608C76.7359 145.112 76.2879 144.792 75.6159 144.216V145.096C75.4079 145.064 75.1839 145.048 74.6719 145.048H71.8239C71.4719 145.048 71.1999 145.064 70.9599 145.096V144.264C70.2879 144.904 69.9199 145.192 69.2159 145.672C69.0079 145.144 68.7999 144.84 68.3999 144.408C69.0399 144.008 69.2639 143.832 69.8239 143.352C69.6319 143.144 69.6319 143.144 69.0559 142.68ZM74.7039 143.656H75.0079C74.2719 142.888 73.7759 142.136 73.2159 140.984C72.8319 141.976 72.4159 142.648 71.5359 143.656C71.8399 143.656 71.8399 143.656 71.9039 143.656H74.7039ZM72.4319 147.416H70.4159C69.7759 147.416 69.2799 147.432 69.0559 147.48V145.88C69.2639 145.928 69.8879 145.96 70.4799 145.96H76.2399C76.9599 145.96 77.4079 145.944 77.6959 145.88V147.496C77.3119 147.448 76.7839 147.416 76.2399 147.416H73.9839V150.392C73.9839 151.592 73.6159 151.88 72.0639 151.88C71.7919 151.88 71.3599 151.864 70.7839 151.832C70.7519 151.208 70.6239 150.696 70.3999 150.184C71.1999 150.312 71.6319 150.36 71.9839 150.36C72.3519 150.36 72.4319 150.296 72.4319 149.976V147.416ZM74.6879 148.408L76.0319 147.784C76.6559 148.904 77.2319 149.544 78.2719 150.264C77.8719 150.744 77.7279 150.968 77.3759 151.624C76.0799 150.568 75.5679 149.944 74.6879 148.408ZM69.9519 147.784L71.2479 148.408C70.4639 149.864 69.8719 150.584 68.5759 151.704C68.1919 151.16 67.9359 150.872 67.4559 150.488C68.8959 149.496 69.2799 149.08 69.9519 147.784ZM88.5279 141.24C88.0799 144.616 87.5519 146.456 86.5759 148.136C85.8079 149.464 84.7519 150.2 83.6639 150.2C81.9999 150.2 80.8159 148.568 80.8159 146.296C80.8159 143.768 82.0959 141.592 84.2879 140.44C85.3599 139.864 86.5119 139.608 88.0319 139.608C91.3759 139.608 93.8559 141.976 93.8559 145.144C93.8559 147.944 92.4799 149.96 89.8239 151.096C89.2959 151.32 88.8799 151.448 88.6719 151.448C88.4799 151.448 88.3999 151.384 88.1919 151.08C87.9199 150.664 87.6159 150.36 87.1839 150.072C90.4799 149.224 91.9679 147.672 91.9679 145.08C91.9679 143.752 91.4079 142.632 90.4159 141.928C89.8559 141.544 89.4079 141.384 88.5279 141.24ZM86.7039 141.32C85.5679 141.56 85.0079 141.832 84.2719 142.472C83.1999 143.416 82.5919 144.76 82.5919 146.264C82.5919 147.496 82.9919 148.216 83.6639 148.216C84.4639 148.216 85.2799 147.112 85.8879 145.208C86.2719 144.008 86.4639 143.096 86.7039 141.32ZM103.024 141.88C102.288 142.84 101.36 143.784 100.288 144.664C99.8079 145.048 99.5519 145.208 99.4239 145.208C99.2959 145.208 99.2799 145.208 98.9759 144.888C98.6879 144.6 98.2879 144.312 97.8399 144.072C99.5519 143.032 100.576 142.104 101.568 140.712C102.24 139.768 102.736 138.84 102.992 137.96C104.688 138.584 105.088 138.792 105.088 139.016C105.088 139.096 105.04 139.16 104.88 139.272C104.72 139.384 104.512 139.672 104.08 140.328C104.224 140.328 104.24 140.328 104.368 140.328C104.928 140.344 105.328 140.344 105.424 140.344C106.976 140.344 107.376 140.312 107.872 140.12C108 140.072 108.048 140.056 108.144 140.056C108.368 140.056 108.592 140.232 109.088 140.824C109.488 141.272 109.6 141.464 109.6 141.64C109.6 141.784 109.552 141.864 109.376 142.04C109.248 142.168 109.056 142.472 108.816 142.936C107.312 145.672 106.192 147.176 104.384 148.808C102.96 150.104 100.704 151.624 100.208 151.624C100.064 151.624 99.9359 151.56 99.8079 151.432C99.3279 150.968 98.9279 150.68 98.4639 150.488C100.672 149.416 102.384 148.216 103.904 146.696C103.792 146.584 103.792 146.584 103.44 146.216C103.104 145.864 102.736 145.56 101.92 144.952C101.824 144.872 101.792 144.824 101.792 144.76C101.792 144.68 102 144.44 102.56 143.864C102.832 143.592 102.896 143.544 102.992 143.544C103.248 143.544 104.192 144.312 105.152 145.288C106.112 144.04 106.8 142.856 107.184 141.832C105.36 141.864 105.36 141.864 103.024 141.88ZM120.807 142.776V146.296C120.807 148.312 120.839 149.8 120.903 150.888C120.903 150.92 120.903 150.984 120.903 151C120.903 151.176 120.855 151.24 120.695 151.256C120.487 151.304 119.815 151.336 119.287 151.336C118.791 151.336 118.743 151.304 118.743 151.032C118.743 151.016 118.743 150.984 118.743 150.952C118.807 150.136 118.839 148.312 118.839 146.296V144.184C117.751 144.888 117.223 145.208 116.295 145.688C115.143 146.296 114.583 146.536 114.375 146.536C114.247 146.536 114.151 146.488 114.039 146.36C113.575 145.832 113.319 145.624 112.695 145.192C114.743 144.44 115.911 143.88 117.335 142.984C119.095 141.88 120.935 140.344 121.975 139.112C122.199 138.856 122.295 138.712 122.503 138.36C123.511 139.032 124.231 139.704 124.231 140.008C124.231 140.104 124.167 140.184 123.975 140.264C123.687 140.392 123.575 140.472 122.823 141.128C122.119 141.752 121.431 142.312 120.807 142.776ZM131.677 148.52C132.285 148.456 132.893 148.408 133.197 148.376C135.101 148.216 136.685 148.04 137.629 147.88C137.005 146.776 136.429 145.896 135.853 145.224C135.789 145.144 135.757 145.08 135.757 145C135.757 144.856 135.933 144.728 136.557 144.36C136.845 144.2 136.957 144.168 137.117 144.168C137.245 144.168 137.325 144.2 137.421 144.296C138.253 145.144 139.229 146.584 140.029 148.152C140.461 149.016 140.829 149.928 140.829 150.136C140.829 150.28 140.669 150.424 140.301 150.616C139.821 150.856 139.357 151.032 139.197 151.032C139.053 151.032 138.957 150.936 138.877 150.712C138.765 150.328 138.573 149.864 138.365 149.384C137.021 149.624 136.029 149.784 135.373 149.88C133.149 150.2 132.557 150.28 129.773 150.552C129.229 150.616 128.957 150.664 128.605 150.808C128.541 150.824 128.493 150.84 128.429 150.84C128.301 150.84 128.205 150.776 128.125 150.616C127.869 150.136 127.709 149.56 127.597 148.76C127.997 148.776 127.997 148.776 128.029 148.776C128.365 148.776 128.365 148.776 129.565 148.696C129.677 148.44 129.677 148.44 129.901 147.944C130.749 146.104 131.853 142.792 132.429 140.424C132.621 139.688 132.685 139.288 132.717 138.76C133.485 138.888 134.125 139.048 134.653 139.224C134.989 139.336 135.133 139.432 135.133 139.576C135.133 139.656 135.101 139.704 134.925 139.912C134.845 140.024 134.669 140.376 134.573 140.648C134.509 140.792 134.349 141.304 133.725 143.272C133.245 144.712 132.317 147.112 131.677 148.52ZM154.349 143.048L150.829 143.064C150.317 146.44 148.973 148.936 146.829 150.52C146.221 150.968 145.741 151.24 145.581 151.24C145.469 151.24 145.405 151.192 145.277 151.048C144.877 150.6 144.493 150.264 143.965 149.96C145.805 149.112 147.005 148.024 147.837 146.472C148.381 145.464 148.717 144.392 148.893 143.064C148.557 143.064 148.317 143.08 148.141 143.08C146.717 143.08 146.013 143.112 145.373 143.24C145.213 143.256 145.149 143.272 145.117 143.272C144.941 143.272 144.829 143.192 144.781 143.016C144.717 142.792 144.589 141.624 144.573 141.224C145.805 141.368 146.605 141.4 148.509 141.4H149.069C149.101 140.76 149.117 140.376 149.117 139.864C149.117 139.24 149.101 138.92 149.037 138.52C150.893 138.6 151.373 138.712 151.373 139C151.373 139.064 151.373 139.064 151.277 139.288C151.165 139.576 151.101 139.944 151.053 140.696C151.037 140.968 151.021 141.112 151.005 141.4H153.389C154.109 141.368 154.109 141.368 154.237 141.352C154.349 141.32 154.349 141.32 154.765 141.144C154.813 141.128 154.909 141.112 154.973 141.112C155.229 141.112 155.453 141.256 155.885 141.688C156.317 142.12 156.493 142.376 156.493 142.584C156.493 142.744 156.493 142.76 156.285 143.192C156.237 143.288 156.173 143.688 156.157 144.008C155.997 146.872 155.677 148.984 155.293 149.832C155.037 150.408 154.669 150.744 154.045 150.968C153.629 151.128 153.213 151.176 152.429 151.176C151.373 151.176 151.229 151.128 151.165 150.76C151.085 150.248 150.957 149.88 150.653 149.224C151.325 149.352 151.725 149.384 152.253 149.384C153.181 149.384 153.453 149.256 153.661 148.712C154.029 147.72 154.317 145.368 154.349 143.048ZM160.361 143.832C161.657 143.96 162.793 143.992 166.137 143.992C169.065 143.992 170.745 143.96 172.361 143.848C172.409 143.848 172.505 143.848 172.569 143.848C173.049 143.848 173.049 143.864 173.049 145.144C173.049 145.8 173.001 145.912 172.729 145.912C172.729 145.912 172.681 145.912 172.665 145.912C171.609 145.864 171.017 145.864 166.393 145.864C164.697 145.864 163.849 145.88 162.377 145.928C162.265 145.928 162.137 145.928 161.913 145.928C161.401 145.928 161.321 145.944 161.017 145.992C160.937 145.992 160.873 146.008 160.841 146.008C160.665 146.008 160.553 145.928 160.521 145.784C160.425 145.384 160.361 144.568 160.361 143.832ZM181.736 144.84V146.632C181.736 147.624 181.784 150.232 181.816 150.984C181.816 151.016 181.816 151.048 181.816 151.064C181.816 151.208 181.784 151.32 181.704 151.368C181.592 151.464 180.952 151.544 180.36 151.544C179.848 151.544 179.752 151.496 179.752 151.176C179.752 151.16 179.752 151.144 179.752 151.112C179.784 150.696 179.832 146.072 179.832 144.184C179.832 140.504 179.8 139.448 179.656 138.536C180.808 138.6 181.32 138.664 181.784 138.76C181.944 138.792 182.024 138.872 182.024 139C182.024 139.096 182.024 139.096 181.96 139.368C181.896 139.56 181.864 139.768 181.848 140.04C181.848 140.072 181.816 141.032 181.768 142.92C182.904 143.24 182.904 143.24 183.56 143.48C185.16 144.04 186.072 144.44 187.496 145.208C187.624 145.288 187.688 145.368 187.688 145.48C187.688 145.64 187.4 146.408 187.144 146.888C187.016 147.16 186.936 147.24 186.84 147.24C186.776 147.24 186.696 147.208 186.584 147.128C185.016 146.088 183.368 145.304 181.736 144.84ZM185.88 141.784C185.816 141.784 185.768 141.752 185.72 141.656C185.4 141.08 185 140.536 184.52 140.04C184.44 139.944 184.424 139.944 184.424 139.896C184.424 139.8 184.504 139.704 184.808 139.496C185.032 139.32 185.16 139.256 185.24 139.256C185.384 139.256 185.528 139.384 185.928 139.816C186.456 140.392 186.824 140.888 186.824 141.032C186.824 141.208 186.104 141.784 185.88 141.784ZM188.44 139.992C188.44 140.088 188.328 140.2 187.96 140.456C187.752 140.6 187.608 140.68 187.528 140.68C187.48 140.68 187.448 140.648 187.368 140.536C186.984 139.896 186.616 139.416 186.168 138.968C186.12 138.92 186.088 138.872 186.088 138.84C186.088 138.712 186.728 138.264 186.92 138.264C187 138.264 187.096 138.312 187.256 138.456C187.752 138.92 188.44 139.8 188.44 139.992Z" fill="#005794"/>
</svg>
